<?xml version="1.0" encoding="utf-8"?>
<!-- Generator: Adobe Illustrator 26.0.0, SVG Export Plug-In . SVG Version: 6.00 Build 0)  -->
<svg version="1.1" id="Calque_1" xmlns="http://www.w3.org/2000/svg" xmlns:xlink="http://www.w3.org/1999/xlink" x="0px" y="0px"
	 viewBox="0 0 420.1 106" style="enable-background:new 0 0 420.1 106;" xml:space="preserve">
<style type="text/css">
	.st0{fill:#0C234D;}
	.st1{fill:#FFFFFF;}
	.st2{fill:#262F46;}
	.st3{fill:#46B124;}
	.st4{fill:#339325;}
</style>
<path class="st0" d="M30.2,5.3c3.6-0.5,9.7-0.2,13.6-0.2l24.3,0c4.5,0,8.9,0,13.4,0c3.5,0,7.6-0.2,11,0.4c4.3,0.8,8.3,2.6,11.6,5.4
	c8.5,7.3,8.2,16.5,8.2,26.6l0,16.3l0,15.4c0,2.6,0,5.3,0,7.9c-0.1,9.8-4.9,18.6-14.1,22.6c-3.5,1.5-6.4,2-10.1,2.2
	c-10.5,0.2-21.3,0.1-31.8,0.1c-6.7,0-15.9,0.2-22.3-0.4c-9.1-0.8-19.7-3-28.6-4.8c-0.2-14.8,0.1-29.7,0-44.4
	C5.2,31.1,1.5,8.2,30.2,5.3z"/>
<path class="st1" d="M21.4,27.6c3.8-0.1,7.5-0.2,11.3-0.1c2.9,4.4,5.7,10.7,8.3,15.5c1,1.9,4.2,7.9,4.7,9.7
	c3.9-8.6,8.3-16.6,12.4-24.9c4.1-0.2,7.8-0.3,11.9,0l0.1,40.9c-1.5,2-3.3,5.4-4,7.9c-2,0-4.5,0-6.5-0.2l0-16.6
	c0-1.7,0.1-5.8-0.1-7.4c-0.3-0.9-0.1-1.3-0.5-2.3c-0.8-0.2-0.7-0.1-1.6,0.3c-2.8,5.4-7.6,13.6-9.9,18.8c-1.2,0-2.5,0-3.7-0.1
	c-4-7.2-8.4-15-11.9-22.4c0.1,4,0.4,27.2-0.6,29.4c-1.5,0.5-8.2,0.3-10.2,0.2c0.3-4.3,0.2-9.6,0.2-14l0-23.5
	C21.3,35.3,21.2,31,21.4,27.6z"/>
<path class="st2" d="M59.6,46.1l-0.1,6.3c-0.3-0.9-0.1-1.3-0.5-2.3c-0.8-0.2-0.7-0.1-1.6,0.3C58.1,49,58.8,47.3,59.6,46.1z"/>
<path class="st3" d="M92.7,41.1l2.7,0c0.3,3.6,0.1,9.4,0.1,13.3c0,3.5,0.2,11.6-0.3,14.6c-0.8,4.6-3.5,8.7-7.3,11.4
	c-5.5,3.8-11.6,3.2-17.8,2.1c-0.3-0.1-2.2-0.5-2.6-0.6c1.5-4.6,2.6-7.4,4.8-11.7c4.3,2.1,9.8,2.9,11.8-2.5
	c1.8-4.7-0.7-22.2,1.1-25.5C86.3,41.1,91.1,41.2,92.7,41.1z"/>
<path class="st4" d="M89,27.6c2.7-0.2,3.8-0.1,6.5,0.4c0.2,2.5,0,5.9-0.6,8.4c-1.5,1.1-2.1,1.5-3.8,2.2l-0.2,0
	c-1.5,0.3-3.9,0.6-5.2-0.3c-1.6-2.1-1.6-7,0-9.2C86.5,27.8,87.6,27.8,89,27.6z"/>
<g>
	<path class="st3" d="M361,37.1c3.3,0,6.3,0.6,9.1,2.5c9.4,6.4,9,25.6-2.2,30.1c-1.7,0.7-3.2,1-5,1.3c-9.5,0.3-15.6-5.4-16.3-14.8
		c-0.4-4.9,0.3-10.1,3.6-14C353.1,38.6,356.6,37.5,361,37.1z"/>
	<path class="st1" d="M361.2,42.8c1.6,0.1,3.1,0.2,4.6,1.1c5.3,3.3,5.1,13,2.4,17.8c-1.2,2-3.1,3-5.4,3.5c-2.4,0.1-4.2-0.2-6.1-1.7
		c-4.8-3.8-4.9-15.6,0.1-19.3C358.2,43.3,359.5,43,361.2,42.8z"/>
	<path class="st3" d="M381.5,37.5c5,0,11.3-0.4,16.1,0.4c8.1,1.4,10.6,10.8,3.2,15.5c5.5,2.2,6.8,7,4.6,12.3
		c-0.4,0.7-0.9,1.3-1.5,1.8c-4.3,4.2-16.2,3.1-22.5,3.1L381.5,37.5z"/>
	<path class="st1" d="M388.1,56.3c4.3,0,16.2-0.5,10.3,7.5c-2.6,1.7-7.1,1.2-10.3,1.2C388,62.1,388.1,59.2,388.1,56.3z"/>
	<path class="st1" d="M388.1,43.1c2.7,0,5.3,0,8,0.2c0.1,0.1,0.2,0.1,0.3,0.2c2.8,1.9,2.8,4,0.9,6.6c-2.2,1.5-6.5,1.1-9.2,1.1
		C388,48.5,388,45.8,388.1,43.1z"/>
	<path class="st0" d="M163.4,37.5c2.3-0.1,4.9,0,7.2,0c0,10.9-0.3,22.3,0.2,33.1c-2.1,0.1-4.5,0-6.6-0.1c0.1-3.8,0-7.8,0-11.6
		c0-3.4,0-6.7,0.1-10.1c-2.3,4.8-5.1,9.7-7.5,14.5c-1.4,0.1-3.4,0-4.8-0.1c-1.9-4.3-5-9.9-7.2-14.3c-0.2,1.6-0.1,5.7-0.1,7.5
		l-0.1,14c-2,0.1-4.3,0-6.3,0.1c-0.2-10.7,0-22.2,0-33c2.4-0.1,4.8-0.1,7.2-0.1l9.1,17.8C156.5,50.4,161,42.7,163.4,37.5z"/>
	<path class="st0" d="M209.8,37.5c9-0.1,27.5-2.7,24.5,13.5c-0.6,3.2-3.4,5.1-6.1,6.7c2.1,2.9,5.9,9.6,7.9,12.8l-5.8,0l-1.6-0.1
		c-1.1-0.4-6-9.8-6.9-11.4l-5.2,0l-0.1,11.5c-2.2,0.1-4.4,0.1-6.6,0.1L209.8,37.5z"/>
	<path class="st1" d="M216.4,43.2c3.2-0.1,7.3-0.6,10.1,1.3c2.7,1.9,1.7,5,0.1,7.2c-2.6,2.2-6.7,1.6-10.1,1.6L216.4,43.2z"/>
	<path class="st0" d="M186.7,37.5c2.4,0,4.8,0,7.2,0l12.1,33c-2.4,0.1-4.8,0.1-7.2,0c-0.6-2.3-1.6-4.5-2.2-7.2l-2.4,0l-10.1,0
		c-0.7,2.4-1.5,4.9-2.4,7.3c-2.3,0.1-4.8,0-7.1,0C178.3,59.7,182.8,48.4,186.7,37.5z"/>
	<path class="st1" d="M190.2,45.3c1,0.7,4,10.7,4.6,12.4l-4.3,0l-4.5-0.1C187.2,53.7,188.8,49.3,190.2,45.3z"/>
	<path class="st0" d="M240.5,37.5l6.8,0c-0.2,4.9,0.2,10.3-0.2,15c3.3-4.6,8.4-10.5,12.1-15c2.3-0.1,5.4,0,7.7,0
		c-4,4.8-7.8,9.6-11.8,14.4c2.6,3.6,5.1,7.7,7.8,11.5c1.7,2.4,3.3,4.8,5,7.2c-2.7,0.1-5.4,0.1-8,0c-2.8-4.7-6.2-9.1-8.9-14l-3.6,3.9
		c-0.1,3.3-0.1,6.8,0,10.1c-2.2,0.1-4.5,0.1-6.7,0.1C240.2,60.2,240.5,48,240.5,37.5z"/>
	<path class="st0" d="M271.5,37.5c7,0,14.1,0,21.1,0c0,1.9,0,3.8-0.1,5.7c-4.8,0-9.7,0-14.5,0c0,2.6,0,5.2,0,7.8
		c4,0.2,8.7,0,12.8,0.1c0.1,1.9,0,3.6,0,5.5c-2,0-11.2-0.2-12.5,0.3l-0.2,0.7c0,2.4,0,4.8-0.1,7.3l15,0.1l0,5.4
		c-7.2,0.1-14.4,0-21.6,0C271.4,59.5,271.4,48.5,271.5,37.5z"/>
	<path class="st0" d="M296.8,37.6c7.7-0.3,16.8-0.1,24.6-0.1c0,1.9,0,3.8-0.1,5.7l-8.9,0.1c-0.1,6-0.1,12-0.1,18l0,9.2l-6.5,0
		c-0.2-8.9-0.1-18.1-0.1-27.1c-2.9-0.1-6.1-0.1-9-0.1L296.8,37.6z"/>
	<path class="st3" d="M335.3,37.5l6.5,0c-0.1,4.9-0.1,9.8,0,14.8c0,2.9,0.1,5.8-0.1,8.7c-0.6,7.7-6.8,11.4-14.1,9.6
		c-1.9-0.4-3.3-1.2-5-2.2c1-2.4,1.7-3.5,3.4-5.5c3.1,2.9,8.1,3.4,9-1.8c0.4-2.5,0.2-6.3,0.2-8.9L335.3,37.5z"/>
</g>
</svg>
