<svg width="77" height="77" viewBox="0 0 77 77" fill="none" xmlns="http://www.w3.org/2000/svg">
<g clip-path="url(#clip0_405_3135)">
<path d="M26.332 63.9516C27.1108 63.9516 27.7678 63.9273 28.4492 63.9516C29.3984 64.0003 29.8364 64.4142 29.8364 65.3636C29.8608 68.7474 29.8608 72.1555 29.8364 75.5394C29.8364 76.5375 29.374 76.9513 28.3762 76.9513C20.8563 76.9513 13.3364 76.9513 5.81651 76.9513C4.79438 76.9513 4.35633 76.5131 4.35633 75.4663C4.35633 72.2286 4.35633 68.9908 4.35633 65.7531C4.35633 64.2438 4.62403 63.9516 6.10854 63.9029C6.25456 63.9029 6.42491 63.8786 6.64394 63.8543C6.64394 62.6127 6.66828 61.4199 6.6196 60.2027C6.6196 59.9349 6.40058 59.6671 6.25456 59.4237C4.50235 56.6241 2.7258 53.8245 0.94925 51.025C-0.656945 48.4689 -0.194555 45.718 2.16606 43.8678C2.36075 43.7218 2.4581 43.454 2.60412 43.2349C2.62845 43.1862 2.62845 43.1375 2.62845 43.0888C3.33421 40.1432 4.55102 39.0964 7.25235 38.926C7.93376 37.8305 8.4935 36.7837 9.19925 35.883C9.905 34.958 11.0001 34.6171 12.1439 34.6658C12.655 34.6902 12.9227 34.4954 13.1904 34.1303C13.9692 33.1565 14.8696 32.2801 16.0864 31.8906C17.79 31.3307 19.6639 32.1827 20.54 33.9112C20.759 34.3737 20.978 34.8119 21.197 35.3231C22.2922 34.5441 23.3143 33.8138 24.3851 33.1322C24.8718 32.8157 24.6285 32.4992 24.5554 32.1584C22.7302 24.5387 24.6771 18.0632 30.4692 12.7562C31.0532 12.2207 31.7103 11.7338 32.4161 11.32C32.9758 11.0035 33.0975 10.614 33.0975 10.0297C33.0731 7.23016 33.0731 4.4306 33.0975 1.63105C33.0975 0.389504 33.4869 0 34.728 0C48.2833 0 61.8143 0 75.3453 0C76.5864 0 76.9758 0.389504 76.9758 1.65539C76.9758 16.7 76.9758 31.7202 76.9758 46.7648C76.9758 47.4464 76.7568 47.9333 76.2944 48.3958C71.4271 53.2403 66.5599 58.1091 61.7169 62.9779C61.1816 63.5134 60.6218 63.7569 59.8674 63.7569C51.5444 63.7325 43.2214 63.7325 34.8984 63.7325C33.4869 63.7325 33.1462 63.3917 33.1462 61.9554C33.1462 56.1372 33.1218 50.319 33.1705 44.5008C33.1705 43.6974 33.0488 43.1132 32.2457 42.7724C31.9537 42.6507 31.7103 42.4072 31.4669 42.2368C30.7369 42.4559 30.5908 42.8454 30.8342 43.5757C31.2723 44.866 31.5886 46.2049 31.978 47.5194C32.1727 48.1767 32.0997 48.761 31.7833 49.3696C30.1528 52.51 28.5466 55.699 26.8917 58.8394C26.478 59.6184 26.259 60.4218 26.3077 61.2981C26.3807 62.1502 26.332 62.9779 26.332 63.9516ZM35.6041 61.2251C43.5134 61.2251 51.3254 61.2251 59.186 61.2251C59.186 60.8599 59.186 60.5678 59.186 60.2757C59.186 56.1129 59.186 51.9744 59.186 47.8116C59.186 46.2536 59.5267 45.9371 61.0842 45.9371C65.27 45.9371 69.4315 45.9371 73.6174 45.9371C73.9094 45.9371 74.1771 45.9127 74.4448 45.8884C74.4448 31.355 74.4448 16.9191 74.4448 2.50743C61.4492 2.50743 48.551 2.50743 35.6285 2.50743C35.6285 4.89314 35.6285 7.18147 35.6285 9.59153C38.3785 8.54474 41.1771 8.03351 44.0731 8.25261C46.9692 8.4717 49.6705 9.27506 52.2015 10.7114C54.7081 12.172 56.8497 14.0465 58.4072 16.5052C62.6417 23.1511 63.1041 30.1378 58.9183 36.7838C53.4426 45.5476 45.29 47.6655 35.6041 44.7199C35.6041 50.1973 35.6041 55.6747 35.6041 61.2251ZM23.874 63.9029C23.874 62.7344 23.801 61.639 23.8984 60.5435C23.947 59.8132 24.0931 59.0341 24.4338 58.4012C26.0156 55.2121 27.6705 52.0718 29.301 48.9314C29.4227 48.688 29.6174 48.4202 29.5687 48.2011C29.2523 46.9352 28.863 45.6936 28.4979 44.3547C27.4515 45.085 26.5023 45.7423 25.5532 46.3996C24.4338 47.1786 23.7523 47.0082 23.1926 45.7667C22.8032 44.9146 22.4139 44.0383 22.0488 43.1862C20.905 40.6058 19.7369 38.0253 18.5687 35.4448C17.9603 34.1059 17.1085 33.9112 16.0621 34.9093C15.5267 35.3961 15.0643 35.9804 14.6749 36.5647C14.1882 37.3193 13.6285 37.5628 12.7767 37.295C11.9006 37.0272 11.1218 37.2706 10.7081 38.0983C10.3431 38.8286 10.0754 39.632 9.905 40.4353C9.61297 41.823 9.1019 42.1638 7.76341 41.6282C6.74129 41.2144 6.03553 41.4334 5.57314 42.4559C5.30544 43.0645 5.25677 43.7705 4.98907 44.3791C4.79438 44.8416 4.52668 45.4015 4.1373 45.645C2.40943 46.7161 2.02005 48.128 3.11518 49.8565C4.9404 52.7534 6.78996 55.626 8.59084 58.5229C8.90721 59.0341 9.05323 59.7158 9.10191 60.3244C9.17491 61.4929 9.12624 62.6857 9.12624 63.9029C14.0422 63.9029 18.8851 63.9029 23.874 63.9029ZM42.8077 43.527C51.8608 43.527 59.186 36.1752 59.186 27.1192C59.186 18.0876 51.8121 10.687 42.7833 10.7114C33.7059 10.7357 26.3563 18.0876 26.3563 27.1922C26.3807 36.1995 33.7546 43.527 42.8077 43.527ZM6.86297 66.5078C6.86297 69.2099 6.86297 71.8391 6.86297 74.4926C13.7015 74.4926 20.5156 74.4926 27.3298 74.4926C27.3298 71.8147 27.3298 69.1856 27.3298 66.5078C20.4913 66.5078 13.7015 66.5078 6.86297 66.5078ZM61.7169 48.4932C61.7169 52.1448 61.7169 55.7234 61.7169 59.1802C65.2701 55.626 68.8718 52.0718 72.4492 48.4932C68.9205 48.4932 65.3431 48.4932 61.7169 48.4932ZM25.5776 35.3718C24.5068 36.1021 23.4116 36.8811 22.2678 37.6845C23.1683 39.6807 24.0687 41.6525 24.9692 43.6731C26.5023 42.602 27.9625 41.5795 29.3254 40.6301C28.0599 38.853 26.8431 37.1489 25.5776 35.3718Z" fill="white"/>
<path d="M47.7233 48.6393C49.9623 48.6393 52.2012 48.6393 54.4402 48.6393C55.9733 48.6393 56.3141 48.9558 56.3141 50.4651C56.3141 52.656 56.3141 54.8227 56.3141 57.0136C56.3141 58.1334 55.876 58.5716 54.7565 58.5716C50.1083 58.5716 45.4357 58.5716 40.7875 58.5716C39.668 58.5716 39.23 58.1334 39.23 56.9893C39.23 54.7496 39.23 52.51 39.23 50.2703C39.23 49.0531 39.6437 48.6393 40.9092 48.6393C43.1481 48.6393 45.4357 48.6393 47.7233 48.6393ZM53.7831 51.1467C49.7189 51.1467 45.7521 51.1467 41.7366 51.1467C41.7366 52.7778 41.7366 54.3845 41.7366 56.0155C45.7764 56.0155 49.7676 56.0155 53.7831 56.0155C53.7831 54.3845 53.7831 52.8021 53.7831 51.1467Z" fill="white"/>
<path d="M62.2521 6.18335C64.4424 6.18335 66.6083 6.18335 68.7986 6.18335C68.9933 6.18335 69.1636 6.18335 69.3583 6.18335C70.2101 6.23204 70.7698 6.69457 70.7698 7.42489C70.7942 8.13087 70.2344 8.64209 69.3827 8.69078C69.188 8.69078 69.0176 8.69078 68.8229 8.69078C64.4667 8.69078 60.1106 8.69078 55.7544 8.69078C55.657 8.69078 55.5353 8.69078 55.438 8.69078C54.3672 8.66644 53.8318 8.25259 53.8318 7.42489C53.8318 6.62154 54.3672 6.20769 55.3893 6.18335C55.5597 6.18335 55.7057 6.18335 55.876 6.18335C57.9933 6.18335 60.1349 6.18335 62.2521 6.18335Z" fill="white"/>
<path d="M42.7588 40.484C35.4336 40.5084 29.4712 34.5441 29.4469 27.1922C29.4225 19.7916 35.3849 13.7787 42.7588 13.7787C50.157 13.7787 56.1438 19.7186 56.1681 27.0948C56.1438 34.5198 50.2057 40.4597 42.7588 40.484ZM42.8075 16.2618C36.7964 16.2618 31.8805 21.1549 31.9048 27.1679C31.9048 33.1808 36.7964 38.0253 42.8318 38.0253C48.7699 38.0253 53.6615 33.1078 53.6615 27.1435C53.6615 21.1549 48.7699 16.2374 42.8075 16.2618Z" fill="white"/>
</g>
<defs>
<clipPath id="clip0_405_3135">
<rect width="77" height="77" fill="white"/>
</clipPath>
</defs>
</svg>
