<svg width="130" height="153" viewBox="0 0 130 153" fill="none" xmlns="http://www.w3.org/2000/svg">
<g id="Group">
<path id="Vector" d="M86.4446 29.8663C83.7694 29.8663 81.2539 29.8663 78.7784 29.8663C75.9834 29.8663 73.1884 29.9062 70.3934 29.8264C64.9632 29.6667 60.8107 25.5141 60.7308 20.044C60.6909 15.3724 60.7308 10.6608 60.7308 5.98923C60.7308 5.43024 60.7308 4.91117 60.7308 4.19246C60.092 4.19246 59.533 4.19246 59.0139 4.19246C43.0027 4.19246 26.9915 4.19246 10.9403 4.19246C6.30866 4.19246 4.15253 6.34859 4.15253 10.9803C4.15253 43.0825 4.15253 75.1449 4.15253 107.247C4.15253 111.759 6.34859 113.955 10.8605 113.955C27.83 113.955 44.7995 113.955 61.7689 113.955C62.2082 113.955 62.6873 113.915 63.1265 113.955C64.3643 114.075 65.0431 114.834 65.0431 116.031C65.0431 117.189 64.3643 117.868 63.2463 118.068C62.8071 118.148 62.3679 118.108 61.8887 118.108C44.8394 118.108 27.7501 118.108 10.7008 118.108C4.19246 118.108 0 113.995 0 107.487C0 75.1848 0 42.9228 0 10.6209C0 4.15253 4.11261 0.0399282 10.541 0.0399282C27.6703 0 44.7995 0.0399282 61.8887 0C63.2064 0 64.1247 0.399282 65.0431 1.31763C73.1485 9.46299 81.2539 17.5684 89.3993 25.6738C90.2777 26.5523 90.677 27.4706 90.677 28.7084C90.6371 34.1786 90.7169 39.6886 90.5971 45.1588C90.5971 45.9973 90.0381 47.1552 89.3993 47.6344C88.0417 48.5527 86.4845 47.3549 86.4845 45.5182C86.4446 40.9264 86.4845 36.3347 86.4845 31.7429C86.4446 31.1839 86.4446 30.6249 86.4446 29.8663ZM82.8111 25.6738C76.8618 19.7245 70.8726 13.7353 64.9632 7.82593C64.9632 11.8986 64.8434 16.2508 65.0031 20.563C65.083 23.3181 67.4388 25.594 70.1539 25.6339C74.4262 25.7138 78.6985 25.6738 82.8111 25.6738Z" fill="white"/>
<path id="Vector_2" d="M111.959 126.972C111.959 128.848 111.839 130.685 111.999 132.522C112.398 137.393 109.564 140.827 104.173 140.867C103.974 144.979 102.496 148.493 98.9826 150.929C96.7067 152.526 94.1114 153.165 91.3563 152.965C85.2872 152.486 81.4142 148.293 80.416 140.907C79.8171 140.827 79.1782 140.787 78.5394 140.707C75.1455 140.228 72.7498 137.633 72.6699 134.199C72.5901 132.162 72.63 130.126 72.6699 128.05C72.6699 127.251 72.5102 126.812 71.7116 126.453C69.7551 125.494 68.4774 123.817 68.4774 121.621C68.4375 117.149 66.481 113.596 63.6461 110.362C59.254 105.331 56.2594 99.7407 55.2213 92.9928C51.9871 71.9107 67.04 52.1063 88.2419 49.7905C108.725 47.5944 127.012 61.9686 129.568 82.4917C130.805 92.354 128.769 101.418 122.061 109.164C120.704 110.721 119.506 112.358 118.348 114.035C117.07 115.912 116.351 118.068 116.351 120.384C116.272 123.498 114.954 125.734 111.959 126.972ZM92.1549 122.979C97.9844 122.979 103.814 122.979 109.683 122.979C111.36 122.979 111.919 122.42 112.079 120.783C112.199 119.745 112.239 118.707 112.398 117.668C113.077 113.835 115.313 110.881 117.589 107.886C119.665 105.131 121.822 102.416 123.299 99.3414C125.974 93.7514 126.094 87.6824 125.176 81.6133C122.261 63.0067 103.534 50.3495 85.2074 54.5819C70.3141 58.0157 59.9328 70.2737 59.0544 85.5262C58.6152 93.2324 60.4119 100.26 65.6026 106.209C66.6807 107.447 67.6789 108.764 68.6771 110.082C70.9929 113.196 72.4703 116.63 72.5501 120.583C72.59 122.5 73.2289 123.059 75.1455 123.059C80.7753 122.979 86.4851 122.979 92.1549 122.979ZM107.767 127.251C97.3455 127.251 87.1638 127.251 76.8224 127.251C76.8224 129.288 76.8224 131.204 76.8224 133.161C76.8224 135.796 77.6609 136.634 80.3361 136.674C85.5268 136.674 90.7175 136.674 95.9081 136.674C98.8628 136.674 101.778 136.714 104.732 136.674C106.569 136.634 107.727 135.796 107.767 134.279C107.847 131.923 107.767 129.647 107.767 127.251ZM99.7812 140.907C94.7103 140.907 89.7592 140.907 84.8081 140.907C84.4487 145.099 87.8826 148.773 92.1948 148.852C96.507 148.892 100.021 145.299 99.7812 140.907Z" fill="white"/>
<path id="Vector_3" d="M15.132 39.369C15.132 45.1187 15.132 50.7086 15.132 56.3385C20.722 56.3385 26.272 56.3385 32.0616 56.3385C32.0616 54.5018 32.0616 52.705 32.0616 50.8683C32.0616 50.1896 32.0217 49.4709 32.1814 48.7921C32.381 47.714 33.1396 47.155 34.2177 47.195C35.3357 47.2349 36.1742 47.8737 36.1742 49.0317C36.254 52.2259 36.254 55.4202 36.1742 58.6144C36.1343 59.9321 35.2159 60.5709 33.9781 60.5709C27.0306 60.6108 20.123 60.6108 13.1755 60.5709C11.6583 60.5709 10.8597 59.7723 10.8597 58.2151C10.8198 51.3475 10.8198 44.4399 10.8597 37.5723C10.8597 35.8553 11.6583 35.1766 13.4151 35.1766C18.0468 35.1766 22.6785 35.1766 27.3501 35.1766C28.9073 35.1766 29.9055 36.055 29.8655 37.3327C29.8256 38.5305 28.8673 39.369 27.39 39.369C23.3572 39.4089 19.2846 39.369 15.132 39.369Z" fill="white"/>
<path id="Vector_4" d="M15.132 74.5861C15.132 80.2958 15.132 85.8857 15.132 91.5156C20.722 91.5156 26.272 91.5156 32.0616 91.5156C32.0616 89.5991 32.0616 87.6825 32.0616 85.766C32.0616 85.1271 32.0616 84.4483 32.2213 83.8494C32.5008 82.8113 33.3792 82.1724 34.3774 82.4919C35.0961 82.7314 36.0943 83.5699 36.0943 84.1688C36.254 87.443 36.254 90.757 36.1343 94.0311C36.0943 95.4685 34.8965 95.7879 33.6188 95.7879C28.8274 95.7879 24.036 95.7879 19.2446 95.7879C17.2482 95.7879 15.2518 95.8279 13.2554 95.7879C11.5784 95.748 10.8597 95.1092 10.8597 93.4322C10.8198 86.5645 10.8198 79.6569 10.8597 72.7893C10.8597 71.1922 11.5784 70.4735 13.1755 70.4735C17.9669 70.4335 22.7583 70.4335 27.5497 70.4735C28.9472 70.4735 29.8256 71.312 29.8655 72.5098C29.9055 73.7476 28.9871 74.626 27.4698 74.626C23.9961 74.6659 20.4824 74.626 17.0086 74.6659C16.4097 74.5861 15.8108 74.5861 15.132 74.5861Z" fill="white"/>
<path id="Vector_5" d="M24.3971 47.9138C27.3119 44.1606 30.2665 40.4073 33.2212 36.6541C34.5788 34.9371 35.8964 33.1803 37.2939 31.4634C38.2522 30.2655 39.4101 30.026 40.4083 30.7447C41.4864 31.5432 41.6062 32.7411 40.608 34.0188C35.7766 40.2476 30.9054 46.4365 26.0342 52.6253C24.7165 54.3023 23.2392 54.1825 22.0813 52.3458C20.8435 50.4293 19.6456 48.4728 18.4478 46.5163C17.6093 45.1188 17.8089 43.9609 18.9269 43.2821C20.0449 42.6034 21.123 42.9627 22.0413 44.3602C22.76 45.4782 23.4788 46.6361 24.2374 47.7541C24.1975 47.834 24.2374 47.834 24.3971 47.9138Z" fill="white"/>
<path id="Vector_6" d="M24.2754 83.2502C27.1103 79.6566 29.8254 76.1829 32.5405 72.6692C34.0578 70.7127 35.615 68.7562 37.1323 66.7997C38.2103 65.4422 39.4082 65.2026 40.4463 66.0411C41.4445 66.8796 41.4445 68.0375 40.4463 69.3551C35.6549 75.4642 30.8635 81.6131 26.0722 87.7221C24.6347 89.5588 23.1973 89.439 21.9596 87.4826C20.7617 85.6059 19.5639 83.6894 18.4059 81.7728C17.5674 80.3753 17.7272 79.1775 18.8452 78.4987C19.9232 77.8599 21.1211 78.2591 21.9596 79.5768C22.7182 80.7347 23.4768 81.9325 24.2754 83.2502Z" fill="white"/>
<path id="Vector_7" d="M61.4101 39.369C57.1378 39.369 52.8255 39.369 48.5532 39.369C46.8363 39.369 45.8381 38.6104 45.7981 37.2928C45.7582 35.9751 46.7963 35.1766 48.4733 35.1766C57.1378 35.1766 65.8022 35.1766 74.4666 35.1766C76.1436 35.1766 77.1817 36.0151 77.1418 37.2928C77.1019 38.5705 76.1037 39.3291 74.3867 39.3291C70.0745 39.369 65.7223 39.369 61.4101 39.369Z" fill="white"/>
<path id="Vector_8" d="M61.4894 49.2712C57.1373 49.2712 52.825 49.2712 48.4728 49.2712C46.7559 49.2712 45.7577 48.4727 45.7577 47.155C45.7577 45.8773 46.7559 45.0788 48.4728 45.0788C57.0973 45.0788 65.7218 45.0788 74.3463 45.0788C76.0632 45.0788 77.0614 45.8374 77.1413 47.1151C77.1812 48.4727 76.1431 49.2712 74.3463 49.2712C70.074 49.2712 65.8017 49.2712 61.4894 49.2712Z" fill="white"/>
<path id="Vector_9" d="M50.708 70.4337C51.7062 70.4337 52.7044 70.3938 53.7026 70.4337C54.9404 70.5136 55.6192 71.2722 55.6192 72.51C55.6192 73.6679 54.9404 74.4665 53.7825 74.5064C51.7461 74.5863 49.7098 74.5863 47.6735 74.5064C46.4357 74.4665 45.7569 73.5881 45.8368 72.3902C45.8767 71.2722 46.5555 70.5136 47.7134 70.4737C48.7116 70.3938 49.7098 70.4337 50.708 70.4337Z" fill="white"/>
<path id="Vector_10" d="M49.3907 84.4477C48.7918 84.4078 47.9533 84.6074 47.4342 84.288C46.7554 83.8887 46.0367 83.1301 45.877 82.4113C45.6774 81.4131 46.3561 80.4948 47.4342 80.4149C48.8317 80.2952 50.2292 80.2952 51.6267 80.4149C52.7047 80.4948 53.2637 81.3333 53.2637 82.4113C53.2637 83.4894 52.7047 84.2081 51.5867 84.4078C50.868 84.4477 50.1892 84.4078 49.3907 84.4477Z" fill="white"/>
<path id="Vector_11" d="M113.276 73.1091C113.036 73.6681 112.877 74.1472 112.637 74.5865C112.118 75.5447 111.519 76.4631 111 77.4213C110.121 78.9386 110.401 79.5775 112.158 80.0566C113.236 80.3361 114.274 80.6156 115.352 80.8951C116.67 81.2145 117.269 82.053 117.269 83.3707C117.269 85.5667 117.269 87.7628 117.269 89.9588C117.269 91.3563 116.67 92.2347 115.272 92.5541C114.074 92.8336 112.837 93.1531 111.679 93.5124C110.521 93.8318 110.241 94.5905 110.8 95.6685C111.439 96.7865 112.118 97.9045 112.757 99.0225C113.356 100.061 113.276 101.019 112.437 101.897C110.8 103.574 109.123 105.211 107.446 106.888C106.608 107.727 105.61 107.807 104.571 107.208C103.453 106.569 102.335 105.89 101.217 105.251C100.179 104.692 99.3808 105.012 99.0613 106.13C98.7419 107.328 98.4225 108.525 98.143 109.763C97.8236 111.041 97.0649 111.72 95.6674 111.68C93.4315 111.64 91.1955 111.64 88.9196 111.68C87.562 111.68 86.8034 111.041 86.484 109.763C86.2045 108.565 85.885 107.328 85.5656 106.13C85.2462 104.972 84.4476 104.652 83.4095 105.251C82.3314 105.85 81.2534 106.489 80.1753 107.128C79.0573 107.807 78.0192 107.727 77.0609 106.769C75.4638 105.171 73.9066 103.574 72.3094 102.017C71.3512 101.059 71.2314 100.061 71.9501 98.9027C72.5889 97.8247 73.2278 96.7865 73.8267 95.6685C74.4256 94.6304 74.1062 93.8718 72.9483 93.5124C71.7105 93.1531 70.4727 92.8336 69.195 92.5142C67.9573 92.1948 67.3583 91.3962 67.3583 90.1585C67.3583 87.8825 67.3184 85.5667 67.3583 83.2908C67.3583 82.093 67.9573 81.3343 69.1152 81.0149C70.353 80.6955 71.6307 80.376 72.8684 80.0167C74.1062 79.6573 74.4256 78.9386 73.7868 77.7807C73.1879 76.7026 72.549 75.6246 71.9102 74.5465C71.2713 73.4685 71.3512 72.4703 72.2695 71.5519C73.9066 69.9148 75.5037 68.3177 77.1408 66.6807C78.0591 65.7623 79.0174 65.6825 80.1354 66.3213C81.2134 66.9602 82.2915 67.599 83.3696 68.1979C84.4875 68.8368 85.2861 68.5174 85.6055 67.2796C85.925 66.0817 86.2444 64.8839 86.5239 63.6461C86.8433 62.4483 87.562 61.7695 88.8797 61.7695C91.1556 61.7695 93.4714 61.8094 95.7473 61.7695C97.0649 61.7695 97.7836 62.4083 98.1031 63.6062C98.4225 64.844 98.702 66.1217 99.0613 67.3594C99.3808 68.4375 100.099 68.7969 101.098 68.2379C102.216 67.6389 103.334 66.9602 104.452 66.2814C105.53 65.6425 106.528 65.6825 107.446 66.6008C109.123 68.2379 110.76 69.9148 112.397 71.5918C112.797 72.031 112.996 72.63 113.276 73.1091ZM105.41 70.6336C104.252 71.3123 103.174 72.071 102.016 72.59C101.297 72.9095 100.379 73.0292 99.6203 72.8695C96.8653 72.1908 94.8689 70.7134 94.7491 67.5192C94.6692 65.5627 93.1919 66.1217 92.034 66.0019C90.6764 65.8422 89.8779 66.2015 89.7581 67.7188C89.5584 70.2343 88.3606 72.031 85.7253 72.5501C85.5656 72.59 85.4458 72.6699 85.326 72.7497C84.3678 73.3087 83.4494 73.2289 82.4911 72.63C81.4131 71.9512 80.2552 71.3123 78.8577 70.4738C78.3386 71.1127 77.9393 71.8314 77.3404 72.3105C76.2623 73.149 76.1425 73.9875 77.021 75.0257C78.658 77.0221 79.1372 79.1383 77.58 81.4142C77.54 81.494 77.5001 81.6138 77.5001 81.6937C77.2206 82.8117 76.422 83.4505 75.3041 83.6901C74.0663 83.9696 72.8285 84.3289 71.5907 84.6484C71.5907 86.0858 71.5907 87.3635 71.5907 88.761C72.8684 89.0804 74.1461 89.28 75.3041 89.7991C76.1426 90.1585 76.9012 90.8772 77.4202 91.6358C79.0972 94.0714 78.7379 96.4671 76.8613 98.7031C76.7015 98.9027 76.5418 99.1423 76.5019 99.3419C76.462 99.6614 76.462 100.101 76.6616 100.34C77.3404 101.258 78.139 102.097 78.8577 102.935C80.2951 102.097 81.4131 101.418 82.5311 100.819C83.0102 100.58 83.5692 100.3 84.0483 100.34C86.484 100.38 88.8797 102.376 89.4786 104.732C90.1574 107.407 90.1574 107.328 92.7926 107.447C94.0703 107.487 94.6293 107.088 94.7491 105.89C94.9887 103.175 96.2664 101.338 99.0613 100.779C99.1013 100.779 99.1412 100.739 99.1811 100.739C100.219 100.141 101.178 100.3 102.136 100.899C103.174 101.578 104.292 102.177 105.13 102.656C106.248 101.658 107.287 100.739 108.285 99.8211C107.646 98.7031 107.087 97.665 106.408 96.6668C105.729 95.6286 105.689 94.6304 106.248 93.5923C106.488 93.1131 106.767 92.5941 106.887 92.075C107.247 90.6376 108.205 89.9987 109.602 89.6793C113.156 88.8408 113.156 88.8009 112.916 85.0876C112.916 85.0077 112.877 84.8879 112.837 84.7681C110.72 83.6102 107.885 84.1692 106.528 80.8951C105.13 77.5811 107.366 75.9041 108.285 73.5084C107.406 72.5501 106.488 71.6318 105.41 70.6336Z" fill="white"/>
<path id="Vector_12" d="M104.493 86.8039C104.453 93.5119 98.9425 98.9421 92.2745 98.9421C85.5266 98.9421 80.0565 93.3521 80.0964 86.6043C80.1762 79.8564 85.6065 74.4661 92.3144 74.4661C99.1022 74.4661 104.532 79.9762 104.493 86.8039ZM100.3 86.6442C100.3 82.2122 96.7464 78.6186 92.3144 78.6186C87.8424 78.5787 84.2489 82.2122 84.2489 86.7241C84.2489 91.1561 87.8425 94.7097 92.2346 94.7496C96.7065 94.7896 100.3 91.1561 100.3 86.6442Z" fill="white"/>
</g>
</svg>
