<svg width="40" height="55" viewBox="0 0 40 55" fill="none" xmlns="http://www.w3.org/2000/svg">
<g id="Group 1000001566">
<path id="Vector" d="M19.7956 33.7553C20.2998 33.1341 20.6868 32.49 20.8462 31.7322C21.0446 30.7824 20.6901 29.979 19.8509 29.4976C19.5549 29.3252 19.2296 29.1886 18.9011 29.091C17.7171 28.7267 16.4941 28.5478 15.2646 28.4502C13.6025 28.3169 11.9339 28.2974 10.2653 28.3331C9.81969 28.3429 9.42937 28.473 9.10411 28.7592C8.52188 29.2732 7.95592 29.8066 7.36719 30.3465C7.46151 30.4506 7.53958 30.5384 7.62089 30.623C8.27793 31.2735 9.04556 31.7484 9.91727 32.0542C10.867 32.3892 11.8526 32.5128 12.8512 32.5616C13.7066 32.6039 14.5621 32.6006 15.4175 32.6429C15.9997 32.6722 16.5852 32.7177 17.1642 32.7958C18.0912 32.9259 18.9727 33.2121 19.7956 33.7553Z" fill="white"/>
<path id="Vector_2" d="M19.9718 54.8322C19.8254 54.7996 19.679 54.7704 19.5327 54.7281C18.983 54.5687 18.4138 54.4484 17.8868 54.2304C15.6848 53.3197 13.6096 52.1812 11.723 50.7143C9.07213 48.6521 7.14005 46.0663 6.01138 42.8949C5.81622 42.3485 5.52998 41.8508 5.17544 41.3987C4.78838 40.9043 4.38179 40.4229 3.98172 39.9382C2.68065 38.364 1.71136 36.614 1.15191 34.6462C0.664007 32.932 0.494869 31.1821 0.56968 29.4029C0.579438 29.1362 0.595702 28.8695 0.611965 28.567C1.5715 28.7979 2.492 29.0191 3.45804 29.2533C3.45804 26.5731 3.45804 23.9417 3.45804 21.2908C3.69548 21.2908 3.8939 21.2908 4.11833 21.2908C4.11833 24.6573 4.11833 28.0205 4.11833 31.4488C3.31167 30.8113 2.55055 30.2095 1.77316 29.5915C1.61053 29.894 1.58451 30.1965 1.55198 30.4925C1.39586 31.94 1.64956 33.3451 2.03663 34.7275C2.28383 35.6057 2.61235 36.4547 3.04495 37.2581C3.406 37.9314 3.84836 38.5364 4.43709 39.0405C4.9998 39.5219 5.51047 40.0586 5.90078 40.6896C6.0992 41.0116 6.2846 41.3499 6.4082 41.7012C7.85888 45.8548 10.5293 49.0034 14.2666 51.277C15.6132 52.0967 17.0314 52.7667 18.4983 53.3392C19.3245 53.6612 20.1572 53.5864 20.9931 53.3847C21.5005 53.2611 21.9852 53.0725 22.421 52.7732C23.3741 52.1194 23.5367 51.0623 22.8276 50.1516C22.4828 49.7125 22.0307 49.4295 21.5135 49.2311C19.7506 48.5513 18.0657 47.7121 16.4589 46.7168C16.3516 46.6485 16.2442 46.5769 16.1499 46.4663C16.215 46.4728 16.2833 46.4696 16.3483 46.4826C17.4933 46.7298 18.6382 46.9737 19.8059 47.0778C21.4257 47.2242 23.013 47.1201 24.4865 46.3265C25.5468 45.754 26.3893 44.9408 27.1049 43.9813C27.1309 43.9455 27.1504 43.9065 27.1667 43.8675C27.1732 43.8479 27.1667 43.8252 27.1667 43.7796C26.8837 43.7308 26.6007 43.6625 26.3112 43.6398C26.1583 43.6268 25.9892 43.6755 25.8396 43.7308C24.8833 44.0854 23.914 44.3911 22.9089 44.5733C20.876 44.9473 18.9049 44.7652 17.0607 43.7959C16.2442 43.3665 15.3953 43.2072 14.4976 43.1909C14.0975 43.1844 13.6942 43.1844 13.2941 43.1811C13.177 43.1811 13.0599 43.1811 12.8973 43.1811C12.9428 43.0738 12.9623 43.0023 12.9981 42.947C13.3006 42.4916 13.7332 42.2574 14.2764 42.2184C15.0212 42.1663 15.7498 42.2769 16.4654 42.4591C17.8413 42.8103 19.2074 43.1877 20.5768 43.5519C20.6776 43.578 20.7784 43.6007 20.9053 43.6007C19.7441 41.8345 18.5341 40.1106 17.3046 38.3022C17.5486 38.3509 17.7274 38.3705 17.8933 38.4225C18.6479 38.6567 19.3993 38.9007 20.1539 39.1381C20.7427 39.3235 21.3411 39.4764 21.9657 39.4991C22.8536 39.5317 23.631 39.2519 24.3011 38.6795C24.532 38.4843 24.7337 38.2566 24.9418 38.0354C25.0297 37.9444 25.1012 37.8338 25.2086 37.6939C24.4735 37.2418 23.7286 36.8515 22.9935 36.4059C23.0976 35.9212 23.1984 35.4463 23.3058 34.9714C23.6115 33.6183 23.888 32.2587 24.3499 30.9512C24.5353 30.421 24.7629 29.9005 25.0264 29.4061C25.4883 28.5409 26.2071 27.9522 27.1179 27.5912C27.8985 27.2822 28.7149 27.1065 29.5443 27.0089C30.8552 26.8528 32.1725 26.7357 33.4866 26.6024C33.646 26.5861 33.8053 26.5601 34.0005 26.5373C33.968 26.4365 33.9517 26.3552 33.9159 26.2836C33.7696 25.9941 33.6037 25.7111 33.4703 25.4151C32.9466 24.2735 32.4295 23.1285 31.9188 21.9836C31.844 21.8177 31.8017 21.6355 31.7497 21.4599C31.6326 21.0663 31.6391 20.6793 31.7594 20.2792C32.2245 18.7244 32.5173 17.1404 32.4815 15.5108C32.3969 11.9101 30.7511 9.30147 27.4952 7.73369C26.1356 7.0799 24.6914 6.71235 23.2049 6.48467C23.0651 6.4619 22.9252 6.44889 22.7886 6.41961C22.5609 6.37082 22.369 6.26349 22.2389 6.03905C22.2779 6.01954 22.3039 6.00002 22.3332 5.99677C24.4702 5.93172 26.5487 6.2147 28.5393 7.02786C30.9137 7.99715 32.8035 9.5812 34.2997 11.6401C36.1017 14.1187 37.3572 16.8444 37.946 19.8628C38.2777 21.5607 38.3916 23.2781 38.2485 25.0053C38.1964 25.6298 38.1053 26.2543 38.0663 26.8821C38.0435 27.2464 38.0566 27.6204 38.1184 27.9815C38.2289 28.6092 38.629 29.0418 39.182 29.3411C39.2568 29.3834 39.3316 29.4387 39.4162 29.4549C39.787 29.5297 39.9138 29.7867 39.9561 30.1315C40.0212 30.6747 40.0407 31.2179 39.8325 31.735C39.4064 32.8117 38.9706 33.885 38.5249 34.9552C37.5719 37.245 36.6189 39.5349 35.6431 41.815C35.1454 42.9795 34.6575 44.1537 34.0688 45.2726C32.3546 48.5253 29.7948 50.9452 26.5682 52.6724C24.841 53.5962 23.0293 54.2987 21.1297 54.7834C21.0874 54.7931 21.0517 54.8192 21.0126 54.8387C20.6646 54.8322 20.3198 54.8322 19.9718 54.8322ZM28.5555 33.5403C28.5458 33.5728 28.536 33.6021 28.5263 33.6346C29.0044 34.1615 29.4858 34.6852 30.0648 35.1113C30.9267 35.7488 31.5805 35.7423 32.4099 35.0495C32.8003 34.7242 33.1418 34.3437 33.5028 33.9859C33.5419 33.9469 33.5549 33.8851 33.6037 33.7875C31.8928 33.7029 30.2242 33.6216 28.5555 33.5403Z" fill="url(#paint0_linear_106_5310)"/>
<path id="Vector_3" d="M0 10.0757C0.0650531 9.7277 0.136612 9.37966 0.191907 9.02837C0.865207 4.595 4.29676 1.02684 8.68785 0.194158C13.4009 -0.700322 18.0295 1.55052 20.225 5.818C20.8398 7.01498 21.1976 8.28677 21.3342 9.63012C21.7635 13.8586 19.5647 18.1 15.6095 20.1362C14.4028 20.7575 13.1245 21.1445 11.7681 21.2616C8.50245 21.5446 5.66938 20.559 3.3047 18.305C1.5873 16.6656 0.565962 14.6425 0.191907 12.294C0.136612 11.9428 0.0650531 11.5947 0 11.2467C0 10.8564 0 10.466 0 10.0757ZM17.0244 18.009C19.2265 16.3989 21.1976 12.564 20.2315 8.45591C19.1256 3.75907 14.8321 0.665794 10.1711 0.939017C5.82551 1.19272 1.8345 4.41936 1.11566 9.23654C0.774132 11.5232 1.223 13.6732 2.40046 15.6736C2.9339 16.581 4.23496 18.074 4.76189 18.2399C4.76189 16.3176 4.76189 14.405 4.76189 12.4892C5.61083 12.4892 6.42725 12.4892 7.26969 12.4892C7.27945 12.6779 7.29246 12.8242 7.29246 12.9738C7.29571 14.6327 7.29246 16.2916 7.29571 17.9504C7.29571 18.4286 7.29571 18.9034 7.29896 19.3816C7.30222 19.7719 7.29896 19.7817 7.68278 19.8955C8.08611 20.0159 8.49919 20.1134 8.90903 20.2175C9.01962 20.2468 9.13997 20.2468 9.3026 20.2663C9.3026 16.3599 9.3026 12.4859 9.3026 8.60878C10.2719 8.60878 11.1956 8.60878 12.1617 8.60878C12.1617 12.5022 12.1617 16.3664 12.1617 20.2663C12.874 20.1947 13.5115 20.0159 14.1426 19.7686C14.1426 19.3198 14.1426 18.8969 14.1426 18.4741C14.1426 18.0415 14.1426 17.6056 14.1426 17.173C14.1426 16.7502 14.1426 16.3273 14.1426 15.9045C14.1426 15.4816 14.1426 15.0588 14.1426 14.636C14.1426 14.2034 14.1426 13.7675 14.1426 13.3349C14.1426 12.912 14.1426 12.4892 14.1426 12.0664C14.1426 11.6338 14.1426 11.1979 14.1426 10.7653C14.1426 10.3424 14.1426 9.9196 14.1426 9.49676C14.1426 9.07391 14.1426 8.65107 14.1426 8.22822C14.1426 7.79562 14.1393 7.35976 14.1426 6.92716C14.1458 6.51082 14.1263 6.09123 14.1556 5.68139C15.1249 5.68139 16.0519 5.68139 17.0244 5.68139C17.0244 9.80251 17.0244 13.8911 17.0244 18.009Z" fill="url(#paint1_linear_106_5310)"/>
<path id="Vector_4" d="M19.7969 33.7553C18.974 33.2121 18.0925 32.9226 17.1622 32.7958C16.5833 32.7177 16.001 32.6689 15.4156 32.6429C14.5601 32.6006 13.7047 32.6039 12.8492 32.5616C11.8506 32.5128 10.8651 32.386 9.91532 32.0542C9.04361 31.7484 8.27598 31.2735 7.61894 30.623C7.53437 30.5417 7.45956 30.4506 7.36523 30.3465C7.95397 29.8066 8.51667 29.2732 9.10215 28.7592C9.42742 28.473 9.81774 28.3429 10.2634 28.3331C11.932 28.2974 13.6006 28.3169 15.2627 28.4502C16.4954 28.5511 17.7152 28.73 18.8992 29.091C19.2277 29.1919 19.5529 29.3285 19.8489 29.4976C20.6881 29.9822 21.0427 30.7824 20.8442 31.7322C20.6914 32.4933 20.3011 33.1373 19.7969 33.7553Z" fill="url(#paint2_linear_106_5310)"/>
</g>
<defs>
<linearGradient id="paint0_linear_106_5310" x1="0.551846" y1="30.4097" x2="40.0011" y2="30.4097" gradientUnits="userSpaceOnUse">
<stop stop-color="#AD0950"/>
<stop offset="1" stop-color="#F33A40"/>
</linearGradient>
<linearGradient id="paint1_linear_106_5310" x1="0" y1="10.6543" x2="21.3865" y2="10.6543" gradientUnits="userSpaceOnUse">
<stop stop-color="#AD0950"/>
<stop offset="1" stop-color="#F33A40"/>
</linearGradient>
<linearGradient id="paint2_linear_106_5310" x1="7.36836" y1="31.0354" x2="20.9019" y2="31.0354" gradientUnits="userSpaceOnUse">
<stop stop-color="#AD0950"/>
<stop offset="1" stop-color="#F33A40"/>
</linearGradient>
</defs>
</svg>
