<svg width="21" height="25" viewBox="0 0 21 25" fill="none" xmlns="http://www.w3.org/2000/svg">
<g id="Group">
<path id="Vector" d="M15.0414 25C15.2215 24.8373 15.4339 24.6941 15.5818 24.5053C16.0387 23.9391 16.4826 23.3598 16.9201 22.7805C17.0617 22.5983 17.2225 22.5202 17.4477 22.5071C18.252 22.4551 19.0498 22.39 19.854 22.3184C20.4074 22.2663 20.684 21.7066 20.4138 21.1859C19.7511 19.8971 19.082 18.6084 18.4128 17.3197C18.3678 17.2351 18.3227 17.1505 18.2777 17.0528C18.4707 16.9031 18.6637 16.7534 18.8503 16.6037C19.5195 16.0635 19.8669 15.3606 19.8669 14.4884C19.8669 13.6293 20.0599 12.8222 20.4975 12.0672C21.0701 11.0843 21.0701 10.082 20.4975 9.10569C20.0599 8.37021 19.8798 7.57615 19.8734 6.73652C19.8669 5.61051 19.3779 4.77089 18.4128 4.22416C17.7051 3.82712 17.1582 3.27388 16.7657 2.55793C16.2124 1.55558 15.3566 1.0479 14.2178 1.06092C13.4586 1.07394 12.7637 0.865659 12.0881 0.533715C11.6764 0.325436 11.2324 0.175735 10.8078 0C10.5826 0 10.3574 0 10.1322 0C9.56599 0.240822 8.9998 0.475136 8.44003 0.735485C7.92531 0.969799 7.37842 1.04139 6.82509 1.06743C6.54199 1.08045 6.25889 1.09997 5.98866 1.15204C5.37743 1.2692 4.88844 1.59464 4.50883 2.08279C4.34798 2.29758 4.19999 2.51887 4.06488 2.74668C3.73031 3.31944 3.28636 3.77506 2.71373 4.107C2.52714 4.21765 2.34698 4.34131 2.16683 4.46498C1.45265 4.98568 1.07304 5.70164 1.06661 6.58031C1.06017 7.52408 0.860718 8.38973 0.384599 9.20983C-0.142993 10.1145 -0.110824 11.0518 0.378165 11.976C0.468242 12.1453 0.558316 12.321 0.648394 12.4902C0.937926 13.0435 1.05374 13.6423 1.03444 14.2541C1.00227 15.4191 1.49769 16.2848 2.4628 16.8966C2.5207 16.9357 2.57861 16.9812 2.64939 17.0398C2.43706 17.4499 2.22474 17.8599 2.01885 18.27C1.88373 18.5368 1.99311 18.7842 2.26334 18.8297C2.45636 18.8623 2.57861 18.7711 2.66869 18.5954C2.86171 18.2114 3.06116 17.8339 3.29279 17.3978C3.46651 17.5996 3.6338 17.7623 3.76248 17.951C3.9555 18.2309 4.12278 18.5303 4.30294 18.8167C4.84983 19.6693 5.63479 20.0794 6.63207 20.1054C7.03741 20.1184 7.44919 20.1575 7.85454 20.19C7.93818 20.1965 8.02182 20.2356 8.1312 20.2681C7.44276 21.5959 6.76718 22.8977 6.0723 24.2385C5.88572 23.9976 5.712 23.7828 5.55114 23.5746C5.21014 23.132 4.8627 22.6959 4.52813 22.2468C4.28364 21.9279 3.96837 21.7847 3.57589 21.7586C2.77807 21.7066 1.97381 21.635 1.13095 21.5699C1.3304 21.1859 1.52343 20.8279 1.69071 20.4634C1.74218 20.3528 1.78079 20.1965 1.74218 20.1054C1.69714 20.0013 1.5556 19.8906 1.43978 19.8776C1.34327 19.8646 1.17599 19.9427 1.12452 20.0338C0.880021 20.4569 0.648394 20.88 0.455371 21.3291C0.268784 21.7521 0.590489 22.2598 1.04731 22.2989C1.86443 22.3705 2.68156 22.4355 3.49868 22.4941C3.711 22.5071 3.85899 22.5787 3.98767 22.748C4.43805 23.3403 4.88844 23.9325 5.35812 24.5118C5.50611 24.6941 5.712 24.8308 5.88571 24.987C6.0144 24.987 6.14308 24.987 6.27176 24.987C6.54842 24.8568 6.70284 24.629 6.83796 24.3621C7.43632 23.1906 8.04112 22.032 8.64593 20.8669C8.68453 20.7888 8.72957 20.7172 8.78747 20.6131C9.91343 21.3421 11.033 21.3356 12.1525 20.6131C12.2168 20.7238 12.2619 20.8019 12.3005 20.88C12.9117 22.058 13.5294 23.2361 14.1342 24.4207C14.2693 24.6876 14.4366 24.8893 14.7197 24.9935C14.8162 25 14.932 25 15.0414 25ZM0.648394 10.6092C0.777074 10.2382 0.841416 9.8607 1.01514 9.5548C1.54273 8.65008 1.78079 7.6933 1.77435 6.6454C1.76792 5.96849 2.06389 5.42176 2.62365 5.03124C2.7652 4.93361 2.90031 4.83598 3.04186 4.74485C3.78178 4.29575 4.38015 3.71648 4.78549 2.93543C5.19727 2.15438 5.85354 1.78339 6.73501 1.7899C7.12105 1.7899 7.51996 1.77688 7.88027 1.67274C8.36283 1.53606 8.83895 1.3408 9.27646 1.09997C10.0292 0.683415 10.7627 0.624837 11.5219 1.0479C11.7343 1.16506 11.953 1.2692 12.1654 1.37334C12.738 1.65972 13.3428 1.79641 13.9798 1.79641C14.1856 1.79641 14.398 1.80291 14.6039 1.82895C15.3309 1.91356 15.807 2.34965 16.148 2.96147C16.5791 3.736 17.1582 4.36735 17.9367 4.79692C18.7731 5.25253 19.1913 5.94246 19.1656 6.91876C19.1463 7.79744 19.3651 8.62405 19.8219 9.37906C20.3173 10.1926 20.3173 10.9997 19.8219 11.8133C19.3779 12.5553 19.1399 13.3624 19.1656 14.2215C19.1978 15.2434 18.7667 15.9659 17.8788 16.428C17.8338 16.4475 17.7952 16.4801 17.7565 16.5061C17.171 16.8706 16.6949 17.3392 16.3282 17.9315C16.2252 18.1072 16.1159 18.2765 16.0065 18.4457C15.659 18.9924 15.1636 19.3049 14.5202 19.3634C14.3272 19.383 14.1342 19.383 13.9412 19.3895C13.2012 19.396 12.5128 19.5782 11.8694 19.9492C11.6378 20.0794 11.3997 20.2031 11.1681 20.3202C10.6727 20.5675 10.1772 20.5675 9.68824 20.2942C9.5853 20.2356 9.46948 20.1835 9.37297 20.1184C8.54941 19.5977 7.65508 19.3634 6.68997 19.3764C5.87285 19.3895 5.23588 19.051 4.83696 18.322C4.34797 17.4368 3.6724 16.7599 2.8038 16.2653C2.10892 15.8683 1.76149 15.2499 1.76792 14.4363C1.78079 13.4535 1.54273 12.5488 1.05374 11.6897C0.860718 11.3772 0.783508 10.9867 0.648394 10.6092ZM14.8548 24.2645C14.1599 22.9302 13.4843 21.6154 12.7959 20.2877C12.9053 20.2551 12.9825 20.2161 13.0597 20.2096C13.4586 20.177 13.8575 20.1315 14.2564 20.125C15.2923 20.1054 16.0966 19.6758 16.6563 18.7842C16.83 18.5108 16.9845 18.2244 17.171 17.9575C17.2997 17.7753 17.467 17.6126 17.6407 17.4173C18.3742 18.8297 19.0755 20.19 19.7961 21.5699C19.6482 21.5894 19.5323 21.6024 19.4101 21.6154C18.7667 21.6675 18.1297 21.7391 17.4863 21.7586C16.9587 21.7782 16.5791 21.993 16.2703 22.4225C15.8328 23.0409 15.3502 23.6331 14.8548 24.2645Z" fill="#8DC477"/>
<path id="Vector_2" d="M3.33708 10.5699C3.36282 14.1822 5.96218 17.2153 9.46874 17.7164C13.1168 18.2371 16.4947 15.9005 17.3569 12.2361C17.8652 10.0752 17.4727 8.09656 16.1602 6.30666C16.025 6.12442 15.8835 6.00726 15.6519 6.12442C15.4202 6.24157 15.3816 6.47589 15.5554 6.71671C15.935 7.23741 16.2374 7.79716 16.4626 8.40247C17.6014 11.4485 16.1923 16.1869 11.4569 16.9354C8.87037 17.3454 6.29675 16.2129 5.04854 14.0325C2.57143 9.71072 5.08071 5.0635 9.41083 4.24991C11.1352 3.92447 12.7115 4.30198 14.1399 5.32384C14.3972 5.50609 14.5581 5.50609 14.7125 5.32384C14.8733 5.13509 14.8283 4.92681 14.5902 4.74457C13.7731 4.13926 12.8724 3.73572 11.8815 3.52744C8.35564 2.80497 4.66893 5.03095 3.64592 8.51962C3.54941 8.83855 3.47863 9.16399 3.43359 9.49593C3.37569 9.85391 3.36282 10.2119 3.33708 10.5699Z" fill="#8DC477"/>
<path id="Vector_3" d="M11.7983 11.6374C10.5179 10.3356 9.26969 9.07295 8.02148 7.80375C7.69334 7.4653 7.3073 7.32862 6.86335 7.45228C6.04623 7.66707 5.75669 8.68243 6.32289 9.32679C6.52878 9.5546 6.74754 9.76938 6.9663 9.98417C8.27241 11.3054 9.57852 12.6267 10.8911 13.948C11.483 14.5468 12.1264 14.5468 12.7248 13.948C13.3939 13.2711 14.0695 12.5942 14.7386 11.9108C15.0732 11.5658 15.1697 11.1557 15.0217 10.7001C14.8673 10.251 14.5392 9.99719 14.0759 9.93861C13.7028 9.89305 13.381 10.0297 13.1173 10.2966C12.6797 10.7392 12.2487 11.1753 11.7983 11.6374ZM11.7918 13.7072C11.6567 13.6095 11.5152 13.5444 11.4122 13.4403C10.3956 12.4184 9.3855 11.3966 8.37535 10.3747C7.89923 9.89305 7.41668 9.4114 6.94056 8.92325C6.79258 8.77355 6.6832 8.60432 6.79258 8.38303C6.93413 8.09664 7.25583 8.07061 7.51319 8.33096C8.8193 9.64572 10.119 10.967 11.4187 12.2817C11.7339 12.6007 11.8626 12.5942 12.1779 12.2752C12.6476 11.8001 13.1237 11.3185 13.5934 10.8433C13.8121 10.622 14.0566 10.609 14.2303 10.7978C14.4041 10.98 14.3912 11.2078 14.1724 11.4226C13.4904 12.1125 12.8084 12.809 12.12 13.4924C12.0492 13.577 11.927 13.6291 11.7918 13.7072Z" fill="#8DC477"/>
<path id="Vector_4" d="M10.4618 18.5561C10.2623 18.5561 10.1208 18.699 10.1144 18.9133C10.1079 19.1342 10.2559 19.29 10.4682 19.2835C10.6677 19.2771 10.8028 19.1277 10.8028 18.9198C10.8028 18.7055 10.6613 18.5626 10.4618 18.5561Z" fill="#8DC477"/>
<path id="Vector_5" d="M14.5644 17.4437C14.365 17.4502 14.2105 17.619 14.2234 17.8334C14.2363 18.0347 14.3843 18.1776 14.5837 18.1711C14.7896 18.1647 14.9311 18.0023 14.9247 17.7879C14.9118 17.5801 14.7574 17.4372 14.5644 17.4437Z" fill="#8DC477"/>
<path id="Vector_6" d="M6.3425 18.1644C6.54839 18.1644 6.70281 18.002 6.68994 17.7942C6.68351 17.5928 6.53552 17.4434 6.3425 17.4369C6.14305 17.4369 5.98863 17.5993 5.99506 17.8137C6.0015 18.028 6.14305 18.1644 6.3425 18.1644Z" fill="#8DC477"/>
<path id="Vector_7" d="M2.97859 6.42931C2.97859 6.63717 3.11371 6.78656 3.3196 6.79306C3.52549 6.79955 3.66704 6.66315 3.67347 6.4488C3.67991 6.22795 3.53192 6.06557 3.32603 6.06557C3.12658 6.06557 2.97859 6.22146 2.97859 6.42931Z" fill="#8DC477"/>
<path id="Vector_8" d="M6.34969 3.02603C6.1438 3.02603 6.00225 3.16243 5.99581 3.37678C5.98938 3.59113 6.15023 3.76001 6.34969 3.75352C6.54271 3.74702 6.69069 3.59113 6.69069 3.38977C6.69069 3.17542 6.54914 3.02603 6.34969 3.02603Z" fill="#8DC477"/>
<path id="Vector_9" d="M17.2473 6.43601C17.2473 6.65036 17.3888 6.79326 17.5883 6.79326C17.8006 6.79326 17.9422 6.63737 17.9357 6.41652C17.9293 6.20867 17.7749 6.05927 17.5754 6.06577C17.3824 6.07226 17.2408 6.22816 17.2473 6.43601Z" fill="#8DC477"/>
<path id="Vector_10" d="M18.3462 10.6087C18.3526 10.8165 18.4941 10.9594 18.7 10.9594C18.8995 10.9529 19.041 10.81 19.041 10.6022C19.041 10.3878 18.8802 10.2319 18.6743 10.2384C18.4748 10.2449 18.3397 10.4008 18.3462 10.6087Z" fill="#8DC477"/>
<path id="Vector_11" d="M1.86848 10.5825C1.86204 10.7903 2.00359 10.9462 2.20305 10.9527C2.40894 10.9592 2.55692 10.8228 2.56979 10.615C2.58266 10.4006 2.43468 10.2317 2.22879 10.2252C2.02933 10.2252 1.87491 10.3746 1.86848 10.5825Z" fill="#8DC477"/>
<path id="Vector_12" d="M17.5789 14.3971C17.373 14.4036 17.2443 14.5465 17.2507 14.7674C17.2572 14.9752 17.3987 15.1246 17.5982 15.1246C17.804 15.1246 17.952 14.9557 17.9392 14.7349C17.9327 14.527 17.7847 14.3906 17.5789 14.3971Z" fill="#8DC477"/>
<path id="Vector_13" d="M3.33267 14.3974C3.12678 14.3974 2.98523 14.5338 2.9788 14.7417C2.97236 14.956 3.12678 15.1249 3.33267 15.1184C3.53213 15.1119 3.67367 14.9625 3.67367 14.7546C3.67367 14.5403 3.53856 14.4039 3.33267 14.3974Z" fill="#8DC477"/>
<path id="Vector_14" d="M14.2234 3.38998C14.2234 3.59134 14.3778 3.75373 14.5709 3.75373C14.7767 3.75373 14.9312 3.58485 14.9247 3.3705C14.9183 3.16264 14.7703 3.01974 14.5644 3.02624C14.365 3.03273 14.2234 3.18213 14.2234 3.38998Z" fill="#8DC477"/>
<path id="Vector_15" d="M10.4547 1.90741C10.2488 1.9139 10.1137 2.0568 10.1202 2.27115C10.1202 2.47901 10.2617 2.6349 10.4612 2.6349C10.6671 2.64139 10.815 2.47901 10.8086 2.25816C10.7957 2.04381 10.6606 1.90741 10.4547 1.90741Z" fill="#8DC477"/>
</g>
</svg>
