<svg width="26" height="25" viewBox="0 0 26 25" fill="none" xmlns="http://www.w3.org/2000/svg">
<g id="Group 1000001582">
<path id="Vector" d="M22.2789 24.9901C22.023 24.7917 21.7671 24.5933 21.5163 24.3999C20.8612 23.894 20.1908 23.3733 19.551 22.8327C19.1108 22.4658 18.6553 22.2971 18.0668 22.2971C18.0514 22.2971 18.0361 22.2971 18.0207 22.2971C17.1813 22.3071 16.2601 22.317 15.1239 22.317C14.5302 22.317 13.9314 22.317 13.3377 22.312C12.7952 22.312 12.2526 22.3071 11.705 22.3071C10.4408 22.3071 9.62196 21.5136 9.62196 20.2837C9.62196 19.3811 9.62196 18.4785 9.62196 17.5709V15.8798L9.407 15.8946C9.36094 15.8996 9.31487 15.8996 9.27393 15.8996C9.1818 15.9046 9.09992 15.9095 9.01291 15.9145C8.74677 15.9393 8.48063 15.9492 8.21449 15.9492C6.52041 15.9492 4.92358 15.4533 3.47005 14.4713C3.33186 14.3771 3.20391 14.3325 3.06572 14.3325C2.99918 14.3325 2.93265 14.3424 2.85588 14.3622C2.49761 14.4614 2.12911 14.5507 1.77597 14.6399C1.52518 14.7044 1.26416 14.7689 1.00314 14.8334C0.941724 14.8482 0.885425 14.8581 0.839362 14.8581C0.742119 14.8581 0.675584 14.8284 0.614168 14.754C0.547633 14.6796 0.50157 14.5804 0.598813 14.3821L0.726765 14.1093C0.931487 13.6729 1.14645 13.2265 1.34605 12.7752C1.40235 12.6512 1.41259 12.443 1.32046 12.3041C0.588577 11.1833 0.15866 9.97321 0.0409445 8.70858C0.0358264 8.65403 0.0153542 8.60444 0 8.57468V7.33981C0.0255903 7.2059 0.0511806 7.06704 0.0716529 6.93314C0.127952 6.62566 0.179132 6.31323 0.255903 6.01071C0.414563 5.33624 0.696056 4.66177 1.09015 4.00714C1.18227 3.84844 1.28463 3.8286 1.35629 3.8286C1.37676 3.8286 1.40235 3.8286 1.42794 3.83356C1.57636 3.85836 1.65825 3.93771 1.66849 4.06665C1.67361 4.146 1.63778 4.26006 1.57125 4.37413C0.916133 5.54453 0.593695 6.78932 0.619286 8.08371C0.644876 9.58142 1.09527 10.9452 1.96022 12.1454C2.13423 12.3884 2.14959 12.5669 2.02163 12.805C1.91416 13.0034 1.81691 13.2117 1.71967 13.4299C1.67361 13.529 1.62754 13.6332 1.57636 13.7423L1.39723 14.1192L1.81179 14.0151C1.93975 13.9853 2.05746 13.9556 2.17518 13.9258C2.44132 13.8613 2.6921 13.8018 2.93777 13.7225C3.02478 13.6927 3.10666 13.6778 3.18343 13.6778C3.34209 13.6778 3.49052 13.7373 3.66453 13.8663C4.97476 14.8383 6.54088 15.3491 8.17866 15.3491C9.94951 15.3491 11.6897 14.754 13.0715 13.6679C14.5199 12.5322 15.4719 10.9254 15.7585 9.145C16.0758 7.13151 15.5743 5.14282 14.3459 3.536C13.1227 1.94406 11.3109 0.912516 9.25346 0.634794C8.90031 0.585201 8.54205 0.565363 8.19402 0.565363C6.94521 0.565363 5.72199 0.872842 4.55508 1.48284C4.3913 1.56715 4.29405 1.58699 4.23776 1.58699H4.23264C4.09445 1.58203 4.01256 1.50764 3.98185 1.36877C3.95114 1.21504 4.00233 1.11089 4.16099 1.02162C4.8161 0.659591 5.51727 0.386828 6.2338 0.21821C6.89403 0.0793493 7.56961 0 8.24008 0C10.1082 0 11.9456 0.624875 13.4042 1.76056C14.8884 2.91609 15.9172 4.55266 16.301 6.3777C16.4085 6.88851 16.4443 7.40924 16.4802 7.95972C16.4955 8.21265 16.516 8.48045 16.5365 8.7433L16.5518 8.92183H23.6199C24.8124 8.92183 25.4572 9.39793 25.7694 10.5187C25.7746 10.5386 25.7797 10.5535 25.7899 10.5683V20.6705C25.7797 20.6903 25.7694 20.7151 25.7592 20.7449C25.4982 21.7863 24.8021 22.312 23.7017 22.317H22.7549L22.7088 22.4509C22.7037 22.4658 22.6986 22.4757 22.6986 22.4806C22.6884 22.5054 22.673 22.5401 22.673 22.5897C22.673 22.7683 22.673 22.9468 22.6679 23.1253C22.6628 23.5866 22.6628 24.0577 22.673 24.5288C22.6781 24.7669 22.6167 24.9008 22.4581 25H22.2789V24.9901ZM18.7372 21.7119C18.9982 21.7119 19.1825 21.7764 19.3667 21.9252C19.8786 22.3467 20.4108 22.7633 20.9226 23.17C21.112 23.3188 21.2963 23.4626 21.4805 23.6114C21.5266 23.6461 21.5675 23.6758 21.6238 23.7205C21.6545 23.7403 21.6852 23.7651 21.7211 23.7899L22.0486 24.0279V23.6312C22.0486 23.4626 22.0486 23.3039 22.0486 23.1452C22.0486 22.7832 22.0486 22.436 22.0486 22.0888C22.0486 21.821 22.1561 21.7219 22.4274 21.7219C22.586 21.7219 22.7447 21.7219 22.9033 21.7219C23.0159 21.7219 23.4766 21.7219 23.5892 21.7219H23.7069C24.623 21.7219 25.1706 21.1962 25.1706 20.3134C25.1706 17.189 25.1706 14.0647 25.1706 10.9403C25.1706 10.0377 24.6332 9.52191 23.6966 9.52191H16.3522L16.3113 9.67069C15.8916 11.2081 15.1802 12.4975 14.1975 13.4943C13.2148 14.4912 11.9302 15.24 10.3692 15.7211L10.2259 15.7657V17.3874C10.2259 18.3545 10.2259 19.3265 10.2259 20.2936C10.2259 21.2011 10.7684 21.7268 11.7152 21.7268H13.2046C13.8034 21.7268 14.4022 21.7268 15.001 21.7268C16.5109 21.7268 17.6573 21.7268 18.727 21.7219H18.7372V21.7119Z" fill="#8DC477"/>
<path id="Vector_2" d="M5.68684 11.8417C5.6067 11.8417 5.53992 11.8 5.49095 11.727C5.41081 11.6071 5.41081 11.4506 5.49095 11.3463C5.53547 11.289 5.6067 11.2368 5.68239 11.1847L5.70465 11.169C6.79989 10.3869 7.49444 9.23446 7.76602 7.74833C7.77493 7.69619 7.77938 7.64926 7.78383 7.59711C7.78383 7.57104 7.78828 7.53975 7.79273 7.50847L7.815 7.27381H7.22285C7.116 7.27381 7.0047 7.27381 6.89784 7.27381C6.79099 7.27381 6.67968 7.27381 6.57283 7.27381C6.38584 7.27381 6.23001 7.27381 6.08754 7.2686C5.92281 7.26339 5.8026 7.13824 5.79815 6.96095C5.79815 6.78365 5.91836 6.65329 6.08309 6.64808C6.27008 6.64286 6.47488 6.64286 6.72421 6.64286C6.87558 6.64286 7.02696 6.64286 7.18278 6.64286C7.33861 6.64286 7.49889 6.64286 7.65917 6.64286H7.82835L7.83726 6.44471C7.83726 6.40821 7.84171 6.37692 7.84171 6.34564C7.84616 6.27785 7.85061 6.21006 7.85061 6.14227C7.85061 5.93891 7.85061 5.73033 7.85061 5.52696C7.85061 5.13066 7.85061 4.72393 7.85507 4.32242C7.85952 4.10341 7.96192 3.94697 8.10884 3.94697C8.14001 3.94697 8.17117 3.95219 8.20679 3.96783C8.30028 4.00433 8.38933 4.07734 8.38933 4.3172C8.38933 4.74479 8.38933 5.17238 8.38933 5.59997V6.63765H10.4284C10.4462 6.63765 10.4641 6.63765 10.4819 6.63765C10.4952 6.63765 10.513 6.63765 10.5264 6.63765C10.562 6.63765 10.5843 6.63765 10.6065 6.64286C10.7534 6.66372 10.8603 6.7993 10.8603 6.95573C10.8558 7.12781 10.7401 7.25817 10.5887 7.25817C10.3661 7.26339 10.1257 7.26339 9.81848 7.26339C9.67601 7.26339 9.53354 7.26339 9.39107 7.26339C9.2486 7.26339 9.10613 7.26339 8.96366 7.26339H8.4294L8.45611 7.49804C8.46056 7.53454 8.46056 7.56583 8.46502 7.59711C8.46947 7.67012 8.47837 7.7379 8.49173 7.80569C8.77667 9.27618 9.47567 10.4077 10.5754 11.1742C10.7802 11.3203 10.8158 11.4193 10.8069 11.5497C10.7935 11.7166 10.6956 11.8208 10.5531 11.8208C10.4908 11.8208 10.4284 11.8 10.3661 11.7583C9.6404 11.2785 9.05271 10.6215 8.61639 9.79763C8.5407 9.65162 8.46947 9.5004 8.39378 9.33875C8.35816 9.26053 8.31809 9.18232 8.27802 9.09888L8.11774 8.76516L7.85507 9.35439C7.38313 10.4077 6.7153 11.2212 5.86048 11.7843C5.8026 11.8208 5.74027 11.8417 5.68684 11.8417Z" fill="#8DC477"/>
<path id="Vector_3" d="M20.0948 18.4209C19.9834 18.4209 19.8767 18.3361 19.821 18.2064C19.5935 17.6677 19.3939 17.1839 19.2222 16.73C19.134 16.5005 18.9947 16.3958 18.7673 16.3958H18.758C18.3913 16.4008 18.0153 16.4008 17.6486 16.4008C17.2819 16.4008 16.9059 16.4008 16.5346 16.3958H16.5253C16.2979 16.3958 16.1586 16.5005 16.0704 16.73C15.908 17.154 15.7316 17.5829 15.5552 17.9919L15.4856 18.1565C15.4438 18.2513 15.3556 18.4159 15.2117 18.4159C15.1792 18.4159 15.1421 18.4059 15.1049 18.3909C15.0307 18.356 14.9796 18.3061 14.9518 18.2463C14.9193 18.1615 14.9286 18.0518 14.9796 17.9271C15.1003 17.6228 15.2256 17.3186 15.3324 17.0542C15.3742 16.9495 15.4159 16.8497 15.4531 16.7549L15.4809 16.6851L15.4577 16.6103C15.4252 16.5155 15.3974 16.4307 15.3695 16.3559C15.3185 16.2212 15.2813 16.1165 15.2767 16.0217C15.272 15.9718 15.2906 15.9319 15.3185 15.897C15.3649 15.8471 15.4392 15.8122 15.5227 15.8122C15.8105 15.8072 15.9173 15.6277 15.9915 15.4531C16.2143 14.8995 16.4418 14.3408 16.6646 13.8021C16.8874 13.2585 17.1148 12.6998 17.3376 12.1512C17.4444 11.8918 17.5279 11.8419 17.6486 11.8419C17.7693 11.8419 17.8529 11.8918 17.9596 12.1512C18.4099 13.2634 18.8648 14.3807 19.3196 15.478C19.3614 15.5778 19.4868 15.7773 19.6631 15.7923C19.9092 15.8122 19.9788 15.887 20.0159 16.0018C20.0484 16.1065 20.0623 16.2462 19.8581 16.4008L19.7328 16.4956L19.9463 17.0243C20.0716 17.3385 20.1969 17.6477 20.3223 17.952C20.3965 18.1366 20.3548 18.2363 20.2991 18.3061C20.248 18.381 20.1737 18.4209 20.0948 18.4209ZM16.465 15.7873H18.8369L17.6486 12.8844L16.465 15.7873Z" fill="#8DC477"/>
</g>
</svg>
