<svg width="21" height="21" viewBox="0 0 21 21" fill="none" xmlns="http://www.w3.org/2000/svg">
<path d="M9.48418 2.65442C9.48418 2.12353 9.48418 1.60924 9.48418 1.10048C9.48418 0.398163 9.89629 0 10.6189 0C13.7013 0 16.7836 0 19.8716 0C20.5886 0 21.0007 0.398163 21.0007 1.10048C21.0007 3.90421 21.0007 6.71346 21.0007 9.51719C21.0007 9.96512 20.8257 10.3025 20.4192 10.5181C20.3684 10.5458 20.3289 10.6453 20.3289 10.7172C20.3233 11.3532 20.3233 11.9891 20.3233 12.6251C20.3233 13.9025 20.0071 15.097 19.3861 16.2196C19.3353 16.3081 19.3127 16.4297 19.3127 16.5293C19.3071 17.7957 19.3071 19.0565 19.3071 20.3229C19.3071 20.3948 19.3071 20.4722 19.3071 20.5662C19.2168 20.5662 19.1377 20.5662 19.0643 20.5662C13.0859 20.5662 7.11314 20.5662 1.13471 20.5662C0.406465 20.5717 0 20.1736 0 19.4491C0 14.2233 0 8.99737 0 3.77148C0 3.04705 0.40082 2.65442 1.1573 2.65442C3.83884 2.65442 6.52038 2.65442 9.20192 2.65442C9.28095 2.65442 9.36563 2.65442 9.48418 2.65442ZM20.216 9.82687C20.2386 9.82687 20.2555 9.82687 20.2781 9.82687C20.295 9.71627 20.3233 9.60567 20.3233 9.49507C20.3233 6.70793 20.3233 3.92633 20.3233 1.13919C20.3233 0.757615 20.2273 0.663604 19.8321 0.663604C16.778 0.663604 13.7238 0.663604 10.6697 0.663604C10.252 0.663604 10.1616 0.752085 10.1616 1.16131C10.1616 3.92633 10.1616 6.69134 10.1616 9.45636C10.1616 9.52272 10.139 9.6112 10.1729 9.66097C10.2463 9.76604 10.3423 9.92641 10.4382 9.93747C10.7939 9.97065 11.1496 9.94853 11.5165 9.94853C11.5165 9.71627 11.5109 9.5006 11.5165 9.28493C11.5278 8.90336 11.827 8.62133 12.2165 8.62686C12.5101 8.63239 12.7698 8.72087 13.0012 8.8923C13.3569 9.15221 13.5206 9.51166 13.5545 9.943C13.7803 9.943 13.9948 9.943 14.2263 9.943C14.2263 9.85452 14.2263 9.78263 14.2263 9.70521C14.2263 8.80935 14.2263 7.90795 14.2263 7.01209C14.2263 6.60286 14.4069 6.29318 14.7739 6.09963C14.8811 6.04433 14.9094 5.9835 14.9037 5.87843C14.8981 5.29224 14.8981 4.70606 14.9037 4.11435C14.9037 3.98163 14.8755 3.90974 14.7456 3.84337C14.3279 3.6277 14.136 3.15765 14.2658 2.71525C14.3956 2.27837 14.8134 1.97975 15.282 1.99634C15.7279 2.01293 16.1118 2.32262 16.2247 2.75949C16.332 3.1853 16.1344 3.62217 15.7392 3.85997C15.6715 3.89868 15.5868 3.9761 15.5868 4.04246C15.5755 4.67288 15.5755 5.29777 15.5868 5.9282C15.5868 5.9835 15.632 6.05539 15.6828 6.08304C16.0949 6.29871 16.2699 6.63604 16.2642 7.08398C16.2586 7.39366 16.2642 7.69781 16.2642 8.01302C16.9135 7.8803 17.3425 8.11809 17.5909 8.68769C18.2514 8.52179 18.6917 8.77064 18.9514 9.35682C19.499 9.19645 19.9111 9.36788 20.216 9.82687ZM0.677442 7.31071C0.677442 7.39366 0.677442 7.46002 0.677442 7.52638C0.677442 11.4914 0.677442 15.462 0.677442 19.427C0.677442 19.8086 0.773413 19.9026 1.16294 19.9026C4.98484 19.9026 8.81239 19.9026 12.6343 19.9026C12.7077 19.9026 12.7811 19.9026 12.8657 19.9026C12.8657 18.7302 12.8657 17.591 12.8601 16.4519C12.8601 16.3855 12.8149 16.3136 12.7754 16.2472C12.6061 15.9763 12.4254 15.7108 12.273 15.4343C12.1996 15.3016 12.1262 15.2518 11.9681 15.2518C10.5455 15.2574 9.11724 15.2574 7.69461 15.2574C7.62122 15.2574 7.54218 15.2574 7.46315 15.2574C7.46315 14.5827 7.46315 13.9302 7.46315 13.261C8.83497 13.261 10.1955 13.261 11.5673 13.261C11.5447 13.0288 11.5278 12.8186 11.5052 12.5919C8.10672 12.5919 4.7308 12.5919 1.36053 12.5919C1.36053 11.038 1.36053 9.50613 1.36053 7.95219C4.0703 7.95219 6.76877 7.95219 9.46725 7.95219C9.46725 7.72546 9.46725 7.52085 9.46725 7.30518C6.54296 7.31071 3.62431 7.31071 0.677442 7.31071ZM12.2052 9.30152C12.2052 10.496 12.1714 11.6794 12.2165 12.8629C12.256 13.9357 12.6456 14.9145 13.2835 15.7883C13.3343 15.8546 13.4359 15.9265 13.5093 15.9265C15.2142 15.932 16.9248 15.932 18.6296 15.9265C18.6974 15.9265 18.7934 15.8767 18.8272 15.8214C19.2506 15.0583 19.5498 14.2509 19.595 13.3882C19.6515 12.3707 19.6345 11.3421 19.6458 10.319C19.6458 10.1034 19.5047 9.96512 19.3184 9.95959C19.1208 9.95406 18.974 10.0978 18.974 10.3246C18.9684 10.7227 18.974 11.1264 18.974 11.5246C18.974 11.7734 18.974 12.0168 18.974 12.2601C18.7313 12.2601 18.5224 12.2601 18.2966 12.2601C18.2966 11.3974 18.2966 10.5458 18.2966 9.69415C18.2966 9.43977 18.1611 9.28493 17.9522 9.29046C17.749 9.29599 17.6248 9.4453 17.6248 9.68862C17.6248 10.4075 17.6248 11.1264 17.6248 11.8453C17.6248 11.9836 17.6248 12.1163 17.6248 12.2601C17.3877 12.2601 17.1731 12.2601 16.9473 12.2601C16.9473 11.6241 16.9473 11.0048 16.9473 10.3854C16.9473 9.92088 16.9473 9.46189 16.9473 8.99737C16.9473 8.77064 16.8062 8.62686 16.6086 8.62686C16.411 8.62686 16.2812 8.77064 16.2755 9.0029C16.2755 9.05267 16.2755 9.09691 16.2755 9.14668C16.2755 10.1144 16.2755 11.0822 16.2755 12.0499C16.2755 12.1218 16.2755 12.1937 16.2755 12.2656C16.0328 12.2656 15.8239 12.2656 15.5981 12.2656C15.5981 12.1827 15.5981 12.1052 15.5981 12.0334C15.5981 10.402 15.5981 8.77064 15.5981 7.13928C15.5981 7.07845 15.6037 7.01209 15.5981 6.95125C15.5812 6.76876 15.44 6.64157 15.265 6.63604C15.09 6.63604 14.9489 6.7577 14.9263 6.94019C14.9207 7.00103 14.9207 7.06186 14.9207 7.12822C14.9207 8.70428 14.9207 10.2803 14.915 11.8564C14.915 12.0223 14.8868 12.2048 14.819 12.3596C14.644 12.7744 14.1642 13.0066 13.7238 12.9237C13.2383 12.8297 12.894 12.4426 12.8883 11.9615C12.8827 11.2979 12.8883 10.6343 12.8827 9.97065C12.8657 9.58355 12.6117 9.32917 12.2052 9.30152ZM9.48418 8.64345C6.98329 8.64345 4.51628 8.64345 2.04926 8.64345C2.04926 9.75498 2.04926 10.8444 2.04926 11.9338C5.21066 11.9338 8.35511 11.9338 11.4996 11.9338C11.4996 11.4914 11.4996 11.0601 11.4996 10.6177C11.1721 10.6177 10.8504 10.6177 10.5342 10.6177C9.91323 10.6121 9.48418 10.1919 9.47854 9.58908C9.48418 9.27387 9.48418 8.96419 9.48418 8.64345ZM9.47289 3.31802C9.41079 3.31802 9.35999 3.31802 9.31482 3.31802C6.57683 3.31802 3.83884 3.31802 1.10084 3.31802C0.795994 3.31802 0.677442 3.43415 0.677442 3.73277C0.677442 4.64523 0.677442 5.55769 0.677442 6.47014C0.677442 6.51991 0.688732 6.57521 0.694378 6.62498C3.62996 6.62498 6.5486 6.62498 9.47289 6.62498C9.47289 5.52451 9.47289 4.43509 9.47289 3.31802ZM18.6127 19.8971C18.6127 18.7855 18.6127 17.6906 18.6127 16.6067C16.9191 16.6067 15.2368 16.6067 13.5601 16.6067C13.5601 17.7127 13.5601 18.8021 13.5601 19.8971C15.2481 19.8971 16.9248 19.8971 18.6127 19.8971ZM8.14059 14.5882C9.39386 14.5882 10.6302 14.5882 11.8835 14.5882C11.8157 14.3615 11.7536 14.1514 11.6915 13.9468C10.5003 13.9468 9.32611 13.9468 8.14059 13.9468C8.14059 14.1624 8.14059 14.367 8.14059 14.5882ZM13.5488 10.6287C13.5488 11.0877 13.5432 11.5246 13.5545 11.967C13.5601 12.1495 13.7069 12.2822 13.8819 12.2767C14.0682 12.2711 14.2093 12.1716 14.215 11.9946C14.2319 11.5412 14.2206 11.0933 14.2206 10.6287C13.9948 10.6287 13.7859 10.6287 13.5488 10.6287ZM15.2311 3.31802C15.4118 3.32355 15.5699 3.17424 15.5755 2.99728C15.5812 2.82032 15.4287 2.66548 15.2481 2.65995C15.0674 2.65442 14.9094 2.80373 14.9037 2.98069C14.8981 3.15765 15.0505 3.31249 15.2311 3.31802Z" fill="#5958A0"/>
<path d="M18.2923 2.00255C18.5238 2.00255 18.7327 2.00255 18.9698 2.00255C18.9698 2.19057 18.9754 2.37306 18.9698 2.55555C18.9641 2.66062 18.9924 2.72698 19.0996 2.78228C19.4553 2.96477 19.6416 3.25786 19.6472 3.6505C19.6472 4.04313 19.4609 4.34175 19.1053 4.52424C18.9867 4.58507 18.9698 4.65696 18.9698 4.76756C18.9698 5.8238 18.9698 6.88004 18.9698 7.95287C18.7496 7.95287 18.5351 7.95287 18.2923 7.95287C18.2923 7.88097 18.2923 7.80908 18.2923 7.73719C18.2923 6.75838 18.2923 5.77403 18.2923 4.79521C18.2923 4.66249 18.2641 4.57954 18.1286 4.50765C17.4455 4.13161 17.4455 3.18597 18.123 2.8044C18.2641 2.72698 18.3093 2.64956 18.298 2.50025C18.2811 2.33988 18.2923 2.17951 18.2923 2.00255ZM18.9698 3.64497C18.9641 3.46248 18.8061 3.31869 18.6254 3.32422C18.4391 3.32975 18.2924 3.4846 18.298 3.66156C18.3036 3.84405 18.4617 3.98783 18.6424 3.9823C18.823 3.97677 18.9754 3.82193 18.9698 3.64497Z" fill="#5958A0"/>
<path d="M12.1965 7.95287C11.9594 7.95287 11.7505 7.95287 11.5191 7.95287C11.5191 7.70401 11.5191 7.46622 11.5191 7.22843C11.5191 6.95193 11.5078 6.67543 11.5191 6.39892C11.5304 6.11689 11.5021 5.91781 11.2199 5.71873C10.6441 5.32057 10.7344 4.46341 11.3554 4.12608C11.4909 4.05419 11.5247 3.97677 11.5247 3.83852C11.5191 3.2468 11.5247 2.64956 11.5247 2.05785C11.5247 2.04679 11.5304 2.0302 11.536 2.00255C11.7449 2.00255 11.9594 2.00255 12.1965 2.00255C12.1965 2.24587 12.1965 2.48366 12.1965 2.72145C12.1965 2.99795 12.2022 3.27445 12.1965 3.55096C12.1852 3.82746 12.2078 4.03207 12.4957 4.23115C13.0828 4.62931 12.9812 5.492 12.3433 5.83486C12.2248 5.90122 12.1909 5.96758 12.1965 6.08924C12.2022 6.70861 12.1965 7.32244 12.1965 7.95287ZM12.1965 4.9943C12.2078 4.81733 12.061 4.65696 11.8747 4.6459C11.6941 4.63484 11.5304 4.77862 11.5191 4.96112C11.5078 5.13808 11.6546 5.29845 11.8409 5.30951C12.0215 5.31504 12.1852 5.17126 12.1965 4.9943Z" fill="#5958A0"/>
<path d="M3.72677 18.5816C2.4227 18.5816 1.35573 17.5309 1.36137 16.259C1.36137 14.9815 2.42834 13.9364 3.73242 13.9419C5.0365 13.9419 6.10347 14.9871 6.09782 16.2645C6.09782 17.5364 5.0252 18.5816 3.72677 18.5816ZM2.78965 17.6415C3.35418 17.9733 3.90743 18.012 4.46632 17.7465C4.95182 17.5143 5.25102 17.1272 5.38086 16.5908C4.88972 16.5908 4.4268 16.5908 3.95823 16.5908C3.90743 16.5908 3.84533 16.6129 3.81145 16.6461C3.47838 16.9668 3.1453 17.2931 2.78965 17.6415ZM2.32673 17.1714C2.67109 16.8286 3.00417 16.5023 3.3316 16.1705C3.35983 16.1428 3.38241 16.0986 3.38241 16.0654C3.38805 15.5954 3.38241 15.1253 3.38241 14.6442C2.22511 14.8599 1.66058 16.1926 2.32673 17.1714ZM4.0655 14.6553C4.0655 14.8654 4.0655 15.07 4.0655 15.2746C4.0655 15.4848 4.0655 15.7004 4.0655 15.9272C4.46632 15.9272 4.84455 15.9272 5.22279 15.9272C5.26795 15.9272 5.31876 15.9216 5.36393 15.9161C5.26795 15.2967 4.67519 14.7161 4.0655 14.6553Z" fill="#5958A0"/>
<path d="M12.1843 17.2708C12.1843 17.486 12.1843 17.6902 12.1843 17.9054C10.6149 17.9054 9.05114 17.9054 7.47044 17.9054C7.47044 17.7012 7.47044 17.4915 7.47044 17.2708C9.0342 17.2708 10.598 17.2708 12.1843 17.2708Z" fill="#5958A0"/>
<path d="M9.49348 19.2273C9.49348 19.0066 9.49348 18.8024 9.49348 18.5926C10.3911 18.5926 11.2718 18.5926 12.175 18.5926C12.175 18.7968 12.175 19.0066 12.175 19.2273C11.2887 19.2273 10.3967 19.2273 9.49348 19.2273Z" fill="#5958A0"/>
<path d="M12.183 16.5776C11.2854 16.5776 10.4047 16.5776 9.50148 16.5776C9.50148 16.3679 9.50148 16.1582 9.50148 15.9374C10.3934 15.9374 11.2798 15.9374 12.183 15.9374C12.183 16.1471 12.183 16.3513 12.183 16.5776Z" fill="#5958A0"/>
<path d="M7.46245 15.9374C7.90843 15.9374 8.34312 15.9374 8.7891 15.9374C8.7891 16.1471 8.7891 16.3568 8.7891 16.5776C8.34877 16.5776 7.90843 16.5776 7.46245 16.5776C7.46245 16.3679 7.46245 16.1637 7.46245 15.9374Z" fill="#5958A0"/>
<path d="M7.46245 19.2273C7.46245 19.0066 7.46245 18.8024 7.46245 18.5926C7.90843 18.5926 8.33748 18.5926 8.7891 18.5926C8.7891 18.7968 8.7891 19.0066 8.7891 19.2273C8.35441 19.2273 7.91407 19.2273 7.46245 19.2273Z" fill="#5958A0"/>
<path d="M1.36735 5.95626C1.36735 5.29266 1.36735 4.64564 1.36735 3.9931C2.03915 3.9931 2.69401 3.9931 3.37145 3.9931C3.37145 4.64011 3.37145 5.29266 3.37145 5.95626C2.71094 5.95626 2.04479 5.95626 1.36735 5.95626ZM2.69965 4.6567C2.46819 4.6567 2.25931 4.6567 2.04479 4.6567C2.04479 4.8779 2.04479 5.08805 2.04479 5.29266C2.2706 5.29266 2.48513 5.29266 2.69965 5.29266C2.69965 5.07699 2.69965 4.87237 2.69965 4.6567Z" fill="#5958A0"/>
<path d="M6.08416 3.9981C6.08416 4.65617 6.08416 5.30318 6.08416 5.96126C5.418 5.96126 4.7575 5.96126 4.08006 5.96126C4.08006 5.31424 4.08006 4.6617 4.08006 3.9981C4.74056 3.9981 5.40107 3.9981 6.08416 3.9981ZM5.40671 4.6617C5.17525 4.6617 4.96073 4.6617 4.7575 4.6617C4.7575 4.88843 4.7575 5.09304 4.7575 5.29765C4.98331 5.29765 5.19219 5.29765 5.40671 5.29765C5.40671 5.08198 5.40671 4.87737 5.40671 4.6617Z" fill="#5958A0"/>
<path d="M8.79087 5.96126C8.11342 5.96126 7.45856 5.96126 6.78677 5.96126C6.78677 5.30318 6.78677 4.6617 6.78677 3.9981C7.44727 3.9981 8.11342 3.9981 8.79087 3.9981C8.79087 4.64511 8.79087 5.29765 8.79087 5.96126ZM8.11907 4.65617C7.88761 4.65617 7.67873 4.65617 7.46421 4.65617C7.46421 4.87737 7.46421 5.08198 7.46421 5.29765C7.69002 5.29765 7.90455 5.29765 8.11907 5.29765C8.11907 5.07645 8.11907 4.87184 8.11907 4.65617Z" fill="#5958A0"/>
</svg>
