<svg width="90" height="90" viewBox="0 0 90 90" fill="none" xmlns="http://www.w3.org/2000/svg">
<g clip-path="url(#clip0_405_3146)">
<path d="M39.8691 22.9395C43.3184 22.1037 46.6528 22.1037 50.1022 22.9395C50.1022 22.5072 50.1022 22.1614 50.1022 21.8444C50.1022 15.2738 50.1022 8.70317 50.1022 2.10375C50.1022 0.403458 50.5046 0 52.1718 0C61.3989 0 70.5973 0 79.8243 0C80.6579 0 81.3191 0.230548 81.9227 0.835735C84.2798 3.25648 86.6944 5.64842 89.1089 8.04035C89.7126 8.64553 90 9.25072 90 10.1153C89.9713 25.4179 90 40.7205 89.9713 56.0231C89.9713 57.6081 89.5113 58.0692 87.9304 58.0692C78.5883 58.0692 69.2462 58.0692 59.9042 58.098C59.4155 58.098 58.8406 58.2997 58.4669 58.6167C56.1674 60.5476 53.6091 61.9885 50.7058 62.7954C50.1884 62.9395 49.9872 63.17 50.016 63.7464C50.0735 65.3314 50.0447 66.8876 50.1022 68.4726C50.1022 68.7608 50.3034 69.1643 50.5334 69.3372C51.4245 70 51.9419 70.8357 51.9706 71.9308C52.0569 76.8588 52.1718 81.8156 52.2006 86.7435C52.2006 88.5591 50.8208 89.8559 49.0099 89.9136C47.2852 89.9712 45.5605 89.9712 43.8358 90C41.7087 90 40.4152 88.7896 40.3577 86.6571C40.2427 81.8732 40.1852 77.0893 40.1278 72.3055C40.099 70.9798 40.6739 70 41.8237 69.2795C42.0537 69.1355 42.2836 68.732 42.3124 68.4438C42.3411 67.0029 42.2836 65.5331 42.2836 64.0922C42.2836 63.6023 42.1111 63.4294 41.6225 63.3429C37.8282 62.7089 34.4938 61.1239 31.5618 58.6455C31.1594 58.3285 30.5557 58.098 30.0383 58.098C20.725 58.0692 11.4117 58.0692 2.09837 58.0692C0.431172 58.0692 0 57.6369 0 55.9942C0 40.7205 0 25.4467 0 10.1729C0 9.33718 0.229959 8.67435 0.8336 8.06917C3.30565 5.64842 5.72022 3.19885 8.13478 0.74928C8.68093 0.230548 9.25583 0 10.0032 0C19.3165 0 28.6298 0 37.9431 0C39.4379 0 39.8978 0.461095 39.8978 1.95965C39.8978 8.55908 39.8978 15.1585 39.8978 21.7867C39.8691 22.1614 39.8691 22.5072 39.8691 22.9395ZM87.0105 55.1297C87.0105 40.3746 87.0105 25.7061 87.0105 10.9798C84.8547 10.9798 82.785 10.9798 80.7154 10.9798C79.5656 10.9798 79.0482 10.4611 79.0195 9.30836C78.9907 8.50144 79.0195 7.66571 79.0195 6.85879C79.0195 5.56196 79.0195 4.26513 79.0195 2.9683C70.2811 2.9683 61.7151 2.9683 53.0629 2.9683C53.0342 3.19885 53.0054 3.34294 53.0054 3.48703C53.0054 10.0865 53.0054 16.6859 53.0342 23.3141C53.0342 23.6311 53.3791 24.0058 53.6666 24.2075C55.3625 25.3602 57.0584 26.513 58.7831 27.6081C59.2431 27.8963 59.7892 28.1844 60.3066 28.1844C67.0042 28.2133 73.7304 28.2133 80.428 28.2133C80.7729 28.2133 81.0891 28.2133 81.434 28.2421C82.2676 28.3285 82.8138 28.8761 82.8138 29.6542C82.8138 30.4323 82.3251 31.0086 81.4915 31.1239C81.2041 31.1527 80.8879 31.1527 80.6004 31.1527C74.7653 31.1527 68.9301 31.1527 63.0949 31.1527C62.7499 31.1527 62.4337 31.1816 62.2038 31.1816C63.0374 33.0836 63.8997 34.8703 64.6183 36.7147C64.8483 37.3199 65.107 37.5216 65.7681 37.5216C70.7122 37.4928 75.6851 37.4928 80.6292 37.5216C80.9454 37.5216 81.2328 37.5216 81.549 37.5504C82.3251 37.6369 82.7563 38.098 82.8138 38.8473C82.8713 39.5965 82.4976 40.1441 81.7502 40.3458C81.4053 40.4323 81.0316 40.4323 80.6867 40.4323C76.0013 40.4323 71.3159 40.4323 66.6305 40.4323C66.2855 40.4323 65.9406 40.4323 65.5094 40.4323C65.5094 42.5937 65.5094 44.6398 65.5094 46.8012C65.7394 46.8012 66.0556 46.8012 66.3718 46.8012C71.1147 46.8012 75.8576 46.8012 80.6004 46.8012C80.9454 46.8012 81.2616 46.8012 81.6065 46.83C82.3251 46.9452 82.7563 47.3775 82.8138 48.098C82.8713 48.8473 82.5551 49.3948 81.8077 49.5965C81.4628 49.683 81.0891 49.683 80.7442 49.683C76.0588 49.683 71.3734 49.7695 66.688 49.6542C65.1357 49.6254 64.2447 49.9424 63.756 51.5274C63.3536 52.7954 62.52 53.9193 61.8588 55.1297C70.1948 55.1297 78.5596 55.1297 87.0105 55.1297ZM2.98946 11.0086C2.98946 25.7925 2.98946 40.4611 2.98946 55.1009C11.4404 55.1009 19.8052 55.1009 28.1124 55.1009C27.3363 53.5735 26.5027 52.0749 25.8416 50.5476C25.5541 49.8559 25.2092 49.683 24.5193 49.683C19.4315 49.7118 14.3724 49.7118 9.28457 49.683C8.91089 49.683 8.53721 49.683 8.22102 49.5965C7.47365 49.3948 7.12871 48.8473 7.21495 48.0692C7.27244 47.3487 7.70361 46.9164 8.42223 46.8012C8.73842 46.7435 9.08336 46.7723 9.4283 46.7723C14.1712 46.7723 18.9141 46.7723 23.657 46.7723C23.9732 46.7723 24.2894 46.7723 24.5193 46.7723C24.5193 44.5821 24.5193 42.536 24.5193 40.4035C24.0019 40.4035 23.657 40.4035 23.2833 40.4035C18.6266 40.4035 13.97 40.4035 9.31332 40.4035C8.93964 40.4035 8.5947 40.4035 8.24976 40.317C7.5024 40.1153 7.15746 39.5965 7.1862 38.8184C7.24369 38.0692 7.67486 37.6081 8.45097 37.5216C8.73842 37.4928 9.05462 37.4928 9.37081 37.4928C14.3149 37.4928 19.2878 37.4928 24.2319 37.4928C24.893 37.4928 25.123 37.2911 25.3817 36.6859C26.0428 35.0432 26.8477 33.4582 27.6238 31.8444C27.71 31.6427 27.825 31.4409 28.0262 31.1239C27.5375 31.1239 27.1926 31.1239 26.8189 31.1239C21.0125 31.1239 15.206 31.1239 9.39955 31.1239C7.84733 31.1239 7.15746 30.6628 7.15746 29.6542C7.15746 28.6744 7.84733 28.2421 9.34206 28.2421C16.1258 28.2421 22.8809 28.2421 29.6646 28.2133C30.1821 28.2133 30.7282 27.9251 31.1881 27.6369C32.8553 26.5706 34.465 25.3891 36.161 24.3516C36.7359 24.0058 36.9658 23.7464 36.9658 23.0548C36.9371 16.6859 36.9371 10.317 36.9371 3.97695C36.9371 3.65994 36.9371 3.34294 36.9371 3.02594C28.1987 3.02594 19.604 3.02594 10.9518 3.02594C10.9518 5.12968 10.9518 7.14697 10.9518 9.19308C10.9518 10.5476 10.4344 11.0375 9.08336 11.0375C7.07122 11.0086 5.05909 11.0086 2.98946 11.0086ZM62.7212 42.9683C62.7212 33.1989 54.7301 25.2161 44.9856 25.2161C35.2411 25.2161 27.2788 33.2277 27.2788 42.9683C27.2788 52.7378 35.2411 60.7205 45.0144 60.7205C54.7589 60.7205 62.7212 52.7378 62.7212 42.9683ZM49.2974 79.366C49.2399 79.366 49.1536 79.366 49.0961 79.366C49.0961 77.0893 49.0961 74.8127 49.0961 72.536C49.0961 71.9308 48.8949 71.6715 48.2625 71.7003C46.7966 71.7579 45.3018 71.7579 43.8071 71.7579C43.2609 71.7579 43.0022 71.9308 43.0022 72.5648C43.0885 77.147 43.146 81.7003 43.2035 86.2824C43.2035 86.8588 43.4334 87.0893 44.0083 87.0605C45.4455 87.0029 46.9115 86.9741 48.3488 87.0029C49.0674 87.0317 49.2973 86.8012 49.2686 86.0807C49.2686 83.8617 49.2974 81.6138 49.2974 79.366ZM45.2731 63.6311C45.2731 65.4179 45.2731 67.0893 45.2731 68.7896C45.9342 68.7896 46.5378 68.7896 47.084 68.7896C47.084 67.0317 47.084 65.3026 47.084 63.5447C46.4229 63.5735 45.8767 63.6023 45.2731 63.6311ZM8.0198 5.38905C7.12871 6.28242 6.20888 7.20461 5.34653 8.04035C6.12264 8.04035 7.04248 8.04035 8.0198 8.04035C8.0198 7.08934 8.0198 6.16715 8.0198 5.38905ZM81.9515 5.18732C81.9515 6.16715 81.9515 7.08934 81.9515 8.04035C82.9288 8.04035 83.8486 8.04035 84.8547 8.04035C83.8774 7.06052 82.9575 6.16715 81.9515 5.18732Z" fill="white"/>
<path d="M70.1086 18.9337C73.6442 18.9337 77.1798 18.9337 80.7154 18.9337C81.0029 18.9337 81.3191 18.9337 81.6065 18.9625C82.3251 19.0778 82.7276 19.5389 82.785 20.2594C82.8425 20.9798 82.4976 21.4986 81.8077 21.7003C81.434 21.8156 81.0316 21.8156 80.6579 21.8156C73.5867 21.8156 66.5155 21.8156 59.4443 21.8156C59.2143 21.8156 58.9556 21.8156 58.7256 21.7868C57.8345 21.6715 57.3171 21.1239 57.3171 20.317C57.3459 19.5101 57.892 18.9337 58.7831 18.9337C60.2491 18.9049 61.7438 18.9337 63.2386 18.9049C65.5094 18.9337 67.809 18.9337 70.1086 18.9337Z" fill="white"/>
<path d="M66.573 12.5648C64.1585 12.5648 61.7439 12.5648 59.3294 12.5648C59.0132 12.5648 58.6682 12.5648 58.352 12.4784C57.6622 12.2767 57.2885 11.7867 57.3172 11.0663C57.346 10.3458 57.7196 9.88472 58.4383 9.71181C58.7545 9.65418 59.0994 9.65417 59.4156 9.65417C64.1872 9.65417 68.9589 9.65417 73.7305 9.65417C73.9605 9.65417 74.2192 9.65417 74.4491 9.68299C75.254 9.76945 75.8289 10.3458 75.8289 11.0951C75.8289 11.8444 75.2827 12.4496 74.4779 12.536C73.788 12.5937 73.0981 12.5648 72.4082 12.5648C70.4536 12.5648 68.499 12.5648 66.573 12.5648Z" fill="white"/>
<path d="M19.9776 18.9337C23.5132 18.9337 27.0488 18.9337 30.5845 18.9337C30.8719 18.9337 31.1881 18.9337 31.4755 18.9625C32.1942 19.0778 32.5966 19.5101 32.6828 20.2305C32.7403 20.9798 32.3954 21.5274 31.648 21.7291C31.3606 21.8156 31.0444 21.8156 30.7569 21.8156C23.5707 21.8156 16.3845 21.8156 9.16957 21.8156C8.85337 21.8156 8.50844 21.7867 8.19224 21.7003C7.50237 21.4986 7.15743 20.951 7.21492 20.2594C7.27241 19.5389 7.64609 19.0778 8.36471 18.9625C8.68091 18.9049 9.02584 18.9337 9.37078 18.9337C12.9064 18.9337 16.442 18.9337 19.9776 18.9337Z" fill="white"/>
<path d="M23.4271 12.5648C21.0126 12.5648 18.598 12.5648 16.1834 12.5648C15.8672 12.5648 15.4073 12.6225 15.2061 12.4496C14.8037 12.0749 14.315 11.6138 14.2288 11.0951C14.0851 10.4323 14.5737 9.88472 15.2636 9.71181C15.551 9.65418 15.8672 9.65417 16.1547 9.65417C21.0126 9.65417 25.8704 9.65417 30.7283 9.65417C30.9295 9.65417 31.1595 9.65417 31.3607 9.68299C32.1655 9.79827 32.6255 10.2594 32.6542 11.0663C32.683 11.8444 32.1655 12.4207 31.3607 12.536C31.102 12.5648 30.8145 12.5648 30.5558 12.5648C28.1988 12.5648 25.8129 12.5648 23.4271 12.5648Z" fill="white"/>
<path d="M45.043 27.8962C53.3503 27.9251 60.0766 34.6974 60.0478 43.0259C60.0191 51.3256 53.2353 58.098 44.9568 58.098C36.6783 58.0692 29.9233 51.268 29.952 42.9683C29.952 34.6398 36.707 27.8962 45.043 27.8962ZM45.0143 30.8069C38.288 30.8069 32.8552 36.2536 32.8552 42.9971C32.8552 49.683 38.288 55.1585 44.9568 55.1873C51.6543 55.2161 57.1446 49.7406 57.1733 43.0259C57.1446 36.2824 51.7118 30.8069 45.0143 30.8069Z" fill="white"/>
</g>
<defs>
<clipPath id="clip0_405_3146">
<rect width="90" height="90" fill="white"/>
</clipPath>
</defs>
</svg>
