<svg width="34" height="34" viewBox="0 0 34 34" fill="none" xmlns="http://www.w3.org/2000/svg">
<g id="pinterest">
<circle id="Ellipse 4" cx="17" cy="17" r="17" fill="#6866BC"/>
<path id="ic-pinterset" d="M9.843 14.4718C9.843 13.6982 9.97824 12.9673 10.2448 12.2851C10.4994 11.6225 10.8777 11.0144 11.3595 10.4931C11.8403 9.97872 12.3906 9.53391 12.9943 9.17154C13.6138 8.79679 14.2844 8.51407 14.9852 8.33224C15.6944 8.14601 16.4247 8.05208 17.158 8.05281C18.2907 8.05281 19.3448 8.29246 20.3223 8.76979C21.287 9.23841 22.1082 9.95758 22.7 10.8521C23.3105 11.762 23.6138 12.7913 23.6138 13.9388C23.6138 14.627 23.5462 15.3002 23.408 15.9585C23.2723 16.6164 23.0565 17.2553 22.7656 17.8608C22.4883 18.447 22.1257 18.9889 21.6896 19.4688C21.2514 19.9411 20.7206 20.3182 20.1304 20.5766C19.4896 20.8575 18.7964 20.9988 18.0968 20.9913C17.6105 20.9913 17.1252 20.8769 16.6459 20.6472C16.1666 20.4185 15.8225 20.1043 15.6157 19.7015C15.5431 19.981 15.4436 20.3847 15.3114 20.9127C15.1841 21.4398 15.0986 21.7799 15.0608 21.934C15.021 22.0872 14.9474 22.3427 14.84 22.6967C14.7672 22.9586 14.6737 23.2143 14.5606 23.4615L14.2185 24.1317C14.0705 24.4193 13.9052 24.6976 13.7233 24.965C13.5433 25.2256 13.3205 25.5368 13.055 25.8948L12.9068 25.9475L12.8084 25.8401C12.702 24.7134 12.6473 24.0392 12.6473 23.8165C12.6473 23.1572 12.7258 22.4173 12.881 21.5959C13.0331 20.7755 13.2738 19.7443 13.597 18.5042C13.9202 17.2652 14.1051 16.5363 14.1548 16.3205C13.9271 15.8561 13.8118 15.2495 13.8118 14.5037C13.8118 13.908 13.9977 13.3501 14.3706 12.8251C14.7445 12.302 15.2169 12.0405 15.7897 12.0405C16.2282 12.0405 16.5683 12.1856 16.812 12.477C17.0566 12.7674 17.1759 13.1333 17.1759 13.5798C17.1759 14.0532 17.0188 14.7383 16.7026 15.6343C16.3863 16.5313 16.2292 17.2005 16.2292 17.6451C16.2292 18.0955 16.3903 18.4724 16.7125 18.7678C17.0305 19.0633 17.451 19.2234 17.8849 19.2143C18.2787 19.2143 18.6437 19.1248 18.9828 18.9448C19.3166 18.7701 19.6055 18.5206 19.8271 18.2159C20.3096 17.5539 20.6535 16.8013 20.8384 16.0033C20.9339 15.5836 21.0074 15.1848 21.0532 14.8099C21.1019 14.4331 21.1228 14.077 21.1228 13.7389C21.1228 12.4989 20.729 11.5323 19.9464 10.8402C19.1598 10.1481 18.1355 9.80399 16.8756 9.80399C15.4426 9.80399 14.2443 10.2674 13.2847 11.1972C12.3241 12.124 11.8408 13.3024 11.8408 14.7314C11.8408 15.0466 11.8885 15.3509 11.979 15.6453C12.0675 15.9386 12.164 16.1723 12.2684 16.3453C12.3718 16.5154 12.4693 16.6815 12.5578 16.8346C12.6473 16.9877 12.694 17.0971 12.694 17.1628C12.694 17.3636 12.6413 17.6252 12.5349 17.9484C12.4245 18.2715 12.2943 18.4326 12.1371 18.4326C12.1222 18.4326 12.0606 18.4217 11.9532 18.3988C11.5812 18.2878 11.2453 18.0802 10.9796 17.7972C10.6977 17.5039 10.4751 17.1588 10.3243 16.7809C10.1739 16.4044 10.0568 16.0154 9.97427 15.6184C9.8851 15.2428 9.84103 14.8579 9.843 14.4718Z" fill="white"/>
</g>
</svg>
