<svg width="34" height="34" viewBox="0 0 34 34" fill="none" xmlns="http://www.w3.org/2000/svg">
<g id="twitter">
<circle id="Ellipse 4" cx="17" cy="17" r="17" fill="#6866BC"/>
<path id="ic-twitter" d="M25.9468 11.5691C25.2887 11.853 24.5726 12.0573 23.835 12.1369C24.6008 11.6819 25.1743 10.9631 25.4479 10.1153C24.7292 10.5428 23.942 10.8426 23.121 11.0014C22.7778 10.6345 22.3628 10.3423 21.9018 10.1429C21.4408 9.94345 20.9437 9.8411 20.4414 9.84221C18.4091 9.84221 16.7747 11.4895 16.7747 13.5111C16.7747 13.7949 16.8091 14.0788 16.865 14.3519C13.822 14.1928 11.108 12.739 9.30369 10.5132C8.97492 11.0747 8.80264 11.7141 8.80476 12.3648C8.80476 13.6379 9.45208 14.7605 10.4392 15.4207C9.85746 15.3978 9.28937 15.2379 8.7811 14.9541V14.9992C8.7811 16.782 10.0413 18.2595 11.7209 18.5993C11.4055 18.6812 11.0811 18.7231 10.7553 18.724C10.5166 18.724 10.2908 18.7003 10.0628 18.6681C10.5274 20.1218 11.88 21.1778 13.4908 21.2122C12.2306 22.1993 10.6521 22.7799 8.93809 22.7799C8.63057 22.7799 8.34669 22.7692 8.05207 22.7348C9.67788 23.7778 11.6069 24.3799 13.6844 24.3799C20.4285 24.3799 24.1188 18.7928 24.1188 13.9433C24.1188 13.7842 24.1188 13.625 24.1081 13.4659C24.8221 12.9433 25.4479 12.296 25.9468 11.5691Z" fill="white"/>
</g>
</svg>
