<svg width="34" height="34" viewBox="0 0 34 34" fill="none" xmlns="http://www.w3.org/2000/svg">
<g id="instagram">
<circle id="Ellipse 4" cx="17" cy="17" r="17" fill="#6866BC"/>
<path id="ic-instagram" d="M16.5499 14.6127C14.9891 14.6127 13.7154 15.8865 13.7154 17.4473C13.7154 19.0081 14.9891 20.2818 16.5499 20.2818C18.1107 20.2818 19.3845 19.0081 19.3845 17.4473C19.3845 15.8865 18.1107 14.6127 16.5499 14.6127ZM25.0514 17.4473C25.0514 16.2735 25.0621 15.1103 24.9961 13.9386C24.9302 12.5777 24.6198 11.3699 23.6246 10.3747C22.6273 9.37743 21.4216 9.0691 20.0607 9.00318C18.8869 8.93726 17.7237 8.94789 16.5521 8.94789C15.3783 8.94789 14.2151 8.93726 13.0434 9.00318C11.6825 9.0691 10.4747 9.37956 9.47954 10.3747C8.48224 11.372 8.17391 12.5777 8.10799 13.9386C8.04207 15.1124 8.0527 16.2756 8.0527 17.4473C8.0527 18.6189 8.04207 19.7842 8.10799 20.9559C8.17391 22.3168 8.48437 23.5246 9.47954 24.5198C10.4768 25.5171 11.6825 25.8254 13.0434 25.8913C14.2172 25.9572 15.3804 25.9466 16.5521 25.9466C17.7259 25.9466 18.889 25.9572 20.0607 25.8913C21.4216 25.8254 22.6294 25.515 23.6246 24.5198C24.6219 23.5225 24.9302 22.3168 24.9961 20.9559C25.0642 19.7842 25.0514 18.621 25.0514 17.4473ZM16.5499 21.8086C14.1364 21.8086 12.1886 19.8608 12.1886 17.4473C12.1886 15.0337 14.1364 13.0859 16.5499 13.0859C18.9634 13.0859 20.9113 15.0337 20.9113 17.4473C20.9113 19.8608 18.9634 21.8086 16.5499 21.8086ZM21.0899 13.9259C20.5264 13.9259 20.0713 13.4708 20.0713 12.9073C20.0713 12.3438 20.5264 11.8888 21.0899 11.8888C21.6534 11.8888 22.1084 12.3438 22.1084 12.9073C22.1086 13.0411 22.0824 13.1736 22.0313 13.2973C21.9801 13.421 21.9051 13.5333 21.8105 13.6279C21.7159 13.7225 21.6035 13.7976 21.4799 13.8487C21.3562 13.8998 21.2237 13.926 21.0899 13.9259Z" fill="white"/>
</g>
</svg>
