<svg width="37" height="36" viewBox="0 0 37 36" fill="none" xmlns="http://www.w3.org/2000/svg">
<g id="Group">
<path id="Vector" d="M2.42487 36C1.00725 36 0.531606 35.6818 0.00932642 34.39L0 34.3713V26.1061L0.0186528 26.078C0.139896 25.8908 0.326425 25.6755 0.606218 25.6755C0.671503 25.6755 0.746114 25.6849 0.820725 25.713C1.19378 25.844 1.24041 26.181 1.24041 26.4524C1.23109 29.1482 1.24041 31.8253 1.24041 33.8565C1.24041 34.4462 1.52953 34.7364 2.10777 34.7364C2.6487 34.7364 3.18031 34.7364 3.72124 34.7364C4.31813 34.7364 4.9057 34.7364 5.49326 34.7364C6.11813 34.7364 6.39793 34.4649 6.39793 33.8565C6.39793 28.9142 6.39793 23.8315 6.39793 18.7301C6.39793 18.1124 6.12746 17.8503 5.49326 17.8503C4.96166 17.8503 4.43005 17.8503 3.89845 17.8503C3.32021 17.8503 2.74197 17.8503 2.16373 17.8503C1.47358 17.8503 1.22176 18.1124 1.22176 18.7957V19.0858C1.22176 20.5835 1.22176 22.1373 1.22176 23.6724C1.22176 23.9251 1.22176 24.2996 0.820725 24.4587C0.736788 24.4868 0.662176 24.5055 0.587565 24.5055C0.317098 24.5055 0.139896 24.2996 0 24.1498L0 24.1404V18.2621V18.2528C0.26114 17.401 0.736788 16.8955 1.45492 16.7083C1.63212 16.6615 1.83731 16.6334 2.09845 16.6334C2.70466 16.6334 3.32021 16.6334 3.92642 16.6334C4.45803 16.6334 4.98964 16.6334 5.52124 16.6334C6.80829 16.6334 7.61036 17.4478 7.63834 18.7395C7.63834 18.8518 7.63834 18.9642 7.63834 19.0671V19.1326C7.94611 19.1607 8.22591 19.1701 8.47772 19.1701C10.6041 19.1701 11.7793 18.2247 12.5534 15.922C12.8332 15.0983 12.9078 14.181 12.9731 13.3011L12.9824 13.2262C13.029 12.6365 13.0197 12.0281 13.0104 11.4384C13.0104 11.167 13.001 10.8768 13.001 10.6053C13.001 9.63186 13.5793 9.05151 14.5306 9.05151C14.5492 9.05151 14.5679 9.05151 14.5865 9.05151C16.7596 9.10768 18.5036 10.6334 18.914 12.8612C19.1658 14.2278 19.0539 15.6225 18.9513 16.9704L18.9326 17.167C18.8953 17.6163 18.858 18.0375 19.0539 18.4587C19.1378 18.6365 19.2031 18.6833 19.3803 18.6833C19.7813 18.6833 20.1917 18.6833 20.5927 18.6833C21.3762 18.6833 22.1689 18.6833 22.9523 18.6833C23.7358 18.6833 24.5285 18.6833 25.3119 18.6833C25.8435 18.6833 26.3751 18.6833 26.9067 18.6833H26.9161C27.6808 18.6833 28.2964 18.8986 28.8 19.3573C29.2383 19.7504 29.5368 20.312 29.6114 20.9111C29.6953 21.5663 29.5275 22.2309 29.1078 22.8206C30.0497 23.3635 30.5347 24.1311 30.5347 25.1233C30.5347 26.1342 30.0591 26.9205 29.0984 27.454C29.6021 28.1654 29.7513 28.9236 29.5368 29.7005C29.3223 30.4774 28.8187 31.0484 28.0446 31.4041C28.3896 31.947 28.5389 32.4618 28.5202 33.0047C28.4736 34.3058 27.4756 35.3635 26.1886 35.4571C25.9927 35.4758 25.8062 35.4758 25.6197 35.4758H25.4891C24.3699 35.4758 23.2601 35.4759 22.1409 35.4665C21.0218 35.4665 19.9119 35.4571 18.7927 35.4571C16.8342 35.4571 15.2301 35.4665 13.7565 35.4852C13.7192 35.4852 13.6819 35.4852 13.6352 35.4852C11.9938 35.4852 10.6135 34.9517 9.39171 33.8565C8.93471 33.4446 8.60829 33.2949 8.15129 33.2949C8.00207 33.2949 7.82487 33.3136 7.61036 33.351C7.61036 33.3885 7.61036 33.4353 7.61036 33.4727C7.61036 33.6225 7.61036 33.7723 7.61036 33.922C7.58238 35.1857 6.75233 36 5.50259 36C5.10155 36 4.70052 36 4.29948 36H2.42487ZM7.66632 32.05C7.75958 32.05 7.85285 32.0593 7.94611 32.0593C8.22591 32.0687 8.47772 32.078 8.74819 32.1155C9.43834 32.2091 9.94197 32.649 10.4269 33.0609L10.5202 33.1451C11.3689 33.8752 12.3202 34.2309 13.4114 34.2309C13.4487 34.2309 13.4953 34.2309 13.5326 34.2309C14.1855 34.2122 14.8943 34.2122 15.7523 34.2122C16.2933 34.2122 16.8435 34.2122 17.3845 34.2216C17.9254 34.2216 18.4756 34.2309 19.0166 34.2309H19.2964C18.914 33.5008 18.8394 32.7988 19.0725 32.0968C19.3057 31.3854 19.7813 30.8705 20.5368 30.5149C20.0891 29.8596 19.9492 29.1389 20.1357 28.3807C20.313 27.6506 20.7513 27.0983 21.4881 26.6865C20.7886 25.6381 20.7886 24.5804 21.4881 23.5414C20.0611 22.6334 19.7627 21.6693 20.3876 19.9189H19.4642C19.5575 21.6599 18.8301 23.064 17.3005 24.103C17.0767 24.2621 16.7876 24.3838 16.4238 24.4961C16.3679 24.5149 16.3212 24.5149 16.2653 24.5149C16.0228 24.5149 15.8269 24.3464 15.7896 24.1124C15.7617 23.9345 15.8083 23.7192 15.9389 23.4571C15.9855 23.3542 16.0974 23.3167 16.2 23.2699C16.2373 23.2512 16.2653 23.2418 16.3026 23.2231C18.0373 22.3245 18.6528 20.6397 17.9161 18.8425C17.7016 18.3276 17.6363 17.7847 17.7109 17.1108C17.7202 17.0266 17.7295 16.9423 17.7389 16.8581C17.7762 16.5211 17.8135 16.1654 17.8135 15.8284C17.8135 15.6225 17.8041 15.4072 17.8041 15.1919C17.7948 14.4431 17.7948 13.6755 17.6736 12.9361C17.4404 11.4478 16.172 10.3245 14.6705 10.259C14.6238 10.259 14.5772 10.259 14.5399 10.259C14.2881 10.259 14.2601 10.2684 14.2601 10.6521C14.2508 10.9985 14.2508 11.3448 14.2508 11.6911C14.2415 12.5242 14.2415 13.3854 14.1762 14.2372C14.0736 15.6974 13.6539 16.9798 12.9171 18.0749C11.9285 19.5539 10.6601 20.3027 9.05596 20.3588C8.89741 20.3682 8.72021 20.3682 8.5057 20.3682C8.35648 20.3682 8.19793 20.3682 8.0487 20.3682C7.92746 20.3682 7.79689 20.3682 7.66632 20.3682V32.05ZM23.829 34.2122C24.0342 34.2122 24.2301 34.2122 24.4352 34.2122C24.6684 34.2122 24.9016 34.2122 25.1347 34.2122C25.4705 34.2122 25.7503 34.2122 26.0114 34.2028C26.7762 34.1748 27.3171 33.6038 27.2984 32.8362C27.2798 32.1155 26.7016 31.5632 25.9554 31.5632C25.2746 31.5632 24.5845 31.5539 23.9036 31.5539C23.0363 31.5539 22.2715 31.5539 21.5534 31.5632C21.3389 31.5632 21.0964 31.6194 20.8912 31.7223C20.3782 31.9751 20.0984 32.5741 20.2197 33.1545C20.3409 33.7255 20.8259 34.156 21.3762 34.1841C21.656 34.1935 21.9544 34.2028 22.3181 34.2028C22.5606 34.2028 22.7938 34.2028 23.0363 34.2028C23.2788 34.2028 23.5119 34.2028 23.7544 34.2028H23.8477V34.2122H23.829ZM23.7264 27.6787C23.4093 27.6787 23.0922 27.6787 22.7751 27.6787C22.5979 27.6787 22.3927 27.688 22.2155 27.7442C21.5813 27.9314 21.2083 28.5398 21.3109 29.2231C21.4041 29.8409 21.9451 30.3183 22.5886 30.3183C23.2228 30.3183 23.8663 30.3276 24.5005 30.3276C25.0321 30.3276 25.5731 30.3276 26.1047 30.3276H27.0933C27.1865 30.3276 27.2705 30.3183 27.3544 30.2996C28.0259 30.1498 28.4549 29.5695 28.399 28.8768C28.343 28.2216 27.8114 27.7067 27.1399 27.688C26.8788 27.6787 26.5896 27.6787 26.2539 27.6787C26.0207 27.6787 25.7969 27.6787 25.5637 27.6787C25.3306 27.6787 25.1067 27.6787 24.8736 27.6787H24.7803V27.6693C24.6218 27.6787 23.913 27.6787 23.7264 27.6787ZM25.7596 26.4431C25.9554 26.4431 26.1513 26.4431 26.3471 26.4431C26.543 26.4431 26.7389 26.4431 26.9347 26.4431C27.2984 26.4431 27.5969 26.4431 27.8674 26.4337C28.1005 26.4337 28.315 26.3963 28.4829 26.3308C29.0611 26.1155 29.4062 25.5164 29.3036 24.8893C29.201 24.2434 28.6415 23.7847 27.9513 23.7847C27.2891 23.7847 26.6269 23.7754 25.9648 23.7754C25.2839 23.7754 24.6031 23.7754 23.913 23.7754H23.6518C22.7938 23.7754 22.2062 24.3089 22.2062 25.0952C22.1969 25.8721 22.7845 26.4244 23.6332 26.4337C23.9036 26.4337 24.1834 26.4337 24.4539 26.4337C24.6684 26.4337 24.8829 26.4337 25.0974 26.4337C25.3119 26.4337 25.5264 26.4337 25.7409 26.4337H25.7596V26.4431ZM23.4839 19.9002C23.2041 19.9002 22.915 19.9002 22.6352 19.9002C21.8611 19.9095 21.3016 20.4618 21.2922 21.2106C21.2922 21.9595 21.8611 22.5305 22.6166 22.5305C23.344 22.5398 24.0902 22.5398 24.8456 22.5398C25.5637 22.5398 26.3098 22.5398 27.056 22.5305C27.8207 22.5305 28.399 21.9595 28.399 21.22C28.399 20.4618 27.83 19.9002 27.0373 19.9002C26.7575 19.9002 26.4777 19.9002 26.1886 19.9002C25.9554 19.9002 25.7223 19.9002 25.4891 19.9002C25.2746 19.9002 25.0508 19.9002 24.8363 19.9002C24.6124 19.9002 24.3886 19.9002 24.1554 19.9002C23.9316 19.9002 23.7078 19.9002 23.4839 19.9002Z" fill="white"/>
<path id="Vector_2" d="M0.0928716 18.2714C0.316706 17.5507 0.717742 16.989 1.48251 16.7831C1.67836 16.7269 1.89287 16.7176 2.10738 16.7176C3.2452 16.7082 4.39235 16.7082 5.53018 16.7176C6.76127 16.7176 7.53536 17.4945 7.55401 18.7301C7.55401 18.8892 7.55401 19.0483 7.55401 19.2074C9.89494 19.4321 11.639 18.9828 12.6556 15.9407C12.9447 15.0795 13.0193 14.1341 13.0939 13.2168C13.1685 12.3463 13.1126 11.4664 13.1126 10.5865C13.1126 9.6505 13.6721 9.1076 14.6048 9.12632C16.7219 9.18249 18.438 10.6895 18.8483 12.8518C19.1095 14.2371 18.9882 15.6224 18.8763 17.0171C18.839 17.5039 18.7737 17.9906 18.9882 18.468C19.0815 18.6645 19.1747 18.7488 19.3986 18.7488C21.9074 18.7488 24.4069 18.7581 26.9157 18.7488C27.6058 18.7488 28.2214 18.9266 28.7437 19.3947C29.5457 20.1154 29.9468 21.5195 28.9768 22.8206C29.8815 23.3073 30.4411 24.028 30.4504 25.0951C30.4504 26.1622 29.9188 26.9017 28.9675 27.3978C29.4804 28.0811 29.6763 28.8299 29.4525 29.6536C29.2286 30.4586 28.7063 31.0109 27.9043 31.3479C28.24 31.8533 28.4452 32.3869 28.4266 32.9859C28.3799 34.2308 27.4193 35.2511 26.1789 35.3541C25.9924 35.3728 25.8058 35.3728 25.6193 35.3728C21.6649 35.3728 17.7105 35.3354 13.7654 35.3915C12.0867 35.4196 10.697 34.8861 9.46593 33.7815C8.83173 33.2106 8.41204 33.1076 7.53536 33.2667C7.53536 33.482 7.53536 33.6973 7.53536 33.9126C7.50738 35.1294 6.73329 35.897 5.52085 35.9064C4.48562 35.9064 3.45038 35.9064 2.40583 35.9064C1.03484 35.9064 0.587172 35.6068 0.0742188 34.3525C0.0742188 31.6193 0.0742188 28.8767 0.0742188 26.1341C0.242094 25.8908 0.447276 25.6942 0.764374 25.8159C1.06282 25.9188 1.11878 26.1716 1.11878 26.4711C1.10945 28.9422 1.11878 31.404 1.11878 33.8752C1.11878 34.521 1.4452 34.8486 2.0794 34.8486C3.2079 34.8486 4.3364 34.8486 5.47422 34.8486C6.14572 34.8486 6.47215 34.5397 6.47215 33.8752C6.47215 28.8299 6.47215 23.794 6.47215 18.7488C6.47215 18.0748 6.15505 17.7753 5.47422 17.7753C4.36437 17.7753 3.26386 17.7753 2.15401 17.7753C1.41722 17.7753 1.11878 18.0748 1.11878 18.8143C1.11878 20.443 1.11878 22.0624 1.11878 23.6911C1.11878 23.9906 1.10013 24.262 0.773701 24.3837C0.475255 24.5241 0.2794 24.3182 0.0928716 24.1029C0.0928716 22.156 0.0928716 20.2184 0.0928716 18.2714ZM19.3892 19.8252C19.3799 19.872 19.3613 19.8908 19.3613 19.9095C19.4545 21.6973 18.6804 23.0452 17.2348 24.028C16.983 24.1965 16.6753 24.3182 16.3861 24.4118C16.153 24.4867 15.9105 24.3557 15.8732 24.1123C15.8452 23.9251 15.9291 23.7004 16.0131 23.5132C16.0597 23.4196 16.2276 23.3822 16.3395 23.326C18.1022 22.4087 18.755 20.677 17.9903 18.8237C17.7664 18.2714 17.7291 17.7191 17.7944 17.1388C17.8411 16.7082 17.897 16.2776 17.897 15.8471C17.8784 14.883 17.9157 13.9001 17.7664 12.9454C17.5146 11.3728 16.1903 10.2589 14.6701 10.1934C14.2131 10.1747 14.1664 10.2215 14.1571 10.6801C14.1385 11.8689 14.1571 13.067 14.0732 14.2558C13.9799 15.6131 13.5975 16.9048 12.8328 18.0468C11.9281 19.3947 10.7157 20.2277 9.04624 20.2933C8.56126 20.312 8.07629 20.2933 7.57266 20.2933C7.57266 24.2714 7.57266 28.1934 7.57266 32.1435C7.9737 32.1622 8.35608 32.1528 8.72914 32.209C9.43795 32.312 9.94158 32.78 10.4545 33.2199C11.3405 33.9781 12.3385 34.3619 13.5323 34.3338C15.3602 34.287 17.1882 34.3245 19.0255 34.3245C19.1468 34.3245 19.2773 34.3245 19.4639 34.3245C19.0442 33.6037 18.9229 32.883 19.1654 32.1248C19.4172 31.3666 19.9488 30.8705 20.6763 30.5522C20.1913 29.8876 20.0328 29.1762 20.2193 28.4087C20.4058 27.6224 20.9188 27.0889 21.6183 26.7238C20.8535 25.6287 20.8628 24.5709 21.6183 23.5132C20.126 22.5959 19.8369 21.6411 20.5271 19.8252C20.1354 19.8252 19.7623 19.8252 19.3892 19.8252ZM25.7592 26.5366C26.4587 26.5366 27.1582 26.546 27.8576 26.5273C28.0721 26.5273 28.3053 26.4898 28.5105 26.4149C29.1354 26.1809 29.4991 25.5257 29.3965 24.8705C29.2846 24.1872 28.697 23.6911 27.9602 23.6817C26.524 23.6723 25.097 23.6723 23.6607 23.6817C22.7468 23.6817 22.1219 24.262 22.1219 25.0951C22.1126 25.9282 22.7374 26.5179 23.6421 26.5273C24.3416 26.546 25.0504 26.5366 25.7592 26.5366ZM24.8732 27.5943C24.1737 27.585 23.4742 27.585 22.7747 27.5943C22.5789 27.5943 22.3737 27.6037 22.1872 27.6599C21.5063 27.8658 21.1146 28.521 21.2172 29.2418C21.3105 29.897 21.8887 30.4118 22.5882 30.4212C24.0898 30.4305 25.5913 30.4212 27.1022 30.4212C27.1955 30.4212 27.2887 30.4118 27.382 30.3931C28.0908 30.234 28.5571 29.6068 28.5012 28.8767C28.4452 28.184 27.8763 27.6224 27.1582 27.6037C26.3841 27.5756 25.6286 27.5943 24.8732 27.5943ZM24.8359 19.8159C24.0991 19.8159 23.3716 19.8065 22.6348 19.8159C21.8141 19.8252 21.2079 20.4243 21.1986 21.2199C21.1986 22.0156 21.7955 22.6333 22.6162 22.6333C24.0991 22.6427 25.5727 22.6427 27.0556 22.6333C27.8856 22.624 28.4918 22.0249 28.4918 21.2293C28.4918 20.4243 27.8763 19.8159 27.0369 19.8159C26.3001 19.8065 25.5727 19.8159 24.8359 19.8159ZM23.7354 34.2964C23.7354 34.3057 23.7354 34.3057 23.7354 34.2964C24.4908 34.3057 25.2556 34.3245 26.011 34.2964C26.8411 34.2683 27.41 33.6411 27.382 32.8362C27.3633 32.0592 26.7478 31.4789 25.9457 31.4695C24.4815 31.4602 23.0079 31.4602 21.5436 31.4789C21.3105 31.4789 21.0587 31.5444 20.8442 31.6474C20.2846 31.9188 19.9955 32.5647 20.126 33.1825C20.2473 33.7815 20.7602 34.2589 21.3664 34.287C22.1499 34.3244 22.9426 34.2964 23.7354 34.2964Z" fill="white"/>
<path id="Vector_3" d="M23.0735 16.9516C22.6724 16.9516 22.2807 16.8206 21.917 16.5679C21.1895 16.053 20.8911 15.3323 21.0496 14.4243C21.1056 14.1154 21.1522 13.8066 21.1989 13.4977C21.2921 12.908 21.3947 12.2902 21.516 11.6911C21.6186 11.1669 21.4973 10.8019 21.1243 10.4555C20.7325 10.0998 20.3502 9.72543 19.9864 9.36037C19.7346 9.10764 19.4735 8.85491 19.2123 8.60218C18.4942 7.91888 18.2797 7.14196 18.5688 6.28081C18.8486 5.4571 19.4828 4.97036 20.4621 4.84867C20.9564 4.78315 21.4693 4.70827 21.9543 4.63339C22.374 4.56786 22.803 4.50234 23.232 4.44618C23.6051 4.39938 23.8476 4.21217 24.0154 3.86583C24.2113 3.45398 24.4165 3.04212 24.6217 2.63026C24.8362 2.19969 25.0507 1.75975 25.2652 1.31981C25.6849 0.439938 26.3471 0 27.2331 0C28.1098 0 28.7626 0.439938 29.1823 1.30109C29.3502 1.63807 29.518 1.9844 29.6859 2.32137C29.9284 2.80811 30.1802 3.31357 30.4134 3.81903C30.5906 4.20281 30.8517 4.39002 31.2434 4.44618C31.6818 4.50234 32.1388 4.56786 32.5678 4.64275C33.0248 4.70827 33.5004 4.78315 33.9761 4.84867C34.9647 4.97972 35.6082 5.46646 35.888 6.30889C36.1678 7.15133 35.9533 7.91888 35.2538 8.60218C34.9367 8.91108 34.6196 9.21997 34.3118 9.52886C33.9761 9.85647 33.6217 10.2028 33.2766 10.5398C32.9688 10.83 32.8569 11.1295 32.9129 11.4852C32.9408 11.6911 32.9035 11.8783 32.7916 12.0187C32.689 12.1498 32.5398 12.234 32.3626 12.2527C32.3439 12.2527 32.3253 12.2527 32.2973 12.2527C31.9802 12.2527 31.7377 12.0094 31.6818 11.6349C31.5699 10.8955 31.7844 10.2496 32.3439 9.70671C32.5305 9.5195 32.717 9.34165 32.9035 9.15445C33.3792 8.68643 33.8828 8.19969 34.3771 7.72231C34.7408 7.36661 34.8434 7.06708 34.7222 6.70203C34.6009 6.33697 34.3305 6.14977 33.8362 6.08424C33.3512 6.01872 32.8662 5.94384 32.3906 5.87831C31.9616 5.81279 31.5046 5.74727 31.0662 5.68175C30.2735 5.56942 29.6952 5.15757 29.3408 4.43682C29.2382 4.23089 29.1357 4.02496 29.0331 3.81903C28.7253 3.20125 28.4082 2.55538 28.1004 1.91888C27.8766 1.4415 27.6154 1.24493 27.2237 1.24493C26.7388 1.24493 26.5149 1.5819 26.3377 1.9376C26.0766 2.48986 25.8061 3.04212 25.5357 3.57566C25.3958 3.85647 25.2559 4.13729 25.116 4.42746C24.7616 5.15757 24.174 5.57878 23.3626 5.69111C22.7004 5.77535 22.0382 5.87831 21.3854 5.97192C21.087 6.01872 20.7885 6.05616 20.4901 6.10296C20.0797 6.15913 19.8279 6.36505 19.716 6.72075C19.6134 7.06708 19.6973 7.36661 19.9771 7.64743C20.2289 7.89079 20.4807 8.14353 20.7325 8.39625C21.1429 8.80811 21.5719 9.22933 22.0009 9.63182C22.6538 10.2402 22.887 10.9797 22.7098 11.8783C22.6072 12.4025 22.5232 12.936 22.4393 13.4509C22.374 13.844 22.3087 14.2465 22.2341 14.6396C22.1595 15.0328 22.2714 15.3229 22.5512 15.5476C22.7098 15.6693 22.8776 15.7348 23.0548 15.7348C23.2041 15.7348 23.3626 15.688 23.5305 15.6037C23.8103 15.454 24.0807 15.3136 24.3605 15.1732C24.9201 14.883 25.4984 14.5835 26.0673 14.2652C26.4496 14.0593 26.8227 13.947 27.1958 13.947C27.5595 13.947 27.9419 14.0499 28.3149 14.2558C28.7439 14.4899 29.1823 14.7239 29.6113 14.9392C29.9937 15.1451 30.3947 15.351 30.7864 15.5569C30.9916 15.6693 31.1781 15.7254 31.3367 15.7254C31.4952 15.7254 31.6538 15.6786 31.803 15.5663C32.1201 15.351 32.232 15.0328 32.1481 14.5741L32.1294 14.4992C32.1108 14.3775 32.0828 14.2465 32.0735 14.1154C32.0455 13.741 32.232 13.4789 32.5585 13.4228C32.6051 13.4134 32.6424 13.4134 32.689 13.4134C32.9875 13.4134 33.2206 13.61 33.2859 13.9282C33.3325 14.1342 33.3605 14.3495 33.3792 14.5273C33.3885 14.5928 33.3978 14.6583 33.4072 14.7145V14.7239V14.7332C33.4258 15.351 33.2206 15.922 32.8103 16.3339C32.4186 16.7363 31.8776 16.9704 31.318 16.9704C30.9916 16.9704 30.6652 16.8955 30.3574 16.7363C29.5833 16.3526 28.7626 15.922 27.7927 15.3791C27.5875 15.2668 27.3916 15.2106 27.1958 15.2106C26.9999 15.2106 26.8041 15.2668 26.5989 15.3885C26.0766 15.6786 25.5357 15.9594 25.0227 16.2309C24.7336 16.3807 24.4445 16.5304 24.1647 16.6802C23.8009 16.8487 23.4279 16.9516 23.0735 16.9516Z" fill="white"/>
<path id="Vector_4" d="M33.3518 14.6958C33.4077 16.3058 31.8222 17.3074 30.4326 16.624C29.5653 16.1935 28.7165 15.7442 27.8678 15.2668C27.4202 15.0234 27.0285 15.0234 26.5808 15.2668C25.7787 15.7161 24.958 16.1279 24.1466 16.5585C23.4005 16.9517 22.6637 16.9704 21.9735 16.4836C21.2741 15.9875 20.9943 15.2855 21.1435 14.4337C21.302 13.5258 21.4326 12.6084 21.6098 11.7005C21.7124 11.167 21.6005 10.7551 21.1901 10.3807C20.5373 9.78162 19.9217 9.13575 19.2782 8.52732C18.6254 7.90954 18.3735 7.17007 18.6627 6.29956C18.9518 5.44776 19.6046 5.03591 20.4813 4.92358C21.4046 4.8019 22.3279 4.65213 23.2513 4.52108C23.6616 4.46492 23.9321 4.25899 24.1093 3.89394C24.5197 3.04215 24.9487 2.19971 25.359 1.34792C25.7321 0.561647 26.3383 0.0936279 27.2336 0.0936279C28.1197 0.0936279 28.7165 0.561647 29.0896 1.34792C29.5 2.19035 29.9197 3.02342 30.3207 3.86586C30.5072 4.25899 30.787 4.48364 31.2254 4.53981C32.1393 4.66149 33.044 4.82062 33.958 4.93294C34.844 5.04527 35.5062 5.45712 35.7953 6.32764C36.0844 7.18879 35.814 7.90954 35.1798 8.51796C34.5176 9.15447 33.8647 9.8097 33.2026 10.4462C32.9041 10.7364 32.7456 11.0453 32.8108 11.4758C32.8668 11.8409 32.6616 12.103 32.3445 12.1311C32.0554 12.1592 31.8222 11.9439 31.7663 11.5975C31.6544 10.8674 31.8782 10.259 32.4005 9.75353C33.0813 9.08895 33.7528 8.42436 34.4336 7.76913C34.7601 7.46024 34.9559 7.11391 34.7974 6.64589C34.6388 6.18723 34.2844 6.0281 33.8368 5.96258C32.9134 5.8409 31.9901 5.69113 31.0668 5.56009C30.302 5.45712 29.7518 5.05463 29.416 4.37132C29.0057 3.54761 28.586 2.71453 28.1849 1.8721C27.9891 1.45088 27.7279 1.14199 27.215 1.14199C26.7114 1.14199 26.4596 1.4696 26.2544 1.88146C25.8533 2.71453 25.443 3.53825 25.0419 4.36196C24.6969 5.06399 24.1466 5.46648 23.3632 5.56945C22.4026 5.70049 21.4513 5.85026 20.4906 5.99066C20.0803 6.04683 19.7632 6.25275 19.6419 6.66461C19.5207 7.05775 19.6326 7.39472 19.9311 7.68489C20.6119 8.34012 21.2741 9.01406 21.9642 9.66929C22.5984 10.2684 22.8129 10.9704 22.645 11.8315C22.4678 12.7489 22.3373 13.6755 22.1694 14.5928C22.0948 15.0047 22.1974 15.3417 22.5238 15.585C22.8689 15.8471 23.2326 15.8378 23.6057 15.6412C24.4544 15.1919 25.3031 14.7613 26.1425 14.3027C26.8699 13.9002 27.5787 13.9002 28.3062 14.2933C29.1269 14.7426 29.957 15.1638 30.7777 15.6038C31.1601 15.8097 31.5238 15.8659 31.8969 15.6131C32.2886 15.3417 32.3539 14.9673 32.2792 14.5273C32.2513 14.3776 32.2233 14.2278 32.2046 14.078C32.1767 13.7504 32.3352 13.5351 32.615 13.479C32.9134 13.4228 33.1653 13.5819 33.2305 13.9095C33.2865 14.1997 33.3145 14.4992 33.3518 14.6958Z" fill="white"/>
</g>
</svg>
