<svg width="56" height="64" viewBox="0 0 56 64" fill="none" xmlns="http://www.w3.org/2000/svg">
<g id="Email_1_">
<path id="Vector" d="M55.6 27.2L49 22.6V1C49 0.4 48.6 0 48 0H8C7.4 0 7 0.4 7 1V22.6L0.4 27.2C0.2 27.4 0 27.7 0 28V59C0 61.8 2.2 64 5 64H51C53.8 64 56 61.8 56 59V28C56 27.7 55.8 27.4 55.6 27.2ZM53.3 28L49 31V25L53.3 28ZM47 2V32.4L28 45.8L9 32.4V2H47ZM7 31L2.7 28L7 25V31ZM5 62C4.5 62 4.1 61.9 3.7 61.7L16.7 48.7C17.1 48.3 17.1 47.7 16.7 47.3C16.3 46.9 15.7 46.9 15.3 47.3L2.3 60.3C2.1 59.9 2 59.5 2 59V29.9L27.4 47.8C27.6 47.9 27.8 48 28 48C28.2 48 28.4 47.9 28.6 47.8L54 29.9V59C54 59.5 53.9 59.9 53.7 60.3L40.7 47.3C40.3 46.9 39.7 46.9 39.3 47.3C38.9 47.7 38.9 48.3 39.3 48.7L52.3 61.7C51.9 61.9 51.5 62 51 62H5Z" fill="white"/>
<path id="Vector_2" d="M13 23H27C27.6 23 28 22.6 28 22V6C28 5.4 27.6 5 27 5H13C12.4 5 12 5.4 12 6V22C12 22.6 12.4 23 13 23ZM16.1 21C16.5 19.3 18.1 18 20 18C21.9 18 23.4 19.3 23.9 21H16.1ZM18 14C18 12.9 18.9 12 20 12C21.1 12 22 12.9 22 14C22 15.1 21.1 16 20 16C18.9 16 18 15.1 18 14ZM14 7H26V21H25.9C25.6 19.2 24.5 17.6 22.9 16.7C23.6 16 24 15.1 24 14C24 11.8 22.2 10 20 10C17.8 10 16 11.8 16 14C16 15.1 16.4 16 17.1 16.7C15.5 17.6 14.4 19.1 14.1 21H14V7Z" fill="white"/>
<path id="Vector_3" d="M33 7H43C43.6 7 44 6.6 44 6C44 5.4 43.6 5 43 5H33C32.4 5 32 5.4 32 6C32 6.6 32.4 7 33 7Z" fill="white"/>
<path id="Vector_4" d="M33 12H43C43.6 12 44 11.6 44 11C44 10.4 43.6 10 43 10H33C32.4 10 32 10.4 32 11C32 11.6 32.4 12 33 12Z" fill="white"/>
<path id="Vector_5" d="M33 17H43C43.6 17 44 16.6 44 16C44 15.4 43.6 15 43 15H33C32.4 15 32 15.4 32 16C32 16.6 32.4 17 33 17Z" fill="white"/>
<path id="Vector_6" d="M33 22H43C43.6 22 44 21.6 44 21C44 20.4 43.6 20 43 20H33C32.4 20 32 20.4 32 21C32 21.6 32.4 22 33 22Z" fill="white"/>
<path id="Vector_7" d="M13 27H43C43.6 27 44 26.6 44 26C44 25.4 43.6 25 43 25H13C12.4 25 12 25.4 12 26C12 26.6 12.4 27 13 27Z" fill="white"/>
<path id="Vector_8" d="M13 32H43C43.6 32 44 31.6 44 31C44 30.4 43.6 30 43 30H13C12.4 30 12 30.4 12 31C12 31.6 12.4 32 13 32Z" fill="white"/>
</g>
</svg>
