<svg width="34" height="32" viewBox="0 0 34 32" fill="none" xmlns="http://www.w3.org/2000/svg">
<g id="Group 1000001683">
<path id="Vector" d="M0 15.0977C0.156626 14.7332 0.443773 14.6117 0.835338 14.6117C3.0281 14.6204 5.22956 14.6117 7.42233 14.6204C7.66597 14.6204 7.77038 14.5509 7.8661 14.3166C8.13584 13.6656 8.4491 13.032 8.74494 12.3984C8.78845 12.3116 8.83196 12.2335 8.89287 12.1033C8.37948 12.1033 7.90091 12.1033 7.43103 12.1033C6.71751 12.1033 5.99529 12.1033 5.28177 12.1033C4.75969 12.1033 4.44643 11.8516 4.45514 11.4436C4.46384 11.0357 4.77709 10.8013 5.30788 10.8013C6.70881 10.8013 8.10974 10.7926 9.51937 10.81C9.73691 10.81 9.86743 10.7492 10.0067 10.5757C11.8775 8.31027 14.2268 6.80001 17.0896 6.09696C17.1679 6.0796 17.2549 6.04488 17.3507 6.01016C17.3507 5.51542 17.3681 5.02937 17.342 4.54331C17.3333 4.45651 17.1853 4.33499 17.0809 4.2916C15.4973 3.6493 15.1666 1.60091 16.4892 0.507276C16.9156 0.151411 17.4203 0.00385761 17.9685 0.00385761C19.4825 0.00385761 20.9879 -0.00482202 22.5019 0.00385761C23.6766 0.0125372 24.5642 0.741626 24.7643 1.85262C24.9557 2.92021 24.364 3.90969 23.2676 4.32631C23.2241 4.34367 23.1893 4.36103 23.1371 4.37839C23.1371 4.91653 23.1371 5.45467 23.1371 5.96677C23.9028 6.22715 24.6686 6.43547 25.3821 6.75661C29.9068 8.78765 32.5434 12.2682 33.3091 17.1548C33.3526 17.4239 33.3874 17.6843 33.4222 17.9533C33.4222 18.5609 33.4222 19.1685 33.4222 19.7761C33.3178 20.427 33.2308 21.078 33.0916 21.7203C32.7696 23.2219 32.1866 24.6106 31.36 25.9039C31.1163 26.2858 30.7509 26.3986 30.4202 26.199C30.0809 25.9907 30.0113 25.6001 30.2636 25.2095C31.2382 23.6645 31.856 21.9807 32.03 20.158C32.3868 16.391 31.2817 13.0841 28.5668 10.4194C22.7108 4.69086 13.0086 6.40075 9.50197 13.7958C6.19542 20.7742 10.2851 28.9504 17.9337 30.452C20.9705 31.0509 23.8332 30.5301 26.4872 28.9244C27.018 28.6033 27.3921 28.6206 27.6184 29.0025C27.8359 29.3671 27.688 29.7142 27.1833 30.0267C20.3005 34.3058 11.1117 31.346 8.04883 23.8468C7.94441 23.5951 7.83129 23.5083 7.56155 23.5083C6.22153 23.5257 4.89021 23.517 3.55019 23.517C3.41096 23.517 3.26304 23.517 3.12382 23.4909C2.81927 23.4389 2.61043 23.1698 2.61043 22.866C2.61043 22.5709 2.81056 22.3105 3.09771 22.2498C3.23693 22.2237 3.37616 22.215 3.51538 22.215C4.69878 22.215 5.88217 22.215 7.07427 22.215C7.18739 22.215 7.30921 22.215 7.44843 22.215C7.30921 21.3731 7.18739 20.5746 7.04816 19.7153C6.96115 19.7153 6.84803 19.7153 6.73491 19.7153C5.91698 19.7153 5.10774 19.7153 4.28981 19.7153C3.83733 19.7153 3.54149 19.4636 3.53278 19.0817C3.52408 18.6911 3.81993 18.4134 4.28981 18.4134C5.20346 18.4134 6.11711 18.4134 7.03076 18.4134C7.13518 17.5801 7.2396 16.7729 7.35272 15.9136C7.2396 15.9136 7.10907 15.9136 6.97855 15.9136C4.96852 15.9136 2.95849 15.9049 0.939755 15.9223C0.539489 15.9223 0.217536 15.8355 0 15.4796C0 15.3581 0 15.2279 0 15.0977ZM20.2308 3.12853C20.9618 3.12853 21.684 3.12853 22.4149 3.12853C22.5628 3.12853 22.7195 3.11985 22.8674 3.07645C23.2763 2.94625 23.5374 2.52963 23.4852 2.11301C23.4156 1.62695 23.0501 1.3058 22.5019 1.3058C20.9966 1.29712 19.4825 1.29712 17.9772 1.3058C17.3768 1.3058 16.9765 1.69639 16.9765 2.22584C16.9852 2.76398 17.3768 3.11985 17.9946 3.11985C18.7342 3.13721 19.4825 3.12853 20.2308 3.12853ZM21.771 5.74977C21.771 5.32447 21.771 4.88181 21.771 4.45651C20.7181 4.45651 19.6914 4.45651 18.6646 4.45651C18.6646 4.91653 18.6646 5.34183 18.6646 5.74977C19.7088 5.74977 20.7268 5.74977 21.771 5.74977Z" fill="white"/>
<path id="Vector_2" d="M0 22.7459C0.0472425 22.7026 0.0944851 22.6521 0.151176 22.6089C0.425183 22.3564 0.907057 22.3276 1.20941 22.5512C1.50231 22.7748 1.49286 23.1282 1.18106 23.3373C0.869263 23.5465 0.387389 23.496 0.132279 23.2291C0.0850366 23.1787 0.0472425 23.121 0.00944851 23.0705C0 22.9623 0 22.8541 0 22.7459Z" fill="white"/>
<path id="Vector_3" d="M20.2757 8.88893C25.7799 8.89748 30.2312 13.3554 30.2226 18.8573C30.2141 24.3506 25.7285 28.8171 20.2414 28.8C14.7458 28.7829 10.2945 24.2992 10.3116 18.8059C10.3287 13.3212 14.7971 8.88037 20.2757 8.88893ZM28.9386 18.8402C28.9386 14.0485 25.0608 10.1724 20.2671 10.1724C15.4819 10.1724 11.5956 14.0485 11.5956 18.8402C11.5956 23.6147 15.4905 27.5165 20.2671 27.5165C25.0437 27.5165 28.9386 23.6233 28.9386 18.8402Z" fill="white"/>
<path id="Vector_4" d="M28.4446 27.7042C28.4541 27.3105 28.7785 27.0128 29.1698 27.0224C29.561 27.032 29.8759 27.3585 29.8663 27.7426C29.8568 28.1459 29.5133 28.4628 29.1125 28.4436C28.7213 28.4244 28.435 28.1075 28.4446 27.7042Z" fill="white"/>
<path id="Vector_5" d="M18.1664 18.8487C18.1931 18.6969 18.1842 18.4915 18.2643 18.3307C18.4245 18.0181 18.291 17.8484 18.0774 17.6519C17.6948 17.2947 17.3299 16.9196 16.965 16.5444C16.6446 16.214 16.6269 15.821 16.9205 15.5352C17.1964 15.2762 17.588 15.2851 17.8994 15.5888C18.3177 15.9996 18.736 16.4194 19.1453 16.8481C19.2699 16.9821 19.3678 17.0089 19.5458 16.9374C19.9997 16.7588 20.4624 16.7588 20.9163 16.9285C21.121 17.0089 21.2278 16.9553 21.3701 16.8124C22.358 15.8121 23.3458 14.8207 24.3425 13.8293C24.4671 13.7043 24.6184 13.5971 24.7786 13.5435C25.0633 13.4542 25.3125 13.5524 25.4727 13.8025C25.6507 14.0615 25.6418 14.3384 25.4549 14.5795C25.2947 14.776 25.1078 14.9547 24.9209 15.1333C24.0577 15.9996 23.1945 16.8749 22.3224 17.7323C22.1622 17.8931 22.1177 18.0092 22.1978 18.2414C22.4647 19.0899 22.269 19.8401 21.6104 20.4296C20.9608 21.0101 20.2043 21.1352 19.4034 20.7779C18.6025 20.4296 18.2198 19.7597 18.1664 18.8487ZM20.9875 18.9202C20.9964 18.5093 20.676 18.17 20.2666 18.161C19.8662 18.1521 19.5369 18.4558 19.5191 18.8577C19.5013 19.2685 19.8128 19.6168 20.2221 19.6347C20.6137 19.6526 20.9697 19.3221 20.9875 18.9202Z" fill="white"/>
<path id="Vector_6" d="M20.9737 12.2795C20.9737 12.3694 20.9831 12.4594 20.9737 12.5576C20.9549 12.9012 20.6816 13.1384 20.3141 13.1548C19.9373 13.1711 19.6075 12.9421 19.5698 12.5985C19.551 12.3776 19.551 12.1486 19.5698 11.9277C19.6075 11.5841 19.9278 11.3551 20.3141 11.3796C20.6816 11.396 20.9454 11.6414 20.9643 11.985C20.9831 12.0749 20.9737 12.1813 20.9737 12.2795Z" fill="white"/>
<path id="Vector_7" d="M26.8766 18.1333C26.9092 18.1333 26.9337 18.1333 26.9663 18.1333C27.4555 18.1333 27.7408 18.4075 27.7327 18.8518C27.7245 19.2866 27.4392 19.5513 26.9744 19.5513C26.8358 19.5513 26.6891 19.5608 26.5505 19.5513C26.1836 19.523 25.9471 19.2204 25.9553 18.814C25.9634 18.4264 26.208 18.1617 26.5668 18.1428C26.6728 18.1333 26.7788 18.1333 26.8766 18.1333Z" fill="white"/>
<path id="Vector_8" d="M19.5599 25.4343C19.5599 25.3369 19.5504 25.2314 19.5599 25.134C19.5787 24.7931 19.8802 24.5414 20.2571 24.5333C20.6246 24.5333 20.9261 24.7606 20.9638 25.0934C20.9826 25.3125 20.9826 25.5398 20.9638 25.759C20.9261 26.0836 20.6151 26.319 20.2571 26.3109C19.8802 26.3028 19.5881 26.0512 19.5693 25.7021C19.5504 25.6129 19.5599 25.5236 19.5599 25.4343Z" fill="white"/>
<path id="Vector_9" d="M13.7005 18.1333C13.8221 18.1428 13.9438 18.1333 14.0655 18.1523C14.3575 18.1997 14.5603 18.4559 14.5766 18.7975C14.5928 19.1581 14.4143 19.4712 14.1142 19.5187C13.8465 19.5661 13.5707 19.5661 13.2949 19.5281C12.9947 19.4902 12.7919 19.1676 12.8 18.826C12.8082 18.4654 13.0353 18.1902 13.3598 18.1523C13.4733 18.1428 13.5788 18.1523 13.6924 18.1523C13.7005 18.1428 13.7005 18.1333 13.7005 18.1333Z" fill="white"/>
</g>
</svg>
