<svg width="16" height="18" viewBox="0 0 16 18" fill="none" xmlns="http://www.w3.org/2000/svg">
<g id="Group">
<path id="Vector" d="M7.80902 18C7.50902 18 7.20902 17.9 7.00902 17.6L0.209017 9.3C0.00901693 9 -0.090983 8.6 0.109017 8.2C0.309017 7.8 0.609017 7.6 1.00902 7.6H2.50902V1C2.50902 0.4 2.90902 0 3.50902 0H12.009C12.609 0 13.009 0.4 13.009 1V7.7H14.509C14.909 7.7 15.209 7.9 15.409 8.3C15.609 8.7 15.509 9.1 15.309 9.4L8.50902 17.7C8.40902 17.9 8.10902 18 7.80902 18ZM3.10902 9.7L7.80902 15.4L12.509 9.7H12.109C11.509 9.7 11.109 9.3 11.109 8.7V2H4.50902V8.7C4.50902 9.3 4.10902 9.7 3.50902 9.7H3.10902Z" fill="white"/>
</g>
</svg>
