<svg width="30" height="32" viewBox="0 0 30 32" fill="none" xmlns="http://www.w3.org/2000/svg">
<g id="Group">
<path id="Vector" d="M8.69007 32C8.5148 32 8.37139 31.8895 8.19612 31.7238C5.55903 29.1755 2.91398 26.6272 0.276888 24.0789C-0.0895959 23.7238 -0.0895959 23.4872 0.260954 23.1321C1.2409 22.1302 2.22881 21.1361 3.20876 20.1341L3.3442 19.9921C3.90189 19.424 4.38788 19.1716 4.89777 19.1716C5.28018 19.1716 5.6865 19.3057 6.20436 19.6134C6.24419 19.5582 6.28403 19.5029 6.3398 19.4477C6.80985 18.9822 7.27991 18.5089 7.74996 18.0434C8.48293 17.3096 9.2398 16.5601 9.98073 15.8106C10.4269 15.3609 10.9368 15.14 11.5343 15.14C11.5821 15.14 11.6299 15.14 11.6777 15.14C12.8489 15.2031 14.036 15.2662 15.1912 15.3294C16.4261 15.3925 17.7008 15.4635 18.9516 15.5345C19.8838 15.5897 20.6167 16.3313 20.6964 17.3096C20.6964 17.3333 20.6964 17.3491 20.7044 17.3728C20.8159 17.2544 20.9274 17.144 20.9991 17.0177C21.4214 16.3313 21.8357 15.6292 22.242 14.9428C22.5527 14.4142 22.8714 13.8856 23.1901 13.3649C23.5566 12.7495 24.1541 12.4023 24.8233 12.4023C25.0145 12.4023 25.2137 12.4339 25.4049 12.497C25.9148 12.6548 26.3132 13.0019 26.5442 13.4674C26.7752 13.9329 26.7991 14.4536 26.6079 14.9507C26.6398 14.9507 26.6637 14.9428 26.6956 14.9428C26.8469 14.927 27.0063 14.9112 27.1656 14.9112C27.2772 14.9112 27.3807 14.9191 27.4763 14.9349C28.1535 15.0611 28.6873 15.5187 28.9024 16.1578C29.1255 16.8126 28.9662 17.5069 28.4881 18.0276C27.7313 18.856 26.9425 19.6844 26.1857 20.4812C25.8511 20.8363 25.5164 21.1834 25.1818 21.5384C25.1659 21.5542 25.15 21.57 25.134 21.5858C25.1101 21.6094 25.0783 21.641 25.0623 21.6647C24.4887 22.4536 23.6681 22.6588 22.9431 22.7534C20.4972 23.0848 18.0115 23.4556 15.6055 23.8185L15.3585 23.858C15.1673 23.8895 14.9601 23.9763 14.8327 24.0947C14.2909 24.568 13.7491 25.0651 13.2313 25.5542C13.064 25.7041 12.9046 25.854 12.7373 26.0118C13.2472 27.0059 13.1197 27.716 12.323 28.5286C11.2714 29.5937 10.2197 30.6666 9.1681 31.7317C9.01672 31.8895 8.86535 32 8.69007 32ZM8.68211 30.7929C8.96095 30.5089 9.2398 30.2327 9.51068 29.9487C10.2835 29.1676 11.0722 28.3629 11.8371 27.5582C12.1557 27.2268 12.1079 26.7298 11.7255 26.359C9.57442 24.2682 7.57469 22.3432 5.63073 20.4733C5.41562 20.2682 5.19255 20.1657 4.96947 20.1657C4.73046 20.1657 4.48348 20.284 4.25244 20.5128C3.92579 20.8442 3.59914 21.1755 3.27249 21.5069C3.11315 21.6647 2.95381 21.8304 2.79447 21.9881L1.22496 23.5897L8.68211 30.7929ZM12.0522 25.2702L12.5541 24.8126C13.064 24.3471 13.5659 23.8895 14.0599 23.424C14.4024 23.1085 14.7769 22.927 15.2071 22.8639C16.1791 22.7219 17.1511 22.5799 18.123 22.4378C19.7244 22.2012 21.3816 21.9566 23.0148 21.7278C23.5566 21.6489 23.9151 21.4674 24.2019 21.1282C24.4568 20.8284 24.7277 20.5444 24.9986 20.2682C25.1181 20.142 25.2376 20.0158 25.3571 19.8895C25.5882 19.6449 25.8112 19.4083 26.0423 19.1637C26.6 18.572 27.1736 17.9645 27.7313 17.3649C27.9544 17.1203 28.042 16.8126 27.9623 16.5207C27.8906 16.2446 27.6914 16.0315 27.4126 15.9369C27.309 15.8974 27.2055 15.8816 27.1099 15.8816C26.8708 15.8816 26.6478 15.9842 26.4247 16.2051C25.9307 16.6864 25.4368 17.1676 24.9428 17.6489C24.417 18.1617 23.8912 18.6745 23.3653 19.1874C22.967 19.5818 22.5049 19.7791 21.9552 19.7948C21.5648 19.8027 21.1585 19.8264 20.7761 19.8422C20.3458 19.858 19.8917 19.8816 19.4535 19.8895C18.7763 19.9053 18.0912 19.9132 17.4299 19.9132C17.1351 19.9132 16.8483 19.9211 16.5535 19.9211H16.4898C16.2906 19.9211 16.1472 19.8737 16.0516 19.7712C15.964 19.6844 15.9241 19.5582 15.9241 19.4083C15.9321 19.1085 16.1392 18.9349 16.4818 18.9349H16.9917C17.2307 18.9349 17.4777 18.9349 17.7167 18.9349C18.0274 18.9349 18.3461 18.9349 18.6568 18.9349C19.2464 18.927 19.581 18.6272 19.6368 18.0434C19.6447 17.9881 19.6447 17.9408 19.6527 17.8856C19.6607 17.8225 19.6686 17.7593 19.6766 17.6962C19.7085 17.3018 19.6527 17.0256 19.4854 16.8363C19.3261 16.6548 19.0632 16.5522 18.6887 16.5286C18.1151 16.4891 17.5335 16.4655 16.9678 16.4339C16.7288 16.426 16.4898 16.4102 16.2588 16.4023C15.8684 16.3866 15.486 16.3629 15.0956 16.3392C13.9324 16.2761 12.7294 16.213 11.5502 16.1735C11.5423 16.1735 11.5343 16.1735 11.5263 16.1735C11.2873 16.1735 11.0085 16.2682 10.873 16.3945C9.82139 17.3885 8.76974 18.4142 7.74996 19.4083C7.46315 19.6923 7.16837 19.9763 6.88156 20.2603L12.0522 25.2702ZM24.8313 13.3964C24.5126 13.3964 24.2258 13.5858 24.0266 13.925C23.8035 14.2958 23.5805 14.6745 23.3574 15.0453C22.8714 15.8737 22.3615 16.7258 21.8436 17.5463C21.7241 17.7357 21.4055 18.1854 20.9434 18.3826C20.6884 18.4852 20.545 18.6272 20.4414 18.8718C20.545 18.8639 20.6486 18.856 20.7522 18.856C21.2381 18.8244 21.7002 18.8008 22.1703 18.7455C22.2818 18.7298 22.4332 18.643 22.5766 18.5167C23.1024 18.0197 23.6283 17.5069 24.1461 17.0098L24.5604 16.6075C24.6002 16.568 24.648 16.5207 24.6719 16.4734C24.7596 16.3077 24.8472 16.1499 24.9349 15.9842C25.1739 15.5424 25.4208 15.0848 25.636 14.6193C25.7475 14.3747 25.7475 14.0986 25.62 13.8698C25.4846 13.6252 25.2456 13.4595 24.9588 13.4122C24.9189 13.4043 24.8791 13.3964 24.8313 13.3964Z" fill="white"/>
<path id="Vector_2" d="M12.5538 25.9645C13.0955 26.9507 12.9999 27.6213 12.2271 28.4024C11.1755 29.4675 10.1238 30.5405 9.07218 31.6056C8.76944 31.9132 8.634 31.9132 8.31532 31.6134C5.67026 29.0651 3.03317 26.5168 0.396085 23.9685C0.0933375 23.6766 0.0933375 23.5424 0.380151 23.2426C1.4079 22.1933 2.43565 21.1519 3.47136 20.1026C4.39554 19.1637 5.0807 19.0848 6.25982 19.8265C6.31559 19.7476 6.37933 19.6371 6.459 19.5582C7.66999 18.3432 8.88894 17.1361 10.0999 15.9211C10.5381 15.4793 11.048 15.2663 11.6694 15.3058C14.0914 15.4399 16.5214 15.5582 18.9433 15.6923C19.8038 15.7397 20.465 16.434 20.5367 17.3255C20.5447 17.4202 20.5447 17.5148 20.5527 17.6095C20.5845 17.6332 20.6084 17.6489 20.6403 17.6726C20.8076 17.4833 21.0068 17.3097 21.1422 17.0967C21.8832 15.8817 22.6002 14.6588 23.3332 13.4438C23.7793 12.7022 24.584 12.3945 25.3648 12.6391C26.3208 12.9468 26.8227 13.9566 26.4722 14.8876C26.4403 14.9744 26.4005 15.0612 26.3766 15.1164C26.7431 15.1006 27.1175 15.0138 27.4601 15.077C28.7986 15.3294 29.3084 16.8994 28.3843 17.9093C27.3008 19.0927 26.1854 20.2525 25.0859 21.4202C25.0381 21.4675 24.9903 21.5069 24.9505 21.5622C24.4565 22.2407 23.7554 22.4773 22.9428 22.5878C20.4093 22.9271 17.8837 23.3136 15.3582 23.6923C15.1431 23.7239 14.912 23.8265 14.7527 23.9685C14.0038 24.6154 13.2867 25.2939 12.5538 25.9645ZM12.0519 25.4833C12.7689 24.8205 13.47 24.1815 14.1711 23.5345C14.4738 23.2584 14.8164 23.077 15.2307 23.0138C17.8359 22.6351 20.4411 22.2407 23.0464 21.8699C23.5642 21.7989 23.9944 21.6253 24.337 21.215C24.6955 20.789 25.1019 20.3945 25.4843 19.9843C26.273 19.1401 27.0697 18.3117 27.8584 17.4596C28.3922 16.8837 28.1931 16.0237 27.476 15.7791C27.0299 15.6292 26.6554 15.7633 26.3208 16.0868C25.301 17.0809 24.2733 18.0671 23.2535 19.0691C22.887 19.4241 22.4648 19.6134 21.9469 19.6292C21.1104 19.6529 20.2818 19.7081 19.4453 19.7239C18.4813 19.7476 17.5172 19.7476 16.5532 19.7555C16.5293 19.7555 16.5134 19.7555 16.4895 19.7555C16.2505 19.7555 16.0752 19.6608 16.0832 19.4004C16.0911 19.1559 16.2584 19.077 16.4815 19.077C17.2065 19.077 17.9315 19.0848 18.6645 19.077C19.3417 19.0691 19.74 18.7061 19.8038 18.0434C19.8117 17.9251 19.8277 17.8067 19.8436 17.6884C19.9153 16.8363 19.5648 16.4024 18.7123 16.3472C17.8997 16.2919 17.087 16.2604 16.2744 16.2209C14.7049 16.142 13.1354 16.0474 11.5659 16C11.303 15.9921 10.9604 16.0947 10.7692 16.2683C9.39087 17.5701 8.03647 18.9113 6.65817 20.2525C8.48262 22.0355 10.2593 23.7555 12.0519 25.4833ZM8.68977 31.0138C9.79718 29.8856 10.8966 28.789 11.9642 27.6608C12.3466 27.2584 12.2829 26.6588 11.8527 26.2407C9.82108 24.2762 7.78949 22.3117 5.7579 20.3472C5.24801 19.858 4.66641 19.8817 4.15652 20.3866C3.67054 20.8758 3.18455 21.3728 2.70652 21.862C2.14883 22.43 1.59114 22.9981 1.01751 23.5819C3.57493 26.075 6.12438 28.5365 8.68977 31.0138ZM20.2181 19.0454C20.8873 18.9981 21.5406 18.9744 22.1939 18.9034C22.3692 18.8876 22.5604 18.7535 22.6958 18.6273C23.365 17.9961 24.0183 17.357 24.6796 16.718C24.7354 16.6628 24.7911 16.6075 24.823 16.5444C25.1497 15.929 25.4922 15.3136 25.787 14.6825C26.0818 14.0513 25.6755 13.357 24.9903 13.2466C24.5601 13.1756 24.1617 13.3886 23.8909 13.8383C23.1659 15.0454 22.4648 16.2683 21.7159 17.4596C21.5167 17.7752 21.2219 18.0908 20.8873 18.2328C20.4969 18.4063 20.3296 18.6509 20.2181 19.0454Z" fill="white"/>
<path id="Vector_3" d="M17.2143 14.4142C15.2783 14.4142 13.4539 13.6568 12.0756 12.2919C10.6973 10.927 9.94043 9.11243 9.94043 7.19527C9.9484 3.22682 13.2149 0 17.2223 0C19.1663 0 20.9907 0.749507 22.361 2.1144C23.7393 3.48718 24.4962 5.30967 24.4882 7.2426C24.4803 11.1953 21.2217 14.4142 17.2143 14.4142ZM17.2223 1.00986C13.7805 1.00986 10.9682 3.77909 10.9602 7.17949C10.9522 10.6036 13.7407 13.3964 17.1904 13.4043H17.2143C18.8954 13.4043 20.4649 12.7653 21.644 11.5976C22.8231 10.43 23.4764 8.87574 23.4844 7.21894C23.4924 3.80276 20.6959 1.02564 17.2462 1.00986H17.2223Z" fill="white"/>
<path id="Vector_4" d="M10.1006 7.19531C10.1086 3.31365 13.3033 0.157837 17.2311 0.157837C21.1668 0.157837 24.3457 3.33732 24.3377 7.24265C24.3297 11.1085 21.127 14.2565 17.2152 14.2565C13.3033 14.2565 10.0926 11.077 10.1006 7.19531ZM23.6366 7.21898C23.6446 3.70813 20.7924 0.867896 17.2391 0.852117C13.6937 0.844227 10.8097 3.67657 10.7937 7.17953C10.7858 10.6904 13.6459 13.5543 17.1753 13.5622C20.7525 13.578 23.6286 10.7456 23.6366 7.21898Z" fill="white"/>
<path id="Vector_5" d="M5.25666 25.712C4.20501 25.7041 3.35254 24.8442 3.35254 23.8027C3.35254 22.7534 4.22095 21.9014 5.28853 21.9014H5.30446C6.37204 21.9093 7.20858 22.7455 7.20858 23.8106C7.20858 24.8757 6.35611 25.712 5.28056 25.712H5.25666ZM5.28056 22.9033C4.77067 22.9033 4.37232 23.2978 4.37232 23.8027C4.37232 24.3077 4.77067 24.71 5.28056 24.71C5.79045 24.71 6.20474 24.3077 6.20474 23.8106C6.20474 23.3215 5.78248 22.9033 5.28056 22.9033Z" fill="white"/>
<path id="Vector_6" d="M5.25656 25.5542C4.28458 25.5463 3.50381 24.7653 3.51178 23.8027C3.51178 22.8244 4.30848 22.0513 5.30436 22.0591C6.28431 22.067 7.04914 22.8402 7.04914 23.8106C7.04117 24.7968 6.25244 25.5621 5.25656 25.5542ZM4.21288 23.8027C4.21288 24.4023 4.68293 24.8678 5.28046 24.8678C5.87002 24.8678 6.36398 24.3944 6.36398 23.8106C6.36398 23.2268 5.87799 22.7455 5.28843 22.7376C4.6909 22.7376 4.21288 23.211 4.21288 23.8027Z" fill="white"/>
<path id="Vector_7" d="M16.0677 11.5266C15.8925 11.5266 15.757 11.4793 15.6614 11.3846C15.5578 11.2821 15.51 11.1401 15.51 10.9428C15.51 10.4537 15.51 9.95662 15.51 9.47536V8.68641H14.2592C13.9405 8.68641 13.6219 8.68641 13.3111 8.68641C12.7375 8.68641 12.6339 8.45761 12.626 8.02368C12.626 7.35307 12.626 6.69824 12.626 6.05919C12.626 5.56215 12.7774 5.41225 13.2793 5.40436C13.598 5.40436 13.9246 5.40436 14.2433 5.40436H15.4941C15.4941 5.33335 15.5021 5.26234 15.5021 5.19923V4.78108C15.5021 4.24459 15.5021 3.68443 15.5021 3.14006C15.5021 2.95071 15.5499 2.80081 15.6534 2.69824C15.757 2.59568 15.9004 2.54834 16.0916 2.54834H16.6095C16.8485 2.54834 17.0875 2.54834 17.3186 2.54834C17.6133 2.54834 17.9081 2.54834 18.2029 2.54834C18.6331 2.55623 18.8164 2.73769 18.8164 3.1795C18.8164 3.66077 18.8164 4.14203 18.8164 4.6154V5.40436H20.5133C20.7284 5.40436 20.9436 5.40436 21.1507 5.40436C21.4853 5.40436 21.6845 5.5937 21.6845 5.90929C21.6925 6.72191 21.6925 7.45564 21.6845 8.1657C21.6845 8.49706 21.4694 8.68641 21.0949 8.68641H18.8164V10.1223C18.8164 10.2091 18.8164 10.288 18.8164 10.3748C18.8164 10.5799 18.8164 10.785 18.8164 10.998C18.8084 11.3294 18.6013 11.5345 18.2746 11.5345C17.9241 11.5345 17.5815 11.5345 17.2309 11.5345L16.0677 11.5266ZM17.7966 10.5089C17.7966 10.4458 17.8045 10.3905 17.8045 10.3353C17.8045 10.0592 17.8045 9.79094 17.8045 9.51481C17.8045 9.12033 17.8045 8.73374 17.8045 8.33927C17.8045 7.858 17.9878 7.68443 18.4578 7.67655C18.6252 7.67655 18.7925 7.67655 18.9598 7.67655H19.7246H20.6567V6.39055H18.5774C17.94 6.39055 17.7966 6.25643 17.7966 5.62526C17.7966 5.11244 17.7966 3.55031 17.7966 3.55031H16.5059V4.35505C16.5059 4.79686 16.5059 5.24656 16.5059 5.68838C16.5059 6.22487 16.3545 6.37477 15.8208 6.38266C15.6056 6.38266 15.3985 6.38266 15.1834 6.38266H13.6458V7.66077H14.8727C15.1993 7.66077 15.518 7.66077 15.8447 7.66077C16.3306 7.66077 16.498 7.83434 16.5059 8.3156C16.5059 8.66274 16.5059 9.01777 16.5059 9.36491C16.5059 9.64104 16.5059 9.90929 16.5059 10.1854C16.5059 10.288 16.5139 10.3905 16.5219 10.4931H17.7966V10.5089Z" fill="white"/>
<path id="Vector_8" d="M15.6692 8.52863C14.8486 8.52863 14.0758 8.52863 13.311 8.52863C12.8887 8.52863 12.7931 8.43395 12.7852 8.0237C12.7852 7.36887 12.7852 6.71403 12.7852 6.0592C12.7852 5.64105 12.8648 5.56216 13.2791 5.56216C14.0599 5.56216 14.8407 5.56216 15.6533 5.56216C15.6613 5.42804 15.6692 5.31758 15.6692 5.19924C15.6692 4.51285 15.6772 3.82646 15.6692 3.14007C15.6692 2.84027 15.8047 2.70614 16.0994 2.70614C16.8005 2.70614 17.5096 2.69825 18.2107 2.70614C18.5613 2.70614 18.6648 2.82449 18.6648 3.18741C18.6648 3.86591 18.6648 4.53652 18.6648 5.21502C18.6648 5.31758 18.6648 5.42804 18.6648 5.57005C19.1667 5.57005 19.6448 5.57005 20.1148 5.57005C20.4654 5.57005 20.808 5.57005 21.1585 5.57005C21.3896 5.57005 21.533 5.6805 21.533 5.91719C21.5409 6.6667 21.5409 7.4162 21.533 8.1736C21.533 8.44973 21.3497 8.53652 21.1027 8.53652C20.4176 8.53652 19.7404 8.53652 19.0552 8.53652C18.9357 8.53652 18.8242 8.53652 18.6648 8.53652C18.6648 9.08879 18.6648 9.6095 18.6648 10.1302C18.6648 10.4221 18.6728 10.7061 18.6648 10.9981C18.6569 11.2426 18.5294 11.3768 18.2824 11.3768C17.5494 11.3768 16.8085 11.3768 16.0755 11.3768C15.7887 11.3768 15.6772 11.219 15.6772 10.9428C15.6852 10.2564 15.6772 9.57005 15.6772 8.88366C15.6692 8.7732 15.6692 8.67064 15.6692 8.52863ZM16.3624 3.40042C16.3624 3.53455 16.3624 3.65289 16.3624 3.77123C16.3624 4.41817 16.3624 5.05723 16.3624 5.70417C16.3624 6.16176 16.2827 6.23277 15.8365 6.24066C15.3027 6.24066 14.7769 6.24066 14.2431 6.24066C13.9961 6.24066 13.7492 6.24066 13.5022 6.24066C13.5022 6.79293 13.5022 7.30575 13.5022 7.83435C14.3069 7.83435 15.0797 7.83435 15.8604 7.83435C16.2588 7.83435 16.3624 7.93691 16.3624 8.33139C16.3703 8.95466 16.3624 9.57794 16.3624 10.2012C16.3624 10.359 16.3783 10.5089 16.3863 10.6667C16.928 10.6667 17.4299 10.6667 17.9558 10.6667C17.9637 10.5405 17.9717 10.4379 17.9717 10.3353C17.9717 9.67261 17.9717 9.002 17.9717 8.33928C17.9717 7.95269 18.0832 7.83435 18.4736 7.83435C18.8959 7.83435 19.3181 7.83435 19.7404 7.83435C20.1069 7.83435 20.4733 7.83435 20.8319 7.83435C20.8319 7.28208 20.8319 6.77715 20.8319 6.24066C20.067 6.24066 19.3341 6.24066 18.5931 6.24066C18.0354 6.24066 17.9717 6.17754 17.9717 5.63317C17.9717 4.89944 17.9717 4.15782 17.9717 3.40042C17.4299 3.40042 16.92 3.40042 16.3624 3.40042Z" fill="white"/>
</g>
</svg>
