<svg width="16" height="18" viewBox="0 0 16 18" fill="none" xmlns="http://www.w3.org/2000/svg">
<path id="Vector" d="M15 18C15.6 18 16 17.6 16 17V1C16 0.4 15.6 0 15 0H1C0.4 0 0 0.4 0 1V17C0 17.6 0.4 18 1 18H15ZM4.1 16C4.5 14.3 6.1 13 8 13C9.9 13 11.4 14.3 11.9 16H4.1ZM6 9C6 7.9 6.9 7 8 7C9.1 7 10 7.9 10 9C10 10.1 9.1 11 8 11C6.9 11 6 10.1 6 9ZM2 2H14V16H13.9C13.6 14.2 12.5 12.6 10.9 11.7C11.6 11 12 10.1 12 9C12 6.8 10.2 5 8 5C5.8 5 4 6.8 4 9C4 10.1 4.4 11 5.1 11.7C3.5 12.6 2.4 14.1 2.1 16H2V2Z" fill="white"/>
</svg>
