<svg width="64" height="60" viewBox="0 0 64 60" fill="none" xmlns="http://www.w3.org/2000/svg">
<g id="Contract_1_">
<path id="Vector" d="M4 52C2.9 52 2 51.1 2 50V4C2 2.9 2.9 2 4 2H40C41.1 2 42 2.9 42 4C42 4.6 42.4 5 43 5C43.6 5 44 4.6 44 4C44 1.8 42.2 0 40 0H4C1.8 0 0 1.8 0 4V50C0 52.2 1.8 54 4 54C4.6 54 5 53.6 5 53C5 52.4 4.6 52 4 52Z" fill="white"/>
<path id="Vector_2" d="M49 47.2C48.4 47.2 48 47.6 48 48.2V56C48 57.1 47.1 58 46 58H10C8.9 58 8 57.1 8 56V10C8 8.9 8.9 8 10 8H46C47.1 8 48 8.9 48 10V29.8C48 30.4 48.4 30.8 49 30.8C49.6 30.8 50 30.4 50 29.8V10C50 7.8 48.2 6 46 6H10C7.8 6 6 7.8 6 10V56C6 58.2 7.8 60 10 60H46C48.2 60 50 58.2 50 56V48.2C50 47.7 49.6 47.2 49 47.2Z" fill="white"/>
<path id="Vector_3" d="M11 29H25C25.6 29 26 28.6 26 28V12C26 11.4 25.6 11 25 11H11C10.4 11 10 11.4 10 12V28C10 28.6 10.4 29 11 29ZM14.1 27C14.5 25.3 16.1 24 18 24C19.9 24 21.4 25.3 21.9 27H14.1ZM16 20C16 18.9 16.9 18 18 18C19.1 18 20 18.9 20 20C20 21.1 19.1 22 18 22C16.9 22 16 21.1 16 20ZM12 13H24V27H23.9C23.6 25.2 22.5 23.6 20.9 22.7C21.6 22 22 21.1 22 20C22 17.8 20.2 16 18 16C15.8 16 14 17.8 14 20C14 21.1 14.4 22 15.1 22.7C13.5 23.6 12.4 25.1 12.1 27H12V13Z" fill="white"/>
<path id="Vector_4" d="M45 12C45 11.4 44.6 11 44 11H30C29.4 11 29 11.4 29 12V18C29 18.6 29.4 19 30 19H44C44.6 19 45 18.6 45 18V12ZM43 17H31V13H43V17Z" fill="white"/>
<path id="Vector_5" d="M44 22H30C29.4 22 29 22.4 29 23C29 23.6 29.4 24 30 24H44C44.6 24 45 23.6 45 23C45 22.4 44.6 22 44 22Z" fill="white"/>
<path id="Vector_6" d="M44 27H30C29.4 27 29 27.4 29 28C29 28.6 29.4 29 30 29H44C44.6 29 45 28.6 45 28C45 27.4 44.6 27 44 27Z" fill="white"/>
<path id="Vector_7" d="M45 33C45 32.4 44.6 32 44 32H11C10.4 32 10 32.4 10 33C10 33.6 10.4 34 11 34H44C44.6 34 45 33.6 45 33Z" fill="white"/>
<path id="Vector_8" d="M33 37H11C10.4 37 10 37.4 10 38C10 38.6 10.4 39 11 39H33C33.6 39 34 38.6 34 38C34 37.4 33.6 37 33 37Z" fill="white"/>
<path id="Vector_9" d="M34 43C34 42.4 33.6 42 33 42H11C10.4 42 10 42.4 10 43C10 43.6 10.4 44 11 44H33C33.6 44 34 43.6 34 43Z" fill="white"/>
<path id="Vector_10" d="M61.4 33L62.7 31.7C63.6 30.8 64 29.7 64 28.5C64 26 62 24 59.5 24C58.3 24 57.1 24.5 56.3 25.3L37.3 44.3C37.2 44.4 37.1 44.6 37.1 44.7L35.1 51.7C35 52 35.1 52.4 35.4 52.7C35.6 52.9 35.8 53 36.1 53C36.2 53 36.3 53 36.4 53L43.4 51C43.5 51 43.7 50.8 43.8 50.7L60 34.4L61.6 36L53.3 44.3C52.9 44.7 52.9 45.3 53.3 45.7C53.5 45.9 53.8 46 54 46C54.2 46 54.5 45.9 54.7 45.7L63.7 36.7C64.1 36.3 64.1 35.7 63.7 35.3L61.4 33ZM57.7 26.7C58.2 26.2 58.8 26 59.5 26C60.9 26 62 27.1 62 28.5C62 29.2 61.7 29.8 61.3 30.3L60 31.6L56.4 28L57.7 26.7ZM37.5 50.5L38.5 46.9L41.1 49.5L37.5 50.5ZM43 48.6L39.4 45L55 29.4L58.6 33L43 48.6Z" fill="white"/>
<path id="Vector_11" d="M24.3999 50.1C19.9999 48.2 17.0999 50.9 16.0999 52.5C15.7999 53 15.9999 53.6 16.4999 53.9C16.9999 54.2 17.5999 54 17.8999 53.5C18.0999 53.2 19.8999 50.3 23.5999 51.9C27.8999 53.7 30.4999 54 31.4999 54C31.7999 54 31.9999 54 32.0999 54C32.5999 53.9 32.9999 53.4 32.8999 52.9C32.7999 52.4 32.2999 52 31.7999 52C31.7999 52 29.4999 52.3 24.3999 50.1Z" fill="white"/>
</g>
</svg>
