<svg width="74" height="66" viewBox="0 0 74 66" fill="none" xmlns="http://www.w3.org/2000/svg">
<g id="Group">
<path id="Vector" d="M1.53277 65.8855C0.785547 65.8855 0.344874 65.7137 0 65.3129V64.5304C0.421513 64.225 0.59395 63.786 0.574791 63.1371C0.536471 62.2782 0.555631 61.4384 0.574791 60.5032C0.59395 59.5298 1.1879 58.919 2.12673 58.9C2.75899 58.8809 3.41042 58.8809 4.06185 58.8809C4.69412 58.8809 5.36471 58.8809 5.99698 58.9C6.93581 58.919 7.54892 59.5489 7.56808 60.5032C7.58724 61.2476 7.58724 61.9728 7.56808 62.7554C7.56808 63.0989 7.56808 63.4425 7.56808 63.786V63.8814H9.08169V60.5414C9.08169 58.461 9.08169 56.3806 9.08169 54.3002C9.08169 52.8687 9.63732 52.2961 11.0743 52.2961C11.6491 52.2961 12.2239 52.2961 12.7795 52.2961C13.2585 52.2961 13.7375 52.2961 14.2356 52.2961C15.5577 52.2961 16.1133 52.8687 16.1133 54.1666C16.1133 56.2279 16.1133 58.3274 16.1133 60.3505V63.8814H17.8377C17.8377 63.8814 17.8377 62.011 17.8377 61.4957C17.8377 60.3314 17.8377 59.129 17.8377 57.9456C17.8377 56.7623 18.4508 56.1515 19.6387 56.1325C20.2326 56.1325 20.8266 56.1325 21.4205 56.1325C21.9762 56.1325 22.5318 56.1325 23.0874 56.1325C24.2562 56.1325 24.831 56.7241 24.8501 57.8884C24.8693 59.0717 24.8501 60.2933 24.8501 61.4575C24.8501 61.9537 24.8501 63.9005 24.8501 63.9005H26.881C27.4175 63.9005 27.954 63.9005 28.4713 63.9005C28.5479 63.9005 28.6054 63.9005 28.6629 63.9005C28.7204 63.9005 28.7778 63.9005 28.8545 63.9005C28.9886 63.9005 29.161 63.9005 29.2568 63.9769C29.4868 64.1677 29.8699 64.5495 29.9466 64.9312C30.0232 65.4274 29.6209 65.7328 29.1994 65.8092C29.0269 65.8473 28.8545 65.8473 28.6821 65.8473H28.433H19.4662C13.7183 65.8855 7.6064 65.8855 1.53277 65.8855ZM2.54824 63.8814H5.53715V60.8849H2.54824V63.8814ZM11.0935 63.8814H14.0632V54.3193H11.0935V63.8814ZM19.8303 63.8814H22.8383V58.1365H19.8303V63.8814Z" fill="white"/>
<path id="Vector_2" d="M60.7744 63.2897C59.9313 63.2897 59.1266 62.9271 58.4369 62.24C55.5438 59.358 52.5932 56.4378 49.7576 53.5939L48.7421 52.5824C48.608 52.4488 48.5122 52.3152 48.3972 52.1816C48.3589 52.1243 48.3014 52.0671 48.2631 52.0098L48.2248 51.9525L48.1673 51.9716C47.7266 52.1625 47.3051 52.3533 46.9028 52.5442C46.0214 52.945 45.1784 53.3458 44.297 53.6321C41.8254 54.4719 39.3347 54.8918 36.9206 54.8918C33.1269 54.8918 29.3908 53.8421 25.7696 51.7808C25.5205 51.6472 25.3098 51.5136 25.1565 51.3418C24.8116 50.9791 24.7733 50.5592 25.0607 50.1584C25.2715 49.8531 25.5205 49.7195 25.8079 49.7195C25.9229 49.7195 26.057 49.7385 26.1911 49.7958C26.3636 49.8721 26.536 49.9676 26.7084 50.063L26.8042 50.1203C29.889 51.9525 33.3952 52.9068 36.978 52.9068C43.6648 52.9068 49.8917 49.6049 53.6086 44.089C57.3639 38.4968 57.9962 31.454 55.2947 25.251C52.5932 19.0289 46.9986 14.6582 40.3118 13.5702C39.2197 13.3985 38.1085 13.303 37.0164 13.303C26.9575 13.303 18.4698 20.7848 17.2436 30.7096C16.5538 36.3782 18.1249 41.5315 21.9568 46.0549C22.0335 46.1503 22.1101 46.2267 22.1868 46.3221C22.3017 46.4366 22.4167 46.5702 22.5125 46.7038C22.8957 47.2001 22.8765 47.7345 22.455 48.1162C22.2634 48.288 22.0143 48.3834 21.7844 48.3834C21.497 48.3834 21.2479 48.2498 21.0563 48.0017C20.8073 47.6772 20.539 47.3528 20.29 47.0283C19.4278 45.9213 18.5273 44.7952 17.8375 43.5737C14.5612 37.5997 14.2547 30.6333 16.9562 24.4494C19.6768 18.2273 25.0607 13.7038 31.7091 12.0052C33.4527 11.5662 35.2345 11.3372 37.0164 11.3372C47.7075 11.3372 56.9616 19.2388 58.571 29.6981C59.3182 34.5841 58.5135 39.2602 56.176 43.6119C56.1186 43.7073 56.0802 43.8027 56.0228 43.9363C55.9845 43.9936 55.8886 44.2036 55.8886 44.2036L55.9461 44.2608C56.2335 44.5471 56.5209 44.8334 56.8275 45.1197C57.613 45.8831 58.4177 46.6848 59.1841 47.4864C59.414 47.7345 59.6439 48.1353 59.6248 48.4598C59.6056 48.727 59.2991 49.1469 59.0692 49.2041C58.9925 49.2232 58.8967 49.2423 58.8009 49.2423C58.4944 49.2423 58.1687 49.1469 57.9962 48.9942C57.3639 48.4407 56.7508 47.8108 56.1569 47.2192C55.9078 46.971 55.6779 46.742 55.4288 46.4939C55.3139 46.3794 55.1797 46.2649 55.0839 46.1694L54.9115 46.0167L49.9108 50.9982L49.9683 51.0746L50.0066 51.1318C50.0833 51.2082 50.1791 51.3418 50.3132 51.4563C53.4171 54.5483 56.5018 57.6402 59.6056 60.7131C60.0846 61.1902 60.4103 61.3811 60.7552 61.3811C61.0809 61.3811 61.4258 61.1902 61.9048 60.7131L62.0772 60.5413C62.9586 59.6633 63.8591 58.7663 64.7404 57.8692C65.4877 57.1249 65.4685 56.5332 64.7213 55.7698C64.1848 55.2354 63.6483 54.7009 63.1119 54.1665C62.6137 53.6703 62.1155 53.1741 61.6366 52.6778C61.0809 52.1243 61.0043 51.5517 61.4066 51.1127C61.5982 50.9028 61.8282 50.7883 62.0581 50.7883C62.3646 50.7883 62.6712 50.9601 63.0161 51.2845L63.3992 51.6472C64.3381 52.5824 65.3344 53.5367 66.2732 54.5101C67.6335 55.9034 67.6335 57.6975 66.2732 59.0908C65.3344 60.0642 64.2806 61.1139 63.0735 62.2782C62.4029 62.9271 61.5982 63.2897 60.7744 63.2897Z" fill="white"/>
<path id="Vector_3" d="M37.0164 42.2568C34.6023 42.2568 32.169 41.6461 29.5825 40.3864C27.1684 39.2031 24.9458 37.638 22.7808 35.5767C22.1102 34.9468 21.727 34.0689 21.727 33.1718C21.727 32.332 22.0527 31.5304 22.6467 30.9578C26.0954 27.6177 29.6208 25.5374 33.3953 24.6212C34.2 24.4304 35.043 24.3158 35.8477 24.2013C36.2117 24.1441 36.5949 24.1059 36.9781 24.0486C39.2198 24.1632 41.3465 24.6594 43.4924 25.5946C44.1055 25.8618 44.3354 26.3772 44.1247 26.9116C43.9714 27.2742 43.6457 27.5032 43.2433 27.5032C43.0901 27.5032 42.9368 27.4651 42.8027 27.4078C40.8675 26.568 38.9324 26.129 37.0164 26.129C33.7785 26.129 30.5405 27.3124 27.13 29.7554C26.1146 30.4807 25.1566 31.3205 24.2369 32.1221L24.1794 32.1603C23.8537 32.4466 23.6621 32.8092 23.6621 33.1909C23.6621 33.5345 23.7963 33.878 24.0836 34.1261C27.4558 37.2944 30.6363 39.1458 34.1042 39.9474C35.0813 40.1765 36.0776 40.291 37.0548 40.291C39.5838 40.291 42.1512 39.5084 44.6995 37.9815C46.1556 37.1036 47.5351 36.0157 48.8571 34.9659C49.1254 34.756 49.3936 34.546 49.6618 34.3361C50.0642 34.0116 50.2941 33.649 50.2941 33.2673C50.3133 32.8664 50.0833 32.4466 49.6618 32.0648C48.9338 31.4159 48.1674 30.7861 47.401 30.1753L47.286 30.0799C46.8454 29.7172 46.4238 29.1637 46.8645 28.553C47.0561 28.2858 47.3052 28.1522 47.5926 28.1522C47.8608 28.1522 48.1482 28.2667 48.4165 28.4766L48.6847 28.7057C49.5469 29.3928 50.4474 30.118 51.2329 30.8815C51.8844 31.5113 52.2292 32.332 52.2292 33.21C52.2292 34.0689 51.8844 34.8514 51.2712 35.4431C47.4968 39.0504 43.8373 41.1308 39.7371 41.9515C38.9132 42.1614 37.9553 42.2568 37.0164 42.2568Z" fill="white"/>
<path id="Vector_4" d="M55.6206 13.7612C55.3907 13.7612 55.1799 13.6657 54.9883 13.4749C54.5668 13.0359 54.6243 12.4633 55.1607 11.9098C56.636 10.4402 58.3029 8.7606 59.9315 7.15736C60.3339 6.75655 60.7362 6.56569 61.1386 6.56569C61.5218 6.56569 61.9241 6.75655 62.3265 7.13828C62.7671 7.55817 63.1887 8.01624 63.591 8.43614C63.7634 8.627 63.955 8.81786 64.1275 8.98964L64.2041 9.06598L69.6838 3.64551H69.4347C69.3198 3.64551 69.2048 3.64551 69.0898 3.64551C68.994 3.64551 68.8791 3.64551 68.7833 3.64551C68.6683 3.64551 68.5534 3.64551 68.4384 3.64551C67.7103 3.62642 67.2697 3.2447 67.2505 2.67211C67.2505 2.38582 67.3463 2.15678 67.5571 1.98501C67.7678 1.81323 68.0552 1.7178 68.4192 1.7178C69.0515 1.7178 69.6646 1.7178 70.2969 1.7178C70.8908 1.7178 71.4848 1.7178 72.0787 1.73689C72.8643 1.73689 73.2092 2.08044 73.2092 2.88206C73.2283 4.10358 73.2283 5.32509 73.2092 6.52752C73.2092 7.21462 72.826 7.63452 72.232 7.63452H72.1937C71.6189 7.61543 71.274 7.21462 71.2549 6.52752C71.2549 6.2794 71.2549 6.01219 71.2549 5.76407C71.2549 5.64956 71.2549 5.36326 71.2549 5.36326L70.9675 5.21058L70.91 5.26783C70.6993 5.49687 70.4885 5.70681 70.2777 5.93585C69.8179 6.43209 69.3389 6.92833 68.8408 7.42457C67.9211 8.35979 66.9056 9.37136 65.6411 10.612C65.1429 11.0891 64.7214 11.3182 64.2999 11.3182C63.8784 11.3182 63.4377 11.0891 62.9396 10.5738C62.5564 10.1921 62.1923 9.81034 61.79 9.40953C61.5984 9.21867 61.1577 8.7606 61.1577 8.7606L60.8895 9.00872C60.7554 9.12324 60.6404 9.23775 60.5446 9.35227C60.0656 9.82943 59.6058 10.2875 59.1268 10.7646C58.2646 11.6235 57.4024 12.4824 56.5402 13.3413C56.2528 13.6085 55.9271 13.7612 55.6206 13.7612Z" fill="white"/>
<path id="Vector_5" d="M5.72885 40.1764C4.27271 40.1764 2.91238 39.6039 1.87775 38.5541C0.84313 37.5044 0.26834 36.1302 0.287499 34.6987C0.306659 31.7213 2.7591 29.2973 5.74801 29.2973C7.20415 29.2973 8.58364 29.8699 9.59911 30.9005C10.6337 31.9312 11.1894 33.3054 11.1894 34.775C11.151 37.7525 8.71776 40.1764 5.72885 40.1764ZM5.72885 31.2441C3.83204 31.2441 2.26095 32.7901 2.24179 34.6796C2.22263 35.6148 2.58666 36.4928 3.25725 37.1608C3.92784 37.8288 4.79003 38.2106 5.72885 38.2106H5.74801C7.64482 38.1915 9.19675 36.6264 9.19675 34.7369C9.19675 32.8283 7.64482 31.2632 5.74801 31.2632L5.72885 31.2441Z" fill="white"/>
<path id="Vector_6" d="M5.53723 10.86C4.0811 10.8409 2.72076 10.2684 1.7053 9.23771C0.670672 8.18797 0.115041 6.81376 0.134201 5.34413C0.15336 2.40486 2.6058 0 5.59471 0H5.63303C7.08917 0 8.46867 0.572584 9.46497 1.60324C10.4804 2.63389 11.0361 4.0081 11.0169 5.49682C10.9977 8.45518 8.5453 10.86 5.57555 10.86H5.53723ZM5.57555 1.96588C3.62126 1.96588 2.10765 3.47369 2.08849 5.40139C2.08849 6.33661 2.45252 7.21458 3.10395 7.88259C3.75538 8.55061 4.63673 8.91324 5.55639 8.91324H5.59471C7.49152 8.89416 9.04346 7.32909 9.04346 5.42047C9.04346 3.47368 7.52984 1.96588 5.57555 1.96588Z" fill="white"/>
<path id="Vector_7" d="M5.72885 25.5946C4.27271 25.5946 2.91238 25.022 1.87775 23.9723C0.84313 22.9225 0.26834 21.5674 0.287499 20.1169C0.306659 17.1585 2.7591 14.7346 5.74801 14.7346C7.22331 14.7346 8.6028 15.3071 9.61827 16.3187C10.6337 17.3494 11.1894 18.7236 11.1894 20.1932C11.1702 23.1707 8.71776 25.5946 5.72885 25.5946ZM5.72885 16.7004C3.81288 16.7004 2.26095 18.2655 2.26095 20.155C2.26095 22.0446 3.87036 23.6287 5.74801 23.6287H5.80549C7.7023 23.5905 9.23507 22.0255 9.21591 20.1169C9.19675 18.2082 7.66398 16.7004 5.72885 16.7004Z" fill="white"/>
<path id="Vector_8" d="M37.0164 38.3633C35.6177 38.3633 34.334 37.8288 33.3569 36.8554C32.3797 35.882 31.8432 34.5651 31.8624 33.1718C31.8816 30.3089 34.1424 28.0567 37.0164 28.0567C39.9286 28.0567 42.2086 30.328 42.2086 33.21C42.2086 34.6033 41.6722 35.9011 40.695 36.8745C39.7179 37.8288 38.415 38.3633 37.0164 38.3633ZM37.0355 30.0035C35.2537 30.0035 33.8358 31.3968 33.8167 33.1527C33.7975 34.9468 35.1579 36.3783 36.9397 36.3974H36.9972C38.7982 36.3974 40.216 35.0232 40.2352 33.2482C40.2543 32.3702 39.9286 31.5495 39.3155 30.9387C38.7407 30.3471 37.9169 30.0035 37.0355 30.0035Z" fill="white"/>
<path id="Vector_9" d="M20.3094 3.6646C18.7958 3.6646 17.2822 3.6646 15.7686 3.6646C15.0022 3.6646 14.5232 3.28287 14.5232 2.6912C14.5232 2.09953 14.983 1.73689 15.7686 1.7178C16.4009 1.7178 17.0331 1.7178 17.6654 1.7178H20.3669H22.9726C23.5666 1.7178 24.1605 1.7178 24.7545 1.7178C25.3293 1.7178 25.9999 1.88958 26.019 2.65302C26.019 2.92023 25.9424 3.14927 25.7891 3.32104C25.5783 3.55007 25.2143 3.6646 24.7545 3.6646C23.2792 3.6646 21.7847 3.6646 20.3094 3.6646Z" fill="white"/>
<path id="Vector_10" d="M68.2467 27.6177C67.9018 27.6177 67.5569 27.6177 67.2312 27.6177C66.5798 27.5986 66.1391 27.2169 66.1391 26.6443C66.1391 26.0717 66.5798 25.69 67.2312 25.6709C68.0742 25.6709 68.9173 25.6518 69.7411 25.6518C70.565 25.6518 71.408 25.6518 72.2319 25.6518C72.8833 25.6518 73.324 26.0335 73.3432 26.6061C73.3432 26.8733 73.2665 27.1024 73.0941 27.2741C72.9025 27.4841 72.5768 27.5986 72.2127 27.5986C71.9062 27.5986 71.5805 27.5986 71.2739 27.5986C71.0248 27.5986 70.7566 27.5986 70.5075 27.5986C70.2584 27.5986 69.7794 27.5986 69.7794 27.5986C69.5112 27.5986 69.243 27.5986 68.9939 27.5986C68.764 27.6177 68.4958 27.6177 68.2467 27.6177Z" fill="white"/>
<path id="Vector_11" d="M68.2275 36.3592C67.9018 36.3592 67.5761 36.3592 67.2312 36.3592C66.5606 36.3401 66.1391 35.9775 66.1391 35.4049C66.1391 34.8323 66.5798 34.4315 67.2121 34.4124C68.0742 34.3933 68.9364 34.3933 69.7603 34.3933C70.6225 34.3933 71.4655 34.3933 72.2894 34.4124C72.6151 34.4124 72.9025 34.5269 73.0941 34.7178C73.2665 34.8895 73.3623 35.1377 73.3432 35.4049C73.324 35.9775 72.9025 36.3401 72.2319 36.3401C71.9062 36.3401 71.5805 36.3401 71.2356 36.3401C70.9865 36.3401 70.7374 36.3401 70.4692 36.3401C70.2201 36.3401 69.971 36.3401 69.7028 36.3401C69.4346 36.3401 69.1855 36.3401 68.9364 36.3401C68.7257 36.3592 68.4766 36.3592 68.2275 36.3592Z" fill="white"/>
<path id="Vector_12" d="M41.2698 61.5147C40.4076 61.5147 39.5263 61.5147 38.6833 61.4956C38.0893 61.4956 37.6678 61.0948 37.6486 60.5222C37.6486 59.9496 38.0702 59.5679 38.7216 59.5488C39.0665 59.5488 39.3922 59.5488 39.7371 59.5488C40.0053 59.5488 40.2544 59.5488 40.5226 59.5488C40.7717 59.5488 41.0399 59.5488 41.289 59.5488C41.5572 59.5488 41.8063 59.5488 42.0554 59.5488C42.3045 59.5488 42.5535 59.5488 42.8026 59.5488C43.1283 59.5488 43.4732 59.5488 43.7989 59.5488C44.4312 59.5679 44.8335 59.9114 44.8719 60.4649C44.891 60.7321 44.7952 60.9803 44.6228 61.152C44.4312 61.362 44.1438 61.4765 43.8372 61.4765C42.975 61.5147 42.1129 61.5147 41.2698 61.5147Z" fill="white"/>
<path id="Vector_13" d="M39.6796 65.8664C39.3539 65.8664 39.0281 65.8664 38.7024 65.8473C38.0893 65.8282 37.6678 65.4656 37.6486 64.9121C37.6486 64.6449 37.7253 64.3967 37.9169 64.2059C38.0893 64.015 38.3576 63.9196 38.645 63.9005C39.488 63.8814 40.331 63.8814 41.174 63.8814C42.0937 63.8814 43.0325 63.8814 43.933 63.9005C44.527 63.9196 44.891 64.3967 44.891 64.8739C44.891 65.4274 44.4695 65.8091 43.8755 65.8282C43.569 65.8282 43.2241 65.8473 42.8218 65.8473C42.5727 65.8473 42.3236 65.8473 42.0745 65.8473C41.8255 65.8473 41.5764 65.8473 41.3273 65.8473H41.2507C41.0016 65.8473 40.7717 65.8473 40.5226 65.8473C40.216 65.8664 39.9478 65.8664 39.6796 65.8664Z" fill="white"/>
<path id="Vector_14" d="M69.7411 40.7681C68.8981 40.7681 68.0359 40.7681 67.1546 40.749C66.5606 40.749 66.1391 40.3291 66.1391 39.7756C66.1391 39.2221 66.5606 38.8403 67.1737 38.8213C67.4803 38.8213 67.8252 38.8022 68.2275 38.8022C68.4766 38.8022 68.7448 38.8022 68.9939 38.8022C69.243 38.8022 69.5112 38.8022 69.7603 38.8022H69.8178C70.0668 38.8022 70.3159 38.8022 70.5458 38.8022C70.8141 38.8022 71.0632 38.8022 71.3314 38.8022C71.6571 38.8022 71.9828 38.8022 72.3085 38.8213C72.9216 38.8403 73.3432 39.203 73.3623 39.7565C73.3623 40.0237 73.2857 40.2718 73.0941 40.4627C72.9216 40.6535 72.6534 40.749 72.366 40.749C71.523 40.7681 70.6416 40.7681 69.7411 40.7681Z" fill="white"/>
<path id="Vector_15" d="M69.7602 18.8762C68.9172 18.8762 68.055 18.8762 67.1928 18.8571C66.8862 18.8571 66.5989 18.7426 66.4073 18.5327C66.2348 18.3418 66.139 18.0937 66.1582 17.8265C66.1773 17.273 66.5989 16.9103 67.212 16.9103C67.5568 16.9103 67.9017 16.9103 68.2274 16.9103C68.4765 16.9103 68.7447 16.9103 68.9938 16.9103C69.2429 16.9103 69.5111 16.9103 69.7602 16.9103H69.7794C70.0284 16.9103 70.2775 16.9103 70.5266 16.9103C70.7757 16.9103 71.0439 16.9103 71.293 16.9103C71.6187 16.9103 71.9444 16.9103 72.2701 16.9103C72.9024 16.9294 73.3047 17.273 73.3431 17.8074C73.3622 18.0746 73.2664 18.3418 73.094 18.5136C72.9024 18.7045 72.6342 18.819 72.3084 18.838C71.4846 18.8571 70.6224 18.8762 69.7602 18.8762Z" fill="white"/>
<path id="Vector_16" d="M68.2275 23.2088C67.9018 23.2088 67.5761 23.2088 67.2312 23.2088C66.5606 23.1897 66.1391 22.8271 66.1391 22.2545C66.1391 21.6819 66.5798 21.2811 67.2121 21.262C68.0742 21.2429 68.9364 21.2429 69.7603 21.2429C70.6225 21.2429 71.4655 21.2429 72.2894 21.262C72.6151 21.262 72.9025 21.3765 73.0941 21.5674C73.2665 21.7392 73.3623 21.9873 73.3432 22.2545C73.324 22.8271 72.9025 23.1706 72.2319 23.1897C71.9062 23.1897 71.5805 23.1897 71.2547 23.1897C71.0057 23.1897 70.7374 23.1897 70.4884 23.1897C70.2393 23.1897 69.9902 23.1897 69.7411 23.1897H69.722C69.4729 23.1897 69.2238 23.1897 68.9747 23.1897C68.7257 23.2088 68.4766 23.2088 68.2275 23.2088Z" fill="white"/>
<path id="Vector_17" d="M69.8177 32.0075C68.9172 32.0075 68.0167 32.0075 67.1353 31.9884C66.8479 31.9884 66.5797 31.8739 66.4073 31.683C66.2348 31.4922 66.139 31.244 66.1582 30.9768C66.1773 30.4233 66.5989 30.0798 67.2311 30.0607C67.576 30.0607 67.9209 30.0416 68.2466 30.0416C68.4957 30.0416 68.7639 30.0416 69.013 30.0416C69.262 30.0416 69.5303 30.0416 69.7794 30.0416C70.0476 30.0416 70.2967 30.0416 70.5457 30.0416C70.7948 30.0416 71.0631 30.0416 71.3121 30.0416C71.6378 30.0416 71.9827 30.0416 72.3084 30.0607C72.9407 30.0798 73.3431 30.4424 73.3622 30.9959C73.3622 31.2631 73.2856 31.5112 73.1132 31.7021C72.9407 31.893 72.6725 31.9884 72.3659 32.0075C71.5229 32.0075 70.6607 32.0075 69.8177 32.0075Z" fill="white"/>
<path id="Vector_18" d="M17.9144 8.24528C17.148 8.24528 16.3624 8.24528 15.5769 8.22619C15.2512 8.22619 14.9829 8.09259 14.7914 7.90173C14.6189 7.71087 14.5231 7.46275 14.5423 7.21463C14.5806 6.68022 15.0021 6.31758 15.6152 6.29849C15.9218 6.29849 16.2092 6.29849 16.5157 6.29849C16.7456 6.29849 16.9756 6.29849 17.2055 6.29849C17.4354 6.29849 17.6653 6.29849 17.8952 6.29849C18.1251 6.29849 18.3742 6.29849 18.6041 6.29849C18.834 6.29849 19.064 6.29849 19.313 6.29849C19.6196 6.29849 19.907 6.29849 20.2135 6.31758C20.865 6.33666 21.2482 6.66113 21.2673 7.23371C21.2865 7.52 21.1907 7.76813 21.0183 7.95899C20.8458 8.14985 20.5584 8.24528 20.2327 8.26437C19.4472 8.24528 18.6808 8.24528 17.9144 8.24528Z" fill="white"/>
<path id="Vector_19" d="M34.564 61.6483C33.97 61.6102 33.5102 61.0948 33.5293 60.5032C33.5485 59.9306 34.0467 59.4534 34.6214 59.4534H34.6406C35.2154 59.4725 35.7135 59.9687 35.7135 60.5604C35.7135 61.133 35.1962 61.6483 34.6214 61.6483C34.6023 61.6483 34.5831 61.6483 34.564 61.6483Z" fill="white"/>
<path id="Vector_20" d="M63.1122 40.9017C62.5183 40.9017 62.0393 40.4055 62.0393 39.7947C62.0393 39.203 62.5183 38.7068 63.1122 38.7068C63.7254 38.7068 64.2044 39.203 64.2044 39.8138C64.2044 40.4055 63.7254 40.9017 63.1122 40.9017Z" fill="white"/>
<path id="Vector_21" d="M63.0927 18.9908C62.4987 18.9717 62.0197 18.4754 62.0389 17.8647C62.058 17.273 62.537 16.7959 63.1118 16.7959H63.1501C63.7633 16.8149 64.2231 17.3112 64.2039 17.9219C64.1848 18.5136 63.7058 18.9908 63.131 18.9908H63.0927Z" fill="white"/>
<path id="Vector_22" d="M63.1312 32.1411C63.1121 32.1411 63.0737 32.1411 63.0546 32.1411C62.4606 32.103 62.02 31.5876 62.0583 30.9769C62.0966 30.4043 62.5564 29.9653 63.1312 29.9653C63.1504 29.9653 63.1887 29.9653 63.2079 29.9653C63.821 30.0035 64.2425 30.5188 64.2042 31.1296C64.1658 31.6831 63.6869 32.1411 63.1312 32.1411Z" fill="white"/>
<path id="Vector_23" d="M34.6214 66C34.334 66 34.0466 65.8854 33.855 65.6946C33.6442 65.4846 33.5293 65.2174 33.5293 64.9311C33.5293 64.3204 34.0082 63.8623 34.6214 63.8623C35.2345 63.8623 35.7135 64.3394 35.7135 64.9311C35.7135 65.5419 35.2536 66 34.6214 66Z" fill="white"/>
<path id="Vector_24" d="M63.1314 23.3615C62.5182 23.3615 62.0584 22.9225 62.0584 22.3118C62.0584 21.6819 62.4991 21.2238 63.1122 21.2238C63.7445 21.2238 64.2043 21.6628 64.2043 22.2736C64.2043 22.8843 63.7636 23.3424 63.1314 23.3615Z" fill="white"/>
</g>
</svg>
