<svg width="63" height="62" viewBox="0 0 63 62" fill="none" xmlns="http://www.w3.org/2000/svg">
<g id="Group">
<path id="Vector" d="M56.9276 53.2329C57.1002 53.2329 57.2536 53.2329 57.4261 53.2329C57.5795 53.2329 57.7329 53.2329 57.8863 53.2329C58.0972 53.2329 58.2698 53.2329 58.4232 53.2138C60.3598 53.061 61.6061 52.0296 62.1429 50.1386C62.1621 50.0431 62.2005 49.9667 62.2388 49.9094C62.2388 49.9094 62.2388 49.8903 62.258 49.8903V5.04251C62.258 5.02341 62.258 5.02341 62.2388 5.00431C62.1238 2.21565 59.8229 0 56.9851 0H53.6297L53.668 0.0191003H8.57078L8.60913 0H5.25368C2.35841 0 0 2.34935 0 5.23352V9.37831V14.2489C0 25.8429 0 37.4177 0 49.0117C0 51.1319 1.15044 52.679 3.06784 53.1183C3.52802 53.2329 4.02654 53.252 4.56341 53.2711C4.81267 53.2902 5.06193 53.2902 5.33037 53.3093L5.61798 53.3284V60.1473H2.62684C2.16666 60.1473 1.72566 60.1473 1.26548 60.1473C0.901173 60.1473 0.0383503 60.2428 0.0383503 61.045C0.0383503 61.2933 0.115042 61.4843 0.24926 61.6371C0.460174 61.8472 0.82448 61.9809 1.30383 61.9809H19.2507C32.5575 61.9809 46.8229 61.9809 60.8199 62C61.5486 62 61.9704 61.809 62.2388 61.3506V60.7776C61.9704 60.3192 61.5677 60.1282 60.9158 60.1282C60.8775 60.1282 60.8391 60.1282 60.8199 60.1282C60.3598 60.1473 59.8421 60.1473 59.2285 60.1473C58.845 60.1473 58.4615 60.1473 58.0781 60.1473C57.6946 60.1473 57.3111 60.1473 56.9084 60.1473H56.6017V53.2138H56.9276V53.2329ZM1.80236 8.48059C1.82153 8.11768 1.82153 7.73567 1.8407 7.39187C1.85987 6.57055 1.87905 5.73013 2.01327 4.92791C2.30088 3.28527 3.71975 2.06285 5.52211 1.89094C5.7522 1.87184 6.00147 1.87184 6.21238 1.87184H6.40412C17.0649 1.87184 55.8347 1.87184 55.8347 1.87184C58.7683 1.87184 60.3789 3.47628 60.3789 6.37954V8.8053H1.78318L1.80236 8.48059ZM13.4793 60.1473H7.55456V48.5915H13.4793V60.1473ZM27.2271 60.1282H21.264V35.0684H27.2271V60.1282ZM40.9748 60.1091H35.0309V45.4017H40.9748V60.1091ZM56.5825 51.4184V32.7572C56.5825 31.6494 56.314 31.3629 55.2211 31.3629C54.0323 31.3629 52.8435 31.3629 51.6356 31.3629C50.5043 31.3629 49.3539 31.3629 48.2226 31.3629C47.168 31.3629 46.8804 31.6494 46.8804 32.719C46.8804 33.1775 46.8804 33.655 46.8804 34.1134C46.8804 35.5077 46.8804 36.9211 46.8804 38.3346C46.8804 38.9267 47.2639 39.3469 47.7816 39.3469H47.8008C48.2993 39.3469 48.6636 38.9267 48.702 38.3346C48.702 38.2391 48.702 38.1436 48.702 38.0481V37.9335V33.2157H54.6843V60.09H48.702V47.2163C48.702 47.159 48.702 47.1208 48.702 47.0635C48.702 46.9489 48.702 46.8343 48.702 46.7388C48.6636 46.1466 48.2993 45.7455 47.7816 45.7455C47.2831 45.7455 46.9188 46.1466 46.8613 46.7197C46.8613 46.8343 46.8613 46.968 46.8613 47.0826C46.8613 47.1399 46.8613 47.1972 46.8613 47.2354V60.09H42.8155V44.9051C42.8155 43.74 42.5663 43.4917 41.3967 43.4917H37.6002C36.5456 43.4917 35.4719 43.4917 34.4173 43.4917C33.4203 43.4917 33.1327 43.7782 33.1327 44.7714C33.1327 48.2668 33.1327 51.7622 33.1327 55.2575V60.09H29.087V34.5718C29.087 33.3876 28.8377 33.1393 27.6297 33.1393C26.4026 33.1393 25.1755 33.1393 23.9483 33.1393C22.8938 33.1393 21.82 33.1393 20.7654 33.1393C19.6533 33.1393 19.3849 33.4067 19.3849 34.5336V60.0709H15.3392V48.1904C15.3392 46.8725 15.1283 46.6815 13.7861 46.6815H12.2522C12.2522 46.6815 9.85543 46.6815 9.31856 46.6815C8.97343 46.6815 8.66665 46.6815 8.37904 46.6815C8.12978 46.6815 7.88052 46.6815 7.6696 46.6815C6.69173 46.6815 6.15486 46.7197 5.92477 46.9489C5.63716 47.2354 5.63716 48.0185 5.65633 49.4128C5.65633 49.6802 5.65633 49.9858 5.65633 50.3105V51.342H5.34955C5.15781 51.342 4.96607 51.342 4.7935 51.3611C4.62093 51.3611 4.44837 51.3802 4.2758 51.3802C4.02654 51.3802 3.81562 51.3611 3.60471 51.342C2.70353 51.2274 1.97492 50.4633 1.85988 49.4892C1.84071 49.3173 1.8407 49.1454 1.8407 48.9735V48.8589C1.8407 37.6661 1.8407 10.6962 1.8407 10.6962H60.3789V48.6488C60.3789 50.6925 59.6503 51.4184 57.6179 51.4184H56.5825Z" fill="white"/>
<path id="Vector_2" d="M52.8054 16.7893C52.4603 16.6938 52.1152 16.6365 51.7509 16.6365C50.2936 16.6365 48.8939 17.4387 48.2037 18.6611C47.3792 20.1509 47.4367 21.6026 48.3762 23.1115L48.4721 23.2643L48.3762 23.4171C48.357 23.4362 48.357 23.4553 48.3379 23.4744C48.3187 23.5317 48.2803 23.5699 48.242 23.6272L47.3217 24.544C45.0783 26.7788 42.7582 29.09 40.4574 31.3629C40.2656 31.5539 39.9397 31.573 39.8438 31.573C39.7671 31.573 39.6329 31.5539 39.5178 31.5157C38.981 31.3056 38.4441 31.191 37.9072 31.191C37.447 31.191 36.9677 31.2865 36.5075 31.4584C36.335 31.5157 36.2007 31.5539 36.0665 31.5539C35.7214 31.5539 35.4913 31.3629 35.3379 31.2101C32.7878 28.6506 30.1609 26.0339 27.5341 23.4362C27.1889 23.0924 27.1314 22.7677 27.3232 22.3284C28.071 20.5521 27.5149 18.5847 25.9235 17.4196C25.2716 16.9421 24.4279 16.6747 23.5842 16.6747C22.6447 16.6747 21.7244 16.9994 20.9957 17.5724C19.481 18.7948 19.0208 20.7622 19.8453 22.4812C20.0754 22.9396 19.9987 23.2834 19.6344 23.6654C17.1993 26.053 15.0902 28.1731 13.1728 30.1023C12.9235 30.3506 12.6934 30.4652 12.425 30.4652C12.2716 30.4652 12.1182 30.427 11.9073 30.3506C11.3704 30.1405 10.8335 30.045 10.3158 30.045C9.35712 30.045 8.45595 30.4079 7.65064 31.1337C6.48103 32.1842 6.0592 33.5022 6.40433 35.0493C6.80699 36.8829 8.47512 38.22 10.3925 38.22C10.8144 38.22 11.2362 38.1627 11.6388 38.029C12.7318 37.6851 13.6329 36.902 14.1123 35.8706C14.5916 34.8201 14.63 33.655 14.1698 32.5853C13.9397 32.0505 14.1123 31.7258 14.4191 31.4202C16.6432 29.2237 18.8674 27.0271 21.0149 24.8497C21.1683 24.6969 21.3984 24.5058 21.7435 24.5058C21.8778 24.5058 22.0311 24.544 22.1845 24.6013C22.6639 24.7733 23.1241 24.8688 23.5842 24.8688C24.1019 24.8688 24.6196 24.7542 25.099 24.5249C25.2524 24.4485 25.4058 24.4103 25.54 24.4103C25.8468 24.4103 26.0577 24.5822 26.2302 24.7542C29.2022 27.7338 31.6565 30.1787 33.9574 32.4325C34.3025 32.7763 34.36 33.101 34.1491 33.5595C33.3246 35.2785 33.7848 37.2649 35.2804 38.4874C35.9898 39.0604 36.9102 39.3851 37.8689 39.3851C38.7125 39.3851 39.5562 39.1177 40.2081 38.6402C41.7995 37.4941 42.3748 35.5268 41.627 33.7314C41.4352 33.2729 41.4928 32.9482 41.8379 32.6044C44.2538 30.2169 46.7464 27.7147 49.5075 24.9643C49.7376 24.7351 49.9868 24.6205 50.3128 24.6205C50.3895 24.6205 50.4854 24.6205 50.5812 24.6396C51.0222 24.6969 51.4632 24.7542 51.9234 24.7542C52.1343 24.7542 52.3069 24.7351 52.4795 24.716C54.2818 24.4485 55.6815 22.8441 55.7966 20.915C55.95 19.0622 54.6845 17.3432 52.8054 16.7893ZM10.45 36.3672C9.8173 36.3672 9.24209 36.1189 8.80109 35.6796C8.37926 35.2403 8.14916 34.6864 8.14916 34.0752C8.16834 32.8527 9.18456 31.8595 10.4117 31.8595H10.4309C11.6772 31.8595 12.6742 32.8527 12.6742 34.1134C12.6742 35.374 11.6964 36.3481 10.45 36.3672ZM23.6034 22.9969H23.5651C22.9707 22.9969 22.3955 22.7486 21.9544 22.3284C21.5134 21.8891 21.2834 21.3352 21.2834 20.724C21.3025 19.4824 22.2996 18.4892 23.5459 18.4892C24.7922 18.4892 25.7892 19.4633 25.7892 20.724C25.8084 21.9464 24.8305 22.9778 23.6034 22.9969ZM37.888 37.5514H37.8689C37.2745 37.5514 36.6801 37.3031 36.2582 36.8638C35.8172 36.4245 35.5872 35.8515 35.6063 35.2594C35.6255 34.037 36.6417 33.0437 37.8689 33.0437H37.888C39.1343 33.0628 40.1314 34.0752 40.1314 35.2976C40.1314 36.52 39.1343 37.5323 37.888 37.5514ZM51.7509 22.9969H51.7317C51.1373 22.9969 50.5621 22.7486 50.1211 22.3284C49.6801 21.8891 49.45 21.3161 49.4691 20.724C49.4883 19.5015 50.5045 18.4892 51.7317 18.4892C52.978 18.4892 53.975 19.5015 53.9942 20.7431C54.0134 21.9655 52.9972 22.9778 51.7509 22.9969Z" fill="white"/>
<path id="Vector_3" d="M7.84206 23.1306C8.1105 23.1306 8.3981 23.1306 8.66654 23.1306C8.95415 23.1306 9.22258 23.1306 9.51019 23.1306C9.7978 23.1306 10.0662 23.1306 10.3539 23.1306C10.6415 23.1306 10.9099 23.1306 11.1975 23.1306C11.5618 23.1306 11.9261 23.1306 12.2904 23.1306C12.9615 23.1306 13.3833 22.7677 13.3833 22.2138C13.3833 21.6599 12.9615 21.297 12.2904 21.297C11.3701 21.297 10.4497 21.297 9.52937 21.297C8.60902 21.297 7.68866 21.297 6.76831 21.297C6.09722 21.297 5.67539 21.6599 5.67539 22.2138C5.67539 22.7677 6.11639 23.1115 6.76831 23.1306C7.13262 23.1306 7.49693 23.1306 7.84206 23.1306Z" fill="white"/>
<path id="Vector_4" d="M6.78754 17.2668C7.13267 17.2668 7.49698 17.2668 7.84211 17.2668C8.11055 17.2668 8.39816 17.2668 8.66659 17.2668C8.93503 17.2668 9.22264 17.2668 9.49107 17.2668C9.77868 17.2668 10.0471 17.2668 10.3347 17.2668C10.6223 17.2668 10.8908 17.2668 11.1784 17.2668C11.5427 17.2668 11.8878 17.2668 12.2521 17.2668C12.6356 17.2668 12.9616 17.1522 13.1533 16.9421C13.3067 16.7893 13.3834 16.5792 13.3834 16.3309C13.3642 15.777 12.9424 15.4332 12.2521 15.4332C11.3318 15.4332 10.4306 15.4332 9.51024 15.4332C8.60906 15.4332 7.68872 15.4332 6.78754 15.4332C6.40406 15.4332 6.0781 15.5478 5.88636 15.7579C5.73297 15.9107 5.65627 16.1208 5.65627 16.3691C5.67545 16.9039 6.11645 17.2477 6.78754 17.2668Z" fill="white"/>
<path id="Vector_5" d="M17.0456 17.2477C17.5441 17.2477 17.9468 16.8275 17.9468 16.3309C17.9468 15.8343 17.525 15.4332 17.0456 15.4332C16.8155 15.4332 16.5854 15.5478 16.4129 15.7197C16.2403 15.8916 16.1444 16.1208 16.1444 16.35C16.1253 16.8084 16.5663 17.2477 17.0456 17.2477Z" fill="white"/>
<path id="Vector_6" d="M47.8009 43.7209C48.2802 43.7209 48.7212 43.3007 48.7212 42.8232C48.7212 42.594 48.6254 42.3838 48.4528 42.2119C48.2802 42.04 48.0502 41.9445 47.8009 41.9445C47.3024 41.9445 46.8997 42.3456 46.8805 42.8232C46.8805 43.0524 46.9764 43.2816 47.149 43.4535C47.3407 43.6254 47.5708 43.7209 47.8009 43.7209Z" fill="white"/>
<path id="Vector_7" d="M54.7609 4.45039C54.6459 4.43129 54.5117 4.43129 54.3966 4.43129H54.1282C50.696 4.43129 33.8037 4.43129 33.8037 4.43129C31.6371 4.43129 29.4896 4.43129 27.3229 4.43129C26.9011 4.43129 26.5751 4.5268 26.3451 4.6987C26.1533 4.8515 26.0383 5.08071 26.0383 5.34811C26.0383 6.16943 26.9394 6.26494 27.3229 6.26494C27.3229 6.26494 47.494 6.26494 54.1857 6.26494H54.4158C54.5308 6.26494 54.6459 6.26494 54.7609 6.24583C55.2403 6.16943 55.6046 5.78742 55.6046 5.34811C55.5854 4.8897 55.2403 4.5077 54.7609 4.45039Z" fill="white"/>
<path id="Vector_8" d="M17.3715 4.43129C17.1223 4.43129 16.8922 4.5459 16.7196 4.7178C16.5471 4.8897 16.4512 5.11891 16.4512 5.34811C16.4704 5.80652 16.9114 6.24583 17.3524 6.24583H17.3715C17.6016 6.24583 17.8317 6.13123 18.0043 5.95933C18.1768 5.78742 18.2727 5.55822 18.2727 5.32901C18.2727 4.8706 17.8317 4.43129 17.3715 4.43129Z" fill="white"/>
<path id="Vector_9" d="M12.4632 4.43129C12.0031 4.43129 11.562 4.8706 11.562 5.32901C11.562 5.78742 11.9839 6.24583 12.4632 6.24583H12.4824C12.9426 6.24583 13.3836 5.80652 13.3836 5.34811C13.3836 4.8897 12.9426 4.43129 12.4632 4.43129Z" fill="white"/>
<path id="Vector_10" d="M7.55449 4.43129C7.09432 4.43129 6.65331 4.8706 6.65331 5.34811C6.65331 5.80652 7.09432 6.24583 7.55449 6.24583C8.01467 6.24583 8.45566 5.80653 8.45566 5.32901C8.45566 4.8706 8.01467 4.43129 7.55449 4.43129Z" fill="white"/>
</g>
</svg>
