<svg width="71" height="65" viewBox="0 0 71 65" fill="none" xmlns="http://www.w3.org/2000/svg">
<g id="Group 1000001740">
<path id="Vector" d="M37.6291 65C35.9221 65 34.1959 64.5033 32.4889 63.5097C30.6476 62.4589 28.8255 61.3889 26.9842 60.3381C24.1072 58.6949 21.1535 56.9944 18.2573 55.294C17.8545 55.0456 17.4709 54.95 17.0873 54.95C16.838 54.95 16.5695 55.0074 16.2818 55.1029C15.9557 55.2175 15.6105 55.294 15.2652 55.3895H15.246C15.0734 55.4277 14.9008 55.4659 14.7282 55.5232L14.4597 55.5997L15.1501 58.3128C15.5913 60.0897 14.7857 61.5036 13.0212 61.9812C11.6402 62.3633 10.3551 62.6882 9.12761 62.9747C8.85909 63.0321 8.59057 63.0703 8.34123 63.0703C6.99863 63.0703 5.96291 62.2296 5.59849 60.8921C3.71885 53.7081 1.87757 46.6196 0.132184 39.8369C-0.347317 38.0026 0.496604 36.6079 2.35707 36.1111C3.62295 35.7672 4.86965 35.4615 6.03963 35.1749C6.34651 35.0985 6.67257 35.0603 6.96027 35.0603C8.28369 35.0603 9.26187 35.8627 9.66465 37.2766C9.74137 37.525 9.79891 37.7925 9.87563 38.0791L10.0674 38.8051L10.9689 38.5758C11.3717 38.4803 11.7553 38.3848 12.1389 38.2701C13.2513 37.9835 14.3829 37.6778 15.4954 37.3721C17.9121 36.7225 20.4055 36.0538 22.8989 35.4424C23.7812 35.2131 24.6634 35.1176 25.5074 35.1176C27.5213 35.1176 29.3817 35.729 31.1846 36.99C33.3712 38.5185 35.6344 39.9515 37.8593 41.3463L37.9168 41.3845C38.7224 41.9004 39.5471 42.4162 40.3527 42.9321C40.6787 43.1423 41.0048 43.2951 41.35 43.448L41.3884 43.4671C41.5035 43.5244 41.6186 43.5817 41.7337 43.639C43.1913 44.3651 44.1695 45.5497 44.4572 46.9636C44.7449 48.3583 44.3421 49.8104 43.3064 51.0523C43.2681 51.0906 43.2297 51.1479 43.1722 51.2243L42.5584 52.0268L43.2681 51.9121C43.5558 51.8739 43.8243 51.8357 44.0736 51.7975C44.6107 51.7211 45.071 51.6637 45.5121 51.5491C48.0822 50.8613 50.6907 50.1543 53.2033 49.4856L53.3567 49.4474C55.8118 48.7787 58.286 48.1099 60.7411 47.4603C62.1987 47.0782 63.4646 46.8871 64.6154 46.8871C65.3443 46.8871 66.0539 46.9636 66.7252 47.1164C68.7391 47.5559 70.0242 48.664 70.5229 50.4027C71.0599 52.2751 70.5996 54.0329 69.1803 55.4468C68.7008 55.9245 68.0486 56.3257 67.4349 56.5168C59.3409 58.9433 50.7099 61.5227 40.276 64.5988C39.3937 64.8663 38.5114 65 37.6291 65ZM17.3367 53.0776C17.6627 53.0776 18.008 53.1731 18.3724 53.4024C20.3863 54.5679 22.4194 55.7334 24.4141 56.8798L24.51 56.9371C27.3103 58.5421 30.2256 60.2043 33.0643 61.8857C34.5987 62.7837 36.1331 63.2231 37.7442 63.2231C38.6648 63.2231 39.6238 63.0703 40.602 62.7837C46.8164 60.8921 53.1266 59.0197 59.245 57.2237L59.3217 57.2046C61.7768 56.4786 64.2126 55.7525 66.6677 55.0265C68.1829 54.587 69.0652 53.3451 69.046 51.7402C69.0268 50.2881 68.1254 49.2372 66.5718 48.8742C65.958 48.7214 65.3059 48.6449 64.6346 48.6449C63.6756 48.6449 62.6399 48.7978 61.4507 49.1035C56.6365 50.3836 51.6497 51.7211 46.2026 53.2114C45.2436 53.4789 44.323 53.5935 43.4407 53.5935C42.194 53.5935 40.9856 53.326 39.8732 52.791C38.0127 51.9121 36.1906 50.9186 34.4069 49.9633L33.4095 49.4283C32.5656 48.9697 31.7409 48.473 30.9353 47.9953L30.8778 47.9571C30.6092 47.7851 30.3215 47.6323 30.053 47.4603C29.7461 47.2693 29.4584 46.9445 29.6311 46.5623C29.7461 46.2948 30.0914 45.9891 30.4174 45.8745C30.4174 45.8745 30.4366 45.8745 30.475 45.8745C30.5709 45.8745 30.7819 45.9127 31.1655 46.142C32.1053 46.677 33.0643 47.2311 34.0041 47.766C34.8864 48.2819 35.807 48.8169 36.7085 49.3137L36.9386 49.4474C37.6099 49.8295 38.3196 50.2308 39.0676 50.4982C39.4704 50.632 39.854 50.7084 40.2184 50.7084C41.2925 50.7084 42.194 50.097 42.6543 49.0271C43.2489 47.6514 42.6351 46.0465 41.2541 45.3013C41.0623 45.2058 40.8705 45.1102 40.6979 45.0147C40.4102 44.881 40.1225 44.7472 39.8732 44.5753C39.0676 44.0594 38.2812 43.5626 37.4757 43.0467C35.0398 41.4991 32.5272 39.9133 30.1106 38.2892C28.6337 37.2957 27.1568 36.7989 25.5841 36.7989C24.9895 36.7989 24.3566 36.8754 23.7428 37.0282C21.3453 37.6014 18.9286 38.251 16.5886 38.8624H16.5695C15.6872 39.0917 14.8241 39.321 13.9418 39.5503C13.2321 39.7413 12.5608 39.9133 11.832 40.1235L10.5469 40.4674L13.9993 53.9183L14.287 53.8419C14.5556 53.7654 14.8049 53.7081 15.0542 53.6508C15.6296 53.498 16.1667 53.3642 16.7229 53.1923C16.9339 53.1158 17.1449 53.0776 17.3367 53.0776ZM6.92191 36.7798C6.76847 36.7798 6.57667 36.7989 6.36569 36.8563C5.32997 37.1237 4.27507 37.3912 3.25853 37.6587L2.81739 37.7734C1.80085 38.0409 1.55151 38.4612 1.80085 39.4547C2.12691 40.6967 2.45297 41.9386 2.77903 43.1996L3.25853 45.072L7.17125 60.1661C7.32469 60.7775 7.57403 61.3316 8.30287 61.3316C8.47549 61.3316 8.66729 61.3125 8.89745 61.2361L9.43449 61.1023C10.451 60.8539 11.4868 60.5864 12.5033 60.2807C12.791 60.1852 13.0212 59.975 13.2513 59.784C13.3472 59.7075 13.4239 59.6311 13.5198 59.5547L13.7308 59.3827L13.5007 59.0388L13.4815 58.9433C13.4623 58.8287 13.4431 58.714 13.4048 58.5803C11.6018 51.6637 9.79891 44.7281 7.99599 37.8116C7.90009 37.353 7.66993 36.7798 6.92191 36.7798Z" fill="white"/>
<path id="Vector_2" d="M45.8001 42.1679C45.1096 42.1679 44.7644 41.9195 44.6493 41.3654C44.189 39.2828 43.0574 38.1364 41.1393 37.8307C40.9475 37.7925 40.7174 37.697 40.5448 37.5632C40.0844 37.2193 39.6241 37.0474 39.1063 37.0474C38.4925 37.0474 37.9171 37.2957 37.476 37.525L37.4568 37.5441C36.6129 37.9645 36.1334 38.1938 35.8265 38.1938C35.5004 38.1938 35.2127 37.9072 34.599 37.2766L33.6208 36.3022C32.9495 35.6335 32.259 34.9457 31.5685 34.2769C31.1082 33.8375 31.0507 33.4363 31.3192 32.8631C31.4151 32.6529 31.5302 32.4427 31.6452 32.2325C31.9713 31.6402 32.2974 31.0288 32.3165 30.3792C32.3357 29.7869 32.0288 29.2328 31.7411 28.6788C31.6261 28.4495 31.4918 28.2011 31.3959 27.9909C31.3575 27.9145 31.3384 27.8381 31.3 27.7807C31.1849 27.5324 31.089 27.3031 31.0507 27.0547C30.8972 25.8892 30.0725 25.5071 29.2861 25.2205L28.8641 25.0676C27.9435 24.7428 27.4832 24.59 27.3106 24.3607C27.1379 24.1505 27.1379 23.7875 27.1571 23.0424C27.1571 22.794 27.1571 22.5074 27.1571 22.1826C27.1571 21.6476 27.1571 21.1317 27.1571 20.5967C27.1571 19.9089 27.1571 19.2211 27.1571 18.5332C27.1571 17.96 27.3681 17.6161 27.8284 17.5206C30.0149 17.0429 31.2233 15.8583 31.5302 13.8904C31.5493 13.8139 31.5877 13.7184 31.6452 13.642C32.5083 12.5529 32.5083 11.3683 31.6644 10.05C31.5493 9.85892 31.4534 9.64875 31.3767 9.40036C31.3384 9.32394 31.3192 9.24751 31.2808 9.17109C31.089 8.71253 31.1657 8.36862 31.4918 8.04381C32.681 6.87831 33.9277 5.6364 35.2127 4.33716C35.4429 4.10788 35.673 3.99324 35.9032 3.99324C36.0566 3.99324 36.2101 4.03146 36.3827 4.10788L36.7855 4.29895C37.3417 4.56644 37.9171 4.83393 38.5309 5.0441C38.7035 5.10142 38.8953 5.13963 39.0871 5.13963C39.2981 5.13963 39.509 5.10142 39.7008 5.0441C40.7557 4.64286 41.849 4.20341 43.019 3.66843C43.3642 3.51558 43.6903 3.20988 43.8437 2.90418C44.1506 2.27367 44.3808 1.60494 44.6109 0.974428L44.7068 0.687831C44.8795 0.210171 45.1863 0 45.7042 0C46.2988 0 46.9125 0 47.5071 0H49.1374C49.7128 0 50.3074 0 50.8828 0C51.4198 0 51.7459 0.229277 51.9377 0.726044C51.9952 0.898002 52.0528 1.05085 52.1295 1.22281C52.3405 1.7769 52.5323 2.33098 52.8008 2.88507C52.9542 3.20988 53.2803 3.51558 53.6064 3.66843C54.7188 4.1652 55.8504 4.64286 57.0012 5.0632C57.1738 5.13963 57.3848 5.15874 57.5958 5.15874C57.7876 5.15874 57.9602 5.12052 58.1137 5.08231C58.7082 4.87214 59.2836 4.58554 59.8399 4.33716C59.9933 4.26073 60.1467 4.20341 60.3002 4.12699C60.4536 4.05056 60.6071 4.01235 60.7413 4.01235C60.9715 4.01235 61.2017 4.10788 61.4126 4.33716L62.0456 4.96767C63.0621 5.98031 64.1362 7.03117 65.1527 8.08202C65.2678 8.19666 65.3445 8.36862 65.4404 8.55968C65.4788 8.617 65.498 8.69343 65.5363 8.75074C65.4596 8.9227 65.3829 9.11377 65.3062 9.28572L65.287 9.30483C65.076 9.8016 64.8842 10.2793 64.6349 10.7187C64.1937 11.5403 64.1937 12.2281 64.6541 13.0306C64.9418 13.5274 65.1527 14.1005 65.3445 14.6355C65.4788 15.0177 65.6322 15.3998 65.7857 15.7628C65.9391 16.1258 66.2652 16.4697 66.6104 16.6226C67.1283 16.871 67.6653 17.062 68.1832 17.2531C68.3942 17.3295 68.586 17.406 68.7778 17.4633C69.2573 17.6543 69.4874 17.9792 69.4874 18.5141C69.4874 20.0235 69.4874 21.6476 69.4874 23.5964C69.4874 24.1505 69.2764 24.4562 68.7778 24.6473C68.5476 24.7428 68.2791 24.8193 68.0297 24.8766C67.3584 25.0676 66.668 25.2778 66.1885 25.7364C65.8049 26.1185 65.6514 26.6535 65.4788 27.1693C65.3637 27.5324 65.2486 27.9336 65.0568 28.2202C64.1746 29.5576 64.1937 30.7996 65.0568 32.3854C65.6898 33.5318 65.6898 33.5318 64.6541 34.5635C64.3855 34.831 64.117 35.0985 63.8293 35.366C63.0813 36.1112 62.2949 36.8754 61.5469 37.6588C61.2592 37.9645 60.9715 38.1173 60.6838 38.1173C60.492 38.1173 60.3002 38.06 60.1084 37.9263C59.1686 37.3531 58.3246 37.0665 57.4999 37.0665C56.6943 37.0665 55.9271 37.3531 55.1791 37.9072C55.1791 37.9072 55.1599 37.9072 55.1024 37.9263C53.5296 38.1555 52.5898 39.0726 52.072 40.9069C51.7267 42.1106 51.7267 42.1106 50.3458 42.1106C49.8854 42.1106 49.4635 42.1106 49.0223 42.1106H48.9073C48.5045 42.1106 48.1017 42.1106 47.6989 42.1106C46.9893 42.1106 46.4139 42.1106 45.8576 42.1297L45.8001 42.1679ZM48.3127 40.4292C48.773 40.4292 49.2525 40.4292 49.7128 40.4483H49.7704C50.269 40.4483 50.5759 40.219 50.7294 39.7605L50.8061 39.5312C50.9979 38.958 51.1897 38.3848 51.4774 37.888C51.6692 37.5632 51.9952 37.2575 52.3405 37.1047C53.0885 36.7608 53.8749 36.436 54.6421 36.1303C55.3517 35.8437 56.0614 35.5571 56.7519 35.2514C57.0204 35.1367 57.2506 35.0794 57.4615 35.0794C57.6533 35.0794 57.826 35.1176 58.0178 35.2131C58.5548 35.4615 59.0727 35.6908 59.6289 35.9392L59.6481 35.9583C59.8782 36.0538 60.1276 36.1685 60.3577 36.264L60.5303 36.3404L60.6646 36.2067C60.8756 35.9965 61.0674 35.7863 61.2784 35.5953C61.8921 34.9648 62.5251 34.3343 63.1388 33.6846C63.369 33.4363 63.3498 32.9586 63.2539 32.7102C63.1388 32.4236 63.0237 32.1561 62.8895 31.8886C62.7169 31.5065 62.5443 31.1435 62.4292 30.7614C62.3333 30.4174 62.3524 29.9589 62.4867 29.5959C62.7744 28.8316 63.1005 28.0482 63.4265 27.3031C63.7142 26.6153 64.0211 25.8892 64.2896 25.1823C64.4814 24.6664 64.7308 24.3989 65.1527 24.2652L65.1911 24.2461C65.824 24.0168 66.4762 23.7875 67.1091 23.5009C67.3968 23.3672 67.6653 22.9659 67.6845 22.6602C67.7229 21.6285 67.7229 20.6349 67.6845 19.6987C67.6653 19.3739 67.3968 18.9536 67.0707 18.8007C66.4186 18.4759 65.7473 18.2466 65.0952 18.0174C64.6349 17.8645 64.4431 17.5588 64.2513 17.0811C63.9828 16.4124 63.7142 15.7246 63.4265 15.075C63.1005 14.3107 62.7744 13.5082 62.4675 12.7249C62.3333 12.3428 62.2949 11.8651 62.41 11.483C62.5059 11.139 62.6593 10.8142 62.832 10.4703C62.9662 10.1837 63.1005 9.89713 63.2156 9.61053C63.3115 9.30483 63.2731 8.80806 63.0238 8.54057C62.3716 7.81453 61.662 7.10759 60.914 6.43887C60.7222 6.26691 60.3961 6.19048 60.1659 6.19048C60.0509 6.19048 59.9358 6.20959 59.8399 6.2478C59.5138 6.36244 59.2069 6.49619 58.9192 6.62993C58.5548 6.80189 58.2287 6.95474 57.8643 7.05027C57.7301 7.08849 57.5574 7.10759 57.404 7.10759C57.1738 7.10759 56.9437 7.06938 56.7711 6.99295C55.1408 6.38155 53.6831 5.77014 52.3021 5.13963C51.9569 4.98678 51.6116 4.64286 51.4007 4.29895C51.2089 3.95503 51.0746 3.59201 50.9403 3.20988C50.8444 2.92328 50.7294 2.63669 50.5951 2.35009C50.48 2.10171 50.1156 1.796 49.7895 1.796C49.2909 1.7769 48.773 1.7769 48.0633 1.7769C47.814 1.7769 47.5647 1.7769 47.2961 1.7769H47.1811C46.8934 1.7769 46.5865 1.7769 46.2796 1.7769H46.0878L46.0111 1.96796C45.9152 2.21635 45.8193 2.46473 45.7426 2.71311C45.5316 3.28631 45.3398 3.84039 45.0713 4.35627C44.8986 4.68108 44.5342 5.00588 44.1506 5.17784C43.4026 5.52176 42.6354 5.82746 41.8874 6.13316C41.1969 6.40065 40.5064 6.68725 39.8159 6.99295C39.509 7.1267 39.2789 7.18402 39.0679 7.18402C38.8953 7.18402 38.7227 7.1458 38.55 7.06938L38.4733 7.03117C37.8787 6.74457 37.265 6.45797 36.632 6.2287C36.5361 6.19048 36.4211 6.17138 36.306 6.17138C36.095 6.17138 35.8073 6.2287 35.6155 6.40065C34.8867 7.06938 34.1578 7.79542 33.4673 8.54057C33.2564 8.76985 33.1605 9.24751 33.2755 9.55321C33.5249 10.2793 33.8701 10.9671 34.1195 11.483C34.3304 11.8842 34.2921 12.2472 34.0427 12.7822C33.966 12.9542 33.8701 13.1261 33.7934 13.2981L33.7742 13.3363C33.2755 14.3298 32.7769 15.3616 32.47 16.4315C32.1439 17.5588 31.6452 18.0938 30.7054 18.2849C30.5903 18.304 30.4944 18.3422 30.4177 18.3804C30.3794 18.3995 30.3602 18.3995 30.3218 18.4186C28.9217 18.9536 28.8258 19.0873 28.845 20.5776C28.845 20.8069 28.8258 21.0553 28.8066 21.2846C28.7491 21.9533 28.7107 22.6602 29.0368 23.157C29.3628 23.6538 30.0533 23.8448 30.7054 24.0359C30.9356 24.0932 31.1657 24.1696 31.3575 24.227C31.8179 24.3989 32.0864 24.7046 32.259 25.2587C32.3165 25.4498 32.3741 25.6408 32.4508 25.8319C32.7577 26.8063 33.0837 27.819 33.6208 28.6979C34.2729 29.7487 34.2921 30.6467 33.6783 31.7931C32.9495 33.1305 33.0454 33.3407 34.0811 34.3725L34.1195 34.4107C34.2729 34.5635 34.4455 34.7737 34.599 34.9648C35.0209 35.4615 35.4621 35.9774 36.0183 36.092C36.095 36.1112 36.1717 36.1112 36.2484 36.1112C36.7279 36.1112 37.2458 35.8437 37.7253 35.5762C37.9555 35.4615 38.1856 35.3278 38.3966 35.2514C38.435 35.2323 38.4733 35.2323 38.4925 35.2131C38.6843 35.1176 38.8569 35.0603 39.0487 35.0603C39.2789 35.0603 39.5282 35.1367 39.8351 35.3087C40.0077 35.4042 40.1612 35.4997 40.3338 35.5953C41.0243 35.9965 41.7339 36.3977 42.5203 36.5315C44.3424 36.8563 45.3781 37.8689 45.7809 39.7223C45.9344 40.4674 46.5673 40.4674 46.7783 40.4674H46.8358C47.3729 40.4292 47.8524 40.4292 48.3127 40.4292Z" fill="white"/>
<path id="Vector_3" d="M5.36838 41.4036C4.79298 41.4036 4.35184 40.9641 4.33266 40.4101C4.33266 40.1426 4.42856 39.8942 4.62036 39.684C4.81216 39.4738 5.08068 39.3783 5.3492 39.3592H5.36838C5.94378 39.3592 6.4041 39.7986 6.4041 40.3527C6.4041 40.6202 6.3082 40.8686 6.1164 41.0788C5.9246 41.2889 5.65608 41.4036 5.38756 41.4036H5.36838Z" fill="white"/>
<path id="Vector_4" d="M48.2548 31.6212C42.4432 31.602 37.7058 26.8828 37.7058 21.0935C37.7058 18.304 38.799 15.6673 40.7938 13.6611C42.8077 11.6549 45.4737 10.5659 48.2931 10.5659C54.1047 10.5659 58.8421 15.2852 58.8421 21.0744C58.8421 23.8831 57.7489 26.5388 55.7542 28.5259C53.7403 30.5321 51.0934 31.6212 48.2548 31.6212ZM48.3315 12.2855C43.4406 12.2855 39.4511 16.2023 39.4128 21.0362C39.3936 23.3672 40.3142 25.5835 41.9829 27.2649C43.6516 28.9463 45.8765 29.8825 48.2164 29.9016H48.2548C53.1073 29.9016 57.0776 25.9657 57.0968 21.1317C57.116 16.2787 53.2032 12.3237 48.389 12.2855H48.3315Z" fill="white"/>
<path id="Vector_5" d="M47.0275 26.2904C46.4521 26.2904 45.9151 26.0802 45.4931 25.679C44.2848 24.5517 43.1531 23.4053 42.0982 22.2971C41.2927 21.4374 41.3118 20.0617 42.175 19.2019C42.6161 18.7434 43.1915 18.495 43.8053 18.495C44.3615 18.495 44.8985 18.7051 45.3397 19.0873C45.6657 19.3739 45.9534 19.7369 46.2411 20.0617C46.3754 20.2145 46.5096 20.3865 46.6439 20.5203L46.8357 20.7495L48.2934 19.3357C49.2524 18.4185 50.1347 17.5396 51.0361 16.6608C51.554 16.1449 52.1102 15.8965 52.7048 15.8965C52.8582 15.8965 53.0308 15.9156 53.1843 15.9538C54.0282 16.1258 54.7187 16.7372 54.968 17.5396C55.2174 18.3039 55.0256 19.0682 54.4885 19.6605C52.4938 21.8004 50.3456 23.9021 48.4852 25.6981C48.1016 26.0802 47.5837 26.2904 47.0275 26.2904ZM43.3833 20.654C43.4025 20.7113 43.4025 20.7495 43.4025 20.8068C43.4217 20.9979 43.46 21.2081 43.5943 21.3609C44.419 22.2207 45.2821 23.0805 46.126 23.9021L46.3946 24.1696C46.4905 24.2651 46.6055 24.3415 46.7014 24.3989C46.759 24.4371 46.7973 24.4753 46.8549 24.5135L47.0467 24.6472L47.2193 24.4944C47.2768 24.4562 47.3152 24.418 47.3727 24.3606C47.507 24.2651 47.6221 24.1696 47.7372 24.0549C49.4634 22.3354 51.1704 20.5967 52.8774 18.8771C53.0117 18.7434 53.1459 18.6096 53.2418 18.4377C53.3569 18.2466 53.2994 17.9409 53.1267 17.8262C53.0308 17.7498 52.8582 17.6734 52.7048 17.6734C52.6281 17.6734 52.5705 17.6925 52.4938 17.7307C52.302 17.8454 52.1677 17.9791 52.0335 18.1128L52.0143 18.1319C51.4197 18.7242 50.8443 19.3165 50.2497 19.8897L50.0196 20.119C49.3099 20.826 48.6194 21.5329 47.9098 22.2398C47.5262 22.622 47.2385 22.7939 47.0083 22.7939C46.7782 22.7939 46.5096 22.6411 46.1452 22.278C45.9534 22.087 45.7616 21.8959 45.5698 21.7048C45.1862 21.3227 44.8026 20.9406 44.3998 20.5585C44.2464 20.4247 44.0738 20.3865 43.9203 20.3483C43.8628 20.3292 43.8053 20.3292 43.7669 20.3101L43.2874 20.1572L43.3833 20.654Z" fill="white"/>
</g>
</svg>
