<svg width="63" height="63" viewBox="0 0 63 63" fill="none" xmlns="http://www.w3.org/2000/svg">
<g id="Group 1000001741">
<path id="Vector" d="M50.6462 62.7915C50.5464 62.7584 50.4466 62.7087 50.3303 62.7087C47.2376 62.3112 44.6438 60.837 42.6652 58.3194C42.4158 58.0047 41.9502 57.8391 41.6176 57.8391C39.9217 57.8225 38.2423 57.8225 36.829 57.8225H31.8077C31.3421 57.8225 30.8599 57.8225 30.3943 57.8225C30.2114 57.8225 29.7459 57.7728 29.6628 57.425C29.5796 57.0606 29.6295 56.6631 29.7293 56.5306C29.8623 56.3649 30.2613 56.1993 30.5773 56.1993C32.3896 56.1827 34.1521 56.1662 35.6485 56.1662C36.297 56.1662 40.0547 56.1662 40.0547 56.1662C40.221 56.1662 40.3706 56.1496 40.5203 56.1496C40.5868 56.1496 40.6366 56.1496 40.6865 56.1331L41.1687 56.1165L40.2376 51.8597H7.24942C6.18529 51.8597 5.96914 51.6444 5.96914 50.6175C5.96914 41.1101 5.96914 31.6194 5.96914 22.112C5.96914 21.1017 6.18528 20.8863 7.19953 20.8863H52.7744C53.8219 20.8863 54.0215 21.0851 54.0215 22.1451V40.3317L58.3113 42.1205V16.5799H11.4394C11.3729 16.5799 11.3064 16.5799 11.2399 16.5799C11.1734 16.5799 11.1235 16.5799 11.057 16.5799C10.9406 16.5799 10.8575 16.5799 10.7744 16.5633C10.2922 16.5302 9.94301 16.1824 9.95964 15.7186C9.95964 15.2879 10.2922 14.9567 10.7577 14.907C10.8409 14.907 10.924 14.8904 11.0404 14.8904C11.1069 14.8904 11.1568 14.8904 11.2233 14.8904C11.2898 14.8904 11.3563 14.8904 11.4228 14.8904H58.3445V12.7041C58.3445 11.3127 58.3445 9.97111 58.3445 8.61292C58.3445 7.28786 57.6628 6.60876 56.3326 6.60876C55.202 6.60876 54.0714 6.60876 52.9573 6.60876C51.5108 6.60876 50.0476 6.60876 48.601 6.60876H48.1022C47.9858 6.60876 47.8694 6.60876 47.7364 6.62532C47.6699 6.62532 47.62 6.64189 47.5369 6.64189L47.1378 6.65845V7.05597C47.1378 7.20504 47.1378 7.33755 47.1378 7.48662V7.50318C47.1378 7.80132 47.1378 8.0829 47.1378 8.38104C47.0713 10.1864 45.6082 11.5943 43.8124 11.5943H43.7792C41.9834 11.5778 40.5535 10.1699 40.5036 8.36447C40.5036 8.08289 40.5036 7.80132 40.5036 7.50318C40.5036 7.35411 40.5036 7.2216 40.5036 7.07253V6.65845H19.4703V7.07253C19.4703 7.20504 19.4703 7.33755 19.4703 7.47005C19.4703 7.75163 19.4703 8.00008 19.4703 8.26509C19.4371 10.1202 17.9739 11.5778 16.1615 11.5778C14.3326 11.5778 12.8694 10.1367 12.8361 8.28165C12.8361 8.01664 12.8361 7.75163 12.8361 7.47005C12.8361 7.47005 12.8361 7.17192 12.8361 7.02285V6.60876H7.06652C5.96913 6.60876 4.85512 6.60876 3.75773 6.60876C2.29455 6.60876 1.66271 7.23817 1.66271 8.7123C1.66271 23.818 1.66271 38.9403 1.66271 54.0461C1.66271 55.5036 2.29454 56.1331 3.77436 56.1331H19.8528C19.9027 56.1331 19.9692 56.1331 20.019 56.1331C20.0689 56.1331 20.1188 56.1331 20.1687 56.1331C20.2518 56.1331 20.3682 56.1331 20.468 56.1496C20.8837 56.1993 21.1996 56.5803 21.1996 56.9778C21.1829 57.3753 20.8836 57.7231 20.4846 57.7728C20.4015 57.7894 20.3183 57.7894 20.2352 57.7894H20.0523H10.3753C8.11403 57.7894 5.85274 57.7894 3.60808 57.7894C1.41331 57.7894 0 56.3815 0 54.1951C0 38.9735 0 23.7683 0 8.54667C0 6.37687 1.42993 4.96899 3.62471 4.96899C4.70547 4.96899 5.76961 4.96899 6.85037 4.96899H12.8528V4.55491C12.8528 4.40584 12.8528 4.25677 12.8528 4.1077C12.8528 3.80956 12.8528 3.56111 12.8528 3.31266C12.886 1.45757 14.3492 0 16.1615 0C17.9905 0 19.4537 1.44101 19.487 3.2961C19.487 3.57768 19.487 3.84269 19.487 4.12427C19.487 4.25677 19.487 4.38928 19.487 4.50522V4.9193H40.5203V4.50522C40.5203 4.35615 40.5203 4.22365 40.5203 4.09114C40.5203 3.80956 40.5203 3.56112 40.5203 3.2961C40.5535 1.44101 42.0167 0 43.8457 0C45.6747 0 47.1378 1.45757 47.1711 3.31266C47.1711 3.57767 47.1711 3.85925 47.1711 4.14083C47.1711 4.27333 47.1711 4.4224 47.1711 4.55491V4.96899H56.1331C58.7103 4.96899 60.0072 6.27749 60.0072 8.86137V13.4494C60.0072 23.1555 60.0072 33.1763 60.0239 43.1474C60.0239 43.5615 60.1901 44.0418 60.4728 44.3897C61.5868 45.8307 62.335 47.3214 62.7174 48.9943C62.784 49.309 62.8505 49.6237 62.917 49.9218C62.9502 50.0543 62.9669 50.1868 63.0001 50.3193V52.7044L62.9835 52.7376C62.9502 52.8204 62.9003 52.9363 62.8837 53.0523C62.1189 57.5409 59.5749 60.6051 55.3018 62.1952C54.7863 62.394 54.2376 62.5099 53.6557 62.6259C53.3896 62.6756 53.1402 62.7418 52.8908 62.7915H50.6462ZM51.677 41.9217C49.0998 41.9217 46.6889 42.9321 44.8599 44.7375C43.0309 46.5595 42.0333 48.9777 42.0333 51.545C42.0499 56.8121 46.3564 61.1186 51.6438 61.1352H51.6604C56.9811 61.1352 61.3041 56.8287 61.3041 51.5285C61.3041 48.9611 60.3065 46.5595 58.4775 44.7375C56.6818 42.9321 54.2542 41.9217 51.677 41.9217ZM7.68173 50.1868H15.1972V42.1039H7.68173V50.1868ZM35.4822 50.1868H40.4371L40.5036 49.839C40.8362 47.868 41.5013 46.2944 42.5155 45.0191C43.1307 44.2406 43.0975 43.4787 43.0642 42.7499C43.0642 42.6671 43.0642 42.5843 43.0476 42.5015L43.0309 42.1039H35.4822V50.1868ZM26.2209 50.1703H33.753V42.0874H26.2209V50.1703ZM16.9264 50.1537H24.4751V42.0708H16.9264V50.1537ZM35.4656 40.3648H43.0309V32.4144H35.4656V40.3648ZM7.64847 40.3648H15.1805V32.3978H7.64847V40.3648ZM26.2376 40.3482H33.7697V32.3978H26.2376V40.3482ZM16.9264 40.3482H24.4917V32.4144H16.9264V40.3482ZM44.7934 40.3151H52.3089V32.3978H44.7934V40.3151ZM16.943 30.6918H24.4751V22.5924H16.943V30.6918ZM44.7934 30.6752H52.3089V22.5758H44.7934V30.6752ZM7.64847 30.6752H15.1805V22.5924H7.64847V30.6752ZM26.2376 30.6587H33.7697V22.5758H26.2376V30.6587ZM35.4822 30.6587H43.0476V22.5758H35.4822V30.6587ZM16.1117 1.68946C15.1639 1.70602 14.4988 2.45137 14.4988 3.46174C14.4822 5.01869 14.4822 6.60876 14.4988 8.16571C14.4988 9.19264 15.1639 9.92142 16.1117 9.95455H16.1615C17.1093 9.95455 17.8076 9.2092 17.8243 8.18228C17.8243 7.63569 17.8243 7.07254 17.8243 6.5922C17.8243 6.36031 17.8243 6.12842 17.8243 5.89654C17.8243 5.64809 17.8243 5.4162 17.8243 5.16775C17.8243 4.6046 17.8243 4.04145 17.8243 3.47829C17.8076 2.45137 17.1093 1.70602 16.1615 1.70602L16.1117 1.68946ZM43.8291 1.68946C42.8813 1.68946 42.1996 2.41824 42.1663 3.41204C42.1497 3.97519 42.1663 4.53835 42.1663 5.06837C42.1663 5.30026 42.1663 5.53215 42.1663 5.76403C42.1663 6.01248 42.1663 6.26093 42.1663 6.50938C42.1663 7.0891 42.1663 7.66881 42.1663 8.24853C42.183 9.22577 42.8647 9.93799 43.7958 9.95455H43.8291C44.7602 9.95455 45.4751 9.2092 45.4918 8.23197C45.5084 6.60876 45.5084 4.98556 45.4918 3.39548C45.4751 2.41824 44.7934 1.70602 43.8623 1.68946H43.8291Z" fill="white"/>
<path id="Vector_2" d="M5.80282 16.5799C5.58667 16.5799 5.38714 16.4971 5.22087 16.3315C5.0546 16.1659 4.97146 15.9671 4.97146 15.7518C4.97146 15.3211 5.35388 14.9402 5.78619 14.9402C6.01897 14.9402 6.2185 15.023 6.38477 15.1886C6.55104 15.3543 6.63417 15.553 6.63417 15.7683C6.61755 16.199 6.25175 16.5799 5.80282 16.5799Z" fill="white"/>
<path id="Vector_3" d="M25.3396 57.8225C24.8906 57.8225 24.5415 57.4581 24.5415 56.9944C24.5415 56.5306 24.8906 56.1828 25.3562 56.1662C25.5724 56.1662 25.8051 56.2656 25.9548 56.4312C26.1044 56.5969 26.2042 56.8122 26.1876 57.0109C26.1709 57.4581 25.7885 57.8225 25.3396 57.8225Z" fill="white"/>
<path id="Vector_4" d="M51.4442 54.9571C51.228 54.9571 50.9786 54.8246 50.696 54.5596C49.8646 53.748 49.0997 52.9861 48.3682 52.2407C48.0522 51.926 47.7862 51.4457 48.2684 50.9653C48.4347 50.7997 48.6176 50.7169 48.8171 50.7169C49.0665 50.7169 49.3159 50.8494 49.5653 51.0813C49.9145 51.4291 50.247 51.7769 50.6128 52.1579L50.6294 52.1745C50.7957 52.3401 50.9454 52.5223 51.1116 52.6879L51.4109 53.0026L52.8076 51.6113C53.639 50.7831 54.437 49.9881 55.2518 49.1765L55.3515 49.0771C55.4679 48.9612 55.5677 48.8618 55.6674 48.779C55.8337 48.6465 56.0166 48.5802 56.2162 48.5802C56.4323 48.5802 56.6485 48.663 56.7981 48.8287C57.0974 49.1434 57.114 49.574 56.8313 49.9053C56.5986 50.1869 56.3325 50.4353 56.0499 50.7003C55.9501 50.7997 55.8504 50.8825 55.7672 50.9819L54.9857 51.7604C54.0713 52.6714 53.1401 53.6155 52.209 54.5264C51.8931 54.8246 51.6603 54.9571 51.4442 54.9571Z" fill="white"/>
</g>
</svg>
