<svg width="89" height="89" viewBox="0 0 89 89" fill="none" xmlns="http://www.w3.org/2000/svg">
<g clip-path="url(#clip0_405_3159)">
<path d="M50.3801 13.9858C47.9867 13.217 45.6524 12.4482 43.318 11.709C43.0816 11.6203 42.8452 11.5612 42.6089 11.4725C41.9292 11.2359 41.5156 10.7924 41.486 10.0532C41.4565 9.314 41.8997 8.84091 42.5498 8.5748C44.7659 7.71732 46.982 6.88942 49.1982 6.03194C54.1919 4.13958 59.156 2.24722 64.1201 0.325297C65.1543 -0.0886562 66.0112 -0.0886562 67.0454 0.354865C73.8711 3.16384 80.7264 5.94324 87.5816 8.75221C88.0544 8.95918 88.5863 9.314 88.8227 9.75752C89.1772 10.408 88.9704 11.2359 88.2612 11.502C87.3748 11.8273 87.4339 12.3891 87.4339 13.0692C87.4339 19.2193 87.4339 25.3695 87.4339 31.4901C87.4339 31.8153 87.4339 32.1701 87.4339 32.5545C86.4292 32.5545 85.5132 32.5545 84.5086 32.5545C84.5086 31.3718 84.5086 30.1891 84.5086 28.829C83.3857 30.0708 82.3811 31.224 81.3469 32.3476C80.3718 31.3718 79.7217 30.7213 79.0421 30.0708C80.6673 28.415 82.2334 26.7887 83.8585 25.1921C84.3017 24.7486 84.479 24.305 84.479 23.6545C84.4495 20.0768 84.479 16.4991 84.479 12.7735C83.0607 13.2466 81.6719 13.6605 80.3423 14.1632C80.165 14.2223 80.0468 14.725 80.0468 15.0206C80.0172 17.5931 80.0468 20.1359 80.0468 22.7084C80.0468 25.3695 78.7466 27.1436 76.2055 27.9419C73.2211 28.8881 70.2071 29.8047 67.1932 30.7509C65.8931 31.1648 64.5929 31.1648 63.2928 30.7509C60.3084 29.8047 57.2944 28.9177 54.2805 28.001C51.7393 27.2323 50.4097 25.4582 50.4097 22.7971C50.3801 19.8698 50.3801 16.9426 50.3801 13.9858ZM77.0624 15.2276C76.6782 15.3459 76.3828 15.4346 76.0873 15.5233C73.0438 16.4991 70.0003 17.5339 66.9272 18.421C66.159 18.6575 65.2134 18.6575 64.4452 18.421C61.6676 17.6226 58.9196 16.6765 56.1716 15.7894C55.2556 15.4937 54.3692 15.2276 53.3645 14.9319C53.3645 17.6226 53.3645 20.2246 53.3645 22.8266C53.3645 24.1276 53.8373 24.7486 55.0783 25.1329C58.2104 26.0791 61.313 27.0253 64.4452 27.9715C64.8589 28.0897 65.3907 28.208 65.8044 28.0897C69.1138 27.114 72.3937 26.0791 75.7031 25.0442C76.5896 24.7781 77.0624 24.0685 77.0624 23.1519C77.0919 20.5499 77.0624 17.9479 77.0624 15.2276ZM79.574 8.90005C79.574 8.84091 79.574 8.78178 79.574 8.72264C75.0235 6.88942 70.4731 5.05619 65.9226 3.25254C65.6271 3.13427 65.1839 3.22297 64.8884 3.34124C59.3333 5.41101 53.8077 7.51035 48.2822 9.58012C48.0753 9.66882 47.8685 9.78709 47.5434 9.93493C53.5418 11.8569 59.3628 13.7196 65.2134 15.5824C65.568 15.7007 66.0112 15.5824 66.3658 15.4642C69.7639 14.3997 73.1915 13.3057 76.5896 12.2117C76.7964 12.1525 76.9737 12.0638 77.151 11.9751C74.8758 11.8569 72.6597 11.8864 70.4435 11.8569C69.823 11.8569 69.498 12.0343 69.1729 12.5961C68.0501 14.6067 65.568 15.3755 63.4996 14.4293C61.4608 13.4831 60.4266 11.1177 61.1653 8.98875C61.7858 7.21467 63.0564 6.17978 64.918 5.97281C66.8091 5.76583 68.2569 6.59374 69.2616 8.21998C69.4389 8.48609 69.7344 8.87048 69.9707 8.87048C73.162 8.90005 76.3828 8.90005 79.574 8.90005ZM65.3612 8.90005C64.5634 8.90005 63.9133 9.55055 63.8838 10.3489C63.8838 11.1472 64.5043 11.8273 65.3021 11.8569C66.1294 11.8864 66.8386 11.1768 66.8386 10.3489C66.8386 9.58011 66.159 8.90005 65.3612 8.90005Z" fill="white"/>
<path d="M35.6355 84.5647C35.0149 87.7285 33.4784 88.9704 30.3167 88.9704C21.8954 88.9704 13.4741 88.9704 5.05279 88.9704C1.83201 88.9704 0 87.1667 0 83.9438C0 78.9764 0 74.0089 0 69.0415C0 65.8777 1.27058 64.3402 4.40272 63.7192C4.69821 61.5016 5.82105 59.9641 8.09628 59.4318C8.50996 59.3431 8.95319 59.3431 9.39641 59.3431C17.9655 59.3431 26.5641 59.3431 35.1331 59.3431C38.1766 59.3431 40.0382 61.2059 40.0382 64.2514C40.0382 69.3372 40.0382 74.4524 40.0382 79.5382C40.0086 82.4358 38.5903 84.0916 35.6355 84.5647ZM17.8177 86.0136C22.1318 86.0136 26.4754 86.0136 30.7895 86.0136C32.1487 86.0136 32.6806 85.5405 32.6806 84.2099C32.6806 79.0059 32.6806 73.8315 32.6806 68.6275C32.6806 67.3265 32.1783 66.7943 30.9077 66.7943C22.1909 66.7943 13.5037 66.7943 4.78685 66.7943C3.51627 66.7943 2.9844 67.3561 2.9844 68.6275C2.9844 73.7428 3.01394 78.8877 3.04349 84.0029C3.04349 85.5109 3.54582 85.984 5.05279 86.0136C9.27822 86.0136 13.5627 86.0136 17.8177 86.0136ZM7.44621 63.7784C7.85989 63.7784 8.18493 63.7784 8.53951 63.7784C15.8971 63.7784 23.2251 63.7784 30.5827 63.7784C33.833 63.7784 35.6355 65.5524 35.6355 68.8049C35.6355 72.7375 35.6355 76.6405 35.6355 80.573C35.6355 80.8983 35.665 81.2235 35.6946 81.5488C36.8765 81.2827 37.1424 80.5435 37.1424 79.5973C37.1424 74.482 37.1424 69.3372 37.1424 64.2219C37.1424 62.7435 36.6697 62.3 35.1922 62.3C31.2623 62.3 27.3619 62.3 23.4319 62.3C18.7337 62.3 14.0355 62.3 9.36687 62.3C8.15538 62.3 7.77125 62.5956 7.44621 63.7784Z" fill="white"/>
<path d="M7.35757 2.95681C7.56441 0 7.56441 0 10.4011 0C13.6218 0 16.8426 0 20.0339 0C21.8068 0 22.2204 0.384385 22.2204 2.15847C22.2204 2.39502 22.2204 2.63156 22.2204 2.95681C24.082 2.95681 25.8549 2.95681 27.6574 2.95681C29.1643 2.95681 29.6371 3.4299 29.6371 4.96744C29.6371 16.499 29.6371 28.001 29.6371 39.5326C29.6371 41.0405 29.1643 41.5432 27.6574 41.5432C19.1179 41.5432 10.5488 41.5432 2.0093 41.5432C0.472776 41.5432 0 41.0701 0 39.5621C0 28.001 0 16.4399 0 4.90831C0 3.45947 0.502324 2.95681 1.9502 2.95681C3.72311 2.95681 5.52556 2.95681 7.35757 2.95681ZM3.01394 38.4977C10.9329 38.4977 18.7928 38.4977 26.6527 38.4977C26.6527 27.6166 26.6527 16.8243 26.6527 6.00233C25.1753 6.00233 23.757 6.00233 22.25 6.00233C22.25 6.50498 22.2795 6.97807 22.25 7.42159C22.1909 8.30864 21.659 8.9 20.7726 8.9C16.8131 8.92957 12.8831 8.92957 8.92364 8.9C8.03718 8.9 7.50531 8.30864 7.44622 7.42159C7.41667 6.9485 7.44622 6.47542 7.44622 5.97276C5.90969 5.97276 4.49137 5.97276 3.04349 5.97276C3.01394 16.8243 3.01394 27.6166 3.01394 38.4977ZM19.2361 3.04552C16.2517 3.04552 13.3559 3.04552 10.4602 3.04552C10.4602 4.05083 10.4602 4.99701 10.4602 5.88405C13.415 5.88405 16.3108 5.88405 19.2361 5.88405C19.2361 4.90831 19.2361 4.02126 19.2361 3.04552Z" fill="white"/>
<path d="M70.3254 88.9704C64.8589 88.9704 59.3924 88.9704 53.926 88.9704C53.1577 88.9704 52.4485 88.9112 52.0349 88.1129C51.6507 87.3441 52.0349 86.7528 52.4781 86.1614C53.6305 84.6534 54.7533 83.175 55.8466 81.6375C56.1125 81.2827 56.2898 80.7505 56.2898 80.3069C56.3194 74.9551 56.3194 69.6033 56.3194 64.281C56.3194 62.7435 56.7922 62.2704 58.2991 62.2704C66.3659 62.2704 74.403 62.2704 82.4698 62.2704C84.0063 62.2704 84.4791 62.7435 84.4791 64.2514C84.4791 69.5441 84.4495 74.8073 84.5086 80.1C84.5086 80.6913 84.7746 81.3418 85.0996 81.8445C86.1633 83.382 87.2862 84.8308 88.409 86.3093C88.8227 86.8415 89.0886 87.4033 88.7636 88.1129C88.409 88.8225 87.8181 89 87.0793 89C81.4947 88.9704 75.91 88.9704 70.3254 88.9704ZM59.3333 80.0112C66.75 80.0112 74.1076 80.0112 81.4356 80.0112C81.4356 75.0438 81.4356 70.1651 81.4356 65.2863C74.0189 65.2863 66.6909 65.2863 59.3333 65.2863C59.3333 70.2242 59.3333 75.0734 59.3333 80.0112ZM56.3785 85.9544C65.7749 85.9544 75.0531 85.9544 84.42 85.9544C83.7404 85.0378 83.1494 84.2099 82.4993 83.4412C82.322 83.2342 81.9379 83.0863 81.6424 83.0863C74.1371 83.0568 66.6613 83.0568 59.156 83.0863C58.8606 83.0863 58.4764 83.2342 58.2991 83.4412C57.6491 84.1804 57.0581 85.0378 56.3785 85.9544Z" fill="white"/>
<path d="M41.5747 71.2296C42.5498 71.2296 43.4658 71.2296 44.4114 71.2296C44.4114 72.2054 44.4114 73.122 44.4114 74.1273C43.4658 74.1273 42.5498 74.1273 41.5747 74.1273C41.5747 73.1811 41.5747 72.2349 41.5747 71.2296Z" fill="white"/>
<path d="M45.9775 71.2296C46.9526 71.2296 47.8686 71.2296 48.8437 71.2296C48.8437 72.1758 48.8437 73.122 48.8437 74.0977C47.8982 74.0977 46.9822 74.0977 45.9775 74.0977C45.9775 73.1515 45.9775 72.2349 45.9775 71.2296Z" fill="white"/>
<path d="M50.4392 74.0977C50.4392 73.1515 50.4392 72.2349 50.4392 71.2592C51.3848 71.2592 52.3008 71.2592 53.3054 71.2592C53.3054 72.2053 53.3054 73.1219 53.3054 74.0977C52.3599 74.0977 51.4439 74.0977 50.4392 74.0977Z" fill="white"/>
<path d="M34.0102 20.7272C33.0351 20.7272 32.1191 20.7272 31.144 20.7272C31.144 19.781 31.144 18.8644 31.144 17.8887C32.06 17.8887 33.0056 17.8887 34.0102 17.8887C34.0102 18.7757 34.0102 19.7219 34.0102 20.7272Z" fill="white"/>
<path d="M71.1824 59.2544C71.1824 58.2787 71.1824 57.3621 71.1824 56.4159C72.1575 56.4159 73.0735 56.4159 74.0781 56.4159C74.0781 57.3621 74.0781 58.2787 74.0781 59.2544C73.1326 59.2544 72.187 59.2544 71.1824 59.2544Z" fill="white"/>
<path d="M71.1824 51.9512C72.1575 51.9512 73.0735 51.9512 74.0486 51.9512C74.0486 52.8974 74.0486 53.8435 74.0486 54.8193C73.103 54.8193 72.1575 54.8193 71.1824 54.8193C71.1824 53.8731 71.1824 52.9565 71.1824 51.9512Z" fill="white"/>
<path d="M69.6162 51.9512C69.6162 52.9269 69.6162 53.814 69.6162 54.7897C68.6707 54.7897 67.7546 54.7897 66.75 54.7897C66.75 53.8435 66.75 52.9269 66.75 51.9512C67.6956 51.9512 68.6116 51.9512 69.6162 51.9512Z" fill="white"/>
<path d="M62.2881 54.7897C62.2881 53.8435 62.2881 52.9269 62.2881 51.9512C63.2632 51.9512 64.1792 51.9512 65.1838 51.9512C65.1838 52.8974 65.1838 53.7844 65.1838 54.7897C64.2383 54.7897 63.3223 54.7897 62.2881 54.7897Z" fill="white"/>
<path d="M40.0676 17.8296C41.0132 17.8296 41.9292 17.8296 42.9043 17.8296C42.9043 18.7462 42.9043 19.6924 42.9043 20.6977C41.9883 20.6977 41.0427 20.6977 40.0676 20.6977C40.0676 19.7515 40.0676 18.8349 40.0676 17.8296Z" fill="white"/>
<path d="M47.3662 17.8591C47.3662 18.8053 47.3662 19.7219 47.3662 20.6977C46.4502 20.6977 45.5046 20.6977 44.5 20.6977C44.5 19.7811 44.5 18.8349 44.5 17.8591C45.4751 17.8591 46.3911 17.8591 47.3662 17.8591Z" fill="white"/>
<path d="M35.606 20.6977C35.606 19.7515 35.606 18.8349 35.606 17.8591C36.5515 17.8591 37.4675 17.8591 38.4722 17.8591C38.4722 18.7757 38.4722 19.7219 38.4722 20.6977C37.5562 20.6977 36.6402 20.6977 35.606 20.6977Z" fill="white"/>
<path d="M13.356 45.8897C13.356 44.9139 13.356 44.0269 13.356 43.0807C14.3015 43.0807 15.2471 43.0807 16.2517 43.0807C16.2517 43.9973 16.2517 44.9435 16.2517 45.8897C15.2766 45.8897 14.3311 45.8897 13.356 45.8897Z" fill="white"/>
<path d="M16.2222 50.384C15.2766 50.384 14.3606 50.384 13.3855 50.384C13.3855 49.4083 13.3855 48.4916 13.3855 47.4863C14.331 47.4863 15.2471 47.4863 16.2222 47.4863C16.2222 48.4325 16.2222 49.3491 16.2222 50.384Z" fill="white"/>
<path d="M16.2517 51.9807C16.2517 52.9565 16.2517 53.8731 16.2517 54.8192C15.3061 54.8192 14.3901 54.8192 13.415 54.8192C13.415 53.9026 13.415 52.986 13.415 51.9807C14.331 51.9807 15.247 51.9807 16.2517 51.9807Z" fill="white"/>
<path d="M17.8472 51.9512C18.8223 51.9512 19.7383 51.9512 20.6838 51.9512C20.6838 52.9269 20.6838 53.8435 20.6838 54.8488C19.7383 54.8488 18.8223 54.8488 17.8472 54.8488C17.8472 53.9027 17.8472 52.9565 17.8472 51.9512Z" fill="white"/>
<path d="M25.1457 54.8193C24.2002 54.8193 23.2842 54.8193 22.3091 54.8193C22.3091 53.8731 22.3091 52.9565 22.3091 51.9512C23.2546 51.9512 24.1706 51.9512 25.1457 51.9512C25.1457 52.8974 25.1457 53.814 25.1457 54.8193Z" fill="white"/>
<path d="M26.7119 51.9512C27.687 51.9512 28.603 51.9512 29.5781 51.9512C29.5781 52.8974 29.5781 53.8435 29.5781 54.8193C28.6326 54.8193 27.7166 54.8193 26.7119 54.8193C26.7119 53.8731 26.7119 52.9565 26.7119 51.9512Z" fill="white"/>
<path d="M34.0102 54.8488C33.0351 54.8488 32.1487 54.8488 31.2031 54.8488C31.2031 53.9027 31.2031 52.9565 31.2031 51.9512C32.1191 51.9512 33.0647 51.9512 34.0102 51.9512C34.0102 52.9269 34.0102 53.9027 34.0102 54.8488Z" fill="white"/>
<path d="M35.606 54.7897C35.606 53.8435 35.606 52.9269 35.606 51.9512C36.5811 51.9512 37.4971 51.9512 38.5017 51.9512C38.5017 52.8974 38.5017 53.814 38.5017 54.7897C37.5562 54.7897 36.6402 54.7897 35.606 54.7897Z" fill="white"/>
<path d="M42.9043 54.8488C41.9292 54.8488 41.0427 54.8488 40.0972 54.8488C40.0972 53.9027 40.0972 52.9565 40.0972 51.9512C41.0132 51.9512 41.9587 51.9512 42.9043 51.9512C42.9043 52.9269 42.9043 53.9027 42.9043 54.8488Z" fill="white"/>
<path d="M44.5295 51.9216C45.5046 51.9216 46.3911 51.9216 47.3662 51.9216C47.3662 52.8678 47.3662 53.814 47.3662 54.8193C46.4502 54.8193 45.5342 54.8193 44.5295 54.8193C44.5295 53.8731 44.5295 52.9269 44.5295 51.9216Z" fill="white"/>
<path d="M51.8281 51.9512C51.8281 52.8974 51.8281 53.814 51.8281 54.7897C50.8826 54.7897 49.9666 54.7897 48.9619 54.7897C48.9619 53.8435 48.9619 52.9269 48.9619 51.9512C49.9075 51.9512 50.8235 51.9512 51.8281 51.9512Z" fill="white"/>
<path d="M53.394 54.8192C53.394 53.8731 53.394 52.9565 53.394 51.9807C54.3396 51.9807 55.2556 51.9807 56.2602 51.9807C56.2602 52.9269 56.2602 53.8435 56.2602 54.8192C55.3147 54.8192 54.4282 54.8192 53.394 54.8192Z" fill="white"/>
<path d="M60.7222 54.8193C59.7471 54.8193 58.8311 54.8193 57.856 54.8193C57.856 53.8731 57.856 52.9269 57.856 51.9512C58.8015 51.9512 59.7175 51.9512 60.7222 51.9512C60.7222 52.8974 60.7222 53.814 60.7222 54.8193Z" fill="white"/>
<path d="M7.44629 76.0787C8.39184 75.8718 9.30784 75.6648 10.2534 75.4283C11.4944 78.7103 13.7401 80.4844 17.345 79.8339C19.5612 79.4495 21.5114 76.9362 21.8068 74.2455C20.7727 75.103 19.7976 75.8718 18.7043 76.7588C18.1133 76.0196 17.5223 75.2804 16.8723 74.4525C17.8178 73.6837 18.7338 72.9741 19.6203 72.2349C20.5067 71.5253 21.3932 70.8156 22.3092 70.106C22.9592 69.5738 23.6684 69.4851 24.3185 70.0764C25.9141 71.5253 27.5097 73.0037 29.1644 74.5116C28.4848 75.2508 27.8347 75.9309 27.1551 76.6701C26.3869 75.99 25.6481 75.3395 24.9094 74.6595C23.1365 80.5435 20.093 83.2342 15.513 82.9977C11.6422 82.8498 8.15545 79.893 7.44629 76.0787Z" fill="white"/>
<path d="M4.46186 29.5682C4.46186 28.6515 4.43231 27.7054 4.46186 26.7887C4.49141 25.813 5.05283 25.2216 6.02793 25.2216C7.94858 25.1921 9.86923 25.1921 11.7603 25.2216C12.7354 25.2216 13.3264 25.813 13.3264 26.7887C13.356 28.7107 13.356 30.6326 13.3264 32.525C13.3264 33.5007 12.7354 34.0921 11.7603 34.0921C9.83968 34.1216 7.91903 34.1216 6.02793 34.0921C5.05283 34.0921 4.49141 33.5007 4.46186 32.525C4.43231 31.5492 4.46186 30.5439 4.46186 29.5682ZM10.3125 31.1057C10.3125 30.0708 10.3125 29.1838 10.3125 28.2376C9.33736 28.2376 8.39181 28.2376 7.47581 28.2376C7.47581 29.2429 7.47581 30.1595 7.47581 31.1057C8.45091 31.1057 9.36691 31.1057 10.3125 31.1057Z" fill="white"/>
<path d="M8.89413 11.8568C9.83968 11.8568 10.8148 11.8272 11.7603 11.8568C12.7354 11.8863 13.3264 12.4481 13.3264 13.4239C13.3559 15.3458 13.3559 17.2677 13.3264 19.1601C13.3264 20.1358 12.7354 20.7272 11.7603 20.7272C9.83968 20.7568 7.91903 20.7568 6.02793 20.7272C5.05283 20.7272 4.49141 20.1358 4.46186 19.1601C4.43231 17.2382 4.43231 15.3162 4.46186 13.4239C4.46186 12.4481 5.05283 11.8863 6.02793 11.8568C6.97348 11.8568 7.94858 11.8568 8.89413 11.8568ZM10.342 14.9023C9.33736 14.9023 8.39181 14.9023 7.50535 14.9023C7.50535 15.9076 7.50535 16.8242 7.50535 17.7704C8.48045 17.7704 9.39645 17.7704 10.342 17.7704C10.342 16.7946 10.342 15.878 10.342 14.9023Z" fill="white"/>
<path d="M15.4539 31.4014C16.0448 30.5735 16.5767 29.8047 17.1677 29.0064C17.8473 29.4794 18.4383 29.923 19.1474 30.4552C20.0043 28.9472 20.8021 27.4984 21.6886 25.9313C22.5455 26.4044 23.3433 26.8775 24.2593 27.3801C23.6092 28.5333 23.0183 29.6273 22.3977 30.6917C21.925 31.5492 21.4522 32.4363 20.9203 33.2642C20.3885 34.1216 19.6202 34.299 18.7928 33.7373C17.6995 33.0276 16.6358 32.2293 15.4539 31.4014Z" fill="white"/>
<path d="M15.4539 18.0365C16.0153 17.2382 16.5472 16.499 17.1677 15.6415C17.8473 16.1146 18.4678 16.5877 19.177 17.0903C20.0339 15.5528 20.8612 14.1039 21.7181 12.5664C22.6046 13.0691 23.4024 13.5422 24.2888 14.0448C23.1365 16.085 22.0432 18.0956 20.8908 20.0471C20.4771 20.7568 19.6497 20.9342 18.9406 20.4907C17.7586 19.7219 16.6358 18.894 15.4539 18.0365Z" fill="white"/>
<path d="M78.5103 75.6943C78.5103 76.6701 78.5103 77.5867 78.5103 78.5329C72.6302 78.5329 66.7796 78.5329 60.8403 78.5329C60.8403 77.6163 60.8403 76.6997 60.8403 75.6943C66.6909 75.6943 72.5711 75.6943 78.5103 75.6943Z" fill="white"/>
<path d="M78.5103 71.2592C78.5103 72.2349 78.5103 73.1515 78.5103 74.0977C72.6006 74.0977 66.7205 74.0977 60.8108 74.0977C60.8108 73.1515 60.8108 72.2349 60.8108 71.2592C66.6909 71.2592 72.5415 71.2592 78.5103 71.2592Z" fill="white"/>
<path d="M74.0485 69.6624C69.6162 69.6624 65.2726 69.6624 60.8108 69.6624C60.8108 68.7162 60.8108 67.7701 60.8108 66.7943C65.2135 66.7943 69.5867 66.7943 74.0485 66.7943C74.0485 67.7405 74.0485 68.6571 74.0485 69.6624Z" fill="white"/>
</g>
<defs>
<clipPath id="clip0_405_3159">
<rect width="89" height="89" fill="white"/>
</clipPath>
</defs>
</svg>
