<svg width="13" height="13" viewBox="0 0 13 13" fill="none" xmlns="http://www.w3.org/2000/svg">
<path id="Vector" d="M3.46984 5.90067L5.83949 0.507782C6.31084 0.507782 6.76289 0.697174 7.09618 1.03429C7.42948 1.37142 7.61672 1.82865 7.61672 2.30541V4.70225H10.9698C11.1415 4.70028 11.3116 4.73611 11.4683 4.80724C11.625 4.87838 11.7646 4.98312 11.8773 5.11421C11.99 5.24531 12.0731 5.39962 12.121 5.56646C12.1689 5.7333 12.1804 5.90867 12.1546 6.08043L11.3371 11.4733C11.2942 11.7591 11.1507 12.0196 10.933 12.2068C10.7153 12.3939 10.438 12.4952 10.1522 12.492H3.46984M3.46984 5.90067V12.492M3.46984 5.90067H1.6926C1.37837 5.90067 1.07701 6.02693 0.854808 6.25168C0.632611 6.47642 0.507782 6.78125 0.507782 7.09909V11.2936C0.507782 11.6114 0.632611 11.9162 0.854808 12.141C1.07701 12.3657 1.37837 12.492 1.6926 12.492H3.46984" stroke="#262D4C" stroke-linecap="round" stroke-linejoin="round"/>
</svg>
