<svg width="17" height="21" viewBox="0 0 17 21" fill="none" xmlns="http://www.w3.org/2000/svg">
<g id="Frame" clip-path="url(#clip0_390_4392)">
<path id="Vector" d="M8.53896 0.801758C4.23021 0.801758 0.783203 4.32848 0.783203 8.65672C0.783203 10.901 1.7233 12.9048 3.13343 14.3476L8.53896 19.8781L13.9445 14.3476C15.3546 12.9048 16.2947 10.901 16.2947 8.65672C16.2164 4.32848 12.7694 0.801758 8.53896 0.801758ZM8.53896 11.6224C6.97214 11.6224 5.71869 10.3399 5.71869 8.73687C5.71869 7.13382 6.97214 5.85138 8.53896 5.85138C10.1058 5.85138 11.3592 7.13382 11.3592 8.73687C11.3592 10.3399 10.1058 11.6224 8.53896 11.6224Z" stroke="#72B756" stroke-width="2" stroke-miterlimit="10"/>
</g>
<defs>
<clipPath id="clip0_390_4392">
<rect width="17" height="21" fill="white"/>
</clipPath>
</defs>
</svg>
