<svg width="75" height="74" viewBox="0 0 75 74" fill="none" xmlns="http://www.w3.org/2000/svg">
<g clip-path="url(#clip0_405_3202)">
<path d="M43.7909 51.8788C45.1916 52.3961 46.5677 52.9134 47.9439 53.4307C48.5582 52.5439 48.9023 51.6325 48.2388 50.5239C47.6981 49.6125 47.821 49.2676 48.5828 48.5286C49.2955 47.8142 50.0327 47.1245 50.7208 46.3854C51.2368 45.8435 51.8266 45.6464 52.4655 46.0406C53.3993 46.6071 54.2348 46.5579 55.2669 46.0898C56.2008 45.6711 56.8151 45.203 57.0363 44.193C57.2083 43.4294 57.7489 43.0845 58.5353 43.1091C59.592 43.1338 60.6487 43.1338 61.7054 43.1091C62.4426 43.1091 62.9586 43.4048 63.1798 44.1438C63.2289 44.3162 63.3272 44.464 63.3518 44.6364C63.5238 45.3262 63.917 45.7942 64.6297 45.9174C64.6788 45.9174 64.728 45.942 64.7771 45.9667C65.8092 46.6811 66.8413 46.6564 67.898 45.9913C68.4386 45.6711 68.9547 45.8681 69.397 46.3115C70.1834 47.1245 70.9943 47.9374 71.8053 48.7257C72.2968 49.2183 72.4688 49.8342 72.0756 50.3761C70.9698 51.8542 72.1002 53.0366 72.5179 54.2929C72.6162 54.5885 73.2306 54.7117 73.5992 54.8595C74.877 55.3522 74.9753 55.5 74.9753 56.8548C74.9753 57.7909 74.9508 58.727 74.9753 59.6631C74.9999 60.4267 74.705 60.9687 73.9678 61.1411C72.8865 61.3874 72.3705 62.0526 71.9527 63.0872C71.5841 64.0233 71.4858 64.7623 72.0019 65.5998C72.4442 66.3142 72.2968 66.9793 71.6578 67.5459C70.9452 68.211 70.2571 68.9254 69.569 69.6398C68.8564 70.3542 68.4632 70.4773 67.554 69.9846C66.6939 69.5166 66.0058 69.6151 65.1211 69.96C64.0645 70.3788 63.3764 70.8961 63.1306 72.0293C62.9832 72.6451 62.5163 72.9653 61.8528 73.0146C61.6316 73.0146 61.435 73.2609 61.2139 73.3841C60.8207 73.6058 60.4275 73.8275 60.0097 74.0246C59.936 74.0739 59.8131 74.0246 59.7149 74.0246C44.8476 74.0246 29.9803 74.0246 15.113 74.0246C14.9901 74.0246 14.8672 74.0246 14.7443 74.0246C13.8597 73.9753 13.3682 73.3841 13.4911 72.4973C15.0638 62.2743 20.7158 55.5 30.4717 52.1744C30.6683 52.1005 30.8403 52.0512 31.1107 51.9527C26.9331 49.2922 24.6477 45.5725 24.6231 40.6211C24.6231 37.0246 26.0238 33.9207 28.6287 31.4573C33.8875 26.4567 42.2673 26.9001 47.0101 32.3195C52.1215 38.1085 51.0894 47.5186 43.7909 51.8788ZM37.4016 51.0905C43.1274 51.1151 47.7719 46.484 47.7964 40.7689C47.821 35.0046 43.1765 30.3242 37.4508 30.3242C31.7742 30.3242 27.1051 34.98 27.0805 40.695C27.0805 46.4101 31.7004 51.0905 37.4016 51.0905ZM36.1483 71.5119C35.9272 71.241 35.7797 71.0685 35.6323 70.8715C34.1578 69.1964 32.708 67.5213 31.209 65.8954C30.6929 65.3289 30.57 64.7623 30.8158 64.0233C31.2335 62.8162 31.6021 61.5845 31.9953 60.3528C32.6834 58.2097 33.3469 56.0419 34.035 53.8741C24.8197 55.0073 17.1772 63.1364 16.1942 71.5366C22.8046 71.5119 29.4151 71.5119 36.1483 71.5119ZM58.7319 71.5119C57.3066 61.9786 49.1234 54.8595 40.8666 53.8495C40.9403 54.0958 40.9894 54.3422 41.0632 54.5639C42.0215 57.6185 42.9799 60.6731 43.9875 63.703C44.3069 64.6391 44.1841 65.3535 43.496 66.0925C41.997 67.6937 40.5717 69.3688 39.1218 71.0193C38.9989 71.1424 38.9006 71.3149 38.7778 71.4873C45.4865 71.5119 52.0969 71.5119 58.7319 71.5119ZM72.5671 57.0273C72.2968 56.9041 72.0265 56.7809 71.7316 56.707C70.8469 56.4853 70.38 55.9434 70.1834 55.0565C70.0114 54.3914 69.7411 53.7017 69.397 53.1105C68.9055 52.3222 68.8073 51.5585 69.2987 50.7703C69.6428 50.2283 69.6428 49.8095 69.1021 49.3415C68.5615 48.8735 68.1683 48.2822 67.3574 48.8735C66.6202 49.3908 65.8829 49.2922 65.1211 48.7996C64.5559 48.4547 63.917 48.1591 63.2535 48.0113C62.2706 47.7896 61.6562 47.2969 61.4596 46.3362C61.3122 45.5479 60.7961 45.5479 60.1818 45.5479C59.5674 45.5479 58.9776 45.474 58.8302 46.3362C58.6582 47.2969 58.0192 47.7896 57.0363 48.0359C56.3236 48.2083 55.611 48.5532 54.9721 48.9227C54.3331 49.2922 53.7188 49.3908 53.129 48.972C52.3181 48.4054 51.7774 48.6764 51.1631 49.3415C50.7453 49.8095 50.5979 50.1544 50.9419 50.6964C51.458 51.5093 51.458 52.2976 50.8682 53.0858C50.5979 53.4554 50.4504 53.8988 50.3276 54.3175C50.2784 54.49 50.3276 54.7856 50.4504 54.8841C51.1385 55.4014 51.8266 55.8695 52.5392 56.3621C54.4069 51.731 57.5032 49.711 61.5579 50.45C65.1703 51.1151 67.8489 54.2683 67.8734 57.988C67.8734 59.7862 67.3328 61.4121 66.2024 62.8408C64.5559 64.9101 62.3443 65.7969 59.6903 65.7969C59.9852 66.6098 60.2555 67.3488 60.5012 68.0878C60.747 68.8515 60.919 69.6151 61.1647 70.5512C61.3367 70.1571 61.435 69.9354 61.5088 69.689C61.7299 68.8022 62.2951 68.3095 63.2044 68.0878C63.8679 67.94 64.5068 67.6691 65.072 67.3242C65.9075 66.7822 66.6939 66.7576 67.5294 67.2503C67.7506 67.3735 68.1437 67.5705 68.2666 67.472C68.7335 67.1025 69.2004 66.6837 69.5445 66.191C69.6673 65.994 69.4462 65.5259 69.2742 65.2303C68.8564 64.4667 68.9301 63.7769 69.3725 63.0379C69.7902 62.2989 69.9868 61.4367 70.3554 60.6731C70.552 60.2543 70.896 59.7862 71.2892 59.5892C72.6162 58.9241 72.6408 58.9733 72.6162 57.4953C72.5917 57.3721 72.5671 57.2243 72.5671 57.0273ZM60.5258 52.741C57.2329 52.741 54.8738 55.0319 54.8492 57.8894C54.8492 58.2589 55.0212 58.6777 55.2178 58.9733C56.0779 60.1804 56.9871 61.3628 57.8964 62.5452C58.1175 62.8162 58.437 63.0872 58.7565 63.1857C60.919 63.703 62.762 63.1118 64.1628 61.4121C65.5389 59.7123 65.7601 57.7909 64.8263 55.7956C63.9416 53.8002 62.2951 52.8395 60.5258 52.741ZM37.4508 69.2703C38.8023 67.7183 40.1539 66.2403 41.4318 64.7376C41.5792 64.5652 41.5546 64.1711 41.4809 63.9247C40.4734 60.6484 39.4167 57.3968 38.4092 54.1205C38.2371 53.5785 37.9422 53.5046 37.4753 53.5293C37.033 53.5539 36.689 53.5293 36.517 54.0958C35.5094 57.4214 34.4282 60.7223 33.396 64.0479C33.3223 64.2696 33.396 64.6637 33.5435 64.8362C34.7968 66.3142 36.0746 67.743 37.4508 69.2703Z" fill="white"/>
<path d="M12.7539 25.767C5.75033 25.767 0 20.0273 0 13.0067C0 5.93678 5.75033 0.172466 12.7785 0.1971C19.7821 0.221734 25.5079 5.98605 25.5079 13.0067C25.5079 20.0273 19.7575 25.767 12.7539 25.767ZM2.40826 12.9821C2.40826 18.6971 7.05275 23.3529 12.7539 23.3283C18.4305 23.3529 23.0996 18.6725 23.0996 12.9821C23.0996 7.29164 18.4305 2.61121 12.7539 2.61121C7.07733 2.61121 2.40826 7.29164 2.40826 12.9821Z" fill="white"/>
<path d="M62.4672 25.5699C55.611 25.8655 49.7133 20.3229 49.4184 13.3022C49.0989 6.38013 54.5544 0.344843 61.3859 0.024603C68.5124 -0.295637 74.5822 5.1238 74.8525 12.0213C75.1474 19.4114 69.8148 25.2496 62.4672 25.5699ZM51.8021 12.7849C51.8266 18.5246 56.4466 23.1558 62.1477 23.1311C67.8489 23.1065 72.4688 18.4753 72.4443 12.7603C72.4443 7.02061 67.8243 2.41408 62.0986 2.41408C56.3974 2.43872 51.8021 7.06988 51.8021 12.7849Z" fill="white"/>
<path d="M13.9579 39.414C16.3662 39.414 18.6516 39.414 20.937 39.414C21.1827 39.414 21.453 39.3894 21.6988 39.414C22.4114 39.4879 22.8783 39.9806 22.8537 40.6457C22.8292 41.3108 22.3623 41.8035 21.6496 41.8282C20.298 41.8528 18.9219 41.8282 17.5703 41.8282C16.0467 41.8282 14.4986 41.8282 12.975 41.8282C12.0166 41.8282 11.5497 41.3847 11.5497 40.4487C11.5251 36.6058 11.5251 32.7875 11.5497 28.9447C11.5497 28.0578 12.0657 27.5405 12.803 27.5652C13.5156 27.5898 13.9579 28.0825 13.9579 28.9693C13.9579 32.1471 13.9579 35.3248 13.9579 38.5026C13.9579 38.7736 13.9579 39.0445 13.9579 39.414Z" fill="white"/>
<path d="M60.9192 39.4141C60.9192 37.542 60.9192 35.793 60.9192 34.0193C60.9192 32.3442 60.9192 30.6938 60.9192 29.0187C60.9192 28.0826 61.3369 27.5899 62.0741 27.5653C62.8359 27.5406 63.3274 28.0826 63.3274 29.0433C63.3274 32.8123 63.3274 36.5566 63.3274 40.3256C63.3274 41.4095 62.8851 41.8282 61.8038 41.8529C59.027 41.8529 56.2747 41.8529 53.4978 41.8529C52.5148 41.8529 51.9988 41.4341 51.9988 40.6705C51.9988 39.9068 52.5148 39.4388 53.4732 39.4388C55.9306 39.4141 58.3635 39.4141 60.9192 39.4141Z" fill="white"/>
<path d="M11.0337 11.8981C12.6064 10.3216 14.13 8.79427 15.6536 7.24234C16.4646 6.42942 17.4475 6.03528 18.6025 6.25699C19.8312 6.50332 20.6913 7.24234 21.0845 8.42476C21.5022 9.68109 21.2074 10.8389 20.2735 11.775C18.6762 13.4254 17.0789 15.0266 15.4816 16.6525C14.8427 17.2929 14.2038 17.9334 13.5648 18.5739C12.115 20.0027 10.2965 20.1505 8.77289 18.8202C7.44589 17.6378 6.21719 16.3815 5.03764 15.0759C3.90723 13.8442 4.05468 11.9474 5.20966 10.7403C6.36464 9.58255 8.18311 9.43475 9.48554 10.4447C9.97702 10.8635 10.4439 11.3562 11.0337 11.8981ZM11.0583 17.4161C11.3532 17.1944 11.6481 17.0466 11.8692 16.8249C14.0563 14.6571 16.2188 12.4647 18.4059 10.2969C18.5288 10.1738 18.7254 10.026 18.7254 9.90279C18.7254 9.55792 18.7254 9.11451 18.5288 8.8928C18.3813 8.72037 17.8899 8.76963 17.595 8.8189C17.3984 8.86817 17.2509 9.08987 17.0789 9.26231C15.3833 10.9374 13.7123 12.6371 12.0412 14.2876C11.2794 15.0266 10.7142 15.0266 9.95245 14.3122C9.36267 13.721 8.77289 13.1298 8.18311 12.5386C7.78993 12.1445 7.3476 12.0213 6.92984 12.4401C6.48751 12.8588 6.61038 13.3023 7.00356 13.6964C8.03567 14.731 9.06778 15.7656 10.1245 16.8003C10.3456 17.022 10.6897 17.1698 11.0583 17.4161Z" fill="white"/>
<path d="M57.5523 12.7356C56.8642 12.0952 56.2499 11.5532 55.6601 10.962C54.2348 9.53325 54.2103 7.48864 55.5373 6.15842C56.8642 4.82819 58.8793 4.85282 60.3292 6.28159C60.919 6.8728 61.4596 7.48864 62.1477 8.20302C62.8112 7.48864 63.3764 6.84816 63.9661 6.25695C65.3669 4.85282 67.3574 4.82819 68.6844 6.13378C70.0114 7.46401 70.0114 9.45935 68.6352 10.8881C68.0454 11.504 67.4311 12.0952 66.743 12.7603C67.3819 13.3761 67.9717 13.9427 68.5369 14.5339C69.9868 15.9873 70.0605 17.9827 68.7335 19.3375C67.4065 20.6924 65.3423 20.6431 63.8924 19.2143C63.3272 18.6478 62.7866 18.0566 62.0494 17.2683C61.3367 18.0566 60.7715 18.8202 60.0834 19.4607C58.2404 21.1604 55.3161 20.2982 54.6772 17.8595C54.3823 16.7017 54.6526 15.6424 55.4881 14.7803C56.1025 14.1398 56.766 13.5239 57.5523 12.7356ZM66.4236 18.0566C66.7184 17.8102 67.0871 17.6624 67.1362 17.4161C67.2099 17.0958 67.1362 16.6278 66.9396 16.4061C66.1287 15.4946 65.244 14.6817 64.4085 13.8195C63.6958 13.1052 63.6958 12.4893 64.3593 11.7996C65.1703 10.962 66.0058 10.1491 66.8167 9.33618C67.3574 8.7696 67.4311 8.27693 66.9888 7.90742C66.4727 7.46401 66.0304 7.66108 65.6126 8.07986C64.8017 8.89277 63.9907 9.73032 63.1552 10.5432C62.4426 11.233 61.8528 11.233 61.1401 10.5432C60.3538 9.77959 59.5674 8.96667 58.781 8.17839C58.1667 7.56255 57.7243 7.48864 57.282 7.88278C56.8643 8.27693 56.9625 8.81887 57.5769 9.43472C58.3633 10.223 59.1496 10.9866 59.9114 11.7996C60.5749 12.4893 60.5749 13.1052 59.9114 13.7703C59.1251 14.5832 58.3141 15.3715 57.5032 16.1844C56.938 16.7756 56.8397 17.3175 57.282 17.687C57.8226 18.1551 58.2895 17.9088 58.7319 17.4653C59.5182 16.6524 60.3292 15.8395 61.1401 15.0512C61.8528 14.3615 62.4426 14.3615 63.1798 15.0512C64.0153 15.8641 64.8017 16.7017 65.6372 17.5146C65.8092 17.687 66.0795 17.8348 66.4236 18.0566Z" fill="white"/>
</g>
<defs>
<clipPath id="clip0_405_3202">
<rect width="75" height="74" fill="white"/>
</clipPath>
</defs>
</svg>
