<svg width="25" height="25" viewBox="0 0 25 25" fill="none" xmlns="http://www.w3.org/2000/svg">
<g id="Groupe 553">
<path id="Combined Shape-2" d="M12.4949 25.0001C10.023 24.999 7.60704 24.2652 5.55222 22.8913C3.49739 21.5174 1.89575 19.5651 0.950292 17.2812C0.00483578 14.9973 -0.241957 12.4844 0.240523 10.0602C0.723002 7.63588 1.91367 5.40901 3.66151 3.66116C5.40936 1.91332 7.63623 0.722904 10.0605 0.240425C12.4848 -0.242055 14.9972 0.00511555 17.281 0.950572C19.5649 1.89603 21.5178 3.49729 22.8917 5.55212C24.2656 7.60694 24.9989 10.0231 24.9999 12.4949C25.0004 14.1373 24.6778 15.7636 24.0495 17.2811C23.4213 18.7985 22.4996 20.1773 21.3383 21.3386C20.177 22.4999 18.7985 23.4209 17.281 24.0492C15.7636 24.6774 14.1372 25.0006 12.4949 25.0001ZM12.4949 2.21645C10.4606 2.21666 8.47179 2.82016 6.78047 3.95048C5.08915 5.0808 3.77135 6.68717 2.99302 8.56663C2.21469 10.4461 2.0111 12.5142 2.40809 14.5093C2.80508 16.5044 3.7845 18.3371 5.223 19.7754C6.66151 21.2138 8.49422 22.1933 10.4894 22.5901C12.4846 22.9869 14.553 22.7831 16.4323 22.0046C18.3117 21.226 19.9182 19.9078 21.0484 18.2163C22.1785 16.5249 22.782 14.5363 22.782 12.5021C22.7831 9.77408 21.6999 7.15729 19.7718 5.22744C17.8437 3.29758 15.2279 2.21266 12.4999 2.21129L12.4949 2.21645ZM16.7213 17.2258C16.5724 17.2257 16.4253 17.1955 16.2884 17.1371L16.1545 17.068L11.5153 14.3C11.3734 14.2169 11.252 14.103 11.1599 13.9667C11.0678 13.8304 11.0079 13.6751 10.9837 13.5124L10.9747 13.3474V7.37839C10.9727 7.09621 11.0777 6.8239 11.2696 6.61703C11.4616 6.41015 11.7261 6.28423 12.0076 6.26504C12.2891 6.24584 12.5666 6.3348 12.7848 6.51371C13.003 6.69261 13.1451 6.94805 13.1815 7.22788L13.1905 7.37839V12.7227L17.2941 15.1691C17.5239 15.3068 17.6961 15.5227 17.7794 15.7772C17.8627 16.0317 17.851 16.3078 17.7472 16.5547L17.6797 16.6897C17.5801 16.8546 17.439 16.9909 17.271 17.0852C17.1029 17.1796 16.913 17.2287 16.7203 17.2278L16.7213 17.2258Z" fill="#72B756"/>
</g>
</svg>
