<svg width="24" height="24" viewBox="0 0 24 24" fill="none" xmlns="http://www.w3.org/2000/svg">
<g id="Group 67">
<path id="Path 89" d="M19.7689 23.9922H4.21234C4.17131 23.9737 4.12851 23.96 4.08437 23.9512C3.13333 23.8367 2.24096 23.4308 1.52968 22.7891C0.818413 22.1475 0.32294 21.3015 0.111386 20.3673C0.0697353 20.1853 0.0390878 20.0033 0 19.8207V5.99578C0.0185594 5.94667 0.033632 5.89629 0.045368 5.84512C0.189914 4.8032 0.685507 3.84174 1.45021 3.11944C2.21492 2.39714 3.20299 1.95722 4.25145 1.87229C4.66924 1.84538 5.08461 1.86775 5.52739 1.86775C5.52739 1.60503 5.54213 1.39629 5.52739 1.18739C5.48235 0.93148 5.53451 0.66786 5.67382 0.448518C5.81313 0.229176 6.0294 0.0699007 6.28019 0.0018773H6.65439C6.90881 0.0746166 7.12693 0.239835 7.26577 0.4651C7.4046 0.690366 7.45405 0.959339 7.40469 1.2193C7.38803 1.41859 7.40469 1.62047 7.40469 1.83193H16.5919C16.5919 1.62047 16.606 1.41863 16.5919 1.21743C16.5439 0.957588 16.594 0.689109 16.7327 0.464162C16.8713 0.239215 17.0885 0.0738876 17.3422 0H17.7189C17.9698 0.0686948 18.1862 0.228498 18.3256 0.448205C18.4649 0.667912 18.5174 0.931726 18.4726 1.18802C18.4553 1.40204 18.4726 1.61794 18.4726 1.84413H19.2786C20.3119 1.82757 21.3212 2.1558 22.1471 2.77699C22.973 3.39818 23.5685 4.27692 23.8392 5.27427C23.9033 5.51264 23.9487 5.75798 24 5.99828V19.8232C23.9825 19.8646 23.9683 19.9076 23.9581 19.9515C23.837 20.8859 23.4336 21.7609 22.8013 22.4595C22.1691 23.1581 21.3381 23.6468 20.4203 23.8601C20.1992 23.9114 19.9834 23.9499 19.7745 23.9934M22.1193 9.26243H1.87542V19.2318C1.84415 19.9637 2.10491 20.678 2.60006 21.2178C3.09521 21.7577 3.78431 22.0789 4.51615 22.1108H4.74675C9.57954 22.1134 14.4132 22.1134 19.2473 22.1108C19.6098 22.1255 19.9715 22.0687 20.312 21.9436C20.6525 21.8184 20.9649 21.6274 21.2316 21.3815C21.4983 21.1356 21.7139 20.8395 21.8661 20.5103C22.0184 20.181 22.1046 19.8249 22.1193 19.4624C22.1233 19.3856 22.1233 19.3087 22.1193 19.2318V9.26446V9.26243ZM18.4667 3.74271C18.4667 4.34504 18.4718 4.93779 18.4667 5.53052C18.4672 5.65333 18.4434 5.77511 18.3969 5.88877C18.3504 6.00243 18.2819 6.10585 18.1954 6.19305C18.1089 6.28025 18.0061 6.34943 17.8928 6.39689C17.7796 6.44436 17.658 6.46913 17.5352 6.46964C17.4124 6.47014 17.2909 6.4464 17.1773 6.39986C17.0636 6.35333 16.96 6.28485 16.8728 6.19837C16.7856 6.11188 16.7163 6.00908 16.6688 5.89581C16.6214 5.78254 16.5968 5.661 16.5963 5.53818V5.53052C16.5886 5.01789 16.5963 4.49829 16.5963 3.98566C16.5963 3.903 16.5885 3.82024 16.5859 3.74271H7.40093C7.40093 4.35465 7.40542 4.94743 7.40093 5.54272C7.40144 5.66558 7.37771 5.78727 7.33116 5.90097C7.28461 6.01467 7.21618 6.11818 7.12966 6.20541C7.04315 6.29264 6.94042 6.36193 6.82711 6.40941C6.71379 6.45689 6.59203 6.48165 6.46917 6.48215C6.34631 6.48266 6.22462 6.45893 6.11092 6.41238C5.99722 6.36583 5.89402 6.2974 5.80679 6.21088C5.71956 6.12437 5.64996 6.02148 5.60248 5.90817C5.555 5.79486 5.5304 5.67324 5.52989 5.55039C5.52284 4.95254 5.52989 4.35209 5.52989 3.75616C3.22307 3.43577 1.57495 4.83024 1.89983 7.36198H22.0974C22.3915 4.8783 20.8703 3.4531 18.4635 3.74145L18.4667 3.74271Z" fill="#72B756"/>
<path id="Path 90" d="M6.45782 17.5227C6.76796 17.5227 7.08256 17.5156 7.39334 17.5227C7.64112 17.521 7.87937 17.6178 8.05572 17.7919C8.23207 17.966 8.33194 18.203 8.33356 18.4508C8.33517 18.6986 8.23823 18.9369 8.06416 19.1132C7.8901 19.2896 7.65333 19.3896 7.40554 19.3912C6.77288 19.4036 6.14106 19.4036 5.5101 19.3912C5.26827 19.3808 5.03963 19.277 4.87276 19.1016C4.70589 18.9263 4.61368 18.693 4.61525 18.451C4.61683 18.2089 4.71206 17.9769 4.8812 17.8038C5.05035 17.6306 5.28036 17.5299 5.5223 17.5227C5.83308 17.5156 6.14448 17.5227 6.45782 17.5227Z" fill="#72B756"/>
<path id="Path 91" d="M17.5169 19.397C17.2131 19.397 16.9095 19.404 16.6058 19.397C16.3617 19.3969 16.1272 19.3015 15.9525 19.1312C15.7777 18.9609 15.6766 18.729 15.6702 18.4851C15.6639 18.2411 15.753 18.0044 15.9187 17.8252C16.0843 17.646 16.3133 17.5386 16.5569 17.5258H16.6058C17.2203 17.5187 17.8372 17.5187 18.4524 17.5258C18.6945 17.5348 18.9238 17.6373 19.0919 17.8118C19.2601 17.9862 19.3541 18.219 19.3541 18.4613C19.3541 18.7036 19.2601 18.9365 19.0919 19.111C18.9238 19.2855 18.6945 19.388 18.4524 19.397C18.141 19.404 17.8277 19.397 17.5169 19.397Z" fill="#72B756"/>
<path id="Path 92" d="M17.5238 13.869C17.2195 13.869 16.9158 13.8735 16.6127 13.869C16.4899 13.8713 16.3679 13.8494 16.2535 13.8044C16.1392 13.7595 16.0347 13.6924 15.9463 13.6071C15.8578 13.5218 15.787 13.4199 15.7379 13.3072C15.6888 13.1946 15.6625 13.0734 15.6603 12.9506C15.6581 12.8277 15.6801 12.7056 15.7251 12.5912C15.77 12.4769 15.8369 12.3724 15.9222 12.284C16.0075 12.1955 16.1096 12.1248 16.2222 12.0757C16.3349 12.0267 16.4561 12.0002 16.5789 11.998H16.6243C17.2254 11.9929 17.8256 11.9929 18.4249 11.998C18.67 11.9952 18.9063 12.0887 19.0832 12.2583C19.2602 12.4279 19.3635 12.6601 19.3711 12.905C19.3787 13.15 19.2899 13.3881 19.1239 13.5683C18.9579 13.7486 18.7279 13.8565 18.4831 13.869H18.4371C18.1334 13.8735 17.8269 13.869 17.5238 13.869Z" fill="#72B756"/>
<path id="Path 93" d="M6.46099 11.9952C6.76536 11.9952 7.06901 11.9907 7.37211 11.9952C7.61655 11.994 7.8519 12.0885 8.0276 12.2584C8.20329 12.4284 8.30537 12.6604 8.31232 12.9047C8.31926 13.1491 8.23027 13.3865 8.06452 13.5661C7.89876 13.7458 7.66941 13.8535 7.4253 13.8662H7.37993C6.76264 13.873 6.14626 13.873 5.5311 13.8662C5.28298 13.8698 5.04357 13.7746 4.8656 13.6017C4.68763 13.4287 4.5857 13.1923 4.58213 12.9441C4.57856 12.696 4.67359 12.4566 4.84651 12.2786C5.01944 12.1007 5.25607 11.9987 5.50419 11.9952H5.54769C5.85142 11.9907 6.1579 11.9952 6.46099 11.9952Z" fill="#72B756"/>
<path id="Path 94" d="M12.0041 11.9953C12.3072 11.9953 12.6109 11.9883 12.9146 11.9953C13.1567 12.0013 13.3872 12.101 13.5573 12.2735C13.7273 12.446 13.8238 12.6777 13.8264 12.9199C13.8289 13.1621 13.7374 13.3959 13.571 13.5719C13.4047 13.748 13.1766 13.8527 12.9346 13.8639C12.3028 13.8754 11.671 13.8754 11.0392 13.8639C10.9165 13.8635 10.7951 13.839 10.6819 13.7917C10.5687 13.7445 10.4658 13.6754 10.3793 13.5884C10.2928 13.5014 10.2242 13.3982 10.1775 13.2847C10.1309 13.1712 10.1071 13.0496 10.1074 12.9269C10.1078 12.8042 10.1321 12.6828 10.1794 12.5696C10.2267 12.4564 10.2958 12.3536 10.3828 12.2671C10.4698 12.1805 10.5731 12.112 10.6866 12.0654C10.8001 12.0188 10.9215 11.995 11.0442 11.9953C11.3646 11.9883 11.685 11.9953 12.0054 11.9953" fill="#72B756"/>
<path id="Path 95" d="M11.9824 19.3968H11.0932C10.8417 19.4021 10.5983 19.3076 10.4161 19.1341C10.234 18.9606 10.128 18.7222 10.1211 18.4708V18.4637C10.1216 18.2149 10.2204 17.9762 10.3961 17.8C10.5719 17.6237 10.8102 17.5242 11.0591 17.5231H11.081C11.6838 17.5184 12.2846 17.5184 12.8835 17.5231C13.1286 17.5211 13.3647 17.6152 13.5412 17.7853C13.7177 17.9553 13.8205 18.1876 13.8278 18.4326C13.8351 18.6776 13.7461 18.9156 13.58 19.0958C13.4139 19.276 13.184 19.3841 12.9392 19.3968H12.8932C12.5895 19.4012 12.2855 19.3968 11.9824 19.3968Z" fill="#72B756"/>
</g>
</svg>
