<svg width="80" height="80" viewBox="0 0 80 80" fill="none" xmlns="http://www.w3.org/2000/svg">
<path d="M39.9904 31.8681C48.7802 31.8681 55.9244 24.7238 55.9244 15.934C55.9244 7.14428 48.7802 0 39.9904 0C31.2006 0 24.0564 7.14428 24.0564 15.934C24.0564 24.7238 31.2006 31.8681 39.9904 31.8681ZM39.9904 2.33283C47.4888 2.33283 53.5916 8.43567 53.5916 15.9132C53.5916 23.4116 47.4888 29.5144 39.9904 29.5144C32.492 29.5144 26.3892 23.4116 26.3892 15.9132C26.3892 8.43567 32.492 2.33283 39.9904 2.33283Z" fill="#5958A0"/>
<path d="M35.9513 20.933C36.9719 21.9536 38.6591 21.9536 39.6797 20.933L47.9695 12.6431C48.4278 12.1849 48.4278 11.435 47.9695 10.9768C47.5113 10.5185 46.7615 10.5185 46.3032 10.9768L38.0134 19.2666C37.8884 19.3708 37.7426 19.3708 37.6176 19.2666L33.681 15.33C33.2227 14.8718 32.4729 14.8718 32.0147 15.33C31.5564 15.7882 31.5564 16.5381 32.0147 16.9963L35.9513 20.933Z" fill="#5958A0"/>
<path d="M79.3578 38.9915L69.9015 29.4727C69.4433 29.0145 68.6934 29.0145 68.2352 29.4727C67.777 29.931 67.777 30.6808 68.2352 31.139L77.5665 40.5328L71.3803 46.7607C66.5897 41.9492 61.8199 37.1377 57.0293 32.3263L63.2154 26.0985L64.9651 27.8481C65.4233 28.3063 66.1523 28.3063 66.6314 27.8481C67.0896 27.3899 67.0896 26.64 66.6314 26.1818L64.736 24.2864C63.9028 23.4532 62.5281 23.4532 61.6949 24.2864L55.238 30.785C54.2799 31.7431 54.5923 33.2428 55.5088 34.0967L54.0508 35.5548C53.9675 35.6381 53.8425 35.6797 53.7383 35.6589C48.8019 34.5341 43.7405 35.8464 39.9913 39.1581C36.1797 35.7839 31.0558 34.4925 26.0568 35.7006L24.4739 34.0967C25.3903 33.2428 25.7236 31.7639 24.7446 30.785L18.2877 24.2864C17.4545 23.4532 16.0798 23.4532 15.2467 24.2864L6.26947 33.3261C5.81124 33.7843 5.81124 34.5341 6.26947 34.9924C6.72771 35.4506 7.47754 35.4506 7.93578 34.9924L16.7672 26.0985L22.9534 32.3263C18.1627 37.1377 13.3929 41.9492 8.6023 46.7607L2.41614 40.5537L4.66565 38.2833C5.12389 37.8251 5.12389 37.0753 4.66565 36.617C4.20742 36.1588 3.45758 36.1588 2.99935 36.617L0.624864 38.9915C-0.208288 39.8247 -0.208288 41.1994 0.624864 42.0325L7.0818 48.5311C8.03992 49.4892 9.5396 49.1976 10.3727 48.2603L21.9744 60.0286L21.3495 60.6535C19.7665 62.2365 19.7665 64.8192 21.3495 66.4231C22.1202 67.1937 23.1408 67.6311 24.2239 67.6311H24.2447C24.2447 68.6934 24.6197 69.7348 25.432 70.5472C26.2026 71.3178 27.2233 71.7552 28.3064 71.7552H28.3272C28.3272 72.8175 28.7229 73.8589 29.5144 74.6713C30.2851 75.4419 31.3474 75.8793 32.4513 75.8585C32.4513 76.8999 32.847 77.9414 33.6385 78.7537C35.1799 80.3159 37.8251 80.3159 39.3873 78.7537L39.9497 78.1913L40.5537 78.7954C42.0117 80.2534 44.5112 80.4408 46.115 79.0661C47.0315 78.2747 47.5522 77.1291 47.5314 75.921C48.6353 75.921 49.6767 75.5044 50.4474 74.7337C51.2389 73.9423 51.6138 72.88 51.6138 71.8177C52.6969 71.8385 53.7592 71.4011 54.5298 70.6305C55.3213 69.839 55.6962 68.7767 55.6962 67.7144C56.8002 67.7353 57.8416 67.2979 58.6123 66.5272C60.1953 64.9442 60.1953 62.3614 58.6331 60.7784L58.0499 60.1536L69.6099 48.3436C70.4639 49.2809 71.9011 49.5517 72.88 48.5728L79.337 42.0742C80.1909 41.1785 80.1909 39.8247 79.3578 38.9915ZM23.0158 64.7567C22.3493 64.0694 22.3493 62.9655 23.0158 62.299L24.8696 60.4452C25.6819 59.7787 26.4943 59.7787 27.2857 60.4452C27.9523 61.1325 27.9523 62.2365 27.2857 62.903L25.432 64.7567C25.0987 65.09 24.6821 65.2566 24.2239 65.2566C23.7865 65.2566 23.3491 65.0692 23.0158 64.7567ZM27.1191 68.86C26.4526 68.1727 26.4526 67.0687 27.1191 66.4022L30.91 62.6114C31.639 61.8824 32.6179 62.0907 33.3261 62.6114C33.9926 63.2987 33.9926 64.4027 33.3261 65.0692L29.5353 68.86C29.202 69.1933 28.7854 69.3599 28.3272 69.3599C27.869 69.3599 27.4315 69.1933 27.1191 68.86ZM32.4096 73.484C31.9514 73.484 31.514 73.2966 31.2016 72.9841C30.535 72.2968 30.535 71.1929 31.2016 70.5263L36.1796 65.5482C36.992 64.8817 37.8043 64.8817 38.5958 65.5482C39.2623 66.2356 39.2623 67.3395 38.5958 68.006C36.9503 69.6515 35.284 71.3178 33.6385 72.9633C33.3469 73.2757 32.9304 73.4632 32.4096 73.484ZM36.5337 77.5665C36.0755 77.5665 35.6381 77.379 35.3257 77.0666C34.6591 76.4001 34.6591 75.317 35.3048 74.6504L39.179 70.7763C39.9705 70.1514 40.762 70.1722 41.5535 70.8179C42.22 71.5053 42.22 72.6092 41.5535 73.2757L37.7418 77.0666C37.4085 77.379 36.992 77.5665 36.5337 77.5665ZM45.1985 76.046C45.1777 76.525 44.9694 76.9416 44.6153 77.254C43.9488 77.8372 42.9074 77.7539 42.2408 77.1082L41.6368 76.4834L43.199 74.9212C43.4906 74.6088 43.7405 74.2755 43.928 73.9214L44.6986 74.6921C45.0527 75.0462 45.2194 75.5461 45.1985 76.046ZM56.9876 64.8192C56.3836 65.4233 55.4671 65.4858 54.7798 65.0067L51.2597 61.4866C50.8015 61.0284 50.0516 61.0284 49.5934 61.4866C49.1352 61.9449 49.1352 62.6947 49.5934 63.1529C50.6973 64.2569 51.8013 65.34 52.8635 66.4647C53.5301 67.1729 53.53 68.2768 52.8844 68.9433C52.2803 69.5474 51.0723 69.5474 50.4682 68.9433L47.1356 65.6107C46.6774 65.1525 45.9275 65.1525 45.4693 65.6107C45.0111 66.069 45.0111 66.8188 45.4693 67.277L48.7811 70.5888C49.4476 71.297 49.4476 72.4009 48.8019 73.0674C47.9896 73.734 47.1773 73.734 46.3649 73.0674L44.1987 70.9012C44.0113 70.2764 43.678 69.6724 43.1781 69.1725C42.6366 68.6309 41.9492 68.256 41.2202 68.0894C41.6993 66.673 41.366 65.0484 40.2413 63.9236C39.1582 62.8405 37.5127 62.4448 36.0547 62.9446C35.888 62.2365 35.534 61.5491 34.9716 60.9867C33.6177 59.6953 31.5348 59.3829 29.9102 60.4244C29.7227 59.8412 29.3895 59.2788 28.9312 58.8205C27.5565 57.425 25.2237 57.2375 23.6407 58.4248L12.0182 46.6149L22.8076 35.763L24.4322 37.3877C24.9737 37.9501 25.8069 38.1792 26.5567 37.9917C30.7433 36.9711 35.0757 38.0334 38.3042 40.8244L29.9727 49.2185C28.3897 50.8014 28.3897 53.3842 29.9727 54.988C31.514 56.5502 34.1593 56.5502 35.7214 54.988L41.2827 49.4059C42.0117 48.6769 43.2406 48.6769 43.9696 49.4059C48.302 53.7383 52.6552 58.0915 56.9876 62.4239C57.6542 63.028 57.6542 64.1319 56.9876 64.8192ZM56.4044 58.4665L45.6151 47.6771C43.9696 46.0316 41.2619 46.0316 39.6164 47.698L34.0551 53.2801C33.2428 53.9466 32.4305 53.9466 31.639 53.2801C30.9724 52.5927 30.9724 51.4888 31.639 50.8223L40.9078 41.5118C44.1154 38.3042 48.8019 36.9295 53.2384 37.9292C54.1549 38.1375 55.0714 37.8668 55.7379 37.2002L57.1751 35.7422L67.9852 46.6357L56.4044 58.4665Z" fill="#5958A0"/>
<path d="M64.5281 31.993C64.1532 31.4307 63.3617 31.3057 62.8409 31.7223C62.3619 32.0972 62.2369 32.7845 62.5702 33.2844C62.9243 33.826 63.6741 33.9718 64.1948 33.6177C64.7364 33.2844 64.8822 32.5346 64.5281 31.993Z" fill="#5958A0"/>
<path d="M17.0378 33.3052C17.3711 33.826 18.1001 33.9718 18.6208 33.6593C19.1623 33.3261 19.3498 32.5762 19.0165 32.0347C18.6833 31.514 17.9959 31.3265 17.4544 31.6389C16.8503 31.9722 16.6629 32.7429 17.0378 33.3052Z" fill="#5958A0"/>
</svg>
