<svg width="31" height="35" viewBox="0 0 31 35" fill="none" xmlns="http://www.w3.org/2000/svg">
<g clip-path="url(#clip0_87_1116)">
<path d="M23.6697 16.0838C22.9617 16.7919 22.9617 17.8035 22.9617 17.9046C22.9617 18.2081 23.164 18.4104 23.4674 18.4104C23.7709 18.4104 23.9732 18.2081 23.9732 17.9046C23.9732 17.9046 23.9732 17.2977 24.3778 16.8931C24.5802 16.6908 24.5802 16.3873 24.3778 16.185C24.1755 15.8815 23.8721 15.8815 23.6697 16.0838Z" fill="#6034C4"/>
<path d="M4.45087 16.0839C4.24856 16.2862 4.24856 16.5897 4.45087 16.792C4.85549 17.1966 4.85549 17.8035 4.85549 17.8035C4.85549 18.107 5.05781 18.3093 5.36128 18.3093C5.66474 18.3093 5.86706 18.107 5.86706 17.8035C5.86706 17.8035 5.86706 16.792 5.15896 15.9827C4.95665 15.8816 4.65318 15.8816 4.45087 16.0839Z" fill="#6034C4"/>
<path d="M15.68 22.4567C15.3765 22.7602 14.8707 22.9625 14.365 22.9625C13.8592 22.9625 13.4546 22.7602 13.0499 22.4567C12.8476 22.2544 12.5442 22.2544 12.3418 22.4567C12.1395 22.659 12.1395 22.9625 12.3418 23.1648C12.8476 23.6706 13.5557 23.9741 14.365 23.9741C15.1742 23.9741 15.8823 23.6706 16.3881 23.1648C16.5904 22.9625 16.5904 22.659 16.3881 22.4567C16.1858 22.2544 15.8823 22.2544 15.68 22.4567Z" fill="#6034C4"/>
<path d="M8.19286 19.422C8.39517 19.6243 8.69864 19.6243 8.90095 19.422C9.30557 19.0173 9.81135 18.815 10.3171 18.815C10.8229 18.815 11.3287 19.0173 11.7333 19.422C11.9356 19.6243 12.2391 19.6243 12.4414 19.422C12.6437 19.2196 12.6437 18.9162 12.4414 18.7139C11.8345 18.1069 11.1264 17.8035 10.3171 17.8035C9.50789 17.8035 8.79979 18.1069 8.19286 18.7139C7.99054 18.815 7.99054 19.2196 8.19286 19.422Z" fill="#6034C4"/>
<path d="M16.8927 19.422C17.2973 19.0173 17.8031 18.815 18.3089 18.815C18.8146 18.815 19.3204 19.0173 19.7251 19.422C19.9274 19.6243 20.2308 19.6243 20.4331 19.422C20.6355 19.2196 20.6355 18.9162 20.4331 18.7139C19.8262 18.1069 19.1181 17.8035 18.3089 17.8035C17.4996 17.8035 16.7915 18.1069 16.1846 18.7139C15.9823 18.9162 15.9823 19.2196 16.1846 19.422C16.3869 19.6243 16.6904 19.6243 16.8927 19.422Z" fill="#6034C4"/>
<path d="M29.5376 4.45087C29.2341 4.34971 28.9307 4.45087 28.8295 4.75434C28.7283 5.05781 28.8295 5.36128 29.133 5.46243C29.3353 5.56359 29.3353 5.7659 29.3353 5.7659C29.3353 5.86706 29.3353 5.96821 29.133 6.06937L26.4018 7.18209C26.3006 7.28324 26.1994 7.3844 26.0983 7.48555L24.9856 10.2168C24.8844 10.4191 24.6821 10.4191 24.6821 10.4191C24.5809 10.4191 24.3786 10.4191 24.3786 10.2168L23.2659 7.48555C23.1648 7.3844 23.0636 7.28324 22.9624 7.18209L20.1301 6.06937C19.9278 5.96821 19.9278 5.7659 19.9278 5.7659C19.9278 5.66474 19.9278 5.46243 20.1301 5.46243L22.8613 4.34971C23.0636 4.24856 23.1648 4.1474 23.2659 4.04625L24.3786 1.31503C24.3786 1.01156 24.5809 1.01156 24.6821 1.01156C24.7833 1.01156 24.9856 1.01156 24.9856 1.21387L26.0983 4.04625C26.1994 4.1474 26.3006 4.24856 26.4018 4.34971L27.0087 4.55203C27.3122 4.65318 27.6156 4.55203 27.7168 4.24856C27.8179 3.94509 27.7168 3.64162 27.4133 3.54046L27.0087 3.43931L25.9971 0.910405C25.7948 0.303468 25.289 0 24.6821 0C24.0752 0 23.5694 0.303468 23.3671 0.910405L22.3555 3.43931C20.3324 1.21387 17.3989 0 14.3642 0C11.4306 0 8.69943 1.11272 6.57515 3.237C6.17052 3.64162 5.7659 4.1474 5.46243 4.65318L4.95665 3.33815C4.75434 2.93353 4.34971 2.63006 3.94509 2.63006C3.54046 2.63006 3.13584 2.93353 2.93353 3.33815L2.32659 4.85549L0.708093 5.56359C0.303468 5.66474 0 6.06937 0 6.57515C0 6.97977 0.303468 7.3844 0.708093 7.58671L2.32659 8.19365L2.93353 9.81215C3.03468 10.1156 3.237 10.2168 3.43931 10.4191C3.43931 10.6214 3.43931 10.8237 3.43931 11.026V14.3642C2.83237 14.87 2.42775 15.6792 2.42775 16.5896C2.42775 17.2977 2.63006 18.0058 2.93353 18.6127C2.42775 18.9162 2.02312 19.3208 1.71965 19.7254C1.51734 19.9278 1.6185 20.2312 1.82081 20.4335C1.92197 20.5347 2.02312 20.5347 2.12428 20.5347C2.32659 20.5347 2.42775 20.4335 2.5289 20.3324C2.83237 19.9278 3.13584 19.6243 3.54046 19.422C4.04625 19.9278 4.65318 20.3324 5.26012 20.6359C5.56359 22.2544 6.17052 23.7717 7.28324 24.9856C7.58671 25.3902 7.89018 25.6937 8.19365 25.9971H5.36128C4.45087 25.9971 3.54046 25.5925 2.83237 24.9856C2.12428 24.2775 1.82081 23.4682 1.82081 22.4567V22.3555C1.82081 22.052 1.6185 21.8497 1.31503 21.8497C1.01156 21.8497 0.809249 22.052 0.809249 22.3555C0.809249 22.4567 0.809249 22.4567 0.809249 22.5578C0.809249 23.7717 1.31503 24.8844 2.12428 25.7948C3.03468 26.7052 4.1474 27.1098 5.36128 27.1098H9.50868C10.0145 27.4133 10.5202 27.6156 11.026 27.8179V28.2226C11.026 28.3237 11.026 28.3237 11.026 28.4249C7.89018 29.3353 5.26012 31.4596 3.74278 34.3931C3.64162 34.5954 3.64162 34.6966 3.74278 34.8989C3.84393 35.1012 4.04625 35.1012 4.1474 35.1012H24.5809C24.7833 35.1012 24.8844 35 24.9856 34.8989C25.0867 34.6966 25.0867 34.5954 24.9856 34.3931C24.5809 33.685 24.1763 32.9769 23.6705 32.37C23.4682 32.1677 23.1648 32.0665 22.9624 32.2688C22.7601 32.4711 22.7601 32.7746 22.8613 32.9769C23.1648 33.2804 23.3671 33.685 23.6705 34.0896H5.05781C6.47399 31.8642 8.59827 30.1445 11.1272 29.4364C11.633 30.7515 12.8468 31.6619 14.263 31.763C14.263 31.763 14.263 31.763 14.3642 31.763C15.2746 31.763 16.0838 31.4596 16.7919 30.7515C17.1965 30.3468 17.3989 29.9422 17.6012 29.4364C18.9162 29.8411 20.2312 30.5492 21.3439 31.4596C21.4451 31.5607 21.5463 31.5607 21.6474 31.5607C21.7486 31.5607 21.9509 31.4596 22.052 31.3584C22.2544 31.1561 22.1532 30.8526 21.9509 30.6503C20.737 29.6387 19.3208 28.9307 17.8035 28.4249V28.3237V27.9191C18.3093 27.7168 18.815 27.4133 19.3208 27.211H23.4682C25.9971 27.211 28.0203 25.1879 28.0203 22.659C28.0203 21.7486 27.7168 20.8382 27.211 20.0289C26.9075 19.5231 26.4018 19.1185 25.896 18.815C26.1994 18.2081 26.4018 17.5 26.4018 16.7919C26.4018 15.9827 26.0983 15.2746 25.4913 14.6676C25.3902 14.5665 25.3902 14.5665 25.289 14.4653V11.4306C25.4913 11.2283 25.6937 11.026 25.896 10.7226L26.9075 8.19365L29.4364 7.18209C29.9422 6.97977 30.3468 6.47399 30.3468 5.96821C30.448 5.26012 30.1445 4.65318 29.5376 4.45087ZM2.83237 7.28324L1.01156 6.57515C1.01156 6.57515 1.01156 6.57515 1.01156 6.47399C1.01156 6.47399 1.01156 6.47399 1.01156 6.37284L2.83237 5.66474C3.03468 5.66474 3.13584 5.56359 3.13584 5.46243L3.84393 3.64162C3.84393 3.64162 3.84393 3.64162 3.94509 3.64162C3.94509 3.64162 3.94509 3.64162 4.04625 3.64162L4.75434 5.46243C4.85549 5.56359 4.95665 5.66474 5.05781 5.7659L6.87862 6.47399C6.87862 6.47399 6.87862 6.47399 6.87862 6.57515C6.87862 6.57515 6.87862 6.57515 6.87862 6.67631L4.95665 7.28324C4.85549 7.3844 4.75434 7.48555 4.65318 7.58671L3.94509 9.40752C3.94509 9.40752 3.94509 9.40752 3.84393 9.40752C3.84393 9.40752 3.84393 9.40752 3.74278 9.40752L3.13584 7.58671C3.13584 7.48555 3.03468 7.3844 2.83237 7.28324ZM26.4018 20.3324C26.8064 20.9393 27.0087 21.6474 27.0087 22.3555C27.0087 24.2775 25.3902 25.896 23.4682 25.896H20.6359C20.9393 25.5925 21.2428 25.289 21.5463 24.8844C22.5578 23.6705 23.2659 22.1532 23.5694 20.5347C24.2775 20.3324 24.8844 19.9278 25.289 19.3208C25.7948 19.6243 26.0983 19.9278 26.4018 20.3324ZM22.9624 19.7254C22.7601 19.8266 22.659 19.9278 22.5578 20.1301C22.3555 21.6474 21.7486 23.0636 20.737 24.2775C19.7254 25.4913 18.5116 26.4018 17.0954 26.8064C16.8931 26.9075 16.7919 27.1098 16.7919 27.3122V28.1214C16.7919 28.7283 16.4885 29.3353 16.0838 29.8411C15.578 30.2457 14.9711 30.5492 14.3642 30.5492C13.0491 30.5492 12.0376 29.4364 12.0376 28.1214V27.3122C12.0376 27.1098 11.9364 26.9075 11.7341 26.8064C10.3179 26.3006 9.0029 25.3902 8.09249 24.2775C7.08093 23.0636 6.47399 21.6474 6.27168 20.1301C6.27168 19.9278 6.06937 19.7254 5.86706 19.7254C5.15896 19.5231 4.55203 19.1185 4.1474 18.6127C3.74278 18.0058 3.43931 17.3989 3.43931 16.5896C3.43931 15.578 4.34971 14.6676 5.36128 14.6676H5.66474C5.86706 14.6676 7.68787 14.87 10.0145 14.4653C12.1387 14.1619 13.9595 13.4538 15.4769 12.4422L16.7919 12.948L17.3989 14.5665C17.6012 14.9711 18.0058 15.2746 18.4104 15.2746C18.815 15.2746 19.2197 14.9711 19.422 14.5665L19.6243 14.0607C20.737 14.4653 22.052 14.6676 23.3671 14.6676H23.6705C24.1763 14.6676 24.6821 14.87 24.9856 15.2746C25.3902 15.6792 25.5925 16.0838 25.5925 16.5896C25.3902 18.0058 24.3786 19.3208 22.9624 19.7254ZM19.3208 12.0376C19.2197 12.1387 19.1185 12.2399 19.0174 12.341L18.3093 14.1619C18.3093 14.1619 18.3093 14.1619 18.2081 14.1619C18.2081 14.1619 18.2081 14.1619 18.1069 14.1619L17.3989 12.341C17.2977 12.2399 17.1965 12.1387 17.0954 12.0376L15.2746 11.3295C15.2746 11.3295 15.2746 11.3295 15.2746 11.2283C15.2746 11.2283 15.2746 11.2283 15.2746 11.1272L17.0954 10.4191C17.1965 10.3179 17.2977 10.2168 17.3989 10.1156L18.2081 8.39596C18.2081 8.39596 18.2081 8.39596 18.3093 8.39596C18.3093 8.39596 18.3093 8.39596 18.4104 8.39596L19.1185 10.2168C19.2197 10.3179 19.3208 10.4191 19.422 10.5202L21.2428 11.2283C21.2428 11.2283 21.2428 11.2283 21.2428 11.3295C21.2428 11.3295 21.2428 11.3295 21.2428 11.4306L19.3208 12.0376ZM23.4682 13.6561H23.1648C21.9509 13.6561 20.8382 13.4538 19.8266 13.1503L19.9278 12.948L21.5463 12.341C21.9509 12.1387 22.2544 11.7341 22.2544 11.3295C22.2544 10.9249 21.9509 10.5202 21.5463 10.3179L19.9278 9.71099L19.3208 8.09249C19.1185 7.68787 18.7139 7.3844 18.3093 7.3844C17.9046 7.3844 17.5 7.68787 17.2977 8.09249L16.6908 9.71099L15.0723 10.3179C14.6676 10.5202 14.3642 10.9249 14.3642 11.3295C14.3642 11.5318 14.3642 11.633 14.4653 11.8353C13.1503 12.6445 11.5318 13.1503 9.71099 13.4538C7.48555 13.8584 5.66474 13.6561 5.66474 13.6561H5.36128C5.05781 13.6561 4.75434 13.6561 4.45087 13.7572V11.026C4.45087 10.8237 4.45087 10.6214 4.45087 10.3179C4.65318 10.2168 4.85549 10.0145 4.95665 9.81215L5.56359 8.19365L7.18209 7.58671C7.58671 7.3844 7.89018 6.97977 7.89018 6.57515C7.89018 6.17052 7.58671 5.7659 7.18209 5.56359L6.27168 5.15896C6.57515 4.75434 6.97977 4.34971 7.28324 3.94509C9.20521 2.02312 11.7341 1.01156 14.3642 1.01156C16.9942 1.01156 19.422 2.02312 21.3439 3.84393L19.8266 4.45087C19.3208 4.65318 18.9162 5.15896 18.9162 5.7659C18.9162 6.37284 19.2197 6.87862 19.8266 7.08093L22.3555 8.09249L23.3671 10.6214C23.5694 11.026 23.8728 11.3295 24.3786 11.4306V13.7572C24.0752 13.6561 23.7717 13.6561 23.4682 13.6561Z" fill="#6034C4"/>
</g>
<defs>
<clipPath id="clip0_87_1116">
<rect width="30.1" height="34.6" fill="white" transform="scale(1.01156)"/>
</clipPath>
</defs>
</svg>
