<svg width="31" height="35" viewBox="0 0 31 35" fill="none" xmlns="http://www.w3.org/2000/svg">
<g id="Group">
<path id="Vector" d="M23.6015 16.0375C22.8955 16.7435 22.8955 17.7522 22.8955 17.8531C22.8955 18.1557 23.0972 18.3574 23.3998 18.3574C23.7024 18.3574 23.9041 18.1557 23.9041 17.8531C23.9041 17.8531 23.9041 17.2479 24.3076 16.8444C24.5093 16.6427 24.5093 16.3401 24.3076 16.1384C24.1059 15.8358 23.8033 15.8358 23.6015 16.0375Z" fill="#6034C4"/>
<path id="Vector_2" d="M4.43805 16.0375C4.23632 16.2393 4.23632 16.5419 4.43805 16.7436C4.84151 17.1471 4.84151 17.7522 4.84151 17.7522C4.84151 18.0548 5.04323 18.2566 5.34583 18.2566C5.64842 18.2566 5.85015 18.0548 5.85015 17.7522C5.85015 17.7522 5.85015 16.7436 5.1441 15.9367C4.94237 15.8358 4.63978 15.8358 4.43805 16.0375Z" fill="#6034C4"/>
<path id="Vector_3" d="M15.6348 22.392C15.3322 22.6946 14.8279 22.8963 14.3236 22.8963C13.8193 22.8963 13.4158 22.6946 13.0123 22.392C12.8106 22.1903 12.508 22.1903 12.3063 22.392C12.1046 22.5937 12.1046 22.8963 12.3063 23.0981C12.8106 23.6024 13.5167 23.905 14.3236 23.905C15.1305 23.905 15.8365 23.6024 16.3409 23.0981C16.5426 22.8963 16.5426 22.5937 16.3409 22.392C16.1391 22.1903 15.8365 22.1903 15.6348 22.392Z" fill="#6034C4"/>
<path id="Vector_4" d="M8.16925 19.366C8.37098 19.5677 8.67358 19.5677 8.8753 19.366C9.27876 18.9625 9.78309 18.7608 10.2874 18.7608C10.7917 18.7608 11.2961 18.9625 11.6995 19.366C11.9012 19.5677 12.2038 19.5677 12.4056 19.366C12.6073 19.1643 12.6073 18.8617 12.4056 18.6599C11.8004 18.0548 11.0943 17.7522 10.2874 17.7522C9.48049 17.7522 8.77444 18.0548 8.16925 18.6599C7.96752 18.7608 7.96752 19.1643 8.16925 19.366Z" fill="#6034C4"/>
<path id="Vector_5" d="M16.844 19.366C17.2475 18.9625 17.7518 18.7608 18.2561 18.7608C18.7604 18.7608 19.2648 18.9625 19.6682 19.366C19.87 19.5677 20.1725 19.5677 20.3743 19.366C20.576 19.1643 20.576 18.8617 20.3743 18.6599C19.7691 18.0548 19.063 17.7522 18.2561 17.7522C17.4492 17.7522 16.7431 18.0548 16.138 18.6599C15.9362 18.8617 15.9362 19.1643 16.138 19.366C16.3397 19.5677 16.6423 19.5677 16.844 19.366Z" fill="#6034C4"/>
<path id="Vector_6" d="M29.4525 4.43805C29.1499 4.33718 28.8473 4.43805 28.7464 4.74064C28.6456 5.04323 28.7464 5.34583 29.049 5.44669C29.2508 5.54756 29.2508 5.74929 29.2508 5.74929C29.2508 5.85015 29.2508 5.95102 29.049 6.05188L26.3257 7.16139C26.2248 7.26226 26.124 7.36312 26.0231 7.46399L24.9136 10.1873C24.8127 10.3891 24.611 10.3891 24.611 10.3891C24.5101 10.3891 24.3084 10.3891 24.3084 10.1873L23.1989 7.46399C23.098 7.36312 22.9972 7.26226 22.8963 7.16139L20.0721 6.05188C19.8703 5.95102 19.8703 5.74929 19.8703 5.74929C19.8703 5.64842 19.8703 5.44669 20.0721 5.44669L22.7954 4.33718C22.9972 4.23632 23.098 4.13545 23.1989 4.03459L24.3084 1.31124C24.3084 1.00865 24.5101 1.00865 24.611 1.00865C24.7119 1.00865 24.9136 1.00865 24.9136 1.21038L26.0231 4.03459C26.124 4.13545 26.2248 4.23632 26.3257 4.33718L26.9309 4.53891C27.2335 4.63978 27.5361 4.53891 27.6369 4.23632C27.7378 3.93372 27.6369 3.63113 27.3343 3.53026L26.9309 3.4294L25.9222 0.907782C25.7205 0.302594 25.2162 0 24.611 0C24.0058 0 23.5015 0.302594 23.2997 0.907782L22.2911 3.4294C20.2738 1.21038 17.3487 0 14.3228 0C11.3977 0 8.67436 1.10951 6.55621 3.22767C6.15275 3.63113 5.74929 4.13545 5.44669 4.63978L4.94237 3.32853C4.74064 2.92508 4.33718 2.62248 3.93372 2.62248C3.53026 2.62248 3.12681 2.92508 2.92508 3.32853L2.31989 4.84151L0.706053 5.54756C0.302594 5.64842 0 6.05188 0 6.55621C0 6.95966 0.302594 7.36312 0.706053 7.56485L2.31989 8.17004L2.92508 9.78388C3.02594 10.0865 3.22767 10.1873 3.4294 10.3891C3.4294 10.5908 3.4294 10.7925 3.4294 10.9943V14.3228C2.82421 14.8271 2.42075 15.634 2.42075 16.5418C2.42075 17.2479 2.62248 17.9539 2.92508 18.5591C2.42075 18.8617 2.01729 19.2652 1.7147 19.6686C1.51297 19.8703 1.61384 20.1729 1.81556 20.3747C1.91643 20.4755 2.01729 20.4755 2.11816 20.4755C2.31989 20.4755 2.42075 20.3747 2.52162 20.2738C2.82421 19.8703 3.12681 19.5678 3.53026 19.366C4.03459 19.8703 4.63978 20.2738 5.24496 20.5764C5.54756 22.1902 6.15275 23.7032 7.26226 24.9136C7.56485 25.317 7.86745 25.6196 8.17004 25.9222H5.34583C4.43805 25.9222 3.53026 25.5188 2.82421 24.9136C2.11816 24.2075 1.81556 23.4006 1.81556 22.392V22.2911C1.81556 21.9885 1.61384 21.7868 1.31124 21.7868C1.00865 21.7868 0.806918 21.9885 0.806918 22.2911C0.806918 22.392 0.806918 22.392 0.806918 22.4928C0.806918 23.7032 1.31124 24.8127 2.11816 25.7205C3.02594 26.6283 4.13545 27.0317 5.34583 27.0317H9.48128C9.9856 27.3343 10.4899 27.5361 10.9943 27.7378V28.1412C10.9943 28.2421 10.9943 28.2421 10.9943 28.343C7.86745 29.2508 5.24496 31.3689 3.73199 34.294C3.63113 34.4957 3.63113 34.5966 3.73199 34.7983C3.83286 35.0001 4.03459 35.0001 4.13545 35.0001H24.5101C24.7119 35.0001 24.8127 34.8992 24.9136 34.7983C25.0144 34.5966 25.0144 34.4957 24.9136 34.294C24.5101 33.5879 24.1067 32.8819 23.6023 32.2767C23.4006 32.075 23.098 31.9741 22.8963 32.1758C22.6946 32.3776 22.6946 32.6802 22.7954 32.8819C23.098 33.1845 23.2997 33.5879 23.6023 33.9914H5.04323C6.45534 31.7724 8.5735 30.0577 11.0951 29.3516C11.5994 30.6629 12.8098 31.5706 14.2219 31.6715C14.2219 31.6715 14.2219 31.6715 14.3228 31.6715C15.2306 31.6715 16.0375 31.3689 16.7435 30.6629C17.147 30.2594 17.3487 29.856 17.5505 29.3516C18.8617 29.7551 20.1729 30.4611 21.2825 31.3689C21.3833 31.4698 21.4842 31.4698 21.585 31.4698C21.6859 31.4698 21.8876 31.3689 21.9885 31.2681C22.1902 31.0663 22.0894 30.7637 21.8876 30.562C20.6773 29.5534 19.2652 28.8473 17.7522 28.343V28.2421V27.8387C18.2565 27.6369 18.7608 27.3343 19.2652 27.1326H23.4006C25.9222 27.1326 27.9395 25.1153 27.9395 22.5937C27.9395 21.6859 27.6369 20.7781 27.1326 19.9712C26.83 19.4669 26.3257 19.0634 25.8214 18.7608C26.124 18.1556 26.3257 17.4496 26.3257 16.7435C26.3257 15.9366 26.0231 15.2306 25.4179 14.6254C25.317 14.5245 25.317 14.5245 25.2162 14.4237V11.3977C25.4179 11.196 25.6196 10.9943 25.8214 10.6917L26.83 8.17004L29.3516 7.16139C29.856 6.95966 30.2594 6.45534 30.2594 5.95102C30.3603 5.24496 30.0577 4.63978 29.4525 4.43805ZM2.82421 7.26226L1.00865 6.55621C1.00865 6.55621 1.00865 6.55621 1.00865 6.45534C1.00865 6.45534 1.00865 6.45534 1.00865 6.35448L2.82421 5.64842C3.02594 5.64842 3.12681 5.54756 3.12681 5.44669L3.83286 3.63113C3.83286 3.63113 3.83286 3.63113 3.93372 3.63113C3.93372 3.63113 3.93372 3.63113 4.03459 3.63113L4.74064 5.44669C4.84151 5.54756 4.94237 5.64842 5.04323 5.74929L6.8588 6.45534C6.8588 6.45534 6.8588 6.45534 6.8588 6.55621C6.8588 6.55621 6.8588 6.55621 6.8588 6.65707L4.94237 7.26226C4.84151 7.36312 4.74064 7.46399 4.63978 7.56485L3.93372 9.38042C3.93372 9.38042 3.93372 9.38042 3.83286 9.38042C3.83286 9.38042 3.83286 9.38042 3.73199 9.38042L3.12681 7.56485C3.12681 7.46399 3.02594 7.36312 2.82421 7.26226ZM26.3257 20.2738C26.7291 20.879 26.9309 21.585 26.9309 22.2911C26.9309 24.2075 25.317 25.8214 23.4006 25.8214H20.5764C20.879 25.5188 21.1816 25.2162 21.4842 24.8127C22.4928 23.6023 23.1989 22.0894 23.5015 20.4755C24.2075 20.2738 24.8127 19.8703 25.2162 19.2652C25.7205 19.5678 26.0231 19.8703 26.3257 20.2738ZM22.8963 19.6686C22.6946 19.7695 22.5937 19.8703 22.4928 20.0721C22.2911 21.585 21.6859 22.9971 20.6773 24.2075C19.6686 25.4179 18.4582 26.3257 17.0461 26.7291C16.8444 26.83 16.7435 27.0317 16.7435 27.2335V28.0404C16.7435 28.6456 16.4409 29.2508 16.0375 29.7551C15.5332 30.1585 14.928 30.4611 14.3228 30.4611C13.0115 30.4611 12.0029 29.3516 12.0029 28.0404V27.2335C12.0029 27.0317 11.902 26.83 11.7003 26.7291C10.2882 26.2248 8.97696 25.317 8.06918 24.2075C7.06053 22.9971 6.45534 21.585 6.25361 20.0721C6.25361 19.8703 6.05188 19.6686 5.85015 19.6686C5.1441 19.4669 4.53891 19.0634 4.13545 18.5591C3.73199 17.9539 3.4294 17.3487 3.4294 16.5418C3.4294 15.5332 4.33718 14.6254 5.34583 14.6254H5.64842C5.85015 14.6254 7.66572 14.8271 9.9856 14.4237C12.1038 14.1211 13.9193 13.415 15.4323 12.4064L16.7435 12.9107L17.3487 14.5245C17.5505 14.928 17.9539 15.2306 18.3574 15.2306C18.7608 15.2306 19.1643 14.928 19.366 14.5245L19.5678 14.0202C20.6773 14.4237 21.9885 14.6254 23.2997 14.6254H23.6023C24.1067 14.6254 24.611 14.8271 24.9136 15.2306C25.317 15.634 25.5188 16.0375 25.5188 16.5418C25.317 17.9539 24.3084 19.2652 22.8963 19.6686ZM19.2652 12.0029C19.1643 12.1038 19.0634 12.2046 18.9626 12.3055L18.2565 14.1211C18.2565 14.1211 18.2565 14.1211 18.1556 14.1211C18.1556 14.1211 18.1556 14.1211 18.0548 14.1211L17.3487 12.3055C17.2479 12.2046 17.147 12.1038 17.0461 12.0029L15.2306 11.2968C15.2306 11.2968 15.2306 11.2968 15.2306 11.196C15.2306 11.196 15.2306 11.196 15.2306 11.0951L17.0461 10.3891C17.147 10.2882 17.2479 10.1873 17.3487 10.0865L18.1556 8.37177C18.1556 8.37177 18.1556 8.37177 18.2565 8.37177C18.2565 8.37177 18.2565 8.37177 18.3574 8.37177L19.0634 10.1873C19.1643 10.2882 19.2652 10.3891 19.366 10.4899L21.1816 11.196C21.1816 11.196 21.1816 11.196 21.1816 11.2968C21.1816 11.2968 21.1816 11.2968 21.1816 11.3977L19.2652 12.0029ZM23.4006 13.6167H23.098C21.8876 13.6167 20.7781 13.415 19.7695 13.1124L19.8703 12.9107L21.4842 12.3055C21.8876 12.1038 22.1902 11.7003 22.1902 11.2968C22.1902 10.8934 21.8876 10.4899 21.4842 10.2882L19.8703 9.68301L19.2652 8.06918C19.0634 7.66572 18.66 7.36312 18.2565 7.36312C17.8531 7.36312 17.4496 7.66572 17.2479 8.06918L16.6427 9.68301L15.0288 10.2882C14.6254 10.4899 14.3228 10.8934 14.3228 11.2968C14.3228 11.4986 14.3228 11.5994 14.4237 11.8012C13.1124 12.6081 11.4986 13.1124 9.68301 13.415C7.46399 13.8185 5.64842 13.6167 5.64842 13.6167H5.34583C5.04323 13.6167 4.74064 13.6167 4.43805 13.7176V10.9943C4.43805 10.7925 4.43805 10.5908 4.43805 10.2882C4.63978 10.1873 4.84151 9.9856 4.94237 9.78388L5.54756 8.17004L7.16139 7.56485C7.56485 7.36312 7.86745 6.95966 7.86745 6.55621C7.86745 6.15275 7.56485 5.74929 7.16139 5.54756L6.25361 5.1441C6.55621 4.74064 6.95966 4.33718 7.26226 3.93372C9.17869 2.01729 11.7003 1.00865 14.3228 1.00865C16.9453 1.00865 19.366 2.01729 21.2825 3.83286L19.7695 4.43805C19.2652 4.63978 18.8617 5.1441 18.8617 5.74929C18.8617 6.35448 19.1643 6.8588 19.7695 7.06053L22.2911 8.06918L23.2997 10.5908C23.5015 10.9943 23.8041 11.2968 24.3084 11.3977V13.7176C24.0058 13.6167 23.7032 13.6167 23.4006 13.6167Z" fill="#6034C4"/>
</g>
</svg>
