<svg width="35" height="35" viewBox="0 0 35 35" fill="none" xmlns="http://www.w3.org/2000/svg">
<g clip-path="url(#clip0_87_1124)">
<path d="M9.40831 14.263V23.974C9.40831 24.5809 9.91409 25.0867 10.521 25.0867H12.3418C12.9488 25.0867 13.4546 24.5809 13.4546 23.974H21.547C22.7609 23.974 23.7725 23.1647 24.1771 22.052L25.391 17.8035C25.5933 16.9942 25.4921 16.0838 24.9864 15.4769C24.4806 14.7688 23.6713 14.3641 22.8621 14.3641H20.232C20.1309 14.3641 20.0297 14.263 20.0297 14.1618V12.7456C20.0297 11.8352 19.6251 11.026 18.917 10.4191L18.6135 10.1156C18.3101 9.81212 17.8043 9.71096 17.3996 9.81212C16.995 9.91328 16.5904 10.1156 16.3881 10.5202C15.9835 11.1272 15.5788 11.8352 15.1742 12.5433C14.5673 13.5549 13.9603 14.0607 13.6569 14.263V14.0607C13.6569 13.4537 13.1511 12.948 12.5442 12.948H10.7233C9.91409 13.0491 9.40831 13.5549 9.40831 14.263ZM15.9835 13.1503C16.4892 12.341 16.8939 11.7341 17.1973 11.1272C17.2985 11.026 17.3996 10.9248 17.5008 10.9248C17.602 10.9248 17.8043 10.9248 17.9054 11.026L18.2089 11.3295C18.7147 11.7341 18.917 12.2399 18.917 12.8468V14.1618C18.917 14.8699 19.4228 15.3757 20.1309 15.3757H22.7609C23.2667 15.3757 23.7725 15.578 24.076 16.0838C24.3794 16.4884 24.4806 16.9942 24.3794 17.5L23.2667 21.7485C23.0644 22.4566 22.3563 22.9624 21.6482 22.9624H13.5557V15.4769C14.0615 15.2746 14.9719 14.7688 15.9835 13.1503ZM10.4199 14.263C10.4199 14.1618 10.521 14.1618 10.521 14.1618H12.3418C12.443 14.1618 12.443 14.263 12.443 14.263V23.974C12.443 24.0751 12.3418 24.0751 12.3418 24.0751H10.521C10.4199 24.0751 10.4199 23.974 10.4199 23.974V14.263Z" fill="#6034C4"/>
<path d="M34.1908 19.5231C34.5954 18.9162 35 18.3093 35 17.5C35 16.7919 34.5954 16.0838 34.1908 15.4769C33.8873 15.0723 33.685 14.6676 33.5838 14.263C33.4827 13.8584 33.5838 13.3526 33.685 12.8468C33.7861 12.1387 33.9885 11.4306 33.685 10.7226C33.3815 10.1156 32.7746 9.71099 32.1677 9.30636C31.763 9.0029 31.3584 8.69943 31.1561 8.39596C30.8526 8.09249 30.7515 7.58671 30.6503 7.08093C30.448 6.37284 30.3468 5.66474 29.8411 5.15896C29.3353 4.65318 28.6272 4.45087 27.9191 4.34971C27.4133 4.24856 26.9075 4.1474 26.6041 3.94509C26.3006 3.74278 25.9971 3.33815 25.6937 2.93353C25.289 2.32659 24.8844 1.71965 24.1763 1.41619C23.4682 1.11272 22.7601 1.31503 22.052 1.41619C21.5463 1.51734 21.0405 1.6185 20.6359 1.51734C20.2312 1.41619 19.8266 1.21387 19.422 0.910405C18.9162 0.404625 18.2081 0 17.5 0C16.7919 0 16.0838 0.404625 15.4769 0.809249C15.0723 1.11272 14.6676 1.31503 14.263 1.41619C13.8584 1.51734 13.3526 1.41619 12.8468 1.31503C12.1387 1.21387 11.4306 1.01156 10.7226 1.31503C10.1156 1.6185 9.71099 2.22543 9.30636 2.83237C9.0029 3.237 8.69943 3.64162 8.39596 3.84393C8.09249 4.04625 7.58671 4.1474 7.08093 4.24856C6.37284 4.45087 5.66474 4.55203 5.15896 5.15896C4.55203 5.66474 4.45087 6.37284 4.24856 7.08093C4.1474 7.58671 4.04625 8.09249 3.84393 8.39596C3.64162 8.69943 3.237 9.0029 2.83237 9.30636C2.22543 9.71099 1.6185 10.1156 1.31503 10.8237C1.01156 11.5318 1.21387 12.2399 1.31503 12.948C1.41619 13.4538 1.51734 13.9595 1.41619 14.3642C1.31503 14.7688 1.11272 15.1734 0.809249 15.578C0.404625 16.185 0 16.7919 0 17.6012C0 18.3093 0.404625 19.0174 0.809249 19.6243C1.11272 20.0289 1.31503 20.4335 1.41619 20.8382C1.51734 21.2428 1.41619 21.7486 1.31503 22.2544C1.21387 22.9624 1.01156 23.6705 1.31503 24.3786C1.6185 25.0867 2.22543 25.4913 2.83237 25.896C3.237 26.1994 3.64162 26.5029 3.84393 26.8064C4.04625 27.1098 4.1474 27.6156 4.24856 28.1214C4.34971 28.8295 4.55203 29.5376 5.05781 30.0434C5.66474 30.3468 6.37284 30.5492 7.08093 30.6503C7.58671 30.7515 8.09249 30.8526 8.39596 31.0549C8.69943 31.2572 9.0029 31.6619 9.30636 32.0665C9.71099 32.6734 10.1156 33.2804 10.8237 33.5838C11.5318 33.8873 12.2399 33.685 12.948 33.5838C13.4538 33.4827 13.9595 33.3815 14.3642 33.4827C14.7688 33.5838 15.1734 33.7862 15.578 34.0896C16.185 34.4942 16.7919 34.8989 17.6012 34.8989C18.3093 34.8989 19.0174 34.4942 19.6243 34.0896C20.0289 33.7862 20.4335 33.5838 20.8382 33.4827C21.2428 33.3815 21.7486 33.4827 22.2544 33.5838C22.9624 33.685 23.6705 33.8873 24.3786 33.5838C25.0867 33.2804 25.4913 32.6734 25.896 32.0665C26.1994 31.6619 26.5029 31.2572 26.8064 31.0549C27.1098 30.8526 27.6156 30.7515 28.1214 30.6503C28.8295 30.5492 29.5376 30.3468 30.0434 29.8411C30.5492 29.3353 30.7515 28.6272 30.8526 27.9191C30.9538 27.4133 31.0549 26.9075 31.2572 26.6041C31.4596 26.3006 31.8642 25.9971 32.2688 25.6937C32.8757 25.289 33.4827 24.8844 33.7862 24.1763C34.0896 23.4682 33.8873 22.7601 33.7862 22.052C33.685 21.5463 33.5838 21.0405 33.685 20.6359C33.5838 20.3324 33.8873 19.9278 34.1908 19.5231ZM33.2804 18.9162C32.9769 19.422 32.6734 19.9278 32.5723 20.4335C32.4711 21.0405 32.5723 21.6474 32.6734 22.1532C32.7746 22.7601 32.8757 23.2659 32.6734 23.6705C32.4711 24.0752 32.0665 24.3786 31.5607 24.7833C31.0549 25.0867 30.5492 25.4913 30.2457 25.896C29.9422 26.4018 29.8411 27.0087 29.6387 27.5145C29.5376 28.1214 29.4364 28.6272 29.133 28.9307C28.8295 29.2341 28.2226 29.3353 27.7168 29.4364C27.1098 29.5376 26.5029 29.6388 26.0983 30.0434C25.5925 30.3468 25.289 30.8526 24.9856 31.3584C24.6821 31.8642 24.2775 32.37 23.8728 32.4711C23.4682 32.6734 22.9624 32.5723 22.3555 32.4711C21.7486 32.37 21.1416 32.2688 20.6359 32.37C20.0289 32.4711 19.6243 32.7746 19.1185 33.0781C18.6127 33.3815 18.1069 33.685 17.7023 33.685C17.2977 33.685 16.7919 33.3815 16.2861 33.0781C15.7804 32.7746 15.2746 32.4711 14.7688 32.37C14.5665 32.37 14.4653 32.37 14.263 32.37C13.8584 32.37 13.4538 32.4711 13.0491 32.4711C12.4422 32.5723 11.9364 32.6734 11.5318 32.4711C11.1272 32.2688 10.8237 31.8642 10.4191 31.3584C10.1156 30.8526 9.71099 30.3468 9.30636 30.0434C8.80058 29.7399 8.19365 29.6388 7.68787 29.4364C7.08093 29.3353 6.57515 29.2341 6.27168 28.9307C5.96821 28.6272 5.86706 28.0203 5.7659 27.5145C5.66474 26.9075 5.56359 26.3006 5.15896 25.896C4.85549 25.3902 4.34971 25.0867 3.84393 24.7833C3.33815 24.4798 2.83237 24.0752 2.73122 23.6705C2.5289 23.2659 2.63006 22.7601 2.73122 22.1532C2.83237 21.5463 2.93353 20.9393 2.83237 20.4335C2.73122 19.8266 2.42775 19.422 2.12428 18.9162C1.82081 18.4104 1.51734 17.9046 1.51734 17.5C1.51734 17.0954 1.82081 16.5896 2.12428 16.0838C2.42775 15.578 2.73122 15.0723 2.83237 14.5665C2.93353 13.9595 2.83237 13.3526 2.73122 12.8468C2.63006 12.2399 2.5289 11.7341 2.73122 11.3295C2.93353 10.9249 3.33815 10.6214 3.84393 10.2168C4.34971 9.9133 4.85549 9.50868 5.15896 9.10405C5.05781 8.49712 5.15896 7.89018 5.26012 7.28324C5.36128 6.67631 5.46243 6.17052 5.7659 5.86706C6.06937 5.56359 6.67631 5.46243 7.18209 5.36128C7.89018 5.15896 8.49712 5.05781 8.90174 4.75434C9.40752 4.34971 9.81215 3.94509 10.1156 3.43931C10.4191 2.93353 10.8237 2.42775 11.2283 2.32659C11.633 2.12428 12.1387 2.22544 12.7457 2.32659C13.3526 2.42775 13.9595 2.5289 14.4653 2.42775C15.0723 2.32659 15.4769 2.02312 15.9827 1.71965C16.4885 1.41619 16.9942 1.11272 17.3989 1.11272C17.8035 1.11272 18.3093 1.41619 18.815 1.71965C19.3208 2.02312 19.8266 2.32659 20.3324 2.42775C20.9393 2.5289 21.5463 2.42775 22.052 2.32659C22.659 2.22544 23.1648 2.12428 23.5694 2.32659C23.974 2.5289 24.2775 2.93353 24.6821 3.43931C24.9856 3.94509 25.3902 4.45087 25.7948 4.75434C26.3006 5.05781 26.9075 5.15896 27.4133 5.36128C28.0203 5.46243 28.526 5.56359 28.8295 5.86706C29.133 6.17052 29.2341 6.77746 29.3353 7.28324C29.4364 7.89018 29.5376 8.49712 29.9422 8.90174C30.2457 9.40752 30.7515 9.71099 31.2572 10.0145C31.763 10.3179 32.2688 10.7226 32.37 11.1272C32.5723 11.5318 32.4711 12.0376 32.37 12.6445C32.2688 13.2515 32.1677 13.8584 32.2688 14.3642C32.37 14.9711 32.6734 15.3757 32.9769 15.8815C33.2804 16.3873 33.5838 16.8931 33.5838 17.2977C33.8873 17.9046 33.5838 18.4104 33.2804 18.9162Z" fill="#6034C4"/>
<path d="M26.4014 26.7053C23.9736 29.0318 20.8378 30.3469 17.4996 30.3469C10.4187 30.3469 4.65279 24.581 4.65279 17.5C4.65279 15.4769 5.15857 13.4538 6.06897 11.633C6.97938 9.91333 8.29441 8.39599 9.81175 7.18212C10.1152 6.97981 10.1152 6.67634 9.91291 6.47403C9.81175 6.17056 9.40713 6.17056 9.20481 6.37287C7.48516 7.58674 6.06897 9.3064 5.15857 11.1272C4.14701 13.0492 3.64123 15.2746 3.64123 17.5C3.64123 25.0868 9.81175 31.3584 17.4996 31.3584C21.1412 31.3584 24.5805 29.9423 27.1094 27.4133C27.3118 27.211 27.3118 26.9076 27.1094 26.7053C26.9071 26.5029 26.6037 26.5029 26.4014 26.7053Z" fill="#6034C4"/>
<path d="M17.5004 3.6416C15.3761 3.6416 13.353 4.14738 11.431 5.05778C11.1276 5.15894 11.0264 5.46241 11.1276 5.66472C11.2287 5.96819 11.5322 6.06934 11.8357 5.86703C13.5553 4.95663 15.4773 4.552 17.5004 4.552C24.5813 4.552 30.3472 10.3179 30.3472 17.3988C30.3472 20.0289 29.538 22.5578 28.0206 24.6821C27.8183 24.8844 27.9195 25.1879 28.1218 25.3902C28.223 25.4913 28.3241 25.4913 28.4253 25.4913C28.6276 25.4913 28.7287 25.3902 28.8299 25.289C30.4484 22.9624 31.2576 20.2312 31.2576 17.3988C31.3588 9.81212 25.0871 3.6416 17.5004 3.6416Z" fill="#6034C4"/>
</g>
<defs>
<clipPath id="clip0_87_1124">
<rect width="34.6" height="34.6" fill="white" transform="scale(1.01156)"/>
</clipPath>
</defs>
</svg>
