<svg width="78" height="80" viewBox="0 0 78 80" fill="none" xmlns="http://www.w3.org/2000/svg">
<g clip-path="url(#clip0_87_1172)">
<path d="M55.2112 7.85417H42.7394C42.3044 6.79167 41.2892 6.04167 40.0669 6.04167C38.6789 6.04167 36.3379 6.04167 34.9291 6.04167C34.9291 2.70833 32.2359 0 28.9211 0C25.6064 0 22.9131 2.70833 22.9131 6.04167C21.5044 6.04167 19.1841 6.04167 17.7753 6.04167C16.5737 6.04167 15.5378 6.79167 15.1028 7.85417H2.63108C1.18088 7.85417 0 9.04167 0 10.5V22.2917C0 22.9375 0.517928 23.4583 1.16016 23.4583C1.80239 23.4583 2.32032 22.9375 2.32032 22.2917V10.5C2.32032 10.3333 2.44462 10.2083 2.61036 10.2083H14.8749V13.0625H6.71235C5.90438 13.0625 5.26215 13.7292 5.26215 14.5208V73.375C5.26215 74.1875 5.9251 74.8333 6.71235 74.8333H41.31C41.8072 74.8333 42.2837 74.6458 42.6566 74.2708C45.7849 71.1458 48.9339 68.0208 52.0622 64.875C52.4143 64.5208 52.6215 64.0208 52.6215 63.5208V14.5C52.6215 13.6875 51.9586 13.0417 51.1713 13.0417H42.988V10.1875H55.2526C55.4183 10.1875 55.5426 10.3125 55.5426 10.4792V77.3333C55.5426 77.5 55.4183 77.625 55.2526 77.625H2.63108C2.46534 77.625 2.34104 77.5 2.34104 77.3333V27.2708C2.34104 26.625 1.82311 26.1042 1.18088 26.1042C0.538645 26.1042 0.0207171 26.625 0.0207171 27.2708V77.3542C0.0207171 78.8125 1.20159 80 2.65179 80H55.2319C56.6821 80 57.8629 78.8125 57.8629 77.3542V10.5C57.8422 9.04167 56.6614 7.85417 55.2112 7.85417ZM17.2159 8.9375C17.2159 8.64583 17.4645 8.39583 17.7546 8.39583C19.1633 8.39583 21.5044 8.39583 22.9131 8.39583C24.1976 8.39583 25.2335 7.35417 25.2335 6.0625C25.2335 4.02083 26.8908 2.35417 28.9211 2.35417C30.9514 2.35417 32.6088 4.02083 32.6088 6.0625C32.6088 7.35417 33.6446 8.39583 34.9291 8.39583C36.3379 8.39583 38.6789 8.39583 40.0877 8.39583C40.3777 8.39583 40.6263 8.64583 40.6263 8.9375V14.7083C40.6263 15 40.3777 15.25 40.0877 15.25H17.7753C17.4853 15.25 17.2367 15 17.2367 14.7083V8.9375H17.2159ZM42.7602 70.8333V65.3125C42.7602 65.1458 42.9052 65.0208 43.0709 65.0208H48.6024L42.7602 70.8333ZM50.2598 62.6667H43.0709C41.6207 62.6667 40.4398 63.8542 40.4398 65.3125V72.4792H7.58247V15.3958H14.9992C15.31 16.6458 16.4287 17.6042 17.796 17.6042H40.0877C41.4343 17.6042 42.5737 16.6667 42.8845 15.3958H50.3012V62.6667H50.2598Z" fill="#5958A0"/>
<path d="M16.9258 20.7917H13.2796C12.0987 20.7917 11.125 21.7709 11.125 22.9584V26.6459C11.125 27.8334 12.0987 28.8125 13.2796 28.8125H16.9465C18.1274 28.8125 19.1011 27.8334 19.1011 26.6459V22.9584C19.1011 21.75 18.1274 20.7917 16.9258 20.7917ZM16.7601 26.4584H13.4453V23.125H16.7601V26.4584Z" fill="#5958A0"/>
<path d="M16.9258 30.8542H13.2796C12.0987 30.8542 11.125 31.8334 11.125 33.0209V36.7084C11.125 37.8959 12.0987 38.875 13.2796 38.875H16.9465C18.1274 38.875 19.1011 37.8959 19.1011 36.7084V33.0209C19.1011 31.8334 18.1274 30.8542 16.9258 30.8542ZM16.7601 36.5417H13.4453V33.2084H16.7601V36.5417Z" fill="#5958A0"/>
<path d="M16.9258 40.9375H13.2796C12.0987 40.9375 11.125 41.9167 11.125 43.1042V46.7917C11.125 47.9792 12.0987 48.9583 13.2796 48.9583H16.9465C18.1274 48.9583 19.1011 47.9792 19.1011 46.7917V43.1042C19.1011 41.9167 18.1274 40.9375 16.9258 40.9375ZM16.7601 46.625H13.4453V43.2917H16.7601V46.625Z" fill="#5958A0"/>
<path d="M16.9258 51.0208H13.2796C12.0987 51.0208 11.125 52 11.125 53.1875V56.875C11.125 58.0625 12.0987 59.0416 13.2796 59.0416H16.9465C18.1274 59.0416 19.1011 58.0625 19.1011 56.875V53.1875C19.1011 51.9791 18.1274 51.0208 16.9258 51.0208ZM16.7601 56.6875H13.4453V53.3541H16.7601V56.6875Z" fill="#5958A0"/>
<path d="M16.9258 61.0833H13.2796C12.0987 61.0833 11.125 62.0625 11.125 63.25V66.9375C11.125 68.125 12.0987 69.1041 13.2796 69.1041H16.9465C18.1274 69.1041 19.1011 68.125 19.1011 66.9375V63.25C19.1011 62.0625 18.1274 61.0833 16.9258 61.0833ZM16.7601 66.7708H13.4453V63.4375H16.7601V66.7708Z" fill="#5958A0"/>
<path d="M23.2441 21.4167C22.6019 21.4167 22.084 21.9375 22.084 22.5834C22.084 23.2292 22.6019 23.75 23.2441 23.75H43.982C44.6242 23.75 45.1422 23.2292 45.1422 22.5834C45.1422 21.9375 44.6242 21.4167 43.982 21.4167H23.2441Z" fill="#5958A0"/>
<path d="M23.2441 28.1666H39.7764C40.4186 28.1666 40.9366 27.6458 40.9366 27C40.9366 26.3541 40.4186 25.8333 39.7764 25.8333H23.2441C22.6019 25.8333 22.084 26.3541 22.084 27C22.084 27.6458 22.6019 28.1666 23.2441 28.1666Z" fill="#5958A0"/>
<path d="M43.982 31.5H23.2441C22.6019 31.5 22.084 32.0208 22.084 32.6667C22.084 33.3125 22.6019 33.8333 23.2441 33.8333H43.982C44.6242 33.8333 45.1421 33.3125 45.1421 32.6667C45.1629 32.0208 44.6242 31.5 43.982 31.5Z" fill="#5958A0"/>
<path d="M23.2441 38.25H37.0003C37.6426 38.25 38.1605 37.7292 38.1605 37.0834C38.1605 36.4375 37.6426 35.9167 37.0003 35.9167H23.2441C22.6019 35.9167 22.084 36.4375 22.084 37.0834C22.084 37.7292 22.6019 38.25 23.2441 38.25Z" fill="#5958A0"/>
<path d="M41.3509 41.5833H23.2441C22.6019 41.5833 22.084 42.1041 22.084 42.75C22.084 43.3958 22.6019 43.9166 23.2441 43.9166H41.3509C41.9932 43.9166 42.5111 43.3958 42.5111 42.75C42.5111 42.1041 41.9932 41.5833 41.3509 41.5833Z" fill="#5958A0"/>
<path d="M23.2441 48.3125H28.9206C29.5629 48.3125 30.0808 47.7917 30.0808 47.1459C30.0808 46.5 29.5629 45.9792 28.9206 45.9792H23.2441C22.6019 45.9792 22.084 46.5 22.084 47.1459C22.084 47.7917 22.6019 48.3125 23.2441 48.3125Z" fill="#5958A0"/>
<path d="M37.0003 51.6458H23.2441C22.6019 51.6458 22.084 52.1666 22.084 52.8125C22.084 53.4583 22.6019 53.9791 23.2441 53.9791H37.0003C37.6426 53.9791 38.1605 53.4583 38.1605 52.8125C38.1605 52.1875 37.6426 51.6458 37.0003 51.6458Z" fill="#5958A0"/>
<path d="M37.0003 56.0625H23.2441C22.6019 56.0625 22.084 56.5833 22.084 57.2292C22.084 57.875 22.6019 58.3958 23.2441 58.3958H37.0003C37.6426 58.3958 38.1605 57.875 38.1605 57.2292C38.1605 56.5833 37.6426 56.0625 37.0003 56.0625Z" fill="#5958A0"/>
<path d="M37.0003 61.7292H23.2441C22.6019 61.7292 22.084 62.25 22.084 62.8959C22.084 63.5417 22.6019 64.0625 23.2441 64.0625H37.0003C37.6426 64.0625 38.1605 63.5417 38.1605 62.8959C38.1605 62.25 37.6426 61.7292 37.0003 61.7292Z" fill="#5958A0"/>
<path d="M32.4226 66.125H23.2656C22.6234 66.125 22.1055 66.6458 22.1055 67.2917C22.1055 67.9375 22.6234 68.4583 23.2656 68.4583H32.4226C33.0648 68.4583 33.5828 67.9375 33.5828 67.2917C33.5828 66.6667 33.0648 66.125 32.4226 66.125Z" fill="#5958A0"/>
<path d="M19.6815 12.25C19.9094 12.8333 20.6138 13.125 21.1938 12.875C21.7739 12.625 22.064 11.9375 21.8154 11.3542C21.5667 10.7708 20.8831 10.4792 20.2823 10.7292C19.7229 10.9583 19.4329 11.6667 19.6815 12.25Z" fill="#5958A0"/>
<path d="M36.0057 12.25C36.2336 12.8333 36.938 13.125 37.5181 12.875C38.0981 12.625 38.3882 11.9375 38.1396 11.3542C37.891 10.7708 37.2073 10.4792 36.6065 10.7292C36.0471 10.9583 35.7571 11.6667 36.0057 12.25Z" fill="#5958A0"/>
<path d="M77.4826 34.5833C77.1718 32.0833 75.2866 30.125 72.8834 29.6666C72.6762 27.1041 71.889 22.3333 69.0714 22.3333C66.2954 22.3333 65.5081 26.9791 65.2802 29.5625H64.4308C62.5663 29.5625 61.0332 31.1041 61.0332 32.9791C61.0332 34.3333 61.8205 35.5 62.9392 36.0416C62.0483 47.25 62.9185 60.0208 64.3272 65.1875C64.5551 66 65.1559 66.6458 65.9224 66.9583V70.6875C65.9224 72.4166 67.3312 73.8333 69.0507 73.8333C70.7288 73.8333 72.179 72.3541 72.179 70.6875V66.9791C72.9663 66.6666 73.5878 66 73.8157 65.1875C74.1057 64.1041 74.375 62.75 74.6029 61.1666C74.7065 60.5208 74.2507 59.9375 73.6085 59.8333C72.9663 59.75 72.3862 60.1875 72.2826 60.8333C72.0754 62.3125 71.8268 63.5833 71.5368 64.5833C71.4954 64.75 71.2675 64.875 71.0396 64.875H71.0603H67.1448H67.124C66.8962 64.875 66.6683 64.75 66.6268 64.5833C65.1352 59.1458 64.5344 46.25 65.3009 36.4166H70.8946C71.0603 38.0208 71.2467 40.5625 71.2467 43.8541C71.2467 44.7916 71.226 45.8541 71.1846 47.0208C71.1224 48.4791 71.9718 49.75 73.2149 50.2916C73.1527 52.1041 73.0699 53.8541 72.9456 55.5C72.9041 56.1458 73.3806 56.7083 74.0228 56.75C74.6029 56.7916 75.2244 56.25 75.2659 55.6667C75.3902 54 75.473 52.25 75.5352 50.4166C76.9025 50.0208 77.8969 48.7291 77.9591 47.2916C78.0005 46.0416 78.042 44.8958 78.042 43.8541C78.0005 39.625 77.7105 36.4791 77.4826 34.5833ZM69.6515 71.2917C69.4858 71.4583 69.2786 71.5208 69.0922 71.5208C68.595 71.4791 68.3256 71.2083 68.2842 70.7083V67.2083H68.9057H69.8794V70.7083C69.8794 70.9375 69.7966 71.1458 69.6515 71.2917ZM69.0922 24.7083C69.5272 24.9166 70.273 26.6458 70.5424 29.5833H67.6212C67.9113 26.6666 68.6571 24.9375 69.0922 24.7083ZM75.5973 47.2083C75.5766 47.75 74.9965 48.2708 74.4579 48.2291C73.8778 48.1875 73.4428 47.7083 73.4635 47.125C73.5049 45.9375 73.5256 44.8541 73.5256 43.875C73.5256 40.3125 73.3185 37.625 73.132 35.9791C73.0284 34.9166 72.1169 34.1041 71.0396 34.1041H64.4101C63.8507 34.1041 63.3535 33.625 63.3535 33.0416C63.3535 32.4583 63.83 31.9791 64.4101 31.9791H71.7025C73.422 32.0625 74.9137 33.125 75.1209 34.9166C75.3487 36.75 75.6181 39.7916 75.6181 43.8958C75.6802 44.8541 75.6388 46 75.5973 47.2083Z" fill="#5958A0"/>
</g>
<defs>
<clipPath id="clip0_87_1172">
<rect width="78" height="80" fill="white"/>
</clipPath>
</defs>
</svg>
