<svg width="40" height="55" viewBox="0 0 40 55" fill="none" xmlns="http://www.w3.org/2000/svg">
<g id="Group 1000001566">
<path id="Vector" d="M19.7956 33.7551C20.2998 33.1338 20.6868 32.4898 20.8462 31.7319C21.0446 30.7822 20.6901 29.9787 19.8509 29.4974C19.5549 29.325 19.2296 29.1884 18.9011 29.0908C17.7171 28.7265 16.4941 28.5476 15.2646 28.45C13.6025 28.3166 11.9339 28.2971 10.2653 28.3329C9.81969 28.3427 9.42937 28.4728 9.10411 28.759C8.52188 29.2729 7.95592 29.8064 7.36719 30.3463C7.46151 30.4504 7.53958 30.5382 7.62089 30.6228C8.27793 31.2733 9.04556 31.7482 9.91727 32.0539C10.867 32.389 11.8526 32.5126 12.8512 32.5614C13.7066 32.6036 14.5621 32.6004 15.4175 32.6427C15.9997 32.6719 16.5852 32.7175 17.1642 32.7955C18.0912 32.9257 18.9727 33.2119 19.7956 33.7551Z" fill="white"/>
<path id="Vector_2" d="M19.9718 54.8324C19.8254 54.7999 19.679 54.7706 19.5327 54.7283C18.983 54.5689 18.4138 54.4486 17.8868 54.2307C15.6848 53.3199 13.6096 52.1815 11.723 50.7145C9.07213 48.6524 7.14005 46.0665 6.01138 42.8952C5.81622 42.3487 5.52998 41.8511 5.17544 41.3989C4.78838 40.9045 4.38179 40.4231 3.98172 39.9385C2.68065 38.3642 1.71136 36.6143 1.15191 34.6464C0.664007 32.9323 0.494869 31.1823 0.56968 29.4031C0.579438 29.1364 0.595702 28.8697 0.611965 28.5672C1.5715 28.7981 2.492 29.0193 3.45804 29.2535C3.45804 26.5733 3.45804 23.9419 3.45804 21.291C3.69548 21.291 3.8939 21.291 4.11833 21.291C4.11833 24.6575 4.11833 28.0208 4.11833 31.4491C3.31167 30.8115 2.55055 30.2098 1.77316 29.5918C1.61053 29.8943 1.58451 30.1968 1.55198 30.4928C1.39586 31.9402 1.64956 33.3454 2.03663 34.7277C2.28383 35.6059 2.61235 36.4549 3.04495 37.2583C3.406 37.9316 3.84836 38.5366 4.43709 39.0408C4.9998 39.5222 5.51047 40.0588 5.90078 40.6899C6.0992 41.0119 6.2846 41.3501 6.4082 41.7014C7.85888 45.8551 10.5293 49.0036 14.2666 51.2773C15.6132 52.0969 17.0314 52.767 18.4983 53.3394C19.3245 53.6615 20.1572 53.5866 20.9931 53.385C21.5005 53.2614 21.9852 53.0727 22.421 52.7735C23.3741 52.1197 23.5367 51.0626 22.8276 50.1518C22.4828 49.7127 22.0307 49.4297 21.5135 49.2313C19.7506 48.5515 18.0657 47.7123 16.4589 46.717C16.3516 46.6487 16.2442 46.5772 16.1499 46.4666C16.215 46.4731 16.2833 46.4698 16.3483 46.4828C17.4933 46.73 18.6382 46.974 19.8059 47.0781C21.4257 47.2244 23.013 47.1204 24.4865 46.3267C25.5468 45.7542 26.3893 44.9411 27.1049 43.9815C27.1309 43.9458 27.1504 43.9067 27.1667 43.8677C27.1732 43.8482 27.1667 43.8254 27.1667 43.7799C26.8837 43.7311 26.6007 43.6628 26.3112 43.64C26.1583 43.627 25.9892 43.6758 25.8396 43.7311C24.8833 44.0856 23.914 44.3914 22.9089 44.5735C20.876 44.9476 18.9049 44.7654 17.0607 43.7961C16.2442 43.3668 15.3953 43.2074 14.4976 43.1912C14.0975 43.1846 13.6942 43.1846 13.2941 43.1814C13.177 43.1814 13.0599 43.1814 12.8973 43.1814C12.9428 43.0741 12.9623 43.0025 12.9981 42.9472C13.3006 42.4918 13.7332 42.2576 14.2764 42.2186C15.0212 42.1666 15.7498 42.2772 16.4654 42.4593C17.8413 42.8106 19.2074 43.1879 20.5768 43.5522C20.6776 43.5782 20.7784 43.601 20.9053 43.601C19.7441 41.8348 18.5341 40.1109 17.3046 38.3024C17.5486 38.3512 17.7274 38.3707 17.8933 38.4228C18.6479 38.6569 19.3993 38.9009 20.1539 39.1383C20.7427 39.3237 21.3411 39.4766 21.9657 39.4994C22.8536 39.5319 23.631 39.2522 24.3011 38.6797C24.532 38.4846 24.7337 38.2569 24.9418 38.0357C25.0297 37.9446 25.1012 37.834 25.2086 37.6942C24.4735 37.242 23.7286 36.8517 22.9935 36.4061C23.0976 35.9215 23.1984 35.4466 23.3058 34.9717C23.6115 33.6186 23.888 32.259 24.3499 30.9514C24.5353 30.4212 24.7629 29.9008 25.0264 29.4064C25.4883 28.5412 26.2071 27.9524 27.1179 27.5914C27.8985 27.2824 28.7149 27.1068 29.5443 27.0092C30.8552 26.8531 32.1725 26.736 33.4866 26.6026C33.646 26.5863 33.8053 26.5603 34.0005 26.5375C33.968 26.4367 33.9517 26.3554 33.9159 26.2838C33.7696 25.9943 33.6037 25.7114 33.4703 25.4154C32.9466 24.2737 32.4295 23.1288 31.9188 21.9838C31.844 21.8179 31.8017 21.6358 31.7497 21.4601C31.6326 21.0666 31.6391 20.6795 31.7594 20.2794C32.2245 18.7247 32.5173 17.1406 32.4815 15.511C32.3969 11.9103 30.7511 9.30171 27.4952 7.73393C26.1356 7.08015 24.6914 6.7126 23.2049 6.48491C23.0651 6.46214 22.9252 6.44913 22.7886 6.41986C22.5609 6.37107 22.369 6.26373 22.2389 6.0393C22.2779 6.01978 22.3039 6.00027 22.3332 5.99701C24.4702 5.93196 26.5487 6.21494 28.5393 7.02811C30.9137 7.9974 32.8035 9.58144 34.2997 11.6404C36.1017 14.1189 37.3572 16.8446 37.946 19.8631C38.2777 21.561 38.3916 23.2784 38.2485 25.0055C38.1964 25.6301 38.1053 26.2546 38.0663 26.8823C38.0435 27.2466 38.0566 27.6207 38.1184 27.9817C38.2289 28.6095 38.629 29.0421 39.182 29.3413C39.2568 29.3836 39.3316 29.4389 39.4162 29.4552C39.787 29.53 39.9138 29.7869 39.9561 30.1317C40.0212 30.6749 40.0407 31.2181 39.8325 31.7353C39.4064 32.8119 38.9706 33.8853 38.5249 34.9554C37.5719 37.2453 36.6189 39.5352 35.6431 41.8153C35.1454 42.9797 34.6575 44.1539 34.0688 45.2729C32.3546 48.5255 29.7948 50.9455 26.5682 52.6726C24.841 53.5964 23.0293 54.299 21.1297 54.7836C21.0874 54.7934 21.0517 54.8194 21.0126 54.8389C20.6646 54.8324 20.3198 54.8324 19.9718 54.8324ZM28.5555 33.5405C28.5458 33.573 28.536 33.6023 28.5263 33.6348C29.0044 34.1618 29.4858 34.6854 30.0648 35.1115C30.9267 35.7491 31.5805 35.7426 32.4099 35.0497C32.8003 34.7245 33.1418 34.3439 33.5028 33.9861C33.5419 33.9471 33.5549 33.8853 33.6037 33.7877C31.8928 33.7031 30.2242 33.6218 28.5555 33.5405Z" fill="url(#paint0_linear_87_1130)"/>
<path id="Vector_3" d="M0 10.0757C0.0650531 9.7277 0.136612 9.37966 0.191907 9.02837C0.865207 4.595 4.29676 1.02684 8.68785 0.194158C13.4009 -0.700322 18.0295 1.55052 20.225 5.818C20.8398 7.01498 21.1976 8.28677 21.3342 9.63012C21.7635 13.8586 19.5647 18.1 15.6095 20.1362C14.4028 20.7575 13.1245 21.1445 11.7681 21.2616C8.50245 21.5446 5.66938 20.559 3.3047 18.305C1.5873 16.6656 0.565962 14.6425 0.191907 12.294C0.136612 11.9428 0.0650531 11.5947 0 11.2467C0 10.8564 0 10.466 0 10.0757ZM17.0244 18.009C19.2265 16.3989 21.1976 12.564 20.2315 8.45591C19.1256 3.75907 14.8321 0.665794 10.1711 0.939017C5.82551 1.19272 1.8345 4.41936 1.11566 9.23654C0.774132 11.5232 1.223 13.6732 2.40046 15.6736C2.9339 16.581 4.23496 18.074 4.76189 18.2399C4.76189 16.3176 4.76189 14.405 4.76189 12.4892C5.61083 12.4892 6.42725 12.4892 7.26969 12.4892C7.27945 12.6779 7.29246 12.8242 7.29246 12.9738C7.29571 14.6327 7.29246 16.2916 7.29571 17.9504C7.29571 18.4286 7.29571 18.9034 7.29896 19.3816C7.30222 19.7719 7.29896 19.7817 7.68278 19.8955C8.08611 20.0159 8.49919 20.1134 8.90903 20.2175C9.01962 20.2468 9.13997 20.2468 9.3026 20.2663C9.3026 16.3599 9.3026 12.4859 9.3026 8.60878C10.2719 8.60878 11.1956 8.60878 12.1617 8.60878C12.1617 12.5022 12.1617 16.3664 12.1617 20.2663C12.874 20.1947 13.5115 20.0159 14.1426 19.7686C14.1426 19.3198 14.1426 18.8969 14.1426 18.4741C14.1426 18.0415 14.1426 17.6056 14.1426 17.173C14.1426 16.7502 14.1426 16.3273 14.1426 15.9045C14.1426 15.4816 14.1426 15.0588 14.1426 14.636C14.1426 14.2034 14.1426 13.7675 14.1426 13.3349C14.1426 12.912 14.1426 12.4892 14.1426 12.0664C14.1426 11.6338 14.1426 11.1979 14.1426 10.7653C14.1426 10.3424 14.1426 9.9196 14.1426 9.49676C14.1426 9.07391 14.1426 8.65107 14.1426 8.22822C14.1426 7.79562 14.1393 7.35976 14.1426 6.92716C14.1458 6.51082 14.1263 6.09123 14.1556 5.68139C15.1249 5.68139 16.0519 5.68139 17.0244 5.68139C17.0244 9.80251 17.0244 13.8911 17.0244 18.009Z" fill="url(#paint1_linear_87_1130)"/>
<path id="Vector_4" d="M19.7969 33.7551C18.974 33.2119 18.0925 32.9224 17.1622 32.7955C16.5833 32.7175 16.001 32.6687 15.4156 32.6427C14.5601 32.6004 13.7047 32.6036 12.8492 32.5614C11.8506 32.5126 10.8651 32.3857 9.91532 32.0539C9.04361 31.7482 8.27598 31.2733 7.61894 30.6228C7.53437 30.5415 7.45956 30.4504 7.36523 30.3463C7.95397 29.8064 8.51667 29.2729 9.10215 28.759C9.42742 28.4728 9.81774 28.3427 10.2634 28.3329C11.932 28.2971 13.6006 28.3166 15.2627 28.45C16.4954 28.5508 17.7152 28.7297 18.8992 29.0908C19.2277 29.1916 19.5529 29.3282 19.8489 29.4974C20.6881 29.982 21.0427 30.7822 20.8442 31.7319C20.6914 32.4931 20.3011 33.1371 19.7969 33.7551Z" fill="url(#paint2_linear_87_1130)"/>
</g>
<defs>
<linearGradient id="paint0_linear_87_1130" x1="0.551846" y1="30.41" x2="40.0011" y2="30.41" gradientUnits="userSpaceOnUse">
<stop stop-color="#AD0950"/>
<stop offset="1" stop-color="#F33A40"/>
</linearGradient>
<linearGradient id="paint1_linear_87_1130" x1="0" y1="10.6543" x2="21.3865" y2="10.6543" gradientUnits="userSpaceOnUse">
<stop stop-color="#AD0950"/>
<stop offset="1" stop-color="#F33A40"/>
</linearGradient>
<linearGradient id="paint2_linear_87_1130" x1="7.36836" y1="31.0351" x2="20.9019" y2="31.0351" gradientUnits="userSpaceOnUse">
<stop stop-color="#AD0950"/>
<stop offset="1" stop-color="#F33A40"/>
</linearGradient>
</defs>
</svg>
