<svg width="35" height="34" viewBox="0 0 35 34" fill="none" xmlns="http://www.w3.org/2000/svg">
<g clip-path="url(#clip0_87_1084)">
<path d="M35.0004 17.6014C35.0004 9.71109 28.6275 3.33819 20.7372 3.33819H20.3326C19.2199 1.31504 16.9944 0 14.5666 0H10.7227C9.91341 0 9.20531 0.202314 8.49721 0.7081C8.29489 0.910415 8.29489 1.21389 8.39605 1.4162C8.59836 1.61852 8.90183 1.71967 9.10415 1.51736C9.60994 1.21389 10.1157 1.01157 10.7227 1.01157H14.5666C17.7025 1.01157 20.1303 3.5405 20.1303 6.57522V14.3643C20.1303 14.6678 20.3326 14.8701 20.6361 14.8701C20.9395 14.8701 21.1419 14.6678 21.1419 14.3643V12.5435C23.6708 12.847 25.6939 14.9713 25.6939 17.6014C25.6939 17.9048 25.8962 18.1071 26.1997 18.1071C26.5032 18.1071 26.7055 17.9048 26.7055 17.6014C26.7055 16.9944 26.6043 16.4886 26.5032 15.9828L28.2229 15.6794C28.4252 16.2863 28.4252 16.9944 28.4252 17.6014C28.4252 21.7488 25.1881 25.087 21.1419 25.3905V23.6708C22.9627 23.4685 24.6824 22.5581 25.6939 20.9395C25.8962 20.7372 25.7951 20.4338 25.5928 20.2314C25.3905 20.0291 25.087 20.1303 24.8847 20.3326C24.6824 20.6361 24.3789 20.9395 24.0754 21.243L23.0638 19.8268C23.6708 19.2199 23.9743 18.4106 23.9743 17.5002C23.9743 16.5898 23.6708 15.7805 22.9627 15.0724C22.7604 14.8701 22.4569 14.8701 22.2546 15.0724C22.0523 15.2747 22.0523 15.5782 22.2546 15.7805C22.6592 16.1852 22.9627 16.7921 22.9627 17.399C22.9627 18.5118 22.1534 19.4222 21.1419 19.7257V16.5898C21.1419 16.2863 20.9395 16.084 20.6361 16.084C20.3326 16.084 20.1303 16.2863 20.1303 16.5898V18.1071C19.2199 16.9944 17.9048 16.2863 16.3875 16.2863H14.6678C12.6447 16.2863 10.925 14.5666 10.925 12.5435V11.4308C10.925 11.1273 10.7227 10.925 10.4192 10.925C10.1157 10.925 9.91341 11.1273 9.91341 11.4308V12.5435C9.91341 15.1736 12.0377 17.2979 14.6678 17.2979H16.3875C18.4106 17.2979 20.1303 19.0176 20.1303 21.0407V30.9541C19.0176 32.0668 17.5002 32.7749 15.8817 32.7749C12.6447 32.7749 10.0146 30.1449 10.0146 26.9078C10.0146 26.6043 9.81225 26.402 9.50878 26.402H7.89026C6.97985 26.402 6.06943 25.9974 5.46249 25.3905C4.75439 24.6824 4.45092 23.8731 4.45092 22.9627C4.45092 22.0523 4.75439 21.243 5.36133 20.6361H6.97985C7.28332 20.6361 7.48563 20.4338 7.48563 20.1303C7.48563 19.8268 7.28332 19.6245 6.97985 19.6245H4.55207C3.64166 19.6245 2.73124 19.2199 2.1243 18.6129C1.4162 17.9048 1.11273 17.0956 1.11273 16.1852C1.11273 14.2632 2.63009 12.7458 4.55207 12.7458H6.17059C6.3729 12.7458 6.57522 12.5435 6.67638 12.3412C6.77753 12.1389 6.57522 11.8354 6.3729 11.7342C5.36133 11.3296 4.75439 10.318 4.75439 9.20531C4.75439 7.68795 5.96828 6.47406 7.48563 6.47406H10.4192C12.3412 6.47406 13.8585 7.99142 13.8585 9.91341V10.5203C13.8585 10.8238 14.0609 11.0261 14.3643 11.0261C14.6678 11.0261 14.8701 10.8238 14.8701 10.5203V10.0146C14.8701 7.48563 12.847 5.46249 10.318 5.46249H8.69952C8.49721 5.36133 8.29489 5.05786 8.19373 4.85555C8.09258 4.45092 7.99142 4.14745 7.99142 3.74282C7.99142 3.5405 7.99142 3.33819 8.09258 3.23703C8.09258 2.93356 7.89026 2.73124 7.68795 2.63009C7.38448 2.52893 7.081 2.73124 7.081 3.03472C7.081 3.23703 6.97985 3.5405 6.97985 3.74282C6.97985 4.2486 7.081 4.75439 7.28332 5.15902C7.28332 5.26017 7.38448 5.36133 7.38448 5.46249C5.36133 5.46249 3.74282 7.18216 3.74282 9.20531C3.74282 10.1157 4.04629 11.0261 4.65323 11.6331H4.55207C2.02314 11.6331 0 13.6562 0 16.1852C0 17.399 0.505786 18.5118 1.31504 19.4222C2.02314 20.2314 3.03472 20.6361 4.04629 20.7372C3.64166 21.4453 3.33819 22.2546 3.33819 23.0638C3.33819 24.2777 3.84397 25.3905 4.65323 26.3009C5.46249 27.1101 6.67638 27.6159 7.89026 27.6159H9.10415C9.40762 31.1564 12.3412 33.9888 15.9828 33.9888C17.8037 33.9888 19.6245 33.2807 20.9395 31.8645C28.6275 31.7634 35.0004 25.3905 35.0004 17.6014ZM33.8877 17.0956H32.168C31.9657 12.5435 29.0321 8.59836 24.9858 6.87869L25.5928 5.26017C30.3472 7.18216 33.6854 11.7342 33.8877 17.0956ZM24.6824 4.9567L24.0754 6.57522C23.165 6.27175 22.1534 6.06943 21.1419 6.06943C21.1419 5.46249 20.9395 4.85555 20.7372 4.34976C22.1534 4.34976 23.4685 4.55207 24.6824 4.9567ZM24.6824 25.4916L25.5928 27.009C24.2777 27.7171 22.7604 28.1217 21.243 28.2229V26.5032C22.4569 26.402 23.6708 25.9974 24.6824 25.4916ZM22.2546 20.5349L23.2662 21.9511C22.6592 22.3557 21.9511 22.5581 21.1419 22.6592V20.9395C21.5465 20.8384 21.9511 20.7372 22.2546 20.5349ZM21.1419 30.8529V29.1333C23.8731 29.0321 26.5032 27.9194 28.5263 26.0986C28.7286 25.8962 28.7286 25.5928 28.5263 25.3905C28.324 25.1881 28.0205 25.1881 27.8182 25.3905C27.4136 25.7951 26.9078 26.1997 26.402 26.5032L25.4916 24.9858C27.8182 23.3673 29.4367 20.7372 29.4367 17.6014C29.4367 14.6678 28.0205 11.9366 25.5928 10.318C25.3905 10.1157 25.087 10.2169 24.8847 10.4192C24.6824 10.6215 24.7835 10.925 24.9858 11.1273C26.3009 12.0377 27.3124 13.2516 27.8182 14.6678L26.0986 14.9713C25.1881 13.0493 23.2662 11.6331 21.1419 11.5319V9.81225C21.7488 9.81225 22.2546 9.91341 22.7604 10.1157H22.8615C23.0638 10.1157 23.2662 10.0146 23.3673 9.71109C23.4685 9.40762 23.2662 9.20531 23.0638 9.10415C22.4569 8.90183 21.7488 8.80068 21.1419 8.80068V7.081C26.7055 7.38448 31.1564 11.9366 31.1564 17.6014C31.1564 19.6245 30.5495 21.5465 29.5379 23.2662C29.3356 23.4685 29.4367 23.7719 29.7402 23.9743C29.8414 24.0754 29.9425 24.0754 30.0437 24.0754C30.246 24.0754 30.3472 23.9743 30.4483 23.8731C31.5611 22.1534 32.168 20.2314 32.2692 18.2083H33.9888C33.6854 25.087 28.1217 30.6506 21.1419 30.8529Z" fill="#6034C4"/>
<path d="M14.9705 28.324C15.2739 28.324 15.4763 28.1217 15.4763 27.8182V24.48C15.4763 21.85 13.352 19.7257 10.7219 19.7257H9.30567C9.0022 19.7257 8.79989 19.928 8.79989 20.2314C8.79989 20.5349 9.0022 20.7372 9.30567 20.7372H10.7219C12.8462 20.7372 14.4647 22.4569 14.4647 24.48V27.8182C14.4647 28.1217 14.667 28.324 14.9705 28.324Z" fill="#6034C4"/>
</g>
<defs>
<clipPath id="clip0_87_1084">
<rect width="34.6" height="33.6" fill="white" transform="scale(1.01157)"/>
</clipPath>
</defs>
</svg>
