<svg width="35" height="35" viewBox="0 0 35 35" fill="none" xmlns="http://www.w3.org/2000/svg">
<g id="Group">
<path id="Vector" d="M10.5913 16.7475C10.4899 16.9504 10.5913 17.3563 10.7943 17.4578C11.2002 17.6607 11.7075 17.8637 12.2149 17.8637C12.7223 17.8637 13.1281 17.7622 13.6355 17.4578C13.8384 17.3563 13.9399 17.0519 13.8384 16.7475C13.737 16.5445 13.4326 16.4431 13.1281 16.5445C12.6208 16.849 11.9105 16.849 11.4031 16.5445C10.9972 16.3416 10.6928 16.4431 10.5913 16.7475Z" fill="#6034C4"/>
<path id="Vector_2" d="M34.6401 16.3415L33.8283 12.9929C33.7268 12.79 33.5239 12.5871 33.321 12.5871H26.4208C26.4208 12.3841 26.4208 12.0797 26.4208 11.8768C26.4208 11.5723 26.4208 11.1664 26.4208 10.7606C26.3194 9.03553 25.7105 7.3105 24.4929 5.99136C23.3767 4.67222 21.7531 3.75897 20.1296 3.45455C19.8251 3.35308 19.6222 3.55603 19.5207 3.86044C19.4193 4.16486 19.6222 4.3678 19.9266 4.46928C22.9708 5.07811 25.2032 7.71639 25.4061 10.862C25.4061 11.1664 25.4061 11.4709 25.4061 11.7753C25.4061 12.0797 25.4061 12.2826 25.3046 12.5871H17.2883C17.0854 12.5871 16.8824 12.79 16.781 12.9929L16.1721 15.8342C15.7663 14.9209 15.5633 13.9062 15.5633 12.8915C15.5633 12.4856 15.5633 11.9782 15.6648 11.5723C15.6648 11.3694 15.5633 11.1664 15.3604 11.065C15.1574 10.9635 14.9545 10.9635 14.7515 11.1664C14.0412 11.8768 13.128 12.1812 12.2147 12.1812C12.1133 12.1812 12.1133 12.1812 12.0118 12.1812C11.7074 12.1812 11.5044 12.3841 11.5044 12.6885C11.5044 12.9929 11.7074 13.1959 12.0118 13.1959C12.1133 13.1959 12.2147 13.1959 12.3162 13.1959C13.128 13.1959 13.8383 12.9929 14.5486 12.5871C14.5486 12.6885 14.5486 12.79 14.5486 12.8915C14.5486 14.515 15.0559 16.0371 15.8677 17.3563C15.6648 18.5739 15.6648 19.6901 15.8677 20.9078C15.2589 20.8063 14.7515 20.9078 14.1427 21.2122C13.9398 21.3137 13.8383 21.6181 13.9398 21.9225C14.0412 22.1254 14.3456 22.2269 14.6501 22.1254C15.0559 21.9225 15.6648 21.821 16.0707 22.024C16.1721 22.5313 16.3751 23.0387 16.578 23.5461C16.8824 24.1549 17.1869 24.8652 17.6942 25.3726C17.5928 25.3726 17.3898 25.474 17.2883 25.474C17.0854 25.5755 16.8824 25.7784 16.8824 25.9814V27.1991C16.8824 27.6049 16.6795 28.0108 16.3751 28.4167C16.0707 28.7211 15.6648 28.9241 15.1574 28.9241C14.2442 28.9241 13.5339 28.2138 13.5339 27.3005V26.0829C13.5339 25.8799 13.3309 25.677 13.128 25.5755C12.7221 25.474 12.4177 25.3726 12.1133 25.1696C9.77939 24.1549 8.15583 21.9225 7.74994 19.3857C7.74994 19.1828 7.547 18.9798 7.34405 18.9798C7.14111 18.8783 6.93817 18.9798 6.83669 19.1828C6.63375 19.3857 6.32933 19.6901 5.82197 19.6901C4.90872 19.6901 4.19841 18.5739 4.19841 17.2548C4.19841 15.9356 4.90872 14.8194 5.82197 14.8194C6.22786 14.8194 6.63375 15.1239 6.83669 15.3268C7.03964 15.4283 7.24258 15.4283 7.44553 15.3268C7.64847 15.2253 7.74994 15.0224 7.74994 14.8194V14.6165C7.74994 13.5003 8.05436 12.3841 8.46025 11.3694C8.76467 11.6738 9.06908 11.9782 9.3735 12.2826C9.57644 12.4856 9.88086 12.3841 10.0838 12.1812C10.2867 11.9782 10.1853 11.6738 9.98233 11.4709C9.47497 11.1664 9.17056 10.6591 8.86614 10.1517C8.86614 10.0503 8.76467 9.94878 8.56172 9.94878C8.35878 9.94878 8.15583 10.0503 8.05436 10.1517C7.34405 11.2679 6.93817 12.5871 6.83669 13.9062C6.53228 13.8047 6.22786 13.7033 5.92344 13.7033C4.40136 13.7033 3.28516 15.2253 3.28516 17.1533C3.28516 19.0813 4.50283 20.6034 5.92344 20.6034C6.32933 20.6034 6.63375 20.5019 7.03964 20.2989C7.34405 21.4151 7.85142 22.4299 8.46025 23.3431C8.96761 23.9519 9.47497 24.5608 10.0838 24.9667H5.21314C3.79253 24.9667 2.47339 24.2564 1.66161 23.1402C0.84983 21.9225 0.646886 20.5019 1.15425 19.1828L2.37191 15.9356C3.58958 12.79 4.19841 9.44142 4.40136 5.88989C4.40136 5.88989 4.40136 5.88989 4.40136 5.78842C4.50283 4.57075 5.01019 3.35308 5.82197 2.5413C6.73522 1.62805 7.85142 1.12069 9.06908 1.01922C11.5044 0.917748 13.7368 2.5413 14.2442 4.87517C14.2442 5.07811 14.3456 5.17958 14.5486 5.28105C14.7515 5.38253 14.853 5.28105 15.0559 5.28105C15.8677 4.77369 16.6795 4.46928 17.6942 4.3678C17.9986 4.3678 18.2016 4.06339 18.1001 3.75897C18.1001 3.45455 17.7957 3.25161 17.4913 3.35308C16.6795 3.45455 15.8677 3.75897 15.0559 4.06339C14.1427 1.52658 11.7074 -0.0969747 8.96761 0.00449759C7.64847 0.308914 6.22786 0.917748 5.21314 2.03394C4.19841 3.15014 3.48811 4.46928 3.48811 5.99136V6.09283C3.38664 9.54289 2.67633 12.79 1.56014 15.7327L0.342469 18.9798C-0.266365 20.6034 -0.0634202 22.4299 0.951302 23.8505C1.96602 25.2711 3.58958 26.1843 5.31461 26.1843H11.9103C12.1133 26.2858 12.4177 26.3873 12.6206 26.4888V27.3005C12.6206 27.402 12.6206 27.402 12.6206 27.5035C9.98233 28.6197 8.15583 31.1565 8.15583 34.0992C8.15583 34.4036 8.35878 34.6065 8.66319 34.6065H21.8546C22.159 34.6065 22.3619 34.4036 22.3619 34.0992C22.3619 32.1712 21.6516 30.4462 20.231 29.0256C19.5207 28.3153 18.7089 27.8079 17.8972 27.5035C17.8972 27.402 17.8972 27.402 17.8972 27.3005V26.4888C17.9986 26.4888 18.1001 26.3873 18.3031 26.3873C19.2163 27.402 20.3325 28.3153 21.5502 28.9241L23.0723 29.7359C22.8693 30.0403 22.7678 30.3447 22.7678 30.7506V34.2006C22.7678 34.5051 22.9708 34.708 23.2752 34.708H27.3341C27.6385 34.708 27.8414 34.5051 27.8414 34.2006V30.6491C27.8414 30.2432 27.74 29.9388 27.537 29.6344L29.0591 28.8226C29.668 28.5182 30.2768 28.1123 30.8856 27.6049C31.0886 27.402 31.19 27.0976 30.9871 26.8946C30.7841 26.6917 30.4797 26.5902 30.2768 26.7932C29.7694 27.1991 29.2621 27.6049 28.6532 27.9094L26.6238 28.9241C26.5223 28.9241 26.3194 28.8226 26.2179 28.8226H24.5943C24.3914 28.8226 24.2899 28.8226 24.1884 28.9241L22.159 27.9094C20.231 26.8946 18.6075 25.1696 17.6942 23.1402C16.781 21.1107 16.578 18.7769 17.0854 16.6459L17.7957 13.7033H32.9151L33.6254 16.6459C34.0313 18.168 34.0313 19.6901 33.7268 21.2122C33.4224 22.6328 32.7121 24.0534 31.7989 25.2711C31.5959 25.474 31.6974 25.7784 31.9003 25.9814C32.1033 26.1843 32.4077 26.0829 32.6106 25.8799C33.6254 24.5608 34.3357 23.0387 34.7416 21.4151C35.1475 19.7916 35.046 17.9651 34.6401 16.3415ZM19.6222 29.7359C20.6369 30.7506 21.2458 32.0697 21.3472 33.4903H9.17056C9.3735 31.258 10.7941 29.33 12.8236 28.4167C13.2294 29.33 14.1427 29.9388 15.2589 29.9388C15.9692 29.9388 16.6795 29.6344 17.1869 29.127C17.3898 28.9241 17.5928 28.6197 17.6942 28.4167C18.4045 28.7211 19.0134 29.127 19.6222 29.7359ZM26.2179 29.9388C26.6238 29.9388 26.9282 30.2432 26.9282 30.6491V33.5918H23.884V30.6491C23.884 30.2432 24.1884 29.9388 24.5943 29.9388H26.2179Z" fill="#6034C4"/>
</g>
</svg>
