<svg width="100" height="15" viewBox="0 0 100 15" fill="none" xmlns="http://www.w3.org/2000/svg">
<g id="stars">
<path id="Stroke 1" fill-rule="evenodd" clip-rule="evenodd" d="M7.91661 0L10.3628 4.92231L15.8332 5.43751L11.8749 9.54283L12.9544 14.9532L7.91661 12.3989L2.87877 14.9532L3.9583 9.54283L0 5.43751L5.47038 4.92231L7.91661 0Z" fill="#5958A0"/>
<path id="Stroke 1 Copy" fill-rule="evenodd" clip-rule="evenodd" d="M28.749 0L31.1952 4.92231L36.6656 5.43751L32.7073 9.54283L33.7868 14.9532L28.749 12.3989L23.7111 14.9532L24.7907 9.54283L20.8323 5.43751L26.3027 4.92231L28.749 0Z" fill="#5958A0"/>
<path id="Stroke 1 Copy 2" fill-rule="evenodd" clip-rule="evenodd" d="M49.5833 0L52.0295 4.92231L57.4999 5.43751L53.5416 9.54283L54.6211 14.9532L49.5833 12.3989L44.5454 14.9532L45.625 9.54283L41.6667 5.43751L47.137 4.92231L49.5833 0Z" fill="#5958A0"/>
<path id="Stroke 1 Copy 3" fill-rule="evenodd" clip-rule="evenodd" d="M71.2495 0L73.6958 4.92231L79.1662 5.43751L75.2079 9.54283L76.2874 14.9532L71.2495 12.3989L66.2117 14.9532L67.2912 9.54283L63.3329 5.43751L68.8033 4.92231L71.2495 0Z" fill="#5958A0"/>
<path id="Stroke 1 Copy 4" fill-rule="evenodd" clip-rule="evenodd" d="M92.0839 0L94.5301 4.92231L100 5.43751L96.0422 9.54283L97.1217 14.9532L92.0839 12.3989L87.046 14.9532L88.1256 9.54283L84.1673 5.43751L89.6376 4.92231L92.0839 0Z" fill="#EEEEEE"/>
</g>
</svg>
