<svg width="19" height="23" viewBox="0 0 19 23" fill="none" xmlns="http://www.w3.org/2000/svg">
<g id="Group">
<path id="Vector" d="M18.4771 6.2968C18.3031 6.2309 18.105 6.31478 18.039 6.48852C17.619 7.5849 16.7488 8.46561 15.6627 8.90895C15.4886 8.98085 15.4106 9.17856 15.4766 9.34631C15.5426 9.50807 15.7587 9.59794 15.9147 9.53204C17.1689 9.0168 18.1711 7.9923 18.6631 6.72817C18.7411 6.56041 18.6511 6.36271 18.4771 6.2968Z" fill="#72B756"/>
<path id="Vector_2" d="M14.0421 0C12.0918 0 10.3155 1.15031 9.51141 2.93567C9.4334 3.10343 9.51141 3.30713 9.67944 3.37902C9.84746 3.45691 10.0515 3.37902 10.1235 3.21127C10.8136 1.67154 12.3499 0.677003 14.0361 0.677003C16.4005 0.677003 18.3208 2.60017 18.3208 4.9547C18.3208 5.14043 18.4708 5.29021 18.6569 5.29021C18.8429 5.29021 18.9929 5.14043 18.9929 4.9547C19.0049 2.22273 16.7786 0 14.0421 0Z" fill="#72B756"/>
<path id="Vector_3" d="M1.73503 11.1555H4.0154C4.20143 11.1555 4.35145 11.0057 4.35145 10.82C4.35145 10.6343 4.20143 10.4845 4.0154 10.4845H1.73503C1.549 10.4845 1.39898 10.6343 1.39898 10.82C1.39298 11.0057 1.549 11.1555 1.73503 11.1555Z" fill="#72B756"/>
<path id="Vector_4" d="M1.73503 12.6534H4.0154C4.20143 12.6534 4.35145 12.5037 4.35145 12.3179C4.35145 12.1322 4.20143 11.9824 4.0154 11.9824H1.73503C1.549 11.9824 1.39898 12.1322 1.39898 12.3179C1.39298 12.4977 1.549 12.6534 1.73503 12.6534Z" fill="#72B756"/>
<path id="Vector_5" d="M1.73503 14.1512H2.97723C3.16326 14.1512 3.31328 14.0014 3.31328 13.8156C3.31328 13.6299 3.16326 13.4801 2.97723 13.4801H1.73503C1.549 13.4801 1.39898 13.6299 1.39898 13.8156C1.39298 13.9954 1.549 14.1512 1.73503 14.1512Z" fill="#72B756"/>
<path id="Vector_6" d="M1.73503 17.9796H4.0154C4.20143 17.9796 4.35145 17.8298 4.35145 17.6441C4.35145 17.4583 4.20143 17.3085 4.0154 17.3085H1.73503C1.549 17.3085 1.39898 17.4583 1.39898 17.6441C1.39298 17.8298 1.549 17.9796 1.73503 17.9796Z" fill="#72B756"/>
<path id="Vector_7" d="M1.73503 19.4773H4.0154C4.20143 19.4773 4.35145 19.3275 4.35145 19.1418C4.35145 18.956 4.20143 18.8063 4.0154 18.8063H1.73503C1.549 18.8063 1.39898 18.956 1.39898 19.1418C1.39298 19.3275 1.549 19.4773 1.73503 19.4773Z" fill="#72B756"/>
<path id="Vector_8" d="M1.73503 20.975H4.0154C4.20143 20.975 4.35145 20.8252 4.35145 20.6395C4.35145 20.4538 4.20143 20.304 4.0154 20.304H1.73503C1.549 20.304 1.39898 20.4538 1.39898 20.6395C1.39298 20.8252 1.549 20.975 1.73503 20.975Z" fill="#72B756"/>
<path id="Vector_9" d="M7.22477 11.1555H12.2056C12.3916 11.1555 12.5416 11.0057 12.5416 10.82C12.5416 10.6343 12.3916 10.4845 12.2056 10.4845H7.22477C7.03874 10.4845 6.88871 10.6343 6.88871 10.82C6.88271 11.0057 7.03874 11.1555 7.22477 11.1555Z" fill="#72B756"/>
<path id="Vector_10" d="M7.22477 8.09998H10.2853C10.4713 8.09998 10.6213 7.95021 10.6213 7.76448C10.6213 7.57875 10.4713 7.42897 10.2853 7.42897H7.22477C7.03874 7.42897 6.88871 7.57875 6.88871 7.76448C6.88271 7.95021 7.03874 8.09998 7.22477 8.09998Z" fill="#72B756"/>
<path id="Vector_11" d="M7.22477 12.6534H9.82318C10.0092 12.6534 10.1592 12.5037 10.1592 12.3179C10.1592 12.1322 10.0092 11.9824 9.82318 11.9824H7.22477C7.03874 11.9824 6.88871 12.1322 6.88871 12.3179C6.88271 12.4977 7.03874 12.6534 7.22477 12.6534Z" fill="#72B756"/>
<path id="Vector_12" d="M7.22477 14.1512H12.2056C12.3916 14.1512 12.5416 14.0014 12.5416 13.8156C12.5416 13.6299 12.3916 13.4801 12.2056 13.4801H7.22477C7.03874 13.4801 6.88871 13.6299 6.88871 13.8156C6.88271 13.9954 7.03874 14.1512 7.22477 14.1512Z" fill="#72B756"/>
<path id="Vector_13" d="M12.2068 17.3085H8.75626C8.57023 17.3085 8.4202 17.4583 8.4202 17.6441C8.4202 17.8298 8.57023 17.9796 8.75626 17.9796H12.2068C12.3928 17.9796 12.5429 17.8298 12.5429 17.6441C12.5429 17.4583 12.3928 17.3085 12.2068 17.3085Z" fill="#72B756"/>
<path id="Vector_14" d="M8.75626 18.8063C8.57023 18.8063 8.4202 18.956 8.4202 19.1418C8.4202 19.3275 8.57023 19.4773 8.75626 19.4773H9.82443C10.0105 19.4773 10.1605 19.3275 10.1605 19.1418C10.1605 18.956 10.0105 18.8063 9.82443 18.8063H8.75626Z" fill="#72B756"/>
<path id="Vector_15" d="M9.82443 20.304H8.75626C8.57023 20.304 8.4202 20.4538 8.4202 20.6395C8.4202 20.8252 8.57023 20.975 8.75626 20.975H9.82443C10.0105 20.975 10.1605 20.8252 10.1605 20.6395C10.1605 20.4538 10.0105 20.304 9.82443 20.304Z" fill="#72B756"/>
<path id="Vector_16" d="M7.22477 15.6789H10.8553C11.0414 15.6789 11.1914 15.5291 11.1914 15.3434C11.1914 15.1577 11.0414 15.0079 10.8553 15.0079H7.22477C7.03874 15.0079 6.88871 15.1577 6.88871 15.3434C6.88271 15.5231 7.03874 15.6789 7.22477 15.6789Z" fill="#72B756"/>
<path id="Vector_17" d="M7.53626 17.5182C7.46425 17.3385 7.24822 17.2606 7.07419 17.3445C6.91216 17.4224 6.84015 17.6321 6.91816 17.7938C6.99618 17.9556 7.19421 18.0275 7.36224 17.9556C7.52426 17.8777 7.60227 17.68 7.53626 17.5182Z" fill="#72B756"/>
<path id="Vector_18" d="M7.15903 18.8124C6.973 18.8484 6.85298 19.0401 6.89498 19.2198C6.93699 19.3995 7.12302 19.5134 7.30305 19.4714C7.48308 19.4295 7.5971 19.2438 7.54909 19.064C7.50708 18.8903 7.33305 18.7765 7.15903 18.8124Z" fill="#72B756"/>
<path id="Vector_19" d="M7.53758 20.5137C7.47157 20.3459 7.27354 20.262 7.10551 20.3279C6.93149 20.3938 6.84147 20.5975 6.91348 20.7713C6.9855 20.939 7.18353 21.0229 7.35155 20.951C7.51958 20.8791 7.6096 20.6814 7.53758 20.5137Z" fill="#72B756"/>
<path id="Vector_20" d="M17.5708 4.95459C17.5708 4.41538 17.4508 3.90014 17.2168 3.41485C17.1327 3.2471 16.9347 3.17521 16.7667 3.25908C16.5987 3.34296 16.5266 3.54067 16.6107 3.70842C16.8027 4.09785 16.8987 4.51723 16.8987 4.95459C16.8987 6.52427 15.6205 7.80638 14.0422 7.80638C12.47 7.80638 11.1858 6.53026 11.1858 4.95459C11.1858 3.3849 12.464 2.10279 14.0422 2.10279C14.7084 2.10279 15.3625 2.33644 15.8725 2.76781C16.0166 2.88763 16.2266 2.86966 16.3466 2.72587C16.4666 2.58208 16.4486 2.37239 16.3046 2.25257C15.6685 1.72534 14.8644 1.43178 14.0422 1.43178C12.374 1.43178 10.9698 2.59406 10.6037 4.15177H0.474076C0.216035 4.15177 0 4.36146 0 4.62507V19.2316C0 19.4173 0.150024 19.5671 0.336054 19.5671C0.522084 19.5671 0.672108 19.4173 0.672108 19.2316V9.07052H5.06481V22.329H0.672108V20.5736C0.672108 20.3878 0.522084 20.2381 0.336054 20.2381C0.150024 20.2381 0 20.3878 0 20.5736V22.5267C0 22.7843 0.210034 23 0.474076 23H11.0118C11.1618 23 11.3058 22.9401 11.4078 22.8382C12.368 21.8797 13.3221 20.9271 14.2823 19.9685C14.3903 19.8606 14.4443 19.7228 14.4443 19.573V8.45343C16.2026 8.25572 17.5708 6.76392 17.5708 4.95459ZM1.83029 8.39951C1.93231 8.08198 2.17835 7.81837 2.5084 7.70453C2.83845 7.58471 2.89246 7.12938 2.59842 6.94366C2.26836 6.73396 2.28037 6.2367 2.61642 6.04498C2.71843 5.98507 2.93447 5.91317 3.21651 6.08093C3.52856 6.26665 3.42055 6.78189 3.15651 6.94965C2.85646 7.13537 2.91647 7.59669 3.24652 7.71053C3.57657 7.82436 3.82261 8.08797 3.92463 8.4055H1.83029V8.39951ZM4.61474 8.39951C4.51872 7.92022 4.23068 7.50083 3.81661 7.23722C4.21868 6.73396 4.13466 5.83529 3.55857 5.49379C3.1505 5.24815 2.67043 5.23018 2.28037 5.45185C1.65627 5.80533 1.47624 6.66806 1.92631 7.23722C1.51224 7.49484 1.2242 7.92022 1.12818 8.39951H0.672108V4.82877H5.06481V8.39951H4.61474ZM5.74292 4.82877H10.5137C10.5017 5.18824 10.5437 5.5537 10.6397 5.90119H7.21916C7.03313 5.90119 6.8831 6.05097 6.8831 6.2367C6.8831 6.42242 7.03313 6.5722 7.21916 6.5722H10.9037C11.4498 7.62665 12.518 8.36955 13.7662 8.46541V19.3274H11.5458C11.1138 19.3274 10.7597 19.6809 10.7597 20.1123V22.329H5.74292V4.82877ZM11.4378 21.8557V20.1182C11.4378 20.0583 11.4858 20.0044 11.5518 20.0044H13.2921L11.4378 21.8557Z" fill="#72B756"/>
<path id="Vector_21" d="M15.3509 3.82836L13.5747 5.60175L12.7405 4.76897C12.6085 4.63717 12.3925 4.63717 12.2604 4.76897C12.1284 4.90078 12.1284 5.11646 12.2604 5.24827L13.1126 6.09901C13.3646 6.35064 13.7847 6.35064 14.0367 6.09901L15.831 4.30765C15.963 4.17585 15.963 3.96017 15.831 3.82836C15.693 3.69655 15.483 3.69655 15.3509 3.82836Z" fill="#72B756"/>
</g>
</svg>
