<svg width="105" height="105" viewBox="0 0 105 105" fill="none" xmlns="http://www.w3.org/2000/svg">
<g id="france" clip-path="url(#clip0_99_1000)">
<path id="Vector" d="M52.5 105C81.4949 105 105 81.4949 105 52.5C105 23.505 81.4949 0 52.5 0C23.505 0 0 23.505 0 52.5C0 81.4949 23.505 105 52.5 105Z" fill="#F0F0F0"/>
<path id="Vector_2" d="M105.001 52.5002C105.001 29.927 90.7538 10.6835 70.7617 3.26562V101.735C90.7538 94.3168 105.001 75.0733 105.001 52.5002Z" fill="#D80027"/>
<path id="Vector_3" d="M0 52.5002C0 75.0733 14.2474 94.3168 34.2392 101.735V3.26562C14.2474 10.6835 0 29.927 0 52.5002Z" fill="#0052B4"/>
</g>
<defs>
<clipPath id="clip0_99_1000">
<rect width="105" height="105" fill="white"/>
</clipPath>
</defs>
</svg>
