<svg width="104" height="105" viewBox="0 0 104 105" fill="none" xmlns="http://www.w3.org/2000/svg">
<g id="germany" clip-path="url(#clip0_99_1036)">
<path id="Vector" d="M3.23438 70.7604C10.5816 90.7522 29.6418 105 52 105C74.3582 105 93.4184 90.7522 100.766 70.7604L52 66.1953L3.23438 70.7604Z" fill="#FFDA44"/>
<path id="Vector_2" d="M52 0C29.6418 0 10.5816 14.2472 3.23438 34.2392L52 38.8043L100.766 34.239C93.4184 14.2472 74.3582 0 52 0Z" fill="black"/>
<path id="Vector_3" d="M3.23436 34.2393C1.1442 39.9267 0 46.0782 0 52.5C0 58.9218 1.1442 65.0734 3.23436 70.7608H100.766C102.856 65.0734 104 58.9218 104 52.5C104 46.0782 102.856 39.9267 100.766 34.2393H3.23436Z" fill="#D80027"/>
</g>
<defs>
<clipPath id="clip0_99_1036">
<rect width="104" height="105" fill="white"/>
</clipPath>
</defs>
</svg>
