<svg width="105" height="105" viewBox="0 0 105 105" fill="none" xmlns="http://www.w3.org/2000/svg">
<g id="netherlands" clip-path="url(#clip0_99_1556)">
<path id="Vector" d="M52.5 105C81.4949 105 105 81.4949 105 52.5C105 23.505 81.4949 0 52.5 0C23.505 0 0 23.505 0 52.5C0 81.4949 23.505 105 52.5 105Z" fill="#F0F0F0"/>
<path id="Vector_2" d="M52.5002 0C29.927 0 10.6835 14.2472 3.26562 34.2392H101.735C94.3168 14.2472 75.0733 0 52.5002 0Z" fill="#A2001D"/>
<path id="Vector_3" d="M52.5002 105C75.0733 105 94.3168 90.7528 101.735 70.7607H3.26562C10.6835 90.7528 29.927 105 52.5002 105Z" fill="#0052B4"/>
</g>
<defs>
<clipPath id="clip0_99_1556">
<rect width="105" height="105" fill="white"/>
</clipPath>
</defs>
</svg>
