<svg width="101" height="101" viewBox="0 0 101 101" fill="none" xmlns="http://www.w3.org/2000/svg">
<g id="Group">
<path id="Vector" d="M9.00994 18.6573C4.90162 24.0025 1.80379 30.1632 0 36.856H27.2086L9.00994 18.6573Z" fill="#0052B4"/>
<path id="Vector_2" d="M100.999 36.8558C99.1948 30.1632 96.0968 24.0025 91.9887 18.6573L73.7905 36.8558H100.999Z" fill="#0052B4"/>
<path id="Vector_3" d="M0 64.1441C1.80399 70.8366 4.90183 76.9973 9.00994 82.3423L27.208 64.1441H0Z" fill="#0052B4"/>
<path id="Vector_4" d="M82.3415 9.01014C76.9963 4.90183 70.8358 1.80399 64.1431 0V27.2084L82.3415 9.01014Z" fill="#0052B4"/>
<path id="Vector_5" d="M18.6583 91.9895C24.0035 96.0978 30.1642 99.1956 36.8567 101V73.7914L18.6583 91.9895Z" fill="#0052B4"/>
<path id="Vector_6" d="M36.8565 0C30.164 1.80399 24.0033 4.90183 18.6583 9.00994L36.8565 27.2082V0Z" fill="#0052B4"/>
<path id="Vector_7" d="M64.1431 101C70.8356 99.1956 76.9963 96.0978 82.3413 91.9897L64.1431 73.7914V101Z" fill="#0052B4"/>
<path id="Vector_8" d="M73.7905 64.1441L91.9887 82.3425C96.0968 76.9975 99.1948 70.8366 100.999 64.1441H73.7905Z" fill="#0052B4"/>
</g>
</svg>
