<svg width="104" height="104" viewBox="0 0 104 104" fill="none" xmlns="http://www.w3.org/2000/svg">
<g id="Group">
<path id="Vector" d="M103.56 45.2175H58.783H58.7827V0.440172C56.5624 0.151125 54.2988 0 52 0C49.7008 0 47.4376 0.151125 45.2175 0.440172V45.217V45.2173H0.440172C0.151125 47.4376 0 49.7012 0 52C0 54.2992 0.151125 56.5624 0.440172 58.7825H45.217H45.2173V103.56C47.4376 103.849 49.7008 104 52 104C54.2988 104 56.5624 103.849 58.7825 103.56V58.783V58.7827H103.56C103.849 56.5624 104 54.2992 104 52C104 49.7012 103.849 47.4376 103.56 45.2175Z" fill="#D80027"/>
<path id="Vector_2" d="M65.5645 65.5656L88.7686 88.7698C89.8359 87.703 90.8539 86.5877 91.8253 85.4315L71.9592 65.5654H65.5645V65.5656Z" fill="#D80027"/>
<path id="Vector_3" d="M38.4349 65.5654H38.4345L15.2305 88.7694C16.2973 89.8366 17.4126 90.8547 18.5688 91.826L38.4349 71.9596V65.5654Z" fill="#D80027"/>
<path id="Vector_4" d="M38.4346 38.4353V38.4349L15.2305 15.2305C14.1632 16.2973 13.1452 17.4126 12.1738 18.5688L32.0401 38.4351H38.4346V38.4353Z" fill="#D80027"/>
<path id="Vector_5" d="M65.5645 38.4348L88.7688 15.2303C87.702 14.163 86.5867 13.145 85.4305 12.1738L65.5645 32.0401V38.4348Z" fill="#D80027"/>
</g>
</svg>
