<svg width="70" height="71" viewBox="0 0 70 71" fill="none" xmlns="http://www.w3.org/2000/svg">
<path d="M34.8665 14.0838C35.9302 14.0838 36.9938 14.0838 38.0574 14.0838C39.005 14.0838 39.4304 14.5141 39.4498 15.453C39.4691 16.2354 39.4304 17.0179 39.4691 17.8003C39.4884 17.9959 39.6818 18.2502 39.8752 18.348C40.9002 18.8174 41.9444 19.2673 43.0081 19.6585C43.2014 19.7368 43.5689 19.6585 43.7236 19.5216C44.3037 19.013 44.8259 18.4262 45.3867 17.8785C46.0249 17.2722 46.605 17.2526 47.2239 17.8981C48.8096 19.4825 50.376 21.0669 51.9425 22.6708C52.5613 23.2968 52.542 23.8836 51.9425 24.5291C51.4203 25.0768 50.8982 25.6245 50.3567 26.133C50.0666 26.4069 50.0086 26.622 50.202 27.0133C50.6661 28.0108 51.0722 29.028 51.4397 30.0451C51.575 30.4168 51.7491 30.5341 52.1165 30.5146C52.89 30.495 53.6636 30.495 54.4371 30.5146C55.2494 30.5341 55.7135 30.9645 55.7135 31.786C55.7328 34.055 55.7328 36.324 55.7135 38.6126C55.7135 39.4733 55.2494 39.884 54.3791 39.9036C53.6056 39.9231 52.832 39.884 52.0585 39.9231C51.8458 39.9427 51.575 40.1579 51.4783 40.3535C51.0142 41.3706 50.5888 42.4073 50.202 43.4636C50.1246 43.6787 50.1633 44.0308 50.318 44.1873C50.8208 44.7741 51.401 45.3023 51.9425 45.8695C52.5806 46.5346 52.5806 47.1214 51.9231 47.7864C50.376 49.3708 48.829 50.9357 47.2625 52.5005C46.605 53.146 46.0442 53.146 45.3674 52.5005C44.8259 51.9724 44.2844 51.4442 43.7816 50.8966C43.5302 50.6227 43.3368 50.564 42.9694 50.7401C41.9638 51.2095 40.9195 51.6007 39.9139 52.0702C39.7205 52.168 39.5078 52.4614 39.4884 52.657C39.4304 53.4394 39.4884 54.2218 39.4691 55.0042C39.4498 55.8845 39.0243 56.3344 38.1734 56.3344C35.9495 56.3539 33.7256 56.3539 31.5016 56.3344C30.6121 56.3344 30.2059 55.8845 30.1866 54.9456C30.1673 54.1631 30.2059 53.3807 30.1673 52.5983C30.1479 52.4027 29.9545 52.1289 29.7612 52.0506C28.7362 51.5812 27.6726 51.1508 26.6283 50.7401C26.4349 50.6618 26.1062 50.7009 25.9708 50.8379C25.3907 51.3464 24.8685 51.9333 24.3077 52.4809C23.6115 53.1656 23.0507 53.1656 22.3545 52.4614C20.8074 50.9161 19.2797 49.3513 17.7326 47.7864C17.0557 47.1018 17.0751 46.515 17.7519 45.8108C18.2547 45.2827 18.7575 44.7546 19.299 44.2656C19.5891 43.9917 19.6278 43.7766 19.4537 43.3853C19.0089 42.4073 18.5835 41.4293 18.2354 40.4122C18.0807 39.9818 17.8873 39.8645 17.4619 39.8645C16.7076 39.884 15.9728 39.884 15.2186 39.8645C14.4064 39.8449 13.9422 39.4146 13.9422 38.593C13.9229 36.324 13.9229 34.055 13.9422 31.7664C13.9422 30.9058 14.4064 30.495 15.2766 30.4755C16.0501 30.4559 16.8237 30.495 17.5972 30.4559C17.8099 30.4363 18.0807 30.2212 18.1774 30.0256C18.6415 29.0084 19.067 27.9717 19.4537 26.9155C19.5311 26.7003 19.4924 26.3482 19.3377 26.1917C18.8349 25.6049 18.2547 25.0768 17.7133 24.5095C17.0751 23.8445 17.0751 23.2576 17.7133 22.5926C19.2603 21.0082 20.8074 19.4434 22.3738 17.8785C23.0313 17.2135 23.5922 17.233 24.269 17.8785C24.8105 18.4067 25.352 18.9348 25.8548 19.4825C26.1062 19.7563 26.2996 19.815 26.667 19.639C27.6726 19.1695 28.7169 18.7783 29.7225 18.3284C29.9159 18.2306 30.1286 17.9372 30.1479 17.722C30.2059 16.9983 30.1673 16.255 30.1673 15.5313C30.1673 14.475 30.5734 14.0642 31.5983 14.0447C32.6813 14.0838 33.7836 14.0838 34.8665 14.0838ZM53.3542 32.8618C52.5033 32.8618 51.7104 32.8618 50.9175 32.8618C50.0473 32.8618 49.7572 32.5489 49.4478 31.7469C48.887 30.2212 48.2875 28.715 47.6106 27.2284C47.2239 26.3482 47.1658 25.9961 47.8427 25.3311C48.4035 24.7638 49.0223 24.2552 49.5251 23.7858C48.3262 22.573 47.2625 21.4972 46.1216 20.3236C45.6381 20.8517 45.116 21.419 44.5745 21.9667C43.8976 22.6513 43.5495 22.6122 42.6986 22.2405C41.2289 21.5559 39.7398 20.9495 38.2314 20.3823C37.3999 20.0693 37.1098 19.7954 37.0905 18.8565C37.0905 18.0546 37.0905 17.2722 37.0905 16.4897C35.4854 16.4897 33.977 16.4897 32.4492 16.4897C32.4492 17.3308 32.4492 18.1132 32.4492 18.8957C32.4492 19.815 32.1398 20.0889 31.2889 20.4018C29.7998 20.9495 28.3301 21.5754 26.8991 22.2405C26.0095 22.6513 25.6807 22.6904 24.9652 21.9862C24.4044 21.4385 23.8629 20.8713 23.3794 20.4018C22.2578 21.5559 21.1942 22.6122 20.0532 23.7858C20.5754 24.2748 21.1555 24.8225 21.7357 25.3702C22.3738 26.0157 22.3352 26.3873 21.9677 27.2089C21.2909 28.715 20.672 30.2407 20.0919 31.786C19.8018 32.5489 19.5117 32.8814 18.6802 32.8814C17.868 32.8814 17.0557 32.8814 16.2435 32.8814C16.2435 34.4853 16.2435 36.0111 16.2435 37.5759C17.0751 37.5759 17.8293 37.5759 18.6028 37.5759C19.5117 37.5759 19.8018 37.8889 20.1112 38.73C20.6527 40.2165 21.2329 41.6836 21.8904 43.1115C22.3545 44.1286 22.3932 44.422 21.581 45.224C21.0588 45.7522 20.498 46.2412 20.0339 46.6911C21.2135 47.8842 22.2771 48.9405 23.4375 50.1141C23.9209 49.586 24.4624 48.9796 25.0039 48.4124C25.6421 47.7669 26.0095 47.7864 26.8024 48.1581C28.2914 48.8427 29.7998 49.4686 31.3276 50.0555C32.1205 50.3489 32.4105 50.6618 32.4299 51.542C32.4299 52.344 32.4299 53.146 32.4299 53.9675C34.0156 53.9675 35.524 53.9675 37.0131 53.9675C37.0324 53.8697 37.0711 53.8306 37.0711 53.7915C37.0711 53.0678 37.0711 52.3245 37.0905 51.6007C37.0905 50.6618 37.3805 50.388 38.2121 50.075C39.7205 49.5078 41.2096 48.8818 42.6793 48.2168C43.5302 47.8256 43.8783 47.806 44.5551 48.4711C45.116 49.0383 45.6574 49.6251 46.1602 50.1728C47.3012 49.0187 48.3648 47.9429 49.5638 46.7302C49.0223 46.2412 48.4228 45.7326 47.8814 45.2045C47.1272 44.4807 47.1852 44.1482 47.6106 43.2093C48.2681 41.7814 48.8676 40.3144 49.4091 38.8278C49.7379 37.9084 49.9893 37.6346 50.9562 37.615C51.7491 37.615 52.5226 37.615 53.3348 37.615C53.3542 35.9524 53.3542 34.4658 53.3542 32.8618Z" fill="white"/>
<path d="M20.055 8.56769C12.0876 13.3404 7.11757 20.2648 5.1257 29.5169C4.41017 29.38 3.69465 29.2626 2.84375 29.1062C4.99033 18.9739 10.5018 11.4235 19.3975 6.25956C19.1655 5.53583 18.9334 4.81209 18.7013 4.06879C18.3726 2.97341 18.9914 2.21055 20.1131 2.36703C22.6657 2.73868 25.2184 3.11033 27.7905 3.48198C28.3319 3.56022 28.7574 3.77539 28.9508 4.32308C29.1442 4.89033 28.8928 5.32066 28.506 5.69231C26.6882 7.53099 24.8897 9.36967 23.0719 11.1888C22.1823 12.0886 21.2927 11.8538 20.8673 10.6607C20.6545 10.0347 20.4418 9.40879 20.2291 8.78286C20.2098 8.74374 20.1711 8.72418 20.055 8.56769ZM21.4281 4.94901C21.8149 6.12264 22.1629 7.19846 22.4724 8.1178C23.3426 7.23758 24.2322 6.35736 25.1024 5.47714C23.9614 5.32066 22.7431 5.14462 21.4281 4.94901Z" fill="white"/>
<path d="M63.4308 19.6192C64.1657 19.3845 64.8812 19.1302 65.6161 18.8955C66.6604 18.563 67.4146 19.1889 67.2599 20.2843C66.8924 22.9249 66.5443 25.5656 66.0995 28.1867C66.0415 28.5779 65.6741 29.0865 65.326 29.2038C64.9972 29.3212 64.3784 29.1843 64.1077 28.9104C62.1738 27.0326 60.2786 25.1157 58.4028 23.1597C57.6873 22.4164 57.9193 21.4775 58.8863 21.1254C59.6018 20.8515 60.3367 20.6364 61.1295 20.3625C58.9056 16.3331 55.9855 13.0665 52.3885 10.4258C48.8302 7.82428 44.8465 6.0834 40.418 5.20318C40.5533 4.42076 40.6887 3.69703 40.8434 2.87549C50.8608 5.06626 58.3448 10.641 63.4308 19.6192ZM64.1657 25.6047C64.3591 24.2551 64.5331 23.0227 64.7265 21.6731C63.5662 22.0643 62.5026 22.4359 61.439 22.788C62.3479 23.7269 63.1988 24.6071 64.1657 25.6047Z" fill="white"/>
<path d="M50.2216 64.1585C50.473 64.9214 50.705 65.6256 50.9177 66.3493C51.2465 67.4251 50.647 68.188 49.564 68.0315C46.934 67.6598 44.304 67.2882 41.6739 66.8579C41.3065 66.7992 40.823 66.408 40.6877 66.0559C40.5716 65.7429 40.7263 65.1365 40.9777 64.8823C42.8342 62.9262 44.7487 61.0093 46.6439 59.1119C47.3981 58.3491 48.307 58.6034 48.6938 59.6205C48.9452 60.3247 49.1773 61.0484 49.448 61.8699C57.4928 57.0581 62.4822 50.1141 64.4741 40.8816C64.8415 40.9403 65.2283 40.9794 65.5957 41.0576C65.9438 41.1163 66.2919 41.1946 66.756 41.2924C64.6094 51.4442 59.0979 58.9946 50.2216 64.1585ZM48.191 65.4691C47.7849 64.2563 47.4368 63.2001 47.108 62.222C46.2185 63.1414 45.3289 64.0216 44.4393 64.9214C45.6383 65.0974 46.8566 65.2735 48.191 65.4691Z" fill="white"/>
<path d="M8.4316 50.0552C13.1889 58.1924 20.0347 63.2194 29.2012 65.2341C29.0658 65.9579 28.9498 66.6816 28.7951 67.5031C23.9411 66.5838 19.5706 64.6277 15.6255 61.7132C11.6805 58.7987 8.56697 55.1409 6.20767 50.7985C5.43413 51.0528 4.69926 51.3071 3.9644 51.5418C2.95879 51.8548 2.20459 51.2288 2.33996 50.1921C2.70739 47.5124 3.07483 44.813 3.48094 42.1528C3.63564 41.1161 4.7186 40.7444 5.45347 41.4682C7.38732 43.3851 9.30183 45.3216 11.197 47.2776C11.9125 48.0209 11.6611 48.9207 10.6749 49.3119C9.97868 49.5466 9.24382 49.7814 8.4316 50.0552ZM4.89265 48.7642C6.09164 48.3535 7.13592 48.0014 8.06417 47.6884C7.1746 46.7886 6.30436 45.9084 5.41479 45.0282C5.26008 46.1627 5.08603 47.395 4.89265 48.7642Z" fill="white"/>
<path d="M38.2902 66.9164C38.2708 68.8333 36.7044 70.3982 34.8092 70.3982C32.8947 70.3982 31.309 68.7942 31.3283 66.8577C31.3476 64.9212 32.9527 63.3368 34.8673 63.376C36.7624 63.4151 38.2902 64.9995 38.2902 66.9164ZM34.7899 68.0705C35.4087 68.0705 35.9502 67.5423 35.9502 66.9164C35.9502 66.2905 35.4281 65.7428 34.8092 65.7428C34.1904 65.7428 33.6489 66.2709 33.6489 66.8968C33.6489 67.5228 34.1711 68.0509 34.7899 68.0705Z" fill="white"/>
<path d="M66.1567 31.688C68.0712 31.7075 69.6376 33.3115 69.6183 35.2675C69.599 37.1845 68.0132 38.7297 66.118 38.7297C64.2035 38.7102 62.6371 37.1062 62.6564 35.1502C62.6758 33.2333 64.2615 31.688 66.1567 31.688ZM66.1567 34.0352C65.5379 34.0352 64.9964 34.5438 64.9964 35.1893C64.9964 35.8152 65.4992 36.3629 66.1374 36.3825C66.7562 36.3825 67.2977 35.8739 67.317 35.2284C67.2977 34.5829 66.7755 34.0548 66.1567 34.0352Z" fill="white"/>
<path d="M0.000183884 35.1504C0.0195224 33.2139 1.64396 31.6491 3.57781 31.6882C5.47299 31.7273 6.98139 33.3509 6.96206 35.2678C6.94272 37.2043 5.31828 38.7691 3.38443 38.73C1.48925 38.6713 -0.0191546 37.0673 0.000183884 35.1504ZM3.46178 36.3827C4.08061 36.3827 4.62209 35.8546 4.62209 35.2287C4.62209 34.6027 4.09995 34.055 3.48112 34.055C2.86229 34.055 2.32081 34.5832 2.32081 35.2091C2.32081 35.835 2.84295 36.3632 3.46178 36.3827Z" fill="white"/>
<path d="M34.7704 0.000177034C36.7042 -0.0193834 38.2707 1.58457 38.2707 3.52106C38.2707 5.43798 36.7042 7.02238 34.8284 7.02238C32.8945 7.04194 31.3281 5.43798 31.3281 3.5015C31.3281 1.58457 32.8945 0.0197375 34.7704 0.000177034ZM35.9694 3.48194C35.95 2.856 35.4086 2.32787 34.7897 2.34743C34.1709 2.36699 33.6488 2.91468 33.6681 3.54062C33.6874 4.18611 34.2289 4.69468 34.8477 4.67512C35.4666 4.67512 35.9694 4.12743 35.9694 3.48194Z" fill="white"/>
<path d="M23.2071 35.1699C23.2264 28.6953 28.4478 23.4532 34.8876 23.4727C41.2499 23.4923 46.4327 28.7932 46.4133 35.2481C46.394 41.7226 41.1532 46.9844 34.7329 46.9452C28.3705 46.9061 23.1877 41.6248 23.2071 35.1699ZM44.0927 35.2677C44.112 30.1037 39.9736 25.8591 34.8876 25.82C29.7822 25.8004 25.5664 29.9863 25.5277 35.1112C25.489 40.3143 29.6468 44.5784 34.7715 44.598C39.8769 44.6175 44.0734 40.4121 44.0927 35.2677Z" fill="white"/>
</svg>
