<svg width="90" height="88" viewBox="0 0 90 88" fill="none" xmlns="http://www.w3.org/2000/svg">
<g clip-path="url(#clip0_405_2856)">
<path d="M41.9043 72.3314C38.8206 72.3314 35.7609 72.3314 32.6772 72.3314C31.1473 72.3314 30.8844 72.0659 30.9322 70.5449C31.0517 66.4165 30.98 62.2881 30.3346 58.1838C30.0477 56.349 29.235 54.7556 28.4222 53.1622C26.9641 50.2409 25.3147 47.3679 24.1194 44.326C19.6254 33.0513 26.6055 21.1973 36.8127 18.276C44.5099 16.079 51.9919 16.5619 59.1633 20.3282C61.0039 21.2939 62.6055 22.6217 63.9441 24.2151C65.0198 25.4947 65.3067 26.8708 64.4461 28.3677C64.0398 29.0437 63.9441 29.7438 64.1593 30.5405C64.7091 32.5685 65.2111 34.6206 65.737 36.6727C66.1194 38.2179 65.976 39.6664 64.9003 40.9218C64.2788 41.6461 64.2549 42.4187 64.6613 43.1913C65.474 44.7605 66.4063 46.2815 67.219 47.8508C67.5537 48.5026 67.8884 49.2269 67.9601 49.9271C68.1035 51.11 67.5537 51.8585 66.478 52.3413C66.3107 52.4137 66.1433 52.462 65.976 52.5345C64.0876 53.1139 64.3505 53.2346 64.7808 54.6349C64.8286 54.8039 64.9481 55.0453 64.8764 55.166C64.1354 56.6387 64.9481 58.2321 64.4939 59.729C64.3266 60.2843 64.4461 60.912 64.47 61.5155C64.6613 64.0747 63.3943 65.6439 60.8366 65.5232C58.7569 65.4266 56.7011 65.0404 54.6214 64.7265C53.474 64.5575 53.1872 64.6299 53.1155 65.7888C53.0198 67.3822 53.0676 68.9756 53.0676 70.569C53.0676 72.0176 52.8047 72.3073 51.3465 72.3073C48.1912 72.3314 45.0358 72.3314 41.9043 72.3314ZM51.0836 63.8815C50.1991 63.5677 49.0995 63.2538 48.0238 62.8192C46.7808 62.3122 45.5617 61.757 44.3425 61.1534C43.6971 60.8395 43.5298 60.2601 43.8406 59.6324C44.1513 59.0288 44.725 58.9564 45.3226 59.222C45.6095 59.3668 45.8963 59.5358 46.2071 59.6565C50.7967 61.8052 55.6493 63.0365 60.6931 63.3262C62.0557 63.3987 62.3665 62.9641 62.2947 61.588C62.2469 60.743 62.223 59.898 62.3665 59.0771C62.486 58.4977 62.4621 58.1356 62.0079 57.7493C61.0517 56.9526 61.1234 56.2283 62.1991 55.673C62.6533 55.4316 62.7011 55.2143 62.5816 54.7556C61.9362 52.5345 62.6055 51.3273 64.7808 50.6272C64.972 50.5548 65.2589 50.5548 65.3545 50.434C65.5457 50.2168 65.7609 49.8788 65.7131 49.6373C65.6653 49.2993 65.3784 49.0096 65.2111 48.6958C64.3744 47.1748 63.4661 45.6779 62.725 44.1087C61.9601 42.5153 62.1035 40.9943 63.2031 39.5216C63.5856 39.0146 63.7768 38.1454 63.6573 37.5419C63.2509 35.4656 62.6772 33.4376 62.1513 31.4096C61.7927 30.0576 61.7449 28.7298 62.5099 27.4744C62.9402 26.7742 62.8923 26.1224 62.2947 25.6154C61.1712 24.6014 60.0955 23.4426 58.8047 22.67C52.2071 18.783 45.1553 18.3002 37.8645 20.2074C28.3505 22.6941 21.8007 33.7756 26.3904 44.2294C27.5856 46.9575 29.0915 49.5408 30.3585 52.2206C31.0995 53.7657 31.8645 55.335 32.2469 56.9767C33.1792 60.912 33.1553 64.9196 33.1314 68.9515C33.1314 69.3378 33.1314 69.6999 33.1314 70.062C39.1075 70.062 44.9402 70.062 50.7489 70.062C50.8684 68.0099 50.988 66.0061 51.0836 63.8815Z" fill="white"/>
<path d="M58.5656 81.409C59.3544 82.4471 59.3066 83.1955 58.4699 83.5335C57.9201 83.7508 54.2628 82.4713 54.0954 81.8918C53.9759 81.5297 54.0237 80.9744 54.215 80.6364C54.6452 79.888 55.2189 79.212 55.7448 78.5119C56.1273 77.9807 56.5576 77.353 57.2508 77.7152C57.6811 77.9566 57.9201 78.5843 58.3026 79.1396C62.0795 77.7393 65.713 75.5665 68.964 72.7659C74.5337 67.9615 78.3823 61.9983 80.462 54.9245C80.4859 54.8038 80.5098 54.6831 80.5576 54.5865C80.7727 53.9105 81.203 53.4518 81.944 53.6932C82.709 53.9346 82.8524 54.5624 82.5895 55.2383C81.7289 57.5802 80.9879 59.9945 79.8883 62.1914C75.4421 71.1001 68.5337 77.353 59.4022 81.071C59.1393 81.1917 58.9002 81.2883 58.5656 81.409Z" fill="white"/>
<path d="M-8.5813e-05 44.6156C-8.5813e-05 43.4809 0.0238186 42.3221 -8.5813e-05 41.1874C-0.0239902 40.5114 0.215054 40.0527 0.788759 39.7147C2.84454 38.5317 4.87641 37.3487 6.90828 36.1416C7.45808 35.8036 7.93617 35.8036 8.48597 36.1416C10.5178 37.3487 12.5736 38.5317 14.6055 39.7147C15.1553 40.0285 15.4182 40.4631 15.3943 41.1149C15.3704 43.5051 15.3704 45.8711 15.3943 48.2612C15.3943 48.913 15.1553 49.3235 14.6055 49.6614C12.5497 50.8444 10.5417 52.0757 8.46207 53.2104C8.05569 53.4277 7.31465 53.4277 6.90828 53.2104C4.8286 52.0999 2.82063 50.8444 0.764854 49.6856C0.238958 49.2993 -8.5813e-05 48.8889 -8.5813e-05 48.237C0.0238186 47.0299 -8.5813e-05 45.8228 -8.5813e-05 44.6156ZM2.15131 44.2294C2.15131 45.5572 2.1274 46.4746 2.17521 47.3679C2.19912 47.6335 2.36645 47.9956 2.60549 48.1405C4.13537 49.082 5.68916 49.9753 7.24294 50.8444C7.48199 50.9893 7.93617 50.9652 8.19912 50.8444C9.03577 50.434 9.80071 49.927 10.6135 49.4683C11.4979 48.9613 12.6931 48.6233 13.1473 47.8507C13.6015 47.0782 13.2668 45.8711 13.2907 44.8329C13.2907 44.7846 13.2907 44.7122 13.2907 44.6639C13.2668 43.5775 13.5776 42.3221 13.1234 41.4771C12.6931 40.6804 11.4262 40.3424 10.5417 39.8112C9.60948 39.2801 8.67721 38.3385 7.74493 38.3385C6.81266 38.3385 5.9282 39.3767 4.94812 39.7871C2.70111 40.7045 1.41027 42.0807 2.15131 44.2294Z" fill="white"/>
<path d="M81.3466 30.2266C81.753 30.0334 82.1354 29.7437 82.5179 29.7196C83.2589 29.6471 83.7131 30.3956 83.4741 31.1681C83.1633 32.1821 82.8287 33.172 82.4701 34.1618C82.1354 35.031 81.4661 35.2241 80.6773 34.7171C79.9601 34.2343 79.2669 33.7031 78.5498 33.2203C78.0478 32.8581 77.498 32.5201 77.6892 31.7958C77.8805 31.0474 78.4542 30.8543 79.4103 31.0233C78.5498 29.3092 77.8566 27.7157 76.9721 26.2189C71.9044 17.6 64.5896 11.854 55.0279 9.05346C54.0956 8.78789 53.7131 8.32918 53.9044 7.62904C54.0956 6.90476 54.6454 6.68748 55.6494 6.97719C67.5777 10.5262 75.992 18.0828 81.0358 29.5264C81.1315 29.7679 81.2271 29.9851 81.3466 30.2266Z" fill="white"/>
<path d="M9.80076 60.1634C9.37048 60.7912 8.84458 61.1292 8.17526 60.767C7.48203 60.4049 7.57765 59.753 7.76889 59.1012C8.00793 58.3045 8.24697 57.4836 8.48602 56.6869C8.84458 55.5281 9.49 55.2866 10.494 55.9385C11.1394 56.3489 11.7848 56.7835 12.4541 57.218C12.98 57.556 13.6733 57.9182 13.3864 58.6666C13.1952 59.1495 12.5976 59.4392 11.9761 59.9944C12.8366 61.5154 13.745 63.3503 14.8685 65.0403C19.8645 72.5969 26.749 77.6427 35.3784 80.2019C35.6175 80.2743 35.9283 80.2743 36.0478 80.4191C36.3107 80.8054 36.7171 81.3124 36.6454 81.6504C36.5498 81.9884 35.9761 82.3264 35.5458 82.423C35.1394 82.4954 34.6852 82.254 34.2549 82.1333C23.1394 78.6084 15.0836 71.5105 10.0876 60.8636C10.0159 60.6704 9.94419 60.4773 9.80076 60.1634Z" fill="white"/>
<path d="M31.5537 8.06368C31.0517 7.62911 30.6454 7.12212 31.0757 6.42198C31.5298 5.6977 32.1753 5.89084 32.8446 6.13227C33.6573 6.42198 34.4701 6.68755 35.2828 7.0014C36.239 7.36354 36.4302 7.99125 35.8804 8.83624C35.4263 9.53638 34.9243 10.2124 34.4223 10.8884C34.0637 11.3954 33.6573 12.0955 32.9641 11.7575C32.5099 11.5402 32.2231 10.9125 31.7689 10.3572C29.1155 11.3712 26.4143 12.8922 23.9043 14.7512C17.6414 19.4107 13.2191 25.4223 10.7091 32.834C10.6613 32.9548 10.6374 33.0513 10.5896 33.172C10.3027 33.9929 9.75294 34.355 9.15533 34.1619C8.50991 33.9446 8.29478 33.3652 8.55772 32.5202C9.68123 28.9954 11.2828 25.712 13.3625 22.6458C17.8087 16.1273 23.6414 11.3954 30.8844 8.37753C31.0517 8.30511 31.2191 8.23268 31.3864 8.16025C31.4342 8.16025 31.482 8.11196 31.5537 8.06368Z" fill="white"/>
<path d="M45.3227 88C43.4343 88 41.5698 88 39.6813 88C37.6016 88 36.6455 86.3824 37.6733 84.5717C39.5618 81.24 41.4741 77.8842 43.3865 74.5525C44.4144 72.7659 46.255 72.7418 47.2829 74.5283C49.2192 77.8842 51.1315 81.24 53.0439 84.62C54.0239 86.3583 53.0917 87.9758 51.1315 87.9758C49.1952 88 47.259 88 45.3227 88ZM45.3466 75.4941C43.3387 79.0189 41.4263 82.3506 39.4901 85.7305C43.4582 85.7305 47.259 85.7305 51.2032 85.7305C49.2431 82.3023 47.3307 78.9947 45.3466 75.4941Z" fill="white"/>
<path d="M45.3943 -2.72598e-05C46.709 -2.72598e-05 48.0238 -0.0241699 49.3385 -2.72598e-05C50.8923 0.0241154 51.8963 0.941537 51.9202 2.51081C51.968 5.26307 51.968 7.99119 51.9202 10.7435C51.8963 12.3369 50.9401 13.2543 49.3624 13.2784C46.6851 13.3267 43.9839 13.3267 41.3067 13.2784C39.7051 13.2543 38.7728 12.2644 38.7489 10.6227C38.725 7.96705 38.725 5.31136 38.7489 2.65567C38.7489 0.965679 39.7529 -0.0241699 41.4501 -0.0241699C42.7648 -2.72598e-05 44.0796 -2.72598e-05 45.3943 -2.72598e-05ZM40.9003 6.61506C40.9003 7.84634 40.9242 9.07761 40.9003 10.333C40.8764 10.8883 41.0437 11.1539 41.6413 11.1539C44.1274 11.1297 46.5895 11.1297 49.0756 11.1539C49.6254 11.1539 49.7927 10.9366 49.7927 10.4055C49.7688 7.89462 49.7688 5.40793 49.7927 2.89709C49.7927 2.34181 49.5776 2.17281 49.0517 2.17281C46.5656 2.19695 44.1035 2.19695 41.6174 2.17281C41.0676 2.17281 40.9003 2.3901 40.9003 2.92124C40.9242 4.15251 40.9003 5.38379 40.9003 6.61506Z" fill="white"/>
<path d="M89.9999 44.688C89.976 48.575 86.8206 51.7618 82.972 51.7859C79.0995 51.7859 75.8724 48.5508 75.9202 44.6397C75.9441 40.7527 79.0995 37.5659 82.9481 37.5418C86.8206 37.5176 90.0238 40.7527 89.9999 44.688ZM82.9242 49.6131C85.6015 49.6372 87.8246 47.4161 87.8485 44.688C87.8724 41.984 85.6732 39.7387 82.9959 39.7146C80.3186 39.6905 78.0955 41.9116 78.0716 44.6397C78.0477 47.3195 80.2469 49.5889 82.9242 49.6131Z" fill="white"/>
<path d="M41.9522 51.6652C33.6096 51.6411 26.8924 44.8087 26.9163 36.3829C26.9402 28.0296 33.7769 21.1972 42.0239 21.2455C50.3187 21.3179 57.0358 28.1262 57.0119 36.5037C57.0119 44.8812 50.247 51.6652 41.9522 51.6652ZM41.9522 49.4924C49.0518 49.5166 54.8605 43.6982 54.8845 36.5278C54.9084 29.3333 49.1235 23.4425 42 23.4183C34.9243 23.3942 29.0916 29.2609 29.0677 36.4071C29.0438 43.6257 34.8048 49.4683 41.9522 49.4924Z" fill="white"/>
<path d="M40.8764 38.8938C40.8764 36.6727 40.8525 34.4274 40.9004 32.2063C40.9004 31.6751 40.7808 31.3613 40.2788 31.0957C38.8685 30.3232 38.2709 28.7297 38.6772 27.2329C39.1075 25.7119 40.4701 24.6738 42 24.6979C43.5059 24.7221 44.7968 25.7361 45.227 27.2329C45.6573 28.7297 45.0358 30.3232 43.6254 31.0957C43.1235 31.3854 43.0039 31.6993 43.0039 32.2304C43.0278 36.6003 43.0039 40.9701 43.0039 45.364C43.0039 45.6055 43.0039 45.8469 43.0039 46.0883C42.98 46.8126 42.5976 47.2472 41.8804 47.223C41.235 47.1989 40.8525 46.7643 40.8525 46.0883C40.8525 44.35 40.8525 42.5876 40.8525 40.8494C40.8764 40.1734 40.8764 39.5215 40.8764 38.8938ZM41.976 26.8708C41.3067 26.8708 40.733 27.4502 40.733 28.1262C40.733 28.8263 41.2828 29.3816 41.976 29.3816C42.6693 29.3816 43.2191 28.8505 43.243 28.1503C43.2191 27.4502 42.6454 26.8708 41.976 26.8708Z" fill="white"/>
<path d="M49.4582 33.8239C49.4582 34.6689 49.4821 35.5139 49.4582 36.3589C49.4103 37.5177 49.4342 38.4593 50.6534 39.3043C52.2789 40.439 52.1354 42.9498 50.6534 44.3018C49.1952 45.6296 46.9482 45.4365 45.7291 43.8914C44.486 42.3221 44.8207 39.9561 46.5418 38.918C47.1872 38.5317 47.3546 38.1213 47.3546 37.4211C47.3307 34.9103 47.3307 32.4236 47.3546 29.9128C47.3546 28.9471 47.737 28.4401 48.4303 28.4401C49.0996 28.4401 49.506 28.9712 49.506 29.9128C49.4582 31.2165 49.4582 32.5202 49.4582 33.8239ZM49.6016 41.7427C49.6016 41.0667 49.004 40.4873 48.3346 40.4873C47.6653 40.4873 47.1394 40.9942 47.1394 41.6944C47.1155 42.4187 47.6414 42.9739 48.3346 42.9981C49.0279 42.9981 49.6016 42.4187 49.6016 41.7427Z" fill="white"/>
<path d="M36.6214 31.1922C36.6214 31.3612 36.6453 31.5544 36.6214 31.7234C36.5257 32.6166 36.717 33.1961 37.5775 33.7755C39.5855 35.1033 39.3704 38.1453 37.2907 39.3766C36.7648 39.6904 36.5974 40.0043 36.6214 40.5596C36.6692 41.4529 36.6214 42.3703 36.6214 43.2636C36.6214 43.9878 36.2628 44.4466 35.5696 44.4466C34.8524 44.4466 34.5178 43.9637 34.4939 43.2636C34.47 42.7807 34.47 42.2979 34.4939 41.815C34.5417 40.6562 34.4939 39.7146 33.3225 38.8696C31.5297 37.59 31.8883 34.7412 33.8006 33.5824C34.3743 33.2202 34.5656 32.8581 34.5178 32.2304C34.47 31.3854 34.4939 30.5404 34.5178 29.6954C34.5178 28.9711 34.8524 28.4158 35.6174 28.44C36.3823 28.44 36.6931 28.9952 36.6692 29.7195C36.6213 30.2265 36.6214 30.7094 36.6214 31.1922ZM36.7887 36.4795C36.7887 35.7793 36.2389 35.2241 35.5457 35.2241C34.8524 35.2241 34.2787 35.8276 34.3265 36.5036C34.3982 37.2038 34.7807 37.6625 35.5218 37.6866C36.2389 37.7107 36.7887 37.1796 36.7887 36.4795Z" fill="white"/>
</g>
<defs>
<clipPath id="clip0_405_2856">
<rect width="90" height="88" fill="white"/>
</clipPath>
</defs>
</svg>
