<svg width="90" height="78" viewBox="0 0 90 78" fill="none" xmlns="http://www.w3.org/2000/svg">
<g clip-path="url(#clip0_405_2873)">
<path d="M44.835 66.5853C39.9816 66.5853 35.1517 66.5853 30.2983 66.5853C29.2852 66.5853 28.9318 66.233 28.9318 65.2231C28.9083 62.3107 28.9083 60.0794 28.9318 58.0126C28.9554 53.0569 32.3245 49.6278 37.3192 49.4868C37.3899 49.4868 37.437 49.4868 37.5077 49.4868H38.0496H38.6151L38.2381 49.0876C35.9763 46.7624 34.9397 44.2493 35.0339 41.4308C35.1281 38.4715 36.3297 36.0054 38.5915 34.056C40.335 32.5528 42.691 31.6838 45.0234 31.6838C47.4973 31.6838 49.9004 32.6233 51.9737 34.4083L52.1151 34.5257L64.4842 25.5772L64.2486 25.3893C62.3402 23.8861 60.2198 22.6413 57.7695 21.5844C53.7407 19.8229 49.4763 18.9069 45.0941 18.9069C30.0156 18.9069 16.9161 29.5465 13.9475 44.2023C13.6412 45.7289 13.5234 47.3261 13.4292 48.8527C13.4056 49.2755 13.3821 49.6747 13.335 50.0975C13.2407 51.3893 12.958 51.6476 11.7329 51.6476H11.1674C10.3428 51.6476 9.5182 51.6476 8.69359 51.6476C7.86899 51.6476 7.04438 51.6476 6.21977 51.6476C4.35852 51.6476 2.92134 51.6476 1.55485 51.6711H1.50773C0.800924 51.6711 0.35328 51.4597 0.0234375 50.943V47.8428C0.0941181 47.3026 0.164799 46.7624 0.235479 46.2222C0.376841 45.0713 0.518202 43.897 0.730244 42.7461C2.99202 30.5094 9.42396 20.6684 19.814 13.4345C20.1674 13.1761 20.5208 13.0587 20.8035 13.0587C21.1334 13.0587 21.4161 13.2231 21.6282 13.5519C21.8638 13.9042 22.0522 14.4679 21.0391 15.2429C19.7433 16.1589 18.4711 17.1454 17.246 18.0849C16.7512 18.4841 15.5261 19.4001 15.5261 19.4001L21.7695 25.6711L21.9344 25.5537C22.4763 25.1779 23.0182 24.7551 23.5365 24.3794C24.7145 23.4869 25.9397 22.5943 27.2119 21.7958C31.9475 18.8364 37.1779 17.1924 42.7381 16.8635C43.6098 16.8166 43.9161 16.4878 43.9161 15.6422C43.8925 13.8807 43.8925 12.1192 43.8925 10.2637C43.8925 9.53563 43.8925 8.80754 43.8925 8.05596V7.7976L43.6334 7.82109C43.0679 7.89155 42.5025 7.93852 41.937 7.9855C40.7119 8.10293 39.5575 8.22037 38.3795 8.38477C34.5391 8.94846 30.6517 10.1228 26.8821 11.8608C26.6229 11.9783 26.2931 12.1192 26.1046 12.1192C26.0575 12.1192 26.0339 12.1192 26.0339 12.0957C25.6334 11.9078 25.1857 11.532 25.0444 11.1562C24.8323 10.5925 25.28 10.1698 25.7276 10.0054C26.4109 9.74701 27.1177 9.46517 27.8009 9.18333C29.4737 8.50221 31.2172 7.7976 32.9606 7.35135C37.2721 6.24747 41.513 5.70727 45.5653 5.70727C56.1674 5.70727 65.992 9.48866 74.8271 16.9575L74.9449 17.0514C75.0156 17.1219 75.0863 17.1689 75.1569 17.2393C75.2041 17.2863 75.2512 17.3098 75.3219 17.3333C75.369 17.3568 75.3925 17.3803 75.4632 17.4037L75.6046 17.4742L78.691 15.2664L78.3611 15.0785C78.2433 15.0081 78.102 14.9611 77.9842 14.8906C77.7721 14.7967 77.6072 14.7028 77.4658 14.5853C69.5732 7.58622 60.314 3.4995 49.9711 2.46607C48.7931 2.34864 47.5915 2.30167 46.437 2.23121C46.0601 2.20772 45.6831 2.20772 45.3062 2.18423C43.9161 2.11377 43.9397 1.3387 43.9397 1.08035C43.9632 0.164359 44.8114 0.0234375 45.3297 0.0234375H45.3768C52.6334 0.117385 59.5365 1.62055 65.8978 4.48595C71.2224 6.88161 76.0758 10.1933 80.3402 14.327C81.424 15.3604 81.4475 15.5953 80.5758 16.7931L78.1255 20.1752L78.2433 20.3161C78.5025 20.6214 78.7381 20.9268 78.9973 21.2086C79.5391 21.8663 80.0575 22.4769 80.5522 23.1111C85.6648 29.7109 88.7276 37.1797 89.67 45.3297C89.8585 46.9268 89.9292 48.5474 89.9999 50.0505C90.0234 50.7082 89.9528 51.1074 89.7407 51.3423C89.5287 51.5537 89.1282 51.6711 88.4685 51.6711C86.9135 51.6711 85.3585 51.6711 83.8035 51.6711H78.4789C77.0418 51.6711 76.7826 51.4128 76.759 50.0036C76.6648 44.3197 75.0863 38.9647 72.0941 34.0325C71.7407 33.4688 71.3638 32.9051 70.9632 32.3179C70.7747 32.0361 70.5627 31.7308 70.3507 31.4254L70.1622 31.1436L67.2171 35.1833C67.0758 35.3947 66.9344 35.5826 66.7695 35.794C66.5103 36.1463 66.2747 36.4751 66.0156 36.8274C65.6622 37.2971 65.2852 37.5555 64.9083 37.5555C64.7198 37.5555 64.5077 37.485 64.2957 37.3441C64.0365 37.1562 63.8952 36.9448 63.848 36.71C63.8009 36.3812 63.9187 36.0054 64.225 35.6061C65.9449 33.2339 67.6648 30.8617 69.3847 28.513L71.6229 25.3658C72.3533 24.3794 73.1543 23.252 73.8376 22.0307L73.4842 21.7253L53.4816 36.1933L53.5758 36.3812C55.9318 40.9376 55.3899 45.1653 51.9501 48.9232L51.691 49.205L52.0679 49.299C52.6334 49.4399 52.9868 49.5338 53.2931 49.5338C53.9763 49.5338 54.3062 49.1111 54.848 48.3595C55.2721 47.7723 55.6962 47.2086 56.1203 46.6214C57.4397 44.813 58.8062 42.934 60.1726 41.102C60.4083 40.7732 60.8323 40.3974 61.1622 40.3739C61.1857 40.3739 61.1857 40.3739 61.2093 40.3739C61.5391 40.3739 62.0339 40.6323 62.1282 40.8437C62.2931 41.196 62.2459 41.8301 62.0339 42.1354C61.28 43.2863 60.4318 44.4137 59.6308 45.4941C59.3245 45.9168 58.9946 46.3396 58.6884 46.7624C58.17 47.4905 57.6282 48.2186 57.0863 48.9466L56.2617 50.074L56.7329 50.4028C56.9213 50.5203 57.1098 50.6377 57.2747 50.7551C59.6779 52.3992 60.9501 54.607 61.0208 57.3315C61.0679 59.4453 61.0679 61.6061 61.0444 63.6729C61.0444 64.1897 61.0444 64.7298 61.0444 65.2466C61.0444 66.2095 60.6674 66.5618 59.7014 66.5618C54.7538 66.5853 49.7826 66.5853 44.835 66.5853ZM37.5077 60.878C38.1674 60.878 38.5444 61.3242 38.5679 62.0993C38.5679 62.5456 38.5679 63.0153 38.5679 63.485C38.5679 63.6964 38.5679 63.9078 38.5679 64.1427V64.3775H51.3847V63.0858V62.7804C51.3847 62.569 51.3847 62.3342 51.3847 62.1228C51.4083 61.3477 51.7852 60.9015 52.4449 60.878H52.4685C53.1281 60.878 53.5287 61.3477 53.5522 62.1463C53.5522 62.5925 53.5522 63.0623 53.5522 63.5085C53.5522 63.7199 53.5522 63.9078 53.5522 64.1192V64.3541H58.8533V64.1192C58.8533 63.4381 58.8533 62.7335 58.8533 62.0523C58.8533 60.5727 58.8768 59.046 58.8297 57.5429C58.759 54.2312 56.2381 51.6946 53.0103 51.6476C50.3716 51.6007 47.6622 51.5772 44.9763 51.5772C42.3376 51.5772 39.6046 51.6007 36.9187 51.6242C33.691 51.6711 31.17 54.2077 31.0758 57.5194C31.0522 58.3179 31.0522 59.14 31.0522 59.9385C31.0522 60.2908 31.0522 60.6196 31.0522 60.9719C31.0522 61.7 31.0522 64.1192 31.0522 64.1192V64.3541H36.3533V64.1192C36.3533 63.8843 36.3533 63.6729 36.3533 63.4616C36.3533 62.9918 36.3533 62.5221 36.3533 62.0758C36.4475 61.3477 36.848 60.878 37.5077 60.878ZM44.9763 33.8446C40.6648 33.8446 37.1543 37.3441 37.1543 41.6422C37.1543 45.9403 40.6412 49.4399 44.9528 49.4399C49.2878 49.4399 52.7983 45.9638 52.8219 41.6892C52.8219 39.5989 52.0208 37.626 50.5365 36.1228C49.0522 34.6666 47.0967 33.8446 44.9763 33.8446ZM76.6177 22.1951C76.1936 22.7822 75.7695 23.3694 75.3454 23.9566C74.191 25.5537 73.0836 27.0569 71.9528 28.5835C71.5522 29.1237 71.5522 29.523 71.9763 30.0632C74.5679 33.3983 76.3821 36.8979 77.3716 40.4679C77.9135 42.4173 78.2905 44.3667 78.6674 46.4336C78.8323 47.3495 79.0208 48.289 79.2093 49.2285L79.2564 49.4164H87.8323V49.1815C87.3611 38.8003 83.8271 29.9692 76.9946 22.1951L76.8062 21.9837L76.6177 22.1951ZM13.7119 21.42C6.52606 29.2177 2.66218 38.542 2.19098 49.1345V49.3694H11.0732V49.158C11.4973 40.9376 14.513 33.7037 20.0025 27.6675L20.1439 27.5031L13.8768 21.2321L13.7119 21.42ZM46.1543 16.7226C46.1543 16.7226 46.602 16.7696 46.7198 16.7696C46.9554 16.7931 47.1674 16.8166 47.3795 16.8401C47.8507 16.9105 48.2983 16.9575 48.7695 17.0045C49.8062 17.1219 50.8664 17.2393 51.903 17.4507C56.8978 18.4607 61.5156 20.5745 65.6622 23.6747C65.8507 23.8157 66.2041 23.9331 66.4632 23.9331C66.6046 23.9331 66.7224 23.9096 66.8166 23.8392C68.5836 22.5943 70.3035 21.3495 72.1177 20.0343L73.7433 18.8599L73.5077 18.672C65.5915 11.8373 56.7329 8.31431 46.4135 7.89155H46.1779V16.7226H46.1543Z" fill="white"/>
<path d="M7.18574 57.167C5.08888 57.167 2.96846 57.1435 0.871606 57.12C0.706685 57.12 0.471083 56.9087 0.259041 56.7208C0.1648 56.6503 0.0705592 56.5564 -0.0236816 56.4859V55.6404C0.376842 55.1941 0.871606 55.0062 1.62553 55.0062H1.67265C3.01559 55.0297 4.4292 55.0297 6.26689 55.0297C7.11506 55.0297 7.96323 55.0297 8.83496 55.0297C9.68312 55.0297 10.5313 55.0297 11.403 55.0297H11.5915C11.78 55.0297 11.9685 55.0297 12.1569 55.0532C12.7931 55.1002 13.1465 55.429 13.1936 56.0631C13.2172 56.4154 13.1229 56.6973 12.9344 56.9087C12.7695 57.0731 12.581 57.167 12.3219 57.167C10.6255 57.1435 8.88208 57.167 7.18574 57.167Z" fill="white"/>
<path d="M44.8821 77.9999C40.0287 77.9999 35.1753 77.9999 30.3219 77.9999C29.3088 77.9999 28.9554 77.6476 28.9554 76.6142C28.9319 74.7118 28.9319 73.0207 28.9554 71.4236C28.9554 70.5076 29.3324 70.1318 30.2277 70.1083C30.7931 70.0848 31.4057 70.0848 32.0182 70.0848C32.6308 70.0848 33.2669 70.0848 33.9266 70.1083C34.7277 70.1318 35.246 70.5546 35.2224 71.2122C35.2224 71.8698 34.7277 72.2456 33.8795 72.2691C33.4083 72.2691 32.9606 72.2926 32.4894 72.2926C32.1832 72.2926 31.9004 72.2926 31.5942 72.2926C31.5235 72.2926 31.4528 72.3396 31.4057 72.3631C31.3821 72.3866 31.3586 72.3866 31.3114 72.4335L31.1936 72.504V75.7922H58.8533V72.2926C58.8533 72.2926 44.8586 72.2926 41.0889 72.2926H40.6884C40.5235 72.2926 40.335 72.2926 40.1701 72.2691C39.7224 72.1987 39.2277 71.9168 39.2983 71.3531C39.3455 71.0243 39.6282 70.6016 40.0523 70.2023C40.1465 70.1083 40.4292 70.1083 40.5235 70.1083C40.5942 70.1083 40.6648 70.1083 40.712 70.1083C40.7826 70.1083 40.8298 70.1083 40.9004 70.1083C44.5758 70.1083 48.2512 70.1083 51.9266 70.1083C54.424 70.1083 56.9449 70.1083 59.4423 70.1083C60.8088 70.1083 61.068 70.3902 61.0915 71.7524V72.3396C61.0915 73.7253 61.0915 75.1815 61.0915 76.5907C61.0915 77.6241 60.7381 77.9999 59.725 77.9999C54.7538 77.9999 49.8062 77.9999 44.8821 77.9999Z" fill="white"/>
<path d="M83.3325 57.214C81.589 57.214 79.8691 57.214 78.1256 57.214C77.6544 57.214 77.2539 57.0731 77.0183 56.8382C76.8298 56.6503 76.7356 56.392 76.7356 56.1101C76.7592 55.2411 77.5366 55.0767 78.1728 55.0532C78.8796 55.0532 79.5864 55.0532 80.2696 55.0532H83.4503H86.4424C87.1492 55.0532 87.8796 55.0532 88.5864 55.0532C89.0811 55.0532 89.4817 55.1941 89.7173 55.429C89.8822 55.6169 89.9764 55.8518 89.9764 56.1571C89.9529 56.8147 89.4581 57.214 88.6335 57.2375C86.89 57.1905 85.0995 57.214 83.3325 57.214Z" fill="white"/>
<path d="M83.3794 62.8979C82.7197 62.8979 82.0364 62.8979 81.3532 62.8744C80.7406 62.8509 80.3401 62.4046 80.3401 61.794C80.3401 61.1833 80.7406 60.784 81.4003 60.7371C81.4239 60.7371 81.471 60.7371 81.4945 60.7371H83.1673H83.4029C83.5914 60.7371 83.8034 60.7371 83.9919 60.7371C84.1804 60.7371 84.3924 60.7371 84.5809 60.7371C84.8636 60.7371 85.0993 60.7371 85.3113 60.7605C85.9239 60.784 86.3951 61.2303 86.3951 61.8175C86.4186 62.4046 85.9474 62.8979 85.3584 62.8979C84.7223 62.8979 84.0626 62.8979 83.3794 62.8979Z" fill="white"/>
<path d="M6.6202 62.8979C5.93695 62.8979 5.25371 62.8744 4.59402 62.8744C4.00502 62.8509 3.55737 62.3812 3.55737 61.7705C3.58093 61.1834 4.02858 60.7606 4.64114 60.7371C4.85318 60.7371 5.08879 60.7136 5.37151 60.7136C5.55999 60.7136 5.74847 60.7136 5.93695 60.7136C6.12544 60.7136 6.31392 60.7136 6.52596 60.7136H6.54952C6.738 60.7136 6.92648 60.7136 7.13852 60.7136C7.35057 60.7136 7.56261 60.7136 7.75109 60.7136C7.98669 60.7136 8.24585 60.7136 8.48146 60.7136C9.18826 60.7371 9.61235 61.1364 9.61235 61.7705C9.61235 62.3812 9.18826 62.8274 8.59926 62.8509C7.96313 62.8979 7.27989 62.8979 6.6202 62.8979Z" fill="white"/>
</g>
<defs>
<clipPath id="clip0_405_2873">
<rect width="90" height="78" fill="white"/>
</clipPath>
</defs>
</svg>
