<?xml version="1.0" encoding="utf-8"?>
<!-- Generator: Adobe Illustrator 26.0.0, SVG Export Plug-In . SVG Version: 6.00 Build 0)  -->
<svg version="1.1" id="Calque_1" xmlns="http://www.w3.org/2000/svg" xmlns:xlink="http://www.w3.org/1999/xlink" x="0px" y="0px"
	 viewBox="0 0 160 160" style="enable-background:new 0 0 160 160;" xml:space="preserve">
<style type="text/css">
	.st0{fill:#FEFEFE;}
	.st1{fill:#5D5DAC;}
</style>
<path class="st0" d="M54.1,75.3c2.9,0.6,2.1,3.4,1.2,5.3C52.6,80,53,77.3,54.1,75.3z"/>
<path class="st0" d="M54.2,43.3c2.7,0.7,2.2,3.5,1.1,5.3C52.5,48,53,45.2,54.2,43.3z"/>
<path class="st0" d="M55.4,72.7c-2.8-0.6-2.4-3.4-1.2-5.3C57,68.1,56.4,70.8,55.4,72.7z"/>
<path class="st0" d="M54.2,83.4c2.8,0.7,2.2,3.4,1.3,5.3C52.6,88.2,53,85.3,54.2,83.4z"/>
<path class="st0" d="M54.2,51.4c2.7,0.7,2.1,3.4,1.2,5.4C52.5,56.1,53,53.3,54.2,51.4z"/>
<path class="st0" d="M55.4,91.7c1.2,1.5,0.7,3.2,0.1,4.8c-0.3,0-0.6,0-0.8-0.1c-0.5-0.1-0.9-0.5-1.1-1c-0.6-1.2,0-2.9,0.4-4.1
	C54.6,91.5,54.9,91.5,55.4,91.7z"/>
<path class="st0" d="M55.4,64.6c-2.8-0.1-2.2-3.6-1.2-5.3c0.6,0.1,0.8,0.2,1.3,0.4C56.6,61.3,56.1,63,55.4,64.6z"/>
<path class="st0" d="M55.4,104.8c-2.8-0.6-2.4-3.5-1.2-5.4c0.5,0.1,0.8,0.2,1.3,0.5C56.7,101.5,56,103.1,55.4,104.8z"/>
<path class="st0" d="M62.3,72.5c-1.7-1.1-1-3.8-0.2-5.1c2.8,0.8,2.1,3.3,1.3,5.3C63.1,72.6,62.5,72.6,62.3,72.5z"/>
<path class="st0" d="M62.3,88.5C60.8,87,61,85,62.1,83.3c2.7,0.9,2.2,3.2,1.3,5.3L62.3,88.5z"/>
<path class="st0" d="M63.4,56.7l-1.1-0.1C60.9,55,61,53,62.1,51.3C64.8,52.1,64.3,54.7,63.4,56.7z"/>
<path class="st0" d="M61.5,63.4c-0.5-1.2,0-2.9,0.4-4.1c0.1,0,0.2,0.1,0.4,0.1c2.7,0.6,1.8,3.2,1.3,5.1c-0.3,0-0.8,0-1.1-0.2
	C62,64.2,61.6,63.9,61.5,63.4z"/>
<path class="st0" d="M61.8,91.3c0.2,0,0.4,0.1,0.6,0.1c2.5,0.5,1.6,3.3,1.1,5c-0.3,0-0.7,0-1-0.1C60.5,95.7,61.3,92.8,61.8,91.3z"/>
<path class="st0" d="M61.9,75.3c3.1,0.6,2.3,2.9,1.7,5.1c-0.3,0-0.7,0-1-0.1c-0.5-0.2-0.8-0.5-1-0.9C60.9,78.3,61.4,76.5,61.9,75.3z
	"/>
<path class="st0" d="M61.5,47.5c-0.6-1.2,0-3,0.4-4.1l0.1,0c2.9,0.6,2.1,3.1,1.5,5.2c-0.3,0-0.7,0-1-0.1
	C62.1,48.2,61.7,47.9,61.5,47.5z"/>
<path class="st0" d="M69.5,79.2c-0.4-1.4-0.1-2.6,0.6-3.9c3,0.5,2.3,3.3,1.3,5.2C70.5,80.7,69.7,80.1,69.5,79.2z"/>
<path class="st0" d="M71.4,72.8c-0.6-0.1-0.8-0.2-1.3-0.4c-1.2-1.5-0.8-3.5,0.1-5C73,68.2,72.3,70.7,71.4,72.8z"/>
<path class="st0" d="M70.1,83.4c2.9,0.5,2.1,3.4,1.3,5.4c-1.1-0.2-1.7-0.5-2-1.6C69.1,85.8,69.4,84.6,70.1,83.4z"/>
<path class="st0" d="M71.5,96.5c-0.3,0-0.6,0-0.9-0.1c-0.5-0.1-0.8-0.5-1.1-0.9c-0.6-1.2-0.1-3,0.3-4.2C73,91.9,72.3,94.3,71.5,96.5
	z"/>
<path class="st0" d="M71.5,64.5c-3,0.6-2.2-3.5-1.7-5.1C73.1,59.6,72.2,62.4,71.5,64.5z"/>
<path class="st0" d="M70.1,51.4c0.6,0.1,1,0.3,1.5,0.6c1,1.6,0.6,3.3-0.1,4.8C68.5,56.1,69,53.3,70.1,51.4z"/>
<path class="st0" d="M69.6,44.3c0.1-0.3,0.2-0.6,0.4-1c0.8,0.1,1.6,0.2,1.9,1.1c0.6,1.3,0.1,2.8-0.3,4.1c-0.2,0-0.9,0-1.1-0.1
	C69,47.8,69.2,45.6,69.6,44.3z"/>
<path class="st0" d="M77.5,47.5c-0.6-1.2,0-3,0.4-4.2c0.1,0,0.2,0,0.3,0.1c2.7,0.6,1.8,3.2,1.3,5.1c-0.3,0-0.7,0-1-0.1
	C78.1,48.3,77.7,47.9,77.5,47.5z"/>
<path class="st0" d="M79.5,56.6c-0.3,0-0.7,0-0.9-0.1c-0.5-0.2-0.9-0.5-1.1-1c-0.6-1.2,0-2.9,0.4-4.1C81,52,80.1,54.3,79.5,56.6z"/>
<path class="st0" d="M84.4,88.9c-0.3-0.1-0.6-0.2-0.9-0.3c-1.4,1.9-1.6,4.6,1,5.5C85.4,92.7,86.2,90,84.4,88.9z M83.6,72.6
	c-1.4,1.8-1.6,4.5,0.9,5.5C85.7,76.3,86.3,73.3,83.6,72.6z M84.8,96.9c-0.6-0.2-0.9-0.3-1.5-0.3c-0.8,2-1.4,4.8,1.4,5.4
	C85.4,100.4,85.9,98.6,84.8,96.9z M83.2,80.7c-0.5,1.7-1.4,4.5,1.1,5c0.2,0,0.4,0.1,0.6,0.1C85.5,83.7,86.4,80.9,83.2,80.7z
	 M85.3,65.9c-0.2-0.5-0.6-0.9-1.1-1.1c-0.2-0.1-0.6-0.2-0.8-0.2c-0.5,1.1-1.1,2.5-0.6,3.8c0.2,0.6,0.6,1.1,1.2,1.3
	c0.2,0.1,0.6,0.2,0.8,0.2C85.2,68.8,85.8,67.2,85.3,65.9z M91.1,96.9c-0.3,1.2-0.8,3.1-0.2,4.3c0.3,0.4,0.7,0.7,1.2,0.8
	c0.2,0,0.5,0.1,0.7,0.1C93.3,99.7,94.4,97.2,91.1,96.9z M91.4,64.9l-0.2,0l-0.1,0c-0.6,1.4-1.2,4.3,0.7,5c0.3,0.1,0.7,0.1,0.9,0.2
	C93.3,68.1,94.3,65.2,91.4,64.9z M91.1,80.8c-0.3,1.2-0.9,3.1-0.2,4.2c0.3,0.4,0.7,0.7,1.2,0.8c0.2,0.1,0.5,0.1,0.7,0.1
	C93.3,83.9,94.3,80.8,91.1,80.8z M91.3,88.7c-1.2,1.9-1.4,4.7,1.3,5.3c0.3-0.2,0.5-1.5,0.6-2C93.6,90.2,93.3,89,91.3,88.7z
	 M91.3,72.7c-1.2,1.9-1.4,4.6,1.3,5.3c0.4-0.3,0.6-2.1,0.7-2.6C93.5,73.9,92.9,72.8,91.3,72.7z M99.6,88.6c-1,1.4-1.6,3.8-0.1,5.1
	c0.2,0.1,0.7,0.3,0.9,0.4C101.7,92.4,102.3,89.2,99.6,88.6z M99.6,72.6c-0.4,0.6-0.6,1-0.8,1.7c-0.4,1.4,0,3.5,1.8,3.8
	C101.6,76.4,102.3,73.1,99.6,72.6z M99.1,96.9c-0.4,1.7-1.2,4.5,1.1,5.1c0.2,0,0.3,0.1,0.5,0l0.1-0.1
	C101.6,99.7,102.4,97.1,99.1,96.9z M100.8,65.1c-0.7-0.2-0.9-0.2-1.6-0.2c-0.4,1.1-0.9,2.9-0.3,4c0.2,0.5,0.6,0.9,1.2,1
	c0.2,0.1,0.5,0.1,0.8,0.2C101.4,68.4,101.9,66.8,100.8,65.1z M100.8,81.1c-0.7-0.2-0.9-0.3-1.7-0.2c-0.4,1.6-1.2,4.6,1,5
	c0.2,0,0.4,0.1,0.7,0C101.5,84.3,101.8,82.6,100.8,81.1z M99.1,80.9c-0.4,1.6-1.2,4.6,1,5c0.2,0,0.4,0.1,0.7,0c0.6-1.6,1-3.3,0-4.8
	C100.1,80.8,99.9,80.8,99.1,80.9z M100,69.9c0.2,0.1,0.5,0.1,0.8,0.2c0.6-1.7,1.1-3.3,0-5c-0.7-0.2-0.9-0.2-1.6-0.2
	c-0.4,1.1-0.9,2.9-0.3,4C99.1,69.4,99.5,69.8,100,69.9z M99.1,96.9c-0.4,1.7-1.2,4.5,1.1,5.1c0.2,0,0.3,0.1,0.5,0l0.1-0.1
	C101.6,99.7,102.4,97.1,99.1,96.9z M100.5,78.1c1.1-1.7,1.8-5-0.9-5.5c-0.4,0.6-0.6,1-0.8,1.7C98.3,75.8,98.8,77.8,100.5,78.1z
	 M100.5,94.1c1.2-1.7,1.8-4.9-0.9-5.5c-1,1.4-1.6,3.8-0.1,5.1C99.7,93.9,100.3,94,100.5,94.1z M92.6,78c0.4-0.3,0.6-2.1,0.7-2.6
	c0.1-1.5-0.4-2.5-2-2.7C90.1,74.6,89.9,77.3,92.6,78z M92.6,94c0.3-0.2,0.5-1.5,0.6-2c0.3-1.9,0-3-1.9-3.4
	C90.2,90.6,89.9,93.4,92.6,94z M91.1,80.8c-0.3,1.2-0.9,3.1-0.2,4.2c0.3,0.4,0.7,0.7,1.2,0.8c0.2,0.1,0.5,0.1,0.7,0.1
	C93.3,83.9,94.3,80.8,91.1,80.8z M91.8,69.9c0.3,0.1,0.7,0.1,0.9,0.2c0.5-1.9,1.5-4.9-1.4-5.1l-0.2,0l-0.1,0
	C90.5,66.3,90,69.2,91.8,69.9z M91.1,96.9c-0.3,1.2-0.8,3.1-0.2,4.3c0.3,0.4,0.7,0.7,1.2,0.8c0.2,0,0.5,0.1,0.7,0.1
	C93.3,99.7,94.4,97.2,91.1,96.9z M83.9,69.7c0.2,0.1,0.6,0.2,0.8,0.2c0.5-1.1,1-2.8,0.5-4.1c-0.2-0.5-0.6-0.9-1.1-1.1
	c-0.2-0.1-0.6-0.2-0.8-0.2c-0.5,1.1-1.1,2.5-0.6,3.8C82.9,69,83.3,69.5,83.9,69.7z M84.3,85.8c0.2,0,0.4,0.1,0.6,0.1
	c0.7-2.2,1.5-4.9-1.7-5.2C82.7,82.4,81.8,85.2,84.3,85.8z M83.3,96.6c-0.8,2-1.4,4.8,1.4,5.4c0.8-1.7,1.3-3.4,0.1-5.1
	C84.2,96.8,83.9,96.7,83.3,96.6z M84.5,78.1c1.2-1.8,1.8-4.8-0.9-5.5C82.2,74.5,82,77.2,84.5,78.1z M84.4,88.9
	c-0.3-0.1-0.6-0.2-0.9-0.3c-1.4,1.9-1.6,4.6,1,5.5C85.4,92.7,86.2,90,84.4,88.9z M119.5,115.8c-1.7-0.8-4.2-0.6-6-0.6
	c-0.2-5.1-1.2-6.9-5.4-9.7c0.1-9.8,0.1-19.5,0.1-29.3c0-5.3,0.3-11.5-0.2-16.7c-7.3-0.3-14-0.2-21.2-0.1c0-4,0.1-8,0-12.1
	c0-2.4,0-6.8-0.4-9.1C84,38,81.3,38,78.9,37.9c-3.6-0.1-7.2-0.1-10.8,0c-4.9,0.1-9.7,0-14.5,0c-1.5,0-3.3,0-4.8,0.2
	c-1,1-0.8,2.9-0.8,4.3l0,4.5l0,15.7l0,35c0,5.8,0.1,11.8,0,17.6c-2.5-0.1-6-0.5-8,1.2c0.9,1.4,2.1,1.3,3.6,1.3c1.2,0,2.4,0,3.6,0
	c4.1,0,8.2,0,12.4,0l47.6,0c1.5,0,3.1,0,4.6,0c1.8,0,6.2,0.2,7.9-0.3C120.1,116.9,120.3,116.3,119.5,115.8z M105,61.9l0.2,42.7
	c-2.3,0.1-3.7,0.2-6-0.1c-0.2,0.8-0.5,1.3-0.8,2c-0.3,0.4-0.4,0.5-0.8,0.8c-0.8,0.2-2.6-1.7-3.5-2.1c-2.3-1-3.6-0.5-5.9-0.5
	c-0.8,0-1.9-0.5-2.6-0.8c-2.4-1-4.7-0.2-7,0.7c0.1-5,0.1-10.1,0-15.2V62l5-0.1C90.6,61.8,97.9,61.9,105,61.9z M50.9,115.4
	c-0.5-0.7-0.3-41.2-0.3-45.8l0-17c0-4-0.1-8,0.1-12L84,40.6c-0.1,6.3-0.1,12.5-0.1,18.8c-2.6,0-5.3-0.1-7.9,0.1
	c-0.2,5.3-0.1,11-0.1,16.4l0,26c-2.9-2-4.4-2.8-7.9-2.5c-1.3,0.2-2.2,0.6-3.4,1.1c-0.9,0.4-1.3-1.7-2.2-1c-0.9,0.7-1,2.7-1.3,3.7
	c-0.3,1.4-0.5,2.7-0.9,4.1c-1.1,0.4-2.8,1.2-3.9,1.3c-0.3-0.3-0.9-0.9-1.3-1.2C52.7,107.2,54.1,116,50.9,115.4z M83,115.4
	c-2.7-0.1-5.6-0.1-8.3-0.1l-20.2,0c2.1-4,3.1-4.9,7.8-5.3c0.5-2.1,0.9-4.5,2.6-6c0.8-0.7,2-1.4,3.1-1.6c5.8-0.2,6.5,2.1,8.6,6.9
	c1.4-1.2,3.3-2.9,5.1-3.2c5.1-0.9,1.5,3.3,1.1,5.4C82.5,112.7,82.8,114.2,83,115.4z M87.5,115.3l-1.3,0l-0.7-2.7
	c0.3-1.3,0.7-3.1,1.8-4c1-0.8,2.7-1.3,4-1.2c2.8,0.3,4.1,2.6,5.8,4.7c2.1-2.4,3.4-4.5,6.9-4.9c2.4-0.2,4.5,1.3,5.6,3.4
	c0.8,1.5,1.1,2.9,1.2,4.6C103.2,115.5,95,115.4,87.5,115.3z M100.8,85.9c0.6-1.6,1-3.3,0-4.8c-0.7-0.2-0.9-0.3-1.7-0.2
	c-0.4,1.6-1.2,4.6,1,5C100.4,86,100.6,86,100.8,85.9z M100,69.9c0.2,0.1,0.5,0.1,0.8,0.2c0.6-1.7,1.1-3.3,0-5
	c-0.7-0.2-0.9-0.2-1.6-0.2c-0.4,1.1-0.9,2.9-0.3,4C99.1,69.4,99.5,69.8,100,69.9z M99.1,96.9c-0.4,1.7-1.2,4.5,1.1,5.1
	c0.2,0,0.3,0.1,0.5,0l0.1-0.1C101.6,99.7,102.4,97.1,99.1,96.9z M100.5,78.1c1.1-1.7,1.8-5-0.9-5.5c-0.4,0.6-0.6,1-0.8,1.7
	C98.3,75.8,98.8,77.8,100.5,78.1z M99.6,88.6c-1,1.4-1.6,3.8-0.1,5.1c0.2,0.1,0.7,0.3,0.9,0.4C101.7,92.4,102.3,89.2,99.6,88.6z
	 M92.6,78c0.4-0.3,0.6-2.1,0.7-2.6c0.1-1.5-0.4-2.5-2-2.7C90.1,74.6,89.9,77.3,92.6,78z M91.3,88.7c-1.2,1.9-1.4,4.7,1.3,5.3
	c0.3-0.2,0.5-1.5,0.6-2C93.6,90.2,93.3,89,91.3,88.7z M92.1,85.9c0.2,0.1,0.5,0.1,0.7,0.1c0.5-2,1.6-5.1-1.7-5.1
	c-0.3,1.2-0.9,3.1-0.2,4.2C91.2,85.5,91.6,85.8,92.1,85.9z M91.8,69.9c0.3,0.1,0.7,0.1,0.9,0.2c0.5-1.9,1.5-4.9-1.4-5.1l-0.2,0
	l-0.1,0C90.5,66.3,90,69.2,91.8,69.9z M91.1,96.9c-0.3,1.2-0.8,3.1-0.2,4.3c0.3,0.4,0.7,0.7,1.2,0.8c0.2,0,0.5,0.1,0.7,0.1
	C93.3,99.7,94.4,97.2,91.1,96.9z M82.7,68.4c0.2,0.6,0.6,1.1,1.2,1.3c0.2,0.1,0.6,0.2,0.8,0.2c0.5-1.1,1-2.8,0.5-4.1
	c-0.2-0.5-0.6-0.9-1.1-1.1c-0.2-0.1-0.6-0.2-0.8-0.2C82.8,65.8,82.3,67.1,82.7,68.4z M84.9,85.9c0.7-2.2,1.5-4.9-1.7-5.2
	c-0.5,1.7-1.4,4.5,1.1,5C84.5,85.8,84.7,85.8,84.9,85.9z M83.3,96.6c-0.8,2-1.4,4.8,1.4,5.4c0.8-1.7,1.3-3.4,0.1-5.1
	C84.2,96.8,83.9,96.7,83.3,96.6z M83.6,72.6c-1.4,1.8-1.6,4.5,0.9,5.5C85.7,76.3,86.3,73.3,83.6,72.6z M84.4,88.9
	c-0.3-0.1-0.6-0.2-0.9-0.3c-1.4,1.9-1.6,4.6,1,5.5C85.4,92.7,86.2,90,84.4,88.9z M84.4,88.9c-0.3-0.1-0.6-0.2-0.9-0.3
	c-1.4,1.9-1.6,4.6,1,5.5C85.4,92.7,86.2,90,84.4,88.9z M83.6,72.6c-1.4,1.8-1.6,4.5,0.9,5.5C85.7,76.3,86.3,73.3,83.6,72.6z
	 M84.8,96.9c-0.6-0.2-0.9-0.3-1.5-0.3c-0.8,2-1.4,4.8,1.4,5.4C85.4,100.4,85.9,98.6,84.8,96.9z M83.2,80.7c-0.5,1.7-1.4,4.5,1.1,5
	c0.2,0,0.4,0.1,0.6,0.1C85.5,83.7,86.4,80.9,83.2,80.7z M85.3,65.9c-0.2-0.5-0.6-0.9-1.1-1.1c-0.2-0.1-0.6-0.2-0.8-0.2
	c-0.5,1.1-1.1,2.5-0.6,3.8c0.2,0.6,0.6,1.1,1.2,1.3c0.2,0.1,0.6,0.2,0.8,0.2C85.2,68.8,85.8,67.2,85.3,65.9z M91.1,96.9
	c-0.3,1.2-0.8,3.1-0.2,4.3c0.3,0.4,0.7,0.7,1.2,0.8c0.2,0,0.5,0.1,0.7,0.1C93.3,99.7,94.4,97.2,91.1,96.9z M91.4,64.9l-0.2,0l-0.1,0
	c-0.6,1.4-1.2,4.3,0.7,5c0.3,0.1,0.7,0.1,0.9,0.2C93.3,68.1,94.3,65.2,91.4,64.9z M91.1,80.8c-0.3,1.2-0.9,3.1-0.2,4.2
	c0.3,0.4,0.7,0.7,1.2,0.8c0.2,0.1,0.5,0.1,0.7,0.1C93.3,83.9,94.3,80.8,91.1,80.8z M91.3,88.7c-1.2,1.9-1.4,4.7,1.3,5.3
	c0.3-0.2,0.5-1.5,0.6-2C93.6,90.2,93.3,89,91.3,88.7z M91.3,72.7c-1.2,1.9-1.4,4.6,1.3,5.3c0.4-0.3,0.6-2.1,0.7-2.6
	C93.5,73.9,92.9,72.8,91.3,72.7z M99.6,88.6c-1,1.4-1.6,3.8-0.1,5.1c0.2,0.1,0.7,0.3,0.9,0.4C101.7,92.4,102.3,89.2,99.6,88.6z
	 M99.6,72.6c-0.4,0.6-0.6,1-0.8,1.7c-0.4,1.4,0,3.5,1.8,3.8C101.6,76.4,102.3,73.1,99.6,72.6z M99.1,96.9c-0.4,1.7-1.2,4.5,1.1,5.1
	c0.2,0,0.3,0.1,0.5,0l0.1-0.1C101.6,99.7,102.4,97.1,99.1,96.9z M100.8,65.1c-0.7-0.2-0.9-0.2-1.6-0.2c-0.4,1.1-0.9,2.9-0.3,4
	c0.2,0.5,0.6,0.9,1.2,1c0.2,0.1,0.5,0.1,0.8,0.2C101.4,68.4,101.9,66.8,100.8,65.1z M100.8,81.1c-0.7-0.2-0.9-0.3-1.7-0.2
	c-0.4,1.6-1.2,4.6,1,5c0.2,0,0.4,0.1,0.7,0C101.5,84.3,101.8,82.6,100.8,81.1z M100.8,81.1c-0.7-0.2-0.9-0.3-1.7-0.2
	c-0.4,1.6-1.2,4.6,1,5c0.2,0,0.4,0.1,0.7,0C101.5,84.3,101.8,82.6,100.8,81.1z M100.8,65.1c-0.7-0.2-0.9-0.2-1.6-0.2
	c-0.4,1.1-0.9,2.9-0.3,4c0.2,0.5,0.6,0.9,1.2,1c0.2,0.1,0.5,0.1,0.8,0.2C101.4,68.4,101.9,66.8,100.8,65.1z M99.1,96.9
	c-0.4,1.7-1.2,4.5,1.1,5.1c0.2,0,0.3,0.1,0.5,0l0.1-0.1C101.6,99.7,102.4,97.1,99.1,96.9z M99.6,72.6c-0.4,0.6-0.6,1-0.8,1.7
	c-0.4,1.4,0,3.5,1.8,3.8C101.6,76.4,102.3,73.1,99.6,72.6z M99.6,88.6c-1,1.4-1.6,3.8-0.1,5.1c0.2,0.1,0.7,0.3,0.9,0.4
	C101.7,92.4,102.3,89.2,99.6,88.6z M91.3,72.7c-1.2,1.9-1.4,4.6,1.3,5.3c0.4-0.3,0.6-2.1,0.7-2.6C93.5,73.9,92.9,72.8,91.3,72.7z
	 M91.3,88.7c-1.2,1.9-1.4,4.7,1.3,5.3c0.3-0.2,0.5-1.5,0.6-2C93.6,90.2,93.3,89,91.3,88.7z M91.1,80.8c-0.3,1.2-0.9,3.1-0.2,4.2
	c0.3,0.4,0.7,0.7,1.2,0.8c0.2,0.1,0.5,0.1,0.7,0.1C93.3,83.9,94.3,80.8,91.1,80.8z M91.4,64.9l-0.2,0l-0.1,0c-0.6,1.4-1.2,4.3,0.7,5
	c0.3,0.1,0.7,0.1,0.9,0.2C93.3,68.1,94.3,65.2,91.4,64.9z M91.1,96.9c-0.3,1.2-0.8,3.1-0.2,4.3c0.3,0.4,0.7,0.7,1.2,0.8
	c0.2,0,0.5,0.1,0.7,0.1C93.3,99.7,94.4,97.2,91.1,96.9z M85.3,65.9c-0.2-0.5-0.6-0.9-1.1-1.1c-0.2-0.1-0.6-0.2-0.8-0.2
	c-0.5,1.1-1.1,2.5-0.6,3.8c0.2,0.6,0.6,1.1,1.2,1.3c0.2,0.1,0.6,0.2,0.8,0.2C85.2,68.8,85.8,67.2,85.3,65.9z M83.2,80.7
	c-0.5,1.7-1.4,4.5,1.1,5c0.2,0,0.4,0.1,0.6,0.1C85.5,83.7,86.4,80.9,83.2,80.7z M84.8,96.9c-0.6-0.2-0.9-0.3-1.5-0.3
	c-0.8,2-1.4,4.8,1.4,5.4C85.4,100.4,85.9,98.6,84.8,96.9z M83.6,72.6c-1.4,1.8-1.6,4.5,0.9,5.5C85.7,76.3,86.3,73.3,83.6,72.6z
	 M84.4,88.9c-0.3-0.1-0.6-0.2-0.9-0.3c-1.4,1.9-1.6,4.6,1,5.5C85.4,92.7,86.2,90,84.4,88.9z"/>
<path class="st1" d="M55.4,80.7c-2.8-0.7-2.3-3.4-1.2-5.3C57.1,76,56.3,78.7,55.4,80.7z"/>
<path class="st1" d="M54.2,43.3c2.7,0.7,2.2,3.5,1.1,5.3C52.5,48,53,45.2,54.2,43.3z"/>
<path class="st1" d="M55.4,72.7c-2.8-0.6-2.4-3.4-1.2-5.3C57,68.1,56.4,70.8,55.4,72.7z"/>
<path class="st1" d="M55.4,88.8c-2.8-0.6-2.5-3.4-1.3-5.3C56.9,84.1,56.4,86.8,55.4,88.8z"/>
<path class="st1" d="M54.2,51.4c2.7,0.7,2.1,3.4,1.2,5.4C52.5,56.1,53,53.3,54.2,51.4z"/>
<path class="st1" d="M55.4,91.7c1.2,1.5,0.7,3.2,0.1,4.8c-0.3,0-0.6,0-0.8-0.1c-0.5-0.1-0.9-0.5-1.1-1c-0.6-1.2,0-2.9,0.4-4.1
	C54.6,91.5,54.9,91.5,55.4,91.7z"/>
<path class="st1" d="M54.2,59.3c0.6,0.1,0.8,0.2,1.3,0.4c1.1,1.6,0.6,3.3-0.1,4.9C52.6,64.5,53.1,61,54.2,59.3z"/>
<path class="st1" d="M55.5,99.9c1.1,1.6,0.5,3.2-0.1,4.9c-2.8-0.6-2.4-3.5-1.2-5.4C54.7,99.6,55,99.7,55.5,99.9z"/>
<path class="st1" d="M63.4,72.6c-0.3,0-0.8,0-1.1-0.2c-1.7-1.1-1-3.8-0.2-5.1C64.9,68.2,64.2,70.6,63.4,72.6z"/>
<path class="st1" d="M63.4,88.7l-1.1-0.1C60.8,87,61,85,62.1,83.3C64.8,84.2,64.3,86.5,63.4,88.7z"/>
<path class="st1" d="M63.4,56.7l-1.1-0.1C60.9,55,61,53,62.1,51.3C64.8,52.1,64.3,54.7,63.4,56.7z"/>
<path class="st1" d="M61.5,63.4c-0.5-1.2,0-2.9,0.4-4.1c0.1,0,0.2,0.1,0.4,0.1c2.7,0.6,1.8,3.2,1.3,5.1c-0.3,0-0.8,0-1.1-0.2
	C62,64.2,61.6,63.9,61.5,63.4z"/>
<path class="st1" d="M63.5,96.5c-0.3,0-0.7,0-1-0.1c-2-0.7-1.1-3.6-0.6-5c0.2,0,0.4,0.1,0.6,0.1C64.9,92,64,94.8,63.5,96.5z"/>
<path class="st1" d="M61.9,75.3c3.1,0.6,2.3,2.9,1.7,5.1c-0.3,0-0.7,0-1-0.1c-0.5-0.2-0.8-0.5-1-0.9C60.9,78.3,61.4,76.5,61.9,75.3z
	"/>
<path class="st1" d="M61.5,47.5c-0.6-1.2,0-3,0.4-4.1l0.1,0c2.9,0.6,2.1,3.1,1.5,5.2c-0.3,0-0.7,0-1-0.1
	C62.1,48.2,61.7,47.9,61.5,47.5z"/>
<path class="st1" d="M71.4,80.6c-0.9,0.1-1.7-0.5-1.9-1.3c-0.4-1.4-0.1-2.6,0.6-3.9C73,75.9,72.3,78.6,71.4,80.6z"/>
<path class="st1" d="M71.4,72.8c-0.6-0.1-0.8-0.2-1.3-0.4c-1.2-1.5-0.8-3.5,0.1-5C73,68.2,72.3,70.7,71.4,72.8z"/>
<path class="st1" d="M70.1,83.4c2.9,0.5,2.1,3.4,1.3,5.4c-1.1-0.2-1.7-0.5-2-1.6C69.1,85.8,69.4,84.6,70.1,83.4z"/>
<path class="st1" d="M71.5,96.5c-0.3,0-0.6,0-0.9-0.1c-0.5-0.1-0.8-0.5-1.1-0.9c-0.6-1.2-0.1-3,0.3-4.2C73,91.9,72.3,94.3,71.5,96.5
	z"/>
<path class="st1" d="M71.5,64.5c-3,0.6-2.2-3.5-1.7-5.1C73.1,59.6,72.2,62.4,71.5,64.5z"/>
<path class="st1" d="M70.1,51.4c0.6,0.1,1,0.3,1.5,0.6c1,1.6,0.6,3.3-0.1,4.8C68.5,56.1,69,53.3,70.1,51.4z"/>
<path class="st1" d="M69.6,44.3c0.1-0.3,0.2-0.6,0.4-1c0.8,0.1,1.6,0.2,1.9,1.1c0.6,1.3,0.1,2.8-0.3,4.1c-0.2,0-0.9,0-1.1-0.1
	C69,47.8,69.2,45.6,69.6,44.3z"/>
<path class="st1" d="M77.5,47.5c-0.6-1.2,0-3,0.4-4.2c0.1,0,0.2,0,0.3,0.1c2.7,0.6,1.8,3.2,1.3,5.1c-0.3,0-0.7,0-1-0.1
	C78.1,48.3,77.7,47.9,77.5,47.5z"/>
<path class="st1" d="M79.5,56.6c-0.3,0-0.7,0-0.9-0.1c-0.5-0.2-0.9-0.5-1.1-1c-0.6-1.2,0-2.9,0.4-4.1C81,52,80.1,54.3,79.5,56.6z"/>
<path class="st0" d="M71.5,56.8c-2.9-0.6-2.5-3.4-1.3-5.4c0.6,0.1,1,0.3,1.5,0.6C72.6,53.5,72.2,55.2,71.5,56.8z"/>
<path class="st0" d="M71.6,48.5c-0.2,0-0.9,0-1.1-0.1c-1.5-0.7-1.2-2.8-0.9-4.1c0.1-0.3,0.2-0.6,0.4-1c0.8,0.1,1.6,0.2,1.9,1.1
	C72.5,45.8,72,47.3,71.6,48.5z"/>
<path class="st0" d="M71.5,64.5c-3,0.6-2.2-3.5-1.7-5.1C73.1,59.6,72.2,62.4,71.5,64.5z"/>
<path class="st0" d="M71.4,88.8c-1.1-0.2-1.7-0.5-2-1.6c-0.3-1.3,0-2.6,0.7-3.8C73.1,83.9,72.2,86.8,71.4,88.8z"/>
<path class="st0" d="M71.4,72.8c-0.6-0.1-0.8-0.2-1.3-0.4c-1.2-1.5-0.8-3.5,0.1-5C73,68.2,72.3,70.7,71.4,72.8z"/>
<path class="st0" d="M71.4,80.6c-0.9,0.1-1.7-0.5-1.9-1.3c-0.4-1.4-0.1-2.6,0.6-3.9C73,75.9,72.3,78.6,71.4,80.6z"/>
<path class="st0" d="M55.4,88.8c-2.8-0.6-2.5-3.4-1.3-5.3C56.9,84.1,56.4,86.8,55.4,88.8z"/>
<path class="st0" d="M55.4,56.7c-2.9-0.6-2.4-3.4-1.2-5.4C56.9,52.1,56.3,54.8,55.4,56.7z"/>
<path class="st0" d="M71.5,96.5c-0.3,0-0.6,0-0.9-0.1c-0.5-0.1-0.8-0.5-1.1-0.9c-0.6-1.2-0.1-3,0.3-4.2C73,91.9,72.3,94.3,71.5,96.5
	z"/>
<path class="st0" d="M55.4,64.6c-2.8-0.1-2.2-3.6-1.2-5.3c0.6,0.1,0.8,0.2,1.3,0.4C56.6,61.3,56.1,63,55.4,64.6z"/>
<path class="st0" d="M55.4,104.8c-2.8-0.6-2.4-3.5-1.2-5.4c0.5,0.1,0.8,0.2,1.3,0.5C56.7,101.5,56,103.1,55.4,104.8z"/>
<path class="st0" d="M63.5,64.5c-0.3,0-0.8,0-1.1-0.2c-0.4-0.2-0.8-0.5-1-1c-0.5-1.2,0-2.9,0.4-4.1c0.1,0,0.2,0.1,0.4,0.1
	C65,60,64,62.6,63.5,64.5z"/>
<path class="st0" d="M63.5,96.5c-0.3,0-0.7,0-1-0.1c-2-0.7-1.1-3.6-0.6-5c0.2,0,0.4,0.1,0.6,0.1C64.9,92,64,94.8,63.5,96.5z"/>
<path class="st0" d="M55.4,72.7c-2.8-0.6-2.4-3.4-1.2-5.3C57,68.1,56.4,70.8,55.4,72.7z"/>
<path class="st0" d="M55.5,96.5c-0.3,0-0.6,0-0.8-0.1c-0.5-0.1-0.9-0.5-1.1-1c-0.6-1.2,0-2.9,0.4-4.1c0.6,0.1,0.9,0.1,1.5,0.3
	C56.6,93.2,56.1,94.9,55.5,96.5z"/>
<path class="st0" d="M55.4,80.7c-2.8-0.7-2.3-3.4-1.2-5.3C57.1,76,56.3,78.7,55.4,80.7z"/>
<path class="st0" d="M63.5,80.5c-0.3,0-0.7,0-1-0.1c-0.5-0.2-0.8-0.5-1-0.9c-0.5-1.2,0-3,0.4-4.1C65,75.9,64.1,78.2,63.5,80.5z"/>
<path class="st0" d="M63.5,48.5c-0.3,0-0.7,0-1-0.1c-0.5-0.1-0.8-0.5-1-0.9c-0.6-1.2,0-3,0.4-4.1l0.1,0C64.9,44,64.1,46.4,63.5,48.5
	z"/>
<path class="st0" d="M63.4,72.6c-0.3,0-0.8,0-1.1-0.2c-1.7-1.1-1-3.8-0.2-5.1C64.9,68.2,64.2,70.6,63.4,72.6z"/>
<path class="st0" d="M63.4,88.7l-1.1-0.1C60.8,87,61,85,62.1,83.3C64.8,84.2,64.3,86.5,63.4,88.7z"/>
<path class="st0" d="M55.3,48.7c-2.8-0.6-2.3-3.5-1.1-5.3C56.9,44.1,56.4,46.8,55.3,48.7z"/>
<path class="st0" d="M63.4,56.7l-1.1-0.1C60.9,55,61,53,62.1,51.3C64.8,52.1,64.3,54.7,63.4,56.7z"/>
<path class="st0" d="M79.5,48.5c-0.3,0-0.7,0-1-0.1c-0.5-0.1-0.8-0.5-1-0.9c-0.6-1.2,0-3,0.4-4.2c0.1,0,0.2,0,0.3,0.1
	C80.9,44,80,46.6,79.5,48.5z"/>
<path class="st0" d="M79.5,56.6c-0.3,0-0.7,0-0.9-0.1c-0.5-0.2-0.9-0.5-1.1-1c-0.6-1.2,0-2.9,0.4-4.1C81,52,80.1,54.3,79.5,56.6z"/>
<path class="st1" d="M84.5,94.1c-2.5-0.9-2.3-3.6-1-5.5c0.3,0,0.6,0.1,0.9,0.3C86.2,90,85.4,92.7,84.5,94.1z"/>
<path class="st1" d="M83.6,72.6c2.7,0.6,2.1,3.7,0.9,5.5C82,77.2,82.2,74.5,83.6,72.6z"/>
<path class="st1" d="M84.8,96.9c1.1,1.7,0.6,3.4-0.1,5.1c-2.8-0.6-2.2-3.5-1.4-5.4C83.9,96.7,84.2,96.8,84.8,96.9z"/>
<path class="st1" d="M83.2,80.7c3.2,0.2,2.4,3,1.7,5.2c-0.2,0-0.4-0.1-0.6-0.1C81.8,85.2,82.7,82.4,83.2,80.7z"/>
<path class="st1" d="M82.7,68.4c-0.4-1.3,0.1-2.7,0.6-3.8c0.2,0,0.6,0.1,0.8,0.2c0.5,0.2,0.9,0.6,1.1,1.1c0.5,1.2-0.1,2.9-0.5,4.1
	c-0.3-0.1-0.6-0.1-0.8-0.2C83.3,69.5,82.9,69,82.7,68.4z"/>
<path class="st1" d="M92.8,102c-0.2,0-0.5-0.1-0.7-0.1c-0.5-0.1-0.9-0.4-1.2-0.8c-0.7-1.1-0.2-3.1,0.2-4.3
	C94.4,97.2,93.3,99.7,92.8,102z"/>
<path class="st1" d="M91.1,64.9L91.1,64.9l0.2,0c3,0.3,1.9,3.2,1.4,5.1c-0.3,0-0.7-0.1-0.9-0.2C90,69.2,90.5,66.3,91.1,64.9z"/>
<path class="st1" d="M92.8,86c-0.2,0-0.5,0-0.7-0.1c-0.5-0.1-0.9-0.4-1.2-0.8c-0.7-1.1-0.2-3,0.2-4.2C94.3,80.8,93.3,83.9,92.8,86z"
	/>
<path class="st1" d="M91.3,88.7c2,0.4,2.2,1.5,1.9,3.4c-0.1,0.4-0.3,1.8-0.6,2C89.9,93.4,90.2,90.6,91.3,88.7z"/>
<path class="st1" d="M91.3,72.7c1.6,0.1,2.1,1.2,2,2.7c-0.1,0.5-0.3,2.3-0.7,2.6C89.9,77.3,90.1,74.6,91.3,72.7z"/>
<path class="st1" d="M99.5,93.7c-1.5-1.3-1-3.7,0.1-5.1c2.7,0.6,2.1,3.8,0.9,5.5C100.3,94,99.7,93.9,99.5,93.7z"/>
<path class="st1" d="M98.7,74.3c0.2-0.8,0.4-1.1,0.8-1.7c2.8,0.5,2,3.7,0.9,5.5C98.8,77.8,98.3,75.8,98.7,74.3z"/>
<path class="st1" d="M100.8,101.9L100.8,101.9c-0.2,0.2-0.4,0.1-0.6,0.1c-2.3-0.6-1.5-3.4-1.1-5.1
	C102.4,97.1,101.6,99.7,100.8,101.9z"/>
<path class="st1" d="M98.8,68.9c-0.5-1.1,0-2.9,0.3-4c0.7,0,0.9,0,1.6,0.2c1.1,1.6,0.6,3.2,0,5c-0.2,0-0.5-0.1-0.8-0.2
	C99.5,69.8,99.1,69.4,98.8,68.9z"/>
<path class="st1" d="M100.8,81.1c1.1,1.5,0.7,3.2,0,4.8c-0.2,0.1-0.4,0.1-0.7,0c-2.3-0.5-1.4-3.4-1-5
	C99.9,80.8,100.1,80.8,100.8,81.1z"/>
<path class="st0" d="M84.6,102c-2.8-0.6-2.2-3.5-1.4-5.4c0.6,0,0.9,0.1,1.5,0.3C85.9,98.6,85.4,100.4,84.6,102z"/>
<path class="st0" d="M100.5,94.1c-0.2-0.1-0.8-0.3-0.9-0.4c-1.5-1.3-1-3.7,0.1-5.1C102.3,89.2,101.7,92.4,100.5,94.1z"/>
<path class="st0" d="M84.5,94.1c-2.5-0.9-2.3-3.6-1-5.5c0.3,0,0.6,0.1,0.9,0.3C86.2,90,85.4,92.7,84.5,94.1z"/>
<path class="st0" d="M100.5,78.1c-1.7-0.3-2.2-2.3-1.8-3.8c0.2-0.8,0.4-1.1,0.8-1.7C102.3,73.1,101.6,76.4,100.5,78.1z"/>
<path class="st0" d="M84.5,78.1c-2.5-0.9-2.3-3.6-0.9-5.5C86.3,73.3,85.7,76.3,84.5,78.1z"/>
<path class="st0" d="M84.7,70c-0.3-0.1-0.6-0.1-0.8-0.2c-0.6-0.3-1-0.8-1.2-1.3c-0.4-1.3,0.1-2.7,0.6-3.8c0.2,0,0.6,0.1,0.8,0.2
	c0.5,0.2,0.9,0.6,1.1,1.1C85.8,67.2,85.2,68.8,84.7,70z"/>
<path class="st0" d="M100.8,85.9c-0.2,0.1-0.4,0.1-0.7,0c-2.3-0.5-1.4-3.4-1-5c0.8,0,1,0,1.7,0.2C101.8,82.6,101.5,84.3,100.8,85.9z
	"/>
<path class="st0" d="M84.9,85.9c-0.2,0-0.4-0.1-0.6-0.1c-2.5-0.5-1.6-3.4-1.1-5C86.4,80.9,85.5,83.7,84.9,85.9z"/>
<path class="st0" d="M100.8,70.1c-0.2,0-0.5-0.1-0.8-0.2c-0.5-0.2-0.9-0.5-1.2-1c-0.5-1.1,0-2.9,0.3-4c0.7,0,0.9,0,1.6,0.2
	C101.9,66.8,101.4,68.4,100.8,70.1z"/>
<path class="st0" d="M100.8,101.9L100.8,101.9c-0.2,0.2-0.4,0.1-0.6,0.1c-2.3-0.6-1.5-3.4-1.1-5.1
	C102.4,97.1,101.6,99.7,100.8,101.9z"/>
<path class="st0" d="M93.3,92c-0.1,0.4-0.3,1.8-0.6,2c-2.7-0.6-2.5-3.4-1.3-5.3C93.3,89,93.6,90.2,93.3,92z"/>
<path class="st0" d="M93.3,75.4c-0.1,0.5-0.3,2.3-0.7,2.6c-2.7-0.7-2.5-3.3-1.3-5.3C92.9,72.8,93.5,73.9,93.3,75.4z"/>
<path class="st0" d="M92.8,86c-0.2,0-0.5,0-0.7-0.1c-0.5-0.1-0.9-0.4-1.2-0.8c-0.7-1.1-0.2-3,0.2-4.2C94.3,80.8,93.3,83.9,92.8,86z"
	/>
<path class="st0" d="M92.8,102c-0.2,0-0.5-0.1-0.7-0.1c-0.5-0.1-0.9-0.4-1.2-0.8c-0.7-1.1-0.2-3.1,0.2-4.3
	C94.4,97.2,93.3,99.7,92.8,102z"/>
<path class="st0" d="M92.8,70c-0.3,0-0.7-0.1-0.9-0.2c-1.9-0.7-1.3-3.6-0.7-5l0.1,0l0.2,0C94.3,65.2,93.3,68.1,92.8,70z"/>
</svg>
