<?xml version="1.0" encoding="utf-8"?>
<!-- Generator: Adobe Illustrator 26.0.0, SVG Export Plug-In . SVG Version: 6.00 Build 0)  -->
<svg version="1.1" id="Calque_1" xmlns="http://www.w3.org/2000/svg" xmlns:xlink="http://www.w3.org/1999/xlink" x="0px" y="0px"
	 viewBox="0 0 160 160" style="enable-background:new 0 0 160 160;" xml:space="preserve">
<style type="text/css">
	.st0{fill:#FEFEFE;}
	.st1{fill:#5F5DAD;}
</style>
<path class="st0" d="M85,59.1c-0.9-2.8-3.8-4.3-6.6-3.5c-1.8,0.6-3.2,2.1-3.6,3.9c-0.4,1.9,0.2,3.8,1.6,5.1c1.4,1.3,3.4,1.7,5.2,1.1
	C84.4,64.9,85.9,61.9,85,59.1z M80.9,63c-1.3,0.5-2.8-0.1-3.3-1.4c-0.6-1.3,0-2.8,1.2-3.4c0.9-0.4,1.9-0.3,2.6,0.2
	c0.8,0.5,1.2,1.5,1.1,2.4C82.4,61.8,81.8,62.6,80.9,63z M85,59.1c-0.9-2.8-3.8-4.3-6.6-3.5c-1.8,0.6-3.2,2.1-3.6,3.9
	c-0.4,1.9,0.2,3.8,1.6,5.1c1.4,1.3,3.4,1.7,5.2,1.1C84.4,64.9,85.9,61.9,85,59.1z M80.9,63c-1.3,0.5-2.8-0.1-3.3-1.4
	c-0.6-1.3,0-2.8,1.2-3.4c0.9-0.4,1.9-0.3,2.6,0.2c0.8,0.5,1.2,1.5,1.1,2.4C82.4,61.8,81.8,62.6,80.9,63z M75.8,87.3
	c-1.6-0.3-4.2-0.1-6,0c-0.8,1.5-0.5,5.9-0.3,7.7c2.5,0.1,4.8,0.1,7.3,0C77.4,93.6,78,87.7,75.8,87.3z M74.4,92.5
	c-1.1,0.2-1.5,0.4-2.3-0.4c-0.2-0.8,0-1.7,0.1-2.5c1.4,0.2,2.2,0.1,2.7,1.5C74.9,91.8,74.8,92,74.4,92.5z M77.2,75.6
	c-2.5-0.5-4.7-0.4-7.2-0.3c-1.1,1.3-0.5,5.8-0.4,7.6c2.6,0.1,4.3,0.2,6.9,0.1C77.8,82.1,77.2,77.2,77.2,75.6z M85,59.1
	c-0.9-2.8-3.8-4.3-6.6-3.5c-1.8,0.6-3.2,2.1-3.6,3.9c-0.4,1.9,0.2,3.8,1.6,5.1c1.4,1.3,3.4,1.7,5.2,1.1C84.4,64.9,85.9,61.9,85,59.1
	z M80.9,63c-1.3,0.5-2.8-0.1-3.3-1.4c-0.6-1.3,0-2.8,1.2-3.4c0.9-0.4,1.9-0.3,2.6,0.2c0.8,0.5,1.2,1.5,1.1,2.4
	C82.4,61.8,81.8,62.6,80.9,63z M90.3,87.3c-2.1-0.1-5.1-0.2-7.2,0c-0.9,1.8-0.5,5.6-0.2,7.6c2.5,0.1,4.7,0.1,7.3,0
	C90.7,92.8,90.5,89.6,90.3,87.3z M87.2,92.9c-0.7,0-1.1,0-1.6-0.4c-0.8-1.5-0.7-2.1,0.9-2.8C88.4,90,88.7,91.9,87.2,92.9z
	 M90.3,75.5c-2.3-0.3-4.7-0.3-7-0.2c-1.2,1.4-0.7,5.7-0.5,7.6c2.5,0.2,4.2,0.2,6.7,0.1C91.1,82.2,90.4,77.2,90.3,75.5z M90.3,75.5
	c-2.3-0.3-4.7-0.3-7-0.2c-1.2,1.4-0.7,5.7-0.5,7.6c2.5,0.2,4.2,0.2,6.7,0.1C91.1,82.2,90.4,77.2,90.3,75.5z M90.3,87.3
	c-2.1-0.1-5.1-0.2-7.2,0c-0.9,1.8-0.5,5.6-0.2,7.6c2.5,0.1,4.7,0.1,7.3,0C90.7,92.8,90.5,89.6,90.3,87.3z M87.2,92.9
	c-0.7,0-1.1,0-1.6-0.4c-0.8-1.5-0.7-2.1,0.9-2.8C88.4,90,88.7,91.9,87.2,92.9z M77.2,75.6c-2.5-0.5-4.7-0.4-7.2-0.3
	c-1.1,1.3-0.5,5.8-0.4,7.6c2.6,0.1,4.3,0.2,6.9,0.1C77.8,82.1,77.2,77.2,77.2,75.6z M75.8,87.3c-1.6-0.3-4.2-0.1-6,0
	c-0.8,1.5-0.5,5.9-0.3,7.7c2.5,0.1,4.8,0.1,7.3,0C77.4,93.6,78,87.7,75.8,87.3z M74.4,92.5c-1.1,0.2-1.5,0.4-2.3-0.4
	c-0.2-0.8,0-1.7,0.1-2.5c1.4,0.2,2.2,0.1,2.7,1.5C74.9,91.8,74.8,92,74.4,92.5z M85,59.1c-0.9-2.8-3.8-4.3-6.6-3.5
	c-1.8,0.6-3.2,2.1-3.6,3.9c-0.4,1.9,0.2,3.8,1.6,5.1c1.4,1.3,3.4,1.7,5.2,1.1C84.4,64.9,85.9,61.9,85,59.1z M80.9,63
	c-1.3,0.5-2.8-0.1-3.3-1.4c-0.6-1.3,0-2.8,1.2-3.4c0.9-0.4,1.9-0.3,2.6,0.2c0.8,0.5,1.2,1.5,1.1,2.4C82.4,61.8,81.8,62.6,80.9,63z
	 M75.8,87.3c-1.6-0.3-4.2-0.1-6,0c-0.8,1.5-0.5,5.9-0.3,7.7c2.5,0.1,4.8,0.1,7.3,0C77.4,93.6,78,87.7,75.8,87.3z M74.4,92.5
	c-1.1,0.2-1.5,0.4-2.3-0.4c-0.2-0.8,0-1.7,0.1-2.5c1.4,0.2,2.2,0.1,2.7,1.5C74.9,91.8,74.8,92,74.4,92.5z M77.2,75.6
	c-2.5-0.5-4.7-0.4-7.2-0.3c-1.1,1.3-0.5,5.8-0.4,7.6c2.6,0.1,4.3,0.2,6.9,0.1C77.8,82.1,77.2,77.2,77.2,75.6z M85,59.1
	c-0.9-2.8-3.8-4.3-6.6-3.5c-1.8,0.6-3.2,2.1-3.6,3.9c-0.4,1.9,0.2,3.8,1.6,5.1c1.4,1.3,3.4,1.7,5.2,1.1C84.4,64.9,85.9,61.9,85,59.1
	z M80.9,63c-1.3,0.5-2.8-0.1-3.3-1.4c-0.6-1.3,0-2.8,1.2-3.4c0.9-0.4,1.9-0.3,2.6,0.2c0.8,0.5,1.2,1.5,1.1,2.4
	C82.4,61.8,81.8,62.6,80.9,63z M90.3,87.3c-2.1-0.1-5.1-0.2-7.2,0c-0.9,1.8-0.5,5.6-0.2,7.6c2.5,0.1,4.7,0.1,7.3,0
	C90.7,92.8,90.5,89.6,90.3,87.3z M87.2,92.9c-0.7,0-1.1,0-1.6-0.4c-0.8-1.5-0.7-2.1,0.9-2.8C88.4,90,88.7,91.9,87.2,92.9z
	 M90.3,75.5c-2.3-0.3-4.7-0.3-7-0.2c-1.2,1.4-0.7,5.7-0.5,7.6c2.5,0.2,4.2,0.2,6.7,0.1C91.1,82.2,90.4,77.2,90.3,75.5z M90.3,75.5
	c-2.3-0.3-4.7-0.3-7-0.2c-1.2,1.4-0.7,5.7-0.5,7.6c2.5,0.2,4.2,0.2,6.7,0.1C91.1,82.2,90.4,77.2,90.3,75.5z M90.3,87.3
	c-2.1-0.1-5.1-0.2-7.2,0c-0.9,1.8-0.5,5.6-0.2,7.6c2.5,0.1,4.7,0.1,7.3,0C90.7,92.8,90.5,89.6,90.3,87.3z M87.2,92.9
	c-0.7,0-1.1,0-1.6-0.4c-0.8-1.5-0.7-2.1,0.9-2.8C88.4,90,88.7,91.9,87.2,92.9z M77.2,75.6c-2.5-0.5-4.7-0.4-7.2-0.3
	c-1.1,1.3-0.5,5.8-0.4,7.6c2.6,0.1,4.3,0.2,6.9,0.1C77.8,82.1,77.2,77.2,77.2,75.6z M75.8,87.3c-1.6-0.3-4.2-0.1-6,0
	c-0.8,1.5-0.5,5.9-0.3,7.7c2.5,0.1,4.8,0.1,7.3,0C77.4,93.6,78,87.7,75.8,87.3z M74.4,92.5c-1.1,0.2-1.5,0.4-2.3-0.4
	c-0.2-0.8,0-1.7,0.1-2.5c1.4,0.2,2.2,0.1,2.7,1.5C74.9,91.8,74.8,92,74.4,92.5z M85,59.1c-0.9-2.8-3.8-4.3-6.6-3.5
	c-1.8,0.6-3.2,2.1-3.6,3.9c-0.4,1.9,0.2,3.8,1.6,5.1c1.4,1.3,3.4,1.7,5.2,1.1C84.4,64.9,85.9,61.9,85,59.1z M80.9,63
	c-1.3,0.5-2.8-0.1-3.3-1.4c-0.6-1.3,0-2.8,1.2-3.4c0.9-0.4,1.9-0.3,2.6,0.2c0.8,0.5,1.2,1.5,1.1,2.4C82.4,61.8,81.8,62.6,80.9,63z
	 M51.1,94.3c-1.1-0.5-4.5-0.3-5.9-0.2c-1,0.8-0.9,0.9-1.1,2.1c-0.9,6,1,6.2,6.6,5.6c0.3-0.1,0.7-0.1,0.9-0.4
	C52.2,100.2,52.5,94.9,51.1,94.3z M48.7,99.4l-1.3-0.2c-0.7-0.7-0.5-0.3-0.9-1.3c0.2-0.9,0.2-1.1,0.8-1.7c0.5,0,0.9,0.2,1.3,0.3
	c0.6,0.5,0.6,0.6,0.8,1.3C49.2,99,49.4,98.6,48.7,99.4z M49.4,104.7c-0.5,0-1,0-1.5,0c-1.1,0.1-2.6,0.1-3.6,0.2
	c-0.4,2.6-0.3,4.7-0.1,7.3l4.4,0.2c1,0,2.3-0.1,3.2-0.2C52,109.4,53.3,104.8,49.4,104.7z M61,88.9c-1.7-0.4-12.9-0.1-15.5-0.1
	c-0.1,0.8-0.2,1.5,0.2,2.2c1.4,0.6,13.3,0.3,15.5,0.3C61.2,90.4,61.4,89.5,61,88.9z M62.4,94.1c-2.4-0.1-4.3-0.1-6.7,0
	c-1.6,1.3-1,5.6-0.8,7.6c2.2,0.2,4.4,0.3,6.6,0.1C63.2,101,62.5,95.9,62.4,94.1z M59.9,98.7c-0.4,0.8-1,0.7-1.8,0.8
	c-1.2-0.6-1.2-2.3-0.1-3c0,0,1.2-0.2,1.3-0.2l0.3,0.1C60.2,97.2,60.4,97.7,59.9,98.7z M62.4,104.8c-0.8,0-3.4-0.2-4-0.1
	c-1.1,0-2.6,0.1-3.6,0.2c-0.1,2.3-0.1,5.1,0.1,7.4l4.8,0.2l2.7-0.2C62.5,109.7,62.6,107.3,62.4,104.8z M59.7,110
	c-0.6,0-1.1,0-1.7-0.1c-0.8-0.6-0.6-0.3-0.9-1.2c0.2-0.8,0.2-1.1,0.7-1.6c0.5,0,1,0,1.5,0c0.8,0.7,0.6,0.4,1,1.3
	C60.2,109.1,60.2,109.5,59.7,110z M75.8,87.3c-1.6-0.3-4.2-0.1-6,0c-0.8,1.5-0.5,5.9-0.3,7.7c2.5,0.1,4.8,0.1,7.3,0
	C77.4,93.6,78,87.7,75.8,87.3z M74.4,92.5c-1.1,0.2-1.5,0.4-2.3-0.4c-0.2-0.8,0-1.7,0.1-2.5c1.4,0.2,2.2,0.1,2.7,1.5
	C74.9,91.8,74.8,92,74.4,92.5z M77.2,75.6c-2.5-0.5-4.7-0.4-7.2-0.3c-1.1,1.3-0.5,5.8-0.4,7.6c2.6,0.1,4.3,0.2,6.9,0.1
	C77.8,82.1,77.2,77.2,77.2,75.6z M85,59.1c-0.9-2.8-3.8-4.3-6.6-3.5c-1.8,0.6-3.2,2.1-3.6,3.9c-0.4,1.9,0.2,3.8,1.6,5.1
	c1.4,1.3,3.4,1.7,5.2,1.1C84.4,64.9,85.9,61.9,85,59.1z M80.9,63c-1.3,0.5-2.8-0.1-3.3-1.4c-0.6-1.3,0-2.8,1.2-3.4
	c0.9-0.4,1.9-0.3,2.6,0.2c0.8,0.5,1.2,1.5,1.1,2.4C82.4,61.8,81.8,62.6,80.9,63z M90.3,87.3c-2.1-0.1-5.1-0.2-7.2,0
	c-0.9,1.8-0.5,5.6-0.2,7.6c2.5,0.1,4.7,0.1,7.3,0C90.7,92.8,90.5,89.6,90.3,87.3z M87.2,92.9c-0.7,0-1.1,0-1.6-0.4
	c-0.8-1.5-0.7-2.1,0.9-2.8C88.4,90,88.7,91.9,87.2,92.9z M90.3,75.5c-2.3-0.3-4.7-0.3-7-0.2c-1.2,1.4-0.7,5.7-0.5,7.6
	c2.5,0.2,4.2,0.2,6.7,0.1C91.1,82.2,90.4,77.2,90.3,75.5z M90.3,75.5c-2.3-0.3-4.7-0.3-7-0.2c-1.2,1.4-0.7,5.7-0.5,7.6
	c2.5,0.2,4.2,0.2,6.7,0.1C91.1,82.2,90.4,77.2,90.3,75.5z M90.3,87.3c-2.1-0.1-5.1-0.2-7.2,0c-0.9,1.8-0.5,5.6-0.2,7.6
	c2.5,0.1,4.7,0.1,7.3,0C90.7,92.8,90.5,89.6,90.3,87.3z M87.2,92.9c-0.7,0-1.1,0-1.6-0.4c-0.8-1.5-0.7-2.1,0.9-2.8
	C88.4,90,88.7,91.9,87.2,92.9z M77.2,75.6c-2.5-0.5-4.7-0.4-7.2-0.3c-1.1,1.3-0.5,5.8-0.4,7.6c2.6,0.1,4.3,0.2,6.9,0.1
	C77.8,82.1,77.2,77.2,77.2,75.6z M75.8,87.3c-1.6-0.3-4.2-0.1-6,0c-0.8,1.5-0.5,5.9-0.3,7.7c2.5,0.1,4.8,0.1,7.3,0
	C77.4,93.6,78,87.7,75.8,87.3z M74.4,92.5c-1.1,0.2-1.5,0.4-2.3-0.4c-0.2-0.8,0-1.7,0.1-2.5c1.4,0.2,2.2,0.1,2.7,1.5
	C74.9,91.8,74.8,92,74.4,92.5z M85,59.1c-0.9-2.8-3.8-4.3-6.6-3.5c-1.8,0.6-3.2,2.1-3.6,3.9c-0.4,1.9,0.2,3.8,1.6,5.1
	c1.4,1.3,3.4,1.7,5.2,1.1C84.4,64.9,85.9,61.9,85,59.1z M80.9,63c-1.3,0.5-2.8-0.1-3.3-1.4c-0.6-1.3,0-2.8,1.2-3.4
	c0.9-0.4,1.9-0.3,2.6,0.2c0.8,0.5,1.2,1.5,1.1,2.4C82.4,61.8,81.8,62.6,80.9,63z M62.4,104.8c-0.8,0-3.4-0.2-4-0.1
	c-1.1,0-2.6,0.1-3.6,0.2c-0.1,2.3-0.1,5.1,0.1,7.4l4.8,0.2l2.7-0.2C62.5,109.7,62.6,107.3,62.4,104.8z M59.7,110
	c-0.6,0-1.1,0-1.7-0.1c-0.8-0.6-0.6-0.3-0.9-1.2c0.2-0.8,0.2-1.1,0.7-1.6c0.5,0,1,0,1.5,0c0.8,0.7,0.6,0.4,1,1.3
	C60.2,109.1,60.2,109.5,59.7,110z M62.4,94.1c-2.4-0.1-4.3-0.1-6.7,0c-1.6,1.3-1,5.6-0.8,7.6c2.2,0.2,4.4,0.3,6.6,0.1
	C63.2,101,62.5,95.9,62.4,94.1z M59.9,98.7c-0.4,0.8-1,0.7-1.8,0.8c-1.2-0.6-1.2-2.3-0.1-3c0,0,1.2-0.2,1.3-0.2l0.3,0.1
	C60.2,97.2,60.4,97.7,59.9,98.7z M61,88.9c-1.7-0.4-12.9-0.1-15.5-0.1c-0.1,0.8-0.2,1.5,0.2,2.2c1.4,0.6,13.3,0.3,15.5,0.3
	C61.2,90.4,61.4,89.5,61,88.9z M49.4,104.7c-0.5,0-1,0-1.5,0c-1.1,0.1-2.6,0.1-3.6,0.2c-0.4,2.6-0.3,4.7-0.1,7.3l4.4,0.2
	c1,0,2.3-0.1,3.2-0.2C52,109.4,53.3,104.8,49.4,104.7z M51.1,94.3c-1.1-0.5-4.5-0.3-5.9-0.2c-1,0.8-0.9,0.9-1.1,2.1
	c-0.9,6,1,6.2,6.6,5.6c0.3-0.1,0.7-0.1,0.9-0.4C52.2,100.2,52.5,94.9,51.1,94.3z M48.7,99.4l-1.3-0.2c-0.7-0.7-0.5-0.3-0.9-1.3
	c0.2-0.9,0.2-1.1,0.8-1.7c0.5,0,0.9,0.2,1.3,0.3c0.6,0.5,0.6,0.6,0.8,1.3C49.2,99,49.4,98.6,48.7,99.4z M51.1,94.3
	c-1.1-0.5-4.5-0.3-5.9-0.2c-1,0.8-0.9,0.9-1.1,2.1c-0.9,6,1,6.2,6.6,5.6c0.3-0.1,0.7-0.1,0.9-0.4C52.2,100.2,52.5,94.9,51.1,94.3z
	 M48.7,99.4l-1.3-0.2c-0.7-0.7-0.5-0.3-0.9-1.3c0.2-0.9,0.2-1.1,0.8-1.7c0.5,0,0.9,0.2,1.3,0.3c0.6,0.5,0.6,0.6,0.8,1.3
	C49.2,99,49.4,98.6,48.7,99.4z M49.4,104.7c-0.5,0-1,0-1.5,0c-1.1,0.1-2.6,0.1-3.6,0.2c-0.4,2.6-0.3,4.7-0.1,7.3l4.4,0.2
	c1,0,2.3-0.1,3.2-0.2C52,109.4,53.3,104.8,49.4,104.7z M61,88.9c-1.7-0.4-12.9-0.1-15.5-0.1c-0.1,0.8-0.2,1.5,0.2,2.2
	c1.4,0.6,13.3,0.3,15.5,0.3C61.2,90.4,61.4,89.5,61,88.9z M62.4,94.1c-2.4-0.1-4.3-0.1-6.7,0c-1.6,1.3-1,5.6-0.8,7.6
	c2.2,0.2,4.4,0.3,6.6,0.1C63.2,101,62.5,95.9,62.4,94.1z M59.9,98.7c-0.4,0.8-1,0.7-1.8,0.8c-1.2-0.6-1.2-2.3-0.1-3
	c0,0,1.2-0.2,1.3-0.2l0.3,0.1C60.2,97.2,60.4,97.7,59.9,98.7z M62.4,104.8c-0.8,0-3.4-0.2-4-0.1c-1.1,0-2.6,0.1-3.6,0.2
	c-0.1,2.3-0.1,5.1,0.1,7.4l4.8,0.2l2.7-0.2C62.5,109.7,62.6,107.3,62.4,104.8z M59.7,110c-0.6,0-1.1,0-1.7-0.1
	c-0.8-0.6-0.6-0.3-0.9-1.2c0.2-0.8,0.2-1.1,0.7-1.6c0.5,0,1,0,1.5,0c0.8,0.7,0.6,0.4,1,1.3C60.2,109.1,60.2,109.5,59.7,110z
	 M75.8,87.3c-1.6-0.3-4.2-0.1-6,0c-0.8,1.5-0.5,5.9-0.3,7.7c2.5,0.1,4.8,0.1,7.3,0C77.4,93.6,78,87.7,75.8,87.3z M74.4,92.5
	c-1.1,0.2-1.5,0.4-2.3-0.4c-0.2-0.8,0-1.7,0.1-2.5c1.4,0.2,2.2,0.1,2.7,1.5C74.9,91.8,74.8,92,74.4,92.5z M77.2,75.6
	c-2.5-0.5-4.7-0.4-7.2-0.3c-1.1,1.3-0.5,5.8-0.4,7.6c2.6,0.1,4.3,0.2,6.9,0.1C77.8,82.1,77.2,77.2,77.2,75.6z M85,59.1
	c-0.9-2.8-3.8-4.3-6.6-3.5c-1.8,0.6-3.2,2.1-3.6,3.9c-0.4,1.9,0.2,3.8,1.6,5.1c1.4,1.3,3.4,1.7,5.2,1.1C84.4,64.9,85.9,61.9,85,59.1
	z M80.9,63c-1.3,0.5-2.8-0.1-3.3-1.4c-0.6-1.3,0-2.8,1.2-3.4c0.9-0.4,1.9-0.3,2.6,0.2c0.8,0.5,1.2,1.5,1.1,2.4
	C82.4,61.8,81.8,62.6,80.9,63z M90.3,87.3c-2.1-0.1-5.1-0.2-7.2,0c-0.9,1.8-0.5,5.6-0.2,7.6c2.5,0.1,4.7,0.1,7.3,0
	C90.7,92.8,90.5,89.6,90.3,87.3z M87.2,92.9c-0.7,0-1.1,0-1.6-0.4c-0.8-1.5-0.7-2.1,0.9-2.8C88.4,90,88.7,91.9,87.2,92.9z
	 M90.3,75.5c-2.3-0.3-4.7-0.3-7-0.2c-1.2,1.4-0.7,5.7-0.5,7.6c2.5,0.2,4.2,0.2,6.7,0.1C91.1,82.2,90.4,77.2,90.3,75.5z M90.3,75.5
	c-2.3-0.3-4.7-0.3-7-0.2c-1.2,1.4-0.7,5.7-0.5,7.6c2.5,0.2,4.2,0.2,6.7,0.1C91.1,82.2,90.4,77.2,90.3,75.5z M90.3,87.3
	c-2.1-0.1-5.1-0.2-7.2,0c-0.9,1.8-0.5,5.6-0.2,7.6c2.5,0.1,4.7,0.1,7.3,0C90.7,92.8,90.5,89.6,90.3,87.3z M87.2,92.9
	c-0.7,0-1.1,0-1.6-0.4c-0.8-1.5-0.7-2.1,0.9-2.8C88.4,90,88.7,91.9,87.2,92.9z M77.2,75.6c-2.5-0.5-4.7-0.4-7.2-0.3
	c-1.1,1.3-0.5,5.8-0.4,7.6c2.6,0.1,4.3,0.2,6.9,0.1C77.8,82.1,77.2,77.2,77.2,75.6z M75.8,87.3c-1.6-0.3-4.2-0.1-6,0
	c-0.8,1.5-0.5,5.9-0.3,7.7c2.5,0.1,4.8,0.1,7.3,0C77.4,93.6,78,87.7,75.8,87.3z M74.4,92.5c-1.1,0.2-1.5,0.4-2.3-0.4
	c-0.2-0.8,0-1.7,0.1-2.5c1.4,0.2,2.2,0.1,2.7,1.5C74.9,91.8,74.8,92,74.4,92.5z M85,59.1c-0.9-2.8-3.8-4.3-6.6-3.5
	c-1.8,0.6-3.2,2.1-3.6,3.9c-0.4,1.9,0.2,3.8,1.6,5.1c1.4,1.3,3.4,1.7,5.2,1.1C84.4,64.9,85.9,61.9,85,59.1z M80.9,63
	c-1.3,0.5-2.8-0.1-3.3-1.4c-0.6-1.3,0-2.8,1.2-3.4c0.9-0.4,1.9-0.3,2.6,0.2c0.8,0.5,1.2,1.5,1.1,2.4C82.4,61.8,81.8,62.6,80.9,63z
	 M62.4,104.8c-0.8,0-3.4-0.2-4-0.1c-1.1,0-2.6,0.1-3.6,0.2c-0.1,2.3-0.1,5.1,0.1,7.4l4.8,0.2l2.7-0.2
	C62.5,109.7,62.6,107.3,62.4,104.8z M59.7,110c-0.6,0-1.1,0-1.7-0.1c-0.8-0.6-0.6-0.3-0.9-1.2c0.2-0.8,0.2-1.1,0.7-1.6
	c0.5,0,1,0,1.5,0c0.8,0.7,0.6,0.4,1,1.3C60.2,109.1,60.2,109.5,59.7,110z M62.4,94.1c-2.4-0.1-4.3-0.1-6.7,0c-1.6,1.3-1,5.6-0.8,7.6
	c2.2,0.2,4.4,0.3,6.6,0.1C63.2,101,62.5,95.9,62.4,94.1z M59.9,98.7c-0.4,0.8-1,0.7-1.8,0.8c-1.2-0.6-1.2-2.3-0.1-3
	c0,0,1.2-0.2,1.3-0.2l0.3,0.1C60.2,97.2,60.4,97.7,59.9,98.7z M61,88.9c-1.7-0.4-12.9-0.1-15.5-0.1c-0.1,0.8-0.2,1.5,0.2,2.2
	c1.4,0.6,13.3,0.3,15.5,0.3C61.2,90.4,61.4,89.5,61,88.9z M49.4,104.7c-0.5,0-1,0-1.5,0c-1.1,0.1-2.6,0.1-3.6,0.2
	c-0.4,2.6-0.3,4.7-0.1,7.3l4.4,0.2c1,0,2.3-0.1,3.2-0.2C52,109.4,53.3,104.8,49.4,104.7z M51.1,94.3c-1.1-0.5-4.5-0.3-5.9-0.2
	c-1,0.8-0.9,0.9-1.1,2.1c-0.9,6,1,6.2,6.6,5.6c0.3-0.1,0.7-0.1,0.9-0.4C52.2,100.2,52.5,94.9,51.1,94.3z M48.7,99.4l-1.3-0.2
	c-0.7-0.7-0.5-0.3-0.9-1.3c0.2-0.9,0.2-1.1,0.8-1.7c0.5,0,0.9,0.2,1.3,0.3c0.6,0.5,0.6,0.6,0.8,1.3C49.2,99,49.4,98.6,48.7,99.4z
	 M51.1,94.3c-1.1-0.5-4.5-0.3-5.9-0.2c-1,0.8-0.9,0.9-1.1,2.1c-0.9,6,1,6.2,6.6,5.6c0.3-0.1,0.7-0.1,0.9-0.4
	C52.2,100.2,52.5,94.9,51.1,94.3z M48.7,99.4l-1.3-0.2c-0.7-0.7-0.5-0.3-0.9-1.3c0.2-0.9,0.2-1.1,0.8-1.7c0.5,0,0.9,0.2,1.3,0.3
	c0.6,0.5,0.6,0.6,0.8,1.3C49.2,99,49.4,98.6,48.7,99.4z M49.4,104.7c-0.5,0-1,0-1.5,0c-1.1,0.1-2.6,0.1-3.6,0.2
	c-0.4,2.6-0.3,4.7-0.1,7.3l4.4,0.2c1,0,2.3-0.1,3.2-0.2C52,109.4,53.3,104.8,49.4,104.7z M61,88.9c-1.7-0.4-12.9-0.1-15.5-0.1
	c-0.1,0.8-0.2,1.5,0.2,2.2c1.4,0.6,13.3,0.3,15.5,0.3C61.2,90.4,61.4,89.5,61,88.9z M62.4,94.1c-2.4-0.1-4.3-0.1-6.7,0
	c-1.6,1.3-1,5.6-0.8,7.6c2.2,0.2,4.4,0.3,6.6,0.1C63.2,101,62.5,95.9,62.4,94.1z M59.9,98.7c-0.4,0.8-1,0.7-1.8,0.8
	c-1.2-0.6-1.2-2.3-0.1-3c0,0,1.2-0.2,1.3-0.2l0.3,0.1C60.2,97.2,60.4,97.7,59.9,98.7z M62.4,104.8c-0.8,0-3.4-0.2-4-0.1
	c-1.1,0-2.6,0.1-3.6,0.2c-0.1,2.3-0.1,5.1,0.1,7.4l4.8,0.2l2.7-0.2C62.5,109.7,62.6,107.3,62.4,104.8z M59.7,110
	c-0.6,0-1.1,0-1.7-0.1c-0.8-0.6-0.6-0.3-0.9-1.2c0.2-0.8,0.2-1.1,0.7-1.6c0.5,0,1,0,1.5,0c0.8,0.7,0.6,0.4,1,1.3
	C60.2,109.1,60.2,109.5,59.7,110z M75.8,87.3c-1.6-0.3-4.2-0.1-6,0c-0.8,1.5-0.5,5.9-0.3,7.7c2.5,0.1,4.8,0.1,7.3,0
	C77.4,93.6,78,87.7,75.8,87.3z M74.4,92.5c-1.1,0.2-1.5,0.4-2.3-0.4c-0.2-0.8,0-1.7,0.1-2.5c1.4,0.2,2.2,0.1,2.7,1.5
	C74.9,91.8,74.8,92,74.4,92.5z M77.2,75.6c-2.5-0.5-4.7-0.4-7.2-0.3c-1.1,1.3-0.5,5.8-0.4,7.6c2.6,0.1,4.3,0.2,6.9,0.1
	C77.8,82.1,77.2,77.2,77.2,75.6z M85,59.1c-0.9-2.8-3.8-4.3-6.6-3.5c-1.8,0.6-3.2,2.1-3.6,3.9c-0.4,1.9,0.2,3.8,1.6,5.1
	c1.4,1.3,3.4,1.7,5.2,1.1C84.4,64.9,85.9,61.9,85,59.1z M80.9,63c-1.3,0.5-2.8-0.1-3.3-1.4c-0.6-1.3,0-2.8,1.2-3.4
	c0.9-0.4,1.9-0.3,2.6,0.2c0.8,0.5,1.2,1.5,1.1,2.4C82.4,61.8,81.8,62.6,80.9,63z M90.3,87.3c-2.1-0.1-5.1-0.2-7.2,0
	c-0.9,1.8-0.5,5.6-0.2,7.6c2.5,0.1,4.7,0.1,7.3,0C90.7,92.8,90.5,89.6,90.3,87.3z M87.2,92.9c-0.7,0-1.1,0-1.6-0.4
	c-0.8-1.5-0.7-2.1,0.9-2.8C88.4,90,88.7,91.9,87.2,92.9z M90.3,75.5c-2.3-0.3-4.7-0.3-7-0.2c-1.2,1.4-0.7,5.7-0.5,7.6
	c2.5,0.2,4.2,0.2,6.7,0.1C91.1,82.2,90.4,77.2,90.3,75.5z M90.3,75.5c-2.3-0.3-4.7-0.3-7-0.2c-1.2,1.4-0.7,5.7-0.5,7.6
	c2.5,0.2,4.2,0.2,6.7,0.1C91.1,82.2,90.4,77.2,90.3,75.5z M90.3,87.3c-2.1-0.1-5.1-0.2-7.2,0c-0.9,1.8-0.5,5.6-0.2,7.6
	c2.5,0.1,4.7,0.1,7.3,0C90.7,92.8,90.5,89.6,90.3,87.3z M87.2,92.9c-0.7,0-1.1,0-1.6-0.4c-0.8-1.5-0.7-2.1,0.9-2.8
	C88.4,90,88.7,91.9,87.2,92.9z M77.2,75.6c-2.5-0.5-4.7-0.4-7.2-0.3c-1.1,1.3-0.5,5.8-0.4,7.6c2.6,0.1,4.3,0.2,6.9,0.1
	C77.8,82.1,77.2,77.2,77.2,75.6z M75.8,87.3c-1.6-0.3-4.2-0.1-6,0c-0.8,1.5-0.5,5.9-0.3,7.7c2.5,0.1,4.8,0.1,7.3,0
	C77.4,93.6,78,87.7,75.8,87.3z M74.4,92.5c-1.1,0.2-1.5,0.4-2.3-0.4c-0.2-0.8,0-1.7,0.1-2.5c1.4,0.2,2.2,0.1,2.7,1.5
	C74.9,91.8,74.8,92,74.4,92.5z M85,59.1c-0.9-2.8-3.8-4.3-6.6-3.5c-1.8,0.6-3.2,2.1-3.6,3.9c-0.4,1.9,0.2,3.8,1.6,5.1
	c1.4,1.3,3.4,1.7,5.2,1.1C84.4,64.9,85.9,61.9,85,59.1z M80.9,63c-1.3,0.5-2.8-0.1-3.3-1.4c-0.6-1.3,0-2.8,1.2-3.4
	c0.9-0.4,1.9-0.3,2.6,0.2c0.8,0.5,1.2,1.5,1.1,2.4C82.4,61.8,81.8,62.6,80.9,63z M62.4,104.8c-0.8,0-3.4-0.2-4-0.1
	c-1.1,0-2.6,0.1-3.6,0.2c-0.1,2.3-0.1,5.1,0.1,7.4l4.8,0.2l2.7-0.2C62.5,109.7,62.6,107.3,62.4,104.8z M59.7,110
	c-0.6,0-1.1,0-1.7-0.1c-0.8-0.6-0.6-0.3-0.9-1.2c0.2-0.8,0.2-1.1,0.7-1.6c0.5,0,1,0,1.5,0c0.8,0.7,0.6,0.4,1,1.3
	C60.2,109.1,60.2,109.5,59.7,110z M62.4,94.1c-2.4-0.1-4.3-0.1-6.7,0c-1.6,1.3-1,5.6-0.8,7.6c2.2,0.2,4.4,0.3,6.6,0.1
	C63.2,101,62.5,95.9,62.4,94.1z M59.9,98.7c-0.4,0.8-1,0.7-1.8,0.8c-1.2-0.6-1.2-2.3-0.1-3c0,0,1.2-0.2,1.3-0.2l0.3,0.1
	C60.2,97.2,60.4,97.7,59.9,98.7z M61,88.9c-1.7-0.4-12.9-0.1-15.5-0.1c-0.1,0.8-0.2,1.5,0.2,2.2c1.4,0.6,13.3,0.3,15.5,0.3
	C61.2,90.4,61.4,89.5,61,88.9z M49.4,104.7c-0.5,0-1,0-1.5,0c-1.1,0.1-2.6,0.1-3.6,0.2c-0.4,2.6-0.3,4.7-0.1,7.3l4.4,0.2
	c1,0,2.3-0.1,3.2-0.2C52,109.4,53.3,104.8,49.4,104.7z M51.1,94.3c-1.1-0.5-4.5-0.3-5.9-0.2c-1,0.8-0.9,0.9-1.1,2.1
	c-0.9,6,1,6.2,6.6,5.6c0.3-0.1,0.7-0.1,0.9-0.4C52.2,100.2,52.5,94.9,51.1,94.3z M48.7,99.4l-1.3-0.2c-0.7-0.7-0.5-0.3-0.9-1.3
	c0.2-0.9,0.2-1.1,0.8-1.7c0.5,0,0.9,0.2,1.3,0.3c0.6,0.5,0.6,0.6,0.8,1.3C49.2,99,49.4,98.6,48.7,99.4z M51.1,94.3
	c-1.1-0.5-4.5-0.3-5.9-0.2c-1,0.8-0.9,0.9-1.1,2.1c-0.9,6,1,6.2,6.6,5.6c0.3-0.1,0.7-0.1,0.9-0.4C52.2,100.2,52.5,94.9,51.1,94.3z
	 M48.7,99.4l-1.3-0.2c-0.7-0.7-0.5-0.3-0.9-1.3c0.2-0.9,0.2-1.1,0.8-1.7c0.5,0,0.9,0.2,1.3,0.3c0.6,0.5,0.6,0.6,0.8,1.3
	C49.2,99,49.4,98.6,48.7,99.4z M49.4,104.7c-0.5,0-1,0-1.5,0c-1.1,0.1-2.6,0.1-3.6,0.2c-0.4,2.6-0.3,4.7-0.1,7.3l4.4,0.2
	c1,0,2.3-0.1,3.2-0.2C52,109.4,53.3,104.8,49.4,104.7z M61,88.9c-1.7-0.4-12.9-0.1-15.5-0.1c-0.1,0.8-0.2,1.5,0.2,2.2
	c1.4,0.6,13.3,0.3,15.5,0.3C61.2,90.4,61.4,89.5,61,88.9z M62.4,94.1c-2.4-0.1-4.3-0.1-6.7,0c-1.6,1.3-1,5.6-0.8,7.6
	c2.2,0.2,4.4,0.3,6.6,0.1C63.2,101,62.5,95.9,62.4,94.1z M59.9,98.7c-0.4,0.8-1,0.7-1.8,0.8c-1.2-0.6-1.2-2.3-0.1-3
	c0,0,1.2-0.2,1.3-0.2l0.3,0.1C60.2,97.2,60.4,97.7,59.9,98.7z M62.4,104.8c-0.8,0-3.4-0.2-4-0.1c-1.1,0-2.6,0.1-3.6,0.2
	c-0.1,2.3-0.1,5.1,0.1,7.4l4.8,0.2l2.7-0.2C62.5,109.7,62.6,107.3,62.4,104.8z M59.7,110c-0.6,0-1.1,0-1.7-0.1
	c-0.8-0.6-0.6-0.3-0.9-1.2c0.2-0.8,0.2-1.1,0.7-1.6c0.5,0,1,0,1.5,0c0.8,0.7,0.6,0.4,1,1.3C60.2,109.1,60.2,109.5,59.7,110z
	 M75.8,87.3c-1.6-0.3-4.2-0.1-6,0c-0.8,1.5-0.5,5.9-0.3,7.7c2.5,0.1,4.8,0.1,7.3,0C77.4,93.6,78,87.7,75.8,87.3z M74.4,92.5
	c-1.1,0.2-1.5,0.4-2.3-0.4c-0.2-0.8,0-1.7,0.1-2.5c1.4,0.2,2.2,0.1,2.7,1.5C74.9,91.8,74.8,92,74.4,92.5z M77.2,75.6
	c-2.5-0.5-4.7-0.4-7.2-0.3c-1.1,1.3-0.5,5.8-0.4,7.6c2.6,0.1,4.3,0.2,6.9,0.1C77.8,82.1,77.2,77.2,77.2,75.6z M85,59.1
	c-0.9-2.8-3.8-4.3-6.6-3.5c-1.8,0.6-3.2,2.1-3.6,3.9c-0.4,1.9,0.2,3.8,1.6,5.1c1.4,1.3,3.4,1.7,5.2,1.1C84.4,64.9,85.9,61.9,85,59.1
	z M80.9,63c-1.3,0.5-2.8-0.1-3.3-1.4c-0.6-1.3,0-2.8,1.2-3.4c0.9-0.4,1.9-0.3,2.6,0.2c0.8,0.5,1.2,1.5,1.1,2.4
	C82.4,61.8,81.8,62.6,80.9,63z M90.3,87.3c-2.1-0.1-5.1-0.2-7.2,0c-0.9,1.8-0.5,5.6-0.2,7.6c2.5,0.1,4.7,0.1,7.3,0
	C90.7,92.8,90.5,89.6,90.3,87.3z M87.2,92.9c-0.7,0-1.1,0-1.6-0.4c-0.8-1.5-0.7-2.1,0.9-2.8C88.4,90,88.7,91.9,87.2,92.9z
	 M90.3,75.5c-2.3-0.3-4.7-0.3-7-0.2c-1.2,1.4-0.7,5.7-0.5,7.6c2.5,0.2,4.2,0.2,6.7,0.1C91.1,82.2,90.4,77.2,90.3,75.5z M105,104.8
	c-1.1-0.1-2.7-0.2-3.8-0.2l-3.8,0.2c-0.1,2.1-0.2,5.3,0,7.4l3.9,0.2c1.1,0,2.5-0.1,3.7-0.2C105.1,109.7,105.2,107.3,105,104.8z
	 M102.8,109.9c-1.1,0.1-1.7,0.2-2.6-0.3c-0.4-0.7-0.2-1.8-0.1-2.7c0.8,0,1.7,0,2.4,0.5C103,108.4,102.8,108.7,102.8,109.9z
	 M105.2,96.5c0.6-3.5-4.6-2.5-7-2.4c-1.4,1.2-1.2,5.8-0.5,7.3c0.9,0.9,5,0.6,6.3,0.4C105.9,101.2,104.9,98,105.2,96.5z M102.6,99.2
	c-1.2,0.1-1.8,0.3-2.6-0.6c-0.1-0.8,0.1-1.6,0.2-2.4c0.4,0,0.8,0.1,1.2,0.2c0.9,0.2,1,0.3,1.4,0.9C102.9,98.1,102.8,98.4,102.6,99.2
	z M114.3,88.9c-1.4-0.4-13.2-0.2-15.5-0.2c-0.1,0.8-0.2,1.6,0.3,2.3c1.4,0.5,13.2,0.2,15.5,0.2C114.6,90.4,114.7,89.6,114.3,88.9z
	 M115.6,94.2c-2.1-0.2-4.2-0.2-6.3-0.1c-0.5,0.2-1,0.3-1.1,0.9c-1.2,7.3,0.3,7.5,6.6,6.8C116.7,101,115.9,96,115.6,94.2z
	 M111.9,99.6c-0.1,0-0.1,0-0.2-0.1c-2-0.7-2-2.6,0.4-3.3l0.7,0.4C113.7,98.1,113.4,98.8,111.9,99.6z M115.7,104.8
	c-0.8,0-3.4-0.2-4.1-0.2c-0.8,0-2.4-0.2-3,0.4c-1.4,1.4-0.7,5.2-0.5,7.1c1.5,0.1,2.9,0.1,4.4,0.2c0.7,0,2.2,0.1,2.6-0.4
	C116.6,110.4,116,106.8,115.7,104.8z M113.1,110c-1.3,0.1-2.1,0.3-2.8-0.9c0-0.9,0.1-1.2,0.4-2c1.3-0.1,1.5-0.2,2.4,0.7
	C113.3,108.6,113.2,109.1,113.1,110z M115.7,104.8c-0.8,0-3.4-0.2-4.1-0.2c-0.8,0-2.4-0.2-3,0.4c-1.4,1.4-0.7,5.2-0.5,7.1
	c1.5,0.1,2.9,0.1,4.4,0.2c0.7,0,2.2,0.1,2.6-0.4C116.6,110.4,116,106.8,115.7,104.8z M113.1,110c-1.3,0.1-2.1,0.3-2.8-0.9
	c0-0.9,0.1-1.2,0.4-2c1.3-0.1,1.5-0.2,2.4,0.7C113.3,108.6,113.2,109.1,113.1,110z M115.6,94.2c-2.1-0.2-4.2-0.2-6.3-0.1
	c-0.5,0.2-1,0.3-1.1,0.9c-1.2,7.3,0.3,7.5,6.6,6.8C116.7,101,115.9,96,115.6,94.2z M111.9,99.6c-0.1,0-0.1,0-0.2-0.1
	c-2-0.7-2-2.6,0.4-3.3l0.7,0.4C113.7,98.1,113.4,98.8,111.9,99.6z M114.3,88.9c-1.4-0.4-13.2-0.2-15.5-0.2c-0.1,0.8-0.2,1.6,0.3,2.3
	c1.4,0.5,13.2,0.2,15.5,0.2C114.6,90.4,114.7,89.6,114.3,88.9z M105.2,96.5c0.6-3.5-4.6-2.5-7-2.4c-1.4,1.2-1.2,5.8-0.5,7.3
	c0.9,0.9,5,0.6,6.3,0.4C105.9,101.2,104.9,98,105.2,96.5z M102.6,99.2c-1.2,0.1-1.8,0.3-2.6-0.6c-0.1-0.8,0.1-1.6,0.2-2.4
	c0.4,0,0.8,0.1,1.2,0.2c0.9,0.2,1,0.3,1.4,0.9C102.9,98.1,102.8,98.4,102.6,99.2z M105,104.8c-1.1-0.1-2.7-0.2-3.8-0.2l-3.8,0.2
	c-0.1,2.1-0.2,5.3,0,7.4l3.9,0.2c1.1,0,2.5-0.1,3.7-0.2C105.1,109.7,105.2,107.3,105,104.8z M102.8,109.9c-1.1,0.1-1.7,0.2-2.6-0.3
	c-0.4-0.7-0.2-1.8-0.1-2.7c0.8,0,1.7,0,2.4,0.5C103,108.4,102.8,108.7,102.8,109.9z M90.3,75.5c-2.3-0.3-4.7-0.3-7-0.2
	c-1.2,1.4-0.7,5.7-0.5,7.6c2.5,0.2,4.2,0.2,6.7,0.1C91.1,82.2,90.4,77.2,90.3,75.5z M90.3,87.3c-2.1-0.1-5.1-0.2-7.2,0
	c-0.9,1.8-0.5,5.6-0.2,7.6c2.5,0.1,4.7,0.1,7.3,0C90.7,92.8,90.5,89.6,90.3,87.3z M87.2,92.9c-0.7,0-1.1,0-1.6-0.4
	c-0.8-1.5-0.7-2.1,0.9-2.8C88.4,90,88.7,91.9,87.2,92.9z M77.2,75.6c-2.5-0.5-4.7-0.4-7.2-0.3c-1.1,1.3-0.5,5.8-0.4,7.6
	c2.6,0.1,4.3,0.2,6.9,0.1C77.8,82.1,77.2,77.2,77.2,75.6z M75.8,87.3c-1.6-0.3-4.2-0.1-6,0c-0.8,1.5-0.5,5.9-0.3,7.7
	c2.5,0.1,4.8,0.1,7.3,0C77.4,93.6,78,87.7,75.8,87.3z M74.4,92.5c-1.1,0.2-1.5,0.4-2.3-0.4c-0.2-0.8,0-1.7,0.1-2.5
	c1.4,0.2,2.2,0.1,2.7,1.5C74.9,91.8,74.8,92,74.4,92.5z M85,59.1c-0.9-2.8-3.8-4.3-6.6-3.5c-1.8,0.6-3.2,2.1-3.6,3.9
	c-0.4,1.9,0.2,3.8,1.6,5.1c1.4,1.3,3.4,1.7,5.2,1.1C84.4,64.9,85.9,61.9,85,59.1z M80.9,63c-1.3,0.5-2.8-0.1-3.3-1.4
	c-0.6-1.3,0-2.8,1.2-3.4c0.9-0.4,1.9-0.3,2.6,0.2c0.8,0.5,1.2,1.5,1.1,2.4C82.4,61.8,81.8,62.6,80.9,63z M62.4,104.8
	c-0.8,0-3.4-0.2-4-0.1c-1.1,0-2.6,0.1-3.6,0.2c-0.1,2.3-0.1,5.1,0.1,7.4l4.8,0.2l2.7-0.2C62.5,109.7,62.6,107.3,62.4,104.8z
	 M59.7,110c-0.6,0-1.1,0-1.7-0.1c-0.8-0.6-0.6-0.3-0.9-1.2c0.2-0.8,0.2-1.1,0.7-1.6c0.5,0,1,0,1.5,0c0.8,0.7,0.6,0.4,1,1.3
	C60.2,109.1,60.2,109.5,59.7,110z M62.4,94.1c-2.4-0.1-4.3-0.1-6.7,0c-1.6,1.3-1,5.6-0.8,7.6c2.2,0.2,4.4,0.3,6.6,0.1
	C63.2,101,62.5,95.9,62.4,94.1z M59.9,98.7c-0.4,0.8-1,0.7-1.8,0.8c-1.2-0.6-1.2-2.3-0.1-3c0,0,1.2-0.2,1.3-0.2l0.3,0.1
	C60.2,97.2,60.4,97.7,59.9,98.7z M61,88.9c-1.7-0.4-12.9-0.1-15.5-0.1c-0.1,0.8-0.2,1.5,0.2,2.2c1.4,0.6,13.3,0.3,15.5,0.3
	C61.2,90.4,61.4,89.5,61,88.9z M49.4,104.7c-0.5,0-1,0-1.5,0c-1.1,0.1-2.6,0.1-3.6,0.2c-0.4,2.6-0.3,4.7-0.1,7.3l4.4,0.2
	c1,0,2.3-0.1,3.2-0.2C52,109.4,53.3,104.8,49.4,104.7z M51.1,94.3c-1.1-0.5-4.5-0.3-5.9-0.2c-1,0.8-0.9,0.9-1.1,2.1
	c-0.9,6,1,6.2,6.6,5.6c0.3-0.1,0.7-0.1,0.9-0.4C52.2,100.2,52.5,94.9,51.1,94.3z M48.7,99.4l-1.3-0.2c-0.7-0.7-0.5-0.3-0.9-1.3
	c0.2-0.9,0.2-1.1,0.8-1.7c0.5,0,0.9,0.2,1.3,0.3c0.6,0.5,0.6,0.6,0.8,1.3C49.2,99,49.4,98.6,48.7,99.4z M51.1,94.3
	c-1.1-0.5-4.5-0.3-5.9-0.2c-1,0.8-0.9,0.9-1.1,2.1c-0.9,6,1,6.2,6.6,5.6c0.3-0.1,0.7-0.1,0.9-0.4C52.2,100.2,52.5,94.9,51.1,94.3z
	 M48.7,99.4l-1.3-0.2c-0.7-0.7-0.5-0.3-0.9-1.3c0.2-0.9,0.2-1.1,0.8-1.7c0.5,0,0.9,0.2,1.3,0.3c0.6,0.5,0.6,0.6,0.8,1.3
	C49.2,99,49.4,98.6,48.7,99.4z M49.4,104.7c-0.5,0-1,0-1.5,0c-1.1,0.1-2.6,0.1-3.6,0.2c-0.4,2.6-0.3,4.7-0.1,7.3l4.4,0.2
	c1,0,2.3-0.1,3.2-0.2C52,109.4,53.3,104.8,49.4,104.7z M61,88.9c-1.7-0.4-12.9-0.1-15.5-0.1c-0.1,0.8-0.2,1.5,0.2,2.2
	c1.4,0.6,13.3,0.3,15.5,0.3C61.2,90.4,61.4,89.5,61,88.9z M62.4,94.1c-2.4-0.1-4.3-0.1-6.7,0c-1.6,1.3-1,5.6-0.8,7.6
	c2.2,0.2,4.4,0.3,6.6,0.1C63.2,101,62.5,95.9,62.4,94.1z M59.9,98.7c-0.4,0.8-1,0.7-1.8,0.8c-1.2-0.6-1.2-2.3-0.1-3
	c0,0,1.2-0.2,1.3-0.2l0.3,0.1C60.2,97.2,60.4,97.7,59.9,98.7z M62.4,104.8c-0.8,0-3.4-0.2-4-0.1c-1.1,0-2.6,0.1-3.6,0.2
	c-0.1,2.3-0.1,5.1,0.1,7.4l4.8,0.2l2.7-0.2C62.5,109.7,62.6,107.3,62.4,104.8z M59.7,110c-0.6,0-1.1,0-1.7-0.1
	c-0.8-0.6-0.6-0.3-0.9-1.2c0.2-0.8,0.2-1.1,0.7-1.6c0.5,0,1,0,1.5,0c0.8,0.7,0.6,0.4,1,1.3C60.2,109.1,60.2,109.5,59.7,110z
	 M75.8,87.3c-1.6-0.3-4.2-0.1-6,0c-0.8,1.5-0.5,5.9-0.3,7.7c2.5,0.1,4.8,0.1,7.3,0C77.4,93.6,78,87.7,75.8,87.3z M74.4,92.5
	c-1.1,0.2-1.5,0.4-2.3-0.4c-0.2-0.8,0-1.7,0.1-2.5c1.4,0.2,2.2,0.1,2.7,1.5C74.9,91.8,74.8,92,74.4,92.5z M77.2,75.6
	c-2.5-0.5-4.7-0.4-7.2-0.3c-1.1,1.3-0.5,5.8-0.4,7.6c2.6,0.1,4.3,0.2,6.9,0.1C77.8,82.1,77.2,77.2,77.2,75.6z M85,59.1
	c-0.9-2.8-3.8-4.3-6.6-3.5c-1.8,0.6-3.2,2.1-3.6,3.9c-0.4,1.9,0.2,3.8,1.6,5.1c1.4,1.3,3.4,1.7,5.2,1.1C84.4,64.9,85.9,61.9,85,59.1
	z M80.9,63c-1.3,0.5-2.8-0.1-3.3-1.4c-0.6-1.3,0-2.8,1.2-3.4c0.9-0.4,1.9-0.3,2.6,0.2c0.8,0.5,1.2,1.5,1.1,2.4
	C82.4,61.8,81.8,62.6,80.9,63z M90.3,87.3c-2.1-0.1-5.1-0.2-7.2,0c-0.9,1.8-0.5,5.6-0.2,7.6c2.5,0.1,4.7,0.1,7.3,0
	C90.7,92.8,90.5,89.6,90.3,87.3z M87.2,92.9c-0.7,0-1.1,0-1.6-0.4c-0.8-1.5-0.7-2.1,0.9-2.8C88.4,90,88.7,91.9,87.2,92.9z
	 M90.3,75.5c-2.3-0.3-4.7-0.3-7-0.2c-1.2,1.4-0.7,5.7-0.5,7.6c2.5,0.2,4.2,0.2,6.7,0.1C91.1,82.2,90.4,77.2,90.3,75.5z M105,104.8
	c-1.1-0.1-2.7-0.2-3.8-0.2l-3.8,0.2c-0.1,2.1-0.2,5.3,0,7.4l3.9,0.2c1.1,0,2.5-0.1,3.7-0.2C105.1,109.7,105.2,107.3,105,104.8z
	 M102.8,109.9c-1.1,0.1-1.7,0.2-2.6-0.3c-0.4-0.7-0.2-1.8-0.1-2.7c0.8,0,1.7,0,2.4,0.5C103,108.4,102.8,108.7,102.8,109.9z
	 M105.2,96.5c0.6-3.5-4.6-2.5-7-2.4c-1.4,1.2-1.2,5.8-0.5,7.3c0.9,0.9,5,0.6,6.3,0.4C105.9,101.2,104.9,98,105.2,96.5z M102.6,99.2
	c-1.2,0.1-1.8,0.3-2.6-0.6c-0.1-0.8,0.1-1.6,0.2-2.4c0.4,0,0.8,0.1,1.2,0.2c0.9,0.2,1,0.3,1.4,0.9C102.9,98.1,102.8,98.4,102.6,99.2
	z M114.3,88.9c-1.4-0.4-13.2-0.2-15.5-0.2c-0.1,0.8-0.2,1.6,0.3,2.3c1.4,0.5,13.2,0.2,15.5,0.2C114.6,90.4,114.7,89.6,114.3,88.9z
	 M115.6,94.2c-2.1-0.2-4.2-0.2-6.3-0.1c-0.5,0.2-1,0.3-1.1,0.9c-1.2,7.3,0.3,7.5,6.6,6.8C116.7,101,115.9,96,115.6,94.2z
	 M111.9,99.6c-0.1,0-0.1,0-0.2-0.1c-2-0.7-2-2.6,0.4-3.3l0.7,0.4C113.7,98.1,113.4,98.8,111.9,99.6z M115.7,104.8
	c-0.8,0-3.4-0.2-4.1-0.2c-0.8,0-2.4-0.2-3,0.4c-1.4,1.4-0.7,5.2-0.5,7.1c1.5,0.1,2.9,0.1,4.4,0.2c0.7,0,2.2,0.1,2.6-0.4
	C116.6,110.4,116,106.8,115.7,104.8z M113.1,110c-1.3,0.1-2.1,0.3-2.8-0.9c0-0.9,0.1-1.2,0.4-2c1.3-0.1,1.5-0.2,2.4,0.7
	C113.3,108.6,113.2,109.1,113.1,110z M115.7,104.8c-0.8,0-3.4-0.2-4.1-0.2c-0.8,0-2.4-0.2-3,0.4c-1.4,1.4-0.7,5.2-0.5,7.1
	c1.5,0.1,2.9,0.1,4.4,0.2c0.7,0,2.2,0.1,2.6-0.4C116.6,110.4,116,106.8,115.7,104.8z M113.1,110c-1.3,0.1-2.1,0.3-2.8-0.9
	c0-0.9,0.1-1.2,0.4-2c1.3-0.1,1.5-0.2,2.4,0.7C113.3,108.6,113.2,109.1,113.1,110z M114.8,101.8c1.9-0.8,1.1-5.8,0.8-7.6
	c-2.1-0.2-4.2-0.2-6.3-0.1c-0.5,0.2-1,0.3-1.1,0.9C107,102.3,108.5,102.5,114.8,101.8z M112.2,96.2l0.7,0.4c0.8,1.5,0.6,2.2-0.9,3
	c-0.1,0-0.1,0-0.2-0.1C109.7,98.8,109.8,96.9,112.2,96.2z M114.5,91.2c0-0.8,0.2-1.6-0.3-2.2c-1.4-0.4-13.2-0.2-15.5-0.2
	c-0.1,0.8-0.2,1.6,0.3,2.3C100.5,91.5,112.2,91.2,114.5,91.2z M98.2,94.1c-1.4,1.2-1.2,5.8-0.5,7.3c0.9,0.9,5,0.6,6.3,0.4
	c1.9-0.6,0.9-3.7,1.2-5.3C105.7,92.9,100.6,94,98.2,94.1z M102.6,99.2c-1.2,0.1-1.8,0.3-2.6-0.6c-0.1-0.8,0.1-1.6,0.2-2.4
	c0.4,0,0.8,0.1,1.2,0.2c0.9,0.2,1,0.3,1.4,0.9C102.9,98.1,102.8,98.4,102.6,99.2z M101.2,104.6l-3.8,0.2c-0.1,2.1-0.2,5.3,0,7.4
	l3.9,0.2c1.1,0,2.5-0.1,3.7-0.2c0.1-2.5,0.2-4.9,0-7.4C103.9,104.7,102.3,104.6,101.2,104.6z M102.8,109.9c-1.1,0.1-1.7,0.2-2.6-0.3
	c-0.4-0.7-0.2-1.8-0.1-2.7c0.8,0,1.7,0,2.4,0.5C103,108.4,102.8,108.7,102.8,109.9z M89.5,83c1.6-0.8,0.9-5.9,0.8-7.5
	c-2.3-0.3-4.7-0.3-7-0.2c-1.2,1.4-0.7,5.7-0.5,7.6C85.3,83.1,87.1,83.2,89.5,83z M83,87.3c-0.9,1.8-0.5,5.6-0.2,7.6
	c2.5,0.1,4.7,0.1,7.3,0c0.6-2.1,0.4-5.4,0.2-7.6C88.2,87.2,85.2,87.1,83,87.3z M87.2,92.9c-0.7,0-1.1,0-1.6-0.4
	c-0.8-1.5-0.7-2.1,0.9-2.8C88.4,90,88.7,91.9,87.2,92.9z M76.5,83c1.3-0.9,0.7-5.8,0.7-7.4c-2.5-0.5-4.7-0.4-7.2-0.3
	c-1.1,1.3-0.5,5.8-0.4,7.6C72.2,83.1,73.9,83.1,76.5,83z M75.8,87.3c-1.6-0.3-4.2-0.1-6,0c-0.8,1.5-0.5,5.9-0.3,7.7
	c2.5,0.1,4.8,0.1,7.3,0C77.4,93.6,78,87.7,75.8,87.3z M74.4,92.5c-1.1,0.2-1.5,0.4-2.3-0.4c-0.2-0.8,0-1.7,0.1-2.5
	c1.4,0.2,2.2,0.1,2.7,1.5C74.9,91.8,74.8,92,74.4,92.5z M85,59.1c-0.9-2.8-3.8-4.3-6.6-3.5c-1.8,0.6-3.2,2.1-3.6,3.9
	c-0.4,1.9,0.2,3.8,1.6,5.1c1.4,1.3,3.4,1.7,5.2,1.1C84.4,64.9,85.9,61.9,85,59.1z M80.9,63c-1.3,0.5-2.8-0.1-3.3-1.4
	c-0.6-1.3,0-2.8,1.2-3.4c0.9-0.4,1.9-0.3,2.6,0.2c0.8,0.5,1.2,1.5,1.1,2.4C82.4,61.8,81.8,62.6,80.9,63z M58.4,104.6
	c-1.1,0-2.6,0.1-3.6,0.2c-0.1,2.3-0.1,5.1,0.1,7.4l4.8,0.2l2.7-0.2c0-2.5,0.1-4.9,0-7.4C61.6,104.7,59.1,104.6,58.4,104.6z
	 M59.7,110c-0.6,0-1.1,0-1.7-0.1c-0.8-0.6-0.6-0.3-0.9-1.2c0.2-0.8,0.2-1.1,0.7-1.6c0.5,0,1,0,1.5,0c0.8,0.7,0.6,0.4,1,1.3
	C60.2,109.1,60.2,109.5,59.7,110z M61.5,101.8c1.7-0.7,1-5.9,0.9-7.7c-2.4-0.1-4.3-0.1-6.7,0c-1.6,1.3-1,5.6-0.8,7.6
	C57.1,101.9,59.4,102,61.5,101.8z M58,96.5c0,0,1.2-0.2,1.3-0.2l0.3,0.1c0.6,0.8,0.8,1.2,0.3,2.2c-0.4,0.8-1,0.7-1.8,0.8
	C56.8,98.8,56.8,97.2,58,96.5z M61,88.9c-1.7-0.4-12.9-0.1-15.5-0.1c-0.1,0.8-0.2,1.5,0.2,2.2c1.4,0.6,13.3,0.3,15.5,0.3
	C61.2,90.4,61.4,89.5,61,88.9z M49.4,104.7c-0.5,0-1,0-1.5,0c-1.1,0.1-2.6,0.1-3.6,0.2c-0.4,2.6-0.3,4.7-0.1,7.3l4.4,0.2
	c1,0,2.3-0.1,3.2-0.2C52,109.4,53.3,104.8,49.4,104.7z M50.7,101.8c0.3-0.1,0.7-0.1,0.9-0.4c0.7-1.2,1-6.5-0.4-7.1
	c-1.1-0.5-4.5-0.3-5.9-0.2c-1,0.8-0.9,0.9-1.1,2.1C43.2,102.2,45.1,102.4,50.7,101.8z M47.3,96.2c0.5,0,0.9,0.2,1.3,0.3
	c0.6,0.5,0.6,0.6,0.8,1.3c-0.2,1.1,0,0.8-0.7,1.6l-1.3-0.2c-0.7-0.7-0.5-0.3-0.9-1.3C46.7,97.1,46.7,96.8,47.3,96.2z M119.9,104.5
	l0-20.5c-3.6-3.3-9.5-8.9-13.2-11.7c-3.2,2.3-7.6,6.5-10.6,9.2c0-2.9,0-5.8,0-8.7c-0.1-5.9,0.7-5.7-5.3-5.7c0-2.6,0.2-13.2-0.2-15
	c-1.7-1.7-6.9,0-9-1.1c-0.2-0.1-0.2-1.8,0.1-2.2c1.5-1,12.6,0.9,14.5-1.3c-0.1-1.2-2.5-3.3-3.4-4.2c1-0.9,4.2-3.4,2.9-4.9
	c-2.3-0.9-13.3-0.6-16.2-0.5c-0.1,0.2-0.3,0.3-0.5,0.5c-0.4,3.1-0.2,9.9-0.2,12.7c-2.6,0-6.8-0.1-9.2,0.3c-0.1,3.7-0.3,12-0.1,15.7
	c-1.5,0-4.1-0.2-5.2,0.7c-0.5,2-0.3,11-0.3,13.6c-3.4-2.9-7.1-6.2-10.5-9C51,74.2,42,82.2,40,84.4c0,4.8-0.6,30.2,0.4,33.2
	c2.5,1,52.1,0.4,59.2,0.4c6.4,0,13.7,0.2,20-0.1C120.1,114.6,119.9,108.1,119.9,104.5z M53.3,75.7c2,1.5,6.4,5.8,8.4,7.6l-7.9,0
	c-2.7,0-6.4-0.1-9,0.2C47.5,80.8,50.5,78.3,53.3,75.7z M63.9,115.1l-0.3,0.3c-7,0-13.9,0-20.9,0.1L42.6,86L64,86
	c0.1,6.3-0.1,12.8-0.1,19.2C63.9,107.6,64.1,113.1,63.9,115.1z M81.5,40.8l0.6-0.2c3.1-0.1,6.2,0,9.4,0c-1.1,1.1-1.5,1.6-2.4,3
	c0.6,0.8,1.2,1.4,1.9,2.1c-0.9,0.6-8.2,0.4-9.8,0.3C81.3,44.7,81.1,41.9,81.5,40.8z M72,54c5.3,0,10.6,0,16-0.1l0,13.3l-16,0L72,54z
	 M83.8,115.4c-2.2-0.1-5.5-0.1-7.8-0.1l0-13.3h8C84,104.2,84.2,113.7,83.8,115.4z M93.4,88.1c0.1,8.8-0.3,18.5,0,27.2
	c-2.2,0-4.4,0-6.7,0l0-11.4c0-2.1,1.8-2.8,1-4.4c-1.8-0.2-14-0.3-15.6,0c-0.8,2,0.9,2.3,1,3.1c0.2,3.5,0.1,9.3,0.1,12.7l-6.6,0
	L66.6,70l26.9,0C93.1,74.2,93.3,83.6,93.4,88.1z M106.5,75.7c1.2,0.8,7.1,6.2,8.7,7.6c-2.3-0.1-5.5-0.1-8-0.1c-3.1,0-6.1,0-9.2,0
	C100.9,80.8,103.7,78.3,106.5,75.7z M117.4,115.3L96,115.4c0.1-9.8,0.1-19.6,0-29.4h21.4l-0.1,18.8
	C117.3,107.9,117.2,112.3,117.4,115.3z M111.7,104.6c-0.8,0-2.4-0.2-3,0.4c-1.4,1.4-0.7,5.2-0.5,7.1c1.5,0.1,2.9,0.1,4.4,0.2
	c0.7,0,2.2,0.1,2.6-0.4c1.4-1.6,0.8-5.2,0.5-7.2C114.9,104.8,112.4,104.6,111.7,104.6z M113.1,110c-1.3,0.1-2.1,0.3-2.8-0.9
	c0-0.9,0.1-1.2,0.4-2c1.3-0.1,1.5-0.2,2.4,0.7C113.3,108.6,113.2,109.1,113.1,110z M114.8,101.8c1.9-0.8,1.1-5.8,0.8-7.6
	c-2.1-0.2-4.2-0.2-6.3-0.1c-0.5,0.2-1,0.3-1.1,0.9C107,102.3,108.5,102.5,114.8,101.8z M112.2,96.2l0.7,0.4c0.8,1.5,0.6,2.2-0.9,3
	c-0.1,0-0.1,0-0.2-0.1C109.7,98.8,109.8,96.9,112.2,96.2z M114.5,91.2c0-0.8,0.2-1.6-0.3-2.2c-1.4-0.4-13.2-0.2-15.5-0.2
	c-0.1,0.8-0.2,1.6,0.3,2.3C100.5,91.5,112.2,91.2,114.5,91.2z M98.2,94.1c-1.4,1.2-1.2,5.8-0.5,7.3c0.9,0.9,5,0.6,6.3,0.4
	c1.9-0.6,0.9-3.7,1.2-5.3C105.7,92.9,100.6,94,98.2,94.1z M102.6,99.2c-1.2,0.1-1.8,0.3-2.6-0.6c-0.1-0.8,0.1-1.6,0.2-2.4
	c0.4,0,0.8,0.1,1.2,0.2c0.9,0.2,1,0.3,1.4,0.9C102.9,98.1,102.8,98.4,102.6,99.2z M101.2,104.6l-3.8,0.2c-0.1,2.1-0.2,5.3,0,7.4
	l3.9,0.2c1.1,0,2.5-0.1,3.7-0.2c0.1-2.5,0.2-4.9,0-7.4C103.9,104.7,102.3,104.6,101.2,104.6z M102.8,109.9c-1.1,0.1-1.7,0.2-2.6-0.3
	c-0.4-0.7-0.2-1.8-0.1-2.7c0.8,0,1.7,0,2.4,0.5C103,108.4,102.8,108.7,102.8,109.9z M83.3,75.3c-1.2,1.4-0.7,5.7-0.5,7.6
	c2.5,0.2,4.2,0.2,6.7,0.1c1.6-0.8,0.9-5.9,0.8-7.5C88,75.2,85.6,75.2,83.3,75.3z M83,87.3c-0.9,1.8-0.5,5.6-0.2,7.6
	c2.5,0.1,4.7,0.1,7.3,0c0.6-2.1,0.4-5.4,0.2-7.6C88.2,87.2,85.2,87.1,83,87.3z M87.2,92.9c-0.7,0-1.1,0-1.6-0.4
	c-0.8-1.5-0.7-2.1,0.9-2.8C88.4,90,88.7,91.9,87.2,92.9z M78.4,55.7c-1.8,0.6-3.2,2.1-3.6,3.9c-0.4,1.9,0.2,3.8,1.6,5.1
	c1.4,1.3,3.4,1.7,5.2,1.1c2.8-0.9,4.3-3.9,3.4-6.7S81.2,54.8,78.4,55.7z M80.9,63c-1.3,0.5-2.8-0.1-3.3-1.4c-0.6-1.3,0-2.8,1.2-3.4
	c0.9-0.4,1.9-0.3,2.6,0.2c0.8,0.5,1.2,1.5,1.1,2.4C82.4,61.8,81.8,62.6,80.9,63z M76.5,83c1.3-0.9,0.7-5.8,0.7-7.4
	c-2.5-0.5-4.7-0.4-7.2-0.3c-1.1,1.3-0.5,5.8-0.4,7.6C72.2,83.1,73.9,83.1,76.5,83z M75.8,87.3c-1.6-0.3-4.2-0.1-6,0
	c-0.8,1.5-0.5,5.9-0.3,7.7c2.5,0.1,4.8,0.1,7.3,0C77.4,93.6,78,87.7,75.8,87.3z M74.4,92.5c-1.1,0.2-1.5,0.4-2.3-0.4
	c-0.2-0.8,0-1.7,0.1-2.5c1.4,0.2,2.2,0.1,2.7,1.5C74.9,91.8,74.8,92,74.4,92.5z M58.4,104.6c-1.1,0-2.6,0.1-3.6,0.2
	c-0.1,2.3-0.1,5.1,0.1,7.4l4.8,0.2l2.7-0.2c0-2.5,0.1-4.9,0-7.4C61.6,104.7,59.1,104.6,58.4,104.6z M59.7,110c-0.6,0-1.1,0-1.7-0.1
	c-0.8-0.6-0.6-0.3-0.9-1.2c0.2-0.8,0.2-1.1,0.7-1.6c0.5,0,1,0,1.5,0c0.8,0.7,0.6,0.4,1,1.3C60.2,109.1,60.2,109.5,59.7,110z
	 M55.7,94.1c-1.6,1.3-1,5.6-0.8,7.6c2.2,0.2,4.4,0.3,6.6,0.1c1.7-0.7,1-5.9,0.9-7.7C60,94,58.1,94,55.7,94.1z M59.9,98.7
	c-0.4,0.8-1,0.7-1.8,0.8c-1.2-0.6-1.2-2.3-0.1-3c0,0,1.2-0.2,1.3-0.2l0.3,0.1C60.2,97.2,60.4,97.7,59.9,98.7z M61,88.9
	c-1.7-0.4-12.9-0.1-15.5-0.1c-0.1,0.8-0.2,1.5,0.2,2.2c1.4,0.6,13.3,0.3,15.5,0.3C61.2,90.4,61.4,89.5,61,88.9z M49.4,104.7
	c-0.5,0-1,0-1.5,0c-1.1,0.1-2.6,0.1-3.6,0.2c-0.4,2.6-0.3,4.7-0.1,7.3l4.4,0.2c1,0,2.3-0.1,3.2-0.2C52,109.4,53.3,104.8,49.4,104.7z
	 M50.7,101.8c0.3-0.1,0.7-0.1,0.9-0.4c0.7-1.2,1-6.5-0.4-7.1c-1.1-0.5-4.5-0.3-5.9-0.2c-1,0.8-0.9,0.9-1.1,2.1
	C43.2,102.2,45.1,102.4,50.7,101.8z M47.3,96.2c0.5,0,0.9,0.2,1.3,0.3c0.6,0.5,0.6,0.6,0.8,1.3c-0.2,1.1,0,0.8-0.7,1.6l-1.3-0.2
	c-0.7-0.7-0.5-0.3-0.9-1.3C46.7,97.1,46.7,96.8,47.3,96.2z M51.1,94.3c-1.1-0.5-4.5-0.3-5.9-0.2c-1,0.8-0.9,0.9-1.1,2.1
	c-0.9,6,1,6.2,6.6,5.6c0.3-0.1,0.7-0.1,0.9-0.4C52.2,100.2,52.5,94.9,51.1,94.3z M48.7,99.4l-1.3-0.2c-0.7-0.7-0.5-0.3-0.9-1.3
	c0.2-0.9,0.2-1.1,0.8-1.7c0.5,0,0.9,0.2,1.3,0.3c0.6,0.5,0.6,0.6,0.8,1.3C49.2,99,49.4,98.6,48.7,99.4z M49.4,104.7
	c-0.5,0-1,0-1.5,0c-1.1,0.1-2.6,0.1-3.6,0.2c-0.4,2.6-0.3,4.7-0.1,7.3l4.4,0.2c1,0,2.3-0.1,3.2-0.2C52,109.4,53.3,104.8,49.4,104.7z
	 M61,88.9c-1.7-0.4-12.9-0.1-15.5-0.1c-0.1,0.8-0.2,1.5,0.2,2.2c1.4,0.6,13.3,0.3,15.5,0.3C61.2,90.4,61.4,89.5,61,88.9z M62.4,94.1
	c-2.4-0.1-4.3-0.1-6.7,0c-1.6,1.3-1,5.6-0.8,7.6c2.2,0.2,4.4,0.3,6.6,0.1C63.2,101,62.5,95.9,62.4,94.1z M59.9,98.7
	c-0.4,0.8-1,0.7-1.8,0.8c-1.2-0.6-1.2-2.3-0.1-3c0,0,1.2-0.2,1.3-0.2l0.3,0.1C60.2,97.2,60.4,97.7,59.9,98.7z M62.4,104.8
	c-0.8,0-3.4-0.2-4-0.1c-1.1,0-2.6,0.1-3.6,0.2c-0.1,2.3-0.1,5.1,0.1,7.4l4.8,0.2l2.7-0.2C62.5,109.7,62.6,107.3,62.4,104.8z
	 M59.7,110c-0.6,0-1.1,0-1.7-0.1c-0.8-0.6-0.6-0.3-0.9-1.2c0.2-0.8,0.2-1.1,0.7-1.6c0.5,0,1,0,1.5,0c0.8,0.7,0.6,0.4,1,1.3
	C60.2,109.1,60.2,109.5,59.7,110z M85,59.1c-0.9-2.8-3.8-4.3-6.6-3.5c-1.8,0.6-3.2,2.1-3.6,3.9c-0.4,1.9,0.2,3.8,1.6,5.1
	c1.4,1.3,3.4,1.7,5.2,1.1C84.4,64.9,85.9,61.9,85,59.1z M80.9,63c-1.3,0.5-2.8-0.1-3.3-1.4c-0.6-1.3,0-2.8,1.2-3.4
	c0.9-0.4,1.9-0.3,2.6,0.2c0.8,0.5,1.2,1.5,1.1,2.4C82.4,61.8,81.8,62.6,80.9,63z M75.8,87.3c-1.6-0.3-4.2-0.1-6,0
	c-0.8,1.5-0.5,5.9-0.3,7.7c2.5,0.1,4.8,0.1,7.3,0C77.4,93.6,78,87.7,75.8,87.3z M74.4,92.5c-1.1,0.2-1.5,0.4-2.3-0.4
	c-0.2-0.8,0-1.7,0.1-2.5c1.4,0.2,2.2,0.1,2.7,1.5C74.9,91.8,74.8,92,74.4,92.5z M77.2,75.6c-2.5-0.5-4.7-0.4-7.2-0.3
	c-1.1,1.3-0.5,5.8-0.4,7.6c2.6,0.1,4.3,0.2,6.9,0.1C77.8,82.1,77.2,77.2,77.2,75.6z M90.3,87.3c-2.1-0.1-5.1-0.2-7.2,0
	c-0.9,1.8-0.5,5.6-0.2,7.6c2.5,0.1,4.7,0.1,7.3,0C90.7,92.8,90.5,89.6,90.3,87.3z M87.2,92.9c-0.7,0-1.1,0-1.6-0.4
	c-0.8-1.5-0.7-2.1,0.9-2.8C88.4,90,88.7,91.9,87.2,92.9z M90.3,75.5c-2.3-0.3-4.7-0.3-7-0.2c-1.2,1.4-0.7,5.7-0.5,7.6
	c2.5,0.2,4.2,0.2,6.7,0.1C91.1,82.2,90.4,77.2,90.3,75.5z M105,104.8c-1.1-0.1-2.7-0.2-3.8-0.2l-3.8,0.2c-0.1,2.1-0.2,5.3,0,7.4
	l3.9,0.2c1.1,0,2.5-0.1,3.7-0.2C105.1,109.7,105.2,107.3,105,104.8z M102.8,109.9c-1.1,0.1-1.7,0.2-2.6-0.3
	c-0.4-0.7-0.2-1.8-0.1-2.7c0.8,0,1.7,0,2.4,0.5C103,108.4,102.8,108.7,102.8,109.9z M105.2,96.5c0.6-3.5-4.6-2.5-7-2.4
	c-1.4,1.2-1.2,5.8-0.5,7.3c0.9,0.9,5,0.6,6.3,0.4C105.9,101.2,104.9,98,105.2,96.5z M102.6,99.2c-1.2,0.1-1.8,0.3-2.6-0.6
	c-0.1-0.8,0.1-1.6,0.2-2.4c0.4,0,0.8,0.1,1.2,0.2c0.9,0.2,1,0.3,1.4,0.9C102.9,98.1,102.8,98.4,102.6,99.2z M114.3,88.9
	c-1.4-0.4-13.2-0.2-15.5-0.2c-0.1,0.8-0.2,1.6,0.3,2.3c1.4,0.5,13.2,0.2,15.5,0.2C114.6,90.4,114.7,89.6,114.3,88.9z M115.6,94.2
	c-2.1-0.2-4.2-0.2-6.3-0.1c-0.5,0.2-1,0.3-1.1,0.9c-1.2,7.3,0.3,7.5,6.6,6.8C116.7,101,115.9,96,115.6,94.2z M111.9,99.6
	c-0.1,0-0.1,0-0.2-0.1c-2-0.7-2-2.6,0.4-3.3l0.7,0.4C113.7,98.1,113.4,98.8,111.9,99.6z M115.7,104.8c-0.8,0-3.4-0.2-4.1-0.2
	c-0.8,0-2.4-0.2-3,0.4c-1.4,1.4-0.7,5.2-0.5,7.1c1.5,0.1,2.9,0.1,4.4,0.2c0.7,0,2.2,0.1,2.6-0.4C116.6,110.4,116,106.8,115.7,104.8z
	 M113.1,110c-1.3,0.1-2.1,0.3-2.8-0.9c0-0.9,0.1-1.2,0.4-2c1.3-0.1,1.5-0.2,2.4,0.7C113.3,108.6,113.2,109.1,113.1,110z
	 M115.7,104.8c-0.8,0-3.4-0.2-4.1-0.2c-0.8,0-2.4-0.2-3,0.4c-1.4,1.4-0.7,5.2-0.5,7.1c1.5,0.1,2.9,0.1,4.4,0.2
	c0.7,0,2.2,0.1,2.6-0.4C116.6,110.4,116,106.8,115.7,104.8z M113.1,110c-1.3,0.1-2.1,0.3-2.8-0.9c0-0.9,0.1-1.2,0.4-2
	c1.3-0.1,1.5-0.2,2.4,0.7C113.3,108.6,113.2,109.1,113.1,110z M115.6,94.2c-2.1-0.2-4.2-0.2-6.3-0.1c-0.5,0.2-1,0.3-1.1,0.9
	c-1.2,7.3,0.3,7.5,6.6,6.8C116.7,101,115.9,96,115.6,94.2z M111.9,99.6c-0.1,0-0.1,0-0.2-0.1c-2-0.7-2-2.6,0.4-3.3l0.7,0.4
	C113.7,98.1,113.4,98.8,111.9,99.6z M114.3,88.9c-1.4-0.4-13.2-0.2-15.5-0.2c-0.1,0.8-0.2,1.6,0.3,2.3c1.4,0.5,13.2,0.2,15.5,0.2
	C114.6,90.4,114.7,89.6,114.3,88.9z M105.2,96.5c0.6-3.5-4.6-2.5-7-2.4c-1.4,1.2-1.2,5.8-0.5,7.3c0.9,0.9,5,0.6,6.3,0.4
	C105.9,101.2,104.9,98,105.2,96.5z M102.6,99.2c-1.2,0.1-1.8,0.3-2.6-0.6c-0.1-0.8,0.1-1.6,0.2-2.4c0.4,0,0.8,0.1,1.2,0.2
	c0.9,0.2,1,0.3,1.4,0.9C102.9,98.1,102.8,98.4,102.6,99.2z M105,104.8c-1.1-0.1-2.7-0.2-3.8-0.2l-3.8,0.2c-0.1,2.1-0.2,5.3,0,7.4
	l3.9,0.2c1.1,0,2.5-0.1,3.7-0.2C105.1,109.7,105.2,107.3,105,104.8z M102.8,109.9c-1.1,0.1-1.7,0.2-2.6-0.3
	c-0.4-0.7-0.2-1.8-0.1-2.7c0.8,0,1.7,0,2.4,0.5C103,108.4,102.8,108.7,102.8,109.9z M90.3,75.5c-2.3-0.3-4.7-0.3-7-0.2
	c-1.2,1.4-0.7,5.7-0.5,7.6c2.5,0.2,4.2,0.2,6.7,0.1C91.1,82.2,90.4,77.2,90.3,75.5z M90.3,87.3c-2.1-0.1-5.1-0.2-7.2,0
	c-0.9,1.8-0.5,5.6-0.2,7.6c2.5,0.1,4.7,0.1,7.3,0C90.7,92.8,90.5,89.6,90.3,87.3z M87.2,92.9c-0.7,0-1.1,0-1.6-0.4
	c-0.8-1.5-0.7-2.1,0.9-2.8C88.4,90,88.7,91.9,87.2,92.9z M85,59.1c-0.9-2.8-3.8-4.3-6.6-3.5c-1.8,0.6-3.2,2.1-3.6,3.9
	c-0.4,1.9,0.2,3.8,1.6,5.1c1.4,1.3,3.4,1.7,5.2,1.1C84.4,64.9,85.9,61.9,85,59.1z M80.9,63c-1.3,0.5-2.8-0.1-3.3-1.4
	c-0.6-1.3,0-2.8,1.2-3.4c0.9-0.4,1.9-0.3,2.6,0.2c0.8,0.5,1.2,1.5,1.1,2.4C82.4,61.8,81.8,62.6,80.9,63z M77.2,75.6
	c-2.5-0.5-4.7-0.4-7.2-0.3c-1.1,1.3-0.5,5.8-0.4,7.6c2.6,0.1,4.3,0.2,6.9,0.1C77.8,82.1,77.2,77.2,77.2,75.6z M75.8,87.3
	c-1.6-0.3-4.2-0.1-6,0c-0.8,1.5-0.5,5.9-0.3,7.7c2.5,0.1,4.8,0.1,7.3,0C77.4,93.6,78,87.7,75.8,87.3z M74.4,92.5
	c-1.1,0.2-1.5,0.4-2.3-0.4c-0.2-0.8,0-1.7,0.1-2.5c1.4,0.2,2.2,0.1,2.7,1.5C74.9,91.8,74.8,92,74.4,92.5z M62.4,104.8
	c-0.8,0-3.4-0.2-4-0.1c-1.1,0-2.6,0.1-3.6,0.2c-0.1,2.3-0.1,5.1,0.1,7.4l4.8,0.2l2.7-0.2C62.5,109.7,62.6,107.3,62.4,104.8z
	 M59.7,110c-0.6,0-1.1,0-1.7-0.1c-0.8-0.6-0.6-0.3-0.9-1.2c0.2-0.8,0.2-1.1,0.7-1.6c0.5,0,1,0,1.5,0c0.8,0.7,0.6,0.4,1,1.3
	C60.2,109.1,60.2,109.5,59.7,110z M62.4,94.1c-2.4-0.1-4.3-0.1-6.7,0c-1.6,1.3-1,5.6-0.8,7.6c2.2,0.2,4.4,0.3,6.6,0.1
	C63.2,101,62.5,95.9,62.4,94.1z M59.9,98.7c-0.4,0.8-1,0.7-1.8,0.8c-1.2-0.6-1.2-2.3-0.1-3c0,0,1.2-0.2,1.3-0.2l0.3,0.1
	C60.2,97.2,60.4,97.7,59.9,98.7z M61,88.9c-1.7-0.4-12.9-0.1-15.5-0.1c-0.1,0.8-0.2,1.5,0.2,2.2c1.4,0.6,13.3,0.3,15.5,0.3
	C61.2,90.4,61.4,89.5,61,88.9z M49.4,104.7c-0.5,0-1,0-1.5,0c-1.1,0.1-2.6,0.1-3.6,0.2c-0.4,2.6-0.3,4.7-0.1,7.3l4.4,0.2
	c1,0,2.3-0.1,3.2-0.2C52,109.4,53.3,104.8,49.4,104.7z M51.1,94.3c-1.1-0.5-4.5-0.3-5.9-0.2c-1,0.8-0.9,0.9-1.1,2.1
	c-0.9,6,1,6.2,6.6,5.6c0.3-0.1,0.7-0.1,0.9-0.4C52.2,100.2,52.5,94.9,51.1,94.3z M48.7,99.4l-1.3-0.2c-0.7-0.7-0.5-0.3-0.9-1.3
	c0.2-0.9,0.2-1.1,0.8-1.7c0.5,0,0.9,0.2,1.3,0.3c0.6,0.5,0.6,0.6,0.8,1.3C49.2,99,49.4,98.6,48.7,99.4z M51.1,94.3
	c-1.1-0.5-4.5-0.3-5.9-0.2c-1,0.8-0.9,0.9-1.1,2.1c-0.9,6,1,6.2,6.6,5.6c0.3-0.1,0.7-0.1,0.9-0.4C52.2,100.2,52.5,94.9,51.1,94.3z
	 M48.7,99.4l-1.3-0.2c-0.7-0.7-0.5-0.3-0.9-1.3c0.2-0.9,0.2-1.1,0.8-1.7c0.5,0,0.9,0.2,1.3,0.3c0.6,0.5,0.6,0.6,0.8,1.3
	C49.2,99,49.4,98.6,48.7,99.4z M49.4,104.7c-0.5,0-1,0-1.5,0c-1.1,0.1-2.6,0.1-3.6,0.2c-0.4,2.6-0.3,4.7-0.1,7.3l4.4,0.2
	c1,0,2.3-0.1,3.2-0.2C52,109.4,53.3,104.8,49.4,104.7z M61,88.9c-1.7-0.4-12.9-0.1-15.5-0.1c-0.1,0.8-0.2,1.5,0.2,2.2
	c1.4,0.6,13.3,0.3,15.5,0.3C61.2,90.4,61.4,89.5,61,88.9z M62.4,94.1c-2.4-0.1-4.3-0.1-6.7,0c-1.6,1.3-1,5.6-0.8,7.6
	c2.2,0.2,4.4,0.3,6.6,0.1C63.2,101,62.5,95.9,62.4,94.1z M59.9,98.7c-0.4,0.8-1,0.7-1.8,0.8c-1.2-0.6-1.2-2.3-0.1-3
	c0,0,1.2-0.2,1.3-0.2l0.3,0.1C60.2,97.2,60.4,97.7,59.9,98.7z M62.4,104.8c-0.8,0-3.4-0.2-4-0.1c-1.1,0-2.6,0.1-3.6,0.2
	c-0.1,2.3-0.1,5.1,0.1,7.4l4.8,0.2l2.7-0.2C62.5,109.7,62.6,107.3,62.4,104.8z M59.7,110c-0.6,0-1.1,0-1.7-0.1
	c-0.8-0.6-0.6-0.3-0.9-1.2c0.2-0.8,0.2-1.1,0.7-1.6c0.5,0,1,0,1.5,0c0.8,0.7,0.6,0.4,1,1.3C60.2,109.1,60.2,109.5,59.7,110z
	 M85,59.1c-0.9-2.8-3.8-4.3-6.6-3.5c-1.8,0.6-3.2,2.1-3.6,3.9c-0.4,1.9,0.2,3.8,1.6,5.1c1.4,1.3,3.4,1.7,5.2,1.1
	C84.4,64.9,85.9,61.9,85,59.1z M80.9,63c-1.3,0.5-2.8-0.1-3.3-1.4c-0.6-1.3,0-2.8,1.2-3.4c0.9-0.4,1.9-0.3,2.6,0.2
	c0.8,0.5,1.2,1.5,1.1,2.4C82.4,61.8,81.8,62.6,80.9,63z M75.8,87.3c-1.6-0.3-4.2-0.1-6,0c-0.8,1.5-0.5,5.9-0.3,7.7
	c2.5,0.1,4.8,0.1,7.3,0C77.4,93.6,78,87.7,75.8,87.3z M74.4,92.5c-1.1,0.2-1.5,0.4-2.3-0.4c-0.2-0.8,0-1.7,0.1-2.5
	c1.4,0.2,2.2,0.1,2.7,1.5C74.9,91.8,74.8,92,74.4,92.5z M77.2,75.6c-2.5-0.5-4.7-0.4-7.2-0.3c-1.1,1.3-0.5,5.8-0.4,7.6
	c2.6,0.1,4.3,0.2,6.9,0.1C77.8,82.1,77.2,77.2,77.2,75.6z M90.3,87.3c-2.1-0.1-5.1-0.2-7.2,0c-0.9,1.8-0.5,5.6-0.2,7.6
	c2.5,0.1,4.7,0.1,7.3,0C90.7,92.8,90.5,89.6,90.3,87.3z M87.2,92.9c-0.7,0-1.1,0-1.6-0.4c-0.8-1.5-0.7-2.1,0.9-2.8
	C88.4,90,88.7,91.9,87.2,92.9z M90.3,75.5c-2.3-0.3-4.7-0.3-7-0.2c-1.2,1.4-0.7,5.7-0.5,7.6c2.5,0.2,4.2,0.2,6.7,0.1
	C91.1,82.2,90.4,77.2,90.3,75.5z M105,104.8c-1.1-0.1-2.7-0.2-3.8-0.2l-3.8,0.2c-0.1,2.1-0.2,5.3,0,7.4l3.9,0.2
	c1.1,0,2.5-0.1,3.7-0.2C105.1,109.7,105.2,107.3,105,104.8z M102.8,109.9c-1.1,0.1-1.7,0.2-2.6-0.3c-0.4-0.7-0.2-1.8-0.1-2.7
	c0.8,0,1.7,0,2.4,0.5C103,108.4,102.8,108.7,102.8,109.9z M105.2,96.5c0.6-3.5-4.6-2.5-7-2.4c-1.4,1.2-1.2,5.8-0.5,7.3
	c0.9,0.9,5,0.6,6.3,0.4C105.9,101.2,104.9,98,105.2,96.5z M102.6,99.2c-1.2,0.1-1.8,0.3-2.6-0.6c-0.1-0.8,0.1-1.6,0.2-2.4
	c0.4,0,0.8,0.1,1.2,0.2c0.9,0.2,1,0.3,1.4,0.9C102.9,98.1,102.8,98.4,102.6,99.2z M114.3,88.9c-1.4-0.4-13.2-0.2-15.5-0.2
	c-0.1,0.8-0.2,1.6,0.3,2.3c1.4,0.5,13.2,0.2,15.5,0.2C114.6,90.4,114.7,89.6,114.3,88.9z M115.6,94.2c-2.1-0.2-4.2-0.2-6.3-0.1
	c-0.5,0.2-1,0.3-1.1,0.9c-1.2,7.3,0.3,7.5,6.6,6.8C116.7,101,115.9,96,115.6,94.2z M111.9,99.6c-0.1,0-0.1,0-0.2-0.1
	c-2-0.7-2-2.6,0.4-3.3l0.7,0.4C113.7,98.1,113.4,98.8,111.9,99.6z M115.7,104.8c-0.8,0-3.4-0.2-4.1-0.2c-0.8,0-2.4-0.2-3,0.4
	c-1.4,1.4-0.7,5.2-0.5,7.1c1.5,0.1,2.9,0.1,4.4,0.2c0.7,0,2.2,0.1,2.6-0.4C116.6,110.4,116,106.8,115.7,104.8z M113.1,110
	c-1.3,0.1-2.1,0.3-2.8-0.9c0-0.9,0.1-1.2,0.4-2c1.3-0.1,1.5-0.2,2.4,0.7C113.3,108.6,113.2,109.1,113.1,110z M115.7,104.8
	c-0.8,0-3.4-0.2-4.1-0.2c-0.8,0-2.4-0.2-3,0.4c-1.4,1.4-0.7,5.2-0.5,7.1c1.5,0.1,2.9,0.1,4.4,0.2c0.7,0,2.2,0.1,2.6-0.4
	C116.6,110.4,116,106.8,115.7,104.8z M113.1,110c-1.3,0.1-2.1,0.3-2.8-0.9c0-0.9,0.1-1.2,0.4-2c1.3-0.1,1.5-0.2,2.4,0.7
	C113.3,108.6,113.2,109.1,113.1,110z M115.6,94.2c-2.1-0.2-4.2-0.2-6.3-0.1c-0.5,0.2-1,0.3-1.1,0.9c-1.2,7.3,0.3,7.5,6.6,6.8
	C116.7,101,115.9,96,115.6,94.2z M111.9,99.6c-0.1,0-0.1,0-0.2-0.1c-2-0.7-2-2.6,0.4-3.3l0.7,0.4C113.7,98.1,113.4,98.8,111.9,99.6z
	 M114.3,88.9c-1.4-0.4-13.2-0.2-15.5-0.2c-0.1,0.8-0.2,1.6,0.3,2.3c1.4,0.5,13.2,0.2,15.5,0.2C114.6,90.4,114.7,89.6,114.3,88.9z
	 M105.2,96.5c0.6-3.5-4.6-2.5-7-2.4c-1.4,1.2-1.2,5.8-0.5,7.3c0.9,0.9,5,0.6,6.3,0.4C105.9,101.2,104.9,98,105.2,96.5z M102.6,99.2
	c-1.2,0.1-1.8,0.3-2.6-0.6c-0.1-0.8,0.1-1.6,0.2-2.4c0.4,0,0.8,0.1,1.2,0.2c0.9,0.2,1,0.3,1.4,0.9C102.9,98.1,102.8,98.4,102.6,99.2
	z M105,104.8c-1.1-0.1-2.7-0.2-3.8-0.2l-3.8,0.2c-0.1,2.1-0.2,5.3,0,7.4l3.9,0.2c1.1,0,2.5-0.1,3.7-0.2
	C105.1,109.7,105.2,107.3,105,104.8z M102.8,109.9c-1.1,0.1-1.7,0.2-2.6-0.3c-0.4-0.7-0.2-1.8-0.1-2.7c0.8,0,1.7,0,2.4,0.5
	C103,108.4,102.8,108.7,102.8,109.9z M90.3,75.5c-2.3-0.3-4.7-0.3-7-0.2c-1.2,1.4-0.7,5.7-0.5,7.6c2.5,0.2,4.2,0.2,6.7,0.1
	C91.1,82.2,90.4,77.2,90.3,75.5z M90.3,87.3c-2.1-0.1-5.1-0.2-7.2,0c-0.9,1.8-0.5,5.6-0.2,7.6c2.5,0.1,4.7,0.1,7.3,0
	C90.7,92.8,90.5,89.6,90.3,87.3z M87.2,92.9c-0.7,0-1.1,0-1.6-0.4c-0.8-1.5-0.7-2.1,0.9-2.8C88.4,90,88.7,91.9,87.2,92.9z M85,59.1
	c-0.9-2.8-3.8-4.3-6.6-3.5c-1.8,0.6-3.2,2.1-3.6,3.9c-0.4,1.9,0.2,3.8,1.6,5.1c1.4,1.3,3.4,1.7,5.2,1.1C84.4,64.9,85.9,61.9,85,59.1
	z M80.9,63c-1.3,0.5-2.8-0.1-3.3-1.4c-0.6-1.3,0-2.8,1.2-3.4c0.9-0.4,1.9-0.3,2.6,0.2c0.8,0.5,1.2,1.5,1.1,2.4
	C82.4,61.8,81.8,62.6,80.9,63z M77.2,75.6c-2.5-0.5-4.7-0.4-7.2-0.3c-1.1,1.3-0.5,5.8-0.4,7.6c2.6,0.1,4.3,0.2,6.9,0.1
	C77.8,82.1,77.2,77.2,77.2,75.6z M75.8,87.3c-1.6-0.3-4.2-0.1-6,0c-0.8,1.5-0.5,5.9-0.3,7.7c2.5,0.1,4.8,0.1,7.3,0
	C77.4,93.6,78,87.7,75.8,87.3z M74.4,92.5c-1.1,0.2-1.5,0.4-2.3-0.4c-0.2-0.8,0-1.7,0.1-2.5c1.4,0.2,2.2,0.1,2.7,1.5
	C74.9,91.8,74.8,92,74.4,92.5z M62.4,104.8c-0.8,0-3.4-0.2-4-0.1c-1.1,0-2.6,0.1-3.6,0.2c-0.1,2.3-0.1,5.1,0.1,7.4l4.8,0.2l2.7-0.2
	C62.5,109.7,62.6,107.3,62.4,104.8z M59.7,110c-0.6,0-1.1,0-1.7-0.1c-0.8-0.6-0.6-0.3-0.9-1.2c0.2-0.8,0.2-1.1,0.7-1.6
	c0.5,0,1,0,1.5,0c0.8,0.7,0.6,0.4,1,1.3C60.2,109.1,60.2,109.5,59.7,110z M62.4,94.1c-2.4-0.1-4.3-0.1-6.7,0c-1.6,1.3-1,5.6-0.8,7.6
	c2.2,0.2,4.4,0.3,6.6,0.1C63.2,101,62.5,95.9,62.4,94.1z M59.9,98.7c-0.4,0.8-1,0.7-1.8,0.8c-1.2-0.6-1.2-2.3-0.1-3
	c0,0,1.2-0.2,1.3-0.2l0.3,0.1C60.2,97.2,60.4,97.7,59.9,98.7z M61,88.9c-1.7-0.4-12.9-0.1-15.5-0.1c-0.1,0.8-0.2,1.5,0.2,2.2
	c1.4,0.6,13.3,0.3,15.5,0.3C61.2,90.4,61.4,89.5,61,88.9z M49.4,104.7c-0.5,0-1,0-1.5,0c-1.1,0.1-2.6,0.1-3.6,0.2
	c-0.4,2.6-0.3,4.7-0.1,7.3l4.4,0.2c1,0,2.3-0.1,3.2-0.2C52,109.4,53.3,104.8,49.4,104.7z M51.1,94.3c-1.1-0.5-4.5-0.3-5.9-0.2
	c-1,0.8-0.9,0.9-1.1,2.1c-0.9,6,1,6.2,6.6,5.6c0.3-0.1,0.7-0.1,0.9-0.4C52.2,100.2,52.5,94.9,51.1,94.3z M48.7,99.4l-1.3-0.2
	c-0.7-0.7-0.5-0.3-0.9-1.3c0.2-0.9,0.2-1.1,0.8-1.7c0.5,0,0.9,0.2,1.3,0.3c0.6,0.5,0.6,0.6,0.8,1.3C49.2,99,49.4,98.6,48.7,99.4z
	 M51.1,94.3c-1.1-0.5-4.5-0.3-5.9-0.2c-1,0.8-0.9,0.9-1.1,2.1c-0.9,6,1,6.2,6.6,5.6c0.3-0.1,0.7-0.1,0.9-0.4
	C52.2,100.2,52.5,94.9,51.1,94.3z M48.7,99.4l-1.3-0.2c-0.7-0.7-0.5-0.3-0.9-1.3c0.2-0.9,0.2-1.1,0.8-1.7c0.5,0,0.9,0.2,1.3,0.3
	c0.6,0.5,0.6,0.6,0.8,1.3C49.2,99,49.4,98.6,48.7,99.4z M49.4,104.7c-0.5,0-1,0-1.5,0c-1.1,0.1-2.6,0.1-3.6,0.2
	c-0.4,2.6-0.3,4.7-0.1,7.3l4.4,0.2c1,0,2.3-0.1,3.2-0.2C52,109.4,53.3,104.8,49.4,104.7z M61,88.9c-1.7-0.4-12.9-0.1-15.5-0.1
	c-0.1,0.8-0.2,1.5,0.2,2.2c1.4,0.6,13.3,0.3,15.5,0.3C61.2,90.4,61.4,89.5,61,88.9z M62.4,94.1c-2.4-0.1-4.3-0.1-6.7,0
	c-1.6,1.3-1,5.6-0.8,7.6c2.2,0.2,4.4,0.3,6.6,0.1C63.2,101,62.5,95.9,62.4,94.1z M59.9,98.7c-0.4,0.8-1,0.7-1.8,0.8
	c-1.2-0.6-1.2-2.3-0.1-3c0,0,1.2-0.2,1.3-0.2l0.3,0.1C60.2,97.2,60.4,97.7,59.9,98.7z M62.4,104.8c-0.8,0-3.4-0.2-4-0.1
	c-1.1,0-2.6,0.1-3.6,0.2c-0.1,2.3-0.1,5.1,0.1,7.4l4.8,0.2l2.7-0.2C62.5,109.7,62.6,107.3,62.4,104.8z M59.7,110
	c-0.6,0-1.1,0-1.7-0.1c-0.8-0.6-0.6-0.3-0.9-1.2c0.2-0.8,0.2-1.1,0.7-1.6c0.5,0,1,0,1.5,0c0.8,0.7,0.6,0.4,1,1.3
	C60.2,109.1,60.2,109.5,59.7,110z M85,59.1c-0.9-2.8-3.8-4.3-6.6-3.5c-1.8,0.6-3.2,2.1-3.6,3.9c-0.4,1.9,0.2,3.8,1.6,5.1
	c1.4,1.3,3.4,1.7,5.2,1.1C84.4,64.9,85.9,61.9,85,59.1z M80.9,63c-1.3,0.5-2.8-0.1-3.3-1.4c-0.6-1.3,0-2.8,1.2-3.4
	c0.9-0.4,1.9-0.3,2.6,0.2c0.8,0.5,1.2,1.5,1.1,2.4C82.4,61.8,81.8,62.6,80.9,63z M75.8,87.3c-1.6-0.3-4.2-0.1-6,0
	c-0.8,1.5-0.5,5.9-0.3,7.7c2.5,0.1,4.8,0.1,7.3,0C77.4,93.6,78,87.7,75.8,87.3z M74.4,92.5c-1.1,0.2-1.5,0.4-2.3-0.4
	c-0.2-0.8,0-1.7,0.1-2.5c1.4,0.2,2.2,0.1,2.7,1.5C74.9,91.8,74.8,92,74.4,92.5z M77.2,75.6c-2.5-0.5-4.7-0.4-7.2-0.3
	c-1.1,1.3-0.5,5.8-0.4,7.6c2.6,0.1,4.3,0.2,6.9,0.1C77.8,82.1,77.2,77.2,77.2,75.6z M90.3,87.3c-2.1-0.1-5.1-0.2-7.2,0
	c-0.9,1.8-0.5,5.6-0.2,7.6c2.5,0.1,4.7,0.1,7.3,0C90.7,92.8,90.5,89.6,90.3,87.3z M87.2,92.9c-0.7,0-1.1,0-1.6-0.4
	c-0.8-1.5-0.7-2.1,0.9-2.8C88.4,90,88.7,91.9,87.2,92.9z M90.3,75.5c-2.3-0.3-4.7-0.3-7-0.2c-1.2,1.4-0.7,5.7-0.5,7.6
	c2.5,0.2,4.2,0.2,6.7,0.1C91.1,82.2,90.4,77.2,90.3,75.5z M90.3,75.5c-2.3-0.3-4.7-0.3-7-0.2c-1.2,1.4-0.7,5.7-0.5,7.6
	c2.5,0.2,4.2,0.2,6.7,0.1C91.1,82.2,90.4,77.2,90.3,75.5z M90.3,87.3c-2.1-0.1-5.1-0.2-7.2,0c-0.9,1.8-0.5,5.6-0.2,7.6
	c2.5,0.1,4.7,0.1,7.3,0C90.7,92.8,90.5,89.6,90.3,87.3z M87.2,92.9c-0.7,0-1.1,0-1.6-0.4c-0.8-1.5-0.7-2.1,0.9-2.8
	C88.4,90,88.7,91.9,87.2,92.9z M85,59.1c-0.9-2.8-3.8-4.3-6.6-3.5c-1.8,0.6-3.2,2.1-3.6,3.9c-0.4,1.9,0.2,3.8,1.6,5.1
	c1.4,1.3,3.4,1.7,5.2,1.1C84.4,64.9,85.9,61.9,85,59.1z M80.9,63c-1.3,0.5-2.8-0.1-3.3-1.4c-0.6-1.3,0-2.8,1.2-3.4
	c0.9-0.4,1.9-0.3,2.6,0.2c0.8,0.5,1.2,1.5,1.1,2.4C82.4,61.8,81.8,62.6,80.9,63z M77.2,75.6c-2.5-0.5-4.7-0.4-7.2-0.3
	c-1.1,1.3-0.5,5.8-0.4,7.6c2.6,0.1,4.3,0.2,6.9,0.1C77.8,82.1,77.2,77.2,77.2,75.6z M75.8,87.3c-1.6-0.3-4.2-0.1-6,0
	c-0.8,1.5-0.5,5.9-0.3,7.7c2.5,0.1,4.8,0.1,7.3,0C77.4,93.6,78,87.7,75.8,87.3z M74.4,92.5c-1.1,0.2-1.5,0.4-2.3-0.4
	c-0.2-0.8,0-1.7,0.1-2.5c1.4,0.2,2.2,0.1,2.7,1.5C74.9,91.8,74.8,92,74.4,92.5z M62.4,104.8c-0.8,0-3.4-0.2-4-0.1
	c-1.1,0-2.6,0.1-3.6,0.2c-0.1,2.3-0.1,5.1,0.1,7.4l4.8,0.2l2.7-0.2C62.5,109.7,62.6,107.3,62.4,104.8z M59.7,110
	c-0.6,0-1.1,0-1.7-0.1c-0.8-0.6-0.6-0.3-0.9-1.2c0.2-0.8,0.2-1.1,0.7-1.6c0.5,0,1,0,1.5,0c0.8,0.7,0.6,0.4,1,1.3
	C60.2,109.1,60.2,109.5,59.7,110z M62.4,94.1c-2.4-0.1-4.3-0.1-6.7,0c-1.6,1.3-1,5.6-0.8,7.6c2.2,0.2,4.4,0.3,6.6,0.1
	C63.2,101,62.5,95.9,62.4,94.1z M59.9,98.7c-0.4,0.8-1,0.7-1.8,0.8c-1.2-0.6-1.2-2.3-0.1-3c0,0,1.2-0.2,1.3-0.2l0.3,0.1
	C60.2,97.2,60.4,97.7,59.9,98.7z M61,88.9c-1.7-0.4-12.9-0.1-15.5-0.1c-0.1,0.8-0.2,1.5,0.2,2.2c1.4,0.6,13.3,0.3,15.5,0.3
	C61.2,90.4,61.4,89.5,61,88.9z M49.4,104.7c-0.5,0-1,0-1.5,0c-1.1,0.1-2.6,0.1-3.6,0.2c-0.4,2.6-0.3,4.7-0.1,7.3l4.4,0.2
	c1,0,2.3-0.1,3.2-0.2C52,109.4,53.3,104.8,49.4,104.7z M51.1,94.3c-1.1-0.5-4.5-0.3-5.9-0.2c-1,0.8-0.9,0.9-1.1,2.1
	c-0.9,6,1,6.2,6.6,5.6c0.3-0.1,0.7-0.1,0.9-0.4C52.2,100.2,52.5,94.9,51.1,94.3z M48.7,99.4l-1.3-0.2c-0.7-0.7-0.5-0.3-0.9-1.3
	c0.2-0.9,0.2-1.1,0.8-1.7c0.5,0,0.9,0.2,1.3,0.3c0.6,0.5,0.6,0.6,0.8,1.3C49.2,99,49.4,98.6,48.7,99.4z M51.1,94.3
	c-1.1-0.5-4.5-0.3-5.9-0.2c-1,0.8-0.9,0.9-1.1,2.1c-0.9,6,1,6.2,6.6,5.6c0.3-0.1,0.7-0.1,0.9-0.4C52.2,100.2,52.5,94.9,51.1,94.3z
	 M48.7,99.4l-1.3-0.2c-0.7-0.7-0.5-0.3-0.9-1.3c0.2-0.9,0.2-1.1,0.8-1.7c0.5,0,0.9,0.2,1.3,0.3c0.6,0.5,0.6,0.6,0.8,1.3
	C49.2,99,49.4,98.6,48.7,99.4z M49.4,104.7c-0.5,0-1,0-1.5,0c-1.1,0.1-2.6,0.1-3.6,0.2c-0.4,2.6-0.3,4.7-0.1,7.3l4.4,0.2
	c1,0,2.3-0.1,3.2-0.2C52,109.4,53.3,104.8,49.4,104.7z M61,88.9c-1.7-0.4-12.9-0.1-15.5-0.1c-0.1,0.8-0.2,1.5,0.2,2.2
	c1.4,0.6,13.3,0.3,15.5,0.3C61.2,90.4,61.4,89.5,61,88.9z M62.4,94.1c-2.4-0.1-4.3-0.1-6.7,0c-1.6,1.3-1,5.6-0.8,7.6
	c2.2,0.2,4.4,0.3,6.6,0.1C63.2,101,62.5,95.9,62.4,94.1z M59.9,98.7c-0.4,0.8-1,0.7-1.8,0.8c-1.2-0.6-1.2-2.3-0.1-3
	c0,0,1.2-0.2,1.3-0.2l0.3,0.1C60.2,97.2,60.4,97.7,59.9,98.7z M62.4,104.8c-0.8,0-3.4-0.2-4-0.1c-1.1,0-2.6,0.1-3.6,0.2
	c-0.1,2.3-0.1,5.1,0.1,7.4l4.8,0.2l2.7-0.2C62.5,109.7,62.6,107.3,62.4,104.8z M59.7,110c-0.6,0-1.1,0-1.7-0.1
	c-0.8-0.6-0.6-0.3-0.9-1.2c0.2-0.8,0.2-1.1,0.7-1.6c0.5,0,1,0,1.5,0c0.8,0.7,0.6,0.4,1,1.3C60.2,109.1,60.2,109.5,59.7,110z
	 M85,59.1c-0.9-2.8-3.8-4.3-6.6-3.5c-1.8,0.6-3.2,2.1-3.6,3.9c-0.4,1.9,0.2,3.8,1.6,5.1c1.4,1.3,3.4,1.7,5.2,1.1
	C84.4,64.9,85.9,61.9,85,59.1z M80.9,63c-1.3,0.5-2.8-0.1-3.3-1.4c-0.6-1.3,0-2.8,1.2-3.4c0.9-0.4,1.9-0.3,2.6,0.2
	c0.8,0.5,1.2,1.5,1.1,2.4C82.4,61.8,81.8,62.6,80.9,63z M75.8,87.3c-1.6-0.3-4.2-0.1-6,0c-0.8,1.5-0.5,5.9-0.3,7.7
	c2.5,0.1,4.8,0.1,7.3,0C77.4,93.6,78,87.7,75.8,87.3z M74.4,92.5c-1.1,0.2-1.5,0.4-2.3-0.4c-0.2-0.8,0-1.7,0.1-2.5
	c1.4,0.2,2.2,0.1,2.7,1.5C74.9,91.8,74.8,92,74.4,92.5z M77.2,75.6c-2.5-0.5-4.7-0.4-7.2-0.3c-1.1,1.3-0.5,5.8-0.4,7.6
	c2.6,0.1,4.3,0.2,6.9,0.1C77.8,82.1,77.2,77.2,77.2,75.6z M90.3,87.3c-2.1-0.1-5.1-0.2-7.2,0c-0.9,1.8-0.5,5.6-0.2,7.6
	c2.5,0.1,4.7,0.1,7.3,0C90.7,92.8,90.5,89.6,90.3,87.3z M87.2,92.9c-0.7,0-1.1,0-1.6-0.4c-0.8-1.5-0.7-2.1,0.9-2.8
	C88.4,90,88.7,91.9,87.2,92.9z M90.3,75.5c-2.3-0.3-4.7-0.3-7-0.2c-1.2,1.4-0.7,5.7-0.5,7.6c2.5,0.2,4.2,0.2,6.7,0.1
	C91.1,82.2,90.4,77.2,90.3,75.5z M90.3,75.5c-2.3-0.3-4.7-0.3-7-0.2c-1.2,1.4-0.7,5.7-0.5,7.6c2.5,0.2,4.2,0.2,6.7,0.1
	C91.1,82.2,90.4,77.2,90.3,75.5z M90.3,87.3c-2.1-0.1-5.1-0.2-7.2,0c-0.9,1.8-0.5,5.6-0.2,7.6c2.5,0.1,4.7,0.1,7.3,0
	C90.7,92.8,90.5,89.6,90.3,87.3z M87.2,92.9c-0.7,0-1.1,0-1.6-0.4c-0.8-1.5-0.7-2.1,0.9-2.8C88.4,90,88.7,91.9,87.2,92.9z M85,59.1
	c-0.9-2.8-3.8-4.3-6.6-3.5c-1.8,0.6-3.2,2.1-3.6,3.9c-0.4,1.9,0.2,3.8,1.6,5.1c1.4,1.3,3.4,1.7,5.2,1.1C84.4,64.9,85.9,61.9,85,59.1
	z M80.9,63c-1.3,0.5-2.8-0.1-3.3-1.4c-0.6-1.3,0-2.8,1.2-3.4c0.9-0.4,1.9-0.3,2.6,0.2c0.8,0.5,1.2,1.5,1.1,2.4
	C82.4,61.8,81.8,62.6,80.9,63z M77.2,75.6c-2.5-0.5-4.7-0.4-7.2-0.3c-1.1,1.3-0.5,5.8-0.4,7.6c2.6,0.1,4.3,0.2,6.9,0.1
	C77.8,82.1,77.2,77.2,77.2,75.6z M75.8,87.3c-1.6-0.3-4.2-0.1-6,0c-0.8,1.5-0.5,5.9-0.3,7.7c2.5,0.1,4.8,0.1,7.3,0
	C77.4,93.6,78,87.7,75.8,87.3z M74.4,92.5c-1.1,0.2-1.5,0.4-2.3-0.4c-0.2-0.8,0-1.7,0.1-2.5c1.4,0.2,2.2,0.1,2.7,1.5
	C74.9,91.8,74.8,92,74.4,92.5z M62.4,104.8c-0.8,0-3.4-0.2-4-0.1c-1.1,0-2.6,0.1-3.6,0.2c-0.1,2.3-0.1,5.1,0.1,7.4l4.8,0.2l2.7-0.2
	C62.5,109.7,62.6,107.3,62.4,104.8z M59.7,110c-0.6,0-1.1,0-1.7-0.1c-0.8-0.6-0.6-0.3-0.9-1.2c0.2-0.8,0.2-1.1,0.7-1.6
	c0.5,0,1,0,1.5,0c0.8,0.7,0.6,0.4,1,1.3C60.2,109.1,60.2,109.5,59.7,110z M62.4,94.1c-2.4-0.1-4.3-0.1-6.7,0c-1.6,1.3-1,5.6-0.8,7.6
	c2.2,0.2,4.4,0.3,6.6,0.1C63.2,101,62.5,95.9,62.4,94.1z M59.9,98.7c-0.4,0.8-1,0.7-1.8,0.8c-1.2-0.6-1.2-2.3-0.1-3
	c0,0,1.2-0.2,1.3-0.2l0.3,0.1C60.2,97.2,60.4,97.7,59.9,98.7z M61,88.9c-1.7-0.4-12.9-0.1-15.5-0.1c-0.1,0.8-0.2,1.5,0.2,2.2
	c1.4,0.6,13.3,0.3,15.5,0.3C61.2,90.4,61.4,89.5,61,88.9z M49.4,104.7c-0.5,0-1,0-1.5,0c-1.1,0.1-2.6,0.1-3.6,0.2
	c-0.4,2.6-0.3,4.7-0.1,7.3l4.4,0.2c1,0,2.3-0.1,3.2-0.2C52,109.4,53.3,104.8,49.4,104.7z M51.1,94.3c-1.1-0.5-4.5-0.3-5.9-0.2
	c-1,0.8-0.9,0.9-1.1,2.1c-0.9,6,1,6.2,6.6,5.6c0.3-0.1,0.7-0.1,0.9-0.4C52.2,100.2,52.5,94.9,51.1,94.3z M48.7,99.4l-1.3-0.2
	c-0.7-0.7-0.5-0.3-0.9-1.3c0.2-0.9,0.2-1.1,0.8-1.7c0.5,0,0.9,0.2,1.3,0.3c0.6,0.5,0.6,0.6,0.8,1.3C49.2,99,49.4,98.6,48.7,99.4z
	 M51.1,94.3c-1.1-0.5-4.5-0.3-5.9-0.2c-1,0.8-0.9,0.9-1.1,2.1c-0.9,6,1,6.2,6.6,5.6c0.3-0.1,0.7-0.1,0.9-0.4
	C52.2,100.2,52.5,94.9,51.1,94.3z M48.7,99.4l-1.3-0.2c-0.7-0.7-0.5-0.3-0.9-1.3c0.2-0.9,0.2-1.1,0.8-1.7c0.5,0,0.9,0.2,1.3,0.3
	c0.6,0.5,0.6,0.6,0.8,1.3C49.2,99,49.4,98.6,48.7,99.4z M49.4,104.7c-0.5,0-1,0-1.5,0c-1.1,0.1-2.6,0.1-3.6,0.2
	c-0.4,2.6-0.3,4.7-0.1,7.3l4.4,0.2c1,0,2.3-0.1,3.2-0.2C52,109.4,53.3,104.8,49.4,104.7z M61,88.9c-1.7-0.4-12.9-0.1-15.5-0.1
	c-0.1,0.8-0.2,1.5,0.2,2.2c1.4,0.6,13.3,0.3,15.5,0.3C61.2,90.4,61.4,89.5,61,88.9z M62.4,94.1c-2.4-0.1-4.3-0.1-6.7,0
	c-1.6,1.3-1,5.6-0.8,7.6c2.2,0.2,4.4,0.3,6.6,0.1C63.2,101,62.5,95.9,62.4,94.1z M59.9,98.7c-0.4,0.8-1,0.7-1.8,0.8
	c-1.2-0.6-1.2-2.3-0.1-3c0,0,1.2-0.2,1.3-0.2l0.3,0.1C60.2,97.2,60.4,97.7,59.9,98.7z M62.4,104.8c-0.8,0-3.4-0.2-4-0.1
	c-1.1,0-2.6,0.1-3.6,0.2c-0.1,2.3-0.1,5.1,0.1,7.4l4.8,0.2l2.7-0.2C62.5,109.7,62.6,107.3,62.4,104.8z M59.7,110
	c-0.6,0-1.1,0-1.7-0.1c-0.8-0.6-0.6-0.3-0.9-1.2c0.2-0.8,0.2-1.1,0.7-1.6c0.5,0,1,0,1.5,0c0.8,0.7,0.6,0.4,1,1.3
	C60.2,109.1,60.2,109.5,59.7,110z M85,59.1c-0.9-2.8-3.8-4.3-6.6-3.5c-1.8,0.6-3.2,2.1-3.6,3.9c-0.4,1.9,0.2,3.8,1.6,5.1
	c1.4,1.3,3.4,1.7,5.2,1.1C84.4,64.9,85.9,61.9,85,59.1z M80.9,63c-1.3,0.5-2.8-0.1-3.3-1.4c-0.6-1.3,0-2.8,1.2-3.4
	c0.9-0.4,1.9-0.3,2.6,0.2c0.8,0.5,1.2,1.5,1.1,2.4C82.4,61.8,81.8,62.6,80.9,63z M75.8,87.3c-1.6-0.3-4.2-0.1-6,0
	c-0.8,1.5-0.5,5.9-0.3,7.7c2.5,0.1,4.8,0.1,7.3,0C77.4,93.6,78,87.7,75.8,87.3z M74.4,92.5c-1.1,0.2-1.5,0.4-2.3-0.4
	c-0.2-0.8,0-1.7,0.1-2.5c1.4,0.2,2.2,0.1,2.7,1.5C74.9,91.8,74.8,92,74.4,92.5z M77.2,75.6c-2.5-0.5-4.7-0.4-7.2-0.3
	c-1.1,1.3-0.5,5.8-0.4,7.6c2.6,0.1,4.3,0.2,6.9,0.1C77.8,82.1,77.2,77.2,77.2,75.6z M90.3,87.3c-2.1-0.1-5.1-0.2-7.2,0
	c-0.9,1.8-0.5,5.6-0.2,7.6c2.5,0.1,4.7,0.1,7.3,0C90.7,92.8,90.5,89.6,90.3,87.3z M87.2,92.9c-0.7,0-1.1,0-1.6-0.4
	c-0.8-1.5-0.7-2.1,0.9-2.8C88.4,90,88.7,91.9,87.2,92.9z M90.3,75.5c-2.3-0.3-4.7-0.3-7-0.2c-1.2,1.4-0.7,5.7-0.5,7.6
	c2.5,0.2,4.2,0.2,6.7,0.1C91.1,82.2,90.4,77.2,90.3,75.5z M90.3,75.5c-2.3-0.3-4.7-0.3-7-0.2c-1.2,1.4-0.7,5.7-0.5,7.6
	c2.5,0.2,4.2,0.2,6.7,0.1C91.1,82.2,90.4,77.2,90.3,75.5z M90.3,87.3c-2.1-0.1-5.1-0.2-7.2,0c-0.9,1.8-0.5,5.6-0.2,7.6
	c2.5,0.1,4.7,0.1,7.3,0C90.7,92.8,90.5,89.6,90.3,87.3z M87.2,92.9c-0.7,0-1.1,0-1.6-0.4c-0.8-1.5-0.7-2.1,0.9-2.8
	C88.4,90,88.7,91.9,87.2,92.9z M85,59.1c-0.9-2.8-3.8-4.3-6.6-3.5c-1.8,0.6-3.2,2.1-3.6,3.9c-0.4,1.9,0.2,3.8,1.6,5.1
	c1.4,1.3,3.4,1.7,5.2,1.1C84.4,64.9,85.9,61.9,85,59.1z M80.9,63c-1.3,0.5-2.8-0.1-3.3-1.4c-0.6-1.3,0-2.8,1.2-3.4
	c0.9-0.4,1.9-0.3,2.6,0.2c0.8,0.5,1.2,1.5,1.1,2.4C82.4,61.8,81.8,62.6,80.9,63z M77.2,75.6c-2.5-0.5-4.7-0.4-7.2-0.3
	c-1.1,1.3-0.5,5.8-0.4,7.6c2.6,0.1,4.3,0.2,6.9,0.1C77.8,82.1,77.2,77.2,77.2,75.6z M75.8,87.3c-1.6-0.3-4.2-0.1-6,0
	c-0.8,1.5-0.5,5.9-0.3,7.7c2.5,0.1,4.8,0.1,7.3,0C77.4,93.6,78,87.7,75.8,87.3z M74.4,92.5c-1.1,0.2-1.5,0.4-2.3-0.4
	c-0.2-0.8,0-1.7,0.1-2.5c1.4,0.2,2.2,0.1,2.7,1.5C74.9,91.8,74.8,92,74.4,92.5z M62.4,104.8c-0.8,0-3.4-0.2-4-0.1
	c-1.1,0-2.6,0.1-3.6,0.2c-0.1,2.3-0.1,5.1,0.1,7.4l4.8,0.2l2.7-0.2C62.5,109.7,62.6,107.3,62.4,104.8z M59.7,110
	c-0.6,0-1.1,0-1.7-0.1c-0.8-0.6-0.6-0.3-0.9-1.2c0.2-0.8,0.2-1.1,0.7-1.6c0.5,0,1,0,1.5,0c0.8,0.7,0.6,0.4,1,1.3
	C60.2,109.1,60.2,109.5,59.7,110z M62.4,94.1c-2.4-0.1-4.3-0.1-6.7,0c-1.6,1.3-1,5.6-0.8,7.6c2.2,0.2,4.4,0.3,6.6,0.1
	C63.2,101,62.5,95.9,62.4,94.1z M59.9,98.7c-0.4,0.8-1,0.7-1.8,0.8c-1.2-0.6-1.2-2.3-0.1-3c0,0,1.2-0.2,1.3-0.2l0.3,0.1
	C60.2,97.2,60.4,97.7,59.9,98.7z M61,88.9c-1.7-0.4-12.9-0.1-15.5-0.1c-0.1,0.8-0.2,1.5,0.2,2.2c1.4,0.6,13.3,0.3,15.5,0.3
	C61.2,90.4,61.4,89.5,61,88.9z M49.4,104.7c-0.5,0-1,0-1.5,0c-1.1,0.1-2.6,0.1-3.6,0.2c-0.4,2.6-0.3,4.7-0.1,7.3l4.4,0.2
	c1,0,2.3-0.1,3.2-0.2C52,109.4,53.3,104.8,49.4,104.7z M51.1,94.3c-1.1-0.5-4.5-0.3-5.9-0.2c-1,0.8-0.9,0.9-1.1,2.1
	c-0.9,6,1,6.2,6.6,5.6c0.3-0.1,0.7-0.1,0.9-0.4C52.2,100.2,52.5,94.9,51.1,94.3z M48.7,99.4l-1.3-0.2c-0.7-0.7-0.5-0.3-0.9-1.3
	c0.2-0.9,0.2-1.1,0.8-1.7c0.5,0,0.9,0.2,1.3,0.3c0.6,0.5,0.6,0.6,0.8,1.3C49.2,99,49.4,98.6,48.7,99.4z M85,59.1
	c-0.9-2.8-3.8-4.3-6.6-3.5c-1.8,0.6-3.2,2.1-3.6,3.9c-0.4,1.9,0.2,3.8,1.6,5.1c1.4,1.3,3.4,1.7,5.2,1.1C84.4,64.9,85.9,61.9,85,59.1
	z M80.9,63c-1.3,0.5-2.8-0.1-3.3-1.4c-0.6-1.3,0-2.8,1.2-3.4c0.9-0.4,1.9-0.3,2.6,0.2c0.8,0.5,1.2,1.5,1.1,2.4
	C82.4,61.8,81.8,62.6,80.9,63z M75.8,87.3c-1.6-0.3-4.2-0.1-6,0c-0.8,1.5-0.5,5.9-0.3,7.7c2.5,0.1,4.8,0.1,7.3,0
	C77.4,93.6,78,87.7,75.8,87.3z M74.4,92.5c-1.1,0.2-1.5,0.4-2.3-0.4c-0.2-0.8,0-1.7,0.1-2.5c1.4,0.2,2.2,0.1,2.7,1.5
	C74.9,91.8,74.8,92,74.4,92.5z M77.2,75.6c-2.5-0.5-4.7-0.4-7.2-0.3c-1.1,1.3-0.5,5.8-0.4,7.6c2.6,0.1,4.3,0.2,6.9,0.1
	C77.8,82.1,77.2,77.2,77.2,75.6z M90.3,87.3c-2.1-0.1-5.1-0.2-7.2,0c-0.9,1.8-0.5,5.6-0.2,7.6c2.5,0.1,4.7,0.1,7.3,0
	C90.7,92.8,90.5,89.6,90.3,87.3z M87.2,92.9c-0.7,0-1.1,0-1.6-0.4c-0.8-1.5-0.7-2.1,0.9-2.8C88.4,90,88.7,91.9,87.2,92.9z
	 M90.3,75.5c-2.3-0.3-4.7-0.3-7-0.2c-1.2,1.4-0.7,5.7-0.5,7.6c2.5,0.2,4.2,0.2,6.7,0.1C91.1,82.2,90.4,77.2,90.3,75.5z M90.3,75.5
	c-2.3-0.3-4.7-0.3-7-0.2c-1.2,1.4-0.7,5.7-0.5,7.6c2.5,0.2,4.2,0.2,6.7,0.1C91.1,82.2,90.4,77.2,90.3,75.5z M90.3,87.3
	c-2.1-0.1-5.1-0.2-7.2,0c-0.9,1.8-0.5,5.6-0.2,7.6c2.5,0.1,4.7,0.1,7.3,0C90.7,92.8,90.5,89.6,90.3,87.3z M87.2,92.9
	c-0.7,0-1.1,0-1.6-0.4c-0.8-1.5-0.7-2.1,0.9-2.8C88.4,90,88.7,91.9,87.2,92.9z M85,59.1c-0.9-2.8-3.8-4.3-6.6-3.5
	c-1.8,0.6-3.2,2.1-3.6,3.9c-0.4,1.9,0.2,3.8,1.6,5.1c1.4,1.3,3.4,1.7,5.2,1.1C84.4,64.9,85.9,61.9,85,59.1z M80.9,63
	c-1.3,0.5-2.8-0.1-3.3-1.4c-0.6-1.3,0-2.8,1.2-3.4c0.9-0.4,1.9-0.3,2.6,0.2c0.8,0.5,1.2,1.5,1.1,2.4C82.4,61.8,81.8,62.6,80.9,63z
	 M77.2,75.6c-2.5-0.5-4.7-0.4-7.2-0.3c-1.1,1.3-0.5,5.8-0.4,7.6c2.6,0.1,4.3,0.2,6.9,0.1C77.8,82.1,77.2,77.2,77.2,75.6z M75.8,87.3
	c-1.6-0.3-4.2-0.1-6,0c-0.8,1.5-0.5,5.9-0.3,7.7c2.5,0.1,4.8,0.1,7.3,0C77.4,93.6,78,87.7,75.8,87.3z M74.4,92.5
	c-1.1,0.2-1.5,0.4-2.3-0.4c-0.2-0.8,0-1.7,0.1-2.5c1.4,0.2,2.2,0.1,2.7,1.5C74.9,91.8,74.8,92,74.4,92.5z M85,59.1
	c-0.9-2.8-3.8-4.3-6.6-3.5c-1.8,0.6-3.2,2.1-3.6,3.9c-0.4,1.9,0.2,3.8,1.6,5.1c1.4,1.3,3.4,1.7,5.2,1.1C84.4,64.9,85.9,61.9,85,59.1
	z M80.9,63c-1.3,0.5-2.8-0.1-3.3-1.4c-0.6-1.3,0-2.8,1.2-3.4c0.9-0.4,1.9-0.3,2.6,0.2c0.8,0.5,1.2,1.5,1.1,2.4
	C82.4,61.8,81.8,62.6,80.9,63z M75.8,87.3c-1.6-0.3-4.2-0.1-6,0c-0.8,1.5-0.5,5.9-0.3,7.7c2.5,0.1,4.8,0.1,7.3,0
	C77.4,93.6,78,87.7,75.8,87.3z M74.4,92.5c-1.1,0.2-1.5,0.4-2.3-0.4c-0.2-0.8,0-1.7,0.1-2.5c1.4,0.2,2.2,0.1,2.7,1.5
	C74.9,91.8,74.8,92,74.4,92.5z M77.2,75.6c-2.5-0.5-4.7-0.4-7.2-0.3c-1.1,1.3-0.5,5.8-0.4,7.6c2.6,0.1,4.3,0.2,6.9,0.1
	C77.8,82.1,77.2,77.2,77.2,75.6z M90.3,87.3c-2.1-0.1-5.1-0.2-7.2,0c-0.9,1.8-0.5,5.6-0.2,7.6c2.5,0.1,4.7,0.1,7.3,0
	C90.7,92.8,90.5,89.6,90.3,87.3z M87.2,92.9c-0.7,0-1.1,0-1.6-0.4c-0.8-1.5-0.7-2.1,0.9-2.8C88.4,90,88.7,91.9,87.2,92.9z
	 M90.3,75.5c-2.3-0.3-4.7-0.3-7-0.2c-1.2,1.4-0.7,5.7-0.5,7.6c2.5,0.2,4.2,0.2,6.7,0.1C91.1,82.2,90.4,77.2,90.3,75.5z M90.3,75.5
	c-2.3-0.3-4.7-0.3-7-0.2c-1.2,1.4-0.7,5.7-0.5,7.6c2.5,0.2,4.2,0.2,6.7,0.1C91.1,82.2,90.4,77.2,90.3,75.5z M90.3,87.3
	c-2.1-0.1-5.1-0.2-7.2,0c-0.9,1.8-0.5,5.6-0.2,7.6c2.5,0.1,4.7,0.1,7.3,0C90.7,92.8,90.5,89.6,90.3,87.3z M87.2,92.9
	c-0.7,0-1.1,0-1.6-0.4c-0.8-1.5-0.7-2.1,0.9-2.8C88.4,90,88.7,91.9,87.2,92.9z M85,59.1c-0.9-2.8-3.8-4.3-6.6-3.5
	c-1.8,0.6-3.2,2.1-3.6,3.9c-0.4,1.9,0.2,3.8,1.6,5.1c1.4,1.3,3.4,1.7,5.2,1.1C84.4,64.9,85.9,61.9,85,59.1z M80.9,63
	c-1.3,0.5-2.8-0.1-3.3-1.4c-0.6-1.3,0-2.8,1.2-3.4c0.9-0.4,1.9-0.3,2.6,0.2c0.8,0.5,1.2,1.5,1.1,2.4C82.4,61.8,81.8,62.6,80.9,63z
	 M77.2,75.6c-2.5-0.5-4.7-0.4-7.2-0.3c-1.1,1.3-0.5,5.8-0.4,7.6c2.6,0.1,4.3,0.2,6.9,0.1C77.8,82.1,77.2,77.2,77.2,75.6z M75.8,87.3
	c-1.6-0.3-4.2-0.1-6,0c-0.8,1.5-0.5,5.9-0.3,7.7c2.5,0.1,4.8,0.1,7.3,0C77.4,93.6,78,87.7,75.8,87.3z M74.4,92.5
	c-1.1,0.2-1.5,0.4-2.3-0.4c-0.2-0.8,0-1.7,0.1-2.5c1.4,0.2,2.2,0.1,2.7,1.5C74.9,91.8,74.8,92,74.4,92.5z M85,59.1
	c-0.9-2.8-3.8-4.3-6.6-3.5c-1.8,0.6-3.2,2.1-3.6,3.9c-0.4,1.9,0.2,3.8,1.6,5.1c1.4,1.3,3.4,1.7,5.2,1.1C84.4,64.9,85.9,61.9,85,59.1
	z M80.9,63c-1.3,0.5-2.8-0.1-3.3-1.4c-0.6-1.3,0-2.8,1.2-3.4c0.9-0.4,1.9-0.3,2.6,0.2c0.8,0.5,1.2,1.5,1.1,2.4
	C82.4,61.8,81.8,62.6,80.9,63z M85,59.1c-0.9-2.8-3.8-4.3-6.6-3.5c-1.8,0.6-3.2,2.1-3.6,3.9c-0.4,1.9,0.2,3.8,1.6,5.1
	c1.4,1.3,3.4,1.7,5.2,1.1C84.4,64.9,85.9,61.9,85,59.1z M80.9,63c-1.3,0.5-2.8-0.1-3.3-1.4c-0.6-1.3,0-2.8,1.2-3.4
	c0.9-0.4,1.9-0.3,2.6,0.2c0.8,0.5,1.2,1.5,1.1,2.4C82.4,61.8,81.8,62.6,80.9,63z"/>
<path class="st1" d="M75.8,87.3c-1.6-0.3-4.2-0.1-6,0c-0.8,1.5-0.5,5.9-0.3,7.7c2.5,0.1,4.8,0.1,7.3,0C77.4,93.6,78,87.7,75.8,87.3z
	 M74.4,92.5c-1.1,0.2-1.5,0.4-2.3-0.4c-0.2-0.8,0-1.7,0.1-2.5c1.4,0.2,2.2,0.1,2.7,1.5C74.9,91.8,74.8,92,74.4,92.5z"/>
<path class="st1" d="M69.6,83c-0.2-1.8-0.7-6.3,0.4-7.6c2.5-0.1,4.8-0.2,7.2,0.3c0.1,1.6,0.6,6.5-0.7,7.4
	C73.9,83.1,72.2,83.1,69.6,83z"/>
<path class="st1" d="M90.3,87.3c-2.1-0.1-5.1-0.2-7.2,0c-0.9,1.8-0.5,5.6-0.2,7.6c2.5,0.1,4.7,0.1,7.3,0
	C90.7,92.8,90.5,89.6,90.3,87.3z M87.2,92.9c-0.7,0-1.1,0-1.6-0.4c-0.8-1.5-0.7-2.1,0.9-2.8C88.4,90,88.7,91.9,87.2,92.9z"/>
<path class="st1" d="M82.8,83c-0.3-1.9-0.8-6.2,0.5-7.6c2.3-0.2,4.7-0.1,7,0.2c0.1,1.7,0.8,6.7-0.8,7.5C87.1,83.2,85.3,83.1,82.8,83
	z"/>
<path class="st0" d="M89.5,83c-2.5,0.1-4.2,0.1-6.7-0.1c-0.3-1.9-0.8-6.2,0.5-7.6c2.3-0.2,4.7-0.1,7,0.2
	C90.4,77.2,91.1,82.2,89.5,83z"/>
<path class="st0" d="M90.3,87.3c-2.1-0.1-5.1-0.2-7.2,0c-0.9,1.8-0.5,5.6-0.2,7.6c2.5,0.1,4.7,0.1,7.3,0
	C90.7,92.8,90.5,89.6,90.3,87.3z M87.2,92.9c-0.7,0-1.1,0-1.6-0.4c-0.8-1.5-0.7-2.1,0.9-2.8C88.4,90,88.7,91.9,87.2,92.9z"/>
<path class="st0" d="M76.5,83c-2.6,0.1-4.3,0.1-6.9-0.1c-0.2-1.8-0.7-6.3,0.4-7.6c2.5-0.1,4.8-0.2,7.2,0.3
	C77.2,77.2,77.8,82.1,76.5,83z"/>
<path class="st0" d="M75.8,87.3c-1.6-0.3-4.2-0.1-6,0c-0.8,1.5-0.5,5.9-0.3,7.7c2.5,0.1,4.8,0.1,7.3,0C77.4,93.6,78,87.7,75.8,87.3z
	 M74.4,92.5c-1.1,0.2-1.5,0.4-2.3-0.4c-0.2-0.8,0-1.7,0.1-2.5c1.4,0.2,2.2,0.1,2.7,1.5C74.9,91.8,74.8,92,74.4,92.5z"/>
<path class="st1" d="M51.1,94.3c-1.1-0.5-4.5-0.3-5.9-0.2c-1,0.8-0.9,0.9-1.1,2.1c-0.9,6,1,6.2,6.6,5.6c0.3-0.1,0.7-0.1,0.9-0.4
	C52.2,100.2,52.5,94.9,51.1,94.3z M48.7,99.4l-1.3-0.2c-0.7-0.7-0.5-0.3-0.9-1.3c0.2-0.9,0.2-1.1,0.8-1.7c0.5,0,0.9,0.2,1.3,0.3
	c0.6,0.5,0.6,0.6,0.8,1.3C49.2,99,49.4,98.6,48.7,99.4z"/>
<path class="st1" d="M51.8,112.2c-1,0.1-2.2,0.1-3.2,0.2l-4.4-0.2c-0.3-2.6-0.3-4.7,0.1-7.3c1-0.1,2.6-0.2,3.6-0.2c0.5,0,1,0,1.5,0
	C53.3,104.8,52,109.4,51.8,112.2z"/>
<path class="st1" d="M61.2,91.2c-2.3,0-14.2,0.3-15.5-0.3c-0.4-0.7-0.3-1.4-0.2-2.2c2.6,0,13.8-0.2,15.5,0.1
	C61.4,89.5,61.2,90.4,61.2,91.2z"/>
<path class="st1" d="M62.4,94.1c-2.4-0.1-4.3-0.1-6.7,0c-1.6,1.3-1,5.6-0.8,7.6c2.2,0.2,4.4,0.3,6.6,0.1
	C63.2,101,62.5,95.9,62.4,94.1z M59.9,98.7c-0.4,0.8-1,0.7-1.8,0.8c-1.2-0.6-1.2-2.3-0.1-3c0,0,1.2-0.2,1.3-0.2l0.3,0.1
	C60.2,97.2,60.4,97.7,59.9,98.7z"/>
<path class="st1" d="M62.4,104.8c-0.8,0-3.4-0.2-4-0.1c-1.1,0-2.6,0.1-3.6,0.2c-0.1,2.3-0.1,5.1,0.1,7.4l4.8,0.2l2.7-0.2
	C62.5,109.7,62.6,107.3,62.4,104.8z M59.7,110c-0.6,0-1.1,0-1.7-0.1c-0.8-0.6-0.6-0.3-0.9-1.2c0.2-0.8,0.2-1.1,0.7-1.6
	c0.5,0,1,0,1.5,0c0.8,0.7,0.6,0.4,1,1.3C60.2,109.1,60.2,109.5,59.7,110z"/>
<path class="st0" d="M51.1,94.3c-1.1-0.5-4.5-0.3-5.9-0.2c-1,0.8-0.9,0.9-1.1,2.1c-0.9,6,1,6.2,6.6,5.6c0.3-0.1,0.7-0.1,0.9-0.4
	C52.2,100.2,52.5,94.9,51.1,94.3z M48.7,99.4l-1.3-0.2c-0.7-0.7-0.5-0.3-0.9-1.3c0.2-0.9,0.2-1.1,0.8-1.7c0.5,0,0.9,0.2,1.3,0.3
	c0.6,0.5,0.6,0.6,0.8,1.3C49.2,99,49.4,98.6,48.7,99.4z"/>
<path class="st0" d="M62.4,94.1c-2.4-0.1-4.3-0.1-6.7,0c-1.6,1.3-1,5.6-0.8,7.6c2.2,0.2,4.4,0.3,6.6,0.1
	C63.2,101,62.5,95.9,62.4,94.1z M59.9,98.7c-0.4,0.8-1,0.7-1.8,0.8c-1.2-0.6-1.2-2.3-0.1-3c0,0,1.2-0.2,1.3-0.2l0.3,0.1
	C60.2,97.2,60.4,97.7,59.9,98.7z"/>
<path class="st0" d="M51.8,112.2c-1,0.1-2.2,0.1-3.2,0.2l-4.4-0.2c-0.3-2.6-0.3-4.7,0.1-7.3c1-0.1,2.6-0.2,3.6-0.2c0.5,0,1,0,1.5,0
	C53.3,104.8,52,109.4,51.8,112.2z"/>
<path class="st0" d="M62.4,104.8c-0.8,0-3.4-0.2-4-0.1c-1.1,0-2.6,0.1-3.6,0.2c-0.1,2.3-0.1,5.1,0.1,7.4l4.8,0.2l2.7-0.2
	C62.5,109.7,62.6,107.3,62.4,104.8z M59.7,110c-0.6,0-1.1,0-1.7-0.1c-0.8-0.6-0.6-0.3-0.9-1.2c0.2-0.8,0.2-1.1,0.7-1.6
	c0.5,0,1,0,1.5,0c0.8,0.7,0.6,0.4,1,1.3C60.2,109.1,60.2,109.5,59.7,110z"/>
<path class="st0" d="M61.2,91.2c-2.3,0-14.2,0.3-15.5-0.3c-0.4-0.7-0.3-1.4-0.2-2.2c2.6,0,13.8-0.2,15.5,0.1
	C61.4,89.5,61.2,90.4,61.2,91.2z"/>
<path class="st1" d="M105,104.8c-1.1-0.1-2.7-0.2-3.8-0.2l-3.8,0.2c-0.1,2.1-0.2,5.3,0,7.4l3.9,0.2c1.1,0,2.5-0.1,3.7-0.2
	C105.1,109.7,105.2,107.3,105,104.8z M102.8,109.9c-1.1,0.1-1.7,0.2-2.6-0.3c-0.4-0.7-0.2-1.8-0.1-2.7c0.8,0,1.7,0,2.4,0.5
	C103,108.4,102.8,108.7,102.8,109.9z"/>
<path class="st1" d="M105.2,96.5c0.6-3.5-4.6-2.5-7-2.4c-1.4,1.2-1.2,5.8-0.5,7.3c0.9,0.9,5,0.6,6.3,0.4
	C105.9,101.2,104.9,98,105.2,96.5z M102.6,99.2c-1.2,0.1-1.8,0.3-2.6-0.6c-0.1-0.8,0.1-1.6,0.2-2.4c0.4,0,0.8,0.1,1.2,0.2
	c0.9,0.2,1,0.3,1.4,0.9C102.9,98.1,102.8,98.4,102.6,99.2z"/>
<path class="st1" d="M99.1,91c-0.5-0.6-0.3-1.4-0.3-2.3c2.3,0,14.1-0.2,15.5,0.2c0.4,0.7,0.3,1.4,0.3,2.2
	C112.2,91.2,100.5,91.5,99.1,91z"/>
<path class="st1" d="M115.6,94.2c-2.1-0.2-4.2-0.2-6.3-0.1c-0.5,0.2-1,0.3-1.1,0.9c-1.2,7.3,0.3,7.5,6.6,6.8
	C116.7,101,115.9,96,115.6,94.2z M111.9,99.6c-0.1,0-0.1,0-0.2-0.1c-2-0.7-2-2.6,0.4-3.3l0.7,0.4C113.7,98.1,113.4,98.8,111.9,99.6z
	"/>
<path class="st1" d="M115.7,104.8c-0.8,0-3.4-0.2-4.1-0.2c-0.8,0-2.4-0.2-3,0.4c-1.4,1.4-0.7,5.2-0.5,7.1c1.5,0.1,2.9,0.1,4.4,0.2
	c0.7,0,2.2,0.1,2.6-0.4C116.6,110.4,116,106.8,115.7,104.8z M113.1,110c-1.3,0.1-2.1,0.3-2.8-0.9c0-0.9,0.1-1.2,0.4-2
	c1.3-0.1,1.5-0.2,2.4,0.7C113.3,108.6,113.2,109.1,113.1,110z"/>
<path class="st0" d="M115.6,94.2c-2.1-0.2-4.2-0.2-6.3-0.1c-0.5,0.2-1,0.3-1.1,0.9c-1.2,7.3,0.3,7.5,6.6,6.8
	C116.7,101,115.9,96,115.6,94.2z M111.9,99.6c-0.1,0-0.1,0-0.2-0.1c-2-0.7-2-2.6,0.4-3.3l0.7,0.4C113.7,98.1,113.4,98.8,111.9,99.6z
	"/>
<path class="st0" d="M105.2,96.5c0.6-3.5-4.6-2.5-7-2.4c-1.4,1.2-1.2,5.8-0.5,7.3c0.9,0.9,5,0.6,6.3,0.4
	C105.9,101.2,104.9,98,105.2,96.5z M102.6,99.2c-1.2,0.1-1.8,0.3-2.6-0.6c-0.1-0.8,0.1-1.6,0.2-2.4c0.4,0,0.8,0.1,1.2,0.2
	c0.9,0.2,1,0.3,1.4,0.9C102.9,98.1,102.8,98.4,102.6,99.2z"/>
<path class="st0" d="M115.7,104.8c-0.8,0-3.4-0.2-4.1-0.2c-0.8,0-2.4-0.2-3,0.4c-1.4,1.4-0.7,5.2-0.5,7.1c1.5,0.1,2.9,0.1,4.4,0.2
	c0.7,0,2.2,0.1,2.6-0.4C116.6,110.4,116,106.8,115.7,104.8z M113.1,110c-1.3,0.1-2.1,0.3-2.8-0.9c0-0.9,0.1-1.2,0.4-2
	c1.3-0.1,1.5-0.2,2.4,0.7C113.3,108.6,113.2,109.1,113.1,110z"/>
<path class="st0" d="M105,104.8c-1.1-0.1-2.7-0.2-3.8-0.2l-3.8,0.2c-0.1,2.1-0.2,5.3,0,7.4l3.9,0.2c1.1,0,2.5-0.1,3.7-0.2
	C105.1,109.7,105.2,107.3,105,104.8z M102.8,109.9c-1.1,0.1-1.7,0.2-2.6-0.3c-0.4-0.7-0.2-1.8-0.1-2.7c0.8,0,1.7,0,2.4,0.5
	C103,108.4,102.8,108.7,102.8,109.9z"/>
<path class="st0" d="M114.5,91.2c-2.3,0-14.1,0.4-15.5-0.2c-0.5-0.6-0.3-1.4-0.3-2.3c2.3,0,14.1-0.2,15.5,0.2
	C114.7,89.6,114.6,90.4,114.5,91.2z"/>
<path class="st1" d="M85,59.1c-0.9-2.8-3.8-4.3-6.6-3.5c-1.8,0.6-3.2,2.1-3.6,3.9c-0.4,1.9,0.2,3.8,1.6,5.1c1.4,1.3,3.4,1.7,5.2,1.1
	C84.4,64.9,85.9,61.9,85,59.1z M80.9,63c-1.3,0.5-2.8-0.1-3.3-1.4c-0.6-1.3,0-2.8,1.2-3.4c0.9-0.4,1.9-0.3,2.6,0.2
	c0.8,0.5,1.2,1.5,1.1,2.4C82.4,61.8,81.8,62.6,80.9,63z"/>
<path class="st0" d="M85,59.1c-0.9-2.8-3.8-4.3-6.6-3.5c-1.8,0.6-3.2,2.1-3.6,3.9c-0.4,1.9,0.2,3.8,1.6,5.1c1.4,1.3,3.4,1.7,5.2,1.1
	C84.4,64.9,85.9,61.9,85,59.1z M80.9,63c-1.3,0.5-2.8-0.1-3.3-1.4c-0.6-1.3,0-2.8,1.2-3.4c0.9-0.4,1.9-0.3,2.6,0.2
	c0.8,0.5,1.2,1.5,1.1,2.4C82.4,61.8,81.8,62.6,80.9,63z"/>
</svg>
