<svg width="22" height="21" viewBox="0 0 22 21" fill="none" xmlns="http://www.w3.org/2000/svg">
<path d="M1 1H7C8.06087 1 9.07828 1.42626 9.82843 2.18502C10.5786 2.94377 11 3.97286 11 5.0459V19.2066C11 18.4018 10.6839 17.63 10.1213 17.0609C9.55871 16.4918 8.79565 16.1721 8 16.1721H1V1Z" stroke="#F3F3F3" stroke-width="2" stroke-linecap="round" stroke-linejoin="round"/>
<path d="M21 1H15C13.9391 1 12.9217 1.42626 12.1716 2.18502C11.4214 2.94377 11 3.97286 11 5.0459V19.2066C11 18.4018 11.3161 17.63 11.8787 17.0609C12.4413 16.4918 13.2044 16.1721 14 16.1721H21V1Z" stroke="#F3F3F3" stroke-width="2" stroke-linecap="round" stroke-linejoin="round"/>
</svg>
