<svg width="153" height="153" viewBox="0 0 153 153" fill="none" xmlns="http://www.w3.org/2000/svg">
<path d="M152.389 97.9019C152.27 98.4178 152.151 98.9337 152.071 99.4892C151.595 101.95 150.325 103.696 147.984 104.767C143.658 106.752 141.476 112.03 143.103 116.435C143.936 118.697 143.817 120.919 142.23 122.744C140.404 124.808 138.38 126.753 136.277 128.499C134.531 129.967 132.427 130.046 130.245 129.213C125.562 127.427 120.403 129.53 118.22 134.134C117.308 136.078 115.839 137.507 113.776 137.666C110.76 137.904 107.664 137.825 104.609 137.547C102.505 137.388 101.116 135.88 100.204 133.935C98.1003 129.332 92.9413 127.149 88.2585 128.856C85.9965 129.689 83.8535 129.451 82.1074 127.943C80.0835 126.197 78.1786 124.292 76.4722 122.268C74.8848 120.403 74.7261 118.181 75.6388 115.839C77.3849 111.434 75.1626 106.037 70.8767 104.172C68.4956 103.14 67.186 101.394 66.9479 98.8543C66.7495 96.8701 66.7098 94.9255 66.5907 92.7825C65.7177 92.6238 64.7255 92.4651 63.7731 92.3063C59.2094 91.473 55.0822 89.6078 51.4312 86.7108C50.7169 86.1155 50.1216 86.1155 49.2882 86.3536C26.3506 93.2984 3.21445 78.1389 0.238107 54.2488C0.198423 53.8917 0.0793692 53.5742 0 53.2567C0 51.0741 0 48.8914 0 46.7088C0.119054 45.9547 0.277792 45.1611 0.396846 44.407C3.65098 24.6838 20.001 11.2704 40.0021 11.8657C40.7164 11.9054 41.6291 11.5085 42.145 11.0323C47.5421 5.79395 53.8917 2.34139 61.273 0.833376C62.781 0.5159 64.2493 0.277792 65.7573 0C67.94 0 70.1227 0 72.3053 0C72.5831 0.0793692 72.8609 0.198423 73.1387 0.238107C81.5518 1.15085 88.8141 4.56373 95.0446 10.2783C95.2827 10.5164 95.5605 10.7148 95.8383 10.9133C96.1954 10.6355 96.4335 10.437 96.7113 10.1989C104.37 4.32562 112.744 2.89697 121.594 6.86543C130.483 10.8339 135.047 18.0565 135.761 27.7395C135.801 28.3745 136.237 29.1285 136.713 29.4856C143.896 34.8431 148.698 41.7879 151.04 50.4391C151.635 52.6217 151.952 54.8838 152.389 57.1061C152.389 59.2888 152.389 61.4714 152.389 63.6541C152.309 63.9715 152.151 64.289 152.111 64.6065C151.397 70.7576 149.333 76.3928 145.92 81.5518C144.611 83.4964 144.73 83.9726 146.793 85.1234C147.15 85.3218 147.508 85.4806 147.865 85.6393C150.325 86.5917 151.555 88.4569 152.032 90.9571C152.151 91.473 152.27 91.9889 152.389 92.5048C152.389 94.3302 152.389 96.0764 152.389 97.9019ZM92.5841 14.5246C92.4254 14.3261 92.3063 14.1674 92.1476 14.0483C83.5757 6.15111 73.4958 3.13508 62.0667 5.51616C52.1455 7.57975 44.7642 13.2943 39.7639 22.1043C38.8115 23.7711 37.5813 24.2076 36.232 23.4139C34.9224 22.6599 34.724 21.4297 35.5971 19.8026C36.1526 18.7708 36.7479 17.7787 37.4622 16.5485C36.232 16.6675 35.2399 16.7469 34.2478 16.8659C14.4055 19.0089 0.793692 38.7718 5.79395 58.1379C11.707 81.0756 38.2956 90.6396 57.7808 76.869C59.4475 75.6785 60.7571 75.7579 61.6302 77.0675C62.5032 78.377 62.2254 79.5279 60.5587 80.6787C59.011 81.7502 57.3839 82.782 55.6378 83.8932C56.1934 84.2504 56.6696 84.5282 57.1061 84.8059C68.9321 91.6714 83.9329 87.2267 90.203 75.0435C91.2745 72.9799 92.4254 72.345 93.854 73.0196C95.2827 73.7339 95.5605 75.1626 94.3699 77.2262C93.1397 79.3692 91.7507 81.3931 90.4015 83.4964C98.1796 91.9889 112.307 96.4732 125.602 91.6317C138.301 87.068 147.269 74.7657 147.508 61.1936C147.706 50.2804 143.42 41.391 135.086 34.3272C134.332 36.1527 133.777 37.74 133.023 39.2084C132.427 40.3989 131.356 40.6767 130.086 40.1608C128.856 39.6449 128.38 38.5337 128.776 37.2241C128.896 36.7876 129.134 36.4304 129.292 35.9939C132.269 28.3745 131.078 21.4297 125.602 15.3976C120.403 9.68304 112.188 7.89723 105.005 10.6752C100.521 12.3816 97.1875 15.4373 94.8858 19.6439C94.0921 21.1122 92.8222 21.4694 91.5126 20.7154C90.2824 20.001 89.9649 18.7708 90.7189 17.3818C91.3539 16.5088 91.9492 15.596 92.5841 14.5246ZM86.7108 86.7505C82.3852 89.9649 77.7024 92.0285 72.3847 92.6635C72.0275 92.7032 71.5513 93.2984 71.5116 93.6953C71.3926 94.8065 71.4719 95.9573 71.5116 97.1082C71.5513 98.5368 72.0275 99.5686 73.5752 100.124C79.012 101.989 82.6233 111.911 80.6391 115.958C79.4088 118.458 80.3216 120.046 82.0677 121.633C82.8614 122.387 83.6551 123.102 84.4885 123.856C85.2425 124.53 86.0759 124.689 87.068 124.252C89.4887 123.141 91.9889 123.102 94.489 123.856C98.2987 125.046 102.108 126.514 103.775 130.404C104.807 132.864 106.394 133.34 108.617 133.3C109.847 133.261 111.117 133.3 112.307 133.062C112.942 132.904 113.855 132.348 114.014 131.753C115.681 126.038 126.554 121.673 131.792 124.61C132.308 124.887 133.459 124.768 133.935 124.371C135.523 123.062 136.991 121.554 138.38 120.006C138.737 119.57 138.817 118.578 138.618 117.982C136.356 111.236 139.531 103.577 145.96 100.442C146.595 100.124 147.349 99.2908 147.389 98.6162C147.547 96.3542 147.508 94.0921 147.389 91.8301C147.349 91.2745 146.833 90.5602 146.357 90.203C144.809 89.1712 143.182 88.2585 141.436 87.2267C138.221 90.4411 134.332 93.1794 129.927 95.1239C129.054 95.5208 128.697 95.9573 128.578 96.9494C127.268 108.815 116.395 116.514 105.005 113.736C95.243 111.315 89.2109 101.95 90.8777 91.7111C90.9571 91.2348 90.8777 90.4808 90.5602 90.1634C89.33 88.9728 88.0601 87.941 86.7108 86.7505ZM95.2827 93.4175C94.9652 99.4496 96.9891 104.093 101.831 107.188C106.712 110.323 111.871 110.363 116.871 107.386C120.641 105.164 122.824 101.791 123.617 97.2669C113.617 99.648 104.331 98.259 95.2827 93.4175Z" fill="white"/>
<path d="M16.9844 152.349C15.278 151.754 13.4525 151.357 11.8651 150.484C7.38072 148.063 4.76154 144.293 4.80123 139.095C4.84091 133.975 7.49978 130.285 11.9048 127.904C18.8496 124.173 27.8183 126.515 31.628 133.023C35.8742 140.285 31.7867 149.413 23.2546 151.714C22.5402 151.913 21.8259 152.111 21.1513 152.31C19.7623 152.349 18.3337 152.349 16.9844 152.349ZM19.048 147.587C21.4687 147.547 23.6911 146.833 25.5959 145.285C29.4057 142.111 29.5247 136.793 25.8737 133.459C22.1434 130.046 15.8732 130.086 12.1429 133.499C8.53158 136.833 8.69031 142.071 12.4207 145.206C14.3255 146.833 16.5479 147.547 19.048 147.587Z" fill="white"/>
<path d="M44.0509 128.816C35.0425 128.499 27.5818 122.466 26.3516 113.934C25.5182 107.902 27.8596 102.981 32.5423 99.1716C39.0506 93.8539 49.2099 93.8936 55.6785 99.251C60.52 103.259 62.782 108.378 61.6311 114.649C60.4803 120.958 56.5515 125.046 50.6782 127.268C48.5749 128.062 46.2732 128.34 44.0509 128.816ZM43.3365 99.9256C42.5825 100.045 41.1539 100.164 39.8046 100.6C35.0028 102.188 31.7487 105.362 31.074 110.482C30.4391 115.204 32.463 118.935 36.4314 121.474C41.392 124.649 46.5907 124.649 51.5909 121.554C58.2976 117.427 59.0516 108.617 53.2974 103.418C50.6782 101.076 47.5431 100.005 43.3365 99.9256Z" fill="white"/>
<path d="M66.6704 30.914C65.7179 30.914 64.9242 30.9537 64.1305 30.914C62.7813 30.8347 61.9479 29.8822 61.9082 28.6123C61.9082 27.3027 62.7416 26.3503 64.0512 26.2312C64.4877 26.1916 64.9242 26.1916 65.4004 26.1916C82.1077 26.1916 98.8149 26.1916 115.522 26.1916C115.959 26.1916 116.435 26.1519 116.871 26.2312C118.221 26.39 119.054 27.3027 119.054 28.6123C119.054 29.9219 118.221 30.8743 116.871 30.9537C116.078 31.0331 115.284 30.9537 114.292 30.9537C114.292 31.5887 114.292 32.1046 114.292 32.6205C114.292 39.5653 114.252 46.5101 114.332 53.4549C114.332 55.201 113.855 56.4312 112.427 57.5027C108.934 60.1219 105.641 62.9792 102.148 65.5983C101.355 66.1936 100.204 66.6301 99.2117 66.6698C90.8779 66.7492 82.5442 66.7095 74.2104 66.7095C69.6467 66.7095 66.6704 63.6935 66.6704 59.1694C66.6704 50.3992 66.6704 41.6289 66.6704 32.8586C66.6704 32.2236 66.6704 31.668 66.6704 30.914ZM102.386 30.9537C102.386 33.176 102.386 35.2396 102.386 37.3032C102.386 39.6446 101.593 40.4383 99.2514 40.4383C92.6241 40.4383 85.9571 40.4383 79.3297 40.4383C76.9883 40.4383 76.1947 39.6446 76.1947 37.3429C76.1947 35.2396 76.1947 33.1364 76.1947 30.9934C74.5279 30.9934 73.0596 30.9934 71.4325 30.9934C71.4325 31.9458 71.4325 32.8189 71.4325 33.6919C71.4325 42.0654 71.4325 50.4388 71.4325 58.852C71.4325 61.0743 72.2659 61.868 74.4882 61.868C75.0041 61.868 75.5597 61.868 76.1947 61.868C76.1947 58.0583 76.1947 54.3676 76.1947 50.7166C76.1947 48.3752 76.9883 47.5815 79.29 47.5815C85.9174 47.5815 92.5844 47.5815 99.2117 47.5815C101.553 47.5815 102.347 48.3752 102.347 50.6769C102.347 53.4152 102.347 56.1931 102.347 59.2488C104.569 57.5027 106.474 55.9153 108.498 54.4073C109.252 53.8517 109.53 53.2564 109.53 52.304C109.49 45.6767 109.49 39.0097 109.49 32.3824C109.49 31.9061 109.49 31.4299 109.49 30.9537C107.069 30.9537 104.807 30.9537 102.386 30.9537ZM97.5053 61.7886C97.5053 58.5742 97.5053 55.4788 97.5053 52.4628C91.9494 52.4628 86.473 52.4628 81.0362 52.4628C81.0362 55.6375 81.0362 58.6932 81.0362 61.7886C86.5523 61.7886 91.9891 61.7886 97.5053 61.7886ZM81.0362 35.5571C86.6317 35.5571 92.0685 35.5571 97.5053 35.5571C97.5053 33.9301 97.5053 32.4617 97.5053 30.9934C91.9494 30.9934 86.5126 30.9934 81.0362 30.9934C81.0362 32.5411 81.0362 34.0094 81.0362 35.5571Z" fill="white"/>
<path d="M45.2399 54.8041C45.0415 59.725 49.0496 63.9316 54.3673 64.2491C56.3119 64.3681 57.3834 65.519 57.0262 67.146C56.7087 68.4556 55.8754 69.0112 54.5658 69.0112C47.4622 69.0509 40.954 63.1379 40.5174 56.074C40.4381 54.9629 40.1206 54.5263 39.0094 54.2089C31.7868 52.304 27.3818 45.4386 28.5724 38.1366C28.8502 36.4302 29.9613 35.4777 31.3503 35.7159C32.7789 35.954 33.5329 37.1842 33.2948 38.8906C32.6996 42.9781 34.1282 46.2719 37.5808 48.4546C41.0333 50.6769 44.6049 50.4785 48.0575 48.2959C49.6846 47.2641 50.9545 47.3831 51.7878 48.6927C52.6212 49.9626 52.2641 51.3516 50.637 52.2643C48.9306 53.2168 47.1448 53.9311 45.2399 54.8041Z" fill="white"/>
<path d="M121.157 71.5115C119.212 70.5591 117.387 69.8051 115.68 68.813C114.014 67.8208 113.696 66.5113 114.569 65.2413C115.442 63.9714 116.712 63.8524 118.3 64.8842C121.633 67.0668 125.086 67.3049 128.538 65.3207C131.832 63.4159 133.34 60.4395 133.3 56.6695C133.3 56.1933 133.181 55.6774 133.102 55.2012C132.943 53.7725 133.816 52.582 135.126 52.3835C136.396 52.1851 137.467 53.0185 137.785 54.4075C139.332 61.2332 135.007 68.6542 128.022 70.6781C126.395 71.1544 125.959 71.7893 125.8 73.4164C125.125 80.0437 118.855 85.5995 112.188 85.6789C110.521 85.6789 109.529 84.8852 109.49 83.4169C109.45 81.9486 110.323 81.0755 112.029 80.9564C117.506 80.4802 121.435 76.353 121.157 71.5115Z" fill="white"/>
</svg>
