<svg width="61" height="60" viewBox="0 0 61 60" fill="none" xmlns="http://www.w3.org/2000/svg">
<g clip-path="url(#clip0_277_1851)">
<path d="M57 0H21C18.8 0 17 1.8 17 4C17 4.6 17.4 5 18 5C18.6 5 19 4.6 19 4C19 2.9 19.9 2 21 2H57C58.1 2 59 2.9 59 4V50C59 51.1 58.1 52 57 52C56.4 52 56 52.4 56 53C56 53.6 56.4 54 57 54C59.2 54 61 52.2 61 50V4C61 1.8 59.2 0 57 0Z" fill="white"/>
<path d="M51 6H15C12.8 6 11 7.8 11 10V27C11 27.6 11.4 28 12 28C12.6 28 13 27.6 13 27V10C13 8.9 13.9 8 15 8H51C52.1 8 53 8.9 53 10V56C53 57.1 52.1 58 51 58H17.4C16.8 58 16.4 58.4 16.4 59C16.4 59.6 16.8 60 17.4 60H51C53.2 60 55 58.2 55 56V10C55 7.8 53.2 6 51 6Z" fill="white"/>
<path d="M31 29C31.6 29 32 28.6 32 28V12C32 11.4 31.6 11 31 11H17C16.4 11 16 11.4 16 12V28C16 28.6 16.4 29 17 29H31ZM20.1 27C20.5 25.3 22.1 24 24 24C25.9 24 27.4 25.3 27.9 27H20.1ZM22 20C22 18.9 22.9 18 24 18C25.1 18 26 18.9 26 20C26 21.1 25.1 22 24 22C22.9 22 22 21.1 22 20ZM18 13H30V27H29.9C29.6 25.2 28.5 23.6 26.9 22.7C27.6 22 28 21.1 28 20C28 17.8 26.2 16 24 16C21.8 16 20 17.8 20 20C20 21.1 20.4 22 21.1 22.7C19.5 23.6 18.4 25.1 18.1 27H18V13Z" fill="white"/>
<path d="M36 19H50C50.6 19 51 18.6 51 18V12C51 11.4 50.6 11 50 11H36C35.4 11 35 11.4 35 12V18C35 18.6 35.4 19 36 19ZM37 13H49V17H37V13Z" fill="white"/>
<path d="M36 24H50C50.6 24 51 23.6 51 23C51 22.4 50.6 22 50 22H36C35.4 22 35 22.4 35 23C35 23.6 35.4 24 36 24Z" fill="white"/>
<path d="M36 29H50C50.6 29 51 28.6 51 28C51 27.4 50.6 27 50 27H36C35.4 27 35 27.4 35 28C35 28.6 35.4 29 36 29Z" fill="white"/>
<path d="M21 55H1C0.4 55 0 54.6 0 54V47C0 46.4 0.4 46 1 46C1.6 46 2 46.4 2 47V53H20V47C20 46.4 20.4 46 21 46C21.6 46 22 46.4 22 47V54C22 54.5 21.6 55 21 55Z" fill="white"/>
<path d="M50.0004 33H21.9004" stroke="white" stroke-width="2" stroke-miterlimit="10" stroke-linecap="round" stroke-linejoin="round"/>
<path d="M50 38H25" stroke="white" stroke-width="2" stroke-miterlimit="10" stroke-linecap="round" stroke-linejoin="round"/>
<path d="M50 42.9H25" stroke="white" stroke-width="2" stroke-miterlimit="10" stroke-linecap="round" stroke-linejoin="round"/>
<path d="M12.0004 50C11.7004 50 11.4004 49.9 11.2004 49.6L4.40042 41.3C4.20042 41 4.10042 40.6 4.30042 40.2C4.50042 39.8 4.80042 39.6 5.20042 39.6H6.70042V33C6.70042 32.4 7.10042 32 7.70042 32H16.2004C16.8004 32 17.2004 32.4 17.2004 33V39.7H18.7004C19.1004 39.7 19.4004 39.9 19.6004 40.3C19.8004 40.7 19.7004 41.1 19.5004 41.4L12.7004 49.7C12.6004 49.9 12.3004 50 12.0004 50ZM7.30042 41.7L12.0004 47.4L16.7004 41.7H16.3004C15.7004 41.7 15.3004 41.3 15.3004 40.7V34H8.70042V40.7C8.70042 41.3 8.30042 41.7 7.70042 41.7H7.30042Z" fill="white"/>
</g>
<defs>
<clipPath id="clip0_277_1851">
<rect width="61" height="60" fill="white"/>
</clipPath>
</defs>
</svg>
