<svg width="68" height="60" viewBox="0 0 68 60" fill="none" xmlns="http://www.w3.org/2000/svg">
<g clip-path="url(#clip0_405_2892)">
<path d="M1.85617 60C0.892388 60 0.339108 59.7315 0 59.0511V54.7538C0.232021 54.4136 0.446194 54.2525 0.696063 54.2525C0.767454 54.2525 0.838845 54.2704 0.910236 54.2883C1.17795 54.3599 1.46352 54.5211 1.46352 55.1478C1.46352 55.864 1.46352 56.5802 1.46352 57.2964V58.4602H6.4252V54.6464C6.4252 52.7127 6.4252 50.761 6.4252 48.8273C6.4252 48.2543 6.69291 47.8783 7.12126 47.8783C7.19265 47.8783 7.26404 47.8962 7.33543 47.9141C7.74593 48.0215 7.90656 48.2901 7.90656 48.8273C7.90656 50.9759 7.90656 53.1424 7.90656 55.291V58.5139H10.8157C12.0651 58.5139 13.5286 58.5139 14.9743 58.496C15.2955 58.496 15.6168 58.0663 15.6703 57.7798C15.8488 56.5444 16.0273 55.291 16.2058 54.0735C16.5092 51.9248 16.8126 49.6867 17.1874 47.5023C17.348 46.5175 17.0089 45.7655 16.6698 45.0314C16.5449 44.7628 16.4199 44.4942 16.3307 44.2256L16.2058 43.8675L15.9024 44.1182C15.7596 44.2435 15.6168 44.3689 15.4919 44.4763C15.2241 44.7091 14.9921 44.906 14.7601 45.0851C14.4567 45.3179 14.0997 45.4432 13.7428 45.4432C13.0289 45.4432 12.4042 44.9418 12.2079 44.1898C12.1722 44.0287 12.1365 43.8675 12.1008 43.6885C12.0829 43.599 12.0651 43.5094 12.0472 43.4199L11.0121 38.317L10.4409 38.4065C10.2268 38.4423 10.0483 38.4781 9.85197 38.5139C9.26299 38.6213 8.67402 38.7467 8.06719 38.8541C6.90709 39.069 5.71129 39.3017 4.53333 39.5166C2.57008 39.8747 1.48136 41.1818 1.46352 43.1692C1.46352 45.3 1.46352 47.5739 1.46352 49.8837C1.46352 50.4924 1.39213 50.7968 0.981627 50.958C0.892388 51.0117 0.80315 51.0296 0.713911 51.0296C0.446194 51.0296 0.249869 50.8326 0 50.5641V42.1307C0.392651 41.3966 0.392651 40.573 0 39.7136V37.923C0.446194 36.1863 1.08871 35.0403 2.10604 34.2167C2.55223 33.8586 2.53438 33.5005 2.40945 33.0708C1.74908 31.0475 2.14173 29.2749 3.6231 27.7888C4.01575 27.3948 4.17638 27.0009 4.17638 26.4459C4.17638 25.5506 4.17638 24.6554 4.17638 23.778C4.15853 20.5014 4.15853 17.0994 4.19423 13.7691C4.26562 8.34382 8.42415 3.50944 13.6892 2.73952C15.1528 2.52466 16.6163 2.50675 17.7407 2.50675C18.3654 2.50675 18.99 2.52466 19.5969 2.52466L20.2572 2.54256C22.9701 2.57837 25.2189 3.77802 26.9323 6.08777C27.1286 6.33845 27.4499 6.55331 27.7354 6.58912C31.073 7.05465 33.3575 8.80935 34.7318 11.9248C34.7675 12.0323 34.821 12.1218 34.8745 12.2471L35.1066 12.7485L37.1947 10.9938C38.5869 9.82994 39.9612 8.68401 41.3354 7.53809C41.8173 7.12627 42.3528 6.91141 42.8525 6.91141C43.5129 6.91141 44.1018 7.26951 44.6016 7.94991C45.2619 8.86307 45.9223 9.77623 46.5827 10.6894C46.9753 11.2265 47.3501 11.7637 47.7428 12.3008C47.832 12.4262 47.9391 12.5515 48.0462 12.6948C48.0997 12.7485 48.1533 12.8201 48.189 12.8917L48.3675 13.1066L57.2735 5.62224L57.095 5.42529C56.9522 5.24623 56.7916 5.06718 56.6488 4.88813C56.3276 4.49422 56.0242 4.13612 55.7207 3.77802C55.2745 3.27667 55.1674 2.79324 55.3816 2.25608C55.5601 1.77264 55.9528 1.52197 56.631 1.41454C57.3806 1.30711 58.1302 1.19968 58.8798 1.09225C61.2535 0.752054 63.6987 0.411857 66.0903 0.0537545C66.2688 0.0358494 66.4294 0.0179443 66.5722 0.0179443C67.2682 0.0179443 67.7144 0.304426 68.0357 0.931105V1.75474C68.0179 1.79055 68 1.84426 67.9821 1.88008C67.9108 2.02332 67.8394 2.16656 67.7858 2.3277L67.7144 2.56047C66.7685 5.40738 65.7869 8.34382 64.8409 11.2444C64.6089 11.9427 64.2698 12.3008 63.6987 12.4083C63.6273 12.4262 63.5381 12.4262 63.4667 12.4262C63.0383 12.4262 62.6814 12.2113 62.2887 11.7279C62.021 11.3877 61.7533 11.0654 61.4499 10.7252C61.3249 10.582 61.2 10.4208 61.0572 10.2776L60.8787 10.0806L60.6824 10.2597C60.3612 10.5282 60.0577 10.7789 59.7543 11.0475C59.0047 11.6742 58.2908 12.265 57.5769 12.8738C57.3627 13.0529 57.1486 13.1424 56.9701 13.1424C56.7916 13.1424 56.6131 13.0529 56.4703 12.8917C56.3276 12.7306 56.2562 12.5515 56.274 12.3904C56.2919 12.1755 56.4168 11.9606 56.6488 11.7637C57.7197 10.8505 58.8798 9.86575 60.0399 8.93469C60.3433 8.70192 60.6289 8.57658 60.9323 8.57658C61.3071 8.57658 61.664 8.77354 61.9853 9.13164C62.2352 9.40022 62.485 9.70461 62.7349 10.009C62.8598 10.1522 62.9848 10.3134 63.1276 10.4745L63.431 10.8326L66.4829 1.6115L56.8451 2.86486L57.5412 3.7064C57.8089 4.01078 58.0409 4.29726 58.273 4.58375C58.969 5.44319 58.8976 6.10568 58.0588 6.82188C55.5958 8.89888 52.6509 11.3698 49.6346 13.8765C49.1706 14.2704 48.7066 14.4674 48.2782 14.4674C47.7071 14.4674 47.1717 14.1272 46.7076 13.4826L46.5291 13.2319C45.5118 11.8174 44.4588 10.3492 43.4236 8.89888C43.2808 8.68402 43.0488 8.43334 42.7454 8.43334C42.5491 8.43334 42.3528 8.52287 42.1386 8.71983C40.8892 9.77623 39.6042 10.8505 38.3727 11.889C37.4982 12.6231 36.6058 13.3572 35.7312 14.1093C35.5528 14.2704 35.3207 14.5032 35.3207 14.7718C35.3029 15.3984 35.3029 16.0251 35.3029 16.6876C35.3029 16.9204 35.3029 17.171 35.3029 17.4396V17.9768L35.7312 17.6545C35.8205 17.5829 35.9097 17.5112 35.9811 17.4575C36.1239 17.3501 36.231 17.2606 36.3559 17.171C36.8913 16.7234 37.4268 16.2758 37.9622 15.8282C38.8903 15.0582 39.8005 14.2883 40.7286 13.5184C41.1926 13.1424 41.6388 12.9454 42.085 12.9454C42.6383 12.9454 43.1559 13.2677 43.6199 13.8944L44.1197 14.5748C45.0299 15.8282 45.958 17.1173 46.8504 18.4065C47.0289 18.6572 47.2609 18.9436 47.6178 18.9436C47.9034 18.9436 48.1533 18.7646 48.3318 18.5855C49.5097 17.547 50.7412 16.5265 51.937 15.5417L52.6866 14.915C52.9543 14.7001 53.2042 14.5748 53.4184 14.5748C53.5968 14.5748 53.7575 14.6643 53.9003 14.8255C54.0252 14.9687 54.0966 15.1299 54.0787 15.3089C54.0609 15.5596 53.9003 15.8102 53.6147 16.0609C52.0976 17.3501 50.5984 18.6034 49.0992 19.8568C48.5995 20.2686 48.064 20.5014 47.5465 20.5014C46.8861 20.5014 46.2793 20.1433 45.7795 19.445C45.137 18.5676 44.5123 17.6903 43.8698 16.795C43.4593 16.2221 43.0488 15.6491 42.6383 15.0761C42.5491 14.9508 42.4598 14.8255 42.3528 14.718C42.3171 14.6643 42.2635 14.6106 42.21 14.5569L42.0672 14.3599L41.8709 14.4853C41.8352 14.5032 41.7995 14.539 41.7638 14.5569C41.6924 14.5927 41.6388 14.6285 41.5853 14.6822L40.5144 15.5775C38.926 16.9025 37.284 18.2632 35.6955 19.6419C35.4278 19.8568 35.3207 20.2865 35.3029 20.5909C35.2672 22.9544 35.285 24.8881 35.3029 26.6428C35.3029 27.0547 35.5528 27.4665 35.7848 27.7171C37.2304 29.2391 37.6588 30.9222 37.0877 32.8917C36.9449 33.3752 37.0341 33.8586 37.3018 34.2346C37.5874 34.6106 38.0336 34.8255 38.5512 34.8255C39.4079 34.8255 40.2467 34.8255 41.1034 34.8255H45.726V33.1782C45.726 32.1755 45.726 31.2086 45.726 30.2418C45.726 28.8989 46.1722 28.4333 47.5286 28.4333C48.4567 28.4333 49.3848 28.4333 50.3129 28.4333H55.2388V26.7682C55.2388 25.7476 55.2388 24.7628 55.2388 23.778C55.2388 22.5426 55.7386 22.0233 56.9522 22.0233C58.0409 22.0233 59.1297 22.0233 60.2184 22.0233H64.3055C65.8047 22.0233 66.2152 22.4351 66.2152 23.9034C66.2152 34.3599 66.2152 44.7986 66.2152 55.2552C66.2152 56.7592 65.7869 57.2068 64.2877 57.2068H39.4614L39.4436 57.6545C39.4436 57.7798 39.4257 57.8872 39.4257 57.9768C39.39 59.6419 39.0866 59.9463 37.4089 59.9463H22.7738C16.6163 59.9821 9.26299 59.9821 1.85617 60ZM32.3223 47.8962C32.6971 47.8962 32.9291 48.1111 33.0184 48.5408C33.0541 48.684 33.0541 48.8631 33.0541 49.0242V49.1495C33.0541 51.3519 33.0541 53.5542 33.0541 55.7565V58.4781H37.9265L37.9622 58.2453C37.9622 58.1916 37.9801 58.1379 37.9801 58.1021C37.9979 57.9947 38.0157 57.9051 38.0157 57.7977V54.3241C38.0157 50.5999 38.0157 46.7503 38.0157 42.9723C38.0157 41.2534 36.8735 39.9105 35.1244 39.5703C34 39.3376 32.8577 39.1406 31.7512 38.9257L31.5906 38.8899C31.0016 38.7825 30.4304 38.6751 29.8415 38.5676L28.7885 38.3886L28.7349 38.6393C28.61 39.2122 28.5029 39.7852 28.3958 40.3581C28.1281 41.6473 27.8961 42.8828 27.6283 44.1182C27.4499 44.9418 26.843 45.479 26.0934 45.479C25.7186 45.479 25.3438 45.3358 25.0047 45.0851C24.7192 44.8523 24.4157 44.6196 24.1123 44.3689C23.9696 44.2435 23.8089 44.1182 23.6483 43.975L23.327 43.7064L23.2199 44.1003C23.1307 44.4584 22.9522 44.7807 22.8095 45.103C22.506 45.7297 22.1848 46.3743 22.3097 47.2158C22.5596 48.8452 22.7916 50.5282 23.0236 52.1397C23.1307 52.9275 23.2378 53.7154 23.3627 54.5211C23.4877 55.3805 23.6126 56.24 23.7375 57.0994L23.9517 58.496H31.6262V55.6312C31.6262 54.0914 31.6262 52.5694 31.6262 51.0296C31.6262 50.8326 31.6262 50.6357 31.6262 50.4387C31.6262 49.8479 31.6262 49.2212 31.6441 48.6303C31.6619 48.0931 32.0189 47.9499 32.3223 47.932C32.2688 47.8962 32.2866 47.8962 32.3223 47.8962ZM17.0803 58.4602H22.399L20.7748 47.0546H18.7045L17.0803 58.4602ZM47.2966 55.7386H55.2388V29.9732H47.2966V55.7386ZM56.8094 55.7207H64.7517V23.5452H56.8094V55.7207ZM39.0866 36.7234C39.5507 38.12 39.5685 39.4271 39.1759 40.6983C39.1223 40.8774 39.158 41.0564 39.1759 41.1997C39.1759 41.2355 39.1937 41.2713 39.1937 41.325C39.2294 41.5578 39.2651 41.7906 39.3008 42.0054C39.3722 42.4709 39.4614 42.9007 39.4614 43.3483C39.4793 46.1594 39.4793 49.0242 39.4793 51.7995C39.4793 52.7664 39.4793 53.7333 39.4793 54.7001V55.7386H45.7438V36.3653H38.9795L39.0866 36.7234ZM19.8289 42.1845C19.3827 42.1845 18.99 42.1845 18.6152 42.2024C18.3654 42.2203 18.1333 42.2919 17.8835 42.3814C17.7764 42.4172 17.6514 42.4709 17.5265 42.5068L17.2409 42.5963L17.3659 42.8828C17.4551 43.1155 17.5622 43.3125 17.6514 43.5094C17.8299 43.9034 17.9906 44.2256 18.0976 44.5658C18.3475 45.3537 18.8472 45.5506 19.5433 45.5864C19.6325 45.5864 19.7039 45.5864 19.7932 45.5864C20.7748 45.5864 21.3281 45.1567 21.5601 44.2256C21.5958 44.0466 21.685 43.8854 21.7743 43.7064C21.8278 43.6169 21.8635 43.5094 21.9171 43.402C22.0241 43.1513 22.1312 42.7932 21.9528 42.5247C21.7743 42.2382 21.3995 42.2024 21.1496 42.2024C20.7213 42.1845 20.2751 42.1845 19.8289 42.1845ZM25.0404 37.941C24.7906 39.3376 24.2194 40.4119 23.2378 41.325L23.0058 41.5399L26.0934 44.1003L27.2892 38.0842L25.0761 37.6903L25.0404 37.941ZM12.4577 38.0305L13.6714 44.0645L16.4021 41.6831L16.2593 41.4862C16.1165 41.3071 15.9916 41.1281 15.8488 40.949C15.5454 40.573 15.2777 40.197 15.0635 39.8031C14.8493 39.4092 14.7066 38.9795 14.5459 38.5318C14.4745 38.3349 14.4032 38.12 14.3318 37.9051L14.2604 37.6903L12.4577 38.0305ZM15.8131 35.8461C15.831 36.1325 15.8488 36.419 15.8667 36.6876C15.9024 37.2964 15.9381 37.8693 16.0808 38.4244C16.4735 39.9821 17.473 40.7341 19.1328 40.7341C19.3113 40.7341 19.4898 40.7341 19.6682 40.7341C19.8467 40.7341 20.0252 40.7341 20.2037 40.7341C20.4892 40.7341 20.7391 40.7162 20.9533 40.6983C21.4352 40.6446 21.8635 40.4835 22.1669 40.2507C23.6483 39.069 23.684 37.4217 23.5055 35.8282L23.4698 35.5059L23.1664 35.5954C22.0063 35.9356 20.8997 36.0967 19.7575 36.0967C18.5617 36.0967 17.3837 35.9177 16.1522 35.5596L15.7774 35.4521L15.8131 35.8461ZM25.2724 11.4414C25.3438 11.4414 25.4152 11.4414 25.5045 11.4414C28.6992 11.5667 31.3764 14.2167 31.4656 17.3859C31.537 19.6419 31.537 22.0233 31.4656 24.8881C31.4121 27.5202 30.5197 29.812 28.842 31.71C28.0745 32.5873 27.1108 33.3214 26.1827 34.0555C26.0042 34.1988 25.8257 34.3241 25.6472 34.4674C25.3081 34.7359 24.8262 35.1119 25.0761 35.7207C25.2367 36.1146 25.8436 36.2758 25.9507 36.2937C26.3968 36.4011 26.8609 36.4727 27.2892 36.5623C27.7354 36.6518 28.1816 36.7234 28.6278 36.8308C29.6094 37.0636 30.6268 37.2248 31.5906 37.3859C33.5717 37.7082 35.6241 38.0484 37.4982 38.8899L37.8551 39.0511L37.873 38.6572C37.9444 37.3322 37.284 36.0251 36.0525 35.094C35.1423 34.3957 35.0352 33.966 35.4992 32.9454C36.2131 31.3698 35.8383 29.7225 34.5176 28.6303C34 28.2006 33.7858 27.735 33.7858 27.0367C33.8037 23.026 33.8037 19.069 33.7858 15.291C33.768 11.334 31.1444 8.43334 27.2357 8.05734C26.5396 7.98572 26.1113 7.71714 25.7543 7.16208C24.6656 5.33576 23.0772 4.29726 21.2388 4.15402C20.1858 4.0645 18.8115 3.97497 17.4373 3.97497C16.1879 3.97497 15.0814 4.04659 14.0462 4.20774C9.10236 4.95975 5.63989 9.11374 5.62205 14.3241V14.6106C5.62205 18.6572 5.6042 22.847 5.63989 26.9472C5.63989 27.7171 5.40787 28.2364 4.83675 28.7019C3.60525 29.7046 3.23045 31.334 3.89081 32.838C4.4084 34.0197 4.31916 34.3599 3.30184 35.1478C2.17743 36.0251 1.5706 37.1889 1.49921 38.6213L1.48136 39.0153L1.85617 38.8899C2.12388 38.8004 2.40945 38.693 2.65932 38.6034C3.23045 38.3886 3.78373 38.1916 4.33701 38.0663C7.56745 37.4038 10.9407 36.795 13.6535 36.2937C13.9927 36.24 14.2068 36.1146 14.3318 35.9177C14.4388 35.7565 14.4567 35.5417 14.3853 35.3089C14.3139 35.0403 14.0997 34.6643 13.7963 34.4674C10.2625 32.2113 8.31706 29.0242 8.0315 24.9956C7.94226 23.7064 7.94226 22.3993 7.9601 21.1102C7.9601 20.573 7.9601 20.0359 7.9601 19.4987V18.9257C7.9601 17.8156 7.94226 16.6697 7.97795 15.5417C7.9958 14.5569 8.54908 13.9481 9.42362 13.9481C9.6021 13.9481 9.79842 13.9839 9.99475 14.0376C10.0661 14.0555 10.1375 14.0735 10.1911 14.0914C10.2803 14.1093 10.3517 14.1451 10.4409 14.163C11.726 14.5032 12.9932 14.6643 14.2068 14.6643C16.8126 14.6643 19.2756 13.8944 21.5066 12.3546C22.4882 11.6742 23.3449 11.3698 24.2908 11.3698C24.4336 11.3698 24.5942 11.3698 24.737 11.3877C24.8798 11.4056 25.0404 11.4056 25.1654 11.4056L25.2724 11.4414ZM9.42362 16.616C9.42362 17.2964 9.42362 17.9768 9.42362 18.6572C9.42362 20.376 9.42362 22.1307 9.44147 23.8854C9.45932 24.727 9.53071 25.5327 9.65564 26.2668C10.548 31.0475 14.8672 34.6643 19.7039 34.6643H19.7575C24.8619 34.6285 29.1989 30.958 29.8058 26.1057C30.0913 23.8317 30.0556 21.4862 30.0199 19.2122C30.0021 18.6393 30.0021 18.0663 29.9843 17.4933C29.9664 15.4163 28.4493 13.5721 26.3612 13.1066C25.7365 12.9633 25.094 12.9454 24.6121 12.9454C24.4157 12.9454 24.2373 12.9454 24.0409 12.9454C23.6126 12.9454 23.1486 13.1066 22.8095 13.3393C20.1323 15.2194 17.2231 16.1683 14.1533 16.1683C13.5465 16.1683 12.9218 16.1325 12.2971 16.0609C11.7438 15.9893 11.1906 15.8998 10.6016 15.7923C10.316 15.7386 10.0304 15.6849 9.72703 15.6312L9.40577 15.5775V16.616H9.42362Z" fill="white"/>
<path d="M19.704 29.9911C18.5439 29.9553 17.5801 29.5793 16.8305 28.8273C16.5628 28.5587 16.3129 28.1469 16.7056 27.7171C16.8483 27.556 17.009 27.4844 17.1875 27.4844C17.3838 27.4844 17.598 27.5739 17.8121 27.753C18.4368 28.2722 19.0793 28.5229 19.7218 28.5229C20.3644 28.5229 21.0247 28.2543 21.6672 27.735C21.8814 27.5739 22.0956 27.4844 22.2741 27.4844C22.4525 27.4844 22.631 27.5739 22.7738 27.735C23.0594 28.0573 23.0058 28.4871 22.631 28.8452C21.8457 29.5972 20.8998 29.9732 19.704 29.9911Z" fill="white"/>
<path d="M26.3254 20.2687C26.1648 20.2687 26.0042 20.197 25.8614 20.0896C25.433 19.7315 24.9511 19.5345 24.4514 19.5345C24.0766 19.5345 23.6661 19.6241 23.2199 19.821C22.97 19.9285 22.7559 19.9822 22.5952 19.9822C22.3275 19.9822 22.149 19.8747 22.0241 19.6241C21.917 19.4271 21.8992 19.2302 21.9706 19.0511C22.0598 18.8362 22.274 18.6393 22.5952 18.514C23.0414 18.3349 23.5055 18.2096 23.8803 18.12C24.0052 18.0842 24.1123 18.0663 24.2015 18.0305C25.5223 18.1021 26.254 18.3707 26.8252 18.9795C27.1286 19.3018 27.1464 19.7136 26.8966 20.018C26.7181 20.1791 26.5396 20.2687 26.3254 20.2687Z" fill="white"/>
<path d="M13.1359 20.2686C12.9396 20.2686 12.7432 20.1791 12.6004 20.0179C12.3506 19.7315 12.3684 19.3017 12.654 18.9794C13.1537 18.4065 14.0997 18.0663 15.1527 18.0663C16.0272 18.0663 16.7947 18.317 17.2587 18.7467C17.3658 18.8541 17.4372 19.0153 17.5086 19.1227C17.5264 19.1406 17.5264 19.1764 17.5443 19.1943C17.5264 19.7494 17.1695 20.0358 16.8125 20.0358C16.7411 20.0358 16.6697 20.0179 16.5983 20C16.5091 19.9821 16.4377 19.9284 16.3485 19.8926C16.2592 19.8389 16.17 19.8031 16.0629 19.7673C15.6703 19.624 15.3312 19.5703 15.0099 19.5703C14.4923 19.5703 14.0283 19.7494 13.5999 20.1075C13.4571 20.2149 13.2965 20.2686 13.1359 20.2686Z" fill="white"/>
<path d="M15.2064 24.8703C15.1707 24.8703 15.135 24.8703 15.0993 24.8703C14.7066 24.8345 14.4925 24.6017 14.4389 24.1899C14.4211 24.0287 14.4211 23.8676 14.4389 23.7064C14.4389 23.6348 14.4389 23.5632 14.4389 23.4737C14.4389 23.3841 14.4389 23.2946 14.4389 23.2051C14.4389 23.026 14.4211 22.8649 14.4568 22.7037C14.5103 22.2919 14.7245 22.0771 15.1171 22.0413C15.1528 22.0413 15.1707 22.0413 15.2064 22.0413C15.5812 22.0413 15.8132 22.2382 15.8489 22.5605C15.9203 23.1514 15.9203 23.7601 15.831 24.351C15.7775 24.8166 15.3849 24.8703 15.2064 24.8703Z" fill="white"/>
<path d="M24.2908 24.8703C23.8803 24.8703 23.5948 24.5659 23.5591 24.0824C23.5591 23.9392 23.5591 23.796 23.5591 23.6348C23.5591 23.5632 23.5591 23.4916 23.5591 23.42C23.5591 23.3483 23.5591 23.2767 23.5591 23.2051C23.5591 23.0619 23.5591 22.9186 23.5591 22.7754C23.5948 22.3277 23.8625 22.0413 24.273 22.0413H24.2908C24.7192 22.0413 24.9869 22.3277 25.0226 22.7933C25.0404 23.2051 25.0404 23.6527 25.0226 24.1003C25.0048 24.5659 24.7013 24.8703 24.2908 24.8703Z" fill="white"/>
</g>
<defs>
<clipPath id="clip0_405_2892">
<rect width="68" height="60" fill="white"/>
</clipPath>
</defs>
</svg>
