<svg width="75" height="75" viewBox="0 0 75 75" fill="none" xmlns="http://www.w3.org/2000/svg">
<g clip-path="url(#clip0_405_2883)">
<path d="M1.38085 75C1.00428 74.7281 0.857833 74.3724 0.878754 73.8285C0.899674 73.3682 0.899675 72.908 0.899675 72.4687C0.899675 71.9875 0.899675 71.5063 0.920595 71.0252C1.15072 67.1549 2.53147 63.8913 5.04193 61.2971C6.54821 59.749 8.51474 58.8076 10.4185 57.908C10.4185 57.908 10.816 57.7197 10.9624 57.636C11.5273 57.3641 12.1758 57.1758 12.7825 56.9875C13.0754 56.9038 13.4101 56.7992 13.703 56.6946C13.7239 56.6946 13.7658 56.6737 13.7867 56.6737C14.0587 56.59 14.3725 56.4854 14.3934 56.1716C14.4562 55.5858 14.5189 54.9373 14.4352 54.2678C14.3934 53.9331 14.0587 53.7239 13.5566 53.4938C9.93733 51.9457 7.38503 49.3724 5.94152 45.8578C5.60679 45.021 5.37666 44.1423 5.12562 43.2218C5.02101 42.8034 4.89549 42.3641 4.76997 41.9457L4.68629 41.6946H4.41432C2.32227 41.6109 1.25532 40.8578 0.564947 38.9749C0.397583 38.4938 0.251139 37.9917 0.125616 37.5105C0.0628545 37.3013 0.0210135 37.0712 -0.041748 36.862V34.8745C-0.0208275 34.8327 -0.0208275 34.7699 9.29572e-05 34.7072C0.041934 34.5607 0.0628545 34.3934 0.104695 34.2469C0.29298 32.9708 0.73231 32.0712 1.46453 31.4017C1.92478 30.9833 2.02938 30.5649 1.8411 30C1.46453 28.9122 1.59005 27.8243 1.77834 26.9038C1.90386 26.2762 2.0503 25.4812 2.00846 24.7281C1.9457 22.6569 2.30135 20.9415 3.13817 19.498C3.72394 18.4519 4.51892 17.4896 5.29298 16.5691L5.4185 16.4226C5.54403 16.2762 5.69047 16.1925 5.83691 16.1925C6.00428 16.1925 6.17164 16.2762 6.35993 16.4017C6.67373 16.6737 6.69465 17.0293 6.42269 17.4059C6.31808 17.5314 6.21348 17.6569 6.08796 17.7825C6.0252 17.8452 5.96244 17.908 5.89967 17.9708C4.10051 19.9791 3.30553 22.4059 3.53566 25.1883C3.5775 25.7113 3.53566 26.2134 3.38921 26.6109C2.55239 29.0586 3.4729 31.2344 5.81599 32.4477L6.10888 32.5942L6.29716 32.3431C6.42269 32.1758 6.52729 32.0084 6.63189 31.862C6.88294 31.5063 7.13398 31.1298 7.42687 30.795L7.55239 30.6486C7.99172 30.1465 8.43106 29.6026 8.93315 29.226C10.5649 27.9708 12.6152 27.3222 15.3767 27.1967C15.7532 27.1758 16.1298 27.1549 16.5064 27.1549C17.6361 27.113 18.8285 27.0712 19.9792 26.9038C21.8411 26.6318 23.2009 25.7741 24.0587 24.3515C24.2888 23.954 24.5189 23.7867 24.8118 23.7867C24.8536 23.7867 24.8955 23.7867 24.9373 23.7867C25.293 23.8285 25.4813 24.0377 25.6486 24.5816C26.088 26.0042 26.862 27.1967 28.0545 28.2218C28.9331 28.9959 29.5817 30 30.1047 31.3808C30.3348 32.0084 30.6486 32.6779 31.2972 32.6779C31.6947 32.6779 32.0921 32.4268 32.5942 32.0293C34.5608 30.4394 35.2302 28.4519 34.4562 26.5482C34.1214 25.7113 33.975 24.9164 34.0168 24.0586C34.0378 23.7448 33.9959 23.431 33.9541 23.1172C33.9331 22.9917 33.9331 22.8662 33.9122 22.7616C33.5775 19.0586 31.2762 16.4645 27.6152 15.6695C27.4269 15.6277 27.2177 15.5021 27.0085 15.3766C26.9457 15.3348 26.8829 15.2929 26.8202 15.2511C26.4854 15.0628 26.1507 14.8536 25.8369 14.6444C25.1465 14.2051 24.4352 13.7657 23.6403 13.4519C22.4269 12.9917 21.1089 12.7616 19.7072 12.7616C18.7239 12.7616 17.6988 12.8662 16.6528 13.0963C15.0629 13.431 13.5147 13.9122 11.9875 14.3934C11.4645 14.5607 10.8788 14.7281 10.3139 14.8954C10.1465 14.9373 9.97917 14.9791 9.83273 14.9791C9.47708 14.9791 9.26787 14.8327 9.16327 14.5607C8.95407 14.0168 9.35156 13.703 9.70721 13.5565C12.385 12.4059 14.8955 11.7364 17.4059 11.4854C18.2428 11.4017 19.0796 11.3808 19.8955 11.339H19.9164C20.293 11.318 20.6695 11.318 21.067 11.2971L21.4018 11.2762L21.4436 10.795C21.4436 10.6904 21.4645 10.5858 21.4645 10.4812C21.7365 5.41846 25.2721 1.25528 30.293 0.209251C30.5022 0.16741 30.7323 0.104649 30.9206 0.062808C30.9206 0.062808 31.088 0.020967 31.1716 4.64786e-05H42.4269C42.9917 0.355695 42.9917 0.669502 42.908 0.96239C42.7825 1.35988 42.5315 1.4854 41.8411 1.4854C41.0461 1.4854 40.2511 1.4854 39.4562 1.4854H39.3725C38.3055 1.4854 37.2386 1.4854 36.1716 1.4854C34.6444 1.4854 33.3892 1.4854 32.2177 1.50632C29.7072 1.54816 27.3641 2.57327 25.6277 4.37243C23.8913 6.17159 22.929 8.53561 22.929 11.0461C22.929 11.2344 22.929 11.5482 23.2009 11.6318L24.4143 12.2385C25.293 12.6779 26.1507 13.1172 27.0085 13.5356C27.1967 13.6402 27.385 13.7448 27.5733 13.8285C28.0336 14.0795 28.4938 14.3306 28.9959 14.498C32.657 15.7532 34.7072 18.3264 35.293 22.3641C35.3557 22.7825 35.3976 23.2218 35.4394 23.6402C35.544 24.749 35.6695 25.8787 36.088 27.0084C36.5273 28.2009 36.1089 29.477 35.6905 30.4603L35.5859 30.7323L35.816 30.8996C36.9666 31.7574 37.657 33.2009 37.8244 35C37.9917 37.1339 37.3432 39.498 36.2553 40.6277C35.5649 41.339 34.77 41.6737 33.7449 41.6737C33.6193 41.6737 33.4729 41.6737 33.3265 41.6528L32.9917 41.6318L32.3223 45.0419H39.9373C41.6737 45.0419 43.4101 45.0419 45.1465 45.0419C46.2762 45.0419 46.4018 45.1465 46.5691 46.2553C46.862 48.2009 46.6319 49.749 45.8788 51.1298L45.5649 51.7155L46.2344 51.6737C47.908 51.5691 49.6863 49.9791 50.1256 48.18C50.293 47.5314 50.3767 46.8829 50.4185 46.2134C50.4813 45.1674 50.6486 45.021 51.6947 45.021H53.5357C55.2511 45.021 56.9457 45.021 58.6612 45.021C60.3348 45.021 62.0085 45.021 63.6821 45.021H63.7239C66.7783 45.021 69.3097 43.9122 71.2135 41.6946C72.7198 39.9582 73.4938 37.9708 73.4938 35.795V35.544C73.5147 27.4059 73.5566 18.9959 73.4938 10.7113C73.4729 8.2218 72.4896 5.89963 70.6905 4.16323C68.9122 2.42682 66.5273 1.46448 63.9959 1.46448C62.134 1.4854 60.1047 1.46448 57.657 1.46448C56.0461 1.46448 54.4562 1.46448 52.8453 1.46448C51.2344 1.46448 49.6444 1.46448 48.0336 1.46448C48.0336 1.46448 47.657 1.46448 47.5942 1.46448C47.5106 1.46448 47.4478 1.46448 47.3641 1.46448C47.3223 1.46448 47.2804 1.46448 47.2386 1.46448C46.6737 1.46448 46.4227 1.31804 46.3181 0.941469C46.2344 0.648582 46.2135 0.334775 46.7993 -0.020874H65.2511H65.2721C65.3767 0.020967 65.4813 0.0837285 65.6068 0.104649C70.293 0.836867 73.8076 4.16323 74.8118 8.76574C74.8537 8.99586 74.9164 9.22599 74.9792 9.45611L75.0419 9.72808V36.6946C74.9373 37.0503 74.8536 37.4059 74.77 37.7406C74.5817 38.4938 74.3934 39.2887 74.0587 39.9582C72.0085 44.2678 68.5147 46.4645 63.6821 46.4854C62.2177 46.4854 60.6905 46.5063 59.1424 46.5063C57.2386 46.5063 55.2302 46.5063 53.0545 46.4854H53.0336C52.2804 46.4854 51.9248 46.7992 51.8202 47.5733C51.4227 50.544 49.3516 52.6988 46.2972 53.3264C45.3557 53.5147 44.3516 53.5984 43.3474 53.6821C43.2846 53.6821 43.2428 53.6821 43.18 53.6821C42.5733 53.6821 42.2177 53.431 42.1131 52.908C42.0085 52.4268 42.3013 51.9875 42.908 51.7155C44.8955 50.7741 45.7114 48.9331 45.1256 46.7783L45.0419 46.5063C45.0419 46.5063 39.5817 46.5063 38.7449 46.5063C37.0503 46.5063 34.8327 46.5063 32.6152 46.4854H32.5942C31.9875 46.4854 31.611 46.6946 31.3181 47.2385C29.7281 50.1465 27.3641 52.2595 24.3306 53.4938C23.6821 53.7657 23.4311 54.1632 23.452 54.8745V54.9582C23.4938 56.339 23.5775 56.4645 24.9164 56.9247C25.1465 57.0084 25.3557 57.0712 25.5859 57.1339H25.6068C26.1089 57.2804 26.59 57.4268 27.0503 57.636C29.5189 58.8076 32.0921 60.0419 33.8495 62.3431C34.0168 62.5523 34.3516 63.0963 33.9122 63.4938C33.7658 63.6402 33.5984 63.703 33.452 63.703C33.2218 63.703 32.9917 63.5775 32.7616 63.3055C31.9039 62.3222 30.816 61.2134 29.3934 60.4812C29.2888 60.4185 29.1633 60.3766 29.0587 60.3348L29.0377 60.3139C28.975 60.2929 28.9122 60.272 28.8495 60.2302L28.3265 60V60.5649C28.3265 60.9833 28.3265 61.3808 28.3265 61.7783C28.3265 62.7197 28.3055 63.5984 28.3474 64.498C28.3683 65.3348 28.1382 65.8369 27.5524 66.1088C26.4018 66.6737 25.9415 67.5942 26.1507 68.8913C26.2762 69.6444 26.0043 70.1674 25.2302 70.6695C24.5608 71.1088 23.9331 71.5691 23.2637 72.0712L23.2218 72.0921C22.929 72.3013 22.6361 72.5314 22.3223 72.7616L21.4018 73.431H35.544L35.5649 73.0963C35.6905 71.318 35.5231 69.5816 35.0838 67.9708C34.7281 66.6528 35.1465 66.5272 35.4394 66.4645C35.5231 66.4436 35.5859 66.4226 35.6486 66.4226C35.8578 66.4226 36.1926 66.5482 36.5064 67.5942C37.1549 69.7699 37.1131 72.0712 37.0294 74.226C37.0294 74.3724 36.8411 74.5816 36.6737 74.7699V74.7908C36.611 74.8536 36.5691 74.9373 36.5064 75H1.38085ZM9.14235 60.3139C6.9457 61.2134 5.04193 63.0963 3.7867 65.6277C2.61516 68.0126 2.1549 70.7741 2.48963 73.2009L2.53147 73.5147H16.6319L15.7114 72.8452C15.3767 72.5942 15.0629 72.3641 14.749 72.1339C14.0587 71.6318 13.4311 71.1507 12.7825 70.7323C11.9875 70.2302 11.6947 69.6444 11.8202 68.8285C12.0294 67.636 11.5691 66.7364 10.4813 66.1716C9.85365 65.8578 9.6026 65.3348 9.64444 64.498C9.68629 63.5984 9.66537 62.6779 9.66537 61.7992C9.66537 61.4226 9.66537 61.0252 9.66537 60.6277V60.0837L9.14235 60.3139ZM20.1256 72.4896L20.9415 71.9038C21.2762 71.6737 21.5691 71.4436 21.8829 71.2134C22.5524 70.7323 23.1591 70.272 23.8076 69.8536C24.4562 69.4352 24.7072 68.9122 24.5817 68.2009C24.3516 66.8829 24.8327 65.9415 26.0461 65.3557C26.1507 65.2929 26.2972 65.2093 26.3808 65.0628C26.4018 65.021 26.4436 64.9582 26.4645 64.9164V64.8954C26.59 64.7072 26.7365 64.477 26.7365 64.2051C26.7574 62.908 26.7574 61.5063 26.7365 59.8327C26.7365 59.5607 26.5691 59.1005 26.2344 58.9749C25.6905 58.7657 25.1256 58.5775 24.5608 58.3892C24.3516 58.3264 24.1424 58.2636 23.9331 58.18L23.5566 58.0544L20.1256 72.4896ZM13.9331 58.2009C13.7239 58.2636 13.5147 58.3473 13.3055 58.4101C12.8453 58.5775 12.406 58.7239 11.9457 58.8494C11.339 59.0168 11.088 59.3724 11.088 59.9791C11.1089 61.2971 11.1089 62.657 11.088 64.0168C11.067 64.6444 11.3181 65.0837 11.7993 65.3139C13.0126 65.9205 13.5147 66.862 13.2846 68.2427C13.2428 68.4729 13.2428 68.6821 13.3055 68.8494C13.3683 69.0377 13.452 69.3515 13.6821 69.5189C14.4352 70.0837 15.1884 70.6277 16.0461 71.2553C16.3181 71.4645 17.7198 72.4687 17.7198 72.4687L14.2888 58.0544L13.9331 58.2009ZM18.5984 69.6026L19.3097 69.4561L21.6947 59.3724H16.1507L18.5984 69.6026ZM16.0252 57.8034H21.8411V54.477H16.0252V57.8034ZM24.1214 26.59C22.929 27.636 21.3599 28.3055 19.6026 28.4938C18.7658 28.5775 17.908 28.5984 17.0712 28.6193C16.5273 28.6402 15.9834 28.6402 15.4185 28.6821C12.6988 28.8285 9.68629 29.4352 7.9708 32.657C7.84528 32.8871 7.61516 33.0963 7.34319 33.3055C7.17582 33.4519 6.98754 33.5984 6.8411 33.7867C6.63189 34.0168 6.35993 34.3515 6.35993 34.7072V35.0419C6.339 36.9666 6.31808 38.9749 6.35993 40.9415C6.44361 43.954 7.61516 46.8201 9.66537 49.0377C11.6947 51.2344 14.4771 52.657 17.4687 52.9917C17.929 53.0544 18.4101 53.0754 18.8913 53.0754C21.6528 53.0754 24.3725 52.1339 26.59 50.4394C28.8285 48.7239 30.4185 46.2971 31.1089 43.6193C31.611 41.6528 31.5482 39.6444 31.5064 37.6988C31.4854 36.6737 31.4645 35.6067 31.5064 34.5816L31.5273 34.2469L31.1926 34.2051C30.0419 34.0377 29.3306 33.431 28.7449 32.113C28.3474 31.2344 27.8244 30.3348 27.1549 29.477C26.6319 28.7867 26.0461 28.18 25.4394 27.5105L25.4185 27.4896C25.1675 27.2176 24.8955 26.9247 24.6235 26.6318L24.3725 26.3599L24.1214 26.59ZM2.61516 32.4268C2.57331 32.4687 2.53147 32.5105 2.51055 32.5314C2.42687 32.6151 2.34319 32.6988 2.28043 32.7825C1.08796 34.3306 1.31808 38.2009 2.69884 39.5816C3.07541 39.9582 3.4729 40.1465 3.91223 40.1465C4.16327 40.1465 4.41432 40.0837 4.66536 39.9582L4.87457 39.8536V38.3892C4.87457 37.0293 4.87457 35.6277 4.85365 34.2469C4.85365 33.9331 4.62352 33.6193 4.43524 33.4519C4.14235 33.18 3.82854 32.9498 3.51474 32.6988C3.36829 32.5942 3.24277 32.4896 3.09633 32.385L2.82436 32.1758L2.61516 32.4268ZM34.6444 32.1339C34.498 32.2804 34.3516 32.4059 34.226 32.5105C33.9541 32.7616 33.7449 32.9498 33.5357 33.18C33.3055 33.4519 33.0126 33.7867 32.9917 34.1841C32.9708 35.5649 32.9708 36.9666 32.9708 38.3055V38.3264C32.9708 38.7657 32.9708 39.226 32.9708 39.6653V39.9582L33.2637 40.021C33.5147 40.0628 33.7239 40.1046 33.9122 40.1046C34.749 40.1046 35.3139 39.6862 35.7323 38.7448C36.4645 37.0712 36.59 35.4185 36.067 33.8076C35.9415 33.4101 35.7323 33.0754 35.5022 32.6988C35.3976 32.5314 35.293 32.385 35.2093 32.2176L34.9792 31.7992L34.6444 32.1339Z" fill="white"/>
<path d="M53.2846 33.2009C50.795 33.2009 48.18 33.2009 45.4812 33.18C44.3306 33.18 43.3892 32.7825 42.8662 32.0503C42.3222 31.2971 42.1967 30.2511 42.5524 29.0796L42.6361 28.8285L42.4059 28.6821C40.5022 27.3641 40.1465 26.4645 40.795 24.498L40.8787 24.226L40.6486 24.0795C39.7072 23.4729 39.226 22.8243 39.0586 22.0084C38.8704 21.0879 39.0586 20.2511 39.6235 19.5398L39.749 19.3724L39.6863 19.1842C39.6026 18.954 39.5189 18.7448 39.4352 18.5147C39.2678 18.0754 39.1005 17.6779 39.0377 17.2804C38.9331 16.4854 39.1423 15.6904 39.6235 15.0837C40.1047 14.498 40.795 14.1214 41.5482 14.0796C42.5942 13.9959 43.6402 13.9959 44.6863 13.9749C45.5231 13.9749 46.3808 13.954 47.2386 13.9122C48.0545 13.8703 48.8494 13.7657 49.7072 13.6402C50.0838 13.5984 50.4812 13.5356 50.8787 13.4938L51.2971 13.4519L50.9415 11.9875C50.7532 11.2344 50.5649 10.5021 50.3976 9.79085C50.0837 8.47286 50.1256 7.46867 50.5231 6.54817C50.9415 5.58583 52.2804 4.81177 53.5356 4.81177C53.9331 4.81177 54.2678 4.89545 54.5607 5.04189C54.8327 5.18834 55.1256 5.54399 55.3139 5.9624C55.795 7.05026 56.2762 8.22181 56.7992 9.62348C57.5524 11.6319 58.8076 13.3683 60.6486 14.8954C61.8411 15.8787 63.0335 17.0084 64.2888 18.3683C65.0628 19.2051 65.4603 20.3348 65.4394 21.7365C65.4185 23.0963 65.4185 24.477 65.4394 25.816C65.4394 26.6737 65.4394 27.5314 65.4394 28.3892C65.4394 31.339 63.6193 33.18 60.7114 33.2009C58.2846 33.2009 55.795 33.2009 53.2846 33.2009ZM53.1591 31.7155C53.9122 31.7155 54.6444 31.7155 55.3976 31.7155C55.3976 31.7155 57.0084 31.7155 57.6361 31.7155C58.6193 31.7155 59.5817 31.7155 60.5649 31.7155C62.7407 31.7155 63.8913 30.5649 63.8913 28.3892C63.8913 27.5733 63.8913 26.7783 63.8913 25.9624V25.9415C63.8913 24.5607 63.8913 23.1381 63.8913 21.7365C63.9122 20.6695 63.6193 19.8536 63.0126 19.226C62.4268 18.6193 61.7992 18.0126 61.1925 17.4478C60.7323 17.0084 60.2511 16.5482 59.7909 16.0879C59.5189 15.816 59.2051 15.5231 58.9331 15.272C58.1591 14.5398 57.3641 13.8076 56.8411 12.9498C56.1089 11.7365 55.544 10.3975 55.0001 9.10047C54.749 8.49378 54.4771 7.86616 54.1842 7.23855C54.1632 7.1967 54.1423 7.13394 54.1214 7.07118C54.0586 6.84106 53.8913 6.33896 53.2846 6.33896C53.2218 6.33896 53.1591 6.33896 53.0754 6.35988C52.657 6.42265 51.7574 6.56909 51.6319 7.55235C51.5691 8.09629 51.59 8.64022 51.6946 9.14231C51.862 9.91637 52.0503 10.6904 52.2386 11.4226L52.2595 11.4645C52.3432 11.8201 52.4478 12.1549 52.5314 12.5105C52.6988 13.159 52.6361 13.6821 52.4059 14.0586C52.1758 14.4143 51.7783 14.6653 51.2135 14.7699C49.6863 15.0837 48.3264 15.272 47.0294 15.3766C46.0252 15.4394 44.9791 15.4394 43.975 15.4394H43.9331C43.3264 15.4394 42.6988 15.4394 42.0921 15.4603C41.067 15.4812 40.4185 16.067 40.4394 16.9457C40.4394 17.8243 41.067 18.3683 42.113 18.3892C42.3432 18.3892 42.5524 18.3892 42.7825 18.3892C42.9499 18.3892 43.0963 18.3892 43.2637 18.3892C43.2637 18.3892 43.5984 18.3892 43.7239 18.3892C43.9122 18.3892 44.0796 18.3892 44.2679 18.3892C44.9791 18.4101 45.3557 18.6611 45.3348 19.1423C45.3348 19.3306 45.3139 19.8327 44.2888 19.8536C43.9959 19.8536 43.6821 19.8536 43.3892 19.8536H43.3683C42.8662 19.8536 42.3641 19.8536 41.8411 19.8954C41.2553 19.9373 40.7532 20.272 40.5231 20.795C40.3348 21.2553 40.4185 21.7574 40.7323 22.1339C41.067 22.5314 41.6737 22.7406 42.113 22.7825C42.4268 22.8034 42.7407 22.8243 43.18 22.8243C43.3473 22.8243 43.5356 22.8243 43.703 22.8243H43.7448C43.9122 22.8243 44.0586 22.8243 44.226 22.8243C44.4771 22.8243 44.6863 22.8243 44.8745 22.8452C45.2511 22.8662 45.7114 23.0126 45.6904 23.5984C45.6904 23.7867 45.6695 24.2469 44.8536 24.2888C44.749 24.2888 44.6235 24.2888 44.4561 24.2888C44.4143 24.2888 44.0168 24.2888 43.975 24.2888C43.8285 24.2888 43.6402 24.2888 43.431 24.3097C42.4896 24.3724 41.9248 24.9582 41.9248 25.8578C41.9248 26.6946 42.4896 27.1967 43.4519 27.2595C43.5147 27.2595 43.5775 27.2595 43.6612 27.2595C43.7448 27.2595 43.8494 27.2595 43.9331 27.2595C44.0377 27.2595 44.1214 27.2595 44.1842 27.2595C44.3515 27.2595 44.5607 27.2595 44.7072 27.3222C45.0419 27.4478 45.3557 27.7825 45.3766 27.9498C45.4185 28.159 45.0628 28.6821 44.9373 28.8494C44.8955 28.8913 44.7699 28.954 44.6653 29.0168C44.5398 29.0795 44.3934 29.1423 44.2679 29.2469C43.8494 29.5816 43.6402 30.0628 43.7239 30.5649C43.8076 31.0461 44.1423 31.4436 44.6235 31.59C44.9373 31.6946 45.272 31.6946 45.5649 31.6946H45.6277C46.9248 31.6946 48.2218 31.6946 49.5398 31.6946L53.1591 31.7155Z" fill="white"/>
<path d="M19.2469 47.4686C16.4435 47.4268 14.4142 46.5272 12.8661 44.6862C12.6778 44.4561 12.5104 44.226 12.364 43.954C12.113 43.5147 12.1757 43.1172 12.5523 42.887C12.6778 42.8034 12.8243 42.7615 12.9498 42.7615C13.1799 42.7615 13.41 42.908 13.5774 43.159C14.4979 44.5607 15.774 45.4393 17.4268 45.795C17.9707 45.9205 18.5356 45.9624 19.0795 45.9624C21.4435 45.9624 23.41 44.9163 24.3096 43.1381C24.4351 42.887 24.6443 42.7406 24.8745 42.7406C25 42.7406 25.1464 42.7824 25.2929 42.8661C25.6694 43.0962 25.7531 43.4728 25.5021 43.9331C24.5188 45.795 22.887 46.9038 20.5648 47.3431C20.2301 47.4059 19.8745 47.4268 19.5816 47.4477C19.4561 47.4477 19.3515 47.4477 19.2469 47.4686Z" fill="white"/>
<path d="M15.5859 37.1758C15.5232 37.1758 15.4604 37.1549 15.3976 37.134C14.6026 36.862 13.8495 36.7365 13.0964 36.7365C12.5106 36.7365 11.9248 36.8202 11.36 36.9666C11.2972 36.9875 11.2344 36.9875 11.1717 36.9875C10.8579 36.9875 10.6068 36.7574 10.5232 36.4227C10.4395 36.0461 10.6696 35.6904 11.088 35.544C11.7993 35.3139 12.5106 35.1884 13.201 35.1884C14.0378 35.1884 14.8537 35.3557 15.6278 35.7114C15.816 35.795 16.0043 36.0043 16.1508 36.1716C16.1717 36.2135 16.2135 36.2344 16.2344 36.2553C16.2135 36.5482 16.1298 36.7992 15.9834 36.9457C15.8579 37.113 15.7324 37.1758 15.5859 37.1758Z" fill="white"/>
<path d="M22.2804 37.1967C22.0084 37.1967 21.8201 37.0294 21.6946 36.7156C21.6109 36.5064 21.6109 36.2972 21.6946 36.1298C21.7574 35.9834 21.9038 35.8578 22.0921 35.7951C22.6988 35.5859 23.3055 35.4394 23.9122 35.293C24.1423 35.2302 24.3515 35.1884 24.5607 35.1256C24.8118 35.1675 25.0419 35.2093 25.272 35.2511C25.8159 35.3557 26.2971 35.4394 26.7574 35.544C27.2176 35.6695 27.4477 36.0252 27.3641 36.4227C27.2804 36.7574 27.0293 36.9875 26.6946 36.9875C26.6109 36.9875 26.5272 36.9666 26.4436 36.9457C25.8787 36.7993 25.3138 36.7156 24.749 36.7156C24.0377 36.7156 23.3264 36.8411 22.6151 37.1131C22.4687 37.1758 22.3641 37.1967 22.2804 37.1967Z" fill="white"/>
</g>
<defs>
<clipPath id="clip0_405_2883">
<rect width="75" height="75" fill="white"/>
</clipPath>
</defs>
</svg>
