<svg width="40" height="33" viewBox="0 0 40 33" fill="none" xmlns="http://www.w3.org/2000/svg">
<path d="M22.3222 20.5697C22.0467 20.5697 21.7712 20.2942 21.7712 20.0187V11.3867H18.1898V20.0187C18.1898 20.2942 17.9144 20.5697 17.6389 20.5697C17.3634 20.5697 17.0879 20.2942 17.0879 20.0187V10.8358C17.0879 10.5603 17.3634 10.2848 17.6389 10.2848H22.2303C22.5058 10.2848 22.7813 10.5603 22.7813 10.8358V20.0187C22.7813 20.386 22.5977 20.5697 22.3222 20.5697Z" fill="#6034C4"/>
<path d="M15.5272 32.6913H10.9357C10.6603 32.6913 10.3848 32.4158 10.3848 32.1403V16.713C10.3848 16.4375 10.6603 16.162 10.9357 16.162C11.2112 16.162 11.4867 16.4375 11.4867 16.713V31.5893H15.0681V16.713C15.0681 16.4375 15.3436 16.162 15.619 16.162C15.8945 16.162 16.17 16.4375 16.17 16.713V32.1403C16.0782 32.4158 15.8027 32.6913 15.5272 32.6913Z" fill="#6034C4"/>
<path d="M17.8218 32.6913H8.63887C8.36338 32.6913 8.08789 32.4158 8.08789 32.1403C8.08789 31.8648 8.36338 31.5894 8.63887 31.5894H17.9136C18.1891 31.5894 18.4646 31.8648 18.4646 32.1403C18.4646 32.4158 18.1891 32.6913 17.8218 32.6913Z" fill="#6034C4"/>
<path d="M29.0272 32.6913H24.4357C24.1603 32.6913 23.8848 32.4158 23.8848 32.1403V16.713C23.8848 16.4375 24.1603 16.162 24.4357 16.162C24.7112 16.162 24.9867 16.4375 24.9867 16.713V31.5893H28.4762V16.713C28.4762 16.4375 28.7517 16.162 29.0272 16.162C29.3027 16.162 29.5782 16.4375 29.5782 16.713V32.1403C29.5782 32.4158 29.3027 32.6913 29.0272 32.6913Z" fill="#6034C4"/>
<path d="M31.3218 32.6913H22.0471C21.7716 32.6913 21.4961 32.4158 21.4961 32.1403C21.4961 31.8648 21.7716 31.5894 22.0471 31.5894H31.3218C31.5973 31.5894 31.8728 31.8648 31.8728 32.1403C31.8728 32.4158 31.5973 32.6913 31.3218 32.6913Z" fill="#6034C4"/>
<path d="M8.91428 21.4881C8.63879 21.4881 8.3633 21.2126 8.3633 20.9371V13.8662L0.190479 5.78522C0.00681966 5.60156 0.00681966 5.23424 0.190479 5.05059C0.374137 4.86693 0.741455 4.86693 0.925114 5.05059L9.28159 13.4071C9.37342 13.4989 9.46525 13.6826 9.46525 13.7744V21.0289C9.37342 21.3044 9.18976 21.4881 8.91428 21.4881Z" fill="#6034C4"/>
<path d="M31.1369 21.4881C30.8614 21.4881 30.5859 21.2126 30.5859 20.9371V13.6826C30.5859 13.4989 30.6778 13.4071 30.7696 13.3153L39.1261 4.95879C39.3097 4.77513 39.6771 4.77513 39.8607 4.95879C40.0444 5.14245 40.0444 5.50977 39.8607 5.69342L31.6879 13.8662V20.9371C31.6879 21.3044 31.4124 21.4881 31.1369 21.4881Z" fill="#6034C4"/>
<path d="M13.2317 6.79538C11.3951 6.79538 9.83398 5.23428 9.83398 3.39769C9.83398 1.5611 11.3951 0 13.2317 0C15.0683 0 16.6294 1.5611 16.6294 3.39769C16.6294 5.23428 15.0683 6.79538 13.2317 6.79538ZM13.2317 1.10195C11.9461 1.10195 10.9359 2.11208 10.9359 3.39769C10.9359 4.6833 11.9461 5.69342 13.2317 5.69342C14.5173 5.69342 15.5274 4.6833 15.5274 3.39769C15.5274 2.11208 14.5173 1.10195 13.2317 1.10195Z" fill="#6034C4"/>
<path d="M26.7297 6.79538C24.8931 6.79538 23.332 5.23428 23.332 3.39769C23.332 1.5611 24.8931 0 26.7297 0C28.5663 0 30.1274 1.5611 30.1274 3.39769C30.1274 5.23428 28.5663 6.79538 26.7297 6.79538ZM26.7297 1.10195C25.4441 1.10195 24.434 2.11208 24.434 3.39769C24.434 4.6833 25.4441 5.69342 26.7297 5.69342C28.0153 5.69342 29.0255 4.6833 29.0255 3.39769C29.0255 2.11208 28.0153 1.10195 26.7297 1.10195Z" fill="#6034C4"/>
<path d="M13.2304 10.8359C13.1386 10.8359 12.9549 10.8359 12.8631 10.7441L10.5673 8.90746C10.3837 8.7238 10.2919 8.54014 10.3837 8.26466C10.4755 8.081 10.6592 7.89734 10.9347 7.89734H15.5261C15.7098 7.89734 15.9853 8.081 16.0771 8.26466C16.1689 8.44832 16.0771 8.7238 15.8934 8.90746L13.5977 10.7441C13.5059 10.8359 13.3222 10.8359 13.2304 10.8359ZM12.4958 8.99929L13.2304 9.6421L13.965 8.99929H12.4958Z" fill="#6034C4"/>
<path d="M26.7293 10.8358C26.6374 10.8358 26.4538 10.8358 26.3619 10.744L24.0662 8.90743C23.8826 8.8156 23.8826 8.54011 23.9744 8.35645C24.0662 8.1728 24.2499 7.98914 24.5254 7.98914H29.1168C29.3005 7.98914 29.576 8.1728 29.6678 8.35645C29.7596 8.54011 29.6678 8.8156 29.4841 8.99926L27.1884 10.8358C26.9129 10.8358 26.8211 10.8358 26.7293 10.8358ZM25.9946 8.99926L26.7293 9.64207L27.4639 8.99926H25.9946Z" fill="#6034C4"/>
<path d="M19.9353 8.99919H8.91574C8.8239 8.99919 8.73208 8.99919 8.64025 8.90736L0.191939 2.84662C0.00828025 2.66296 -0.0835492 2.29564 0.10011 2.11198C0.283769 1.92832 0.651086 1.83649 0.834745 2.02015L9.00756 7.98907H19.9353C20.2108 7.98907 20.4862 8.26455 20.4862 8.54004C20.4862 8.81553 20.3026 8.99919 19.9353 8.99919Z" fill="#6034C4"/>
<path d="M30.9553 8.99922H19.8439C19.5685 8.99922 19.293 8.72373 19.293 8.44825C19.293 8.17276 19.5685 7.89727 19.8439 7.89727H30.7716L38.9445 1.92836C39.22 1.7447 39.4954 1.83653 39.6791 2.02019C39.8628 2.29567 39.7709 2.57116 39.5873 2.75482L31.2308 8.90739C31.2308 8.99922 31.0471 8.99922 30.9553 8.99922Z" fill="#6034C4"/>
</svg>
