<svg width="67" height="76" viewBox="0 0 67 76" fill="none" xmlns="http://www.w3.org/2000/svg">
<path d="M32.9595 75.1126C32.186 74.6823 31.9152 74.0172 31.9346 73.1174C31.9732 70.1443 31.9539 67.1711 31.9539 64.1979C31.9539 63.2785 32.3987 62.6722 33.1529 62.5157C33.9844 62.3592 34.8353 62.9851 34.8353 63.9045C34.8547 67.1711 34.8547 70.4377 34.8353 73.7043C34.8353 74.4084 34.3325 74.7605 33.8297 75.1126C33.5396 75.1126 33.2496 75.1126 32.9595 75.1126Z" fill="white"/>
<path d="M32.6507 58.0947C26.7331 58.036 20.6802 55.9822 15.0913 52.4809C9.34779 48.8817 4.55183 44.2459 0.548754 38.769C-0.18611 37.7714 -0.18611 37.3606 0.568093 36.3435C5.88619 29.1844 12.3066 23.3945 20.5061 19.8149C29.5179 15.8833 38.5103 16.118 47.3673 20.3039C55.1221 23.9617 61.2524 29.5951 66.3191 36.5C66.8799 37.2628 66.9186 37.791 66.3771 38.5147C60.5562 46.4171 53.4396 52.6569 44.1958 56.1387C40.7729 57.4296 36.8859 58.0947 32.6507 58.0947ZM34.6426 19.9518C29.9433 19.9323 26.385 20.6169 22.9234 21.9666C14.9946 25.0767 8.80631 30.4949 3.56557 37.1259C3.29483 37.478 3.37218 37.7127 3.62358 38.0061C8.22615 43.8547 13.6216 48.7448 20.3321 51.9918C28.609 55.9822 36.9826 56.2365 45.3948 52.4809C52.6274 49.2534 58.3323 44.1285 63.2056 37.9474C63.5344 37.5367 63.341 37.3019 63.1089 37.0085C59.5119 32.4118 55.3735 28.4215 50.4422 25.2918C45.2594 22.0057 39.6513 19.991 34.6426 19.9518Z" fill="white"/>
<path d="M34.8365 6.37712C34.8365 7.88328 34.8365 9.40899 34.8365 10.9151C34.8365 11.9323 34.2757 12.5778 33.4248 12.5973C32.5546 12.6169 31.9551 11.9323 31.9551 10.8956C31.9551 7.8246 31.9551 4.75361 31.9551 1.68262C31.9551 0.665475 32.5159 0.0199805 33.3668 0.000420012C34.237 -0.0191404 34.8365 0.645915 34.8559 1.70218C34.8559 3.26701 34.8365 4.81229 34.8365 6.37712Z" fill="white"/>
<path d="M13.4861 18.7C13.4474 19.991 12.2871 20.6952 11.3395 20.1475C11.1268 20.0301 10.9528 19.8541 10.7787 19.678C8.86422 17.7611 6.93036 15.8442 5.07386 13.8686C4.74511 13.5165 4.45503 12.9101 4.49371 12.4798C4.55172 12.0495 4.99651 11.4822 5.40262 11.3257C5.80873 11.1692 6.52425 11.3062 6.83367 11.5996C8.94157 13.6339 10.9915 15.7464 13.0413 17.8393C13.2927 18.1132 13.3894 18.524 13.4861 18.7Z" fill="white"/>
<path d="M54.9286 20.3623C53.5749 20.2645 52.9561 19.0713 53.5169 18.1324C53.633 17.9564 53.7877 17.7803 53.923 17.6238C55.8375 15.6874 57.7134 13.7313 59.6666 11.8535C60.0147 11.521 60.5948 11.2276 61.0396 11.2667C61.4457 11.3058 61.9292 11.7166 62.1806 12.1078C62.5093 12.6164 62.3546 13.2032 61.9292 13.6531C61.3297 14.3181 60.6722 14.9441 60.0533 15.5896C58.6997 16.9783 57.346 18.3671 55.9536 19.7168C55.6442 20.0298 55.1607 20.2254 54.9286 20.3623Z" fill="white"/>
<path d="M13.6794 57.5665C13.3699 58.0947 13.2346 58.525 12.9445 58.8184C10.9913 60.8331 8.99944 62.8283 7.00757 64.8235C6.31138 65.5081 5.49917 65.5472 4.88033 64.9408C4.24216 64.3344 4.2615 63.4542 4.95769 62.7305C6.93022 60.7158 8.90275 58.7206 10.8946 56.7254C11.3781 56.2364 11.9776 55.9626 12.5964 56.3342C13.0219 56.6472 13.2926 57.1362 13.6794 57.5665Z" fill="white"/>
<path d="M54.6183 56.021C55.1405 56.334 55.5853 56.4709 55.8753 56.7643C57.8672 58.7399 59.8591 60.7546 61.8123 62.7498C62.5278 63.4735 62.5471 64.3342 61.909 64.9601C61.2901 65.5665 60.4586 65.5274 59.7237 64.8036C57.7512 62.828 55.798 60.8329 53.8448 58.8573C53.3613 58.3682 53.0906 57.7619 53.4387 57.1555C53.7094 56.7056 54.1929 56.4122 54.6183 56.021Z" fill="white"/>
<path d="M20.293 37.5564C20.3703 36.8327 20.409 36.0894 20.525 35.3657C20.6604 34.4072 21.3372 33.8595 22.1495 33.9769C23.0004 34.0747 23.5032 34.7397 23.3871 35.7178C23.1744 37.263 23.1937 38.7887 23.6192 40.2949C25.0502 45.4393 30.0203 48.5885 35.261 47.6692C40.2503 46.789 43.8666 42.0749 43.5379 36.8718C43.1318 30.28 36.576 25.781 30.3103 27.7762C30.0976 27.8349 29.9042 27.9327 29.6915 27.9914C28.8599 28.187 28.1251 27.8153 27.893 27.0525C27.6609 26.2701 27.9897 25.5463 28.8019 25.2334C30.5811 24.5292 32.4376 24.2553 34.3521 24.4118C40.231 24.8421 45.0463 29.1846 46.2066 35.0331C47.6763 42.5052 42.5323 49.723 35.0676 50.6619C27.2162 51.6204 20.351 45.5175 20.293 37.5564Z" fill="white"/>
<path d="M39.1872 37.5762C39.1679 40.8036 36.5378 43.4443 33.347 43.4247C30.1561 43.4052 27.5648 40.745 27.5841 37.4979C27.6034 34.3096 30.2141 31.6885 33.3857 31.6885C36.5958 31.6885 39.2066 34.3291 39.1872 37.5762ZM33.4243 40.4907C35.0101 40.4711 36.3058 39.141 36.2864 37.537C36.2671 35.9331 34.9521 34.6225 33.3663 34.6421C31.7806 34.6617 30.4849 35.9918 30.5042 37.5957C30.5042 39.1997 31.8192 40.4907 33.4243 40.4907Z" fill="white"/>
<path d="M24.6826 31.6688C23.8898 31.6688 23.2129 30.9647 23.2516 30.1627C23.2709 29.3803 23.9284 28.7348 24.702 28.7543C25.4948 28.7543 26.1717 29.4585 26.133 30.2605C26.1137 31.0429 25.4562 31.6884 24.6826 31.6688Z" fill="white"/>
</svg>
