<svg width="28" height="25" viewBox="0 0 28 25" fill="none" xmlns="http://www.w3.org/2000/svg">
<path d="M25.45 0H24C23.7348 0 23.4804 0.106566 23.2929 0.296254C23.1054 0.485943 23 0.743215 23 1.01147C23 1.27973 23.1054 1.53701 23.2929 1.7267C23.4804 1.91638 23.7348 2.02295 24 2.02295H25.45C25.5959 2.02295 25.7358 2.08156 25.8389 2.18589C25.9421 2.29022 26 2.43172 26 2.57926V16.1836H2V2.57926C2 2.43172 2.05795 2.29022 2.16109 2.18589C2.26424 2.08156 2.40413 2.02295 2.55 2.02295H20C20.2652 2.02295 20.5196 1.91638 20.7071 1.7267C20.8946 1.53701 21 1.27973 21 1.01147C21 0.743215 20.8946 0.485943 20.7071 0.296254C20.5196 0.106566 20.2652 0 20 0H2.55C1.8737 0 1.2251 0.271743 0.746878 0.755448C0.26866 1.23915 0 1.8952 0 2.57926V21.6961C0 22.3802 0.26866 23.0362 0.746878 23.52C1.2251 24.0037 1.8737 24.2754 2.55 24.2754H25.45C26.1263 24.2754 26.7749 24.0037 27.2531 23.52C27.7313 23.0362 28 22.3802 28 21.6961V2.57926C28 1.8952 27.7313 1.23915 27.2531 0.755448C26.7749 0.271743 26.1263 0 25.45 0ZM25.45 22.2524H2.55C2.40413 22.2524 2.26424 22.1938 2.16109 22.0895C2.05795 21.9852 2 21.8437 2 21.6961V18.2065H26V21.6961C26 21.8437 25.9421 21.9852 25.8389 22.0895C25.7358 22.1938 25.5959 22.2524 25.45 22.2524Z" fill="white"/>
<path d="M24 19.218H11C10.7348 19.218 10.4804 19.3246 10.2929 19.5143C10.1054 19.704 10 19.9612 10 20.2295C10 20.4978 10.1054 20.755 10.2929 20.9447C10.4804 21.1344 10.7348 21.241 11 21.241H24C24.2652 21.241 24.5196 21.1344 24.7071 20.9447C24.8946 20.755 25 20.4978 25 20.2295C25 19.9612 24.8946 19.704 24.7071 19.5143C24.5196 19.3246 24.2652 19.218 24 19.218Z" fill="white"/>
<path d="M8 19.218H4C3.73478 19.218 3.48043 19.3246 3.29289 19.5143C3.10536 19.704 3 19.9612 3 20.2295C3 20.4978 3.10536 20.755 3.29289 20.9447C3.48043 21.1344 3.73478 21.241 4 21.241H8C8.26522 21.241 8.51957 21.1344 8.70711 20.9447C8.89464 20.755 9 20.4978 9 20.2295C9 19.9612 8.89464 19.704 8.70711 19.5143C8.51957 19.3246 8.26522 19.218 8 19.218Z" fill="white"/>
<path d="M12.6 4.24823C12.4561 4.14523 12.2877 4.08256 12.1121 4.06657C11.9365 4.05059 11.7598 4.08185 11.6 4.1572C11.4257 4.23405 11.2767 4.35954 11.1705 4.51898C11.0642 4.67842 11.0051 4.8652 11 5.05741V13.1492C11 13.4175 11.1054 13.6747 11.2929 13.8644C11.4804 14.0541 11.7348 14.1607 12 14.1607C12.1795 14.1606 12.3556 14.1117 12.51 14.0191L18.51 10.4182C18.6509 10.3342 18.7692 10.2164 18.8546 10.0754C18.9401 9.93429 18.99 9.77418 19 9.60905C19.0097 9.4419 18.9783 9.27492 18.9084 9.1231C18.8386 8.97128 18.7326 8.83936 18.6 8.73918L12.6 4.24823ZM13 11.3791V7.08036L16.19 9.46744L13 11.3791Z" fill="white"/>
</svg>
