<svg width="83" height="83" viewBox="0 0 83 83" fill="none" xmlns="http://www.w3.org/2000/svg">
<g clip-path="url(#clip0_71_983)">
<path d="M83 0H15.8003V7.30573H18.2211V18.2643C15.5841 18.5021 13.0552 19.5396 10.9802 21.2471L12.5148 23.1276C14.4602 21.5281 16.9242 20.6419 19.4315 20.6419C25.462 20.6419 30.3685 25.5484 30.3685 31.5789V42.5159H24.7919L27.926 39.3818V33.1352L19.6044 30.3685H10.937V39.3818L14.7195 43.1643L8.51615 45.0232V31.5789C8.51615 29.0716 9.40234 26.6076 11.0018 24.6622L9.12135 23.1276C7.17604 25.5052 6.09531 28.5096 6.09531 31.5789V45.7581L3.65286 46.4714V59.894H0V67.1997H2.42083V83H36.4638V67.1997H38.9062V59.894H32.8326V57.1273H68.4102V54.7065H33.4378L47.8115 41.9107L48.006 33.7836L50.1674 30.563L48.1573 29.2013L45.8878 32.5516L33.5891 42.4943H32.8109V31.5573C32.8109 24.5974 27.4505 18.8479 20.6419 18.2427V7.30573H78.1151V54.7281H70.8094V57.149H80.5359V7.30573H83V0ZM21.874 44.9583H24.8568L19.3451 50.081L13.6604 46.0174L17.1836 44.9583H21.874ZM13.3794 32.7893H19.2586L25.5268 34.8859V38.3659L21.3768 42.5159H17.5294L13.3794 38.3659V32.7893ZM6.0737 48.287L10.7208 46.9036L18.2427 52.2641V59.894H12.1474V53.8203H9.72656V59.894H6.0737V48.287ZM34.043 80.5792H4.86328V67.1997H34.043V80.5792ZM36.4854 64.7573H2.42083V62.3365H36.4638V64.7573H36.4854ZM34.4753 44.9583L45.5419 36.0099L45.4339 40.8083L30.4117 54.1661V59.894H20.6852V52.156L28.4664 44.9367H34.4753V44.9583ZM80.5792 4.86328H18.2427V2.42083H80.5792V4.86328Z" fill="#585AA1"/>
<path d="M55.2044 14.7844L52.0703 11.6503H42.5599L39.4258 14.7844V33.5242H41.8466V25.0081H52.7836V33.5242H55.2044V14.7844ZM52.7836 22.5872H41.8466V15.8003L43.5758 14.0711H51.076L52.8052 15.8003V22.5872H52.7836Z" fill="#73B657"/>
<path d="M57.6465 22.5872V33.5242H69.7939V17.7239H57.6465V20.1448H67.373V22.5656H57.6465V22.5872ZM67.373 31.1034H60.0673V25.0297H67.373V31.1034Z" fill="#73B657"/>
<path d="M69.7939 40.83H57.6465V43.2508H69.7939V40.83Z" fill="#585AA1"/>
<path d="M69.7939 35.9667H57.6465V38.3875H69.7939V35.9667Z" fill="#585AA1"/>
<path d="M55.204 35.9667H52.7832V38.3875H55.204V35.9667Z" fill="#585AA1"/>
<path d="M55.204 40.83H52.7832V43.2508H55.204V40.83Z" fill="#585AA1"/>
<path d="M75.6943 9.72656H73.2734V12.1474H75.6943V9.72656Z" fill="#585AA1"/>
<path d="M31.6005 69.6206H29.1797V72.0414H31.6005V69.6206Z" fill="#73B657"/>
<path d="M70.831 9.72656H68.4102V12.1474H70.831V9.72656Z" fill="#585AA1"/>
</g>
<defs>
<clipPath id="clip0_71_983">
<rect width="83" height="83" fill="white"/>
</clipPath>
</defs>
</svg>
