<svg width="85" height="85" viewBox="0 0 85 85" fill="none" xmlns="http://www.w3.org/2000/svg">
<path d="M48.3012 7.43433H35.7012V9.55842H48.3012V7.43433Z" fill="#73B657"/>
<path d="M13.4154 84.9197H5.79492V43.7371H13.4154V84.9197ZM8.18994 82.4972H11.0204V46.1596H8.18994V82.4972Z" fill="#585AA1"/>
<path d="M78.3861 84.9197H70.7656V43.7371H78.3861V66.817H75.9911V46.1596H73.1606V82.4972H75.9911V73.4018H78.3861V84.9197Z" fill="#585AA1"/>
<path d="M84.1098 46.1599H0.0664062V37.2407H84.1098V46.1599ZM2.46143 43.7374H81.7148V39.6632H2.46143V43.7374Z" fill="#585AA1"/>
<path d="M34.0964 39.6849H6.57542L0 20.9656H5.39968V23.3881H3.39657L8.27371 37.2624H30.6998L25.8227 23.3881H10.9082V20.9656H27.4992L34.0964 39.6849Z" fill="#585AA1"/>
<path d="M61.8786 61.4875H36.4043V63.9101H61.8786V61.4875Z" fill="#585AA1"/>
<path d="M59.3963 53.1849H24.7773V43.7371H59.3963V53.1849ZM27.1724 50.7624H57.0012V46.1596H27.1724V50.7624Z" fill="#585AA1"/>
<path d="M59.8511 40.3578H26.3998V37.8983H57.454V2.45948H27.5983V22.5154H25.2012V0H59.8511V40.3578Z" fill="#585AA1"/>
<path d="M62.9895 60.3203H21.1855V50.6303H63.0113V60.3203H62.9895ZM23.8201 57.6556H60.355V53.3171H23.8201V57.6556Z" fill="#585AA1"/>
<path d="M45.94 70.9133H38.2324V61.5316H45.94V70.9133ZM40.5621 68.5349H43.5886V63.8881H40.5621V68.5349Z" fill="#585AA1"/>
<path d="M49.0541 64.0423H35.0976C32.3325 64.0423 30.0898 61.7739 30.0898 58.977V57.6337H54.04V58.977C54.0618 61.7739 51.8192 64.0423 49.0541 64.0423ZM33.1598 60.3204C33.5953 60.9591 34.292 61.3775 35.1194 61.3775H49.0758C49.8814 61.3775 50.5999 60.9591 51.0354 60.3204H33.1598Z" fill="#585AA1"/>
<path d="M78.3175 37.0642H65.5586V25.0398H78.3175V37.0642ZM68.0189 34.5756H75.879V27.5063H68.0189V34.5756Z" fill="#73B657"/>
<path d="M70.1525 19.265L67.7715 19.798L69.2489 26.5499L71.6299 26.0169L70.1525 19.265Z" fill="#73B657"/>
<path d="M74.1667 20.8066L72.8809 25.2676L75.2219 25.958L76.5078 21.497L74.1667 20.8066Z" fill="#73B657"/>
<path d="M46.5494 39.7069H31.1777V32.4614H46.5494V39.7069ZM33.6163 37.2183H44.0891V34.928H33.6163V37.2183Z" fill="#585AA1"/>
<path d="M25.9101 84.9638C23.8852 84.9638 22.2305 83.2901 22.2305 81.242V79.5903C22.2305 77.5421 23.8852 75.8684 25.9101 75.8684C27.935 75.8684 29.5897 77.5421 29.5897 79.5903V81.242C29.5897 83.2901 27.935 84.9638 25.9101 84.9638ZM25.9101 78.3129C25.2351 78.3129 24.669 78.8855 24.669 79.5682V81.2199C24.669 81.9026 25.2351 82.4752 25.9101 82.4752C26.5851 82.4752 27.1511 81.9026 27.1511 81.2199V79.5682C27.1511 78.8855 26.5851 78.3129 25.9101 78.3129Z" fill="#585AA1"/>
<path d="M42.0898 84.9638C40.0649 84.9638 38.4102 83.2901 38.4102 81.242V79.5903C38.4102 77.5421 40.0649 75.8684 42.0898 75.8684C44.1147 75.8684 45.7694 77.5421 45.7694 79.5903V81.242C45.7694 83.2901 44.1147 84.9638 42.0898 84.9638ZM42.0898 78.3129C41.4148 78.3129 40.8487 78.8855 40.8487 79.5682V81.2199C40.8487 81.9026 41.4148 82.4752 42.0898 82.4752C42.7647 82.4752 43.3308 81.9026 43.3308 81.2199V79.5682C43.3308 78.8855 42.7647 78.3129 42.0898 78.3129Z" fill="#585AA1"/>
<path d="M58.2617 84.9638C56.2368 84.9638 54.582 83.2901 54.582 81.242V79.5903C54.582 77.5421 56.2368 75.8684 58.2617 75.8684C60.2865 75.8684 61.9413 77.5421 61.9413 79.5903V81.242C61.9413 83.2901 60.2865 84.9638 58.2617 84.9638ZM58.2617 78.3129C57.5867 78.3129 57.0206 78.8855 57.0206 79.5682V81.2199C57.0206 81.9026 57.5867 82.4752 58.2617 82.4752C58.9366 82.4752 59.5027 81.9026 59.5027 81.2199V79.5682C59.5027 78.8855 58.9366 78.3129 58.2617 78.3129Z" fill="#585AA1"/>
<path d="M59.3742 77.1679H56.9792V71.9265C56.9792 71.3759 56.5437 70.9354 55.9994 70.9354H28.1736C27.6293 70.9354 27.1938 71.3759 27.1938 71.9265V77.1679H24.7988V71.9265C24.7988 70.0545 26.3229 68.5129 28.1736 68.5129H55.9994C57.8501 68.5129 59.3742 70.0545 59.3742 71.9265V77.1679Z" fill="#585AA1"/>
<path d="M43.1782 69.7241H40.7832V77.0797H43.1782V69.7241Z" fill="#585AA1"/>
<path d="M18.9 28.6753H15.75V30.7994H18.9V28.6753Z" fill="#73B657"/>
</svg>
