<?xml version="1.0" encoding="utf-8"?>
<!-- Generator: Adobe Illustrator 26.0.0, SVG Export Plug-In . SVG Version: 6.00 Build 0)  -->
<svg version="1.1" id="Calque_1" xmlns="http://www.w3.org/2000/svg" xmlns:xlink="http://www.w3.org/1999/xlink" x="0px" y="0px"
	 viewBox="0 0 160 160" style="enable-background:new 0 0 160 160;" xml:space="preserve">
<style type="text/css">
	.st0{fill:#FEFEFE;}
	.st1{fill:#5F5DAC;}
</style>
<path class="st0" d="M99.5,78.7c-0.5-0.3-1-0.3-1.5,0c-0.7,0.4-0.9,1.3-0.6,2c0.4,0.7,1.2,1,1.9,0.7c0.5-0.2,0.8-0.7,0.9-1.2
	C100.3,79.5,100,79,99.5,78.7z M99.5,78.7c-0.5-0.3-1-0.3-1.5,0c-0.7,0.4-0.9,1.3-0.6,2c0.4,0.7,1.2,1,1.9,0.7
	c0.5-0.2,0.8-0.7,0.9-1.2C100.3,79.5,100,79,99.5,78.7z M99.5,78.7c-0.5-0.3-1-0.3-1.5,0c-0.7,0.4-0.9,1.3-0.6,2
	c0.4,0.7,1.2,1,1.9,0.7c0.5-0.2,0.8-0.7,0.9-1.2C100.3,79.5,100,79,99.5,78.7z M113.7,95.9c-1.2-1.5-7.2-0.9-9.2-0.8
	c-0.7,0.5-0.8,0.6-1.2,1.4c0.5,2.4,7.5,1.6,9.5,1.5C113.8,97.4,114.1,97,113.7,95.9z M113.7,95.9c-1.2-1.5-7.2-0.9-9.2-0.8
	c-0.7,0.5-0.8,0.6-1.2,1.4c0.5,2.4,7.5,1.6,9.5,1.5C113.8,97.4,114.1,97,113.7,95.9z M99.5,78.7c-0.5-0.3-1-0.3-1.5,0
	c-0.7,0.4-0.9,1.3-0.6,2c0.4,0.7,1.2,1,1.9,0.7c0.5-0.2,0.8-0.7,0.9-1.2C100.3,79.5,100,79,99.5,78.7z M120.1,89
	c-0.8-0.8-1.6-0.8-2.8-0.8c0-9.9,2.3-20.7-8.6-25.5c2.9-3.1,4.6-6.5,4.5-10.8c-0.1-3.8-1.7-7.5-4.5-10.1c-2.8-2.6-6.3-3.9-10-3.9
	c-4.5,0.4-7.9,1.7-10.9,5.2c-2.4,2.9-3.6,6.6-3.2,10.4c0.4,4.2,2.2,7.2,5.3,9.9c-3.4,2.8-8,7.7-11.1,10.9c-1.4-1.8-9-9.2-11-11
	C74,58,75,49.4,69.5,43c-2.5-2.9-6-4.7-9.9-4.9c-3.9-0.3-7.7,1-10.6,3.6c-6.7,5.9-6.2,14.4-0.6,20.8c0,0,0.1,0.1,0.1,0.2
	c-1,0.6-2.3,1.3-3.2,2c-2.3,1.9-8,9-4.1,11.5c2.9,0.1,1-8.8,10.3-11.2c1.7,0.5,3.6,1.2,5.3,1.4c0,2.7-1,14.1,1.7,14.5
	c0.5-0.2,1-0.4,1.1-1c0.8-4,0.3-9.5,0.4-13.6c0.9-0.1,1.8-0.2,2.6-0.5c1.7-0.5,1.9-0.9,3.3,0.5c3.5,3.3,6.9,6.7,10.3,10.1
	c-0.9,1.1-2.2,2.4-2.9,3.6c-1.2-1.2-4.5-5-5.9-5C66,75.8,66,77.5,65.9,79c0,3,0,6.2,0,9.2l-15,0l0-9.1c-0.1-0.9,0-2-0.5-2.7
	c-0.9-0.6-0.6-0.5-1.5-0.6c-2.6,1.6,0.3,10.7-2.4,13.4c-2.7,0.8-3.1-3.5-5.2-3.4c-2.7,1.7,0.2,4.8,1.7,6.1c2.1,0.6,2.6,0.7,4.7,0.3
	c0,3-0.5,24.2,0.5,25.2c0.5,0.5,1.3,0.5,1.9,0.6c2.4,0.3,5,0,7.4,0c2.9,0,5.9,0.2,8.9,0.1c0.8,0,1.5-0.1,2.2-0.4
	c1-1.6,0.6-32.8,0.5-37.2c2.9,3,5.4,6.2,9.4,7.2c4.3-1.1,6.3-4.1,9.3-7.3c0.1,7,0.1,14,0,21.1c0,3.1-0.3,13.7,0.4,16
	c1.3,1,20,1,20.6,0.1c1-1.8,0.6-10,0.6-12.7c2.1,0,8.6,0.4,10.2-0.4C120.5,102.4,120.5,91,120.1,89z M60.4,63.5
	c-6.1,1-11.8-3.1-12.9-9.1c-1.1-6,2.9-11.8,8.9-13c4-0.8,8.1,0.7,10.7,3.7c2.6,3.1,3.4,7.4,2,11.2C67.7,60.1,64.4,62.9,60.4,63.5z
	 M66.2,114.8c-2,0.1-4.1,0.1-6.2,0c0.1-3.6,0-7.2,0-10.8c0-1.5,0.7-7.3-2-6.7c-1.8,1.9-1.2,14.3-1.2,17.5l-6,0.1l0-23.6
	c4,0.3,11,0,15.2,0C66.3,99.1,66.2,107,66.2,114.8z M87.8,54.7c-1.3-6.1,2.7-12.1,8.8-13.4c6.1-1.3,12.1,2.7,13.4,8.8
	c1.3,6.1-2.7,12.1-8.8,13.3C95,64.7,89,60.8,87.8,54.7z M90.9,88.2c0-3,0.1-6,0-9c0-1.1-0.1-3-1-3.8c-1.7-1.6-9,8.9-11.2,8.9
	c-0.7,0-1.3-0.4-1.8-0.9c-0.3-0.4-0.5-0.9-0.5-1.4c0.1-2,13.6-14.7,16-16.8c1.9,0.7,2.6,0.9,4.6,1.4c0,2.5-0.3,6,1,8.2
	c0.2,0.4,0.4,0.3,1,0.5c1.7-1.8,1.3-6.1,1.2-8.5c2-0.4,3.3-0.9,5.2-1.6c11.2,2.9,8.4,14,8.5,23.1l-4.6,0c0-3.6,0.3-7.8-0.2-11.4
	c-0.1-0.7-0.8-0.8-1.4-0.9c-2.3,0.7-1.6,5.1-1.5,7.2l0,5.1H90.9z M106.5,114.8c-2,0-4,0.1-6,0c0-3.4,0-6.7-0.1-10l6.2,0
	C106.5,108.1,106.5,111.5,106.5,114.8z M117.2,101.7c-5.5,0.1-11.3,0-16.8,0c0.1-3.4,0-7,0.1-10.5c5.5,0.1,11.3,0,16.8,0
	C117.2,94.5,117.3,98.6,117.2,101.7z M104.5,95c-0.7,0.5-0.8,0.6-1.2,1.4c0.5,2.4,7.5,1.6,9.5,1.5c0.9-0.6,1.2-1,0.8-2.1
	C112.5,94.3,106.5,95,104.5,95z M99.5,78.7c-0.5-0.3-1-0.3-1.5,0c-0.7,0.4-0.9,1.3-0.6,2c0.4,0.7,1.2,1,1.9,0.7
	c0.5-0.2,0.8-0.7,0.9-1.2C100.3,79.5,100,79,99.5,78.7z M99.5,78.7c-0.5-0.3-1-0.3-1.5,0c-0.7,0.4-0.9,1.3-0.6,2
	c0.4,0.7,1.2,1,1.9,0.7c0.5-0.2,0.8-0.7,0.9-1.2C100.3,79.5,100,79,99.5,78.7z M113.7,95.9c-1.2-1.5-7.2-0.9-9.2-0.8
	c-0.7,0.5-0.8,0.6-1.2,1.4c0.5,2.4,7.5,1.6,9.5,1.5C113.8,97.4,114.1,97,113.7,95.9z M113.7,95.9c-1.2-1.5-7.2-0.9-9.2-0.8
	c-0.7,0.5-0.8,0.6-1.2,1.4c0.5,2.4,7.5,1.6,9.5,1.5C113.8,97.4,114.1,97,113.7,95.9z M99.5,78.7c-0.5-0.3-1-0.3-1.5,0
	c-0.7,0.4-0.9,1.3-0.6,2c0.4,0.7,1.2,1,1.9,0.7c0.5-0.2,0.8-0.7,0.9-1.2C100.3,79.5,100,79,99.5,78.7z"/>
<path class="st1" d="M100.2,80c0,0.5-0.4,1-0.9,1.2c-0.7,0.3-1.6,0-1.9-0.7c-0.4-0.7-0.1-1.6,0.6-2c0.5-0.3,1.1-0.3,1.5,0
	C100,79,100.3,79.5,100.2,80z"/>
<path class="st0" d="M100.2,80c0,0.5-0.4,1-0.9,1.2c-0.7,0.3-1.6,0-1.9-0.7c-0.4-0.7-0.1-1.6,0.6-2c0.5-0.3,1.1-0.3,1.5,0
	C100,79,100.3,79.5,100.2,80z"/>
<path class="st1" d="M112.9,98c-2.1,0.1-9.1,0.9-9.5-1.5c0.3-0.8,0.5-0.9,1.2-1.4c2-0.1,8-0.7,9.2,0.8C114.1,97,113.8,97.4,112.9,98
	z"/>
<path class="st0" d="M112.9,98c-2.1,0.1-9.1,0.9-9.5-1.5c0.3-0.8,0.5-0.9,1.2-1.4c2-0.1,8-0.7,9.2,0.8C114.1,97,113.8,97.4,112.9,98
	z"/>
<path class="st0" d="M40.7,80.2c0.4-0.3,1-0.4,1.5-0.2c0.5,0.2,0.8,0.7,0.9,1.2c0,0.5-0.2,1-0.6,1.3c-0.6,0.4-1.5,0.3-2-0.4
	C39.9,81.5,40,80.6,40.7,80.2z"/>
</svg>
