<svg width="42" height="26" viewBox="0 0 42 26" fill="none" xmlns="http://www.w3.org/2000/svg">
<path id="Vector" d="M41.9997 12.8355C42.0037 12.6226 41.951 12.4124 41.8471 12.2266C41.7431 12.0408 41.5916 11.8859 41.4081 11.7779L23.2854 0.287628H23.0166C22.6413 0.0985116 22.2268 0 21.8066 0C21.3863 0 20.9719 0.0985116 20.5966 0.287628L20.3277 0.448958L0.609686 11.8496C0.421562 11.9538 0.265413 12.1074 0.158027 12.2937C0.0506415 12.4801 -0.0039187 12.6921 0.000219014 12.9072C-0.00348523 13.1267 0.0530403 13.343 0.163651 13.5326C0.274263 13.7222 0.434729 13.8779 0.627612 13.9827L20.3457 25.3833L20.6145 25.5447C20.9898 25.7338 21.4043 25.8323 21.8245 25.8323C22.2448 25.8323 22.6592 25.7338 23.0345 25.5447L23.3034 25.3833L41.426 13.911C41.6089 13.7992 41.7586 13.6405 41.8594 13.4514C41.9603 13.2623 42.0087 13.0496 41.9997 12.8355Z" fill="#123B6D"/>
</svg>
