<svg width="20" height="16" viewBox="0 0 20 16" fill="none" xmlns="http://www.w3.org/2000/svg">
<path id="Vector" d="M5.43665 11.925C5.48889 12.2434 5.51868 12.565 5.52578 12.8875C5.54783 12.5704 5.5895 12.2549 5.65056 11.9428C5.68977 11.6244 5.74931 11.3089 5.82881 10.9981L8.43127 0.071302H11.7111L14.3314 10.7664C14.478 11.4369 14.5851 12.1154 14.6522 12.7984C14.6993 12.1398 14.7886 11.4849 14.9196 10.8377L17.023 0H19.9998L16.3278 15.6504H12.9054L10.392 5.34753C10.392 5.0445 10.2316 4.67018 10.1425 4.1889C10.0534 3.70762 9.99988 3.35112 9.98206 3.13722C9.98206 3.38677 9.98206 3.7611 9.82163 4.27802C9.6612 4.79495 9.6612 5.15145 9.62555 5.38318L7.27264 15.7217H3.70762L0 0.071302H3.08374L5.36536 11.0159C5.40879 11.3171 5.43261 11.6207 5.43665 11.925Z" fill="white"/>
</svg>
