<svg width="12" height="16" viewBox="0 0 12 16" fill="none" xmlns="http://www.w3.org/2000/svg">
<path id="Vector" d="M6.2111 0.0151795C7.74748 -0.0898606 9.27141 0.352771 10.5125 1.26454C11.0102 1.71123 11.4015 2.26368 11.6579 2.88137C11.9142 3.49905 12.029 4.16629 11.9938 4.83413C12.0242 5.79077 11.7732 6.73529 11.272 7.55065C10.7707 8.366 10.0412 9.01634 9.17386 9.42106C8.18291 9.87298 7.10376 10.0986 6.01477 10.0814H3.052V15.6143H0V0.0151795H6.2111ZM3.03415 7.74335H5.67566C6.50612 7.80997 7.33205 7.56855 7.99589 7.06513C8.26699 6.80357 8.47771 6.48599 8.61335 6.13456C8.74899 5.78313 8.80628 5.40632 8.78121 5.03046C8.78121 3.24566 7.78172 2.4425 5.7649 2.4425H3.052L3.03415 7.74335Z" fill="white"/>
</svg>
