<svg width="15" height="16" viewBox="0 0 15 16" fill="none" xmlns="http://www.w3.org/2000/svg">
<path id="Vector" d="M0.924598 3.91268C1.48324 2.71356 2.39108 1.71115 3.52916 1.0368C4.81662 0.306206 6.28234 -0.0508271 7.76157 0.00583319C9.11061 -0.0242859 10.4424 0.31335 11.6142 0.982542C12.7035 1.63829 13.5822 2.59234 14.1464 3.7318C14.7443 4.99671 15.0355 6.38478 14.9965 7.78334C15.0267 9.25292 14.7107 10.709 14.074 12.0338C13.4835 13.2311 12.5438 14.2212 11.379 14.8735C10.1722 15.5736 8.79448 15.9242 7.39983 15.8864C6.02478 15.9234 4.66632 15.5791 3.4749 14.8916C2.3669 14.2479 1.47346 13.2915 0.90651 12.1424C0.281394 10.8979 -0.0291225 9.51925 0.0021484 8.127C-0.0158403 6.67025 0.299693 5.2287 0.924598 3.91268ZM3.69195 10.6954C4.01617 11.4198 4.52825 12.0443 5.1751 12.5041C5.84371 12.9669 6.64109 13.2074 7.45409 13.1914C8.33158 13.2297 9.19689 12.9752 9.91395 12.4679C10.5539 12.0146 11.0499 11.3867 11.3428 10.6592C11.6657 9.79209 11.8192 8.87108 11.795 7.94613C11.8029 7.06079 11.6623 6.18041 11.379 5.34157C11.1228 4.56442 10.645 3.87914 10.0044 3.37006C9.30898 2.84353 8.45223 2.57499 7.5807 2.61039C6.74166 2.58806 5.91755 2.8353 5.22936 3.3158C4.57339 3.77055 4.05426 4.39601 3.72812 5.12452C3.36077 6.01888 3.1822 6.9795 3.20359 7.94613C3.18631 8.88556 3.35218 9.81937 3.69195 10.6954Z" fill="white"/>
</svg>
