<svg width="43" height="51" viewBox="0 0 43 51" fill="none" xmlns="http://www.w3.org/2000/svg">
<g id="Vector" style="mix-blend-mode:multiply" opacity="0.2">
<path d="M42.9986 25.4951V48.2673C42.9963 48.6287 42.9225 48.9861 42.7816 49.3188C42.6406 49.6516 42.4352 49.9532 42.1772 50.2063C41.9192 50.4593 41.6137 50.6589 41.2783 50.7934C40.9429 50.9279 40.5841 50.9948 40.2228 50.9901H2.75814C2.39825 50.9924 2.04143 50.9239 1.70805 50.7883C1.37468 50.6527 1.07127 50.4528 0.815148 50.2C0.55903 49.9471 0.355221 49.6463 0.215358 49.3147C0.0754951 48.9831 0.00231677 48.6272 2.42956e-06 48.2673V25.4951C-0.000429911 25.7086 0.0568466 25.9182 0.165776 26.1018C0.274705 26.2855 0.431238 26.4362 0.618815 26.5382L3.16479 27.9526V2.65205C3.13105 1.98421 3.36326 1.3302 3.81059 0.83317C4.25792 0.336136 4.88394 0.0365579 5.55163 0H37.3762C38.0439 0.0365579 38.67 0.336136 39.1173 0.83317C39.5646 1.3302 39.7968 1.98421 39.7631 2.65205V27.9703L42.4328 26.5559C42.6132 26.4456 42.7608 26.2891 42.8603 26.1026C42.9598 25.916 43.0075 25.7063 42.9986 25.4951Z" fill="white"/>
</g>
</svg>
