<svg width="43" height="26" viewBox="0 0 43 26" fill="none" xmlns="http://www.w3.org/2000/svg">
<path id="Envelope" d="M42.4504 1.04357L23.8077 12.3813L23.5423 12.5405C23.1558 12.7257 22.7328 12.8224 22.3042 12.8235C21.87 12.8221 21.4413 12.7255 21.0484 12.5405C20.9562 12.494 20.8675 12.4408 20.7831 12.3813L0.619235 1.06125C0.428912 0.957828 0.270575 0.804222 0.161432 0.617119C0.052289 0.430017 -0.00348631 0.216578 0.000168773 0V22.7816C0.0024711 23.1431 0.0762602 23.5006 0.217286 23.8336C0.358312 24.1665 0.56379 24.4682 0.821893 24.7213C1.07999 24.9745 1.38562 25.1741 1.72118 25.3087C2.05674 25.4433 2.41561 25.5102 2.77712 25.5055H40.2394C40.6075 25.5155 40.9737 25.4497 41.3153 25.3124C41.657 25.175 41.9667 24.9689 42.2254 24.7069C42.4841 24.4449 42.6863 24.1325 42.8193 23.7891C42.9523 23.4458 43.0134 23.0788 42.9987 22.7109V0C43.0063 0.206666 42.9597 0.411726 42.8635 0.594799C42.7673 0.777873 42.6249 0.932588 42.4504 1.04357Z" fill="url(#paint0_linear_0_125)"/>
<defs>
<linearGradient id="paint0_linear_0_125" x1="36.242" y1="-5.6954" x2="6.61533" y2="29.609" gradientUnits="userSpaceOnUse">
<stop stop-color="#35B8F1"/>
<stop offset="0.9" stop-color="#0F78D1"/>
</linearGradient>
</defs>
</svg>
