<svg width="43" height="26" viewBox="0 0 43 26" fill="none" xmlns="http://www.w3.org/2000/svg">
<g id="Vector" style="mix-blend-mode:multiply" opacity="0.06">
<path d="M42.433 1.04314L23.7979 12.3762L23.5327 12.5354C23.1463 12.7205 22.7235 12.8171 22.2951 12.8182C21.861 12.8168 21.4325 12.7203 21.0398 12.5354C20.9476 12.4889 20.8589 12.4357 20.7746 12.3762L0.618981 1.06082C0.428736 0.957436 0.270464 0.803893 0.161366 0.616867C0.0522676 0.429841 -0.00348488 0.21649 0.000168704 0V22.7723C0.00247009 23.1337 0.076229 23.491 0.217197 23.8238C0.358165 24.1566 0.56356 24.4582 0.821556 24.7112C1.07955 24.9643 1.38506 25.1638 1.72048 25.2984C2.0559 25.4329 2.41462 25.4997 2.77598 25.4951H40.2229C40.5843 25.4997 40.943 25.4329 41.2785 25.2984C41.6139 25.1638 41.9194 24.9643 42.1774 24.7112C42.4354 24.4582 42.6408 24.1566 42.7817 23.8238C42.9227 23.491 42.9965 23.1337 42.9988 22.7723V0C43.0045 0.208271 42.9553 0.414377 42.8559 0.597524C42.7566 0.780671 42.6107 0.93438 42.433 1.04314Z" fill="white"/>
</g>
</svg>
