<svg width="43" height="51" viewBox="0 0 43 51" fill="none" xmlns="http://www.w3.org/2000/svg">
<path id="Vector" style="mix-blend-mode:soft-light" opacity="0.75" d="M43.0005 25.5846C43.0045 25.3746 42.9526 25.1674 42.85 24.984C42.7475 24.8007 42.5981 24.648 42.4171 24.5414L39.8533 23.0562V2.65217C39.887 1.9843 39.6548 1.33027 39.2075 0.833208C38.7601 0.336151 38.1341 0.0365596 37.4663 0H5.64029C4.97257 0.0365596 4.34652 0.336151 3.89917 0.833208C3.45182 1.33027 3.2196 1.9843 3.25333 2.65217V27.9716L0.707245 26.5571C0.500477 26.4661 0.324039 26.3179 0.198729 26.1299C0.0734203 25.9419 0.00446617 25.7221 0 25.4962V48.2695C0.00230149 48.6309 0.0760637 48.9883 0.217038 49.3211C0.358013 49.6539 0.563417 49.9555 0.821425 50.2086C1.07943 50.4616 1.38495 50.6612 1.72039 50.7957C2.05583 50.9302 2.41456 50.9971 2.77594 50.9924H40.2246C40.586 50.9971 40.9447 50.9302 41.2802 50.7957C41.6156 50.6612 41.9211 50.4616 42.1791 50.2086C42.4371 49.9555 42.6425 49.6539 42.7835 49.3211C42.9245 48.9883 42.9982 48.6309 43.0005 48.2695V25.5846Z" fill="url(#paint0_linear_0_136)"/>
<defs>
<linearGradient id="paint0_linear_0_136" x1="5.14521" y1="-0.106086" x2="36.2463" y2="53.733" gradientUnits="userSpaceOnUse">
<stop stop-color="white" stop-opacity="0.5"/>
<stop offset="1" stop-opacity="0.7"/>
</linearGradient>
</defs>
</svg>
