<svg width="739" height="701" viewBox="0 0 739 701" fill="none" xmlns="http://www.w3.org/2000/svg">
<path id="Fill 3" fill-rule="evenodd" clip-rule="evenodd" d="M266.786 553.943C310.562 553.943 365.729 559.722 404.088 604.792C456.095 665.898 519.247 699.551 581.912 699.551C630.21 699.551 675.41 679.007 705.923 643.188C738.009 605.523 746.123 561.593 730.038 512.621C715.263 467.632 679.454 418.68 626.487 371.055C562.139 313.203 575.724 250.404 588.862 189.672C599.303 141.411 609.165 95.8253 579.681 55.1058C554.75 20.6813 516.989 0.938974 476.078 0.938974C447.214 0.941791 419.382 10.9919 397.703 29.2384C373.963 49.2202 358.711 77.8098 353.596 111.917C339.786 203.992 262.27 268.123 160.709 271.5C112.021 273.119 71.0292 288.789 42.1652 316.818C16.5225 341.718 1.89463 375.067 0.976498 410.723C0.0592964 446.263 12.8416 480.278 36.9711 506.502C64.0378 535.917 103.516 553.635 151.139 557.739C156.065 558.165 161.474 558.372 167.669 558.372C181.099 558.372 195.945 557.387 211.664 556.346C229.561 555.162 247.981 553.943 266.786 553.943ZM581.911 700.49C518.971 700.49 455.569 666.721 403.385 605.405C386.858 585.986 366.24 572.584 340.352 564.431C319.665 557.916 296.289 554.882 266.785 554.882C247.981 554.882 229.549 556.103 211.723 557.283C195.969 558.326 181.088 559.311 167.668 559.311C161.472 559.311 156.039 559.103 151.059 558.675C103.204 554.551 63.5179 536.732 36.2915 507.142C11.9959 480.739 -0.875548 446.487 0.0462957 410.697C0.971852 374.793 15.7009 341.212 41.5209 316.141C70.5538 287.948 111.758 272.186 160.677 270.561C212.106 268.851 257.713 251.857 292.567 221.414C324.971 193.112 346.318 154.175 352.677 111.776C357.827 77.4389 373.191 48.6484 397.109 28.5173C418.955 10.1299 446.996 0.00187812 476.067 1.33021e-07C517.284 -0.00187786 555.322 19.8813 580.428 54.5518C610.161 95.6122 600.256 141.398 589.77 189.873C576.69 250.341 563.164 312.867 627.102 370.354C680.191 418.086 716.091 467.18 730.92 512.326C747.114 561.631 738.941 605.866 706.624 643.801C675.936 679.827 630.48 700.49 581.911 700.49Z" fill="#FF5722"/>
</svg>
