<svg width="1018" height="982" viewBox="0 0 1018 982" fill="none" xmlns="http://www.w3.org/2000/svg">
<path id="Fill 11" fill-rule="evenodd" clip-rule="evenodd" d="M367.455 777.249C427.42 777.249 502.979 785.297 555.433 848.051C592.926 892.903 634.175 927.126 678.038 949.769C718.266 970.532 759.525 981.061 800.67 981.061C867.362 981.061 929.783 952.169 971.927 901.795C1016.31 848.744 1027.54 786.877 1005.29 717.914C984.915 654.752 935.581 586.062 862.619 519.27C774.646 438.735 793.251 351.172 811.243 266.493C825.652 198.673 839.264 134.615 798.428 77.1997C763.958 28.7343 711.745 0.938814 655.173 0.938814C615.261 0.941631 576.771 15.0961 546.784 40.7952C513.937 68.9428 492.838 109.205 485.764 157.227C466.86 285.556 360.697 374.942 221.594 379.651C154.448 381.925 97.8858 403.938 58.0221 443.312C22.5643 478.334 2.31274 525.258 0.996599 575.439C-0.317681 625.527 17.336 673.469 50.7081 710.432C88.0964 751.846 142.62 776.787 208.386 782.558C215.209 783.158 222.67 783.449 231.195 783.449C249.647 783.449 270.094 782.069 291.74 780.608C316.247 778.957 341.589 777.249 367.455 777.249ZM800.67 982C759.377 982 717.976 971.437 677.619 950.605C633.644 927.906 592.297 893.605 554.726 848.657C532.095 821.582 503.855 802.892 468.392 791.522C440.021 782.425 407.948 778.188 367.455 778.188C341.627 778.188 316.298 779.895 291.803 781.547C270.134 783.008 249.666 784.388 231.195 784.388C222.645 784.388 215.159 784.095 208.305 783.493C142.307 777.703 87.5733 752.658 50.0235 711.065C16.488 673.92 -1.252 625.745 0.0687768 575.413C1.39141 524.986 21.7423 477.833 57.3736 442.641C97.4081 403.099 154.183 380.993 221.562 378.712C292.108 376.325 354.661 352.595 402.457 310.09C446.872 270.593 476.131 216.256 484.849 157.089C491.956 108.838 513.164 68.3757 546.185 40.078C576.338 14.2362 615.04 0.00281644 655.162 0C712.049 0 764.537 27.9382 799.182 76.6514C840.257 134.404 826.605 198.661 812.151 266.688C794.214 351.109 775.668 438.404 863.245 518.577C936.323 585.475 985.748 654.304 1006.17 717.623C1028.53 786.916 1017.24 849.086 972.637 902.403C951.705 927.421 926.203 947.085 896.841 960.847C866.896 974.883 834.538 982 800.67 982Z" fill="#FF5722"/>
</svg>
