<svg width="345" height="325" viewBox="0 0 345 325" fill="none" xmlns="http://www.w3.org/2000/svg">
<path id="Fill 9" fill-rule="evenodd" clip-rule="evenodd" d="M271.898 325C242.674 325 213.207 309.357 188.924 280.952C170.79 259.74 144.767 257.02 124.123 257.02C115.271 257.02 106.611 257.591 98.2364 258.144C90.8641 258.629 83.9014 259.089 77.6408 259.089C74.7701 259.089 72.2495 258.992 69.9351 258.795C47.7449 256.891 29.356 248.683 16.7568 235.055C5.54323 222.926 -0.400658 207.191 0.0209869 190.75C0.444489 174.251 7.24096 158.819 19.1585 147.295C32.5963 134.302 51.6957 127.037 74.3949 126.285C98.7388 125.479 120.337 117.462 136.854 103.099C152.229 89.7306 162.359 71.3354 165.376 51.3048C170.583 16.7399 196.445 0.78533 220.409 0.00093939L220.408 0.941269C196.843 1.72566 171.42 17.4341 166.295 51.4448C159.706 95.1696 122.787 125.623 74.4255 127.224C51.9604 127.968 33.0709 135.143 19.8021 147.973C8.06103 159.325 1.36672 174.526 0.950649 190.774C0.534576 206.966 6.38838 222.465 17.4366 234.413C29.876 247.869 48.0569 255.976 70.014 257.861C72.3089 258.054 74.8026 258.149 77.6408 258.149C83.8587 258.149 90.7898 257.694 98.1287 257.211L98.2745 257.201C106.633 256.65 115.275 256.081 124.123 256.081C143.34 256.081 171.04 258.595 189.627 280.339C213.73 308.534 242.948 324.061 271.898 324.061C294.121 324.061 314.911 314.657 328.937 298.263C343.615 281.11 347.323 261.094 339.959 238.771C333.112 218.016 316.466 195.386 291.822 173.328C260.994 145.732 267.751 114.634 273.713 87.1961C278.535 65.003 283.089 44.0461 269.662 25.589C258.632 10.4254 242.119 1.5143 224.125 0.93939V0C242.419 0.575846 259.204 9.62593 270.41 25.0319C284.087 43.8348 279.489 64.9945 274.621 87.3971C268.425 115.911 262.017 145.396 292.438 172.625C317.204 194.794 333.941 217.563 340.84 238.474C348.316 261.132 344.549 281.455 329.641 298.877C315.436 315.478 294.39 325 271.898 325Z" fill="#FF5722"/>
</svg>
