<svg width="635" height="607" viewBox="0 0 635 607" fill="none" xmlns="http://www.w3.org/2000/svg">
<path id="Fill 16" fill-rule="evenodd" clip-rule="evenodd" d="M229.162 479.781C266.894 479.781 314.449 484.81 347.54 524.019C392.188 576.924 446.389 606.06 500.156 606.06C541.568 606.06 580.327 588.294 606.496 557.319C633.999 524.756 640.953 486.776 627.164 444.434C614.476 405.48 583.72 363.081 538.218 321.821C482.723 271.504 494.429 216.938 505.748 164.167C514.711 122.389 523.174 82.9325 497.914 47.7529C476.55 18.0023 444.194 0.939628 409.142 0.939628C384.417 0.941508 360.575 9.62367 342.004 25.3878C321.658 42.6572 308.587 67.3732 304.203 96.8616C292.299 176.9 225.487 232.648 137.953 235.584C96.1983 236.983 61.0461 250.527 36.2974 274.754C14.3162 296.267 1.77047 325.087 0.969695 355.905C0.171711 386.646 11.1233 416.065 31.8087 438.746C55.0152 464.195 88.8817 479.524 129.746 483.076C134.004 483.444 138.644 483.624 143.925 483.624C155.366 483.624 168.073 482.776 181.526 481.88L181.73 481.868C197.08 480.842 212.95 479.781 229.162 479.781ZM500.156 607C446.11 607 391.661 577.746 346.834 524.628C313.99 485.712 266.695 480.72 229.162 480.72C212.982 480.72 197.126 481.779 181.793 482.805C168.249 483.709 155.456 484.564 143.925 484.564C138.59 484.564 133.925 484.382 129.666 484.011C88.5681 480.44 54.4945 465.007 31.1254 439.383C10.2747 416.521 -0.764259 386.866 0.0411564 355.881C0.84843 324.815 13.4954 295.765 35.6504 274.078C60.57 249.688 95.9349 236.052 137.923 234.644C182.214 233.159 221.491 218.397 251.511 191.955C279.42 167.37 297.807 133.549 303.283 96.7216C307.703 67.0021 320.886 42.0869 341.408 24.6681C360.146 8.76204 384.198 0.0018796 409.133 3.4636e-07C444.49 -0.00281854 477.123 17.2008 498.665 47.2004C524.171 82.723 515.664 122.38 506.658 164.365C495.394 216.874 483.747 271.168 538.837 321.121C584.46 362.488 615.308 405.026 628.047 444.138C641.947 486.813 634.934 525.098 607.203 557.929C580.859 589.113 541.842 607 500.156 607Z" fill="#FF5722"/>
</svg>
