<svg width="925" height="889" viewBox="0 0 925 889" fill="none" xmlns="http://www.w3.org/2000/svg">
<path id="Fill 1" fill-rule="evenodd" clip-rule="evenodd" d="M334.062 703.154C388.658 703.154 457.453 710.45 505.232 767.341C570.394 844.928 649.546 887.656 728.105 887.656C788.691 887.656 845.398 861.535 883.688 815.991C923.997 768.041 934.19 712.126 913.983 649.798C895.467 592.666 850.619 530.525 784.289 470.092C704.156 397.086 721.094 317.742 737.473 241.01C750.568 179.67 762.934 121.742 725.865 69.8684C694.559 26.0623 647.141 0.939319 595.767 0.939319C559.521 0.941198 524.566 13.7328 497.334 36.9594C467.509 62.398 448.348 98.7872 441.923 142.191C424.71 258.493 328.049 339.501 201.397 343.768C140.378 345.822 88.9823 365.731 52.7644 401.342C20.5621 433.004 2.17462 475.424 0.989645 520.789C-0.192542 566.049 15.8473 609.369 46.1533 642.77C80.1182 680.202 129.65 702.746 189.396 707.963C195.599 708.505 202.378 708.769 210.122 708.769C226.821 708.769 245.342 707.528 264.951 706.216L265.175 706.2C287.455 704.702 310.494 703.154 334.062 703.154ZM728.104 888.596C690.57 888.596 652.937 879.04 616.251 860.194C576.274 839.655 538.685 808.62 504.525 767.949C483.918 743.414 458.206 726.478 425.92 716.173C400.095 707.933 370.907 704.094 334.061 704.094C310.561 704.094 287.52 705.64 265.237 707.135C245.529 708.458 226.915 709.708 210.121 709.708C202.341 709.708 195.535 709.442 189.316 708.898C129.336 703.661 79.5938 681.014 45.4683 643.405C14.9989 609.825 -1.12736 566.268 0.0613243 520.762C1.25187 475.154 19.7388 432.503 52.1156 400.668C88.4997 364.893 140.11 344.893 201.366 342.829C265.571 340.667 322.502 319.171 366.005 280.668C406.435 244.884 433.07 195.656 441.004 142.054C447.463 98.419 466.734 61.8297 496.734 36.2417C524.132 12.8734 559.296 0.00281838 595.752 4.19014e-07C647.435 -0.00375686 695.133 25.2611 726.613 69.317C763.928 121.533 751.518 179.661 738.381 241.202C722.057 317.675 705.175 396.751 784.908 469.397C851.357 529.936 896.296 592.217 914.866 649.507C935.177 712.169 924.926 768.386 884.394 816.599C865.371 839.229 842.197 857.016 815.512 869.463C788.296 882.158 758.888 888.596 728.104 888.596Z" fill="#FF5722"/>
</svg>
