<svg width="530" height="513" viewBox="0 0 530 513" fill="none" xmlns="http://www.w3.org/2000/svg">
<path id="Fill 5" fill-rule="evenodd" clip-rule="evenodd" d="M191.191 404.889C222.824 404.889 262.694 409.159 290.469 442.453C327.687 487.072 372.852 511.646 417.64 511.646C452.107 511.646 484.366 496.686 506.144 470.604C529.03 443.193 534.814 411.216 523.335 375.564C512.756 342.701 487.096 306.922 449.129 272.092C402.579 229.391 412.384 183.141 421.866 138.415C429.335 103.189 436.391 69.9181 415.39 40.3233C397.624 15.294 370.725 0.9388 341.587 0.9388C304.069 0.940677 262.546 25.9006 254.349 81.6587C244.369 149.539 188.365 196.819 114.991 199.308C80.2342 200.487 50.9761 211.884 30.3786 232.268C12.0922 250.363 1.64589 274.611 0.963695 300.546C0.283362 326.439 9.38851 351.219 26.6001 370.325C45.9149 391.766 74.1167 404.682 108.158 407.674C111.665 407.985 115.527 408.135 119.965 408.135C129.571 408.135 140.234 407.414 151.523 406.652C164.323 405.785 177.556 404.889 191.191 404.889ZM417.639 512.585C372.575 512.585 327.158 487.893 289.758 443.058C262.231 410.06 222.621 405.828 191.19 405.828C177.659 405.828 164.405 406.723 151.585 407.588C140.274 408.352 129.59 409.074 119.965 409.074C115.498 409.074 111.61 408.922 108.077 408.611C73.8006 405.596 45.3899 392.576 25.9136 370.956C8.53867 351.669 -0.650936 326.654 0.0358943 300.519C0.724581 274.341 11.2702 249.864 29.7302 231.595C50.4947 211.047 79.9672 199.557 114.959 198.371C152.043 197.112 184.933 184.606 210.072 162.202C233.445 141.374 248.842 112.721 253.429 81.5207C257.112 56.4632 268.095 35.4594 285.188 20.7794C300.792 7.38085 320.817 0.0009388 341.579 0C371.028 0 398.202 14.4979 416.141 39.776C437.385 69.7068 430.288 103.177 422.775 138.611C413.346 183.078 403.598 229.058 449.754 271.399C487.84 306.335 513.588 342.256 524.219 375.274C535.803 411.255 529.959 443.533 506.852 471.209C484.897 497.503 452.381 512.585 417.639 512.585Z" fill="#FF5722"/>
</svg>
