<svg width="24" height="23" viewBox="0 0 24 23" fill="none" xmlns="http://www.w3.org/2000/svg">
<g id="Star">
<path id="Path_34177" d="M13.1389 0.753664L15.8077 6.16582C16.0001 6.55954 16.3756 6.83352 16.8111 6.89805L22.7892 7.77886C23.1406 7.82872 23.4576 8.01574 23.67 8.29855C23.8823 8.58136 23.9726 8.93664 23.9207 9.28577C23.8794 9.57515 23.7445 9.84331 23.5364 10.0498L19.2023 14.2947C18.8849 14.5948 18.7405 15.0334 18.818 15.462L19.8856 21.4366C20.0035 22.1513 19.532 22.8309 18.818 22.9753C18.5259 23.0218 18.2264 22.9734 17.964 22.8374L12.6265 20.0252C12.2312 19.8231 11.7621 19.8231 11.3668 20.0252L6.02924 22.8374C5.37178 23.1911 4.55039 22.949 4.19312 22.2962C4.05775 22.0349 4.00916 21.7377 4.05435 21.4472L5.12186 15.4726C5.19939 15.044 5.05499 14.6054 4.73755 14.3053L0.403453 10.0605C0.149188 9.81117 0.00604458 9.47098 0.00604458 9.11598C0.00604458 8.76097 0.149188 8.42078 0.403453 8.1715C0.608288 7.96069 0.879508 7.82588 1.17206 7.78947L7.15013 6.90867C7.58566 6.84413 7.96113 6.57015 8.15359 6.17643L10.7263 0.753664C10.9513 0.291104 11.4265 0.00102046 11.9433 0.0108187H12.1034C12.5531 0.0675272 12.943 0.347286 13.1389 0.753664Z" fill="#5958A0"/>
<path id="Path_34176" d="M11.9754 19.8661C11.7416 19.8646 11.5218 19.9424 11.3138 20.0486L5.99306 22.8539C5.35491 23.1791 4.54459 22.9178 4.19329 22.2963C4.05731 22.039 4.00863 21.7449 4.05451 21.4579L5.12202 15.4939C5.19371 15.0626 5.05044 14.6234 4.73772 14.316L0.392943 10.0712C-0.130981 9.54923 -0.130981 8.70417 0.392943 8.18223C0.597873 7.97743 0.863575 7.8435 1.15088 7.80019L7.15029 6.90878C7.61262 6.84091 7.94305 6.58235 8.15376 6.17655L10.76 0.691623C10.9586 0.245432 11.6264 -0.0629119 11.9861 0.0109319C11.9754 0.371742 11.9754 19.622 11.9754 19.8661Z" fill="#5958A0"/>
</g>
</svg>
