<svg width="832" height="795" viewBox="0 0 832 795" fill="none" xmlns="http://www.w3.org/2000/svg">
<path id="Fill 14" fill-rule="evenodd" clip-rule="evenodd" d="M300.425 628.55C349.612 628.55 411.594 635.087 454.661 686.064C513.244 755.411 584.395 793.602 655.008 793.602C709.448 793.602 760.402 770.269 794.803 729.587C831.002 686.783 840.154 636.861 822.01 581.209C805.361 530.146 765.031 474.598 705.384 420.572C633.144 355.141 648.407 284.069 663.168 215.337C674.936 160.541 686.05 108.785 652.77 62.486C624.654 23.3723 582.065 0.939174 535.922 0.939174C503.368 0.941052 471.975 12.3623 447.519 33.0974C420.736 55.8095 403.529 88.2993 397.76 127.054C382.248 231.242 295.159 303.812 181.052 307.633C126.2 309.47 80.0054 327.26 47.4636 359.079C18.5431 387.358 2.03585 425.243 0.983843 465.753C-0.0653833 506.158 14.3452 544.826 41.5638 574.635C72.0796 608.061 116.585 628.19 170.268 632.848C175.816 633.333 181.909 633.568 188.896 633.568C203.953 633.568 220.664 632.455 238.354 631.275L238.466 631.268C258.5 629.932 279.216 628.55 300.363 628.55H300.425ZM655.008 794.541C621.26 794.541 587.424 785.999 554.436 769.152C518.484 750.791 484.677 723.042 453.954 686.677C435.388 664.699 412.222 649.53 383.136 640.302C359.882 632.924 333.599 629.489 300.424 629.489C279.246 629.489 258.515 630.872 238.467 632.209C220.741 633.39 203.997 634.508 188.895 634.508C181.897 634.508 175.777 634.271 170.187 633.786C116.271 629.105 71.5572 608.872 40.8817 575.273C13.4979 545.282 -1.00188 506.378 0.0538427 465.73C1.11235 424.972 17.7198 386.857 46.8187 358.404C79.5276 326.42 125.934 308.539 181.021 306.695C238.838 304.758 290.108 285.514 329.287 251.039C365.704 218.997 389.695 174.915 396.841 126.913C402.646 87.9273 419.964 55.2384 446.922 32.379C471.544 11.5011 503.147 0.00187882 535.91 4.68809e-07C582.359 -0.00375623 625.226 22.5702 653.52 61.9338C687.045 108.572 675.887 160.529 664.076 215.538C649.373 284.008 634.17 354.809 706.006 419.875C765.774 474.009 806.192 529.696 822.892 580.915C841.145 636.9 831.932 687.126 795.51 730.199C760.93 771.089 709.719 794.541 655.008 794.541Z" fill="#FF5722"/>
</svg>
