<svg width="438" height="419" viewBox="0 0 438 419" fill="none" xmlns="http://www.w3.org/2000/svg">
<path id="Fill 7" fill-rule="evenodd" clip-rule="evenodd" d="M157.73 330.651C183.98 330.651 217.073 334.167 240.16 361.578C270.835 398.001 308.043 418.061 344.929 418.061C373.285 418.061 399.819 405.874 417.729 384.627C436.523 362.335 441.273 336.325 431.847 307.322C423.124 280.498 401.96 251.28 370.644 222.826C331.939 187.659 340.446 147.928 347.95 112.873C354.1 84.1542 359.909 57.0272 342.68 32.9826C328.085 12.6189 305.99 0.939464 282.057 0.939464C251.249 0.941343 217.151 21.2441 210.419 66.5966C202.132 122.426 155.65 161.311 94.7539 163.355C66.1291 164.318 42.0443 173.607 25.1048 190.22C10.0823 204.951 1.50759 224.685 0.958663 245.788C0.408811 266.837 7.89218 286.988 22.0304 302.526C37.9176 319.983 61.1191 330.498 89.1272 332.935C92.0446 333.189 95.2248 333.312 98.8481 333.312C106.795 333.312 115.593 332.722 124.908 332.096L125.047 332.087C135.618 331.381 146.551 330.651 157.73 330.651ZM344.929 419C307.765 419 270.307 398.824 239.452 362.189C216.612 335.069 183.781 331.591 157.729 331.591C146.532 331.591 135.571 332.324 124.969 333.035C115.623 333.66 106.795 334.251 98.8476 334.251C95.1834 334.251 91.9772 334.127 89.0468 333.874C60.8019 331.414 37.3914 320.794 21.3473 303.163C7.04554 287.448 -0.526063 267.063 0.0284333 245.765C0.584787 224.415 9.25981 204.449 24.4578 189.546C41.5664 172.767 65.863 163.387 94.7209 162.417C125.45 161.385 152.707 151.117 173.545 132.724C192.927 115.618 205.695 92.0842 209.498 66.4566C212.531 46.0261 221.569 28.9025 235.637 16.9376C248.478 6.01631 264.961 0.000939518 282.051 5.59961e-08C306.289 -0.000939406 328.661 11.8194 343.431 32.4312C360.9 56.8111 355.051 84.1392 348.856 113.072C341.042 149.577 332.961 187.326 371.262 222.125C402.704 250.692 423.959 280.05 432.726 307.027C442.263 336.364 437.454 362.677 418.436 385.238C400.348 406.694 373.556 419 344.929 419Z" fill="#FF5722"/>
</svg>
