<svg width="21" height="21" viewBox="0 0 21 21" fill="none" xmlns="http://www.w3.org/2000/svg">
<path d="M9.26631 2.59344C9.26631 2.07475 9.26631 1.57227 9.26631 1.0752C9.26631 0.389016 9.66895 0 10.375 0C13.3865 0 16.3981 0 19.4151 0C20.1156 0 20.5183 0.389016 20.5183 1.0752C20.5183 3.81452 20.5183 6.55924 20.5183 9.29856C20.5183 9.7362 20.3473 10.0658 19.9501 10.2765C19.9005 10.3035 19.8619 10.4008 19.8619 10.471C19.8564 11.0924 19.8564 11.7137 19.8564 12.335C19.8564 13.5831 19.5475 14.7502 18.9408 15.847C18.8911 15.9334 18.8691 16.0523 18.8691 16.1496C18.8636 17.3868 18.8636 18.6187 18.8636 19.856C18.8636 19.9263 18.8636 20.0019 18.8636 20.0937C18.7753 20.0937 18.6981 20.0937 18.6264 20.0937C12.7853 20.0937 6.94973 20.0937 1.10865 20.0937C0.397128 20.0991 0 19.7101 0 19.0023C0 13.8965 0 8.79068 0 3.68484C0 2.97705 0.391612 2.59344 1.13071 2.59344C3.75065 2.59344 6.37059 2.59344 8.99053 2.59344C9.06775 2.59344 9.15048 2.59344 9.26631 2.59344ZM19.7516 9.60113C19.7736 9.60113 19.7902 9.60113 19.8123 9.60113C19.8288 9.49307 19.8564 9.38501 19.8564 9.27695C19.8564 6.55384 19.8564 3.83613 19.8564 1.11302C19.8564 0.740211 19.7626 0.64836 19.3765 0.64836C16.3925 0.64836 13.4086 0.64836 10.4246 0.64836C10.0164 0.64836 9.92819 0.734808 9.92819 1.13463C9.92819 3.83613 9.92819 6.53763 9.92819 9.23913C9.92819 9.30396 9.90613 9.39041 9.93922 9.43904C10.0109 9.54169 10.1047 9.69838 10.1985 9.70919C10.5459 9.7416 10.8934 9.71999 11.2519 9.71999C11.2519 9.49307 11.2464 9.28235 11.2519 9.07163C11.263 8.69882 11.5553 8.42327 11.9359 8.42868C12.2227 8.43408 12.4764 8.52053 12.7026 8.68802C13.0501 8.94196 13.21 9.29316 13.2431 9.71459C13.4637 9.71459 13.6733 9.71459 13.8995 9.71459C13.8995 9.62814 13.8995 9.5579 13.8995 9.48226C13.8995 8.60697 13.8995 7.72629 13.8995 6.851C13.8995 6.45118 14.076 6.14861 14.4345 5.95951C14.5393 5.90548 14.5669 5.84604 14.5613 5.74339C14.5558 5.17067 14.5558 4.59795 14.5613 4.01983C14.5613 3.89016 14.5338 3.81992 14.4069 3.75508C13.9987 3.54437 13.8112 3.08511 13.9381 2.65287C14.0649 2.22603 14.4731 1.93427 14.9309 1.95048C15.3666 1.96669 15.7417 2.26926 15.852 2.6961C15.9568 3.11213 15.7638 3.53896 15.3777 3.77129C15.3115 3.80911 15.2287 3.88475 15.2287 3.94959C15.2177 4.56553 15.2177 5.17607 15.2287 5.79201C15.2287 5.84604 15.2729 5.91628 15.3225 5.9433C15.7251 6.15401 15.8961 6.4836 15.8906 6.92124C15.8851 7.22381 15.8906 7.52097 15.8906 7.82894C16.5249 7.69927 16.9441 7.9316 17.1868 8.48811C17.8321 8.32602 18.2624 8.56915 18.5161 9.14187C19.0511 8.98518 19.4537 9.15268 19.7516 9.60113ZM0.661879 7.14276C0.661879 7.22381 0.661879 7.28864 0.661879 7.35348C0.661879 11.2274 0.661879 15.1068 0.661879 18.9807C0.661879 19.3535 0.755645 19.4454 1.13623 19.4454C4.87033 19.4454 8.60995 19.4454 12.344 19.4454C12.4158 19.4454 12.4875 19.4454 12.5702 19.4454C12.5702 18.3 12.5702 17.1869 12.5647 16.0739C12.5647 16.0091 12.5205 15.9388 12.4819 15.874C12.3165 15.6093 12.14 15.3499 11.991 15.0798C11.9193 14.9501 11.8476 14.9015 11.6932 14.9015C10.3033 14.9069 8.90779 14.9069 7.51784 14.9069C7.44614 14.9069 7.36892 14.9069 7.2917 14.9069C7.2917 14.2477 7.2917 13.6102 7.2917 12.9564C8.63201 12.9564 9.96128 12.9564 11.3016 12.9564C11.2795 12.7295 11.263 12.5241 11.2409 12.3026C7.92049 12.3026 4.62212 12.3026 1.32927 12.3026C1.32927 10.7844 1.32927 9.28775 1.32927 7.76951C3.97679 7.76951 6.61328 7.76951 9.24976 7.76951C9.24976 7.54799 9.24976 7.34808 9.24976 7.13736C6.39265 7.14276 3.54105 7.14276 0.661879 7.14276ZM11.9249 9.08784C11.9249 10.2549 11.8918 11.4111 11.9359 12.5674C11.9745 13.6156 12.3551 14.5719 12.9783 15.4256C13.028 15.4904 13.1273 15.5606 13.199 15.5606C14.8647 15.566 16.5359 15.566 18.2017 15.5606C18.2679 15.5606 18.3616 15.512 18.3947 15.458C18.8084 14.7124 19.1007 13.9235 19.1449 13.0807C19.2 12.0865 19.1835 11.0815 19.1945 10.082C19.1945 9.87128 19.0566 9.7362 18.8746 9.7308C18.6815 9.7254 18.5381 9.86587 18.5381 10.0874C18.5326 10.4764 18.5381 10.8708 18.5381 11.2598C18.5381 11.503 18.5381 11.7407 18.5381 11.9784C18.301 11.9784 18.0969 11.9784 17.8763 11.9784C17.8763 11.1356 17.8763 10.3035 17.8763 9.47145C17.8763 9.22292 17.7439 9.07163 17.5398 9.07703C17.3412 9.08244 17.2199 9.22832 17.2199 9.46605C17.2199 10.1684 17.2199 10.8708 17.2199 11.5732C17.2199 11.7083 17.2199 11.838 17.2199 11.9784C16.9882 11.9784 16.7786 11.9784 16.558 11.9784C16.558 11.3571 16.558 10.752 16.558 10.1468C16.558 9.69298 16.558 9.24453 16.558 8.79068C16.558 8.56915 16.4201 8.42868 16.2271 8.42868C16.034 8.42868 15.9072 8.56915 15.9016 8.79608C15.9016 8.84471 15.9016 8.88793 15.9016 8.93656C15.9016 9.88208 15.9016 10.8276 15.9016 11.7731C15.9016 11.8434 15.9016 11.9136 15.9016 11.9838C15.6645 11.9838 15.4604 11.9838 15.2398 11.9838C15.2398 11.9028 15.2398 11.8272 15.2398 11.7569C15.2398 10.163 15.2398 8.56915 15.2398 6.97527C15.2398 6.91584 15.2453 6.851 15.2398 6.79157C15.2232 6.61327 15.0853 6.489 14.9143 6.4836C14.7434 6.4836 14.6055 6.60246 14.5834 6.78076C14.5779 6.84019 14.5779 6.89963 14.5779 6.96446C14.5779 8.50432 14.5779 10.0442 14.5724 11.584C14.5724 11.7461 14.5448 11.9244 14.4786 12.0757C14.3076 12.4809 13.8388 12.7078 13.4086 12.6268C12.9342 12.535 12.5978 12.1567 12.5923 11.6867C12.5867 11.0383 12.5923 10.39 12.5867 9.7416C12.5702 9.36339 12.322 9.11486 11.9249 9.08784ZM9.26631 8.44488C6.82287 8.44488 4.41253 8.44488 2.00218 8.44488C2.00218 9.53089 2.00218 10.5953 2.00218 11.6597C5.09095 11.6597 8.16318 11.6597 11.2354 11.6597C11.2354 11.2274 11.2354 10.806 11.2354 10.3738C10.9155 10.3738 10.6011 10.3738 10.2922 10.3738C9.6855 10.3684 9.26631 9.95772 9.26079 9.3688C9.26631 9.06083 9.26631 8.75826 9.26631 8.44488ZM9.25528 3.2418C9.1946 3.2418 9.14496 3.2418 9.10084 3.2418C6.42574 3.2418 3.75065 3.2418 1.07555 3.2418C0.777708 3.2418 0.661879 3.35526 0.661879 3.64702C0.661879 4.53852 0.661879 5.43001 0.661879 6.32151C0.661879 6.37013 0.672911 6.42416 0.678426 6.47279C3.54657 6.47279 6.39817 6.47279 9.25528 6.47279C9.25528 5.39759 9.25528 4.3332 9.25528 3.2418ZM18.1851 19.44C18.1851 18.354 18.1851 17.2842 18.1851 16.2252C16.5304 16.2252 14.8868 16.2252 13.2486 16.2252C13.2486 17.3058 13.2486 18.3702 13.2486 19.44C14.8978 19.44 16.5359 19.44 18.1851 19.44ZM7.95358 14.2531C9.17806 14.2531 10.386 14.2531 11.6105 14.2531C11.5443 14.0316 11.4836 13.8263 11.4229 13.6264C10.2591 13.6264 9.11187 13.6264 7.95358 13.6264C7.95358 13.8371 7.95358 14.037 7.95358 14.2531ZM13.2376 10.3846C13.2376 10.833 13.2321 11.2598 13.2431 11.6921C13.2486 11.8704 13.392 12.0001 13.563 11.9947C13.745 11.9893 13.8829 11.892 13.8884 11.7191C13.905 11.2761 13.8939 10.8384 13.8939 10.3846C13.6733 10.3846 13.4692 10.3846 13.2376 10.3846ZM14.8813 3.2418C15.0578 3.2472 15.2122 3.10132 15.2177 2.92842C15.2232 2.75553 15.0743 2.60424 14.8978 2.59884C14.7213 2.59344 14.5669 2.73932 14.5613 2.91222C14.5558 3.08511 14.7047 3.2364 14.8813 3.2418Z" fill="#5958A0"/>
<path d="M17.8721 1.95654C18.0983 1.95654 18.3024 1.95654 18.534 1.95654C18.534 2.14024 18.5395 2.31854 18.534 2.49684C18.5285 2.5995 18.5561 2.66434 18.6609 2.71837C19.0084 2.89666 19.1904 3.18302 19.1959 3.56664C19.1959 3.95025 19.0139 4.24201 18.6664 4.42031C18.5506 4.47974 18.534 4.54998 18.534 4.65804C18.534 5.69001 18.534 6.72199 18.534 7.77017C18.3189 7.77017 18.1093 7.77017 17.8721 7.77017C17.8721 7.69993 17.8721 7.62969 17.8721 7.55945C17.8721 6.60312 17.8721 5.64139 17.8721 4.68506C17.8721 4.55538 17.8446 4.47434 17.7122 4.4041C17.0448 4.0367 17.0448 3.11278 17.7067 2.73998C17.8446 2.66434 17.8887 2.58869 17.8776 2.44281C17.8611 2.28613 17.8721 2.12944 17.8721 1.95654ZM18.534 3.56123C18.5285 3.38293 18.3741 3.24246 18.1976 3.24786C18.0155 3.25326 17.8721 3.40455 17.8776 3.57744C17.8832 3.75574 18.0376 3.89622 18.2141 3.89082C18.3906 3.88541 18.5395 3.73413 18.534 3.56123Z" fill="#5958A0"/>
<path d="M11.9163 7.77017C11.6847 7.77017 11.4806 7.77017 11.2545 7.77017C11.2545 7.52703 11.2545 7.2947 11.2545 7.06238C11.2545 6.79223 11.2434 6.52208 11.2545 6.25193C11.2655 5.97637 11.2379 5.78186 10.9621 5.58736C10.3995 5.19834 10.4878 4.36088 11.0945 4.03129C11.2269 3.96105 11.26 3.88541 11.26 3.75034C11.2545 3.17222 11.26 2.58869 11.26 2.01057C11.26 1.99977 11.2655 1.98356 11.271 1.95654C11.4751 1.95654 11.6847 1.95654 11.9163 1.95654C11.9163 2.19427 11.9163 2.4266 11.9163 2.65893C11.9163 2.92908 11.9219 3.19923 11.9163 3.46938C11.9053 3.73953 11.9274 3.93944 12.2087 4.13395C12.7823 4.52297 12.683 5.36583 12.0597 5.70082C11.9439 5.76566 11.9108 5.83049 11.9163 5.94936C11.9219 6.55449 11.9163 7.15423 11.9163 7.77017ZM11.9163 4.87956C11.9274 4.70667 11.784 4.54998 11.6019 4.53918C11.4254 4.52837 11.2655 4.66885 11.2545 4.84715C11.2434 5.02004 11.3868 5.17673 11.5689 5.18754C11.7454 5.19294 11.9053 5.05246 11.9163 4.87956Z" fill="#5958A0"/>
<path d="M3.64116 18.1547C2.36704 18.1547 1.32458 17.1281 1.3301 15.8855C1.3301 14.6374 2.37256 13.6162 3.64668 13.6216C4.92079 13.6216 5.96325 14.6428 5.95774 15.8909C5.95774 17.1336 4.90976 18.1547 3.64116 18.1547ZM2.72556 17.2362C3.27713 17.5604 3.81766 17.5982 4.36371 17.3389C4.83806 17.1119 5.13039 16.7337 5.25725 16.2096C4.77739 16.2096 4.3251 16.2096 3.8673 16.2096C3.81766 16.2096 3.75699 16.2313 3.7239 16.2637C3.39847 16.577 3.07305 16.8958 2.72556 17.2362ZM2.27328 16.777C2.60973 16.442 2.93516 16.1232 3.25507 15.799C3.28264 15.772 3.30471 15.7288 3.30471 15.6964C3.31022 15.2371 3.30471 14.7778 3.30471 14.3078C2.174 14.5185 1.62243 15.8206 2.27328 16.777ZM3.9721 14.3186C3.9721 14.5239 3.9721 14.7238 3.9721 14.9237C3.9721 15.129 3.9721 15.3398 3.9721 15.5613C4.36371 15.5613 4.73326 15.5613 5.10281 15.5613C5.14694 15.5613 5.19658 15.5559 5.2407 15.5505C5.14694 14.9453 4.56779 14.378 3.9721 14.3186Z" fill="#5958A0"/>
<path d="M11.9044 16.874C11.9044 17.0843 11.9044 17.2838 11.9044 17.4941C10.3711 17.4941 8.84321 17.4941 7.29883 17.4941C7.29883 17.2946 7.29883 17.0897 7.29883 16.874C8.82667 16.874 10.3545 16.874 11.9044 16.874Z" fill="#5958A0"/>
<path d="M9.27539 18.7856C9.27539 18.5699 9.27539 18.3704 9.27539 18.1655C10.1524 18.1655 11.0128 18.1655 11.8953 18.1655C11.8953 18.365 11.8953 18.5699 11.8953 18.7856C11.0294 18.7856 10.1579 18.7856 9.27539 18.7856Z" fill="#5958A0"/>
<path d="M11.9031 16.1968C11.0262 16.1968 10.1657 16.1968 9.2832 16.1968C9.2832 15.9919 9.2832 15.787 9.2832 15.5713C10.1547 15.5713 11.0206 15.5713 11.9031 15.5713C11.9031 15.7762 11.9031 15.9757 11.9031 16.1968Z" fill="#5958A0"/>
<path d="M7.29102 15.5713C7.72675 15.5713 8.15146 15.5713 8.5872 15.5713C8.5872 15.7762 8.5872 15.9811 8.5872 16.1968C8.15697 16.1968 7.72675 16.1968 7.29102 16.1968C7.29102 15.9919 7.29102 15.7924 7.29102 15.5713Z" fill="#5958A0"/>
<path d="M7.29102 18.7856C7.29102 18.5699 7.29102 18.3704 7.29102 18.1655C7.72675 18.1655 8.14594 18.1655 8.5872 18.1655C8.5872 18.365 8.5872 18.5699 8.5872 18.7856C8.16249 18.7856 7.73227 18.7856 7.29102 18.7856Z" fill="#5958A0"/>
<path d="M1.33594 5.81943C1.33594 5.17107 1.33594 4.53892 1.33594 3.90137C1.9923 3.90137 2.63212 3.90137 3.294 3.90137C3.294 4.53352 3.294 5.17107 3.294 5.81943C2.64866 5.81943 1.99782 5.81943 1.33594 5.81943ZM2.63763 4.54973C2.41149 4.54973 2.20741 4.54973 1.99782 4.54973C1.99782 4.76585 1.99782 4.97116 1.99782 5.17107C2.21844 5.17107 2.42804 5.17107 2.63763 5.17107C2.63763 4.96035 2.63763 4.76044 2.63763 4.54973Z" fill="#5958A0"/>
<path d="M5.94439 3.90625C5.94439 4.54921 5.94439 5.18136 5.94439 5.82431C5.29354 5.82431 4.64821 5.82431 3.98633 5.82431C3.98633 5.19216 3.98633 4.55461 3.98633 3.90625C4.63166 3.90625 5.27699 3.90625 5.94439 3.90625ZM5.28251 4.55461C5.05637 4.55461 4.84677 4.55461 4.64821 4.55461C4.64821 4.77613 4.64821 4.97604 4.64821 5.17595C4.86883 5.17595 5.07291 5.17595 5.28251 5.17595C5.28251 4.96524 5.28251 4.76533 5.28251 4.55461Z" fill="#5958A0"/>
<path d="M8.58892 5.82431C7.92704 5.82431 7.28722 5.82431 6.63086 5.82431C6.63086 5.18136 6.63086 4.55461 6.63086 3.90625C7.27619 3.90625 7.92704 3.90625 8.58892 3.90625C8.58892 4.5384 8.58892 5.17595 8.58892 5.82431ZM7.93256 4.54921C7.70641 4.54921 7.50233 4.54921 7.29274 4.54921C7.29274 4.76533 7.29274 4.96524 7.29274 5.17595C7.51337 5.17595 7.72296 5.17595 7.93256 5.17595C7.93256 4.95983 7.93256 4.75992 7.93256 4.54921Z" fill="#5958A0"/>
</svg>
