<svg width="65" height="80" viewBox="0 0 65 80" fill="none" xmlns="http://www.w3.org/2000/svg">
<g clip-path="url(#clip0_405_2902)">
<path d="M16.4078 80C16.2377 79.9035 16.0432 79.8311 15.873 79.7345C15.4355 79.5415 15.0223 79.3484 14.6576 79.083C13.661 78.3348 13.1505 77.273 13.1505 75.8974C13.1505 74.6425 13.1505 73.3635 13.1505 72.1086C13.1505 69.3575 13.1505 66.5098 13.1748 63.7104C13.1991 61.5385 12.5185 59.6078 11.0843 57.8703C6.12547 51.7406 2.86818 45.5867 1.19092 39.0226C-1.48298 28.7421 0.340133 19.3544 6.58733 11.1252C11.0357 5.26093 17.2586 1.66516 25.0615 0.434389C26.9089 0.144796 28.7564 0 30.5309 0C37.0211 0 43.1711 1.93062 48.7863 5.74359C49.4426 6.17798 50.0503 6.68477 50.7066 7.19155C51.0226 7.43288 51.3143 7.67421 51.6546 7.91553L51.8491 8.06033L52.0436 7.8914C52.0679 7.86727 52.1165 7.84314 52.1651 7.79487C52.2623 7.72247 52.3839 7.62594 52.5054 7.50528C52.9187 7.09502 53.3319 6.68477 53.7451 6.25038C54.4258 5.57466 55.1064 4.87481 55.8113 4.22323C56.4677 3.59578 57.2212 3.25792 57.9991 3.25792C58.7526 3.25792 59.4819 3.57164 60.1382 4.17496C60.6244 4.63348 61.0862 5.09201 61.5481 5.55053C62.885 6.92609 62.885 8.63952 61.5238 10.0151C60.5514 11.0045 59.5305 11.994 58.5582 12.9593C58.1449 13.3695 57.124 14.359 57.124 14.359L57.2212 14.552C57.44 15.0588 57.6831 15.5415 57.9018 16.0241C58.4123 17.086 58.8985 18.0995 59.2874 19.1614C60.916 23.3363 61.621 27.6561 61.3293 31.9759C61.0619 36.1991 61.7182 39.6259 63.3955 42.7632C63.7844 43.5113 64.1004 44.3318 64.3921 45.1282C64.4893 45.4178 64.6109 45.7074 64.7324 45.997C65.0484 46.7934 65.0241 47.638 64.6838 48.3379C64.3435 49.0377 63.7115 49.5445 62.9336 49.7858C61.6696 50.1719 60.3813 50.4615 59.1172 50.7511L58.7283 50.8477C58.6311 50.8718 58.5582 50.8718 58.4609 50.8718C58.072 50.8718 57.7803 50.6546 57.6831 50.2685C57.6101 50.0271 57.6344 49.7858 57.7317 49.5928C57.8289 49.3997 58.0234 49.2549 58.2908 49.1825C59.0929 48.9653 59.9194 48.7481 60.7216 48.555C61.1591 48.4344 61.5967 48.3379 62.0342 48.2172C62.4718 48.0965 62.9336 47.9517 63.1038 47.5656C63.2982 47.1795 63.1524 46.721 62.9822 46.3348C62.6662 45.5867 62.3502 44.8145 62.0585 44.0664C61.3293 42.3047 60.5757 40.4947 59.8708 38.6848C59.7006 38.2745 59.6034 37.7919 59.6034 37.3575C59.6034 36.3198 59.6034 35.2579 59.6034 34.2202C59.6277 32.6274 59.6277 31.0106 59.5791 29.3937C59.4333 24.6154 58.2422 20.1991 56.0544 16.2655L55.86 15.9035L47.8626 23.8431L48.2272 24.0362C49.2238 24.5671 49.6371 25.5807 49.5641 27.1735C49.5398 27.7768 49.5398 28.3801 49.5398 28.9593C49.5398 29.3937 49.5398 29.8281 49.5398 30.2624C49.5155 31.9517 48.4217 33.0377 46.6958 33.086C46.5742 33.086 46.4527 33.086 46.3312 33.086H45.7721C44.0948 33.086 43.9733 33.1584 43.3169 34.6546L43.2926 34.7029C43.1225 35.0649 43.0253 35.4992 43.5357 35.9578C43.9976 36.368 44.4594 36.8265 44.8727 37.2851L44.9699 37.3816C46.1124 38.5641 46.1124 40.0845 44.9942 41.2428C44.0462 42.2081 43.0982 43.1493 42.1988 44.0181C41.6154 44.5731 40.9347 44.8627 40.2541 44.8627C39.5735 44.8627 38.8929 44.5732 38.3095 44.0422C38.1393 43.8733 37.9448 43.7044 37.7747 43.5113C37.7018 43.4389 37.6045 43.3424 37.5316 43.27C36.9725 42.7149 36.6565 42.4253 36.1947 42.4253C35.903 42.4253 35.6113 42.5219 35.1251 42.6908L34.9793 42.7391C34.2014 43.0045 33.9097 43.463 33.9583 44.2594C34.0069 44.8869 33.9826 45.5385 33.934 46.1659C33.7882 47.5173 32.7429 48.5068 31.3816 48.5309C30.6767 48.555 29.9718 48.555 29.2425 48.555C28.5376 48.555 27.8327 48.555 27.1277 48.5309C25.6692 48.4827 24.5754 47.3967 24.5267 45.9004C24.5267 45.8281 24.5267 45.7798 24.5267 45.7074C24.5267 45.5385 24.5024 45.3937 24.5267 45.2489C24.7941 43.7768 24.235 42.908 22.8009 42.5701H22.7766C22.5578 42.5219 22.339 42.4736 22.1445 42.4736C21.8042 42.4736 21.5125 42.6184 21.2451 42.9321C20.8562 43.3906 20.3944 43.825 19.9811 44.187C19.4706 44.6214 18.8386 44.8627 18.2066 44.8627C17.5503 44.8627 16.9426 44.6214 16.4321 44.1629C15.3869 43.1976 14.3416 42.1599 13.3693 41.1222C12.3727 40.0603 12.3727 38.6124 13.3936 37.5023C13.4179 37.4781 13.4422 37.454 13.4665 37.4299C13.5395 37.3575 13.6124 37.2851 13.661 37.2368C15.0223 36.3439 15.2653 35.1855 14.3659 33.81L14.3416 33.7617C14.1229 33.448 13.9284 33.1101 13.3693 33.1101C13.345 33.1101 13.2964 33.1101 13.2721 33.1101C13.0533 33.1342 12.8102 33.1342 12.5428 33.1342C12.2268 33.1342 11.8865 33.1342 11.6434 33.1101C10.0148 33.0377 8.94522 31.9517 8.94522 30.3348C8.92091 28.8145 8.92091 27.5837 8.94522 26.4012C8.96953 24.8567 9.99047 23.7466 11.376 23.7466C11.449 23.7466 11.5219 23.7466 11.5948 23.7466C11.8136 23.7707 12.008 23.7707 12.1782 23.7707C13.9527 23.7707 14.8278 22.8778 14.9979 20.8748L15.0223 20.7059L14.9007 20.6094C14.8278 20.537 14.7306 20.4646 14.6333 20.3922C14.3416 20.175 13.9527 19.8612 13.6124 19.5234C12.2997 18.2443 12.2997 16.7481 13.5881 15.4449C14.4632 14.552 15.3626 13.6591 16.2134 12.8386C16.8211 12.2353 17.526 11.9216 18.2066 11.9216C18.9116 11.9216 19.6165 12.2353 20.2485 12.8627C20.3214 12.9351 20.3944 12.9834 20.443 13.0558L20.5159 13.1282C21.2938 13.9005 21.6827 14.2866 22.2661 14.2866C22.6793 14.2866 23.1412 14.0694 23.919 13.7074C24.2107 13.5867 24.4538 13.2006 24.4781 12.8869C24.5024 12.4766 24.5024 12.0664 24.5024 11.6561C24.5024 11.4148 24.5024 11.1493 24.5024 10.908C24.5267 9.41176 25.6206 8.30166 27.0791 8.25339C27.784 8.22926 28.489 8.22926 29.1939 8.22926C29.8988 8.22926 30.6038 8.22926 31.333 8.25339C32.6943 8.27753 33.7395 9.26697 33.8854 10.6184C33.9583 11.3665 33.9583 12.1388 33.934 12.8627C33.9097 13.4178 34.1528 13.7557 34.6876 13.9728L34.7362 13.997C35.3682 14.2383 35.7571 14.4072 36.0974 14.4072C36.6322 14.4072 36.9725 14.0694 37.6531 13.4178C37.7261 13.3454 37.799 13.273 37.8719 13.2006C38.0178 13.0558 38.1636 12.911 38.3338 12.7662C38.8929 12.2353 39.5492 11.9698 40.2298 11.9698C40.9104 11.9698 41.5425 12.2353 42.1015 12.7662C42.612 13.2489 43.1225 13.7557 43.633 14.3107C43.876 14.552 44.1191 14.8175 44.3865 15.083L44.6053 15.3001L45.6748 14.2142C46.3069 13.5867 46.9146 12.9593 47.5466 12.356C48.1543 11.7526 48.7863 11.1493 49.4426 10.4977L50.6337 9.31523L50.342 9.09804C49.9288 8.78431 49.5155 8.49472 49.1266 8.18099C48.2515 7.52941 47.4493 6.90196 46.5499 6.37104C41.1778 3.20965 35.6842 1.59276 30.2392 1.59276C25.6449 1.59276 20.9778 2.75113 16.3835 4.99547C10.5982 7.9638 6.29563 12.9834 3.64604 19.9336C0.972145 27.0045 1.09369 34.365 4.05928 42.3771C5.9067 47.3967 8.5806 52.0543 12.008 56.2051C14.0985 58.7391 15.0223 61.3454 14.925 64.4585C14.8521 67.0649 14.8764 69.7195 14.8764 72.3017C14.8764 73.3876 14.9007 74.4736 14.9007 75.5837C14.9007 77.4419 15.7515 78.2866 17.6232 78.2866C20.8319 78.2866 24.0163 78.2866 27.2249 78.2866C30.4336 78.2866 33.618 78.2866 36.8267 78.2866C38.6498 78.2866 39.5006 77.4419 39.5006 75.632C39.5006 74.8115 39.5006 74.0151 39.5006 73.1946C39.5006 71.9879 39.5006 70.7813 39.5006 69.5747C39.5249 66.5581 41.6154 64.4344 44.6296 64.4344C44.7025 64.4344 44.7511 64.4344 44.8241 64.4344C46.2096 64.4827 47.6438 64.555 49.0051 64.6274C49.8801 64.6757 50.8039 64.724 51.7033 64.7722C51.8005 64.7722 51.922 64.7722 52.0193 64.7722C55.2036 64.7722 57.5129 62.552 57.6345 59.3424C57.6588 58.6667 57.6588 57.9668 57.6588 57.3152C57.6588 56.8567 57.6588 56.3982 57.6588 55.9638C57.6588 55.2157 57.9505 54.8296 58.5339 54.8296C58.7769 54.8296 58.9957 54.902 59.1172 55.0468C59.3117 55.2398 59.3846 55.5535 59.3846 55.9638C59.3846 56.3982 59.3846 56.8567 59.3846 57.2911C59.3846 58.5219 59.3846 59.8009 59.1416 60.9834C58.5095 64.1689 55.6412 66.4857 52.2867 66.4857H52.2137C49.9045 66.4615 47.6195 66.3409 45.4318 66.1478C45.2373 66.1237 45.0428 66.1237 44.8727 66.1237C43.7302 66.1237 42.7822 66.4857 42.1502 67.1614C41.4695 67.8612 41.1535 68.9231 41.2264 70.1297C41.2994 71.4329 41.2751 72.7602 41.2751 74.0633C41.2751 74.6184 41.2508 75.1493 41.2508 75.7044C41.2508 77.9246 40.3027 79.2036 38.1636 79.9035C38.0907 79.9276 38.0178 79.9759 37.9692 80.0241H16.4078V80ZM29.3641 46.914C29.9475 46.914 30.4822 46.914 30.9927 46.9382C31.017 46.9382 31.0413 46.9382 31.0656 46.9382C31.4789 46.9382 31.7706 46.8416 31.9893 46.6244C32.2081 46.4072 32.3054 46.0694 32.3054 45.635C32.281 45.1041 32.3054 44.5732 32.3054 44.0664C32.3054 43.6561 32.3054 43.2217 32.3054 42.8115C32.3054 42.2323 32.5241 41.9427 33.1318 41.7255C34.1285 41.3635 35.0522 40.9774 35.9273 40.543C36.1947 40.4223 36.4134 40.3499 36.6322 40.3499C36.8996 40.3499 37.167 40.4706 37.4101 40.736C37.7747 41.098 38.1393 41.4842 38.5039 41.822C38.8199 42.1357 39.1603 42.4736 39.4763 42.7873C39.768 43.0769 40.0353 43.2217 40.327 43.2217C40.6187 43.2217 40.9104 43.0769 41.2021 42.7873C42.0286 41.9185 42.9037 41.0739 43.7302 40.2775C43.9976 40.0121 44.1434 39.7466 44.1434 39.457C44.1434 39.1674 43.9976 38.902 43.7059 38.6124C43.3169 38.2262 42.9037 37.8401 42.5391 37.454C42.1988 37.1161 41.8585 36.7783 41.5181 36.4404C41.1049 36.0302 41.032 35.644 41.2994 35.089C41.7612 34.1478 42.1502 33.2066 42.4662 32.2896C42.6606 31.6863 42.9766 31.4691 43.56 31.4691H43.6086C43.876 31.4691 44.1191 31.4691 44.3865 31.4691C44.6053 31.4691 44.8241 31.4691 45.0671 31.4691C45.2859 31.4691 45.5047 31.4691 45.7235 31.4691C45.9908 31.4691 46.2825 31.4691 46.5499 31.4691C46.5742 31.4691 46.5985 31.4691 46.6229 31.4691C47.0361 31.4691 47.3521 31.3725 47.5709 31.1312C47.7896 30.8899 47.9112 30.552 47.8869 30.0935C47.8626 29.635 47.8869 29.1765 47.8869 28.7421C47.8869 28.1629 47.8869 27.5354 47.8626 26.9321C47.8383 26.5943 47.6924 25.8703 47.2549 25.629C47.0361 25.5083 46.8173 25.46 46.5985 25.46C46.1853 25.46 45.7964 25.6531 45.4561 25.9909C45.0185 26.4736 44.5324 26.9321 44.0705 27.3665C43.4385 27.994 42.7822 28.6214 42.1745 29.2971C40.5944 31.083 38.5769 32.555 35.7085 34.0271C33.7638 35.0407 31.7949 35.5958 29.7044 35.7888C29.5342 35.813 29.3398 35.813 29.1696 35.813C26.3499 35.813 23.5544 34.0754 22.5335 31.6863C22.4119 31.4208 22.4606 30.914 22.6307 30.6003C22.6793 30.5279 22.971 30.3831 23.2627 30.3831C23.3113 30.3831 23.36 30.3831 23.36 30.3831C23.603 30.4555 23.919 30.721 24.1135 31.083C25.1344 32.8205 26.5686 33.7617 28.5133 34.0271C28.6834 34.0513 28.8779 34.0754 29.0724 34.0754C29.437 34.0754 29.7044 33.9789 29.8988 33.7858C30.1176 33.5686 30.2149 33.2549 30.1905 32.8205C30.1905 32.7722 30.2635 32.6516 30.2878 32.5792C30.3121 32.5309 30.3364 32.5068 30.3607 32.4585C31.2601 30.7451 32.1595 29.0075 33.0589 27.27L33.934 25.5807L33.8368 25.4359C32.8158 23.7949 31.0413 22.8054 29.1453 22.8054C27.0548 22.8054 25.1588 23.9397 24.0892 25.8462C23.7975 26.3288 23.5058 26.5943 23.1898 26.5943C23.0683 26.5943 22.9224 26.546 22.7766 26.4736C22.5578 26.3529 22.4119 26.2081 22.3633 26.0151C22.2661 25.7496 22.339 25.3876 22.5578 24.9774C23.8218 22.5882 26.3255 21.092 29.121 21.092C31.2844 21.092 33.302 22.009 34.6876 23.6259C34.8091 23.7466 34.9063 23.8914 35.0279 24.0121L35.3925 24.4223L43.5114 16.4344L42.6363 15.5897C42.1015 15.083 41.5911 14.6003 41.0806 14.1176C40.8375 13.8763 40.5701 13.7557 40.327 13.7557C40.0353 13.7557 39.768 13.9005 39.4763 14.19C39.1846 14.5038 38.8686 14.7934 38.5769 15.083C38.1879 15.4691 37.799 15.8552 37.4101 16.2413C37.1427 16.5309 36.8753 16.6516 36.5836 16.6516C36.3891 16.6516 36.1704 16.5792 35.9273 16.4585C35.0036 16 34.0555 15.5897 33.1318 15.276C32.5241 15.0588 32.281 14.721 32.281 14.1176C32.281 13.5143 32.281 12.8869 32.281 12.2836C32.281 11.9216 32.281 11.5596 32.281 11.1976C32.281 10.8115 32.1838 10.5219 31.9893 10.3288C31.7949 10.1357 31.5032 10.0392 31.1386 10.0392H31.1143C30.5552 10.0392 29.9961 10.0392 29.4613 10.0392C28.8536 10.0392 28.2459 10.0392 27.6139 10.0392H27.468C27.1034 10.0392 26.8117 10.1357 26.6172 10.3288C26.4228 10.5219 26.3255 10.8115 26.3255 11.1735C26.3255 11.5596 26.3255 11.9216 26.3255 12.3077C26.3255 12.8386 26.3255 13.3937 26.3255 13.9487C26.3499 14.6244 26.0825 14.9623 25.4018 15.2036C24.5267 15.4932 23.5787 15.8552 22.5092 16.362C22.2661 16.4827 22.0473 16.5309 21.8528 16.5309C21.5611 16.5309 21.2938 16.3861 21.0264 16.0965C20.6131 15.6621 20.1756 15.2278 19.7623 14.8175C19.5193 14.6003 19.3005 14.359 19.0574 14.1418C18.8143 13.9005 18.5469 13.7798 18.2795 13.7798C18.0122 13.7798 17.7448 13.9005 17.5017 14.1418L17.21 14.4314C16.4321 15.2036 15.6543 16 14.8521 16.7481C14.5847 17.0136 14.4389 17.279 14.4389 17.5445C14.4389 17.8341 14.5847 18.0995 14.8764 18.3891C15.1681 18.6787 15.4841 18.9683 15.7758 19.2821C16.0918 19.5958 16.4078 19.9095 16.7481 20.2232C17.21 20.6576 17.2829 21.092 16.9912 21.6953C16.5294 22.6124 16.0918 23.6259 15.7272 24.6878C15.5084 25.2911 15.1924 25.5083 14.6333 25.5083H14.5604C14.2687 25.5083 14.0013 25.5083 13.7096 25.5083C13.4908 25.5083 13.2721 25.5083 13.0533 25.5083C12.8345 25.5083 12.6158 25.5083 12.4213 25.5083C12.2511 25.5083 12.1053 25.5083 11.9351 25.5083H11.9108C11.5219 25.5083 11.2302 25.6048 11.0357 25.7979C10.8413 25.9909 10.744 26.2805 10.744 26.6425C10.7683 27.9457 10.7683 29.1282 10.744 30.2624C10.744 30.6486 10.8413 30.9382 11.0357 31.1554C11.2302 31.3484 11.5219 31.4449 11.9108 31.4449H12.2268C12.4699 31.4449 12.713 31.4449 12.9561 31.4449C13.1991 31.4449 13.4422 31.4449 13.6853 31.4449C14.0013 31.4449 14.3173 31.4449 14.6576 31.4449H14.7063C15.241 31.4449 15.5327 31.6621 15.7515 32.2413C16.1647 33.3273 16.578 34.3409 17.0398 35.3062C17.3072 35.8612 17.2586 36.2715 16.8454 36.6576C16.6266 36.8748 16.3835 37.1161 16.1647 37.3333C15.7758 37.7195 15.3626 38.1538 14.9493 38.54C14.6333 38.8296 14.4875 39.1192 14.4875 39.4087C14.4875 39.6983 14.6333 39.9879 14.925 40.2534C15.7272 41.0256 16.5537 41.8462 17.4531 42.7391C17.7448 43.0287 18.0122 43.1735 18.3039 43.1735C18.5956 43.1735 18.8873 43.0287 19.179 42.7149C19.4706 42.4012 19.7867 42.1116 20.0784 41.7979C20.3944 41.4842 20.7347 41.1463 21.075 40.8084C21.3181 40.543 21.5855 40.4223 21.8528 40.4223C22.0473 40.4223 22.2418 40.4706 22.4849 40.5912C23.6273 41.098 24.5511 41.4842 25.4505 41.7738C26.1068 41.9909 26.3499 42.3288 26.3255 42.9804C26.3255 43.4148 26.3255 43.8492 26.3255 44.2836C26.3255 44.7421 26.3255 45.2006 26.3255 45.6591C26.3012 46.0694 26.3985 46.3831 26.6172 46.6003C26.836 46.8175 27.1277 46.914 27.541 46.914H27.5896C28.2459 46.914 28.8293 46.914 29.3641 46.914ZM31.8678 33.3756L32.3783 33.7617L37.2399 31.2519L34.4202 28.4525L31.8678 33.3756ZM35.6356 26.9804L38.7956 30.0694L56.492 12.5008L53.3319 9.38763L35.6356 26.9804ZM57.9261 5.1644C57.7317 5.1644 57.4643 5.18854 57.2698 5.35747C56.6135 5.91252 56.0301 6.51584 55.4467 7.09502C55.2523 7.31222 55.0335 7.50528 54.839 7.72247L54.6202 7.93967L57.9018 11.1976L58.1206 10.9804C58.3394 10.7632 58.5582 10.546 58.7769 10.3288C59.3117 9.79789 59.8951 9.24284 60.4299 8.66365C60.916 8.15686 60.916 7.48115 60.4056 6.95023C60.3327 6.85369 60.2354 6.7813 60.1625 6.68477C59.725 6.22624 59.2874 5.74359 58.7769 5.3816C58.5582 5.2368 58.1935 5.1644 57.9261 5.1644Z" fill="white"/>
<path d="M45.1159 52.923C44.3623 52.8989 44.2894 52.4886 44.2651 51.5233C44.2651 51.4027 44.2651 51.282 44.2408 51.1613L44.2165 50.8717L43.9248 50.8476C43.3171 50.7993 42.4663 50.7269 42.2232 50.4374C42.1746 50.3891 42.126 50.2684 42.126 50.0512C42.1503 49.7375 42.3934 49.3273 42.6364 49.1825C42.8066 49.0618 43.1226 49.0618 43.4143 49.0618C43.5602 49.0618 43.7303 49.0618 43.8762 49.0377L44.1192 49.0135L44.1679 48.7722C44.4352 47.0346 44.654 46.9381 45.0186 46.9381C45.043 46.9381 45.0673 46.9381 45.1159 46.9381C45.918 46.9864 45.991 47.3966 46.0153 48.2654C46.0153 48.4343 46.0396 48.6033 46.0396 48.7481L46.0639 48.9894L46.307 49.0135C46.4771 49.0377 46.6716 49.0377 46.8418 49.0618C47.7169 49.1101 48.1301 49.1583 48.1544 50.003C48.1787 50.4374 48.0815 50.6787 46.307 50.8959L46.0639 50.92L46.0396 51.1613C46.0153 51.3303 46.0153 51.4992 46.0153 51.6681C45.991 52.561 45.8937 52.923 45.1888 52.923C45.1888 52.923 45.1402 52.923 45.1159 52.923Z" fill="white"/>
</g>
<defs>
<clipPath id="clip0_405_2902">
<rect width="65" height="80" fill="white"/>
</clipPath>
</defs>
</svg>
