<svg width="26" height="25" viewBox="0 0 26 25" fill="none" xmlns="http://www.w3.org/2000/svg">
<path d="M21.7293 24.3736C21.4798 24.1801 21.2302 23.9866 20.9856 23.798C20.3466 23.3046 19.6927 22.7967 19.0687 22.2695C18.6394 21.9116 18.1951 21.7471 17.6211 21.7471C17.6061 21.7471 17.5911 21.7471 17.5762 21.7471C16.7575 21.7568 15.859 21.7665 14.7508 21.7665C14.1718 21.7665 13.5877 21.7665 13.0087 21.7616C12.4795 21.7616 11.9504 21.7568 11.4163 21.7568C10.1833 21.7568 9.3846 20.9829 9.3846 19.7833C9.3846 18.903 9.3846 18.0226 9.3846 17.1375V15.488L9.17495 15.5026C9.13002 15.5074 9.08509 15.5074 9.04516 15.5074C8.95531 15.5122 8.87544 15.5171 8.79058 15.5219C8.531 15.5461 8.27143 15.5558 8.01186 15.5558C6.35957 15.5558 4.80212 15.0721 3.38445 14.1143C3.24967 14.0224 3.12487 13.9789 2.99009 13.9789C2.9252 13.9789 2.86031 13.9886 2.78543 14.0079C2.436 14.1047 2.07659 14.1917 1.73216 14.2788C1.48756 14.3417 1.23298 14.4046 0.978395 14.4674C0.918493 14.482 0.863583 14.4916 0.818657 14.4916C0.723812 14.4916 0.658919 14.4626 0.599017 14.3901C0.534124 14.3175 0.489197 14.2208 0.584042 14.0273L0.708837 13.7612C0.908509 13.3356 1.11817 12.9003 1.31285 12.4601C1.36776 12.3392 1.37774 12.136 1.28789 12.0006C0.574058 10.9074 0.154746 9.72719 0.0399345 8.49376C0.0349427 8.44055 0.0149754 8.39218 0 8.36316V7.15875C0.0249591 7.02815 0.0499181 6.89271 0.0698853 6.76212C0.124795 6.46222 0.174713 6.15749 0.249591 5.86243C0.404337 5.2046 0.678886 4.54677 1.06326 3.90829C1.15311 3.75351 1.25294 3.73416 1.32283 3.73416C1.3428 3.73416 1.36776 3.73416 1.39272 3.739C1.53748 3.76318 1.61735 3.84057 1.62733 3.96633C1.63232 4.04373 1.59738 4.15498 1.53249 4.26623C0.893534 5.40776 0.57905 6.62184 0.604009 7.8843C0.628968 9.34507 1.06825 10.6752 1.91186 11.8458C2.08159 12.0828 2.09656 12.2569 1.97177 12.4891C1.86694 12.6826 1.77209 12.8857 1.67725 13.0986C1.63232 13.1953 1.5874 13.2969 1.53748 13.4033L1.36276 13.7709L1.7671 13.6693C1.8919 13.6403 2.00671 13.6113 2.12152 13.5823C2.38109 13.5194 2.62569 13.4613 2.8653 13.384C2.95016 13.3549 3.03003 13.3404 3.10491 13.3404C3.25965 13.3404 3.40441 13.3985 3.57414 13.5242C4.85204 14.4723 6.37953 14.9705 7.97691 14.9705C9.70408 14.9705 11.4013 14.3901 12.7491 13.3308C14.1618 12.2231 15.0902 10.6559 15.3698 8.91941C15.6793 6.95559 15.1901 5.01596 13.992 3.44878C12.799 1.8961 11.0319 0.890007 9.02519 0.619135C8.68076 0.570765 8.33133 0.551417 7.99189 0.551417C6.77389 0.551417 5.58084 0.851311 4.44271 1.44626C4.28297 1.52849 4.18813 1.54784 4.13322 1.54784H4.12823C3.99345 1.543 3.91358 1.47045 3.88363 1.33501C3.85368 1.18506 3.9036 1.08349 4.05834 0.99642C4.69729 0.64332 5.38117 0.377285 6.08003 0.212828C6.72397 0.0773919 7.38289 0 8.03681 0C9.85883 0 11.6509 0.609461 13.0736 1.71713C14.5212 2.84415 15.5245 4.44036 15.8989 6.22037C16.0037 6.71858 16.0387 7.22647 16.0736 7.76337C16.0886 8.01006 16.1086 8.27126 16.1285 8.52762L16.1435 8.70175H23.0372C24.2003 8.70175 24.8293 9.1661 25.1338 10.2593C25.1388 10.2786 25.1437 10.2931 25.1537 10.3076V20.1606C25.1437 20.1799 25.1338 20.2041 25.1238 20.2331C24.8692 21.2489 24.1903 21.7616 23.1171 21.7665H22.1936L22.1487 21.8971C22.1437 21.9116 22.1387 21.9212 22.1387 21.9261C22.1287 21.9503 22.1137 21.9841 22.1137 22.0325C22.1137 22.2066 22.1137 22.3808 22.1087 22.5549C22.1037 23.0047 22.1037 23.4642 22.1137 23.9238C22.1187 24.1559 22.0588 24.2865 21.9041 24.3833H21.7293V24.3736ZM18.275 21.1764C18.5296 21.1764 18.7093 21.2392 18.889 21.3843C19.3882 21.7955 19.9073 22.2018 20.4065 22.5984C20.5912 22.7435 20.7709 22.8838 20.9506 23.0289C20.9956 23.0628 21.0355 23.0918 21.0904 23.1353C21.1203 23.1547 21.1503 23.1789 21.1852 23.2031L21.5047 23.4352V23.0483C21.5047 22.8838 21.5047 22.729 21.5047 22.5742C21.5047 22.2211 21.5047 21.8826 21.5047 21.544C21.5047 21.2828 21.6095 21.186 21.8741 21.186C22.0289 21.186 22.1836 21.186 22.3384 21.186C22.4482 21.186 22.8974 21.186 23.0073 21.186H23.1221C24.0156 21.186 24.5497 20.6733 24.5497 19.8123C24.5497 16.765 24.5497 13.7177 24.5497 10.6704C24.5497 9.79007 24.0256 9.28703 23.1121 9.28703H15.9488L15.9089 9.43213C15.4996 10.9316 14.8057 12.1892 13.8473 13.1615C12.8889 14.1337 11.6359 14.8641 10.1134 15.3333L9.97364 15.3768V16.9585C9.97364 17.9017 9.97364 18.8498 9.97364 19.793C9.97364 20.6781 10.5028 21.1909 11.4263 21.1909H12.8789C13.4629 21.1909 14.047 21.1909 14.631 21.1909C16.1036 21.1909 17.2217 21.1909 18.265 21.186H18.275V21.1764Z" fill="#8DC477"/>
<path d="M5.54656 11.5496C5.4684 11.5496 5.40326 11.5089 5.3555 11.4377C5.27733 11.3207 5.27733 11.1682 5.3555 11.0664C5.39892 11.0105 5.4684 10.9596 5.54222 10.9088L5.56393 10.8935C6.63215 10.1306 7.30956 9.00667 7.57445 7.5572C7.58313 7.50634 7.58748 7.46057 7.59182 7.40971C7.59182 7.38428 7.59616 7.35376 7.6005 7.32325L7.62222 7.09438H7.04468C6.94046 7.09438 6.8319 7.09438 6.72769 7.09438C6.62347 7.09438 6.51491 7.09438 6.41069 7.09438C6.22831 7.09438 6.07633 7.09438 5.93737 7.0893C5.77671 7.08421 5.65946 6.96215 5.65512 6.78923C5.65512 6.61631 5.77236 6.48917 5.93303 6.48408C6.11541 6.479 6.31516 6.479 6.55833 6.479C6.70597 6.479 6.85362 6.479 7.0056 6.479C7.15758 6.479 7.31391 6.479 7.47023 6.479H7.63524L7.64393 6.28573C7.64393 6.25013 7.64827 6.21962 7.64827 6.1891C7.65261 6.12299 7.65695 6.05687 7.65695 5.99075C7.65695 5.79241 7.65695 5.58897 7.65695 5.39062C7.65695 5.0041 7.65695 4.6074 7.6613 4.21579C7.66564 4.00219 7.76551 3.84961 7.90881 3.84961C7.93921 3.84961 7.9696 3.8547 8.00434 3.86995C8.09553 3.90555 8.18238 3.97676 8.18238 4.2107C8.18238 4.62774 8.18238 5.04479 8.18238 5.46183V6.47391H10.1712C10.1886 6.47391 10.2059 6.47391 10.2233 6.47391C10.2363 6.47391 10.2537 6.47391 10.2667 6.47391C10.3015 6.47391 10.3232 6.47391 10.3449 6.479C10.4882 6.49934 10.5924 6.63157 10.5924 6.78415C10.5881 6.95198 10.4752 7.07913 10.3275 7.07913C10.1104 7.08421 9.87591 7.08421 9.57628 7.08421C9.43733 7.08421 9.29837 7.08421 9.15942 7.08421C9.02046 7.08421 8.8815 7.08421 8.74255 7.08421H8.22146L8.24752 7.31308C8.25186 7.34868 8.25186 7.37919 8.2562 7.40971C8.26054 7.48091 8.26923 7.54703 8.28226 7.61314C8.56017 9.04735 9.24192 10.151 10.3145 10.8986C10.5142 11.041 10.549 11.1376 10.5403 11.2648C10.5273 11.4275 10.4317 11.5292 10.2928 11.5292C10.232 11.5292 10.1712 11.5089 10.1104 11.4682C9.40259 11.0003 8.82939 10.3595 8.40384 9.55594C8.33002 9.41353 8.26054 9.26604 8.18672 9.10838C8.15198 9.03209 8.1129 8.95581 8.07382 8.87443L7.9175 8.54894L7.6613 9.12364C7.20101 10.151 6.54965 10.9444 5.71591 11.4936C5.65946 11.5292 5.59867 11.5496 5.54656 11.5496Z" fill="#8DC477"/>
<path d="M19.5991 17.9665C19.4905 17.9665 19.3863 17.8838 19.332 17.7573C19.1102 17.2319 18.9155 16.76 18.748 16.3173C18.662 16.0935 18.5262 15.9914 18.3043 15.9914H18.2953C17.9376 15.9962 17.5709 15.9962 17.2133 15.9962C16.8556 15.9962 16.4889 15.9962 16.1267 15.9914H16.1177C15.8958 15.9914 15.76 16.0935 15.674 16.3173C15.5156 16.7308 15.3435 17.1492 15.1715 17.5481L15.1036 17.7086C15.0628 17.8011 14.9768 17.9616 14.8365 17.9616C14.8048 17.9616 14.7686 17.9519 14.7323 17.9373C14.6599 17.9032 14.6101 17.8546 14.5829 17.7962C14.5512 17.7135 14.5603 17.6065 14.6101 17.4848C14.7278 17.1881 14.85 16.8913 14.9542 16.6335C14.9949 16.5313 15.0357 16.434 15.0719 16.3416L15.099 16.2735L15.0764 16.2005C15.0447 16.1081 15.0176 16.0254 14.9904 15.9524C14.9406 15.8211 14.9044 15.7189 14.8998 15.6265C14.8953 15.5778 14.9134 15.5389 14.9406 15.5049C14.9859 15.4562 15.0583 15.4222 15.1398 15.4222C15.4205 15.4173 15.5246 15.2422 15.597 15.0719C15.8143 14.5319 16.0362 13.9871 16.2535 13.4617C16.4708 12.9314 16.6926 12.3865 16.9099 11.8514C17.0141 11.5985 17.0956 11.5498 17.2133 11.5498C17.331 11.5498 17.4125 11.5985 17.5166 11.8514C17.9557 12.9363 18.3994 14.026 18.8431 15.0962C18.8838 15.1935 19.0061 15.3881 19.1781 15.4027C19.418 15.4222 19.4859 15.4951 19.5222 15.607C19.5539 15.7092 19.5674 15.8454 19.3682 15.9962L19.246 16.0886L19.4543 16.6043C19.5765 16.9108 19.6987 17.2124 19.821 17.5092C19.8934 17.6892 19.8526 17.7865 19.7983 17.8546C19.7485 17.9275 19.6761 17.9665 19.5991 17.9665ZM16.0588 15.3979H18.3722L17.2133 12.5665L16.0588 15.3979Z" fill="#8DC477"/>
</svg>
