<svg width="22" height="22" viewBox="0 0 22 22" fill="none" xmlns="http://www.w3.org/2000/svg">
<path d="M20.1163 15.125C20.7007 13.8245 20.9986 12.438 20.9986 11C20.9986 8.43333 20.0246 5.99271 18.26 4.13073C18.0423 3.89583 17.6527 3.89583 17.4293 4.11927L15.0402 6.50833C14.8225 6.72604 14.8111 7.08125 15.023 7.31042C15.9798 8.35313 16.4897 9.70521 16.4611 11.1203C16.398 13.9906 13.9975 16.3911 11.1272 16.4542C8.10794 16.5229 5.52982 14.0193 5.52982 11C5.52982 9.5849 6.06836 8.24427 7.05378 7.22448C8.03346 6.20469 9.34544 5.60885 10.7491 5.55156C11.0642 5.5401 11.3048 5.28229 11.3048 4.97292V1.59271C11.3048 1.27188 11.0298 1.0026 10.709 1.01406C9.03034 1.0599 7.3918 1.52396 5.94805 2.36615C5.86784 2.31458 5.77617 2.27448 5.6845 2.24583V0.320833C5.6845 0.143229 5.54128 0 5.36367 0C5.18607 0 5.04284 0.143229 5.04284 0.320833V2.24583C4.57878 2.38333 4.24076 2.81302 4.24076 3.32292C4.24076 3.41458 4.25221 3.50625 4.27513 3.59792C2.19544 5.48854 0.998047 8.17552 0.998047 11C0.998047 16.4542 5.55846 20.9917 11.0069 20.9917C12.846 20.9917 14.6277 20.4932 16.1803 19.5536C16.2892 19.6396 16.4152 19.7083 16.5527 19.7484V21.6734C16.5527 21.851 16.696 21.9943 16.8736 21.9943C17.0512 21.9943 17.1944 21.851 17.1944 21.6734V19.7484C17.6585 19.6109 17.9965 19.1812 17.9965 18.6714C17.9965 18.5167 17.9621 18.3677 17.9048 18.2302C18.8444 17.3479 19.5892 16.2995 20.1163 15.125ZM5.3694 2.8474C5.63294 2.8474 5.84492 3.05938 5.84492 3.32292C5.84492 3.58646 5.63294 3.79844 5.3694 3.79844C5.10586 3.79844 4.89388 3.58646 4.89388 3.32292C4.89388 3.05938 5.11159 2.8474 5.3694 2.8474ZM4.62461 4.15938C4.82513 4.33698 5.08294 4.44583 5.37513 4.44583C5.99388 4.44583 6.49805 3.94167 6.49805 3.32292C6.49805 3.15677 6.46367 3.00208 6.39492 2.85885C7.69544 2.11979 9.16784 1.70729 10.6689 1.65573V4.90417C9.12201 4.98438 7.67253 5.64896 6.59544 6.77187C5.49544 7.91198 4.89388 9.41302 4.89388 10.9943C4.89388 12.5125 5.44961 13.9505 6.45794 15.0734L4.16055 17.3708C2.53346 15.6406 1.64544 13.3891 1.64544 11C1.64544 8.39896 2.72825 5.92396 4.62461 4.15938ZM4.63034 17.8349L6.92773 15.5375C8.08503 16.5859 9.56888 17.1359 11.1444 17.1016C12.7142 17.0672 14.198 16.4312 15.3152 15.3141C16.4324 14.1969 17.0684 12.713 17.1027 11.1432C17.1371 9.5849 16.5814 8.08958 15.5387 6.92656L17.8361 4.62917C19.4574 6.3651 20.3512 8.62813 20.3512 11.0057C20.3512 13.5323 19.3142 15.9901 17.4923 17.7432C17.3147 17.6286 17.1027 17.5599 16.8736 17.5599C16.2548 17.5599 15.7507 18.0641 15.7507 18.6828C15.7507 18.8031 15.7678 18.9234 15.8079 19.0323C14.3642 19.8974 12.7085 20.3557 11.0012 20.3557C8.62357 20.3443 6.372 19.4562 4.63034 17.8349ZM16.885 19.1526C16.6215 19.1526 16.4095 18.9406 16.4095 18.6771C16.4095 18.4135 16.6215 18.2016 16.885 18.2016C17.1486 18.2016 17.3605 18.4135 17.3605 18.6771C17.3605 18.9406 17.1428 19.1526 16.885 19.1526Z" fill="#72B756"/>
<path d="M8.46823 13.0855C8.29635 13.0454 8.12448 13.1542 8.08438 13.3319C8.03854 13.5438 8.01562 13.7615 8.01562 13.9792C8.02135 14.4834 8.23906 14.8272 8.68021 15.0334C10.0896 15.6923 11.9458 15.761 13.3438 15.0277C13.9052 14.7355 13.9854 14.3173 13.9911 13.985V13.9792C13.9911 12.9881 13.5099 12.0829 12.7135 11.5272C12.9427 11.1949 13.0802 10.7881 13.0802 10.3527V8.47925C13.212 8.19852 13.2807 7.88341 13.2807 7.55112C13.2807 6.92664 12.7708 6.41675 12.1464 6.41675H11.0578C9.88333 6.41675 8.93229 7.37352 8.93229 8.54227V10.3584C8.93229 10.7938 9.06979 11.2006 9.29896 11.5329C9.06406 11.699 8.84635 11.8996 8.66875 12.123C8.5599 12.2605 8.58281 12.4667 8.72031 12.5756C8.88073 12.6845 9.02969 12.6673 9.17292 12.524C9.33333 12.3235 9.53385 12.1459 9.75156 12.0027C9.87188 12.0944 9.99792 12.1746 10.1354 12.2376V12.7819C10.1354 12.9251 10.1813 13.0569 10.25 13.1657L9.90625 14.3746C9.87188 14.5006 9.90052 14.6667 9.95781 14.7928C9.60833 14.7183 9.27604 14.6037 8.95521 14.4548C8.7375 14.3516 8.66875 14.2371 8.66302 13.9792C8.66302 13.8074 8.68021 13.6355 8.72031 13.4694C8.74896 13.2975 8.6401 13.1256 8.46823 13.0855ZM10.6682 14.8902L10.5307 14.5006L10.8229 13.4751H11.1953L11.4703 14.4949L11.3328 14.8845C11.1151 14.9074 10.8859 14.9074 10.6682 14.8902ZM9.56823 10.3527V9.7855H11.0406C11.5677 9.7855 12.049 9.60216 12.4328 9.29852V10.3527C12.4328 11.1433 11.7911 11.785 11.0005 11.785C10.2099 11.785 9.56823 11.1433 9.56823 10.3527ZM13.3438 13.9735C13.338 14.2027 13.2922 14.323 13.0401 14.4605C12.7536 14.6095 12.4271 14.724 12.049 14.7985C12.1005 14.6725 12.1406 14.5063 12.1005 14.3803L11.774 13.1772C11.8484 13.0626 11.8943 12.9308 11.8943 12.7819V12.2261C12.0203 12.1631 12.1406 12.0886 12.2495 12.0027C12.9313 12.4324 13.3438 13.1657 13.3438 13.9735ZM9.56823 8.54227C9.56823 7.723 10.2328 7.05841 11.0521 7.05841H12.1406C12.4099 7.05841 12.6333 7.28185 12.6333 7.55112C12.6333 8.42769 11.9172 9.14383 11.0406 9.14383H9.56823V8.54227ZM11.0005 12.4266C11.0865 12.4266 11.1724 12.4209 11.2583 12.4095V12.7761C11.2583 12.8048 11.2354 12.8334 11.201 12.8334H10.8229C10.7943 12.8334 10.7656 12.8105 10.7656 12.7761V12.4152C10.8458 12.4266 10.9203 12.4266 11.0005 12.4266Z" fill="#72B756"/>
<path d="M0.320833 0.641667H2.96198C3.13958 0.641667 3.28281 0.498437 3.28281 0.320833C3.28281 0.143229 3.14531 0 2.96198 0H0.320833C0.143229 0 0 0.143229 0 0.320833C0 0.498437 0.143229 0.641667 0.320833 0.641667Z" fill="#72B756"/>
<path d="M2.36042 1.67288C2.36042 1.49528 2.21719 1.35205 2.03958 1.35205H0.320833C0.143229 1.35205 0 1.49528 0 1.67288C0 1.85049 0.143229 1.99372 0.320833 1.99372H2.03958C2.21719 1.99945 2.36042 1.85622 2.36042 1.67288Z" fill="#72B756"/>
<path d="M21.6788 20.0005H19.0376C18.86 20.0005 18.7168 20.1437 18.7168 20.3213C18.7168 20.4989 18.86 20.6422 19.0376 20.6422H21.6788C21.8564 20.6422 21.9996 20.4989 21.9996 20.3213C21.9996 20.1437 21.8564 20.0005 21.6788 20.0005Z" fill="#72B756"/>
<path d="M20.7505 21.3582H19.0318C18.8542 21.3582 18.7109 21.5014 18.7109 21.679C18.7109 21.8566 18.8542 21.9998 19.0318 21.9998H20.7505C20.9281 21.9998 21.0714 21.8566 21.0714 21.679C21.0771 21.5014 20.9339 21.3582 20.7505 21.3582Z" fill="#72B756"/>
<path d="M12.5167 4.60036C13.2099 4.73786 13.863 5.01286 14.4531 5.40817C14.6766 5.55713 14.9974 5.52276 15.1865 5.3337L17.6042 2.91599C17.8448 2.67536 17.8219 2.25713 17.5526 2.04515C17.3292 1.87328 17.0943 1.70713 16.8594 1.55245C16.7104 1.45505 16.5099 1.50088 16.4125 1.64984C16.3151 1.7988 16.3609 1.99932 16.5099 2.09672C16.7104 2.22849 16.9109 2.36599 17.1 2.50922L14.7682 4.84099C14.1323 4.42276 13.4333 4.1363 12.6943 3.98161V0.681612C13.6396 0.807654 14.5505 1.07693 15.4099 1.4837C15.5703 1.55817 15.7651 1.48943 15.8396 1.32901C15.9141 1.16859 15.8453 0.9738 15.6849 0.899321C14.7396 0.452446 13.737 0.160258 12.7 0.0342166C12.3562 -0.0116167 12.0469 0.269112 12.0469 0.612862V4.03317C12.0526 4.30245 12.2474 4.54307 12.5167 4.60036Z" fill="#72B756"/>
</svg>
