<?xml version="1.0" encoding="utf-8"?>
<!-- Generator: Adobe Illustrator 26.0.0, SVG Export Plug-In . SVG Version: 6.00 Build 0)  -->
<svg version="1.1" id="Calque_1" xmlns="http://www.w3.org/2000/svg" xmlns:xlink="http://www.w3.org/1999/xlink" x="0px" y="0px"
	 viewBox="0 0 160 160" style="enable-background:new 0 0 160 160;" xml:space="preserve">
<style type="text/css">
	.st0{fill:#FEFEFE;}
</style>
<path class="st0" d="M97.2,89.4l0.1-5l4.1-0.8c0,1.4-0.2,2.7,1.1,3.5c2.6-0.5,1.5-12.2,1.1-14.2c-1.3-5.8-11.6-5.5-14.2-9.9
	c-0.2-0.3-0.1-2.7-0.1-3.3c3.1-3,4-5.4,4-9.7c0.1-4.2-0.1-7.9-1.7-11.8c-3.2-0.2-7.7-0.2-11,0c-3.3,0.7-5.9,1.5-8.1,4.2
	c-0.8,4.1-1.3,11,1.3,14.5c0.7,0.9,1.5,2,2.2,2.9c0.2,4.2-0.3,5-4.7,6.4C60,69.9,61.5,73,61.4,83.7c0,1,0.2,2.6,1.2,3.2
	c1.9-0.3,1.5-3,1.4-4.5c1.3,0.5,2.9,1.1,4.2,1.7l0,5.2c-0.5,0.1-1,0.2-1.4,0.2c-11.7,1.9-0.8,10.1,3.1,13.9
	c-0.5,3.2-1.4,7.1-1.6,10.2c-0.7,10.2,12.4-1.4,14.9-0.7c2,1.1,4,2.1,5.9,3.2c11.1,6.3,7.3-7,6.2-12.9c0.4-0.4,0.8-0.7,1.3-1.1
	C101.7,97.3,109.6,91.3,97.2,89.4z M76.9,43c0.3,0.1,2.2-1.9,3.2-2.4c3.3-0.2,6.7-0.1,10-0.1c0.3,1.4,0.6,3.1,0.8,4.6
	c-3.2,0.8-5.4,1-8.7,0.4l-3-1c-1.7,1.6-2.6,2.7-4.6,3.8C74.5,44.3,74.1,42.5,76.9,43z M74.3,51.1c2-1.2,3.5-1.9,5.1-3.7
	c0.4,0,2.4,0.4,3,0.5c3.1,0.5,5.4,0.4,8.5-0.2c-0.6,5.3,0.3,7.6-4.8,10.9C79.5,60.8,75.8,57.3,74.3,51.1z M78.6,61.1
	c3.7,1,4.2,0.3,7.9,0.3c1,1.4-0.8,2.2,2.9,5.3c-1,1.7-1.5,2.4-3.1,3.6c-4.6,2.6-7.9,0.4-10.3-3.8C78.3,64.8,78.6,64.1,78.6,61.1z
	 M68,81.5L63.7,80c-0.2-9.5,1.5-8.4,9.5-12.2c0.8,0.2,0.7,0.5,1.2,1.2c5.2,7.3,13.3,6.4,16.9-1.4c3.2,1.6,6.7,2.6,9.3,4.9
	c1,2.7,0.8,5.6,0.9,8.4c-1.3,0.3-2.9,0.6-4.2,0.9c0.1-1.3,0.4-3.6-0.4-4.6c-0.8-0.3-0.5-0.3-1.5-0.1c-1.1,1.4-0.6,9.6-0.6,12
	l-4.2-0.5l-1.2-2.4c-1.6-3.4-5.3-13.3-9.8-7c-2,2.8-3.1,6.6-5.1,9.5c-1.3,0.1-2.8,0.3-4.1,0.5c0-2.1,0.6-11-0.6-12.1
	c-1,0-0.7-0.1-1.5,0.3C67.5,78.4,67.9,80.2,68,81.5z M92.9,102.5c0.4,3.4,1.1,6.8,1.6,10.2c0.1,1,0.2,1.7-0.5,2.5
	c-1.6,0.2-8.9-4-10.8-5c-2.2-0.5-8.9,5.4-11.7,5.1c-0.2,0-0.4-0.1-0.5-0.2c-0.6-1,1.4-10.7,1.7-12.5c-2.1-2.2-4.6-4.3-6.8-6.5
	c-0.9-0.9-1.8-1.6-1.5-2.9c1.4-1.5,9.7-2,12.1-2.3c1.8-3.4,4-8.6,6-11.6c1.7,0.4,5.5,9.5,6.7,11.5c2.3,0.5,11.3,0.8,12.1,2.8
	C101,95.1,94.4,101,92.9,102.5z"/>
<path class="st0" d="M110.1,90c3.8,0.6,4.7,4.5,6.2,7.7c11.2,1.3,11.7,2.9,3.3,10.4c0.6,1.9,1.6,6.9,0.8,8.6
	c-1.4,3.1-7.8-1.1-9.8-2.1c-10.1,5.6-10.7,4-8.7-6.5c-1-0.9-2.6-2.1-2.2-3.6l0.5-0.3c1.8,0.1,2.6,1.3,3.8,2.6c0.7,0.9-0.8,7.6-1.1,9
	l7.7-4c2.2,0.9,5.7,2.8,8.1,4c-0.6-2.7-1.1-5.8-1.6-8.5l6.3-6.1c-2.7-0.3-6.1-0.7-8.7-1.3c-1.4-2.3-2.5-5.2-4.1-7.7
	c-0.8,1.6-2.7,6.6-4.5,6.9l-0.3-0.3C105.2,96,107.8,91.4,110.1,90z"/>
<path class="st0" d="M53.8,90c3.9,0,7,7.2,5.4,9.1l-0.5,0c-1.2-0.7-3.4-5.5-4.3-7.1c-0.8,2.2-2.7,5.8-3.7,8
	c-2.8,0.5-5.8,0.9-8.7,1.3c2.1,1.9,4.2,4,6.2,6c-0.5,2.9-1,5.7-1.4,8.6l7.7-3.9c2.2,0.9,5.7,2.9,7.9,4l-1.5-8.5
	c0.9-0.9,3.5-4,4.9-2.7c0,1.6-1.3,2.5-2.5,3.5c3.1,11.6,0,11.2-8.8,6.4c-9.9,5.6-11,4.3-8.7-6.4c-8.2-7.8-8-9,3.4-10.5
	C50.4,94.9,51.6,91.7,53.8,90z"/>
</svg>
