<svg width="19" height="23" viewBox="0 0 19 23" fill="none" xmlns="http://www.w3.org/2000/svg">
<g clip-path="url(#clip0_89_2778)">
<path d="M18.4722 6.29513C18.2982 6.22925 18.1002 6.3131 18.0342 6.4868C17.6143 7.58289 16.7444 8.46336 15.6585 8.90659C15.4845 8.97846 15.4065 9.17612 15.4725 9.34383C15.5385 9.50555 15.7545 9.59539 15.9105 9.52951C17.1643 9.0144 18.1662 7.99018 18.6582 6.72638C18.7362 6.55867 18.6462 6.36102 18.4722 6.29513Z" fill="#72B756"/>
<path d="M14.0384 0C12.0886 0 10.3128 1.15 9.50889 2.9349C9.43089 3.1026 9.50889 3.30625 9.67687 3.37812C9.84485 3.45599 10.0488 3.37812 10.1208 3.21042C10.8107 1.67109 12.3466 0.676823 14.0324 0.676823C16.3962 0.676823 18.316 2.59948 18.316 4.95339C18.316 5.13906 18.4659 5.2888 18.6519 5.2888C18.8379 5.2888 18.9879 5.13906 18.9879 4.95339C18.9999 2.22214 16.7741 0 14.0384 0Z" fill="#72B756"/>
<path d="M1.73457 11.1525H4.01433C4.20031 11.1525 4.35029 11.0028 4.35029 10.8171C4.35029 10.6314 4.20031 10.4817 4.01433 10.4817H1.73457C1.54859 10.4817 1.3986 10.6314 1.3986 10.8171C1.39261 11.0028 1.54859 11.1525 1.73457 11.1525Z" fill="#72B756"/>
<path d="M1.73457 12.6501H4.01433C4.20031 12.6501 4.35029 12.5003 4.35029 12.3147C4.35029 12.129 4.20031 11.9792 4.01433 11.9792H1.73457C1.54859 11.9792 1.3986 12.129 1.3986 12.3147C1.39261 12.4944 1.54859 12.6501 1.73457 12.6501Z" fill="#72B756"/>
<path d="M1.73457 14.1474H2.97644C3.16242 14.1474 3.3124 13.9977 3.3124 13.812C3.3124 13.6263 3.16242 13.4766 2.97644 13.4766H1.73457C1.54859 13.4766 1.3986 13.6263 1.3986 13.812C1.39261 13.9917 1.54859 14.1474 1.73457 14.1474Z" fill="#72B756"/>
<path d="M1.73457 17.9748H4.01433C4.20031 17.9748 4.35029 17.825 4.35029 17.6394C4.35029 17.4537 4.20031 17.304 4.01433 17.304H1.73457C1.54859 17.304 1.3986 17.4537 1.3986 17.6394C1.39261 17.825 1.54859 17.9748 1.73457 17.9748Z" fill="#72B756"/>
<path d="M1.73457 19.4721H4.01433C4.20031 19.4721 4.35029 19.3224 4.35029 19.1367C4.35029 18.951 4.20031 18.8013 4.01433 18.8013H1.73457C1.54859 18.8013 1.3986 18.951 1.3986 19.1367C1.39261 19.3224 1.54859 19.4721 1.73457 19.4721Z" fill="#72B756"/>
<path d="M1.73457 20.9694H4.01433C4.20031 20.9694 4.35029 20.8197 4.35029 20.634C4.35029 20.4483 4.20031 20.2986 4.01433 20.2986H1.73457C1.54859 20.2986 1.3986 20.4483 1.3986 20.634C1.39261 20.8197 1.54859 20.9694 1.73457 20.9694Z" fill="#72B756"/>
<path d="M7.22285 11.1525H12.2023C12.3883 11.1525 12.5383 11.0028 12.5383 10.8171C12.5383 10.6314 12.3883 10.4817 12.2023 10.4817H7.22285C7.03687 10.4817 6.88689 10.6314 6.88689 10.8171C6.88089 11.0028 7.03687 11.1525 7.22285 11.1525Z" fill="#72B756"/>
<path d="M7.22285 8.09784H10.2825C10.4685 8.09784 10.6185 7.9481 10.6185 7.76242C10.6185 7.57674 10.4685 7.427 10.2825 7.427H7.22285C7.03687 7.427 6.88689 7.57674 6.88689 7.76242C6.88089 7.9481 7.03687 8.09784 7.22285 8.09784Z" fill="#72B756"/>
<path d="M7.22285 12.6501H9.82058C10.0066 12.6501 10.1565 12.5003 10.1565 12.3147C10.1565 12.129 10.0066 11.9792 9.82058 11.9792H7.22285C7.03687 11.9792 6.88689 12.129 6.88689 12.3147C6.88089 12.4944 7.03687 12.6501 7.22285 12.6501Z" fill="#72B756"/>
<path d="M7.22285 14.1474H12.2023C12.3883 14.1474 12.5383 13.9977 12.5383 13.812C12.5383 13.6263 12.3883 13.4766 12.2023 13.4766H7.22285C7.03687 13.4766 6.88689 13.6263 6.88689 13.812C6.88089 13.9917 7.03687 14.1474 7.22285 14.1474Z" fill="#72B756"/>
<path d="M12.2036 17.304H8.75393C8.56795 17.304 8.41797 17.4537 8.41797 17.6394C8.41797 17.825 8.56795 17.9748 8.75393 17.9748H12.2036C12.3896 17.9748 12.5395 17.825 12.5395 17.6394C12.5395 17.4537 12.3896 17.304 12.2036 17.304Z" fill="#72B756"/>
<path d="M8.75393 18.8013C8.56795 18.8013 8.41797 18.951 8.41797 19.1367C8.41797 19.3224 8.56795 19.4721 8.75393 19.4721H9.82182C10.0078 19.4721 10.1578 19.3224 10.1578 19.1367C10.1578 18.951 10.0078 18.8013 9.82182 18.8013H8.75393Z" fill="#72B756"/>
<path d="M9.82182 20.2986H8.75393C8.56795 20.2986 8.41797 20.4483 8.41797 20.634C8.41797 20.8197 8.56795 20.9694 8.75393 20.9694H9.82182C10.0078 20.9694 10.1578 20.8197 10.1578 20.634C10.1578 20.4483 10.0078 20.2986 9.82182 20.2986Z" fill="#72B756"/>
<path d="M7.22285 15.6747H10.8525C11.0384 15.6747 11.1884 15.525 11.1884 15.3393C11.1884 15.1536 11.0384 15.0039 10.8525 15.0039H7.22285C7.03687 15.0039 6.88689 15.1536 6.88689 15.3393C6.88089 15.519 7.03687 15.6747 7.22285 15.6747Z" fill="#72B756"/>
<path d="M7.53426 17.5136C7.46227 17.3339 7.24629 17.256 7.07231 17.3399C6.91033 17.4178 6.83834 17.6274 6.91633 17.7891C6.99432 17.9508 7.1923 18.0227 7.36028 17.9508C7.52226 17.873 7.60026 17.6753 7.53426 17.5136Z" fill="#72B756"/>
<path d="M7.15713 18.8074C6.97115 18.8434 6.85116 19.035 6.89315 19.2147C6.93515 19.3944 7.12113 19.5082 7.30111 19.4663C7.48109 19.4243 7.59508 19.2387 7.54708 19.059C7.50509 18.8853 7.33111 18.7715 7.15713 18.8074Z" fill="#72B756"/>
<path d="M7.53558 20.5082C7.46959 20.3405 7.27161 20.2567 7.10363 20.3225C6.92965 20.3884 6.83966 20.5921 6.91165 20.7658C6.98364 20.9335 7.18162 21.0173 7.3496 20.9455C7.51759 20.8736 7.60758 20.6759 7.53558 20.5082Z" fill="#72B756"/>
<path d="M17.5661 4.95327C17.5661 4.41421 17.4462 3.8991 17.2122 3.41395C17.1282 3.24624 16.9302 3.17437 16.7622 3.25822C16.5943 3.34207 16.5223 3.53973 16.6063 3.70744C16.7982 4.09676 16.8942 4.51603 16.8942 4.95327C16.8942 6.52254 15.6164 7.80431 14.0385 7.80431C12.4667 7.80431 11.1828 6.52853 11.1828 4.95327C11.1828 3.384 12.4607 2.10223 14.0385 2.10223C14.7045 2.10223 15.3584 2.33582 15.8683 2.76707C16.0123 2.88687 16.2223 2.8689 16.3423 2.72515C16.4623 2.5814 16.4443 2.37176 16.3003 2.25197C15.6644 1.72489 14.8604 1.4314 14.0385 1.4314C12.3707 1.4314 10.9668 2.59338 10.6009 4.15067H0.47395C0.215977 4.15067 0 4.3603 0 4.62384V19.2264C0 19.4121 0.149984 19.5619 0.335965 19.5619C0.521945 19.5619 0.671929 19.4121 0.671929 19.2264V9.06811H5.06347V22.3231H0.671929V20.5681C0.671929 20.3824 0.521945 20.2327 0.335965 20.2327C0.149984 20.2327 0 20.3824 0 20.5681V22.5207C0 22.7783 0.209978 22.9939 0.47395 22.9939H11.0088C11.1588 22.9939 11.3028 22.934 11.4048 22.8322C12.3647 21.8738 13.3186 20.9215 14.2785 19.9632C14.3865 19.8554 14.4405 19.7176 14.4405 19.5679V8.45119C16.1983 8.25353 17.5661 6.76213 17.5661 4.95327ZM1.82981 8.39728C1.9318 8.07983 2.17777 7.81629 2.50774 7.70249C2.8377 7.5827 2.8917 7.12749 2.59773 6.94181C2.26776 6.73218 2.27976 6.23504 2.61572 6.04338C2.71771 5.98348 2.93369 5.9116 3.21566 6.07931C3.52763 6.26499 3.41964 6.78009 3.15567 6.9478C2.8557 7.13348 2.91569 7.59468 3.24566 7.70848C3.57562 7.82228 3.8216 8.08582 3.92359 8.40327H1.82981V8.39728ZM4.61351 8.39728C4.51752 7.91811 4.22955 7.49884 3.8156 7.2353C4.21756 6.73218 4.13356 5.83374 3.55763 5.49233C3.14967 5.24676 2.66972 5.22879 2.27976 5.45041C1.65583 5.80379 1.47584 6.66629 1.9258 7.2353C1.51184 7.49285 1.22387 7.91811 1.12788 8.39728H0.671929V4.82749H5.06347V8.39728H4.61351ZM5.74139 4.82749H10.5109C10.4989 5.18687 10.5409 5.55223 10.6369 5.89963H7.21724C7.03126 5.89963 6.88128 6.04937 6.88128 6.23504C6.88128 6.42072 7.03126 6.57046 7.21724 6.57046H10.9009C11.4468 7.62463 12.5147 8.36733 13.7626 8.46317V19.3223H11.5428C11.1108 19.3223 10.7569 19.6757 10.7569 20.1069V22.3231H5.74139V4.82749ZM11.4348 21.8499V20.1129C11.4348 20.053 11.4828 19.9991 11.5488 19.9991H13.2886L11.4348 21.8499Z" fill="#72B756"/>
<path d="M15.3469 3.82734L13.5711 5.60026L12.7371 4.76771C12.6052 4.63594 12.3892 4.63594 12.2572 4.76771C12.1252 4.89948 12.1252 5.1151 12.2572 5.24687L13.1091 6.0974C13.3611 6.34896 13.781 6.34896 14.033 6.0974L15.8268 4.30651C15.9588 4.17474 15.9588 3.95911 15.8268 3.82734C15.6888 3.69557 15.4789 3.69557 15.3469 3.82734Z" fill="#72B756"/>
</g>
<defs>
<clipPath id="clip0_89_2778">
<rect width="19" height="23" fill="white"/>
</clipPath>
</defs>
</svg>
