<svg width="21" height="25" viewBox="0 0 21 25" fill="none" xmlns="http://www.w3.org/2000/svg">
<path d="M14.6742 24.3896C14.8499 24.2309 15.057 24.0912 15.2014 23.907C15.6471 23.3546 16.0802 22.7895 16.507 22.2243C16.6451 22.0465 16.802 21.9704 17.0217 21.9576C17.8064 21.9069 18.5847 21.8434 19.3693 21.7735C19.9092 21.7227 20.1791 21.1766 19.9154 20.6686C19.2689 19.4114 18.6161 18.1541 17.9633 16.8968C17.9193 16.8143 17.8754 16.7318 17.8315 16.6365C18.0198 16.4905 18.2081 16.3444 18.3901 16.1984C19.0429 15.6713 19.3819 14.9856 19.3819 14.1347C19.3819 13.2965 19.5702 12.5091 19.997 11.7726C20.5557 10.8137 20.5557 9.83586 19.997 8.88339C19.5702 8.16586 19.3944 7.39118 19.3882 6.57206C19.3819 5.47354 18.9048 4.65441 17.9633 4.12103C17.2728 3.73369 16.7393 3.19396 16.3564 2.49548C15.8166 1.5176 14.9817 1.02232 13.8707 1.03502C13.13 1.04772 12.4521 0.844525 11.793 0.520685C11.3913 0.317491 10.9582 0.171445 10.5439 0C10.3242 0 10.1045 0 9.88482 0C9.33245 0.234943 8.78008 0.463536 8.23398 0.717529C7.73182 0.946122 7.19828 1.01597 6.65846 1.04137C6.38227 1.05407 6.10609 1.07312 5.84245 1.12392C5.24614 1.23821 4.76909 1.5557 4.39875 2.03194C4.24183 2.24148 4.09745 2.45738 3.96564 2.67962C3.63923 3.2384 3.20612 3.68289 2.64747 4.00673C2.46544 4.11468 2.28968 4.23532 2.11393 4.35597C1.41719 4.86396 1.04684 5.56244 1.04057 6.41966C1.03429 7.34038 0.839705 8.18491 0.37521 8.98498C-0.139502 9.86761 -0.108118 10.782 0.368933 11.6837C0.45681 11.8487 0.544685 12.0202 0.632565 12.1853C0.915028 12.725 1.02801 13.3092 1.00918 13.9061C0.977797 15.0427 1.46112 15.8872 2.40267 16.4841C2.45916 16.5222 2.51566 16.5667 2.5847 16.6238C2.37756 17.0238 2.17042 17.4239 1.96956 17.8239C1.83774 18.0843 1.94445 18.3256 2.20808 18.37C2.39639 18.4018 2.51566 18.3129 2.60353 18.1414C2.79184 17.7668 2.98643 17.3985 3.2124 16.973C3.38188 17.1699 3.54508 17.3286 3.67062 17.5128C3.85893 17.7858 4.02213 18.0779 4.19789 18.3573C4.73143 19.1891 5.49722 19.5892 6.47015 19.6146C6.8656 19.6273 7.26733 19.6654 7.66278 19.6971C7.74438 19.7035 7.82598 19.7416 7.93268 19.7733C7.26105 21.0687 6.60197 22.3386 5.92405 23.6467C5.74202 23.4118 5.57254 23.2022 5.41562 22.999C5.08294 22.5672 4.74398 22.1418 4.41758 21.7037C4.17905 21.3925 3.87148 21.2528 3.48859 21.2274C2.71024 21.1766 1.92562 21.1068 1.10334 21.0433C1.29792 20.6686 1.48623 20.3194 1.64944 19.9638C1.69965 19.8559 1.73731 19.7035 1.69965 19.6146C1.65571 19.513 1.51762 19.405 1.40463 19.3923C1.31048 19.3796 1.14728 19.4558 1.09706 19.5447C0.858536 19.9575 0.632565 20.3702 0.444254 20.8083C0.262222 21.2211 0.576073 21.7164 1.02174 21.7545C1.81891 21.8243 2.61609 21.8878 3.41326 21.945C3.6204 21.9576 3.76477 22.0275 3.89031 22.1926C4.3297 22.7704 4.76909 23.3483 5.22731 23.9134C5.37168 24.0912 5.57254 24.2245 5.74202 24.3769C5.86756 24.3769 5.9931 24.3769 6.11864 24.3769C6.38855 24.2499 6.5392 24.0277 6.67101 23.7673C7.25477 22.6244 7.84481 21.4941 8.43484 20.3575C8.4725 20.2813 8.51644 20.2115 8.57294 20.1099C9.67141 20.821 10.7636 20.8147 11.8558 20.1099C11.9186 20.2178 11.9625 20.294 12.0002 20.3702C12.5965 21.5195 13.1991 22.6688 13.7891 23.8245C13.9209 24.0848 14.0841 24.2817 14.3603 24.3833C14.4545 24.3896 14.5674 24.3896 14.6742 24.3896ZM0.632565 10.3502C0.758102 9.98825 0.820873 9.61996 0.990353 9.32152C1.50506 8.4389 1.73731 7.50548 1.73103 6.48316C1.72476 5.82278 2.0135 5.28939 2.5596 4.9084C2.69769 4.81316 2.82951 4.71791 2.9676 4.62901C3.68945 4.19088 4.27321 3.62574 4.66866 2.86377C5.07038 2.10179 5.71064 1.73985 6.57058 1.7462C6.9472 1.7462 7.33637 1.7335 7.68788 1.6319C8.15866 1.49856 8.62315 1.30806 9.04998 1.07312C9.78439 0.66673 10.5 0.609582 11.2406 1.02232C11.4478 1.13662 11.6612 1.23821 11.8683 1.33981C12.427 1.6192 13.017 1.75255 13.6385 1.75255C13.8393 1.75255 14.0465 1.7589 14.2473 1.7843C14.9566 1.86684 15.4211 2.29228 15.7538 2.88916C16.1744 3.64479 16.7393 4.26072 17.4988 4.67981C18.3148 5.1243 18.7228 5.79738 18.6977 6.74985C18.6789 7.60707 18.8923 8.4135 19.3379 9.15008C19.8213 9.94381 19.8213 10.7312 19.3379 11.5249C18.9048 12.2488 18.6726 13.0362 18.6977 13.8743C18.7291 14.8713 18.3085 15.5761 17.4423 16.0269C17.3984 16.046 17.3607 16.0777 17.323 16.1031C16.7518 16.4587 16.2873 16.9159 15.9295 17.4937C15.8291 17.6652 15.7224 17.8303 15.6157 17.9954C15.2767 18.5287 14.7934 18.8335 14.1657 18.8907C13.9774 18.9097 13.7891 18.9097 13.6008 18.9161C12.8789 18.9224 12.2073 19.1002 11.5796 19.4622C11.3536 19.5892 11.1214 19.7098 10.8954 19.8241C10.4121 20.0654 9.92876 20.0654 9.45171 19.7987C9.35128 19.7416 9.23829 19.6908 9.14414 19.6273C8.34069 19.1193 7.46819 18.8907 6.52664 18.9034C5.72947 18.9161 5.10805 18.5859 4.71887 17.8747C4.24182 17.0111 3.58274 16.3508 2.73535 15.8682C2.05744 15.4808 1.71848 14.8776 1.72476 14.0839C1.73731 13.1251 1.50506 12.2424 1.02802 11.4043C0.839705 11.0995 0.76438 10.7185 0.632565 10.3502ZM14.4921 23.6721C13.8142 22.3704 13.1551 21.0877 12.4835 19.7924C12.5902 19.7606 12.6655 19.7225 12.7408 19.7162C13.13 19.6844 13.5192 19.64 13.9084 19.6336C14.919 19.6146 15.7036 19.1955 16.2497 18.3256C16.4192 18.0589 16.5698 17.7795 16.7518 17.5191C16.8774 17.3413 17.0406 17.1826 17.2101 16.9921C17.9256 18.37 18.6098 19.6971 19.3128 21.0433C19.1685 21.0623 19.0555 21.075 18.9362 21.0877C18.3085 21.1385 17.6871 21.2084 17.0594 21.2274C16.5447 21.2465 16.1744 21.456 15.8731 21.8751C15.4462 22.4783 14.9754 23.0562 14.4921 23.6721Z" fill="#8DC477"/>
<path d="M3.25561 10.3118C3.28072 13.836 5.81662 16.795 9.23757 17.2839C12.7966 17.7919 16.092 15.5123 16.9331 11.9374C17.429 9.82923 17.0461 7.89889 15.7656 6.15269C15.6338 5.97489 15.4957 5.8606 15.2697 5.97489C15.0438 6.08919 15.0061 6.31778 15.1756 6.55273C15.5459 7.06071 15.8409 7.6068 16.0606 8.19733C17.1717 11.169 15.797 15.7917 11.1772 16.5219C8.65381 16.922 6.14302 15.8171 4.92529 13.6899C2.50865 9.47364 4.95667 4.93987 9.18107 4.14615C10.8633 3.82866 12.4012 4.19695 13.7946 5.19387C14.0457 5.37166 14.2027 5.37166 14.3533 5.19387C14.5102 5.00972 14.4663 4.80653 14.234 4.62873C13.4369 4.0382 12.5581 3.64451 11.5914 3.44132C8.15165 2.73649 4.55494 4.90813 3.5569 8.31163C3.46275 8.62277 3.3937 8.94026 3.34977 9.2641C3.29327 9.61334 3.28072 9.96258 3.25561 10.3118Z" fill="#8DC477"/>
<path d="M11.5102 11.3533C10.2611 10.0833 9.04338 8.85144 7.82564 7.61323C7.50552 7.28304 7.1289 7.14969 6.69579 7.27034C5.89861 7.47988 5.61615 8.47045 6.16852 9.09909C6.36939 9.32133 6.5828 9.53087 6.79622 9.74042C8.07045 11.0294 9.34467 12.3184 10.6252 13.6075C11.2027 14.1916 11.8304 14.1916 12.4141 13.6075C13.0669 12.9471 13.726 12.2867 14.3788 11.62C14.7052 11.2834 14.7994 10.8834 14.655 10.4389C14.5043 10.0008 14.1842 9.75312 13.7323 9.69597C13.3682 9.65152 13.0544 9.78487 12.797 10.0452C12.3702 10.477 11.9496 10.9024 11.5102 11.3533ZM11.504 13.3725C11.3721 13.2773 11.234 13.2138 11.1336 13.1122C10.1418 12.1152 9.15636 11.1183 8.17088 10.1214C7.70638 9.65152 7.23561 9.18163 6.77111 8.7054C6.62674 8.55935 6.52003 8.39426 6.62674 8.17836C6.76484 7.89897 7.07868 7.87357 7.32976 8.12757C8.60399 9.41023 9.87194 10.6992 11.1399 11.9819C11.4475 12.293 11.573 12.2867 11.8806 11.9756C12.3388 11.512 12.8033 11.0421 13.2615 10.5786C13.4749 10.3627 13.7134 10.35 13.8829 10.5341C14.0524 10.7119 14.0398 10.9342 13.8264 11.1437C13.1611 11.8168 12.4957 12.4962 11.8241 13.163C11.755 13.2455 11.6358 13.2963 11.504 13.3725Z" fill="#8DC477"/>
<path d="M10.2064 18.103C10.0118 18.103 9.8737 18.2424 9.86743 18.4516C9.86115 18.667 10.0055 18.8191 10.2127 18.8128C10.4072 18.8064 10.5391 18.6607 10.5391 18.4579C10.5391 18.2488 10.401 18.1094 10.2064 18.103Z" fill="#8DC477"/>
<path d="M14.2088 17.0178C14.0142 17.0241 13.8636 17.1889 13.8762 17.398C13.8887 17.5944 14.0331 17.7339 14.2277 17.7275C14.4285 17.7212 14.5666 17.5628 14.5603 17.3536C14.5478 17.1509 14.3971 17.0114 14.2088 17.0178Z" fill="#8DC477"/>
<path d="M6.18766 17.721C6.38852 17.721 6.53917 17.5625 6.52661 17.3598C6.52034 17.1633 6.37597 17.0176 6.18766 17.0112C5.99307 17.0112 5.84242 17.1697 5.8487 17.3788C5.85498 17.5879 5.99307 17.721 6.18766 17.721Z" fill="#8DC477"/>
<path d="M2.90588 6.27235C2.90588 6.47513 3.03769 6.62087 3.23855 6.62721C3.43942 6.63355 3.57751 6.50047 3.58379 6.29136C3.59006 6.0759 3.44569 5.91748 3.24483 5.91748C3.05025 5.91748 2.90588 6.06957 2.90588 6.27235Z" fill="#8DC477"/>
<path d="M6.19466 2.95215C5.9938 2.95215 5.85571 3.08522 5.84943 3.29434C5.84315 3.50346 6.00008 3.66822 6.19466 3.66188C6.38297 3.65554 6.52734 3.50346 6.52734 3.30701C6.52734 3.0979 6.38925 2.95215 6.19466 2.95215Z" fill="#8DC477"/>
<path d="M16.8262 6.27888C16.8262 6.488 16.9643 6.62741 17.1589 6.62741C17.366 6.62741 17.5041 6.47532 17.4978 6.25987C17.4916 6.05709 17.3409 5.91134 17.1463 5.91768C16.958 5.92402 16.8199 6.0761 16.8262 6.27888Z" fill="#8DC477"/>
<path d="M17.8983 10.3497C17.9045 10.5525 18.0426 10.6919 18.2435 10.6919C18.4381 10.6855 18.5762 10.5461 18.5762 10.3433C18.5762 10.1342 18.4192 9.98214 18.2184 9.98847C18.0238 9.99481 17.892 10.1469 17.8983 10.3497Z" fill="#8DC477"/>
<path d="M1.82286 10.3241C1.81658 10.5269 1.95468 10.679 2.14926 10.6853C2.35013 10.6917 2.4945 10.5586 2.50705 10.3558C2.51961 10.1467 2.37524 9.98192 2.17437 9.97559C1.97979 9.97559 1.82914 10.1213 1.82286 10.3241Z" fill="#8DC477"/>
<path d="M17.1497 14.0456C16.9488 14.052 16.8233 14.1914 16.8296 14.4068C16.8358 14.6096 16.9739 14.7554 17.1685 14.7554C17.3694 14.7554 17.5137 14.5906 17.5012 14.3751C17.4949 14.1724 17.3505 14.0393 17.1497 14.0456Z" fill="#8DC477"/>
<path d="M3.25131 14.0459C3.05044 14.0459 2.91235 14.179 2.90607 14.3818C2.8998 14.5909 3.05044 14.7556 3.25131 14.7493C3.44589 14.743 3.58398 14.5972 3.58398 14.3944C3.58398 14.1853 3.45217 14.0522 3.25131 14.0459Z" fill="#8DC477"/>
<path d="M13.8762 3.30722C13.8762 3.50366 14.0268 3.66209 14.2151 3.66209C14.416 3.66209 14.5666 3.49733 14.5604 3.28821C14.5541 3.08543 14.4097 2.94602 14.2088 2.95236C14.0143 2.95869 13.8762 3.10444 13.8762 3.30722Z" fill="#8DC477"/>
<path d="M10.1995 1.86084C9.99863 1.86718 9.86681 2.00659 9.87309 2.21571C9.87309 2.41849 10.0112 2.57057 10.2058 2.57057C10.4066 2.57691 10.551 2.41849 10.5447 2.20303C10.5322 1.99391 10.4004 1.86084 10.1995 1.86084Z" fill="#8DC477"/>
</svg>
