<svg width="35" height="34" viewBox="0 0 35 34" fill="none" xmlns="http://www.w3.org/2000/svg">
<g clip-path="url(#clip0_87_859)">
<path d="M6.19961 15.6C5.99961 15.4 5.69961 15.4 5.49961 15.6C5.29961 15.8 5.29961 16.1 5.49961 16.3C5.89961 16.6999 5.99961 17.3 5.99961 17.3C5.99961 17.6 6.29961 17.7 6.49961 17.7C6.49961 17.7 6.49961 17.7 6.59961 17.7C6.89961 17.7 7.09961 17.4 6.99961 17.1C6.99961 17.1 6.89961 16.2 6.19961 15.6Z" fill="#6034C4"/>
<path d="M10.5002 16.3C10.4002 16.5 10.5002 16.9 10.7002 17C11.1002 17.2 11.6002 17.4 12.1002 17.4C12.6002 17.4 13.0002 17.3 13.5002 17C13.7002 16.9 13.8002 16.6 13.7002 16.3C13.6002 16.1 13.3002 16 13.0002 16.1C12.5002 16.4 11.8002 16.4 11.3002 16.1C10.9002 15.9 10.6002 16 10.5002 16.3Z" fill="#6034C4"/>
<path d="M34.2 15.9L33.4 12.6C33.3 12.4 33.1 12.2 32.9 12.2H26.1C26.1 12 26.1 11.7 26.1 11.5C26.1 11.2 26.1 10.8 26.1 10.4C26 8.69996 25.4 6.99996 24.2 5.69996C23.1 4.39996 21.5 3.49996 19.9 3.19996C19.6 3.09996 19.4 3.29996 19.3 3.59996C19.2 3.89996 19.4 4.09996 19.7 4.19996C22.7 4.79996 24.9 7.39996 25.1 10.5C25.1 10.8 25.1 11.1 25.1 11.4C25.1 11.7 25.1 11.9 25 12.2H17.1C16.9 12.2 16.7 12.4 16.6 12.6L16 15.4C15.6 14.5 15.4 13.5 15.4 12.5C15.4 12.1 15.4 11.6 15.5 11.2C15.5 11 15.4 10.8 15.2 10.7C15 10.6 14.8 10.6 14.6 10.8C13.9 11.5 13 11.8 12.1 11.8C12 11.8 12 11.8 11.9 11.8C11.6 11.8 11.4 12 11.4 12.3C11.4 12.6 11.6 12.8 11.9 12.8C12 12.8 12.1 12.8 12.2 12.8C13 12.8 13.7 12.6 14.4 12.2C14.4 12.3 14.4 12.4 14.4 12.5C14.4 14.1 14.9 15.6 15.7 16.9C15.5 18.1 15.5 19.2 15.7 20.4C15.1 20.3 14.6 20.4 14 20.7C13.8 20.8 13.7 21.1 13.8 21.4C13.9 21.6 14.2 21.7 14.5 21.6C14.9 21.4 15.5 21.3 15.9 21.5C16 22 16.2 22.5 16.4 23C16.7 23.6 17 24.3 17.5 24.8C17.4 24.8 17.2 24.9 17.1 24.9C16.9 25 16.7 25.2 16.7 25.4V26.6C16.7 27 16.5 27.4 16.2 27.8C15.9 28.1 15.5 28.3 15 28.3C14.1 28.3 13.4 27.6 13.4 26.7V25.5C13.4 25.3 13.2 25.1 13 25C12.6 24.9 12.3 24.8 12 24.6C9.7 23.6 8.1 21.4 7.7 18.9C7.7 18.7 7.5 18.5 7.3 18.5C7.1 18.4 6.9 18.5 6.8 18.7C6.6 18.9 6.3 19.2 5.8 19.2C4.9 19.2 4.2 18.1 4.2 16.8C4.2 15.5 4.9 14.4 5.8 14.4C6.2 14.4 6.6 14.7 6.8 14.9C7 15 7.2 15 7.4 14.9C7.6 14.8 7.7 14.6 7.7 14.4V14.2C7.7 13.1 8 12 8.4 11C8.7 11.3 9 11.6 9.3 11.9C9.5 12.1 9.8 12 10 11.8C10.2 11.6 10.1 11.3 9.9 11.1C9.4 10.8 9.1 10.3 8.8 9.79996C8.8 9.69996 8.7 9.59997 8.5 9.59997C8.3 9.59997 8.1 9.69996 8 9.79996C7.3 10.9 6.9 12.2 6.8 13.5C6.5 13.4 6.2 13.3 5.9 13.3C4.4 13.3 3.3 14.8 3.3 16.7C3.3 18.6 4.5 20.1 5.9 20.1C6.3 20.1 6.6 20 7 19.8C7.3 20.9 7.8 21.9 8.4 22.8C8.9 23.4 9.4 24 10 24.4H5.2C3.8 24.4 2.5 23.7 1.7 22.6C0.9 21.4 0.7 20 1.2 18.7L2.4 15.5C3.6 12.4 4.2 9.09996 4.4 5.59996C4.4 5.59996 4.4 5.59996 4.4 5.49996C4.5 4.29996 5 3.09996 5.8 2.29996C6.7 1.39996 7.8 0.899965 9 0.799965C11.4 0.699965 13.6 2.29996 14.1 4.59996C14.1 4.79996 14.2 4.89996 14.4 4.99996C14.6 5.09996 14.7 4.99996 14.9 4.99996C15.7 4.49996 16.5 4.19996 17.5 4.09996C17.8 4.09996 18 3.79996 17.9 3.49996C17.9 3.19996 17.6 2.99996 17.3 3.09996C16.5 3.19996 15.7 3.49996 14.9 3.79996C14 1.29996 11.6 -0.300035 8.9 -0.200035C7.6 0.0999646 6.2 0.699964 5.2 1.79996C4.2 2.89996 3.5 4.19996 3.5 5.69996V5.79996C3.4 9.19996 2.7 12.4 1.6 15.3L0.4 18.5C-0.2 20.1 0 21.9 1 23.3C2 24.7 3.6 25.6 5.3 25.6H11.8C12 25.7 12.3 25.8 12.5 25.9V26.7C12.5 26.8 12.5 26.8 12.5 26.9C9.9 28 8.1 30.5 8.1 33.4C8.1 33.7 8.3 33.9 8.6 33.9H21.6C21.9 33.9 22.1 33.7 22.1 33.4C22.1 31.5 21.4 29.8 20 28.4C19.3 27.7 18.5 27.2 17.7 26.9C17.7 26.8 17.7 26.8 17.7 26.7V25.9C17.8 25.9 17.9 25.8 18.1 25.8C19 26.8 20.1 27.7 21.3 28.3L22.8 29.1C22.6 29.4 22.5 29.7 22.5 30.1V33.5C22.5 33.8 22.7 34 23 34H27C27.3 34 27.5 33.8 27.5 33.5V30C27.5 29.6 27.4 29.3 27.2 29L28.7 28.2C29.3 27.9 29.9 27.5 30.5 27C30.7 26.8 30.8 26.5 30.6 26.3C30.4 26.1 30.1 26 29.9 26.2C29.4 26.6 28.9 27 28.3 27.3L26.3 28.3C26.2 28.3 26 28.2 25.9 28.2H24.3C24.1 28.2 24 28.2 23.9 28.3L21.9 27.3C20 26.3 18.4 24.6 17.5 22.6C16.6 20.6 16.4 18.3 16.9 16.2L17.6 13.3H32.5L33.2 16.2C33.6 17.7 33.6 19.2 33.3 20.7C33 22.1 32.3 23.5 31.4 24.7C31.2 24.9 31.3 25.2 31.5 25.4C31.7 25.6 32 25.5 32.2 25.3C33.2 24 33.9 22.5 34.3 20.9C34.7 19.3 34.6 17.5 34.2 15.9ZM19.4 29.1C20.4 30.1 21 31.4 21.1 32.8H9.1C9.3 30.6 10.7 28.7 12.7 27.8C13.1 28.7 14 29.3 15.1 29.3C15.8 29.3 16.5 29 17 28.5C17.2 28.3 17.4 28 17.5 27.8C18.2 28.1 18.8 28.5 19.4 29.1ZM25.9 29.3C26.3 29.3 26.6 29.6 26.6 30V32.9H23.6V30C23.6 29.6 23.9 29.3 24.3 29.3H25.9Z" fill="#6034C4"/>
<path d="M24.4 18.9999C24.4 17.2999 23 15.7999 21.2 15.7999C19.4 15.7999 18 17.1999 18 18.9999C18 19.2999 18.2 19.4999 18.5 19.4999H23.8C24.2 19.4999 24.4 19.1999 24.4 18.9999ZM19.1 18.3999C19.3 17.4999 20.2 16.7999 21.2 16.7999C22.2 16.7999 23.1 17.4999 23.3 18.3999H19.1Z" fill="#6034C4"/>
<path d="M32.4996 18.9999C32.4996 17.2999 31.0996 15.7999 29.2996 15.7999C27.5996 15.7999 26.0996 17.1999 26.0996 18.9999C26.0996 19.2999 26.2996 19.4999 26.5996 19.4999H31.9996C32.2996 19.4999 32.4996 19.1999 32.4996 18.9999ZM27.1996 18.3999C27.3996 17.4999 28.2996 16.7999 29.2996 16.7999C30.2996 16.7999 31.1996 17.4999 31.3996 18.3999H27.1996Z" fill="#6034C4"/>
<path d="M25.0008 24.9999C27.0008 24.9999 28.7008 23.2999 28.7008 21.2999C28.7008 20.9999 28.5008 20.7999 28.2008 20.7999C27.9008 20.7999 27.7008 20.9999 27.7008 21.2999C27.7008 22.7999 26.5008 23.9999 25.0008 23.9999C23.5008 23.9999 22.3008 22.7999 22.3008 21.2999C22.3008 20.9999 22.1008 20.7999 21.8008 20.7999C21.5008 20.7999 21.3008 20.9999 21.3008 21.2999C21.3008 23.3999 23.0008 24.9999 25.0008 24.9999Z" fill="#6034C4"/>
</g>
<defs>
<clipPath id="clip0_87_859">
<rect width="34.6" height="33.8" fill="white"/>
</clipPath>
</defs>
</svg>
