<svg width="105" height="105" viewBox="0 0 105 105" fill="none" xmlns="http://www.w3.org/2000/svg">
<g clip-path="url(#clip0_99_1990)">
<path d="M0 52.4998C0 58.9217 1.15521 65.0732 3.26546 70.7606L52.5 75.3259L101.735 70.7606C103.845 65.0732 105 58.9217 105 52.4998C105 46.078 103.845 39.9265 101.735 34.2391L52.5 29.6738L3.26546 34.2391C1.15521 39.9265 0 46.078 0 52.4998H0Z" fill="#FFDA44"/>
<path d="M101.735 34.2392C94.3168 14.2474 75.0733 0 52.5002 0C29.927 0 10.6835 14.2474 3.26562 34.2392H101.735Z" fill="#D80027"/>
<path d="M3.26562 70.7607C10.6835 90.7526 29.927 105 52.5002 105C75.0733 105 94.3168 90.7526 101.735 70.7607H3.26562Z" fill="#D80027"/>
</g>
<defs>
<clipPath id="clip0_99_1990">
<rect width="105" height="105" fill="white"/>
</clipPath>
</defs>
</svg>
