<?xml version="1.0" encoding="UTF-8"?>
<svg version="1.1" xmlns="http://www.w3.org/2000/svg" width="126" height="124">
<path d="M0 0 C1.24233398 -0.02416992 1.24233398 -0.02416992 2.50976562 -0.04882812 C3.69795898 -0.04979492 3.69795898 -0.04979492 4.91015625 -0.05078125 C5.63468994 -0.05376221 6.35922363 -0.05674316 7.10571289 -0.05981445 C8.9375 0.3125 8.9375 0.3125 10.9375 3.3125 C10.5625 6 10.5625 6 9.9375 8.3125 C8.9475 8.6425 7.9575 8.9725 6.9375 9.3125 C6.9375 9.9725 6.9375 10.6325 6.9375 11.3125 C8.030625 11.35375 9.12375 11.395 10.25 11.4375 C15.31589158 12.03455151 19.17492471 14.38833735 23.51953125 16.9375 C25.95584317 18.42642888 25.95584317 18.42642888 28.9375 19.3125 C28.999375 18.590625 29.06125 17.86875 29.125 17.125 C30.18206647 13.46592375 32.14300071 11.82038398 34.9375 9.3125 C38.30045835 10.75376786 40.56677102 12.51842655 42.9375 15.3125 C42.9375 16.3025 42.9375 17.2925 42.9375 18.3125 C37.82122093 23.3125 37.82122093 23.3125 32.9375 23.3125 C34.79661344 28.19828603 37.18250516 32.74546832 39.59765625 37.375 C43.72255135 46.41850178 43.19040937 58.76916965 39.921875 68.03515625 C34.87589056 79.7090012 27.5521635 88.80607801 15.4921875 93.71484375 C6.32868875 96.54445161 -2.97855798 98.24069115 -12.0625 94.3125 C-12.0625 93.3225 -12.0625 92.3325 -12.0625 91.3125 C-9.0925 91.3125 -6.1225 91.3125 -3.0625 91.3125 C-2.7325 89.9925 -2.4025 88.6725 -2.0625 87.3125 C-0.7425 87.6425 0.5775 87.9725 1.9375 88.3125 C1.9375 89.3025 1.9375 90.2925 1.9375 91.3125 C2.52917969 91.17972656 3.12085937 91.04695313 3.73046875 90.91015625 C7.79196525 90.00244822 11.85124171 89.1033887 15.9375 88.3125 C15.6075 86.6625 15.2775 85.0125 14.9375 83.3125 C16.8125 82.6875 16.8125 82.6875 18.9375 82.3125 C19.5975 82.9725 20.2575 83.6325 20.9375 84.3125 C24.91819267 81.43755529 27.37321997 78.49132671 29.9375 74.3125 C29.2775 72.9925 28.6175 71.6725 27.9375 70.3125 C30.9375 68.3125 30.9375 68.3125 33.9375 68.3125 C35.52005197 63.98685795 36.38894652 59.883779 36.9375 55.3125 C35.9475 55.3125 34.9575 55.3125 33.9375 55.3125 C33.6075 54.3225 33.2775 53.3325 32.9375 52.3125 C33.4325 51.3225 33.4325 51.3225 33.9375 50.3125 C34.9275 50.3125 35.9175 50.3125 36.9375 50.3125 C35.9475 46.0225 34.9575 41.7325 33.9375 37.3125 C32.2875 37.3125 30.6375 37.3125 28.9375 37.3125 C28.3125 35.4375 28.3125 35.4375 27.9375 33.3125 C28.5975 32.6525 29.2575 31.9925 29.9375 31.3125 C28.86869777 29.96749045 27.78187492 28.63678562 26.6875 27.3125 C26.08421875 26.57 25.4809375 25.8275 24.859375 25.0625 C22.87777788 22.86365267 22.87777788 22.86365267 18.9375 23.3125 C17.9475 23.3125 16.9575 23.3125 15.9375 23.3125 C15.6075 22.3225 15.2775 21.3325 14.9375 20.3125 C15.2675 19.6525 15.5975 18.9925 15.9375 18.3125 C15.17824219 18.10753906 14.41898438 17.90257813 13.63671875 17.69140625 C12.64285156 17.42199219 11.64898437 17.15257813 10.625 16.875 C9.63886719 16.60816406 8.65273437 16.34132813 7.63671875 16.06640625 C5.72232474 15.53170575 3.82316385 14.94105462 1.9375 14.3125 C1.6075 15.9625 1.2775 17.6125 0.9375 19.3125 C-0.3825 18.6525 -1.7025 17.9925 -3.0625 17.3125 C-3.0625 16.3225 -3.0625 15.3325 -3.0625 14.3125 C-5.7025 14.6425 -8.3425 14.9725 -11.0625 15.3125 C-11.3925 13.9925 -11.7225 12.6725 -12.0625 11.3125 C-10.7425 11.3125 -9.4225 11.3125 -8.0625 11.3125 C-8.0625 10.6525 -8.0625 9.9925 -8.0625 9.3125 C-9.3825 8.6525 -10.7025 7.9925 -12.0625 7.3125 C-12.25 4.9375 -12.25 4.9375 -12.0625 2.3125 C-7.97986982 -0.40925345 -4.79107759 -0.01872978 0 0 Z M-1.0625 5.3125 C-1.0625 6.9625 -1.0625 8.6125 -1.0625 10.3125 C-0.7325 10.3125 -0.4025 10.3125 -0.0625 10.3125 C-0.0625 8.6625 -0.0625 7.0125 -0.0625 5.3125 C-0.3925 5.3125 -0.7225 5.3125 -1.0625 5.3125 Z " fill="#5957A0" transform="translate(66.0625,11.6875)"/>
<path d="M0 0 C-1.66105114 5.1791781 -4.80206569 9.25552437 -7.9375 13.625 C-8.47568359 14.388125 -9.01386719 15.15125 -9.56835938 15.9375 C-14.57196901 22.97093402 -14.57196901 22.97093402 -17 25 C-20.5 25.4375 -20.5 25.4375 -24 25 C-26 23.375 -26 23.375 -27 21 C-26.90840025 16.84366157 -26.38954621 15.3802713 -23.375 12.4375 C-22.26340217 11.60675845 -21.13751857 10.79487908 -20 10 C-19.41420166 9.57356201 -18.82840332 9.14712402 -18.22485352 8.70776367 C-17.04530663 7.85471149 -15.85987709 7.00972919 -14.66845703 6.17333984 C-13.18937788 5.13317971 -11.73163315 4.06282794 -10.27734375 2.98828125 C-4.03467762 -1.48267663 -4.03467762 -1.48267663 0 0 Z M-17 14 C-18.65 15.32 -20.3 16.64 -22 18 C-21.67 18.99 -21.34 19.98 -21 21 C-19.35 19.35 -17.7 17.7 -16 16 C-16.33 15.34 -16.66 14.68 -17 14 Z " fill="#57549B" transform="translate(87,48)"/>
<path d="M0 0 C0.66 0.33 1.32 0.66 2 1 C2.34022786 2.99883869 2.67329097 4.99890722 3 7 C3.66 7.66 4.32 8.32 5 9 C3.27255984 9.65043719 1.5429631 10.29514844 -0.1875 10.9375 C-1.15042969 11.29714844 -2.11335938 11.65679687 -3.10546875 12.02734375 C-11.12092238 14.72079578 -20.10668609 15.41332493 -28 12 C-28 11.01 -28 10.02 -28 9 C-25.03 9 -22.06 9 -19 9 C-18.67 7.68 -18.34 6.36 -18 5 C-16.68 5.33 -15.36 5.66 -14 6 C-14 6.99 -14 7.98 -14 9 C-13.40832031 8.86722656 -12.81664063 8.73445313 -12.20703125 8.59765625 C-8.14553475 7.68994822 -4.08625829 6.7908887 0 6 C-0.185625 5.195625 -0.37125 4.39125 -0.5625 3.5625 C-0.706875 2.716875 -0.85125 1.87125 -1 1 C-0.67 0.67 -0.34 0.34 0 0 Z " fill="#504F90" transform="translate(82,94)"/>
<path d="M0 0 C1.28825684 0.01047363 2.57651367 0.02094727 3.90380859 0.03173828 C4.93167984 0.03598312 4.93167984 0.03598312 5.98031616 0.04031372 C8.17113636 0.05151797 10.36154925 0.07662219 12.55224609 0.10205078 C14.03661519 0.1120803 15.5209907 0.1212062 17.00537109 0.12939453 C20.6461287 0.15145784 24.28664766 0.18598903 27.92724609 0.22705078 C28.48974609 2.16455078 28.48974609 2.16455078 28.92724609 4.22705078 C26.25500131 6.89929557 18.56829859 5.45702995 14.71704102 5.46728516 C12.50222295 5.47699608 10.28833069 5.50800868 8.07373047 5.53955078 C6.67204329 5.54608008 5.27034946 5.55133084 3.86865234 5.55517578 C2.58676025 5.56452148 1.30486816 5.57386719 -0.01586914 5.58349609 C-1.02464111 5.46586914 -2.03341309 5.34824219 -3.07275391 5.22705078 C-3.73275391 4.23705078 -4.39275391 3.24705078 -5.07275391 2.22705078 C-3.07275391 0.22705078 -3.07275391 0.22705078 0 0 Z " fill="#4D5090" transform="translate(24.07275390625,66.77294921875)"/>
<path d="M0 0 C8.91 0 17.82 0 27 0 C27.33 1.32 27.66 2.64 28 4 C25.41276011 5.29361994 23.51886997 5.12948949 20.625 5.1328125 C19.55765625 5.13410156 18.4903125 5.13539062 17.390625 5.13671875 C16.27171875 5.13285156 15.1528125 5.12898438 14 5.125 C12.88109375 5.12886719 11.7621875 5.13273437 10.609375 5.13671875 C9.00835937 5.13478516 9.00835937 5.13478516 7.375 5.1328125 C6.39273438 5.13168457 5.41046875 5.13055664 4.3984375 5.12939453 C2 5 2 5 0 4 C0 2.68 0 1.36 0 0 Z " fill="#555595" transform="translate(26,56)"/>
<path d="M0 0 C1.0528418 0.01353516 1.0528418 0.01353516 2.12695312 0.02734375 C3.85561525 0.05086296 5.58410145 0.08673287 7.3125 0.125 C7.9725 1.445 8.6325 2.765 9.3125 4.125 C8.3125 5.125 8.3125 5.125 5.75 5.1875 C4.5434375 5.1565625 4.5434375 5.1565625 3.3125 5.125 C3.3125 4.465 3.3125 3.805 3.3125 3.125 C0.6725 3.125 -1.9675 3.125 -4.6875 3.125 C-5.0175 4.115 -5.3475 5.105 -5.6875 6.125 C-4.6975 6.125 -3.7075 6.125 -2.6875 6.125 C-2.3575 7.115 -2.0275 8.105 -1.6875 9.125 C-0.0375 9.455 1.6125 9.785 3.3125 10.125 C1.8275 12.6 1.8275 12.6 0.3125 15.125 C-0.3475 14.465 -1.0075 13.805 -1.6875 13.125 C-4.37589385 12.85508094 -6.97891936 13.03762643 -9.6875 13.125 C-9.6875 12.135 -9.6875 11.145 -9.6875 10.125 C-9.0275 10.125 -8.3675 10.125 -7.6875 10.125 C-7.6875 9.465 -7.6875 8.805 -7.6875 8.125 C-9.0075 7.465 -10.3275 6.805 -11.6875 6.125 C-11.375 4.25 -11.375 4.25 -10.6875 2.125 C-7.00662647 -0.32891569 -4.24394412 -0.10302759 0 0 Z " fill="#5A57AE" transform="translate(65.6875,12.875)"/>
<path d="M0 0 C-1.48752459 6.79665707 -2.72372111 12.23848003 -8 17 C-9.32 17 -10.64 17 -12 17 C-12 17.66 -12 18.32 -12 19 C-10.02 19 -8.04 19 -6 19 C-6 19.33 -6 19.66 -6 20 C-12.40504648 20.48339973 -12.40504648 20.48339973 -15 18.375 C-16.39508329 15.06167719 -16.04093551 13.43888005 -15 10 C-12.86365591 7.93632067 -10.95401511 6.31824385 -8.5625 4.625 C-7.96373047 4.17511719 -7.36496094 3.72523437 -6.74804688 3.26171875 C-2.32142857 0 -2.32142857 0 0 0 Z M-6 9 C-7.65 10.32 -9.3 11.64 -11 13 C-10.67 13.99 -10.34 14.98 -10 16 C-8.35 14.35 -6.7 12.7 -5 11 C-5.33 10.34 -5.66 9.68 -6 9 Z " fill="#525197" transform="translate(76,53)"/>
<path d="M0 0 C0.91644287 0.00523682 1.83288574 0.01047363 2.77709961 0.01586914 C3.76645508 0.0190918 4.75581055 0.02231445 5.77514648 0.02563477 C6.81606445 0.03401367 7.85698242 0.04239258 8.92944336 0.05102539 C10.49662109 0.05779297 10.49662109 0.05779297 12.09545898 0.06469727 C14.68600996 0.07652627 17.27644895 0.0930085 19.86694336 0.11352539 C20.42944336 2.05102539 20.42944336 2.05102539 20.86694336 4.11352539 C19.86694336 5.11352539 19.86694336 5.11352539 17.73388672 5.22705078 C16.81744385 5.22181396 15.90100098 5.21657715 14.95678711 5.21118164 C13.96743164 5.20795898 12.97807617 5.20473633 11.95874023 5.20141602 C10.91782227 5.19303711 9.8769043 5.1846582 8.80444336 5.17602539 C7.7596582 5.17151367 6.71487305 5.16700195 5.63842773 5.16235352 C3.04787676 5.15052452 0.45743777 5.13404228 -2.13305664 5.11352539 C-2.69555664 3.17602539 -2.69555664 3.17602539 -3.13305664 1.11352539 C-2.13305664 0.11352539 -2.13305664 0.11352539 0 0 Z " fill="#50529E" transform="translate(32.133056640625,77.886474609375)"/>
<path d="M0 0 C3.36295835 1.44126786 5.62927102 3.20592655 8 6 C8 9 8 9 6.875 10.6875 C4.20258094 12.55819334 2.18674645 12.27121246 -1 12 C-3 11 -3 11 -4.125 7.9375 C-4.41375 6.968125 -4.7025 5.99875 -5 5 C-3.35 3.35 -1.7 1.7 0 0 Z " fill="#605DA5" transform="translate(101,21)"/>
<path d="M0 0 C1.18613892 0.00785522 1.18613892 0.00785522 2.39624023 0.01586914 C3.67724609 0.02070312 3.67724609 0.02070312 4.98413086 0.02563477 C5.88196289 0.03401367 6.77979492 0.04239258 7.70483398 0.05102539 C8.6065332 0.05553711 9.50823242 0.06004883 10.43725586 0.06469727 C12.67234712 0.07652315 14.90730835 0.09300319 17.14233398 0.11352539 C16.81233398 1.76352539 16.48233398 3.41352539 16.14233398 5.11352539 C10.53233398 5.11352539 4.92233398 5.11352539 -0.85766602 5.11352539 C-1.51766602 3.79352539 -2.17766602 2.47352539 -2.85766602 1.11352539 C-1.85766602 0.11352539 -1.85766602 0.11352539 0 0 Z " fill="#585CA0" transform="translate(35.857666015625,44.886474609375)"/>
<path d="M0 0 C4.29 0 8.58 0 13 0 C13.33 0.99 13.66 1.98 14 3 C12 5 12 5 8.9609375 5.1953125 C7.77757812 5.17210938 6.59421875 5.14890625 5.375 5.125 C4.18648437 5.10695313 2.99796875 5.08890625 1.7734375 5.0703125 C0.85820313 5.04710938 -0.05703125 5.02390625 -1 5 C-0.67 3.35 -0.34 1.7 0 0 Z " fill="#555892" transform="translate(40,89)"/>
<path d="M0 0 C0.75788818 -0.01289062 1.51577637 -0.02578125 2.29663086 -0.0390625 C4.22006729 -0.04252776 6.14299503 0.06453497 8.0625 0.1875 C8.7225 0.8475 9.3825 1.5075 10.0625 2.1875 C8.18866472 4.06133528 5.51925045 3.31986829 3.02880859 3.32617188 C2.21492676 3.32166016 1.40104492 3.31714844 0.5625 3.3125 C-0.25524902 3.31056641 -1.07299805 3.30863281 -1.91552734 3.30664062 C-7.32334548 3.26786718 -12.58163875 2.98096093 -17.9375 2.1875 C-17.9375 1.8575 -17.9375 1.5275 -17.9375 1.1875 C-11.9484066 0.31635914 -6.0433062 0.05083214 0 0 Z " fill="#585AAC" transform="translate(40.9375,67.8125)"/>
<path d="M0 0 C0.33 1.32 0.66 2.64 1 4 C7.93 2.515 7.93 2.515 15 1 C15.33 1.66 15.66 2.32 16 3 C15.34 3 14.68 3 14 3 C14 3.66 14 4.32 14 5 C10.38132441 6.2062252 7.07493749 6.10816918 3.3125 6.0625 C2.61060547 6.05798828 1.90871094 6.05347656 1.18554688 6.04882812 C-0.54300538 6.03706927 -2.27151365 6.01913454 -4 6 C-4.33 5.34 -4.66 4.68 -5 4 C-3.35 4 -1.7 4 0 4 C0 2.68 0 1.36 0 0 Z " fill="#5B589F" transform="translate(65,101)"/>
<path d="M0 0 C1.51400391 0.01740234 1.51400391 0.01740234 3.05859375 0.03515625 C4.07050781 0.04417969 5.08242188 0.05320313 6.125 0.0625 C7.29869141 0.07990234 7.29869141 0.07990234 8.49609375 0.09765625 C8.82609375 1.08765625 9.15609375 2.07765625 9.49609375 3.09765625 C7.49609375 5.09765625 7.49609375 5.09765625 5.33203125 5.29296875 C4.11386719 5.25816406 4.11386719 5.25816406 2.87109375 5.22265625 C2.05382813 5.20460938 1.2365625 5.1865625 0.39453125 5.16796875 C-0.23195312 5.14476562 -0.8584375 5.1215625 -1.50390625 5.09765625 C-2.16390625 3.77765625 -2.82390625 2.45765625 -3.50390625 1.09765625 C-2.50390625 0.09765625 -2.50390625 0.09765625 0 0 Z " fill="#5A57A7" transform="translate(44.50390625,33.90234375)"/>
<path d="M0 0 C0 0.99 0 1.98 0 3 C-0.99 3.495 -0.99 3.495 -2 4 C-2.33 4.99 -2.66 5.98 -3 7 C-3.66 7 -4.32 7 -5 7 C-5.66 8.32 -6.32 9.64 -7 11 C-7.99 10.67 -8.98 10.34 -10 10 C-9.73727987 6.14677136 -9.42708562 4.43862847 -6.6875 1.625 C-4 0 -4 0 0 0 Z " fill="#5D5AA8" transform="translate(85,48)"/>
<path d="M0 0 C1.41152344 0.07250977 1.41152344 0.07250977 2.8515625 0.14648438 C3.83640625 0.20255859 4.82125 0.25863281 5.8359375 0.31640625 C6.82851563 0.36861328 7.82109375 0.42082031 8.84375 0.47460938 C11.29978318 0.60449574 13.7554311 0.73946789 16.2109375 0.87890625 C16.2109375 1.53890625 16.2109375 2.19890625 16.2109375 2.87890625 C8.9509375 2.87890625 1.6909375 2.87890625 -5.7890625 2.87890625 C-6.1190625 2.21890625 -6.4490625 1.55890625 -6.7890625 0.87890625 C-4.28805676 -0.37159662 -2.78563198 -0.15102824 0 0 Z " fill="#5E5EB3" transform="translate(34.7890625,56.12109375)"/>
<path d="M0 0 C2 2 2 2 2 5 C0.8125 6.75 0.8125 6.75 -1 8 C-3.6875 7.6875 -3.6875 7.6875 -6 7 C-6.33 5.35 -6.66 3.7 -7 2 C-6.01 1.67 -5.02 1.34 -4 1 C-3.01 1.66 -2.02 2.32 -1 3 C-0.67 2.01 -0.34 1.02 0 0 Z " fill="#6C69AD" transform="translate(107,25)"/>
<path d="M0 0 C0.99 0.495 0.99 0.495 2 1 C4.87812055 2.13505561 4.87812055 2.13505561 7.5625 2 C10 2 10 2 12 3 C12.33 2.34 12.66 1.68 13 1 C14.32 1.66 15.64 2.32 17 3 C16.01 3 15.02 3 14 3 C13.67 4.65 13.34 6.3 13 8 C11.68 7.34 10.36 6.68 9 6 C9 5.01 9 4.02 9 3 C6.36 3.33 3.72 3.66 1 4 C0.67 2.68 0.34 1.36 0 0 Z " fill="#4A4C87" transform="translate(54,23)"/>
<path d="M0 0 C1.32 0.33 2.64 0.66 4 1 C3.67 1.33 3.34 1.66 3 2 C5.72501908 2.90833969 7.62233971 3.18359985 10.44921875 3.31640625 C11.29677734 3.35830078 12.14433594 3.40019531 13.01757812 3.44335938 C13.89865234 3.48267578 14.77972656 3.52199219 15.6875 3.5625 C16.58017578 3.60568359 17.47285156 3.64886719 18.39257812 3.69335938 C20.59490108 3.79935353 22.79733473 3.90142051 25 4 C25 4.33 25 4.66 25 5 C21.20834926 5.0289337 17.41672673 5.04677601 13.625 5.0625 C12.54476562 5.07087891 11.46453125 5.07925781 10.3515625 5.08789062 C8.8046875 5.09272461 8.8046875 5.09272461 7.2265625 5.09765625 C6.27346191 5.10289307 5.32036133 5.10812988 4.33837891 5.11352539 C2 5 2 5 0 4 C0 2.68 0 1.36 0 0 Z " fill="#484B7F" transform="translate(26,56)"/>
<path d="M0 0 C2.64 0.99 5.28 1.98 8 3 C7.67 3.99 7.34 4.98 7 6 C8.32 6.33 9.64 6.66 11 7 C10.67 7.66 10.34 8.32 10 9 C7.36 9 4.72 9 2 9 C2 8.01 2 7.02 2 6 C2.66 6 3.32 6 4 6 C4 5.34 4 4.68 4 4 C2.68 3.34 1.36 2.68 0 2 C0 1.34 0 0.68 0 0 Z " fill="#54529E" transform="translate(54,17)"/>
<path d="M0 0 C0.33 1.32 0.66 2.64 1 4 C10.405 3.505 10.405 3.505 20 3 C20.33 2.34 20.66 1.68 21 1 C21.66 1 22.32 1 23 1 C22.67 2.32 22.34 3.64 22 5 C14.74 5 7.48 5 0 5 C-0.33 3.68 -0.66 2.36 -1 1 C-0.67 0.67 -0.34 0.34 0 0 Z " fill="#4F518A" transform="translate(30,78)"/>
<path d="M0 0 C2.97 0.495 2.97 0.495 6 1 C5.67 2.32 5.34 3.64 5 5 C5.66 5 6.32 5 7 5 C7 5.99 7 6.98 7 8 C5.35 7.67 3.7 7.34 2 7 C2 6.01 2 5.02 2 4 C1.01 4 0.02 4 -1 4 C-0.67 2.68 -0.34 1.36 0 0 Z " fill="#4E4E9A" transform="translate(61,15)"/>
<path d="M0 0 C0.33 0.66 0.66 1.32 1 2 C0.34 2 -0.32 2 -1 2 C-1 2.66 -1 3.32 -1 4 C-4.63 4 -8.26 4 -12 4 C-11.67 3.01 -11.34 2.02 -11 1 C-5.555 0.505 -5.555 0.505 0 0 Z " fill="#5659B3" transform="translate(52,89)"/>
<path d="M0 0 C0.66 0.66 1.32 1.32 2 2 C2.99 2 3.98 2 5 2 C5 3.65 5 5.3 5 7 C4.01 6.67 3.02 6.34 2 6 C2 6.99 2 7.98 2 9 C0.68 9 -0.64 9 -2 9 C-2 8.34 -2 7.68 -2 7 C-1.34 7 -0.68 7 0 7 C0 4.69 0 2.38 0 0 Z " fill="#6563A9" transform="translate(103,55)"/>
<path d="M0 0 C0.33 1.32 0.66 2.64 1 4 C2.65 3.67 4.3 3.34 6 3 C6.33 3.66 6.66 4.32 7 5 C4.59454362 6.20272819 3.05003047 6.10071472 0.375 6.0625 C-0.85089844 6.04896484 -0.85089844 6.04896484 -2.1015625 6.03515625 C-3.04128906 6.01775391 -3.04128906 6.01775391 -4 6 C-4.33 5.34 -4.66 4.68 -5 4 C-3.35 4 -1.7 4 0 4 C0 2.68 0 1.36 0 0 Z " fill="#5D58AF" transform="translate(65,101)"/>
<path d="M0 0 C1.134375 0.020625 2.26875 0.04125 3.4375 0.0625 C2.4784375 0.495625 2.4784375 0.495625 1.5 0.9375 C-0.71456079 1.89073451 -0.71456079 1.89073451 -1.5625 4.0625 C1.0775 4.0625 3.7175 4.0625 6.4375 4.0625 C6.4375 4.3925 6.4375 4.7225 6.4375 5.0625 C3.4675 5.0625 0.4975 5.0625 -2.5625 5.0625 C-3.2225 3.7425 -3.8825 2.4225 -4.5625 1.0625 C-3.5625 0.0625 -3.5625 0.0625 0 0 Z " fill="#54538C" transform="translate(45.5625,33.9375)"/>
<path d="M0 0 C5.23175837 -0.38281159 8.37802694 0.78145293 13 3 C12.34 4.65 11.68 6.3 11 8 C10.67 7.34 10.34 6.68 10 6 C10.33 5.34 10.66 4.68 11 4 C7.37 3.01 3.74 2.02 0 1 C0 0.67 0 0.34 0 0 Z " fill="#4E4E91" transform="translate(71,26)"/>
<path d="M0 0 C3.3 0 6.6 0 10 0 C10.33 0.99 10.66 1.98 11 3 C10 4 10 4 7.4375 4.0625 C6.2309375 4.0315625 6.2309375 4.0315625 5 4 C5 3.34 5 2.68 5 2 C3.35 1.67 1.7 1.34 0 1 C0 0.67 0 0.34 0 0 Z " fill="#6162B6" transform="translate(64,14)"/>
<path d="M0 0 C1.5 1.1875 1.5 1.1875 3 3 C3.1875 5.6875 3.1875 5.6875 3 8 C2.01 7.67 1.02 7.34 0 7 C-0.38133299 5.0085944 -0.71325582 3.00720923 -1 1 C-0.67 0.67 -0.34 0.34 0 0 Z " fill="#5955B6" transform="translate(84,94)"/>
<path d="M0 0 C0.66 0.33 1.32 0.66 2 1 C1.34 2.65 0.68 4.3 0 6 C-1.98 6 -3.96 6 -6 6 C-6 5.34 -6 4.68 -6 4 C-4.7934375 3.566875 -4.7934375 3.566875 -3.5625 3.125 C-0.8673532 2.26737432 -0.8673532 2.26737432 0 0 Z " fill="#5C5AAA" transform="translate(70,66)"/>
<path d="M0 0 C0.99 0.33 1.98 0.66 3 1 C2.649375 1.61875 2.29875 2.2375 1.9375 2.875 C1.628125 3.57625 1.31875 4.2775 1 5 C1.33 5.66 1.66 6.32 2 7 C0.68 6.67 -0.64 6.34 -2 6 C-1.49396008 3.83125748 -1.00016187 2.00032373 0 0 Z " fill="#636397" transform="translate(96,42)"/>
<path d="M0 0 C0.66 0.33 1.32 0.66 2 1 C2 4 2 4 0.5625 5.6875 C-1 7 -1 7 -2 7 C-2 5.02 -2 3.04 -2 1 C-1.34 0.67 -0.68 0.34 0 0 Z " fill="#585899" transform="translate(89,95)"/>
<path d="M0 0 C0.99 0.33 1.98 0.66 3 1 C2.34 2.32 1.68 3.64 1 5 C0.01 5 -0.98 5 -2 5 C-2 3.68 -2 2.36 -2 1 C-1.34 0.67 -0.68 0.34 0 0 Z " fill="#5757A3" transform="translate(62,64)"/>
<path d="M0 0 C1.32 0 2.64 0 4 0 C3.67 1.65 3.34 3.3 3 5 C2.01 4.67 1.02 4.34 0 4 C0 2.68 0 1.36 0 0 Z " fill="#5F5CB2" transform="translate(97,82)"/>
</svg>
