<svg width="80" height="71" viewBox="0 0 80 71" fill="none" xmlns="http://www.w3.org/2000/svg">
<path d="M17.9826 57.2589L14.0492 56.6792L12.2895 53.0978C11.8961 52.2904 11.0888 51.7935 10.1986 51.7935C9.30836 51.7935 8.50098 52.2904 8.10764 53.0978L6.34795 56.6792L2.39382 57.2589C1.50363 57.3831 0.799751 57.9835 0.50992 58.8323C0.240791 59.6811 0.468515 60.592 1.08958 61.213L3.94649 63.9871L3.26332 67.9206C3.1184 68.79 3.47034 69.6595 4.19492 70.1978C4.91949 70.7154 5.85109 70.7982 6.63778 70.3841L10.1572 68.5209L13.6972 70.3841C15.3741 71.2536 17.3822 69.8045 17.0717 67.9413L16.3885 64.0078L19.2454 61.2337C19.8872 60.6127 20.1149 59.7018 19.8251 58.853C19.5974 57.9835 18.8728 57.3831 17.9826 57.2589ZM14.7945 62.331C14.2562 62.8692 13.9871 63.6352 14.132 64.3805L14.7945 68.2932L11.2751 66.4507C10.5505 66.0988 9.82592 66.0988 9.12204 66.4507L5.60267 68.2932L6.26514 64.3805C6.38935 63.6352 6.14092 62.8485 5.60267 62.331L2.76646 59.5569L6.69988 58.9772C7.46587 58.8737 8.10764 58.3975 8.43887 57.7144L10.1986 54.1536L11.9582 57.7144C12.2895 58.3975 12.952 58.8737 13.6972 58.9772L17.6307 59.5569L14.7945 62.331Z" fill="#5958A0"/>
<path d="M13.5526 0.638272C11.4203 -0.169115 9.03956 -0.210519 6.84512 0.514059C6.24476 0.721081 5.91352 1.38355 6.09984 1.98392C6.30686 2.58428 6.96933 2.91552 7.5697 2.7292C11.2547 1.50777 15.4365 3.32956 17.0513 6.86964C18.5626 10.182 17.4861 14.2189 14.5256 16.3306C14.2151 16.5376 14.0495 16.8895 14.0495 17.2622L14.0081 20.057L12.0621 18.0488C11.8137 17.7797 11.441 17.6555 11.0684 17.7176C7.71461 18.1731 4.38156 16.3306 2.99451 13.2666C1.77308 10.5753 2.22852 7.28369 4.15383 5.02714C4.56788 4.53029 4.52647 3.80571 4.02962 3.39167C3.53276 2.97762 2.80819 3.01903 2.39414 3.51588C-0.110827 6.43489 -0.711191 10.6996 0.88288 14.2189C2.60116 18.0074 6.6381 20.3882 10.7992 20.0777L12.621 21.9616C13.9253 23.3072 16.3267 22.3549 16.3474 20.471L16.3681 17.8625C19.8668 15.0263 21.0468 9.99568 19.1629 5.89664C18.0657 3.43307 16.0783 1.56987 13.5526 0.638272Z" fill="#5958A0"/>
<path d="M5.1066 10.6788C5.35502 11.2585 6.0175 11.5483 6.59716 11.3206C7.19752 11.0929 7.50806 10.4097 7.28033 9.83004C7.05261 9.22968 6.34873 8.91914 5.74837 9.16757C5.148 9.416 4.85817 10.0992 5.1066 10.6788Z" fill="#5958A0"/>
<path d="M9.06098 10.8859C9.41292 11.4241 10.1789 11.569 10.7172 11.1757C11.2347 10.803 11.3589 10.0785 11.007 9.56092C10.6551 9.04336 9.93047 8.89845 9.39222 9.25038C8.85396 9.62302 8.70904 10.3683 9.06098 10.8859Z" fill="#5958A0"/>
<path d="M12.9106 10.8859C13.2625 11.4241 14.0078 11.5483 14.5254 11.2171C15.0636 10.8652 15.1878 10.1199 14.8566 9.60233C14.5047 9.06407 13.7594 8.93986 13.2418 9.27109C12.7036 9.62303 12.5587 10.3683 12.9106 10.8859Z" fill="#5958A0"/>
<path d="M16.0564 36.8464H17.195C18.3129 36.8464 19.2238 35.9355 19.2238 34.8176V33.7411C19.2238 31.4431 17.3399 29.5592 15.042 29.5592H14.2553C14.2139 27.3234 12.2886 25.3774 10.032 25.4188C7.79619 25.4602 5.97439 27.3234 5.97439 29.5592H5.18771C2.88976 29.5592 1.00586 31.4431 1.00586 33.7411V43.5954C1.00586 45.8933 2.88976 47.7772 5.18771 47.7772H15.042C17.3399 47.7772 19.2238 45.8933 19.2238 43.5954V42.5188C19.2238 41.4009 18.3129 40.49 17.195 40.49H15.9736C15.0006 40.49 14.1725 39.6826 14.1518 38.7096C14.1518 37.6745 15.1041 36.8464 16.0564 36.8464ZM15.9736 42.8087H16.8845V43.5954C16.8845 44.6098 16.0564 45.4586 15.0213 45.4586H5.18771C4.1733 45.4586 3.32451 44.6305 3.32451 43.5954V33.7411C3.32451 32.7267 4.1526 31.8779 5.18771 31.8779H7.13372C7.77549 31.8779 8.29304 31.3603 8.29304 30.7186V29.5592C8.29304 28.5862 9.07973 27.7582 10.0734 27.7374C11.0878 27.7167 11.9159 28.6691 11.9159 29.6214V30.6979C11.9159 31.3396 12.4335 31.8572 13.0753 31.8572H15.0213C16.0357 31.8572 16.8845 32.6853 16.8845 33.7204V34.5071H16.0357C13.7791 34.5071 11.771 36.4324 11.8124 38.7303C11.8745 40.9869 13.7377 42.8087 15.9736 42.8087Z" fill="#5958A0"/>
<path d="M72.9893 57.3624H30.1978C26.6163 57.3624 23.6973 60.2814 23.6973 63.8629C23.6973 67.4443 26.6163 70.3634 30.1978 70.3634H61.1683C61.7894 70.3634 62.3897 69.7009 62.3276 69.0798C62.2655 68.4795 61.5823 67.9412 60.982 68.0447H30.1978C27.8998 68.0447 26.0366 66.1815 26.0366 63.8836C26.0366 61.5856 27.8998 59.7224 30.1978 59.7224H68.973V68.0447C67.9172 68.0447 66.82 67.9619 65.7642 68.024C65.1431 68.0654 64.667 68.5623 64.667 69.1833C64.667 69.7837 65.2466 70.3841 65.8263 70.3841H72.9893C76.5708 70.3841 79.4898 67.4651 79.4898 63.8836C79.4898 60.2814 76.5708 57.3624 72.9893 57.3624ZM72.9893 68.024H71.2917V59.7017H72.9893C75.2872 59.7017 77.1504 61.5649 77.1504 63.8629C77.1504 66.1608 75.2872 68.024 72.9893 68.024Z" fill="#5958A0"/>
<path d="M30.1978 19.8706H73.01C76.5915 19.8706 79.5105 16.9516 79.5105 13.3701C79.5105 9.78864 76.5915 6.86963 73.01 6.86963H30.1978C26.6163 6.86963 23.6973 9.78864 23.6973 13.3701C23.6973 16.9516 26.6163 19.8706 30.1978 19.8706ZM77.1504 13.3701C77.1504 15.6681 75.2872 17.5313 72.9893 17.5313H60.7542V9.20898H72.9893C75.2872 9.20898 77.1504 11.0722 77.1504 13.3701ZM30.1978 9.20898H58.4356V17.552H30.1978C27.8998 17.552 26.0366 15.6888 26.0366 13.3908C26.0366 11.0929 27.8998 9.20898 30.1978 9.20898Z" fill="#5958A0"/>
<path d="M72.9893 32.1263H30.1978C26.6163 32.1263 23.6973 35.0454 23.6973 38.6268C23.6973 42.2083 26.6163 45.1273 30.1978 45.1273H73.01C76.5915 45.1273 79.5105 42.2083 79.5105 38.6268C79.5105 35.0454 76.5708 32.1263 72.9893 32.1263ZM26.0159 38.6061C26.0159 36.3082 27.8791 34.445 30.1771 34.445H50.4238V42.7673H30.1771C27.8998 42.788 26.0159 40.9041 26.0159 38.6061ZM72.9893 42.788H52.7425V34.4657H72.9893C75.2872 34.4657 77.1504 36.3289 77.1504 38.6268C77.1504 40.9041 75.2872 42.788 72.9893 42.788Z" fill="#5958A0"/>
<path d="M31.3976 3.4124H53.0728C53.7146 3.4124 54.2322 2.89484 54.2322 2.25307C54.2322 1.61131 53.7146 1.09375 53.0728 1.09375H31.3976C30.7558 1.09375 30.2383 1.61131 30.2383 2.25307C30.2383 2.89484 30.7558 3.4124 31.3976 3.4124Z" fill="#5958A0"/>
<path d="M31.3976 26.3297C30.7558 26.3297 30.2383 26.8473 30.2383 27.489C30.2383 28.1308 30.7558 28.6484 31.3976 28.6484H63.0099C63.6517 28.6484 64.1692 28.1308 64.1692 27.489C64.1692 26.8473 63.6517 26.3297 63.0099 26.3297H31.3976Z" fill="#5958A0"/>
<path d="M57.9793 53.9051C58.621 53.9051 59.1386 53.3875 59.1386 52.7458C59.1386 52.104 58.621 51.5864 57.9793 51.5864H31.3976C30.7558 51.5864 30.2383 52.104 30.2383 52.7458C30.2383 53.3875 30.7558 53.9051 31.3976 53.9051H57.9793Z" fill="#5958A0"/>
</svg>
